<svg id="e42bb6e0-0dbc-4a3e-bd02-11d6ba3585c7" xmlns="http://www.w3.org/2000/svg" width="18" height="18" viewBox="0 0 18 18">
  <path d="M17.579,3.232H9.727a.42.42,0,0,1-.233-.071L7.251,1.669A.42.42,0,0,0,7.018,1.6H.421A.42.42,0,0,0,0,2.018v13.86a.42.42,0,0,0,.421.42H17.579a.42.42,0,0,0,.421-.42V3.651A.42.42,0,0,0,17.579,3.232Z" fill="#5a468a"/>
  <path d="M17.579,3.211H8.956a.421.421,0,0,0-.3.123L7.272,4.721a.42.42,0,0,1-.3.123H.421A.42.42,0,0,0,0,5.264V15.858a.42.42,0,0,0,.421.42H17.579a.42.42,0,0,0,.421-.42V3.631A.42.42,0,0,0,17.579,3.211Z" fill="#8065be"/>
  <g>
    <path d="M3.026,11.786h.412a.264.264,0,0,1,.264.264v3.043a.132.132,0,0,1-.132.132H3.157a.132.132,0,0,1-.132-.132V11.786A0,0,0,0,1,3.026,11.786Z" transform="translate(10.552 1.587) rotate(45.081)" fill="#fff" opacity="0.8"/>
    <path d="M3.312,9.867h.412a0,0,0,0,1,0,0v3.258a.132.132,0,0,1-.132.132H3.18a.132.132,0,0,1-.132-.132V10.131A.264.264,0,0,1,3.312,9.867Z" transform="translate(13.948 17.359) rotate(135.081)" fill="#fff"/>
    <rect x="6.779" y="12.611" width="0.676" height="3.39" rx="0.3" transform="translate(21.433 7.209) rotate(90.081)" fill="#fff"/>
  </g>
  <rect x="10.471" y="1.867" width="0.761" height="10.932" rx="0.3" transform="translate(18.201 -3.508) rotate(90.081)" fill="#fff" opacity="0.8"/>
  <rect x="8.786" y="5.743" width="0.761" height="7.562" rx="0.3" transform="translate(18.703 0.371) rotate(90.081)" fill="#fff" opacity="0.6"/>
</svg>
