<svg xmlns="http://www.w3.org/2000/svg" viewBox="0 0 16 16">
  <path d="M14.5,6h.6l.5.3.3.5a1.3,1.3,0,0,1,.1.6.9.9,0,0,1-.1.5l-2,6a.8.8,0,0,1-.2.4l-.3.3-.4.2H8.5a8.6,8.6,0,0,1-2.7-.5l-1.1-.4H0V7H3.3l.9-.2L5,6.3,9.9,1.4l.4-.3h.9l.4.3.3.4a.7.7,0,0,1,.1.5,4.881,4.881,0,0,1-.1,1.2l-.5,1.1a6.279,6.279,0,0,0-.2.7c-.1.2-.1.5-.2.7Zm-2,8h.3l.2-.2a4.294,4.294,0,0,0,.1-.5l.3-.7.3-1a7.691,7.691,0,0,1,.4-1.1l.3-1,.3-.9a2.506,2.506,0,0,0,.2-.7V7.5a.6.6,0,0,0-.1-.4H10V6.2c0-.2.1-.4.1-.7a1.392,1.392,0,0,1,.2-.6.9.9,0,0,1,.3-.7l.3-1a2.793,2.793,0,0,0,.1-.9c0-.1,0-.2-.1-.2a.1.1,0,0,0-.1-.1h-.2L5.7,7l-.5.4-.6.3A3.094,3.094,0,0,1,3.3,8H1v5H3.5a8.6,8.6,0,0,1,2.7.5,5.9,5.9,0,0,0,2.3.5Z" />
</svg>