<svg xmlns="http://www.w3.org/2000/svg" width="18" height="18" viewBox="0 0 18 18">
  <defs>
    <linearGradient id="bdd4cc4c-afa9-41c5-bea3-370c39bbd27d" x1="13.995" y1="17.434" x2="13.995" y2="10.423" gradientUnits="userSpaceOnUse">
      <stop offset="0" stop-color="#32bedd"/>
      <stop offset="1" stop-color="#50e6ff"/>
    </linearGradient>
    <clipPath id="ae3745aa-f063-4a3e-991b-dccd8dbba414">
      <path d="M9.753,11.013a1.328,1.328,0,0,1,1.326-1.326h2.6L17.231,6.07a.589.589,0,0,0,.169-.406l.05-4.637a.59.59,0,0,0-.59-.6H1.125a.59.59,0,0,0-.59.588L.5,16.978a.589.589,0,0,0,.589.591H5.705a.591.591,0,0,0,.421-.177l3.627-3.7ZM4.342,13.685l.025-9.129a.294.294,0,0,1,.294-.294l9.025-.021Z" fill="none"/>
    </clipPath>
    <linearGradient id="a4569c88-327a-424a-9a99-de402eef14d9" x1="6.275" y1="6.3" x2="12.314" y2="12.339" gradientUnits="userSpaceOnUse">
      <stop offset="0" stop-color="#32bedd"/>
      <stop offset="0.265" stop-color="#30b9d9"/>
      <stop offset="0.56" stop-color="#29acce"/>
      <stop offset="0.87" stop-color="#1f96bc"/>
      <stop offset="1" stop-color="#198ab3"/>
    </linearGradient>
  </defs>
  <g id="a14fcbdb-472b-48a6-ac35-ad1e6cdc9e62">
    <g>
      <rect x="10.489" y="10.423" width="7.011" height="7.011" rx="0.589" fill="url(#bdd4cc4c-afa9-41c5-bea3-370c39bbd27d)"/>
      <g clip-path="url(#ae3745aa-f063-4a3e-991b-dccd8dbba414)">
        <path d="M4.291,13.929l.073-9.373a.3.3,0,0,1,.295-.294l9.144,0L17.454.431H1.122a.589.589,0,0,0-.589.588L.5,17.569Z" fill="#b3b3b3"/>
        <path d="M5.7,17.569H.5L17.454.431,17.4,5.664a.588.588,0,0,1-.168.406L6.123,17.392A.589.589,0,0,1,5.7,17.569Z" fill="url(#a4569c88-327a-424a-9a99-de402eef14d9)"/>
      </g>
    </g>
  </g>
</svg>
