<svg xmlns="http://www.w3.org/2000/svg" width="18" height="18" viewBox="0 0 18 18">
  <defs>
    <linearGradient id="a955d3a9-19b4-401f-8c52-4c6b7db6c67f" x1="6.793" y1="16.186" x2="6.793" y2="2.21" gradientUnits="userSpaceOnUse">
      <stop offset="0" stop-color="#0078d4"/>
      <stop offset="1" stop-color="#005ba1"/>
    </linearGradient>
  </defs>
  <g id="f998e66f-0c5e-4483-b5f0-90b913cb658d">
    <g>
      <path d="M8.311,12.28a4.034,4.034,0,0,1,5-3.916V2.742a.532.532,0,0,0-.532-.532H.806a.532.532,0,0,0-.532.532V15.654a.532.532,0,0,0,.532.532H11.334A4.042,4.042,0,0,1,8.311,12.28Z" fill="url(#a955d3a9-19b4-401f-8c52-4c6b7db6c67f)"/>
      <path d="M7.809,1.246A1.029,1.029,0,1,0,5.76,1.061a.953.953,0,0,0,0,.185H3.772a.441.441,0,0,0-.442.441h0v1.87h6.926V1.688a.441.441,0,0,0-.441-.442H7.809ZM6.643.749a.513.513,0,0,1,.634.352.524.524,0,0,1,.02.142H7.284a.51.51,0,0,1-.509.508.5.5,0,0,1-.194-.037.514.514,0,0,1-.292-.622A.5.5,0,0,1,6.643.749Z" fill="#5ea0ef"/>
      <path d="M8.311,12.28a4.038,4.038,0,0,1,4.034-4.034c.064,0,.127,0,.19,0V3.6A.532.532,0,0,0,12,3.063H1.619a.532.532,0,0,0-.532.532V14.8a.532.532,0,0,0,.532.532H9.712A4.025,4.025,0,0,1,8.311,12.28Z" fill="#0078d4"/>
      <g>
        <rect x="2.396" y="6.427" width="1.708" height="1.372" rx="0.31" fill="#fff" opacity="0.8"/>
        <rect x="5.267" y="6.427" width="5.88" height="1.372" rx="0.3" fill="#fff"/>
      </g>
      <rect x="2.439" y="9.375" width="1.708" height="1.372" rx="0.31" fill="#fff" opacity="0.8"/>
      <path d="M14.315,15.313l2.4,2.4a.562.562,0,0,0,.794,0l.056-.056a.563.563,0,0,0,0-.793L15.2,14.5A3.575,3.575,0,0,1,14.315,15.313Z" fill="#f78d1e"/>
      <path d="M12.428,8.664a3.616,3.616,0,1,0,3.617,3.616A3.615,3.615,0,0,0,12.428,8.664Zm0,6.456a2.84,2.84,0,1,1,2.842-2.841A2.841,2.841,0,0,1,12.428,15.12Z" fill="#faa21d"/>
      <path d="M15.172,13s-.778-3.891-4.411-3.008A2.84,2.84,0,0,1,15.172,13Z" fill="#c3f1ff" opacity="0.5"/>
      <path d="M9.551,9.375H5.61a.3.3,0,0,0-.3.3v.771a.3.3,0,0,0,.3.3H8.615A4.036,4.036,0,0,1,9.551,9.375Z" fill="#fff"/>
      <path d="M9.587,12.279A2.842,2.842,0,1,0,12.428,9.44,2.841,2.841,0,0,0,9.587,12.279Z" fill="#c3f1ff" opacity="0.45"/>
    </g>
  </g>
</svg>
