<?xml version="1.0" encoding="UTF-8"?>
<svg id="uuid-a4af16fa-e5c0-453c-9bf2-bebfb8991f2b" xmlns="http://www.w3.org/2000/svg" width="18" height="18" viewBox="0 0 18 18">
  <defs>
    <linearGradient id="uuid-64b71dc6-782a-431b-b513-ca1c097f43b8" x1="9.003" y1="781.988" x2="9.003" y2="791.022" gradientTransform="translate(0 791.516) scale(1 -1)" gradientUnits="userSpaceOnUse">
      <stop offset=".001" stop-color="#773adc"/>
      <stop offset="1" stop-color="#a67af4"/>
    </linearGradient>
    <linearGradient id="uuid-1dc45d38-d394-4376-93af-fc486984ca1d" x1="9.01" y1="778.503" x2="9.01" y2="781.988" gradientTransform="translate(0 791.516) scale(1 -1)" gradientUnits="userSpaceOnUse">
      <stop offset=".001" stop-color="#773adc"/>
      <stop offset="1" stop-color="#552f99"/>
    </linearGradient>
  </defs>
  <g>
    <path d="M17.079,14.854c-.151,.662-.978,1.315-2.473,1.823-3.74,1.1-7.717,1.105-11.46,.016-1.377-.486-2.12-1.106-2.236-1.739-.021-.112,0-1.858,0-1.858l16.196-.151s-.008,1.829-.026,1.909Z" fill="#5ea0ef"/>
    <ellipse cx="9" cy="13.058" rx="8.105" ry="2.802" transform="translate(-.131 .091) rotate(-.575)" fill="#50e6ff"/>
  </g>
  <rect x="2.228" y=".494" width="13.55" height="9.034" rx=".452" ry=".452" fill="url(#uuid-64b71dc6-782a-431b-b513-ca1c097f43b8)"/>
  <polygon points="11.261 3.693 11.261 6.321 9.003 7.645 9.003 5.011 11.261 3.693" fill="#50e6ff"/>
  <polygon points="11.261 3.693 9.01 5.018 6.744 3.693 9.01 2.376 11.261 3.693" fill="#c3f1ff"/>
  <polygon points="9.003 5.018 9.003 7.645 6.744 6.321 6.744 3.693 9.003 5.018" fill="#9cebff"/>
  <polygon points="6.744 6.321 9.003 5.011 9.003 7.645 6.744 6.321" fill="#c3f1ff"/>
  <polygon points="11.261 6.321 9.003 5.011 9.003 7.645 11.261 6.321" fill="#9cebff"/>
  <path d="M11.72,12.26c-1.34-.211-1.393-1.174-1.385-2.733h-2.687c0,1.558,0,2.522-1.363,2.733-.38,.046-.665,.37-.662,.753h6.775c-.017-.38-.301-.696-.678-.753Z" fill="url(#uuid-1dc45d38-d394-4376-93af-fc486984ca1d)"/>
  <path d="M5.901,1.397H3.831c-.274,0-.497,.222-.497,.497V3.972c0,.137,.111,.248,.248,.248h.166c.137,0,.248-.111,.248-.248v-1.92h1.905c.134-.004,.241-.114,.241-.248v-.158c0-.134-.107-.244-.241-.248Z" fill="#fff"/>
  <path d="M5.901,7.916h-1.912v-1.905c0-.137-.111-.248-.248-.248h-.158c-.137,0-.248,.111-.248,.248v2.108c-.004,.274,.215,.5,.489,.504h2.078c.141-.007,.25-.127,.243-.268l-.003-.026v-.166c0-.134-.107-.244-.241-.248Z" fill="#fff"/>
  <path d="M14.205,1.42h-2.04c-.137,0-.248,.111-.248,.248v.158c-.012,.137,.088,.258,.225,.27,.008,0,.016,.001,.024,.001h1.905v1.89c0,.137,.111,.248,.248,.248h.173c.137,0,.248-.111,.248-.248V1.917c0-.274-.221-.497-.495-.498-.013,0-.026,0-.039,.001Z" fill="#fff"/>
  <path d="M14.461,5.779h-.158c-.137,0-.248,.111-.248,.248h0v1.912h-1.89c-.137,0-.248,.111-.248,.248v.166c0,.137,.111,.248,.248,.248h2.07c.276,0,.5-.221,.504-.497v-2.078c.001-.137-.109-.249-.247-.25-.011,0-.021,0-.032,.002Z" fill="#fff"/>
 </svg>