<svg id="uuid-515daecc-402a-448b-9aa2-919a75a5cb59" xmlns="http://www.w3.org/2000/svg" width="18" height="18" viewBox="0 0 18 18"><defs><linearGradient id="uuid-fb5f1912-2527-444e-8d06-bcbf6b9c47e6" x1="3.338" y1="7.194" x2="3.338" y2="13.858" gradientTransform="matrix(1, 0, 0, 1, 0, 0)" gradientUnits="userSpaceOnUse"><stop offset=".001" stop-color="#b796f9" /><stop offset="1" stop-color="#a67af4" /></linearGradient><linearGradient id="uuid-18ad50b2-9dbe-4dbb-b6de-2fcbc0dbb8b4" x1="10.438" y1="6.884" x2="10.438" y2="13.547" gradientTransform="matrix(1, 0, 0, 1, 0, 0)" gradientUnits="userSpaceOnUse"><stop offset="0" stop-color="#773adc" /><stop offset="1" stop-color="#552f99" /></linearGradient><linearGradient id="uuid-06e5dd94-ed48-480c-8a84-edb152edd8bf" x1="3.197" y1="1.585" x2="9.585" y2="5.234" gradientTransform="matrix(1, 0, 0, 1, 0, 0)" gradientUnits="userSpaceOnUse"><stop offset="0" stop-color="#a67af4" /><stop offset=".999" stop-color="#773adc" /></linearGradient><linearGradient id="uuid-3423f898-17b6-40be-b94f-6022c1104f76" x1="13.491" y1="773.516" x2="13.491" y2="779.898" gradientTransform="translate(0 791.516) scale(1 -1)" gradientUnits="userSpaceOnUse"><stop offset="0" stop-color="#0078d4" /><stop offset=".156" stop-color="#1380da" /><stop offset=".528" stop-color="#3c91e5" /><stop offset=".822" stop-color="#559cec" /><stop offset="1" stop-color="#5ea0ef" /></linearGradient></defs><g><path d="M3.502,6.041v3.659l3.174,1.829v-3.659l-3.174-1.829Zm0,7.808l3.174,1.829v-3.659l-3.174-1.829v3.659ZM0,7.707l3.174,1.829v-3.659L0,4.048v3.659Zm0,3.772c0,.234,.125,.449,.328,.566l2.847,1.641v-3.659l-3.174-1.829v3.281Z" fill="url(#uuid-fb5f1912-2527-444e-8d06-bcbf6b9c47e6)" /><path d="M7.1,11.529l3.174-1.829v-3.659l-3.174,1.829v3.659Zm0,4.149l3.174-1.829v-3.659l-3.174,1.829v3.659Zm3.502-9.801v3.659l3.174-1.829v-3.659l-3.174,1.829Zm0,7.808l2.847-1.641c.203-.117,.328-.333,.328-.566v-3.281l-3.174,1.829v3.659Z" fill="url(#uuid-18ad50b2-9dbe-4dbb-b6de-2fcbc0dbb8b4)" /><path d="M3.762,5.714l3.174,1.829,3.174-1.829-3.174-1.829-3.174,1.829ZM10.438,1.892l-3.174,1.829,3.174,1.829,3.174-1.829-3.174-1.829ZM3.434,1.892L.26,3.721l3.174,1.829,3.174-1.829L3.434,1.892Zm6.676-.163L7.264,.088c-.203-.117-.452-.117-.655,0L3.762,1.728l3.174,1.829,3.174-1.829Z" fill="url(#uuid-06e5dd94-ed48-480c-8a84-edb152edd8bf)" /></g><path d="M18,16c-.03-.99-.774-1.813-1.758-1.943-.06-1.394-1.233-2.481-2.63-2.438-1.112-.02-2.116,.663-2.503,1.704-1.187,.143-2.091,1.131-2.126,2.324,.053,1.348,1.189,2.399,2.54,2.351,.075,0,.152-.004,.223-.01h4.112c.037,0,.073-.006,.108-.016,1.098-.008,1.995-.877,2.034-1.972Z" fill="url(#uuid-3423f898-17b6-40be-b94f-6022c1104f76)" /></svg>