<svg xmlns="http://www.w3.org/2000/svg" width="18" height="18" viewBox="0 0 18 18">
  <defs>
    <linearGradient id="f7e8cbc3-55a8-453e-8784-d4a5f144e4a3" x1="-554.703" y1="1003.886" x2="-554.842" y2="1020.832" gradientTransform="matrix(1, 0, 0, -1, 564, 1025.516)" gradientUnits="userSpaceOnUse">
      <stop offset="0" stop-color="#0078d4"/>
      <stop offset="1" stop-color="#5ea0ef"/>
    </linearGradient>
    <linearGradient id="ea15207b-01a8-4aea-8482-062ef6a2db44" x1="3.07" y1="103.047" x2="3.044" y2="106.216" gradientTransform="translate(6.163 -138.111) scale(1 1.391)" gradientUnits="userSpaceOnUse">
      <stop offset="0" stop-color="#0078d4"/>
      <stop offset="1" stop-color="#005ba1"/>
    </linearGradient>
    <linearGradient id="a04466b4-dc6b-40e2-9651-0c53fe149fa5" x1="79.439" y1="209.772" x2="79.413" y2="212.932" gradientTransform="translate(-70.728 -290.491) scale(1 1.391)" gradientUnits="userSpaceOnUse">
      <stop offset="0" stop-color="#0078d4"/>
      <stop offset="1" stop-color="#005ba1"/>
    </linearGradient>
  </defs>
  <g id="b33bdc53-a329-4c46-b470-ab107ba8f5a9">
    <g>
      <path d="M1.752,6.419H16.681a.774.774,0,0,1,.819.72V16.5a.775.775,0,0,1-.819.721H1.752A.775.775,0,0,1,.933,16.5V7.139A.774.774,0,0,1,1.752,6.419Z" fill="url(#f7e8cbc3-55a8-453e-8784-d4a5f144e4a3)"/>
      <g>
        <g>
          <polygon points="13.509 13.101 9.564 11.636 9.462 11.889 9.527 11.657 6.024 10.886 5.856 11.473 8.812 12.114 5.02 13.681 5.311 14.202 9.227 12.575 9.927 15.661 10.533 15.586 9.819 12.401 13.277 13.665 13.509 13.101" fill="#83b9f9"/>
          <path d="M5.417,11.7a.774.774,0,1,0,.137-1.086h0l-.018.014A.768.768,0,0,0,5.417,11.7Zm-.879,2.74a.779.779,0,1,0,.132-1.094.778.778,0,0,0-.132,1.094Zm8.142-.677a.771.771,0,1,0,.141-1.081l0,0h0a.761.761,0,0,0-.143,1.067Z" fill="#9cebff"/>
          <path d="M9.619,16.138a.771.771,0,1,0,.137-1.081h0a.762.762,0,0,0-.149,1.067l0,0Z" fill="#9cebff"/>
        </g>
        <path d="M11.707,12.081a.232.232,0,0,0,0-.4l-1.7-.985L8.3,9.71a.233.233,0,0,0-.319.08.228.228,0,0,0-.033.122v3.936a.233.233,0,0,0,.23.235.229.229,0,0,0,.122-.034l1.707-.983Z" fill="#c3f1ff"/>
      </g>
      <path d="M1.523,6.419H16.91a.59.59,0,0,1,.59.59v2.07a0,0,0,0,1,0,0H.933a0,0,0,0,1,0,0V7.008A.59.59,0,0,1,1.523,6.419Z" fill="url(#ea15207b-01a8-4aea-8482-062ef6a2db44)"/>
      <path d="M4.8,8.545H3.01a.3.3,0,0,1-.292-.336l.141-1a.3.3,0,0,1,.292-.254H4.94a.3.3,0,0,1,.292.336l-.141,1A.3.3,0,0,1,4.8,8.545Z" fill="#5ea0ef"/>
      <path d="M8.259,8.545H6.471a.3.3,0,0,1-.292-.336l.141-1a.3.3,0,0,1,.292-.254H8.4a.3.3,0,0,1,.292.336l-.14,1A.3.3,0,0,1,8.259,8.545Z" fill="#5ea0ef"/>
      <rect x="0.473" y="2.462" width="16.446" height="2.66" rx="0.59" transform="translate(-0.628 2.039) rotate(-12.912)" fill="url(#a04466b4-dc6b-40e2-9651-0c53fe149fa5)"/>
      <path d="M11.72,8.545H9.932a.3.3,0,0,1-.292-.336l.14-1a.3.3,0,0,1,.292-.254h1.789a.3.3,0,0,1,.292.336l-.141,1A.294.294,0,0,1,11.72,8.545Z" fill="#5ea0ef"/>
      <path d="M15.181,8.545H13.392a.3.3,0,0,1-.292-.336l.141-1a.3.3,0,0,1,.292-.254h1.789a.3.3,0,0,1,.292.336l-.141,1A.294.294,0,0,1,15.181,8.545Z" fill="#5ea0ef"/>
      <path d="M4.9,5.48l-1.743.4a.3.3,0,0,1-.36-.262L2.708,4.609A.294.294,0,0,1,2.936,4.3l1.743-.4a.3.3,0,0,1,.36.263l.086,1.008A.294.294,0,0,1,4.9,5.48Z" fill="#5ea0ef"/>
      <path d="M8.271,4.707l-1.744.4a.293.293,0,0,1-.359-.262L6.081,3.836a.3.3,0,0,1,.228-.313l1.743-.4a.3.3,0,0,1,.36.262L8.5,4.394A.3.3,0,0,1,8.271,4.707Z" fill="#5ea0ef"/>
      <path d="M11.644,3.933l-1.743.4a.294.294,0,0,1-.36-.262L9.454,3.062a.3.3,0,0,1,.228-.312l1.744-.4a.294.294,0,0,1,.359.262l.087,1.009A.294.294,0,0,1,11.644,3.933Z" fill="#5ea0ef"/>
      <path d="M15.017,3.16l-1.743.4a.3.3,0,0,1-.36-.262l-.087-1.009a.3.3,0,0,1,.228-.313l1.744-.4a.3.3,0,0,1,.36.262l.086,1.008A.294.294,0,0,1,15.017,3.16Z" fill="#5ea0ef"/>
    </g>
  </g>
</svg>
