<svg xmlns="http://www.w3.org/2000/svg" viewBox="0 0 18 18">
  <defs>
    <linearGradient id="aed06350-b573-444a-a986-3190b1627b71" x1="5.073" y1="786.069" x2="5.073" y2="788.809" gradientTransform="matrix(1, 0, 0, -1, 0, 791.516)" gradientUnits="userSpaceOnUse">
      <stop offset="0" stop-color="#773adc" />
      <stop offset="1" stop-color="#b77af4" />
    </linearGradient>
    <linearGradient id="ef23871b-cd77-4ae3-9472-3dd96e6106c7" x1="8.768" y1="782.673" x2="8.768" y2="785.405" gradientTransform="matrix(1, 0, 0, -1, 0, 791.516)" gradientUnits="userSpaceOnUse">
      <stop offset="0" stop-color="#773adc" />
      <stop offset="1" stop-color="#b77af4" />
    </linearGradient>
    <linearGradient id="b138068b-e46a-420a-9b71-1227d5d58708" x1="12.197" y1="788.784" x2="12.197" y2="791.516" gradientTransform="matrix(1, 0, 0, -1, 0, 791.516)" gradientUnits="userSpaceOnUse">
      <stop offset="0" stop-color="#773adc" />
      <stop offset="1" stop-color="#b77af4" />
    </linearGradient>
    <linearGradient id="b383bfc7-a6d1-4e65-b151-008bbc0a2902" x1="1.984" y1="782.084" x2="1.984" y2="784.815" gradientTransform="matrix(1, 0, 0, -1, 0, 791.516)" gradientUnits="userSpaceOnUse">
      <stop offset="0" stop-color="#773adc" />
      <stop offset="1" stop-color="#b77af4" />
    </linearGradient>
  </defs>
  <g id="e5d01364-c3b6-4106-94c8-43141029c505">
    <g>
      <g>
        <rect x="4.32" y="7.836" width="2.15" height="6.317" rx="0.233" fill="#a67af4" />
        <rect x="0.895" y="10.019" width="2.15" height="4.133" rx="0.233" fill="#a67af4" />
        <path d="M13.32,9.2V5.953a.234.234,0,0,0-.234-.234H11.4a.233.233,0,0,0-.233.234v5.4Z" fill="#a67af4" />
        <path d="M7.978,14.153h.39L9.9,12.625V10.253a.234.234,0,0,0-.233-.234H7.978a.233.233,0,0,0-.233.234v3.666A.233.233,0,0,0,7.978,14.153Z" fill="#a67af4" />
      </g>
      <g>
        <g opacity="0.9">
          <polygon points="13.789 9.557 8.587 14.759 8.794 15.104 9.437 16.147 14.907 10.676 13.789 9.557" fill="#0078d4" />
          <path d="M15.237,10.346l1.181-1.18-.853-.852a.372.372,0,0,0-.526,0l-.918.918Z" fill="#0078d4" />
        </g>
        <g>
          <polygon points="16.026 11.793 10.823 16.994 10.479 16.787 9.435 16.146 14.907 10.674 16.026 11.793" fill="#0078d4" />
          <path d="M15.235,10.346l1.181-1.181.853.852a.374.374,0,0,1,0,.527l-.918.918Z" fill="#0078d4" />
        </g>
        <path d="M10.822,17,7.966,18a.374.374,0,0,1-.379-.366v-.011l1-2.858.852,1.384Z" fill="#83b9f9" />
      </g>
      <g>
        <polygon points="11.848 0.93 8.535 6.825 5.032 3.255 1.42 7.938 2.267 8.602 5.131 4.907 8.768 8.619 12.787 1.47 11.848 0.93" fill="#b796f9" />
        <ellipse cx="5.073" cy="4.077" rx="1.362" ry="1.37" fill="url(#aed06350-b573-444a-a986-3190b1627b71)" />
        <ellipse cx="8.768" cy="7.473" rx="1.362" ry="1.37" fill="url(#ef23871b-cd77-4ae3-9472-3dd96e6106c7)" />
        <ellipse cx="12.197" cy="1.37" rx="1.362" ry="1.37" fill="url(#b138068b-e46a-420a-9b71-1227d5d58708)" />
        <ellipse cx="1.984" cy="8.071" rx="1.362" ry="1.37" fill="url(#b383bfc7-a6d1-4e65-b151-008bbc0a2902)" />
      </g>
    </g>
  </g>
  <metadata>
    <rdf:RDF xmlns:rdf="http://www.w3.org/1999/02/22-rdf-syntax-ns#">
      <rdf:li>public:true</rdf:li>
      <rdf:li>sdk:false</rdf:li>
      <rdf:li>category:Management + Governance</rdf:li>
    </rdf:RDF>
  </metadata>
</svg>