<svg xmlns="http://www.w3.org/2000/svg" viewBox="0 0 18 18">
  <g id="a40f51fb-23ed-46ff-ae41-bff9cb07f151">
    <path d="M8.3,4.825H3.254A3.108,3.108,0,0,0,0,7.754v.013A3.108,3.108,0,0,0,3.254,10.7a.429.429,0,1,0,0-.857,2.256,2.256,0,0,1-2.4-2.072A2.255,2.255,0,0,1,3.254,5.7a.4.4,0,0,0,.06-.012H8.3a.429.429,0,1,0,0-.858Z" fill="#3cd4c2" />
    <path d="M13.661,5.4a.43.43,0,0,1-.417-.33l-.479-2.025a.428.428,0,1,1,.834-.2l.48,2.025a.431.431,0,0,1-.418.527Zm4.325,2.274a.429.429,0,0,0-.307-.523l-2.013-.523a.428.428,0,1,0-.216.829l2.013.524a.459.459,0,0,0,.109.014A.429.429,0,0,0,17.986,7.671ZM15.752,5.537l1.507-1.7a.428.428,0,1,0-.641-.568L15.11,4.97a.428.428,0,1,0,.642.567Z" fill="#42e8ca" />
    <polygon points="14.731 6.312 9.395 9.414 4.058 6.311 9.395 3.209 14.731 6.312" fill="#83b9f9" />
    <polygon points="9.394 9.414 9.394 15.589 4.058 12.487 4.058 6.311 9.394 9.414" fill="#5ea0ef" />
    <path d="M6.712,10.217,5.092,8.6a.086.086,0,0,0-.122-.011L4.959,8.6V9.844H3.185c-.758-.021-1.2.817.02.853H4.979v1.24a.086.086,0,0,0,.122.011l.011-.011,1.6-1.633A.074.074,0,0,0,6.712,10.217Z" fill="#3cd4c2" />
    <polygon points="14.731 6.312 14.731 12.487 9.394 15.589 9.394 9.406 14.731 6.312" fill="#0078d4" />
  </g>
</svg>