<svg xmlns="http://www.w3.org/2000/svg" viewBox="0 0 18 18">
  <title>Icon-667-EngHub-18px-1</title>
  <g id="ad0c2c83-6247-4dff-96ec-0d85df32a6ef">
    <path d="M16.1,3.456a1.4,1.4,0,0,0-1.4,1.4,1.22,1.22,0,0,0,.018.183L9.2,1.8a.586.586,0,0,0-.592,0L2.874,5.158a.585.585,0,0,0-.289.5v6.363a1.459,1.459,0,0,0-.689-.175,1.4,1.4,0,1,0,1.4,1.4c0-.055-.009-.108-.014-.162L8.611,16.2a.587.587,0,0,0,.591,0l5.733-3.352a.588.588,0,0,0,.29-.506V5.929a1.372,1.372,0,0,0,.879.319,1.4,1.4,0,1,0,0-2.792ZM8.069,13.673a.218.218,0,0,1-.189.109.222.222,0,0,1-.11-.03l-3.2-1.868a.658.658,0,0,1-.061-.042l-1.694,1h0l-.044.026a.949.949,0,0,1,.08.381.959.959,0,1,1-.959-.959.932.932,0,0,1,.609.218l.08-.047h0l1.692-.987a.581.581,0,0,1-.016-.132V6.664a.63.63,0,0,1,.311-.542L7.853,4.2a.219.219,0,0,1,.221.377L4.886,6.445,6.764,7.614a.219.219,0,0,1-.116.4.212.212,0,0,1-.115-.033L4.7,6.844v4.5a.191.191,0,0,0,.095.165l3.2,1.868A.219.219,0,0,1,8.069,13.673ZM8.9,10.717A1.717,1.717,0,1,1,10.622,9,1.718,1.718,0,0,1,8.9,10.717Zm7.2-4.906a.951.951,0,0,1-.719-.332l-.155.091h0l-.014.008L15,5.7h0l-1.466.855a.636.636,0,0,1,.01.107V11.34a.63.63,0,0,1-.311.543l-3.013,1.762a.222.222,0,0,1-.11.03A.219.219,0,0,1,10,13.267l2.818-1.648L11.02,10.5a.219.219,0,0,1,.232-.371l1.858,1.159V6.664a.191.191,0,0,0-.094-.165L9.738,4.578A.219.219,0,1,1,9.959,4.2l3.278,1.921a.655.655,0,0,1,.081.057l1.474-.867h0l.191-.112.007,0h0l.187-.111a.942.942,0,0,1-.032-.233.959.959,0,1,1,.959.959Z" fill="#95c1f5" />
  </g>
</svg>