<svg xmlns="http://www.w3.org/2000/svg" viewBox="0 0 18 18">
  <defs>
    <linearGradient id="b2692567-f4a2-457e-a956-cd79e8b0f324" x1="8.96" y1="16.972" x2="9.012" y2="2.149" gradientUnits="userSpaceOnUse">
      <stop offset="0.545" stop-color="#0078d4" />
      <stop offset="1" stop-color="#5ea0ef" />
    </linearGradient>
    <linearGradient id="bbed07c7-84c9-4f2d-a6d7-82dd2c780f4d" x1="8.952" y1="16.877" x2="8.952" y2="1.123" gradientUnits="userSpaceOnUse">
      <stop offset="0" stop-color="#1988d9" />
      <stop offset="0.9" stop-color="#54aef0" />
    </linearGradient>
    <linearGradient id="a893ce89-e982-44ea-ae00-37ec04a4a904" x1="-2.559" y1="-10.836" x2="-2.559" y2="-20.029" gradientTransform="translate(11.369 23.042) scale(0.944)" gradientUnits="userSpaceOnUse">
      <stop offset="0" stop-color="#e6e6e6" />
      <stop offset="0.9" stop-color="#fff" />
    </linearGradient>
  </defs>
  <g id="bc628d5b-3282-4202-aa1f-3d787e9ee9d9">
    <g>
      <path d="M16.029,8.432c0,4.619-5.583,8.337-6.8,9.091a.437.437,0,0,1-.462,0c-1.215-.754-6.8-4.472-6.8-9.091V2.874a.442.442,0,0,1,.432-.44C6.745,2.317,5.746.411,9,.411s2.255,1.906,6.6,2.023a.442.442,0,0,1,.432.44Z" fill="url(#b2692567-f4a2-457e-a956-cd79e8b0f324)" />
      <path d="M15.4,8.479c0,4.236-5.12,7.646-6.233,8.337a.4.4,0,0,1-.425,0c-1.113-.691-6.233-4.1-6.233-8.337v-5.1a.4.4,0,0,1,.4-.4c3.982-.108,3.065-1.856,6.05-1.856S11.019,2.871,15,2.979a.4.4,0,0,1,.4.4Z" fill="url(#bbed07c7-84c9-4f2d-a6d7-82dd2c780f4d)" />
      <path d="M12.964,6.806a4.342,4.342,0,0,0-2.767-2.5A4.333,4.333,0,0,0,6.337,5l-.044.034A4.317,4.317,0,0,0,4.757,7.361a4.173,4.173,0,0,0-.094.455,4.33,4.33,0,0,0,.86,3.312,4.384,4.384,0,0,0,.441.488l.006.006q.075.071.153.138l.015.013c.051.043.1.086.155.126l.011.008a4.272,4.272,0,0,0,.656.417l.073.038.116.054.1.042c.036.016.071.03.107.044l.112.043.1.034.134.043.081.024c.067.019.135.036.2.052L8,12.7c.075.016.151.031.226.044l.058.009c.056.009.112.017.169.023l.076.008.151.013.084,0c.049,0,.1,0,.146,0h.166l.134-.006.059,0c.055,0,.109-.008.163-.014l.029,0,.078-.011a4.254,4.254,0,0,0,.533-.105h0a4.328,4.328,0,0,0,1.542-.765,4.338,4.338,0,0,0,1.35-5.092Zm-1.013-.649h-.866A4.237,4.237,0,0,0,10.473,5,3.757,3.757,0,0,1,11.951,6.157ZM9.232,4.74a2.261,2.261,0,0,1,1.25,1.417H9.232Zm0,1.975h1.44A6.426,6.426,0,0,1,10.9,8.189H9.232Zm0,2.031H10.9a6.426,6.426,0,0,1-.227,1.474H9.232V8.746ZM7.038,7.773a6.3,6.3,0,0,1,.2-1.058H8.675V8.189H7.008C7.014,8.048,7.024,7.91,7.038,7.773ZM8.675,4.74V6.157H7.425A2.261,2.261,0,0,1,8.675,4.74Zm-2.041.736.038-.029A3.72,3.72,0,0,1,7.436,5a4.218,4.218,0,0,0-.614,1.157H5.954A3.811,3.811,0,0,1,6.634,5.476ZM5.6,6.715H6.652a6.829,6.829,0,0,0-.162.934c-.019.177-.034.356-.041.54H5.18A3.852,3.852,0,0,1,5.6,6.715ZM5.18,8.746H6.449a7.133,7.133,0,0,0,.2,1.474H5.6A3.749,3.749,0,0,1,5.18,8.746Zm.782,2.041-.007-.01h.867a4.244,4.244,0,0,0,.613,1.157A3.745,3.745,0,0,1,5.962,10.787ZM8.675,12.2a2.26,2.26,0,0,1-1.25-1.418h1.25Zm0-1.975H7.234a6.482,6.482,0,0,1-.226-1.474H8.675V10.22ZM9.738,11.9a1.341,1.341,0,0,1-.506.291V10.777h1.25A3.008,3.008,0,0,1,9.738,11.9Zm1.535-.445h0a3.781,3.781,0,0,1-.8.477,4.258,4.258,0,0,0,.614-1.159h.866A3.74,3.74,0,0,1,11.273,11.459Zm1.032-1.239h-1.05a7.067,7.067,0,0,0,.2-1.474h1.265A3.825,3.825,0,0,1,12.305,10.22Zm-.848-2.031a7.057,7.057,0,0,0-.2-1.474h1.052a3.761,3.761,0,0,1,.416,1.474Z" opacity="0.95" fill="url(#a893ce89-e982-44ea-ae00-37ec04a4a904)" />
    </g>
  </g>
</svg>