<svg xmlns="http://www.w3.org/2000/svg" viewBox="0 0 18 18">
  <defs>
    <linearGradient id="e2813e55-e469-4571-ba00-03b772d773cd" x1="9" y1="26.695" x2="9" y2="4.803" gradientUnits="userSpaceOnUse">
      <stop offset="0" stop-color="#0078d4" />
      <stop offset="0.156" stop-color="#1380da" />
      <stop offset="0.528" stop-color="#3c91e5" />
      <stop offset="0.822" stop-color="#559cec" />
      <stop offset="1" stop-color="#5ea0ef" />
    </linearGradient>
  </defs>
  <g id="b078023c-413b-4843-a38b-31db83dba380">
    <g>
      <path d="M.038,9.142,4.4,16.69a.285.285,0,0,0,.246.142h8.716a.285.285,0,0,0,.246-.142l4.358-7.548a.283.283,0,0,0,0-.284L13.6,1.31a.285.285,0,0,0-.246-.142H4.642A.285.285,0,0,0,4.4,1.31L.038,8.858A.283.283,0,0,0,.038,9.142Z" fill="url(#e2813e55-e469-4571-ba00-03b772d773cd)" />
      <g>
        <path d="M12.906,6.184A3.235,3.235,0,0,0,7,7.074a3.319,3.319,0,0,0,.35,2.39l-2.46,2.5a.824.824,0,0,0-.01,1.17h.01a.809.809,0,0,0,1.17,0l2.46-2.48a3.174,3.174,0,0,0,.85.35,3.245,3.245,0,0,0,3.54-4.82Zm-.53,1.94a.582.582,0,0,1-.03.19.22.22,0,0,1-.01.08c-.01.03-.01.06-.03.08a1.957,1.957,0,0,1-.12.34,2.148,2.148,0,0,1-.14.26.219.219,0,0,1-.03.05c-.07.09-.14.18-.21.26a2.555,2.555,0,0,1-.58.46l-.01.01a3.09,3.09,0,0,1-.32.14h-.01a1.343,1.343,0,0,1-.27.07.037.037,0,0,1-.03.01c-.04.01-.09.02-.14.03a3.028,3.028,0,0,1-.31.02,2.322,2.322,0,0,1-1.11-.29,2.014,2.014,0,0,1-.49-.38,2.158,2.158,0,0,1-.27-.33,1.459,1.459,0,0,1-.17-.3,1.659,1.659,0,0,1-.12-.31.873.873,0,0,1-.05-.22.523.523,0,0,1-.03-.18,2.112,2.112,0,0,1-.02-.26c0-.09.01-.18.02-.28a1.282,1.282,0,0,1,.05-.27,1.93,1.93,0,0,1,.11-.34.59.59,0,0,1,.04-.08.75.75,0,0,1,.1-.2,2.73,2.73,0,0,1,.21-.3.442.442,0,0,1,.13-.14c.05-.05.1-.1.16-.15a.678.678,0,0,1,.18-.13,2.147,2.147,0,0,1,1.26-.4,2.416,2.416,0,0,1,.54.06,2.076,2.076,0,0,1,.72.34,2.387,2.387,0,0,1,.67.71,2.437,2.437,0,0,1,.14.28,2.107,2.107,0,0,1,.19.9A1.229,1.229,0,0,1,12.376,8.124Z" fill="#fff" />
        <ellipse cx="10.137" cy="7.854" rx="2.263" ry="2.273" fill="#f2f2f2" opacity="0.3" />
      </g>
    </g>
  </g>
</svg>