<svg xmlns="http://www.w3.org/2000/svg" width="18" height="18" viewBox="0 0 18 18">
  <defs>
    <radialGradient id="e07e7fe8-29b5-4eac-a56d-51f396c92454" cx="211.347" cy="600.053" r="5.362" gradientTransform="matrix(1, 0, 0, -1, -198, 611.516)" gradientUnits="userSpaceOnUse">
      <stop offset="0" stop-color="#936bff"/>
      <stop offset="0.8" stop-color="#8255ff"/>
    </radialGradient>
    <linearGradient id="ac99426d-7ffd-48ce-b81f-7b0c888ae04f" x1="211.358" y1="-169.955" x2="211.401" y2="-164.572" gradientTransform="translate(-198 179.516)" gradientUnits="userSpaceOnUse">
      <stop offset="0" stop-color="#f2f2f2"/>
      <stop offset="1" stop-color="#fff" stop-opacity="0"/>
    </linearGradient>
    <linearGradient id="afad110c-3cb8-452e-86e3-1ba517e19ebc" x1="5.829" y1="-0.616" x2="5.829" y2="13.534" gradientUnits="userSpaceOnUse">
      <stop offset="0" stop-color="#c86dd7"/>
      <stop offset="1" stop-color="#a16bc7"/>
    </linearGradient>
  </defs>
  <path d="M9.506,10.805a3.956,3.956,0,0,0,.025.475c.175,1.6,1.691,2.337,2.125,4.358a.314.314,0,0,0,.3.245h2.775a.316.316,0,0,0,.3-.245c.433-2.021,1.937-2.763,2.124-4.358a3.8,3.8,0,0,0-3.776-4.238h-.078A3.8,3.8,0,0,0,9.506,10.805Z" fill="url(#e07e7fe8-29b5-4eac-a56d-51f396c92454)"/>
  <path d="M14.933,9.174a.9.9,0,0,0-.871.929v.5H12.7v-.5a.909.909,0,0,0-.889-.929h-.021a.935.935,0,0,0,0,1.865H12.2v3.874a.233.233,0,0,0,.465,0V11.039h1.395v3.874a.232.232,0,0,0,.464,0V11.039h.407a.9.9,0,0,0,.871-.933h0A.9.9,0,0,0,14.933,9.174ZM12.2,10.6h-.356a.5.5,0,0,1-.123-.994c.274-.034.441.161.475.435a.44.44,0,0,1,0,.062Zm2.763,0h-.439v-.523A.439.439,0,0,1,15.4,9.97a.47.47,0,0,1,0,.106.475.475,0,0,1-.416.522Z" fill="url(#ac99426d-7ffd-48ce-b81f-7b0c888ae04f)"/>
  <path d="M14.141,17.91l.523-.562v-1.5H12.058v1.5l.522.562a.215.215,0,0,0,.123.071h1.291A.216.216,0,0,0,14.141,17.91Z" fill="#a39ee7"/>
  <path d="M9.871,13.712a4.849,4.849,0,0,1-1.084-2.346,4.689,4.689,0,0,1-.03-.568A4.526,4.526,0,0,1,10.32,7.441a5.618,5.618,0,0,0-1.465-.612A3.6,3.6,0,1,0,5.582,6.8c-2.851.615-4.4,2.908-4.764,6.341A1.156,1.156,0,0,0,1.845,14.4h8.49C10.189,14.168,10.034,13.94,9.871,13.712Z" fill="url(#afad110c-3cb8-452e-86e3-1ba517e19ebc)"/>
</svg>
