<svg xmlns="http://www.w3.org/2000/svg" width="18" height="18" viewBox="0 0 18 18">
  <defs>
    <linearGradient id="b8b2f72c-4f30-40de-99c9-80720942e8b6" x1="8.233" y1="0.073" x2="8.233" y2="15.716" gradientUnits="userSpaceOnUse">
      <stop offset="0" stop-color="#5ea0ef"/>
      <stop offset="1" stop-color="#0078d4"/>
    </linearGradient>
    <linearGradient id="af268ae0-4c98-4ab1-8808-d0390ad33134" x1="12.499" y1="9.814" x2="12.499" y2="18.441" gradientUnits="userSpaceOnUse">
      <stop offset="0.243" stop-color="#faa21d"/>
      <stop offset="0.999" stop-color="#f78d1e"/>
    </linearGradient>
  </defs>
  <g id="f06f4cc3-e430-4e49-a9b4-bbc22cf15dad">
    <g>
      <g id="ac487fb3-6ac7-43ae-992d-e07f996c6024">
        <path d="M16.044,8.588h-5.07a1.27,1.27,0,0,0-1.21.97,1.706,1.706,0,0,0-.03.45h-.19a1.26,1.26,0,0,0-1.25,1.25v4.49a7.82,7.82,0,0,1-4.87-14l.08-.06a7.821,7.821,0,0,1,12.54,6.9Z" fill="url(#b8b2f72c-4f30-40de-99c9-80720942e8b6)"/>
        <path d="M15.394,4.588l-.08-.15A7.912,7.912,0,0,0,9.284.078a2.206,2.206,0,0,0-.37-.04c-.23-.02-.46-.04-.7-.04a7.322,7.322,0,0,0-.81.04,2.032,2.032,0,0,0-.43.07,7.941,7.941,0,0,0-5.86,4.33H1.1v.01a7.9,7.9,0,0,0,3.59,10.58,7.718,7.718,0,0,0,2.53.76.127.127,0,0,0,.06.01,8.428,8.428,0,0,0,1.01.06v-4.6a1.241,1.241,0,0,1,.33-.84V5.2h3.24a11.4,11.4,0,0,1,.33,2.73c-.01.22-.02.44-.04.66h.77q.03-.33.03-.66a12.488,12.488,0,0,0-.31-2.73h2.19a7.067,7.067,0,0,1,.51,3.39h.77q.03-.33.03-.66A7.839,7.839,0,0,0,15.394,4.588Zm-13.8.61h2.08a12.488,12.488,0,0,0-.31,2.73,9.524,9.524,0,0,0,.38,2.54H1.524A7.063,7.063,0,0,1,1.594,5.2Zm.37-.76a7.167,7.167,0,0,1,3.46-3.11,9.266,9.266,0,0,0-1.55,3.11Zm2.01,6.79a10.864,10.864,0,0,0,1.95,3.48,7.151,7.151,0,0,1-4.06-3.48Zm.82,0h3.07v3.85c-.13-.01-.26-.01-.39-.02A7.811,7.811,0,0,1,4.794,11.228Zm-.25-.76a8.763,8.763,0,0,1-.41-2.54,10.9,10.9,0,0,1,.32-2.73h3.41v5.27Zm.12-6.03A5.846,5.846,0,0,1,7.174.848a5.377,5.377,0,0,1,.69-.07v3.66Zm3.96-.01V.788c.16,0,.31.02.47.03.81.3,1.91,1.6,2.56,3.61Zm3.82.01a9.039,9.039,0,0,0-1.6-3.17,7.23,7.23,0,0,1,3.62,3.17Z" fill="#8bc1fd"/>
      </g>
      <path d="M17.714,9.838v5.92a.824.824,0,0,1-.82.82h-.61v.6a.826.826,0,0,1-.83.82H9.544a.832.832,0,0,1-.83-.82v-5.95a.835.835,0,0,1,.61-.76.538.538,0,0,1,.22-.04h.61v-.59a.832.832,0,0,1,.82-.83h5.92a.794.794,0,0,1,.58.25A.825.825,0,0,1,17.714,9.838Z" fill="#fff"/>
      <g id="e2efa0d6-ebec-49bc-88aa-16aee3f54757">
        <g>
          <path d="M17.714,9.838v5.92a.824.824,0,0,1-.82.82h-5.92a.806.806,0,0,1-.66-.34.791.791,0,0,1-.16-.48V9.838a.832.832,0,0,1,.82-.83h5.92a.794.794,0,0,1,.58.25A.825.825,0,0,1,17.714,9.838Z" fill="#d15900"/>
          <g>
            <path d="M16.284,11.258v5.92a.826.826,0,0,1-.83.82H9.544a.832.832,0,0,1-.83-.82v-5.95a.835.835,0,0,1,.61-.76.538.538,0,0,1,.22-.04h5.91a.582.582,0,0,1,.19.03.145.145,0,0,1,.07.02A.82.82,0,0,1,16.284,11.258Z" fill="url(#af268ae0-4c98-4ab1-8808-d0390ad33134)"/>
            <path d="M14.976,15.439h0a.2.2,0,0,1,.19.2v.4h0a.2.2,0,0,1-.191.2H11.351a.2.2,0,0,1-.19-.2v-.4a.2.2,0,0,1,.191-.2Zm-5.148.606a.194.194,0,0,0,.194.194h.413a.194.194,0,0,0,.194-.2v-.412h0a.194.194,0,0,0-.2-.194h-.412a.194.194,0,0,0-.194.194Zm1.524-2.23a.2.2,0,0,0-.191.2v.4a.2.2,0,0,0,.191.2h3.624a.2.2,0,0,0,.191-.2h0v-.4a.2.2,0,0,0-.191-.2Zm-1.524.607a.194.194,0,0,0,.194.194h.412a.2.2,0,0,0,.2-.194V14.01h0a.2.2,0,0,0-.2-.2h-.412a.2.2,0,0,0-.194.2Zm1.524-2.228a.2.2,0,0,0-.191.2v.4a.2.2,0,0,0,.191.2h3.624a.2.2,0,0,0,.191-.2v-.4a.2.2,0,0,0-.19-.2H11.352Zm-1.524.6a.194.194,0,0,0,.194.2h.412a.2.2,0,0,0,.2-.2v-.411a.2.2,0,0,0-.2-.194h-.412a.194.194,0,0,0-.194.194Z" fill="#fff"/>
          </g>
        </g>
      </g>
    </g>
  </g>
</svg>
