<svg xmlns="http://www.w3.org/2000/svg" width="18" height="18" viewBox="0 0 18 18">
  <g id="e62ed709-0fa4-4df5-ad00-6a829acdb189">
    <g>
      <path d="M10.71,2.055a.5.5,0,0,0,0,1,6.212,6.212,0,1,1-6.164,6.988c-.019-.153-.021-.309-.029-.464H5.546a.258.258,0,0,0,.221-.391L4.312,6.761a.258.258,0,0,0-.441,0L2.384,9.186a.258.258,0,0,0,.22.393h.914c.008.2.012.394.036.587a7.14,7.14,0,0,0,.265,1.224H.7a.51.51,0,0,0,0,1.02H4.226a7.091,7.091,0,0,0,.348.635H1.69a.511.511,0,0,0,0,1.021H5.337a7.271,7.271,0,0,0,.641.637H3.7a.51.51,0,0,0,0,1.02H7.479l.018,0A7.21,7.21,0,1,0,10.71,2.055Z"/>
      <path d="M10.3,10.4h3.674a.5.5,0,0,0,0-1H10.8V5.228a.5.5,0,0,0-1,0V9.9A.5.5,0,0,0,10.3,10.4Z"/>
    </g>
  </g>
</svg>
