<svg xmlns="http://www.w3.org/2000/svg" viewBox="0 0 18 18">
  <defs>
    <linearGradient id="fd6582e2-3920-4959-82d2-e046afb0822c" x1="9" y1="8.091" x2="9" y2="20.183" gradientUnits="userSpaceOnUse">
      <stop offset="0.225" stop-color="#a67af4" />
      <stop offset="1" stop-color="#773adc" />
    </linearGradient>
    <linearGradient id="a221839c-336d-41d3-94df-d02e9c33c15b" x1="8.654" y1="1.61" x2="9.537" y2="12.588" gradientUnits="userSpaceOnUse">
      <stop offset="0.225" stop-color="#a67af4" />
      <stop offset="1" stop-color="#773adc" />
    </linearGradient>
  </defs>
  <g id="eeabbd8e-fc13-44a9-8af7-a12d80a583c2">
    <path d="M14.982,18a1.3,1.3,0,0,0,1.3-1.29,1.347,1.347,0,0,0-.009-.156c-.509-4.07-2.831-7.385-7.261-7.385-4.508,0-6.833,2.807-7.287,7.4a1.3,1.3,0,0,0,1.162,1.429,1.133,1.133,0,0,0,.13.007Z" fill="url(#fd6582e2-3920-4959-82d2-e046afb0822c)" />
    <path d="M9.012,10.135A4.066,4.066,0,0,1,6.8,9.484L8.989,15.2l2.174-5.681A4.066,4.066,0,0,1,9.012,10.135Z" fill="#fff" opacity="0.8" style="isolation: isolate" />
    <circle cx="9.012" cy="6.051" r="4.084" fill="url(#a221839c-336d-41d3-94df-d02e9c33c15b)" />
    <path d="M15.132,7.227a6.353,6.353,0,0,0-.092-2.543A6.206,6.206,0,0,0,9.215.008,5.542,5.542,0,0,0,4,2.772a.588.588,0,0,0,.186.812h0a.543.543,0,0,0,.737-.165A4.517,4.517,0,0,1,9.151,1.135a5.079,5.079,0,0,1,4.758,3.679,5.26,5.26,0,0,1,.126,2.137.933.933,0,0,0-.536.589l-.274.9a.941.941,0,0,0,1.8.547l.273-.9A.938.938,0,0,0,15.132,7.227Z" fill="#767676" />
  </g>
</svg>