<svg id="a3672315-dcc2-4f73-9abd-601056550400" xmlns="http://www.w3.org/2000/svg" viewBox="0 0 18 18">
  <rect x="1.65" width="14.7" height="18" rx="0.6" fill="#5a468a" />
  <path d="M14.117,4.345H7.161A.159.159,0,0,1,7,4.185v-.52a.16.16,0,0,1,.16-.16h6.956a.16.16,0,0,1,.16.16v.52A.159.159,0,0,1,14.117,4.345Zm-8.191.506V3a.32.32,0,0,0-.32-.32H3.753A.319.319,0,0,0,3.434,3V4.851a.319.319,0,0,0,.319.32H5.606A.32.32,0,0,0,5.926,4.851Z" fill="#fff" />
  <path d="M14.117,9.382H7.161A.16.16,0,0,1,7,9.222V8.7a.16.16,0,0,1,.16-.16h6.956a.16.16,0,0,1,.16.16v.521A.16.16,0,0,1,14.117,9.382ZM5.446,8.2H3.913V9.728H5.446V8.2m.16-.48a.321.321,0,0,1,.32.32V9.888a.32.32,0,0,1-.32.319H3.753a.32.32,0,0,1-.32-.319V8.035a.321.321,0,0,1,.32-.32Z" fill="#fff" opacity="0.8" />
  <path d="M14.117,14.418H7.161a.16.16,0,0,1-.16-.16v-.521a.16.16,0,0,1,.16-.16h6.956a.16.16,0,0,1,.16.16v.521A.16.16,0,0,1,14.117,14.418ZM5.446,13.231H3.913v1.533H5.446V13.231m.16-.479a.32.32,0,0,1,.32.319v1.853a.321.321,0,0,1-.32.32H3.753a.321.321,0,0,1-.32-.32V13.071a.32.32,0,0,1,.32-.319Z" fill="#fff" opacity="0.6" />
</svg>