<svg xmlns="http://www.w3.org/2000/svg" width="18" height="18" viewBox="0 0 18 18">
  <defs>
    <linearGradient id="ed5f7244-0b2c-4399-8ee6-46a9e4b3f16c" x1="9" y1="2.246" x2="9" y2="18" gradientUnits="userSpaceOnUse">
      <stop offset="0" stop-color="#3cd4c2"/>
      <stop offset="1" stop-color="#37c2b1"/>
    </linearGradient>
    <linearGradient id="b4f6eafc-6211-4dfa-a144-7118732f9a4b" x1="9" x2="9" y2="3.757" gradientUnits="userSpaceOnUse">
      <stop offset="0" stop-color="#3cd4c2"/>
      <stop offset="1" stop-color="#37c2b1"/>
    </linearGradient>
  </defs>
  <g id="af5c3af2-ed8d-4e64-8790-d144450fb065">
    <rect x="1.65" y="2.246" width="14.7" height="15.754" rx="0.6" fill="url(#ed5f7244-0b2c-4399-8ee6-46a9e4b3f16c)"/>
    <rect x="2.547" y="3.207" width="12.906" height="13.831" rx="0.6" fill="#3cd4c2"/>
    <path d="M10.145,1.155a1.155,1.155,0,1,0-2.31,0H5.594a.5.5,0,0,0-.5.5v2.1H12.9v-2.1a.5.5,0,0,0-.5-.5ZM8.831.6a.578.578,0,0,1,.736.556H9.553a.574.574,0,0,1-.792.53.579.579,0,0,1-.324-.7A.567.567,0,0,1,8.831.6Z" fill="url(#b4f6eafc-6211-4dfa-a144-7118732f9a4b)"/>
    <rect x="4.31" y="6.851" width="9.268" height="0.888" rx="0.3" fill="#fff" opacity="0.6"/>
    <rect x="4.31" y="9.39" width="9.268" height="0.888" rx="0.3" fill="#fff" opacity="0.8"/>
    <rect x="4.31" y="11.928" width="9.268" height="0.888" rx="0.3" fill="#fff"/>
  </g>
</svg>
