<svg xmlns="http://www.w3.org/2000/svg" viewBox="0 0 18 18">
  <defs>
    <linearGradient id="f2dffc2e-5934-4f37-9f9a-89d9f31b7bc2" x1="8.864" y1="13.227" x2="8.864" y2="0.972" gradientUnits="userSpaceOnUse">
      <stop offset="0" stop-color="#0078d4" />
      <stop offset="0.156" stop-color="#1380da" />
      <stop offset="0.528" stop-color="#3c91e5" />
      <stop offset="0.822" stop-color="#559cec" />
      <stop offset="1" stop-color="#5ea0ef" />
    </linearGradient>
    <linearGradient id="a056e9d8-3d62-4c99-91bb-27dde2576b55" x1="12.612" y1="13.206" x2="12.612" y2="13.203" gradientUnits="userSpaceOnUse">
      <stop offset="0" stop-color="#0078d4" />
      <stop offset="0.156" stop-color="#1380da" />
      <stop offset="0.528" stop-color="#3c91e5" />
      <stop offset="0.822" stop-color="#559cec" />
      <stop offset="1" stop-color="#5ea0ef" />
    </linearGradient>
  </defs>
  <g id="a46a3103-9d5a-46a9-bd91-94a2a5b2861c">
    <g>
      <g>
        <path d="M5.251,13.217,7.39,11.078a.561.561,0,0,1,.958.4v1.3H11.3a.492.492,0,0,1,.1.02.47.47,0,0,1,.1-.02h2.948v-1.3a.562.562,0,0,1,.562-.562h0a.558.558,0,0,1,.4.165l.949.949a3.915,3.915,0,0,0,1.157-2.639A3.882,3.882,0,0,0,14.136,5.66,4.9,4.9,0,0,0,9.1.974a5.022,5.022,0,0,0-4.8,3.273A4.632,4.632,0,0,0,.221,8.71,4.705,4.705,0,0,0,5.09,13.224C5.144,13.224,5.2,13.219,5.251,13.217Z" fill="url(#f2dffc2e-5934-4f37-9f9a-89d9f31b7bc2)" />
        <path d="M13.416,13.2H11.807v0H13.4Z" fill="url(#a056e9d8-3d62-4c99-91bb-27dde2576b55)" />
      </g>
      <rect x="4.017" y="9.164" width="2.513" height="2.513" rx="0.211" fill="#9cebff" />
      <rect x="11.164" y="9.164" width="2.513" height="2.513" rx="0.211" fill="#9cebff" />
      <rect x="7.591" y="5.564" width="2.513" height="2.513" rx="0.211" fill="#fff" opacity="0.8" />
      <rect x="4.017" y="5.564" width="2.513" height="2.513" rx="0.211" fill="#fff" opacity="0.8" />
      <path d="M15.1,11.377l2.587,2.587a.309.309,0,0,1,0,.436L15.1,16.987a.138.138,0,0,1-.236-.1V15.3a.137.137,0,0,0-.137-.138H11.5a.11.11,0,0,1-.11-.11V13.313a.11.11,0,0,1,.11-.11h3.234a.137.137,0,0,0,.137-.138v-1.59A.138.138,0,0,1,15.1,11.377Z" fill="#50e6ff" />
      <path d="M7.69,16.987,5.1,14.4a.307.307,0,0,1,0-.436L7.69,11.377a.138.138,0,0,1,.235.1v1.59a.138.138,0,0,0,.138.138H11.3a.11.11,0,0,1,.11.11v1.738a.11.11,0,0,1-.11.11H8.063a.138.138,0,0,0-.138.138V16.89A.137.137,0,0,1,7.69,16.987Z" fill="#005ba1" />
      <path d="M7.786,10.913a.562.562,0,0,1,.562.562v.2H9.892a.212.212,0,0,0,.212-.211V9.375a.211.211,0,0,0-.212-.211H7.8a.21.21,0,0,0-.211.211v1.577A.56.56,0,0,1,7.786,10.913Z" fill="#9cebff" />
    </g>
  </g>
</svg>