<svg id="uuid-c7b95379-ecd3-47f5-a568-7c4b8c8e6dde" xmlns="http://www.w3.org/2000/svg" width="18" height="18" viewBox="0 0 18 18">
  <defs>
    <linearGradient id="uuid-c02dfb9d-bc87-4036-ae05-926b9c2362a4" x1="8.985" y1="16.504" x2="8.985" y2="1.506" gradientUnits="userSpaceOnUse">
      <stop offset="0" stop-color="#ccc"/>
      <stop offset="1" stop-color="#e6e6e6"/>
    </linearGradient>
  </defs>
  <path d="m12.26.548c0-.2-.073-.354-.189-.448-.006-.005-.011-.012-.017-.016-.007-.005-.015-.007-.022-.012-.125-.08-.291-.098-.474-.031l-4.606,1.688-4.604,1.687s0,0,0,0h-.001c-.183.067-.348.207-.473.378-.007.01-.016.019-.023.029-.006.009-.011.02-.017.029-.116.179-.189.387-.189.586h0v10.009h0c0,.201.073.355.189.449.006.005.011.012.017.016.007.005.015.007.022.012.125.08.291.098.474.031l.211-.077.592-.217h0l8.409-3.081c.386-.142.703-.602.703-1.023V1.461s0,0,0,0v-.913Z" fill="#b3b3b3"/>
  <path d="m14.293,2.055c0-.2-.073-.354-.189-.448-.006-.005-.011-.012-.017-.016-.007-.005-.015-.007-.022-.012-.125-.08-.291-.098-.474-.031l-4.606,1.688-4.604,1.687s0,0,0,0h-.001c-.184.068-.351.209-.477.383-.006.008-.013.016-.019.024-.007.011-.013.022-.02.033-.115.178-.187.384-.187.582h0v10.009h0c0,.199.072.353.187.447.007.006.012.013.02.019.006.004.013.006.019.01.126.082.293.101.477.033l9.211-3.375c.386-.142.703-.602.703-1.023V2.968s0,0,0,0v-.913Z" fill="url(#uuid-c02dfb9d-bc87-4036-ae05-926b9c2362a4)"/>
  <path d="m15.654,14.583l-9.211,3.375c-.386.142-.703-.087-.703-.509V7.441c0-.421.316-.882.703-1.023l9.211-3.375c.386-.142.703.087.703.509v10.008c0,.421-.316.882-.703,1.023Z" fill="#f2f2f2"/>
  <g id="uuid-5b37b8ad-84c3-4b7a-82a3-a3dddcaff6e7">
    <path d="m14.289,11.753l-.389,2.066-4.959,1.987-.365-1.709,2.054-3.668v-2.834l1.517-.667v2.855l-1.94,3.644,2.149-.882-.773-.637.956-1.821,1.75,1.666Z" isolation="isolate" opacity=".1"/>
    <path d="m13.9,13.181l-4.959,2.003-.365-1.708,5.716-2.363-.392,2.068Z" fill="#198ab3"/>
    <path d="m12.146,9.151l-3.206,6.033-.365-1.708,2.054-3.675v-2.834l1.517-.671v2.855Zm.392.303l-.956,1.824,2.317,1.904.387-2.067-1.748-1.661Z" fill="#32bedd"/>
  </g>
</svg>