<svg xmlns="http://www.w3.org/2000/svg" width="18" height="18" viewBox="0 0 18 18">
  <defs>
    <linearGradient id="b9807293-a748-41ba-8885-2dbbac95a9f7" x1="12.645" y1="11.438" x2="17.543" y2="16.18" gradientTransform="translate(13.95 -6.526) rotate(45)" gradientUnits="userSpaceOnUse">
      <stop offset="0.054" stop-color="#005ba1"/>
      <stop offset="0.932" stop-color="#0078d4"/>
    </linearGradient>
    <linearGradient id="fe0c27d8-b922-4290-b3d9-2e1ddc1564d8" x1="0.296" y1="11.812" x2="11.295" y2="6.105" gradientUnits="userSpaceOnUse">
      <stop offset="0.001" stop-color="#ff7381"/>
      <stop offset="1" stop-color="#f04049"/>
    </linearGradient>
  </defs>
  <g id="aed30643-d444-4ca1-ad72-f9aff98937e7">
    <g>
      <path d="M13.385,7.32A4.779,4.779,0,1,1,8.6,2.544h.009A4.778,4.778,0,0,1,13.385,7.32Z" fill="#83b9f9" opacity="0.5"/>
      <path d="M14.673,5.667l-1.3,1.3a4.711,4.711,0,0,0-.2-1.06l.872-.871a.446.446,0,1,1,.63.631Z" fill="#f04049"/>
      <path d="M18,2.224a.279.279,0,0,1-.083.2L16.059,4.28,14.145,6.2a.445.445,0,1,1-.63-.63l4.245-4.25a.14.14,0,0,1,.24.1Z" fill="#b31b1b"/>
      <g id="bee21826-b323-47e2-8005-c7b1d13e29f5">
        <rect x="13.83" y="9.587" width="2.046" height="7.976" rx="0.957" transform="translate(-5.249 14.479) rotate(-45)" fill="url(#b9807293-a748-41ba-8885-2dbbac95a9f7)"/>
        <g>
          <path d="M14.268,6.072A5.776,5.776,0,0,0,12.7,3.222a5.8,5.8,0,0,0-9.792,5.2,5.613,5.613,0,0,0,.28.98A5.8,5.8,0,0,0,14.4,7.322v0A5.82,5.82,0,0,0,14.268,6.072ZM8.607,12.1a4.775,4.775,0,0,1-4.776-4.6c0-.06,0-.12,0-.179A4.774,4.774,0,0,1,8.6,2.544h.009a4.778,4.778,0,0,1,4.566,3.363,4.711,4.711,0,0,1,.2,1.06c.008.117.012.235.012.353A4.78,4.78,0,0,1,8.607,12.1Z" fill="#0078d4"/>
          <path d="M13.373,6.967,12.158,8.181a.444.444,0,0,1-.407.123.449.449,0,0,1-.323-.275l-1.18-3.014-2.3,6.08a.445.445,0,0,1-.814.043L5.225,7.371,3.192,9.4,1.7,10.9.241,12.357a.141.141,0,0,1-.241-.1v-.807a.287.287,0,0,1,.083-.2L2.912,8.424,5.031,6.3a.447.447,0,0,1,.714.114L7.469,9.832,9.825,3.616a.442.442,0,0,1,.413-.288h0a.442.442,0,0,1,.415.284L12.01,7.07l1.161-1.163A4.711,4.711,0,0,1,13.373,6.967Z" fill="url(#fe0c27d8-b922-4290-b3d9-2e1ddc1564d8)"/>
        </g>
      </g>
    </g>
  </g>
</svg>
