<svg xmlns="http://www.w3.org/2000/svg" width="18" height="18" viewBox="0 0 18 18">
  <defs>
    <linearGradient id="a0c45f50-59f2-4420-b1eb-d1b6a402001d" x1="9.938" y1="8.786" x2="1.454" y2="14.134" gradientUnits="userSpaceOnUse">
      <stop offset="0.001" stop-color="#42e8ca"/>
      <stop offset="1" stop-color="#3cd4c2"/>
    </linearGradient>
  </defs>
  <g id="e769cc97-d965-4ad7-b7b1-8f426a4ac27a">
    <path d="M16.655,1.939c-.091-.1-.187-.209-.286-.308A5.577,5.577,0,0,0,6.877,5.018c-.016.184-.026.369-.026.556A5.543,5.543,0,0,0,8.483,9.516a2.811,2.811,0,0,1,0,3.974,2.842,2.842,0,0,1-3.081.618l-.02-.008a3.043,3.043,0,0,1-1.148-.93,2.856,2.856,0,0,1-.343-2.752L3.9,10.4A2.841,2.841,0,0,1,6.5,8.693a2.783,2.783,0,0,1,.526.05.16.16,0,0,0,.17-.237A5.959,5.959,0,0,1,6.43,5.574c0-.13,0-.26.012-.389a.163.163,0,0,0-.165-.175A6.581,6.581,0,0,0,.459,9.025L.453,9.04a6.578,6.578,0,0,0,1.163,6.748c.091.106.188.209.288.309a6.571,6.571,0,0,0,7.023,1.462l.015-.006a6.559,6.559,0,0,0,4.037-6.431A6.475,6.475,0,0,0,11.09,6.909a1.91,1.91,0,0,1-.42-2.053l.008-.019a1.9,1.9,0,0,1,3.085-.6,1.833,1.833,0,0,1,.264.332,1.891,1.891,0,0,1-1.6,2.9h0a.161.161,0,0,0-.139.248,6.881,6.881,0,0,1,1.1,3.174.162.162,0,0,0,.191.146,5.579,5.579,0,0,0,3.081-9.093Z" fill="url(#a0c45f50-59f2-4420-b1eb-d1b6a402001d)"/>
  </g>
</svg>
