<svg xmlns="http://www.w3.org/2000/svg" viewBox="0 0 18 18">
  <g id="b49adc74-ed63-4b42-b2e8-bb855e8b2383">
    <g>
      <circle cx="9" cy="9" r="9" fill="#db7500" />
      <g>
        <path d="M7.331,4.211H6.088a.563.563,0,0,0-.562.563v8.452a.563.563,0,0,0,.562.563H7.331a.563.563,0,0,0,.562-.563V4.774A.563.563,0,0,0,7.331,4.211Z" fill="#fff" />
        <path d="M11.912,4.211H10.669a.563.563,0,0,0-.562.563v8.452a.563.563,0,0,0,.562.563h1.243a.563.563,0,0,0,.562-.563V4.774A.563.563,0,0,0,11.912,4.211Z" fill="#fff" />
      </g>
    </g>
  </g>
</svg>