<svg xmlns="http://www.w3.org/2000/svg" width="18" height="18" viewBox="0 0 18 18">
  <g id="uuid-eef903d8-4c56-48ba-b3fc-149cb92d262b"/>
  <g id="uuid-0ad82976-5cb3-4901-a962-f52980957f24">
    <g>
      <path d="M13.391,8.782c-.163,0-.325,.009-.484,.025l-.002-.003-.006,.004c-2.314,.246-4.117,2.204-4.117,4.583,0,1.066,.362,2.047,.969,2.828h0c.843,1.084,2.16,1.781,3.639,1.781,2.545,0,4.609-2.064,4.609-4.609s-2.063-4.609-4.609-4.609Zm2.509,5.675s-.018,.04-.098,.123c-.06,.063-.13,.126-.212,.201l-.073,.067c-.107,.099-.23,.215-.332,.341-.1,.124-.203,.285-.237,.478-.071,.401,.134,.74,.291,.937,.049,.061,.098,.115,.143,.161-.583,.345-1.264,.543-1.991,.543-1.144,0-2.173-.49-2.889-1.272h0c.025-.111,.037-.24,.046-.351l.004-.054c.008-.101,.016-.199,.029-.298,.032-.243,.088-.405,.174-.497,.111-.118,.224-.138,.461-.18l.043-.008c.122-.022,.284-.054,.441-.14,.167-.091,.308-.231,.415-.435,.108-.206,.099-.42,.07-.588-.023-.135-.069-.279-.106-.398l-.021-.068c-.094-.308-.106-.458-.028-.576,.085-.129,.201-.159,.504-.237l.039-.01c.307-.079,.722-.212,.963-.725,.261-.555,.114-1.182-.046-1.607-.055-.146-.116-.279-.172-.392h.073c.768,0,1.485,.221,2.09,.603-.088,.118-.207,.273-.339,.438-.29,.362-.618,.736-.84,.903-.102,.077-.181,.177-.224,.299-.042,.119-.042,.236-.025,.338,.032,.192,.134,.371,.225,.509,.075,.115,.164,.231,.238,.328l.05,.066c.043,.057,.078,.105,.105,.146,.013,.02,.023,.036,.029,.048l.009,.018c.019,.051,.039,.133,.062,.249l.019,.095c.016,.083,.034,.174,.053,.255,.024,.104,.061,.246,.128,.356,.033,.054,.101,.149,.224,.199,.148,.06,.289,.022,.385-.039,.084-.053,.146-.065,.185-.064,.038,0,.066,.012,.087,.028,.042,.032,.08,.106,.049,.209Z"/>
      <path d="M7.902,14.5h-2.067v-3.829h2.658c.199-.359,.43-.695,.7-1h-3.358v-3.83h3.83v3.368c.307-.274,.636-.523,1-.725v-2.644h3.835v2.051c.346,.07,.68,.173,1,.304v-2.355h0v-1h0v-1.841c0-1.657-1.343-3-3-3H3C1.343,0,0,1.343,0,3V12.5c0,1.657,1.343,3,3,3h1.835v.006h1v-.006h2.373c-.132-.324-.237-.656-.306-1ZM10.665,1h1.835c1.103,0,2,.897,2,2v1.841h-3.835V1Zm-4.83,0h3.83v3.841h-3.83V1Zm-1,13.5h-1.835c-1.103,0-2-.897-2-2v-1.829h3.835v3.829Zm0-4.829H1v-3.83h3.835v3.83Zm0-4.83H1v-1.841C1,1.897,1.897,1,3,1h1.835v3.841Z"/>
    </g>
  </g>
</svg>