<svg id="a0bf6215-6cb0-4ca1-8a42-f82dcbdffc1f" xmlns="http://www.w3.org/2000/svg" viewBox="0 0 18 18">
  <path d="M10.023.134H2.362A.605.605,0,0,0,1.757.74V17.26a.605.605,0,0,0,.605.606H15.638a.605.605,0,0,0,.6-.606V6.327a.605.605,0,0,0-.6-.606H11.232a.605.605,0,0,1-.6-.605V.74A.6.6,0,0,0,10.023.134Z" fill="#8065be" />
  <path d="M9.743.908V5.057a1.524,1.524,0,0,0,1.52,1.523h4.18V17.092H2.557V.908H9.743M10.036,0H2.264A.614.614,0,0,0,1.65.615v16.77A.614.614,0,0,0,2.264,18H15.736a.614.614,0,0,0,.614-.615V6.286a.614.614,0,0,0-.614-.614H11.263a.614.614,0,0,1-.613-.615V.615A.614.614,0,0,0,10.036,0Z" fill="#6c55a5" />
  <path d="M16.116,5.794,10.438.134V4.746a1.041,1.041,0,0,0,1.035,1.048Z" fill="#9374cd" />
  <rect x="11.126" y="9.333" width="1.941" height="5.71" rx="0.25" transform="translate(24.193 24.376) rotate(-180)" fill="#fff" />
  <rect x="8.03" y="11.309" width="1.941" height="3.735" rx="0.25" transform="translate(18 26.352) rotate(-180)" fill="#fff" opacity="0.8" />
  <rect x="4.933" y="7.421" width="1.941" height="7.622" rx="0.25" transform="translate(11.807 22.465) rotate(-180)" fill="#fff" opacity="0.6" />
</svg>