<svg xmlns="http://www.w3.org/2000/svg" width="16" height="16" viewBox="0 0 16 16">
  <path d="M14.2,5.9h0l-.7-.8h0l-.7.8h0L11,7.6l.7.8L13,7.1V8a4.5,4.5,0,0,1-.4,2H9.9A12.735,12.735,0,0,0,10,8,10.9,10.9,0,0,0,8.7,2.3a5.2,5.2,0,0,1,3,2l.7-.7A6.9,6.9,0,0,0,7,1a7,7,0,1,0,7,7V7.1l1.3,1.3.7-.8ZM7,14c-.5,0-1.2-1.1-1.7-3H8.7C8.2,12.9,7.5,14,7,14ZM5.1,10c0-.6-.1-1.3-.1-2s.1-1.4.1-2H8.9c0,.6.1,1.3.1,2s-.1,1.4-.1,2ZM8.7,5H5.3C5.8,3.1,6.5,2,7,2S8.2,3.1,8.7,5ZM5.3,2.3A8.508,8.508,0,0,0,4.3,5H1.8A5.9,5.9,0,0,1,5.3,2.3ZM1,8a4.5,4.5,0,0,1,.4-2H4.1A12.735,12.735,0,0,0,4,8a12.735,12.735,0,0,0,.1,2H1.4A4.5,4.5,0,0,1,1,8Zm.8,3H4.3a8.508,8.508,0,0,0,1,2.7A5.9,5.9,0,0,1,1.8,11Zm6.9,2.7a8.508,8.508,0,0,0,1-2.7h2.5A5.9,5.9,0,0,1,8.7,13.7Z"/>
</svg>
