<svg xmlns="http://www.w3.org/2000/svg" viewBox="0 0 16 16">
  <path d="M8,0a7.576,7.576,0,0,1,2.1.3,6.388,6.388,0,0,1,1.9.8,10.39,10.39,0,0,1,1.7,1.2A10.39,10.39,0,0,1,14.9,4a6.388,6.388,0,0,1,.8,1.9,7.5,7.5,0,0,1,0,4.2,6.388,6.388,0,0,1-.8,1.9,10.39,10.39,0,0,1-1.2,1.7A10.39,10.39,0,0,1,12,14.9a6.388,6.388,0,0,1-1.9.8,7.5,7.5,0,0,1-4.2,0A6.388,6.388,0,0,1,4,14.9a10.39,10.39,0,0,1-1.7-1.2A10.39,10.39,0,0,1,1.1,12a6.388,6.388,0,0,1-.8-1.9,7.5,7.5,0,0,1,0-4.2A6.388,6.388,0,0,1,1.1,4,10.39,10.39,0,0,1,2.3,2.3,10.39,10.39,0,0,1,4,1.1,6.388,6.388,0,0,1,5.9.3,7.576,7.576,0,0,1,8,0ZM8,15a6.105,6.105,0,0,0,2.4-.4,9.79,9.79,0,0,0,2.2-1.3L2.7,3.4A9.79,9.79,0,0,0,1.4,5.6,6.105,6.105,0,0,0,1,8a6.283,6.283,0,0,0,.3,1.9A4.61,4.61,0,0,0,2,11.5a3.809,3.809,0,0,0,1.1,1.4A3.809,3.809,0,0,0,4.5,14l1.6.8Zm5.3-2.4a9.79,9.79,0,0,0,1.3-2.2A6.105,6.105,0,0,0,15,8a12.233,12.233,0,0,0-.2-1.9A7.976,7.976,0,0,0,14,4.5a3.809,3.809,0,0,0-1.1-1.4A3.809,3.809,0,0,0,11.5,2a4.61,4.61,0,0,0-1.6-.7A6.283,6.283,0,0,0,8,1a6.105,6.105,0,0,0-2.4.4A9.79,9.79,0,0,0,3.4,2.7Z" />
</svg>