<svg xmlns="http://www.w3.org/2000/svg" viewBox="0 0 16 16">
  <path d="M15.2,10.361V9.415a2.859,2.859,0,0,0-2.676-2.83,4.449,4.449,0,0,0-.708-1.07,2.857,2.857,0,0,0,2.266-2.781V1.778h-.956v.946a1.907,1.907,0,0,1-1.912,1.892h-.363a4.583,4.583,0,0,0-1.109-.535,1.975,1.975,0,0,0,.545-1.367,1.844,1.844,0,0,0-.21-.86L11.264.669,10.6,0,9.477,1.118A2.01,2.01,0,0,0,8.3.736H7.642a2,2,0,0,0-1.176.392L5.338,0,4.669.669l1.185,1.2a1.872,1.872,0,0,0-.21.86,1.994,1.994,0,0,0,.593,1.415,4.87,4.87,0,0,0-.947.487H4.946A1.909,1.909,0,0,1,3.025,2.734V1.778H2.069v.946A2.848,2.848,0,0,0,4.315,5.5a5.912,5.912,0,0,0-.678,1.07A2.86,2.86,0,0,0,.8,9.415v.946h.956V9.415A1.9,1.9,0,0,1,3.293,7.56a4.021,4.021,0,0,0-.144,1.08v2.313c0,.067.019.134.019.192l-.133.1a2.9,2.9,0,0,0-1.166,1.854,2.82,2.82,0,0,0,.487,2.122l.554.774.775-.554-.545-.765a1.852,1.852,0,0,1-.325-1.414,1.95,1.95,0,0,1,.526-1.023A4.829,4.829,0,0,0,7.986,15.79h.162a4.835,4.835,0,0,0,4.636-3.527,1.905,1.905,0,0,1,.172,2.408l-.555.775.775.554.554-.774a2.864,2.864,0,0,0-.669-3.986l-.1-.067c0-.076.019-.143.019-.22V8.64a5.253,5.253,0,0,0-.114-1.032,1.9,1.9,0,0,1,1.367,1.807v.946ZM6.533,2.724A1.11,1.11,0,0,1,7.642,1.615H8.3a1.1,1.1,0,0,1,.067,2.208c-.076,0-.143-.019-.21-.019H7.986c-.125,0-.23.029-.354.038A1.121,1.121,0,0,1,6.533,2.724Zm5.505,8.229a3.883,3.883,0,0,1-3.88,3.881H7.986a3.884,3.884,0,0,1-3.881-3.881V8.64A3.883,3.883,0,0,1,7.986,4.76h.162a3.883,3.883,0,0,1,3.881,3.88v2.313Z" />
</svg>