<svg id="uuid-fec809c3-ea06-4222-8542-06de74481f2a" xmlns="http://www.w3.org/2000/svg" width="18" height="18" viewBox="0 0 18 18">
  <defs>
    <linearGradient id="uuid-3e0f609e-8b52-4610-bcf8-5b4f16f701e0" x1="6.171" y1="14.904" x2="6.171" y2="0" gradientTransform="matrix(1, 0, 0, 1, 0, 0)" gradientUnits="userSpaceOnUse">
      <stop offset="0" stop-color="#198ab3"/>
      <stop offset="1" stop-color="#32bedd"/>
    </linearGradient>
    <linearGradient id="uuid-c280fb95-e485-4503-a14e-8effddc2d923" x1="13.284" y1="18" x2="13.284" y2="9" gradientTransform="matrix(1, 0, 0, 1, 0, 0)" gradientUnits="userSpaceOnUse">
      <stop offset=".001" stop-color="#773adc"/>
      <stop offset="1" stop-color="#a67af4"/>
    </linearGradient>
  </defs>
  <g>
    <path d="M8.362,13.5c0-2.315,1.607-4.261,3.764-4.783V.494c0-.273-.221-.494-.494-.494H.71C.437,0,.216,.221,.216,.494V14.409c0,.273,.221,.494,.494,.494h7.857c-.133-.445-.205-.916-.205-1.404Z" fill="url(#uuid-3e0f609e-8b52-4610-bcf8-5b4f16f701e0)"/>
    <g>
      <polygon points="9.645 4.45 9.645 8.494 6.175 10.524 6.175 6.472 9.645 4.45" fill="#50e6ff"/>
      <polygon points="9.645 4.45 6.175 6.481 2.697 4.45 6.175 2.419 9.645 4.45" fill="#c3f1ff"/>
      <polygon points="6.175 6.481 6.175 10.524 2.697 8.494 2.697 4.45 6.175 6.481" fill="#9cebff"/>
      <polygon points="2.697 8.494 6.175 6.472 6.175 10.524 2.697 8.494" fill="#c3f1ff"/>
      <polygon points="9.645 8.494 6.175 6.472 6.175 10.524 9.645 8.494" fill="#9cebff"/>
    </g>
  </g>
  <circle cx="13.284" cy="13.5" r="4.5" fill="url(#uuid-c280fb95-e485-4503-a14e-8effddc2d923)"/>
  <g>
    <g>
      <path d="M12.614,11.199c.189-.051,.387-.08,.592-.08,.626,0,1.193,.253,1.607,.661,.204-.233,.486-.394,.805-.443-.583-.679-1.447-1.109-2.413-1.109-.398,0-.778,.074-1.129,.207,.261,.18,.455,.45,.537,.764Z" fill="#fff"/>
      <path d="M11.585,15.025c-.413-.415-.669-.986-.669-1.616,0-.199,.028-.39,.076-.574-.316-.08-.587-.272-.769-.532-.128,.345-.198,.717-.198,1.106,0,.962,.428,1.824,1.103,2.407,.056-.316,.222-.593,.457-.791Z" fill="#fff"/>
      <path d="M15.821,13.998c-.135,0-.266-.021-.389-.058-.201,.843-.868,1.506-1.713,1.7,.042,.129,.065,.267,.065,.411,0,.179-.036,.349-.099,.505,1.374-.207,2.46-1.293,2.667-2.667-.163,.071-.342,.11-.531,.11Z" fill="#fff"/>
    </g>
    <circle cx="11.321" cy="11.538" r="1.02" fill="#fff"/>
    <circle cx="15.823" cy="12.658" r="1.02" fill="#fff"/>
    <circle cx="12.446" cy="16.051" r="1.02" fill="#fff"/>
  </g>
</svg>