<svg id="uuid-39f0f1fe-1e80-4f2e-990f-2d4fbbf0e8f1" xmlns="http://www.w3.org/2000/svg" width="18" height="18" viewBox="0 0 18 18">
  <defs>
    <linearGradient id="uuid-825aebbb-ea16-4ca4-b167-2485cbed3dbc" x1="4.976" y1="773.297" x2="4.976" y2="779.78" gradientTransform="translate(4 785.516) scale(1 -1)" gradientUnits="userSpaceOnUse">
      <stop offset=".001" stop-color="#76bc2d"/>
      <stop offset="1" stop-color="#86d633"/>
    </linearGradient>
    <linearGradient id="uuid-fec21e88-daa6-4e56-a348-2d2126a94fe9" x1="2.076" y1="9.02" x2="6.145" y2="9.02" gradientTransform="matrix(1, 0, 0, 1, 0, 0)" gradientUnits="userSpaceOnUse">
      <stop offset="0" stop-color="#999"/>
      <stop offset="1" stop-color="#e6e6e6"/>
    </linearGradient>
    <linearGradient id="uuid-53cea075-0b4e-48da-804f-1d761c6cb791" x1="-1016.299" y1="974.082" x2="-1018.536" y2="974.082" gradientTransform="translate(-972.906 1020.514) rotate(90) scale(1 -1)" gradientUnits="userSpaceOnUse">
      <stop offset="0" stop-color="#0078d4"/>
      <stop offset="1" stop-color="#5ea0ef"/>
    </linearGradient>
    <linearGradient id="uuid-6db148e2-c7d3-43db-b308-738cb2e20bf8" x1="-1010.397" y1="974.025" x2="-1012.634" y2="974.025" gradientTransform="translate(-972.906 1020.514) rotate(90) scale(1 -1)" gradientUnits="userSpaceOnUse">
      <stop offset=".001" stop-color="#76bc2d"/>
      <stop offset="1" stop-color="#86d633"/>
    </linearGradient>
    <linearGradient id="uuid-5693651b-a328-4927-8a36-6900621ee322" x1="-1004.492" y1="974.082" x2="-1006.729" y2="974.082" gradientTransform="translate(-972.906 1020.514) rotate(90) scale(1 -1)" gradientUnits="userSpaceOnUse">
      <stop offset="0" stop-color="#0078d4"/>
      <stop offset="1" stop-color="#5ea0ef"/>
    </linearGradient>
    <linearGradient id="uuid-8246d257-5f10-4e67-bab2-c97d0d50f428" x1="-1268.276" y1="9.02" x2="-1264.207" y2="9.02" gradientTransform="matrix(1, 0, 0, 1, 0, 0)" gradientUnits="userSpaceOnUse">
      <stop offset="0" stop-color="#999"/>
      <stop offset="1" stop-color="#e6e6e6"/>
    </linearGradient>
    <linearGradient id="uuid-c307470b-bfe8-4ab6-bc8b-8142c3bd01ed" x1="-1016.299" y1="-296.27" x2="-1018.536" y2="-296.27" gradientTransform="translate(-972.906 1020.514) rotate(90) scale(1 -1)" gradientUnits="userSpaceOnUse">
      <stop offset="0" stop-color="#0078d4"/>
      <stop offset="1" stop-color="#5ea0ef"/>
    </linearGradient>
    <linearGradient id="uuid-5bceaf8d-4e91-4dd9-8495-9f725465591a" x1="-1010.397" y1="-296.327" x2="-1012.634" y2="-296.327" gradientTransform="translate(-972.906 1020.514) rotate(90) scale(1 -1)" gradientUnits="userSpaceOnUse">
      <stop offset=".001" stop-color="#76bc2d"/>
      <stop offset="1" stop-color="#86d633"/>
    </linearGradient>
    <linearGradient id="uuid-43cf0733-c458-44e2-9b4e-2fe8203c6a69" x1="-1004.492" y1="-296.271" x2="-1006.729" y2="-296.271" gradientTransform="translate(-972.906 1020.514) rotate(90) scale(1 -1)" gradientUnits="userSpaceOnUse">
      <stop offset="0" stop-color="#0078d4"/>
      <stop offset="1" stop-color="#5ea0ef"/>
    </linearGradient>
  </defs>
  <path d="M12.218,9.327v-.739l-.104-.039-.792-.259-.207-.504,.402-.856-.519-.519-.104,.052-.738,.375-.504-.207-.326-.895h-.739l-.039,.104-.259,.792-.504,.207-.844-.403-.519,.519,.052,.104,.377,.739-.207,.504-.909,.326v.739l.104,.039,.792,.259,.207,.504-.403,.857,.519,.519,.104-.052,.739-.376,.504,.207,.326,.895h.739l.039-.104,.259-.792,.504-.207,.856,.402,.519-.519-.052-.104-.375-.738,.207-.504,.895-.326Zm-3.241,.791c-.63,0-1.141-.511-1.141-1.141s.511-1.141,1.141-1.141,1.141,.511,1.141,1.141h0c0,.629-.509,1.14-1.139,1.141h-.002Z" fill="url(#uuid-825aebbb-ea16-4ca4-b167-2485cbed3dbc)"/>
  <g>
    <path d="M5.229,8.625l-.674,.013V3.487c-.005-.403-.334-.727-.737-.724H1.399v.732H3.644c.099,.002,.178,.081,.18,.18v4.963H1.191v.721H3.824v5.009c0,.099-.08,.18-.179,.18H1.16v.73H3.817c.403,.003,.732-.32,.737-.723v-5.195l.674-.013v-.721Z" fill="url(#uuid-fec21e88-daa6-4e56-a348-2d2126a94fe9)"/>
    <circle cx="1.176" cy="3.096" r="1.119" fill="url(#uuid-53cea075-0b4e-48da-804f-1d761c6cb791)"/>
    <circle cx="1.119" cy="8.999" r="1.119" fill="url(#uuid-6db148e2-c7d3-43db-b308-738cb2e20bf8)"/>
    <circle cx="1.175" cy="14.904" r="1.119" fill="url(#uuid-5693651b-a328-4927-8a36-6900621ee322)"/>
  </g>
  <g>
    <path d="M12.771,8.625l.674,.013V3.487c.005-.403,.334-.727,.737-.724h2.419v.732h-2.245c-.099,.002-.178,.081-.18,.18v4.963h2.633v.721h-2.633v5.009c0,.099,.08,.18,.179,.18h2.486v.73h-2.658c-.403,.003-.732-.32-.737-.723v-5.195l-.674-.013v-.721Z" fill="url(#uuid-8246d257-5f10-4e67-bab2-c97d0d50f428)"/>
    <circle cx="16.824" cy="3.096" r="1.119" fill="url(#uuid-c307470b-bfe8-4ab6-bc8b-8142c3bd01ed)"/>
    <circle cx="16.881" cy="8.999" r="1.119" fill="url(#uuid-5bceaf8d-4e91-4dd9-8495-9f725465591a)"/>
    <circle cx="16.825" cy="14.904" r="1.119" fill="url(#uuid-43cf0733-c458-44e2-9b4e-2fe8203c6a69)"/>
  </g>
</svg>