<svg id="aba91bf2-2c63-4f66-908d-9f231fce552e" xmlns="http://www.w3.org/2000/svg" viewBox="0 0 18 18">
  <defs>
    <linearGradient id="e96a0015-5d77-4b6a-8c77-db792a566b07" x1="9" y1="1.361" x2="9" y2="17.868" gradientUnits="userSpaceOnUse">
      <stop offset="0.183" stop-color="#5ea0ef" />
      <stop offset="1" stop-color="#0078d4" />
    </linearGradient>
    <radialGradient id="bc0ec5ce-4505-4bcc-8227-a0d7f5058fc5" cx="53.171" cy="182.15" r="7.432" gradientTransform="translate(-41.983 -163.236) scale(0.942 0.944)" gradientUnits="userSpaceOnUse">
      <stop offset="0.266" stop-color="#ffd70f" />
      <stop offset="0.487" stop-color="#ffcb12" />
      <stop offset="0.884" stop-color="#feac19" />
      <stop offset="1" stop-color="#fea11b" />
    </radialGradient>
  </defs>
  <title>Icon-Key-Artboard 271</title>
  <g>
    <path d="M16.364,8.4c0,4.84-5.849,8.736-7.122,9.526a.459.459,0,0,1-.484,0c-1.273-.79-7.122-4.686-7.122-9.526V2.582a.463.463,0,0,1,.452-.462C6.638,2,5.59,0,9,0s2.362,2,6.912,2.12a.463.463,0,0,1,.452.462Z" fill="#0078d4" />
    <path d="M15.754,8.454c0,4.438-5.365,8.011-6.532,8.736a.418.418,0,0,1-.444,0c-1.167-.725-6.532-4.3-6.532-8.736V3.114a.425.425,0,0,1,.415-.423C6.834,2.578,5.873.747,9,.747s2.166,1.831,6.339,1.944a.425.425,0,0,1,.415.423Z" fill="url(#e96a0015-5d77-4b6a-8c77-db792a566b07)" />
    <g>
      <path id="b3a2edbf-97f8-47cd-bd75-8dbfab181edd" d="M12.206,7.743a1.379,1.379,0,0,0,0-1.946h0L9.839,3.422a1.37,1.37,0,0,0-1.941,0h0L5.53,5.8a1.379,1.379,0,0,0,0,1.946L7.5,9.719a.385.385,0,0,1,.113.273v3.673A.468.468,0,0,0,7.75,14l.9.9a.312.312,0,0,0,.44,0l.87-.873v-.008l.514-.514a.181.181,0,0,0,0-.254l-.37-.371a.2.2,0,0,1,0-.277l.37-.37a.18.18,0,0,0,0-.254l-.37-.371a.2.2,0,0,1,0-.277l.37-.371a.179.179,0,0,0,0-.253l-.514-.516V10ZM8.868,4a.782.782,0,1,1-.779.782A.781.781,0,0,1,8.868,4Z" fill="url(#bc0ec5ce-4505-4bcc-8227-a0d7f5058fc5)" />
      <path id="ab8895a0-b05f-492a-b699-8a303d065bd3" d="M8.252,13.743h0a.167.167,0,0,0,.283-.128V10.644a.176.176,0,0,0-.077-.147h0a.168.168,0,0,0-.259.147v2.971A.177.177,0,0,0,8.252,13.743Z" fill="#ff9300" opacity="0.75" />
      <path id="a27c83dd-342a-4535-8bcc-56585a221f89" d="M7.181,6.588h3.473a.21.21,0,0,1,.21.21v.039a.211.211,0,0,1-.211.211H7.181a.21.21,0,0,1-.21-.21V6.8A.211.211,0,0,1,7.181,6.588Z" fill="#ff9300" opacity="0.75" />
      <path id="a7962cd3-6ad7-4d54-95e4-13fe4d785c1e" d="M7.181,7.337h3.473a.21.21,0,0,1,.21.21v.039a.211.211,0,0,1-.211.211H7.181a.211.211,0,0,1-.211-.211V7.547A.211.211,0,0,1,7.181,7.337Z" fill="#ff9300" opacity="0.75" />
    </g>
  </g>
</svg>