<svg xmlns="http://www.w3.org/2000/svg" viewBox="0 0 18 18">
  <defs>
    <linearGradient id="b3396871-af05-4fd4-b4ce-65f0a27b8863" x1="7.3441" y1="16.716" x2="8.5992" y2="1.116" gradientUnits="userSpaceOnUse">
      <stop offset="0" stop-color="#0078d4" />
      <stop offset="0.7761" stop-color="#5ea0ef" />
    </linearGradient>
  </defs>
  <g id="a6db2434-5768-45f2-883e-346fa52c18d4">
    <path d="M0,3.376A1.9476,1.9476,0,0,1,1.9476,1.4284a8.9542,8.9542,0,0,1,3.059.5585c.3685.3543-1.1114.8376-1.1114,1.3891Z" fill="#0078d4" />
    <path d="M16.0524,16.5716A1.9476,1.9476,0,0,0,18,14.624H5.2619c0,1.0756,0,1.5011.3356,1.9476Z" fill="#5ea0ef" />
    <path d="M2.3868,1.4284H12.4025A1.9476,1.9476,0,0,1,14.35,3.376l-.2112,11.248H7.5757a1.9476,1.9476,0,1,1-3.8951,0L3.8952,3.376A1.9476,1.9476,0,0,0,1.9476,1.4284Z" fill="url(#b3396871-af05-4fd4-b4ce-65f0a27b8863)" />
    <path d="M7.091,3.1771a.3094.3094,0,1,1-.31-.3087h.0015a.3087.3087,0,0,1,.3087.3087Zm0,5.3805a.3094.3094,0,1,1-.31-.3086h.0015A.3094.3094,0,0,1,7.091,8.5576ZM5.4565,7.6919V6.82a1.6768,1.6768,0,0,0,1.0774.3976,1.2473,1.2473,0,0,0,.294-.0294.6734.6734,0,0,0,.2072-.0838.36.36,0,0,0,.1242-.1249.3167.3167,0,0,0,.0412-.1573.3406.3406,0,0,0-.0654-.2043.7128.7128,0,0,0-.1786-.1661,1.8846,1.8846,0,0,0-.269-.147c-.1036-.047-.2153-.0955-.3351-.147a1.716,1.716,0,0,1-.6835-.4667,1.0183,1.0183,0,0,1-.2249-.6614,1.062,1.062,0,0,1,.1227-.5255,1.0432,1.0432,0,0,1,.3344-.3616,1.4886,1.4886,0,0,1,.49-.208,2.5023,2.5023,0,0,1,.5879-.0669A3.4934,3.4934,0,0,1,7.52,3.904a2.1313,2.1313,0,0,1,.4351.1132v.8135a1.2881,1.2881,0,0,0-.2146-.12,1.7087,1.7087,0,0,0-.2382-.0859,1.8584,1.8584,0,0,0-.4747-.0669,1.2021,1.2021,0,0,0-.2727.0286.7026.7026,0,0,0-.2072.0809.3937.3937,0,0,0-.1309.1242.2946.2946,0,0,0-.0463.1617.3122.3122,0,0,0,.0515.1764.5947.5947,0,0,0,.147.1469,1.5383,1.5383,0,0,0,.2315.1367c.0911.0441.1933.09.3079.1375a3.4732,3.4732,0,0,1,.4219.2087,1.52,1.52,0,0,1,.32.2491.98.98,0,0,1,.2043.3183,1.274,1.274,0,0,1-.0529.965,1.01,1.01,0,0,1-.3373.36A1.4526,1.4526,0,0,1,7.17,7.85a2.8287,2.8287,0,0,1-.5961.06,3.3342,3.3342,0,0,1-.6122-.0543A1.8636,1.8636,0,0,1,5.4565,7.6919Z" fill="#fff" />
    <path d="M12.8936,10.5431H5.2478a.3721.3721,0,1,1,0-.7441h7.6458a.3721.3721,0,1,1,0,.7441Z" fill="#fff" opacity="0.8" />
    <path d="M11.3353,12.0878H5.2478a.3721.3721,0,1,1,0-.7441h6.0875a.3721.3721,0,0,1,0,.7441Z" fill="#fff" opacity="0.6" />
    <path d="M12.8936,13.6326H5.2478a.3721.3721,0,1,1,0-.7441h7.6458a.3721.3721,0,1,1,0,.7441Z" fill="#fff" opacity="0.4" />
  </g>
</svg>