<svg xmlns="http://www.w3.org/2000/svg" width="18" height="18" viewBox="0 0 18 18">
  <defs>
    <linearGradient id="b95c49fd-0f1e-4b59-a57e-dc2c3ceb8c03" x1="12.232" y1="-4.943" x2="12.232" y2="11.122" gradientTransform="translate(24.463 15.104) rotate(180)" gradientUnits="userSpaceOnUse">
      <stop offset="0" stop-color="#5ea0ef"/>
      <stop offset="1" stop-color="#0078d4"/>
    </linearGradient>
    <linearGradient id="e3186ab7-e6fc-45ab-81e9-0691c4f53cff" x1="-1265.709" y1="1.686" x2="-1265.709" y2="19.951" gradientTransform="matrix(1, 0, 0, -1, 1275.149, 20.896)" gradientUnits="userSpaceOnUse">
      <stop offset="0" stop-color="#83b9f9"/>
      <stop offset="1" stop-color="#0078d4"/>
    </linearGradient>
  </defs>
  <rect x="6.463" y="1.784" width="11.537" height="11.537" rx="0.769" transform="translate(24.463 15.104) rotate(-180)" fill="url(#b95c49fd-0f1e-4b59-a57e-dc2c3ceb8c03)"/>
  <rect x="3.672" y="4.679" width="11.537" height="11.537" rx="0.769" transform="translate(18.882 20.896) rotate(-180)" fill="url(#e3186ab7-e6fc-45ab-81e9-0691c4f53cff)"/>
  <path d="M6.453,6.478c3.889,0,6.264,2.893,6.454,6.842a1,1,0,0,1-1,1.05H1a1,1,0,0,1-1-1.051C.2,9.371,2.571,6.478,6.453,6.478Z" fill="#50e6ff"/>
  <path d="M1,13.7a.328.328,0,0,1-.241-.1.335.335,0,0,1-.093-.248C.852,9.574,3.453,7.144,6.453,7.144s5.607,2.43,5.789,6.208a.337.337,0,0,1-.334.352Z" fill="#fff"/>
  <path d="M9.583,9.23a4.692,4.692,0,0,0-2.8-1.193v2.177a2.613,2.613,0,0,1,1.3.555Z" fill="#32bedd"/>
  <path d="M3.324,9.23l1.5,1.539a2.613,2.613,0,0,1,1.3-.555V8.037A4.692,4.692,0,0,0,3.324,9.23Z" fill="#32bedd"/>
  <path d="M8.557,11.253A2.767,2.767,0,0,1,9.1,12.589h2.118a4.963,4.963,0,0,0-1.16-2.875Z" fill="#50e6ff"/>
  <path d="M4.35,11.253l-1.5-1.539a4.963,4.963,0,0,0-1.16,2.875H3.811A2.767,2.767,0,0,1,4.35,11.253Z" fill="#32bedd"/>
  <path d="M10.348,10.776a.334.334,0,0,0-.432-.189L6.8,11.831l.243.621,3.118-1.245A.333.333,0,0,0,10.348,10.776Z" fill="#0078d4"/>
  <circle cx="6.453" cy="12.28" r="0.91" fill="#767676"/>
</svg>
