<svg xmlns="http://www.w3.org/2000/svg" viewBox="0 0 18 18">
  <defs>
    <linearGradient id="a612e393-6cf7-4835-9c58-ee6cba011d78" x1="9" y1="16.236" x2="9" y2="5.599" gradientUnits="userSpaceOnUse">
      <stop offset="0" stop-color="#0078d4" />
      <stop offset="0.061" stop-color="#1481da" />
      <stop offset="0.775" stop-color="#5ea0ef" />
    </linearGradient>
    <linearGradient id="b2f304eb-251c-4956-8d79-aea0f3c23156" x1="10.742" y1="14.638" x2="10.742" y2="9.161" gradientUnits="userSpaceOnUse">
      <stop offset="0" stop-color="#c3f1ff" />
      <stop offset="0.024" stop-color="#c1f1ff" />
      <stop offset="0.999" stop-color="#9cebff" />
    </linearGradient>
    <linearGradient id="bb9b66a1-ae3a-4536-b698-9c514dfa727f" x1="6.946" y1="12.396" x2="6.946" y2="6.92" gradientUnits="userSpaceOnUse">
      <stop offset="0" stop-color="#9cebff" />
      <stop offset="0.817" stop-color="#50e6ff" />
    </linearGradient>
    <linearGradient id="aadaa645-6267-45c3-bd88-12a1f316aa1a" x1="9.818" y1="9.374" x2="8.154" y2="11.743" gradientUnits="userSpaceOnUse">
      <stop offset="0" stop-color="#32bedd" />
      <stop offset="0.113" stop-color="#33bfde" stop-opacity="0.978" />
      <stop offset="0.864" stop-color="#49ddf7" stop-opacity="0.224" />
      <stop offset="1" stop-color="#50e6ff" stop-opacity="0" />
    </linearGradient>
  </defs>
  <g id="e487931f-d47e-4709-97b0-2e92f29ff95b">
    <path d="M0,5.6H18a0,0,0,0,1,0,0V15.635a.6.6,0,0,1-.6.6H.6a.6.6,0,0,1-.6-.6V5.6A0,0,0,0,1,0,5.6Z" fill="url(#a612e393-6cf7-4835-9c58-ee6cba011d78)" />
    <path d="M.6,1.764H17.4a.6.6,0,0,1,.6.6V5.6a0,0,0,0,1,0,0H0a0,0,0,0,1,0,0V2.365A.6.6,0,0,1,.6,1.764Z" fill="#0078d4" />
    <g>
      <path d="M12.177,9.161H9.265A2.552,2.552,0,0,0,6.85,11.4h.915a1.6,1.6,0,0,1,1.5-1.248h2.912A1.664,1.664,0,0,1,13.742,11.9a1.664,1.664,0,0,1-1.565,1.745H9.265a1.6,1.6,0,0,1-1.5-1.249H6.85a2.551,2.551,0,0,0,2.415,2.242h2.912A2.611,2.611,0,0,0,14.633,11.9,2.612,2.612,0,0,0,12.177,9.161Z" fill="url(#b2f304eb-251c-4956-8d79-aea0f3c23156)" />
      <path d="M8.423,11.4H5.511A1.665,1.665,0,0,1,3.945,9.658,1.665,1.665,0,0,1,5.511,7.913H8.423a1.6,1.6,0,0,1,1.5,1.248h.914A2.549,2.549,0,0,0,8.423,6.92H5.511A2.611,2.611,0,0,0,3.055,9.658,2.611,2.611,0,0,0,5.511,12.4H8.423a2.549,2.549,0,0,0,2.414-2.241H9.923A1.6,1.6,0,0,1,8.423,11.4Z" fill="url(#bb9b66a1-ae3a-4536-b698-9c514dfa727f)" />
      <path d="M8.423,11.4H6.471V12.4H8.423a2.549,2.549,0,0,0,2.414-2.241H9.923A1.6,1.6,0,0,1,8.423,11.4Z" fill="url(#aadaa645-6267-45c3-bd88-12a1f316aa1a)" />
    </g>
  </g>
</svg>