<svg xmlns="http://www.w3.org/2000/svg" width="18" height="18" viewBox="0 0 18 18">
  <defs>
    <linearGradient id="aa673652-8316-4e02-b2ee-2c4e5daf014f" x1="7.46" x2="7.46" y2="16.894" gradientUnits="userSpaceOnUse">
      <stop offset="0.183" stop-color="#5ea0ef"/>
      <stop offset="1" stop-color="#0078d4"/>
    </linearGradient>
  </defs>
  <g id="ba71828b-49cc-4527-8a32-8c80c340bd00">
    <g>
      <path d="M14.139,5.438,8.81.126V4.454a.977.977,0,0,0,.97.984h4.359Z" fill="#0078d4"/>
      <path d="M9.468,14.243a4.218,4.218,0,0,1,4.213-4.213,4.152,4.152,0,0,1,.572.04V5.938a.568.568,0,0,0-.563-.569H9.555A.567.567,0,0,1,8.992,4.8V.7A.564.564,0,0,0,8.434.126H1.23A.568.568,0,0,0,.662.694h0V16.2a.568.568,0,0,0,.567.569h9.082A4.191,4.191,0,0,1,9.468,14.243Z" fill="#fff"/>
      <rect x="2.767" y="7.692" width="9.385" height="1.259" rx="0.566" fill="#5ea0ef"/>
      <rect x="2.767" y="12.203" width="5.915" height="1.259" rx="0.566" fill="#5ea0ef"/>
      <circle cx="13.681" cy="14.243" r="3.757" fill="#cb4936"/>
      <path d="M9.872,16.042H1.413V.852H8.158V4.746a1.43,1.43,0,0,0,1.426,1.43h3.923v3.858c.058,0,.116,0,.174,0a4.189,4.189,0,0,1,.677.055V5.9a.576.576,0,0,0-.576-.577h-4.2a.576.576,0,0,1-.575-.577h0V.577A.577.577,0,0,0,8.433,0H1.138A.576.576,0,0,0,.562.576h0v15.74a.576.576,0,0,0,.575.577H10.41A4.183,4.183,0,0,1,9.872,16.042Z" fill="url(#aa673652-8316-4e02-b2ee-2c4e5daf014f)"/>
      <path d="M16.029,14.807V13.68h-4.7v1.127Z" fill="#fff"/>
      <path d="M12.119,10.331a.564.564,0,0,0-.533-.383H3.333a.566.566,0,0,0-.566.566v.126a.566.566,0,0,0,.566.566h7.432A4.25,4.25,0,0,1,12.119,10.331Z" fill="#5ea0ef"/>
    </g>
  </g>
</svg>
