<svg xmlns="http://www.w3.org/2000/svg" width="18" height="18" viewBox="0 0 18 18">
  <defs>
    <linearGradient id="a1f832bb-9dca-44eb-b0f6-1170078583d8" x1="9.484" y1="14.129" x2="9.484" y2="1.871" gradientUnits="userSpaceOnUse">
      <stop offset="0" stop-color="#198ab3"/>
      <stop offset="0.291" stop-color="#21a1c7"/>
      <stop offset="1" stop-color="#32d4f5"/>
    </linearGradient>
  </defs>
  <g id="e1cc3fb6-480c-4f7d-b758-68dae5f8cb56">
    <g>
      <rect x="0.084" y="7.88" width="3.746" height="1.037" rx="0.472" fill="#b4ec36"/>
      <rect x="0.084" y="9.898" width="5.089" height="1.037" rx="0.472" fill="#86d633"/>
      <rect x="0.084" y="11.917" width="5.089" height="1.037" rx="0.472" fill="#5e9624"/>
      <path d="M9.7,2.008l1.8,3.641a.247.247,0,0,0,.185.135l4.019.584a.245.245,0,0,1,.136.419L12.933,9.621a.245.245,0,0,0-.07.218l.686,4a.245.245,0,0,1-.356.259L9.6,12.211a.242.242,0,0,0-.228,0L5.775,14.1a.245.245,0,0,1-.356-.259l.686-4a.246.246,0,0,0-.071-.218L3.126,6.787a.246.246,0,0,1,.137-.419l4.018-.584a.245.245,0,0,0,.185-.135l1.8-3.641A.245.245,0,0,1,9.7,2.008Z" fill="url(#a1f832bb-9dca-44eb-b0f6-1170078583d8)"/>
    </g>
  </g>
</svg>
