<svg xmlns="http://www.w3.org/2000/svg" width="18" height="18" viewBox="0 0 18 18">
  <defs>
    <linearGradient id="ae4b20ae-5dce-415a-a2a9-47a4abc65a00" x1="7.477" y1="5.009" x2="7.477" y2="9.955" gradientUnits="userSpaceOnUse">
      <stop offset="0.16" stop-color="#50e6ff"/>
      <stop offset="1" stop-color="#32bedd"/>
    </linearGradient>
    <linearGradient id="a22700f9-338e-4d32-949c-9e750db5bd3e" x1="7.477" y1="0.08" x2="7.477" y2="4.969" gradientUnits="userSpaceOnUse">
      <stop offset="0.234" stop-color="#50e6ff"/>
      <stop offset="1" stop-color="#32bedd"/>
    </linearGradient>
    <linearGradient id="a29eeace-2af5-4bce-be76-85db5b940cb2" x1="13.482" y1="8.778" x2="13.482" y2="18.206" gradientUnits="userSpaceOnUse">
      <stop offset="0.234" stop-color="#50e6ff"/>
      <stop offset="1" stop-color="#32bedd"/>
    </linearGradient>
  </defs>
  <g id="b004261e-e5a9-44d1-97fe-93d9b1180655">
    <g>
      <g>
        <path d="M14.905,5.051,7.49,9.955.05,5.042a.118.118,0,0,1,.025-.033H14.88C14.888,5.026,14.9,5.034,14.905,5.051Z" fill="url(#ae4b20ae-5dce-415a-a2a9-47a4abc65a00)"/>
        <path d="M14.88,5.009H.075A.384.384,0,0,1,.2,4.876L7.224.1a.464.464,0,0,1,.524,0l7.007,4.78A.377.377,0,0,1,14.88,5.009Z" fill="url(#a22700f9-338e-4d32-949c-9e750db5bd3e)"/>
        <path d="M7.49,9.955l-.008.009-7.3,4.813-.008-.009V14.76A.462.462,0,0,1,0,14.411V5.258a.465.465,0,0,1,.05-.216Z" fill="#a67af4"/>
        <path d="M14.963,5.258V8.567a.142.142,0,0,1-.18.135,4.891,4.891,0,0,0-1.3-.174,4.946,4.946,0,0,0-4.315,2.536L7.49,9.955l7.415-4.9A.377.377,0,0,1,14.963,5.258Z" fill="#773adc"/>
        <path d="M8.543,13.467A4.937,4.937,0,0,0,8.7,14.708a.14.14,0,0,1-.135.178l-8.1-.01a.419.419,0,0,1-.282-.1l-.009-.008V14.76l7.3-4.8.008.008,1.685,1.1A4.9,4.9,0,0,0,8.543,13.467Z" fill="#552f99"/>
      </g>
      <g>
        <circle cx="13.482" cy="13.467" r="4.518" fill="url(#a29eeace-2af5-4bce-be76-85db5b940cb2)"/>
        <path d="M15.064,9.649a3.953,3.953,0,0,0-.39-.139l-.035-.01-.107-.03c-.034-.01-.07-.018-.1-.026-.105-.025-.211-.045-.316-.062l-.14-.019-.188-.018-.065,0-.085,0h-.163a4.144,4.144,0,0,0-1.651.35l-.083.037a4.247,4.247,0,0,0-.722.43L11,10.166l-.051.038a4.123,4.123,0,0,0-1.6,3.182v.032a3.816,3.816,0,0,0,.6,2.216A3.948,3.948,0,0,0,12.5,17.48l.086.02.044.009c.031.007.063.013.094.018s.085.016.128.022h0l.13.018c.044,0,.088.01.132.013l.107.009.088,0a3.971,3.971,0,0,0,3.13-1.231A3.912,3.912,0,0,0,17.614,13.5,4.136,4.136,0,0,0,15.064,9.649Zm1.185,1.091a3.937,3.937,0,0,1-1.138.433A4.8,4.8,0,0,0,14.422,9.7,3.9,3.9,0,0,1,16.249,10.74Zm-1.2,4.715,0,.005c-.136-.027-.273-.053-.41-.074a8.155,8.155,0,0,0-2.864.074,9.182,9.182,0,0,1,.118-4.025,8.174,8.174,0,0,0,3.059.013v0h0a9.483,9.483,0,0,1,.1,4Zm-2.284-5.8a3.873,3.873,0,0,1,1.3-.024l0,0a4.065,4.065,0,0,1,.823,1.59,8.15,8.15,0,0,1-2.93-.008,4.08,4.08,0,0,1,.459-1.056,4.387,4.387,0,0,1,.359-.5Zm-1.415.571A3.908,3.908,0,0,1,12.4,9.735a4.856,4.856,0,0,0-.68,1.427,3.133,3.133,0,0,1-1.021-.414A4.268,4.268,0,0,1,11.348,10.222Zm-.863,5.749a3.888,3.888,0,0,1,.059-5.052,3.338,3.338,0,0,0,1.116.464,9.539,9.539,0,0,0-.128,4.133A3.174,3.174,0,0,0,10.485,15.971Zm.156.179a2.962,2.962,0,0,1,.959-.409,3.8,3.8,0,0,0,.725,1.462A3.9,3.9,0,0,1,10.641,16.15ZM12.747,17.3l-.022-.024a3.187,3.187,0,0,1-.9-1.591,8.013,8.013,0,0,1,3.158,0,3.309,3.309,0,0,1-.9,1.642A3.616,3.616,0,0,1,12.747,17.3Zm1.926-.111c-.064.021-.128.041-.193.058a3.847,3.847,0,0,0,.739-1.5,3.682,3.682,0,0,1,1.062.442A3.9,3.9,0,0,1,14.673,17.192Zm1.769-1.18a3.9,3.9,0,0,0-1.074-.469l-.093-.025,0-.014.007,0a9.551,9.551,0,0,0-.1-4.108,4.149,4.149,0,0,0,1.228-.485A3.9,3.9,0,0,1,16.442,16.012Z" fill="#c3f1ff"/>
      </g>
    </g>
  </g>
</svg>
