<svg xmlns="http://www.w3.org/2000/svg" width="18" height="18" viewBox="0 0 18 18">
  <defs>
    <linearGradient id="ec76e91a-679f-418b-ab98-23224089545f" x1="9" y1="9.628" x2="9" gradientUnits="userSpaceOnUse">
      <stop offset="0" stop-color="#0078d4"/>
      <stop offset="0.82" stop-color="#5ea0ef"/>
    </linearGradient>
    <linearGradient id="a1d15870-e8c6-460f-a355-515265cadc54" x1="9" y1="13.343" x2="9" y2="9.628" gradientUnits="userSpaceOnUse">
      <stop offset="0.15" stop-color="#ccc"/>
      <stop offset="1" stop-color="#707070"/>
    </linearGradient>
  </defs>
  <g id="a73c27df-5c7d-4019-bae9-f4a20baedf00">
    <g>
      <path d="M17.549,15.194c-.16.7-1.035,1.391-2.617,1.929a21.594,21.594,0,0,1-12.125.017C1.35,16.626.564,15.97.441,15.3c-.022-.118,0-1.966,0-1.966l17.136-.16S17.569,15.109,17.549,15.194Z" fill="#5ea0ef"/>
      <ellipse cx="9.001" cy="13.294" rx="8.576" ry="2.965" transform="translate(-0.133 0.091) rotate(-0.575)" fill="#50e6ff"/>
    </g>
    <rect x="1.779" width="14.442" height="9.628" rx="0.481" fill="url(#ec76e91a-679f-418b-ab98-23224089545f)"/>
    <polygon points="11.407 3.41 11.407 6.21 9 7.622 9 4.814 11.407 3.41" fill="#50e6ff"/>
    <polygon points="11.407 3.41 9 4.822 6.593 3.41 9 2.006 11.407 3.41" fill="#c3f1ff"/>
    <polygon points="9 4.822 9 7.622 6.593 6.21 6.593 3.41 9 4.822" fill="#9cebff"/>
    <polygon points="6.593 6.21 9 4.814 9 7.622 6.593 6.21" fill="#c3f1ff"/>
    <polygon points="11.407 6.21 9 4.814 9 7.622 11.407 6.21" fill="#9cebff"/>
    <path d="M11.9,12.54c-1.428-.224-1.484-1.251-1.484-2.912H7.58c0,1.661-.048,2.688-1.476,2.912a.8.8,0,0,0-.714.8h7.22A.8.8,0,0,0,11.9,12.54Z" fill="url(#a1d15870-e8c6-460f-a355-515265cadc54)"/>
  </g>
  <metadata>
   <rdf:RDF xmlns:rdf="http://www.w3.org/1999/02/22-rdf-syntax-ns#">
      <rdf:li>public:true</rdf:li>
      <rdf:li>sdk:false</rdf:li>
      <rdf:li>category:Management + Governance</rdf:li>
   </rdf:RDF>
</metadata>
</svg>
