<svg id="uuid-0acee7e5-3908-4181-8c5b-c0a6f9121c8b" xmlns="http://www.w3.org/2000/svg" width="18" height="18" viewBox="0 0 18 18">
  <defs>
    <linearGradient id="uuid-edb2205b-5c65-44c9-9fbc-e175a6037e90" x1="13.215" y1="789.66" x2="13.215" y2="776.651" gradientTransform="translate(0 791.516) scale(1 -1)" gradientUnits="userSpaceOnUse">
      <stop offset="0" stop-color="#664b96"/>
      <stop offset=".999" stop-color="#463668"/>
    </linearGradient>
    <linearGradient id="uuid-6667057f-93de-44f3-b44d-cb485d6b986c" x1="4.695" y1="775.361" x2="4.695" y2="790.744" gradientTransform="translate(0 791.516) scale(1 -1)" gradientUnits="userSpaceOnUse">
      <stop offset="0" stop-color="#664b96"/>
      <stop offset=".999" stop-color="#8661c5"/>
    </linearGradient>
    <linearGradient id="uuid-d09db439-4279-4533-9cfd-fed8517d67bb" x1="13.985" y1="782.862" x2="13.985" y2="772.908" gradientTransform="translate(0 791.516) scale(1 -1)" gradientUnits="userSpaceOnUse">
      <stop offset="0" stop-color="#4aa647"/>
      <stop offset=".998" stop-color="#8de971"/>
    </linearGradient>
    <linearGradient id="uuid-2fe4edc6-fd68-47e1-b6ee-e356d2d27a7a" x1="13.983" y1="774.957" x2="13.983" y2="784.085" gradientTransform="translate(0 791.516) scale(1 -1)" gradientUnits="userSpaceOnUse">
      <stop offset="0" stop-color="#4aa647"/>
      <stop offset=".998" stop-color="#8de971"/>
    </linearGradient>
  </defs>
  <path d="M17.75,4.09v4.74c-.073-.029-.146-.044-.219-.044-1.065-.015-1.385-.248-1.735-.481-.379-.263-.817-.569-1.808-.569-1.006,0-1.429.306-1.808.569-.35.233-.685.467-1.735.481-.452.015-.802.365-.802.817v2.888c0,1.094.525,2.085,1.196,2.902l-1.794.715c-.044.029-.102.044-.16.044-.029,0-.058,0-.087-.015-.073-.044-.117-.117-.117-.204V.983c0-.087.044-.16.117-.19l.044-.015h.117l.058.015,8.415,2.858c.19.058.321.233.321.438Z" fill="url(#uuid-edb2205b-5c65-44c9-9fbc-e175a6037e90)"/>
  <path d="M8.837.776L.456,2.306c-.12.023-.206.127-.206.249v11.568c0,.12.083.223.201.248l8.38,1.778c.137.031.271-.055.303-.191.004-.019.006-.038.006-.057V1.026c0-.14-.112-.254-.252-.254-.016,0-.032.001-.05.004h-.001Z" fill="url(#uuid-6667057f-93de-44f3-b44d-cb485d6b986c)"/>
  <g>
    <path d="M4.965,13.843V3.08l2.915-.509v11.742l-2.915-.471Z" fill="#a58ad4"/>
    <path d="M1.382,13.09V3.661l2.539-.426v10.37l-2.539-.515Z" fill="#a58ad4"/>
  </g>
  <path d="M17.75,12.484c0,2.393-2.991,4.32-3.641,4.71-.076.045-.172.045-.248,0-.65-.388-3.641-2.317-3.641-4.71v-2.88c.001-.125.105-.226.232-.229,2.326-.061,1.791-1.049,3.534-1.049s1.208.989,3.534,1.049c.127.001.229.104.232.229v2.88Z" fill="url(#uuid-d09db439-4279-4533-9cfd-fed8517d67bb)"/>
  <path d="M17.436,12.507c0,2.193-2.742,3.962-3.34,4.32-.07.042-.157.042-.228,0-.596-.356-3.34-2.125-3.34-4.32v-2.638c0-.115.095-.207.211-.21,2.134-.057,1.642-.964,3.24-.964s1.107.906,3.239.961c.117.001.21.095.211.21l.004,2.641Z" fill="url(#uuid-2fe4edc6-fd68-47e1-b6ee-e356d2d27a7a)"/>
  <path d="M15.501,11.995h-.217v-.752c.001-.356-.131-.7-.372-.961-.118-.128-.261-.232-.42-.302-.159-.07-.331-.106-.506-.106s-.347.036-.506.106c-.159.07-.302.174-.42.302-.244.261-.376.605-.372.961v.754h-.22c-.045,0-.089.018-.121.05-.032.032-.051.074-.053.12v1.957c0,.045.02.089.053.12.032.032.076.05.121.05h3.033c.045,0,.089-.019.121-.05.032-.031.051-.074.052-.12v-1.957c0-.045-.02-.089-.052-.12-.032-.032-.076-.05-.121-.05h0ZM14.679,11.995h-1.384v-.766c.001-.197.08-.385.217-.526.06-.067.133-.12.214-.157.082-.036.171-.055.26-.055s.178.019.26.055.155.09.214.157c.031.034.057.069.082.106.086.124.134.27.137.42l-.003.766h.003Z" fill="#fff"/>
</svg>