<svg xmlns="http://www.w3.org/2000/svg" width="18" height="18" viewBox="0 0 18 18">
  <defs>
    <linearGradient id="ac33b262-25bd-4054-b92d-c119ca8ba381" x1="7.52" y1="10.537" x2="7.52" y2="1.118" gradientUnits="userSpaceOnUse">
      <stop offset="0" stop-color="#005ba1"/>
      <stop offset="1" stop-color="#0078d4"/>
    </linearGradient>
    <linearGradient id="b89d0105-9412-46f5-8f4b-a43c19c5a8a2" x1="10.48" y1="13.244" x2="10.48" y2="3.825" gradientUnits="userSpaceOnUse">
      <stop offset="0" stop-color="#0078d4"/>
      <stop offset="0.817" stop-color="#5ea0ef"/>
    </linearGradient>
    <linearGradient id="aac665ae-8529-4416-94ab-679226734630" x1="10.48" y1="16.882" x2="10.48" y2="13.244" gradientUnits="userSpaceOnUse">
      <stop offset="0.149" stop-color="#ccc"/>
      <stop offset="1" stop-color="#707070"/>
    </linearGradient>
    <linearGradient id="fde5bec4-ee76-4186-bea0-bbc46b24b0dd" x1="10.412" y1="5.266" x2="10.484" y2="11.883" gradientUnits="userSpaceOnUse">
      <stop offset="0" stop-color="#9cebff"/>
      <stop offset="1" stop-color="#50e6ff"/>
    </linearGradient>
  </defs>
  <g id="e24cd088-17c6-4f58-841e-403d92aad633">
    <g>
      <rect x="0.456" y="1.118" width="14.128" height="9.419" rx="0.471" fill="url(#ac33b262-25bd-4054-b92d-c119ca8ba381)"/>
      <g>
        <rect x="3.416" y="3.825" width="14.128" height="9.419" rx="0.471" fill="url(#b89d0105-9412-46f5-8f4b-a43c19c5a8a2)"/>
        <path d="M13.311,16.093c-1.4-.219-1.452-1.227-1.448-2.849H9.092c0,1.622-.051,2.63-1.448,2.849a.822.822,0,0,0-.7.789h7.064A.825.825,0,0,0,13.311,16.093Z" fill="url(#aac665ae-8529-4416-94ab-679226734630)"/>
        <path d="M13.618,11.831H7.342c-.2,0-.318-.319-.205-.484L9.3,8.194a.25.25,0,0,0,.044-.14V5.97a.124.124,0,0,0-.125-.124H9.1A.248.248,0,0,1,8.855,5.6V5.485A.248.248,0,0,1,9.1,5.237h2.753a.248.248,0,0,1,.248.248V5.6a.248.248,0,0,1-.248.248H11.74a.124.124,0,0,0-.125.124V8.059a.25.25,0,0,0,.044.14l2.164,3.148C13.936,11.511,13.818,11.831,13.618,11.831Z" fill="url(#fde5bec4-ee76-4186-bea0-bbc46b24b0dd)"/>
        <path d="M8.064,10.989l1.644-2.4a.6.6,0,0,0,.105-.339V7.289A.191.191,0,0,1,10,7.1h.933a.191.191,0,0,1,.191.191v1.03a.4.4,0,0,0,.071.229l1.678,2.441a.143.143,0,0,1-.118.224H8.182A.143.143,0,0,1,8.064,10.989Z" fill="#fff"/>
      </g>
    </g>
  </g>
</svg>
