<svg xmlns="http://www.w3.org/2000/svg" viewBox="0 0 18 18">
  <defs>
    <linearGradient id="a42878e1-dd01-495f-b74f-212e3ae704bc" x1="6.624" y1="15.273" x2="6.624" y2="0.444" gradientUnits="userSpaceOnUse">
      <stop offset="0" stop-color="#773adc" />
      <stop offset="1" stop-color="#a67af4" />
    </linearGradient>
    <linearGradient id="b1adec8f-e349-4d5e-a1a4-fabc46d46186" x1="8.904" y1="15.273" x2="8.904" y2="0.444" />
    <linearGradient id="b654b8ef-b7a2-47ab-b1ae-0166c09422e6" x1="7.519" y1="15.273" x2="7.519" y2="0.444" />
  </defs>
  <g id="a7fe5ff2-3a8b-410f-a226-c63693749f54">
    <g>
      <g>
        <path d="M12.19.141H1.058A.494.494,0,0,0,.564.635v13.84a.494.494,0,0,0,.494.494H9.035V12.954a.877.877,0,0,1,0-.144.969.969,0,0,1,.369-.661H5.383a.308.308,0,0,1-.307-.307v-.787a.307.307,0,0,1,.307-.307H9.961a3.78,3.78,0,0,1,.191-1.171h-3a.266.266,0,0,1-.265-.266v-.87a.265.265,0,0,1,.265-.265h3.66a.246.246,0,0,1,.1.043c.023-.026.039-.056.062-.081.063-.066.126-.13.19-.189a3.485,3.485,0,0,1,1.515-.809V.635A.5.5,0,0,0,12.19.141Z" fill="url(#a42878e1-dd01-495f-b74f-212e3ae704bc)" />
        <path d="M7.155,8.176a.265.265,0,0,0-.265.265v.87a.266.266,0,0,0,.265.266h3a3.789,3.789,0,0,1,.766-1.358.246.246,0,0,0-.1-.043Z" fill="url(#b1adec8f-e349-4d5e-a1a4-fabc46d46186)" />
        <path d="M7.155,8.176a.265.265,0,0,0-.265.265v.87a.266.266,0,0,0,.265.266h3a3.789,3.789,0,0,1,.766-1.358.246.246,0,0,0-.1-.043Z" fill="#fff" opacity="0.8" />
        <path d="M5.076,11.055v.787a.308.308,0,0,0,.307.307H9.407a.97.97,0,0,1,.551-.223v-1.15c0-.009,0-.018,0-.028H5.383A.307.307,0,0,0,5.076,11.055Z" fill="url(#b654b8ef-b7a2-47ab-b1ae-0166c09422e6)" />
        <path d="M5.076,11.055v.787a.308.308,0,0,0,.307.307H9.407a.97.97,0,0,1,.551-.223v-1.15c0-.009,0-.018,0-.028H5.383A.307.307,0,0,0,5.076,11.055Z" fill="#fff" opacity="0.8" />
      </g>
      <rect x="2.102" y="3.037" width="1.744" height="1.401" rx="0.316" fill="#fff" opacity="0.6" />
      <rect x="5.033" y="3.037" width="6.003" height="1.401" rx="0.306" fill="#fff" opacity="0.8" />
      <rect x="3.929" y="5.609" width="1.751" height="1.401" rx="0.274" fill="#fff" opacity="0.6" />
      <rect x="6.877" y="5.609" width="4.191" height="1.401" rx="0.265" fill="#fff" opacity="0.8" />
      <rect x="3.923" y="8.182" width="1.757" height="1.401" rx="0.274" fill="#fff" opacity="0.6" />
      <rect x="2.132" y="10.754" width="1.744" height="1.401" rx="0.316" fill="#fff" opacity="0.6" />
      <path d="M17.029,12.522h-.493V10.776a3.216,3.216,0,0,0-.861-2.226,2.914,2.914,0,0,0-4.117-.161c-.056.051-.11.106-.162.161a3.211,3.211,0,0,0-.86,2.226v1.746h-.494a.4.4,0,0,0-.43.353.353.353,0,0,0,0,.065v4.525a.394.394,0,0,0,.395.394h7.021a.4.4,0,0,0,.408-.381V12.94a.4.4,0,0,0-.368-.418Zm-1.906,0h-3.2V10.751a1.76,1.76,0,0,1,.5-1.229A1.464,1.464,0,0,1,14.5,9.4h0a1.439,1.439,0,0,1,.123.124,1.938,1.938,0,0,1,.2.245h0a1.726,1.726,0,0,1,.307.972Z" fill="#0078d4" />
      <path d="M10.021,12.522h7a.4.4,0,0,1,.259.1L9.762,17.735a.405.405,0,0,1-.147-.3v-4.5a.4.4,0,0,1,.367-.418Z" fill="#5ea0ef" />
      <path d="M17.029,12.522H10.024a.386.386,0,0,0-.259.1l7.523,5.114a.37.37,0,0,0,.147-.3v-4.5a.4.4,0,0,0-.368-.418Z" fill="#83b9f9" opacity="0.5" />
    </g>
  </g>
</svg>