<svg xmlns="http://www.w3.org/2000/svg" viewBox="0 0 18 18">
  <defs>
    <linearGradient id="eb116c16-6af3-450c-8981-e8f71bfa9a67" x1="6.725" y1="6.381" x2="6.725" y2="17.548" gradientUnits="userSpaceOnUse">
      <stop offset="0" stop-color="#b77af4" />
      <stop offset="0.997" stop-color="#773adc" />
    </linearGradient>
    <linearGradient id="f9b6176c-4223-4977-925a-bab993bfe84c" x1="6.442" y1="0.395" x2="7.258" y2="10.534" gradientUnits="userSpaceOnUse">
      <stop offset="0" stop-color="#b77af4" />
      <stop offset="0.997" stop-color="#773adc" />
    </linearGradient>
  </defs>
  <title>Icon665</title>
  <g id="f31a24e9-cff3-4240-bd17-f07ae8ad2db6">
    <path d="M16.916,10.786a4.022,4.022,0,0,0-2.637-3.641,2.107,2.107,0,1,0-2.261-.018c-1.574.417-2.425,1.725-2.617,3.664a.673.673,0,0,0,.6.738.517.517,0,0,0,.068,0H16.25a.669.669,0,0,0,.671-.667A.529.529,0,0,0,16.916,10.786Z" fill="#773adc" />
    <path d="M13.165,7.47a2.094,2.094,0,0,1-1.142-.337l1.131,2.955,1.123-2.935A2.1,2.1,0,0,1,13.165,7.47Z" fill="#fff" opacity="0.8" />
    <path d="M12.249,15.532a1.2,1.2,0,0,0,1.2-1.191,1.16,1.16,0,0,0-.009-.144c-.47-3.759-2.614-6.82-6.706-6.82-4.163,0-6.31,2.592-6.729,6.83A1.2,1.2,0,0,0,1.2,15.532Z" fill="url(#eb116c16-6af3-450c-8981-e8f71bfa9a67)" />
    <path d="M6.8,8.268a3.75,3.75,0,0,1-2.042-.6l2.021,5.281L8.786,7.7A3.745,3.745,0,0,1,6.8,8.268Z" fill="#fff" opacity="0.8" />
    <circle cx="6.772" cy="4.497" r="3.772" fill="url(#f9b6176c-4223-4977-925a-bab993bfe84c)" />
    <path d="M13.536,12.489a1.176,1.176,0,0,1,.012,2.226,4.235,4.235,0,0,1-3.844,0,1.176,1.176,0,0,1-.011-2.226A4.236,4.236,0,0,1,13.536,12.489Z" fill="#50e6ff" />
    <ellipse cx="11.62" cy="10.967" rx="1.574" ry="2.717" transform="translate(0.62 22.556) rotate(-89.838)" fill="#50e6ff" />
    <path d="M17.828,15.721c-.017.024-.033.048-.051.07s-.033.034-.05.052-.039.04-.06.059-.038.029-.057.043a.819.819,0,0,1-.077.054,1.1,1.1,0,0,1-.117.066l-.02.009a1.417,1.417,0,0,1-.133.053l-.026.009a1.531,1.531,0,0,1-.155.041c-.034.008-.071.013-.107.019s-.062.011-.1.014-.077.006-.116.009-.081.006-.123.006a2.8,2.8,0,0,1-.287-.014l-.084-.01c-.075-.009-.15-.02-.226-.035-.027,0-.054-.009-.081-.015-.047-.01-.094-.023-.141-.035s-.072-.017-.107-.028-.1-.03-.147-.046c-.033-.011-.066-.021-.1-.033-.1-.035-.194-.073-.29-.115l-.089-.042c-.055-.025-.11-.052-.165-.08-.035-.017-.069-.036-.1-.055l-.13-.073c-.036-.021-.071-.043-.106-.065l-.116-.074c-.035-.024-.07-.047-.1-.072s-.074-.053-.111-.08L14.2,15.31l0,0,.009-.021a.937.937,0,0,0,.04-.085c.007-.016.017-.032.023-.049l0-.017c.009-.027.016-.054.023-.081s.012-.037.016-.055l0-.015a.817.817,0,0,0,.009-.085c0-.019.006-.037.007-.056v-.024l0-1.209c0,.026,0,.053-.007.079s0,.057-.01.086-.011.046-.017.069-.014.055-.024.082-.018.044-.028.066a.91.91,0,0,1-.039.084,1.139,1.139,0,0,1-.07.115l-.013.019c-.027.037-.057.074-.089.111l-.018.021a1.529,1.529,0,0,1-.115.112c-.026.024-.055.047-.083.069s-.049.041-.076.06-.064.044-.1.065l-.085.055-.01-.011c-.031-.039-.061-.079-.09-.118l-.046-.062c-.043-.062-.084-.125-.122-.189a1.777,1.777,0,0,1-.261-.8c.058-.021.116-.042.173-.066l.077-.033a2.782,2.782,0,0,0,.256-.129l.033-.02c.025-.015.047-.031.07-.047s.068-.043.1-.065.051-.04.076-.06.058-.046.084-.069l.017-.014c.035-.032.067-.065.1-.1l.018-.021c.018-.021.037-.041.053-.062s.025-.033.036-.05l.014-.018c.021-.031.042-.063.06-.1l.009-.02a.937.937,0,0,0,.04-.085c.007-.016.017-.032.023-.049l0-.017c.009-.027.016-.054.023-.081s.012-.037.016-.055l0-.015a.817.817,0,0,0,.009-.085c0-.019.006-.037.007-.056v-.024l0-1.209c0,.026,0,.053-.006.079s0,.057-.01.086-.011.046-.017.069-.014.055-.024.082-.018.044-.028.066-.024.056-.039.084a1.139,1.139,0,0,1-.07.115l-.013.019c-.027.037-.057.075-.089.111l-.018.021a1.529,1.529,0,0,1-.115.112c-.026.024-.055.046-.083.069s-.049.041-.076.061-.065.043-.1.065-.067.045-.1.066c-.082.047-.168.09-.257.13l-.077.033c-.07.029-.141.056-.214.081-.026.009-.051.018-.078.026-.046.015-.093.028-.14.041l-.106.028c-.05.012-.1.022-.151.032l-.1.021c-.1.018-.205.032-.309.043l-.1.008c-.061.005-.122.01-.183.012l-.118,0h-.149c-.042,0-.083,0-.125,0l-.137-.007-.126-.011-.136-.015-.121-.017-.144-.025-.113-.023L10.5,12.4l-.093-.025c-.1-.03-.2-.062-.291-.1-.047-.018-.092-.038-.137-.058L9.9,12.184c-.068-.032-.135-.067-.2-.1a1.36,1.36,0,0,1-.8-1.121l0,1.21a1.363,1.363,0,0,0,.8,1.121c.064.037.131.071.2.1l.069.03c.041.018.081.037.123.053l.015.006c.095.036.192.069.292.1l.023.008.07.017c.056.015.112.029.169.041l.045.011c.022.005.045.008.067.012.048.009.1.018.145.025.019,0,.038.008.057.01l.064.007.136.016.064.007.061,0c.046,0,.092.006.138.007.023,0,.046,0,.069,0h.055c.05,0,.1,0,.149,0,.025,0,.05,0,.074,0l.044,0c.062,0,.123-.007.184-.012l.074-.005.022,0c.1-.011.208-.025.309-.043l.015,0c.03-.005.058-.012.087-.018.051-.01.1-.02.151-.032l.106-.029.01,0L12.556,14a1.216,1.216,0,0,0,0,1.077l-.035.007c-.034.007-.068.015-.1.021-.1.018-.205.032-.31.043-.032,0-.064.006-.1.008-.061.005-.122.01-.183.013l-.118,0h-.149l-.124,0-.138-.007-.126-.011-.135-.015-.122-.017-.144-.025-.113-.023c-.057-.012-.113-.026-.168-.041l-.094-.025c-.1-.029-.2-.062-.291-.1-.047-.018-.092-.038-.137-.058-.024-.01-.048-.02-.07-.031-.069-.032-.136-.067-.2-.1a1.361,1.361,0,0,1-.8-1.12l0,1.209a1.359,1.359,0,0,0,.8,1.121c.064.037.131.071.2.1.023.011.047.02.07.03.041.018.081.037.123.054l.015,0c.094.037.191.069.291.1l.023.008c.023.007.047.011.07.017.056.015.112.029.169.042l.045.011.068.011c.047.009.1.018.144.025.019,0,.038.008.057.01l.064.008.136.015.064.007.062,0,.137.008c.023,0,.046,0,.069,0s.037,0,.056,0c.05,0,.1,0,.149,0,.024,0,.049,0,.074,0l.044,0q.091,0,.183-.012l.074,0,.023,0c.1-.011.207-.025.309-.043l.015,0,.088-.019c.05-.01.1-.02.15-.032l.107-.029.14-.04.03-.009c.016,0,.032-.012.048-.018.073-.025.144-.052.214-.081l.047-.02c.032.031.064.062.1.092l.034.031.053.044c.037.032.074.063.112.093l.046.037c.016.014.035.025.052.038.036.028.073.054.11.081.018.012.035.026.052.038l.052.033.116.075.058.037.049.027.129.073c.022.012.043.025.065.036l.04.02c.054.028.109.054.165.08l.067.032.021.009c.1.042.193.081.29.115l.014.006c.028.01.057.018.085.027l.147.047.107.027c.047.012.1.025.142.035l.03.007c.017,0,.034,0,.05.008.076.015.152.027.227.036l.083.009c.1.009.193.015.287.015h.039c.029,0,.055,0,.084-.006s.079,0,.117-.008.064-.01.1-.015.072-.011.106-.018l.022,0c.046-.011.09-.024.133-.037l.026-.01c.026-.009.052-.017.077-.027l.056-.026.021-.009a1.012,1.012,0,0,0,.1-.052l.019-.013c.027-.017.051-.036.076-.054s.031-.02.044-.032l.013-.012c.022-.019.041-.039.061-.059s.028-.026.04-.04l.009-.012a.817.817,0,0,0,.051-.069c.011-.016.023-.03.033-.046l.012-.02.6-1.05C17.86,15.678,17.843,15.7,17.828,15.721Z" fill="#32bedd" />
    <path d="M17.731,14.285c.621,1.061.131,1.93-1.091,1.94a4.234,4.234,0,0,1-3.341-1.9c-.621-1.061-.131-1.929,1.092-1.94A4.236,4.236,0,0,1,17.731,14.285Z" fill="#50e6ff" />
  </g>
</svg>