<svg xmlns="http://www.w3.org/2000/svg" viewBox="0 0 18 18">
  <defs>
    <linearGradient id="ead33ee8-58e1-45a2-8e1e-89ee92ed77f5" x1="5.743" y1="17.521" x2="5.743" y2="8.281" gradientUnits="userSpaceOnUse">
      <stop offset="0" stop-color="#773adc" />
      <stop offset="1" stop-color="#a67af4" />
    </linearGradient>
  </defs>
  <path d="M10.674,0h1.342V.727H10.674Zm3.454,0H12.786V.727h1.342ZM6.852,1.031v.235h.727V1.031A.285.285,0,0,1,7.863.746h.09V.02h-.09A1.013,1.013,0,0,0,6.852,1.031Zm0,2.282h.727V1.97H6.852ZM8.561.727H9.9V0H8.561ZM16.987,0H16.9V.727h.089a.286.286,0,0,1,.285.285v.233H18V1.012A1.012,1.012,0,0,0,16.987,0Zm.273,8.543a.285.285,0,0,1-.285.284h-.089v.727h.089a1.012,1.012,0,0,0,1.011-1.011V8.309H17.26Zm.012-5.185H18V2.015h-.726Zm0,4.224H18V6.24h-.726Zm0-2.112H18V4.127h-.726ZM16.244,0H14.9V.727h1.342Zm-.788,9.553h.8V8.827h-.8Z" fill="#a67af4" />
  <path d="M7.469,4.068H8.811V4.8H7.469Zm3.455,0H9.581V4.8h1.343ZM3.648,5.1v.235h.726V5.1a.286.286,0,0,1,.285-.285h.089V4.087H4.659A1.012,1.012,0,0,0,3.648,5.1Zm0,2.281h.727V6.038H3.648ZM5.357,4.8H6.7V4.068H5.357Zm8.426-.727h-.09V4.8h.09a.285.285,0,0,1,.285.284v.234h.726V5.079A1.012,1.012,0,0,0,13.783,4.068Zm.272,8.542a.286.286,0,0,1-.285.285h-.089v.727h.089a1.013,1.013,0,0,0,1.012-1.012v-.234h-.727Zm.013-5.185h.726V6.083h-.726Zm0,4.225h.726V10.307h-.726Zm0-2.113h.726V8.2h-.726ZM13.04,4.068H11.7V4.8H13.04Zm-.918,9.552h.926v-.726h-.926Z" fill="#773adc" />
  <path d="M10.827,8.08H.659A.657.657,0,0,0,0,8.737v8.606A.657.657,0,0,0,.659,18H10.827a.657.657,0,0,0,.657-.657V8.737A.657.657,0,0,0,10.827,8.08Z" fill="url(#ead33ee8-58e1-45a2-8e1e-89ee92ed77f5)" />
  <path d="M5.743,12.71c-2.427,0-4.4-.459-4.44-1.028h0v2.735c0,.578,1.99,1.046,4.444,1.046,2.4,0,4.359-.449,4.44-1.01h0v-.084h0V11.663C10.187,12.241,8.2,12.71,5.743,12.71Z" fill="#b796f9" />
  <ellipse cx="5.743" cy="11.663" rx="4.444" ry="1.046" fill="#fff" opacity="0.8" />
</svg>