<svg xmlns="http://www.w3.org/2000/svg" width="18" height="18" viewBox="0 0 18 18">
  <defs>
    <linearGradient id="b3531144-e4bb-41e6-9a8f-fa7bbec64ef2" x1="6.708" y1="15.452" x2="6.708" y2="0.663" gradientUnits="userSpaceOnUse">
      <stop offset="0" stop-color="#005ba1"/>
      <stop offset="1" stop-color="#0078d4"/>
    </linearGradient>
    <linearGradient id="aa1b7f06-0ca8-4ba9-9eaf-fe454f4a95c7" x1="12.806" y1="8.738" x2="12.9" y2="17.404" gradientUnits="userSpaceOnUse">
      <stop offset="0" stop-color="#50e6ff"/>
      <stop offset="1" stop-color="#32bedd"/>
    </linearGradient>
  </defs>
  <g id="e71bf534-a29c-437f-833f-10f7d6d87591">
    <g>
      <rect x="0.669" y="0.663" width="12.078" height="14.789" rx="0.493" fill="url(#b3531144-e4bb-41e6-9a8f-fa7bbec64ef2)"/>
      <path d="M10.912,4.233H5.2A.131.131,0,0,1,5.065,4.1v-.43A.131.131,0,0,1,5.2,3.543h5.716a.131.131,0,0,1,.131.131V4.1a.131.131,0,0,1-.13.131Zm-6.73.416V3.128a.263.263,0,0,0-.263-.263H2.4a.262.262,0,0,0-.262.262h0V4.649a.262.262,0,0,0,.261.263H3.919a.263.263,0,0,0,.263-.263Z" fill="#fff"/>
      <path d="M10.912,8.372H5.2a.132.132,0,0,1-.132-.131h0V7.811A.131.131,0,0,1,5.2,7.68h5.716a.131.131,0,0,1,.131.131v.428a.133.133,0,0,1-.131.133ZM3.788,7.4H2.528V8.656h1.26V7.4m.131-.394a.263.263,0,0,1,.263.263V8.787a.263.263,0,0,1-.263.263H2.4a.264.264,0,0,1-.263-.263V7.265A.264.264,0,0,1,2.4,7Z" fill="#fff" opacity="0.8"/>
      <path d="M10.912,12.509H5.2a.131.131,0,0,1-.131-.131V11.95a.132.132,0,0,1,.131-.132h5.715a.132.132,0,0,1,.132.132v.428A.131.131,0,0,1,10.912,12.509Zm-7.124-.975H2.528v1.26h1.26v-1.26m.131-.393a.262.262,0,0,1,.263.262v1.522a.263.263,0,0,1-.263.263H2.4a.264.264,0,0,1-.263-.263V11.4a.263.263,0,0,1,.263-.262Z" fill="#fff" opacity="0.6"/>
      <path d="M17.005,17.337H8.784c-.262,0-.416-.419-.268-.634l2.833-4.13a.325.325,0,0,0,.057-.184V9.66a.163.163,0,0,0-.162-.163h-.153a.326.326,0,0,1-.325-.325V9.025a.325.325,0,0,1,.325-.325H14.7a.325.325,0,0,1,.325.325v.147A.326.326,0,0,1,14.7,9.5h-.152a.163.163,0,0,0-.163.163V12.4a.328.328,0,0,0,.057.184L17.273,16.7C17.421,16.918,17.267,17.337,17.005,17.337Z" fill="url(#aa1b7f06-0ca8-4ba9-9eaf-fe454f4a95c7)"/>
      <path d="M9.731,16.234,11.883,13.1a.785.785,0,0,0,.138-.445V11.387a.25.25,0,0,1,.251-.25h1.221a.25.25,0,0,1,.25.25v1.35a.524.524,0,0,0,.093.3l2.2,3.2a.187.187,0,0,1-.154.294h-6A.187.187,0,0,1,9.731,16.234Z" fill="#fff"/>
    </g>
  </g>
</svg>
