<svg xmlns="http://www.w3.org/2000/svg" viewBox="0 0 18 18">
  <defs>
    <linearGradient id="f6e6fd6e-6add-46ce-ac4b-3b839ce54307" x1="9" y1="14.438" x2="9" y2="1.653" gradientUnits="userSpaceOnUse">
      <stop offset="0" stop-color="#0078d4" />
      <stop offset="1" stop-color="#5ea0ef" />
    </linearGradient>
  </defs>
  <g id="ad273028-4055-42c5-a15f-bb65086038e6">
    <path d="M18,10.415a4.044,4.044,0,0,0-3.51-3.887A5.1,5.1,0,0,0,9.24,1.653a5.229,5.229,0,0,0-5,3.408A4.825,4.825,0,0,0,0,9.7a4.9,4.9,0,0,0,5.068,4.707c.77,0,8.18.088,8.871-.052A4.093,4.093,0,0,0,18,10.415Z" fill="url(#f6e6fd6e-6add-46ce-ac4b-3b839ce54307)" />
    <path d="M8.85,8.447c.162-.279.364-.531.506-.774a.165.165,0,0,1,.224-.059l.1.06,1.532.9a.164.164,0,0,0,.241-.183L10.3,3.98a.165.165,0,0,0-.2-.118L5.694,5.015a.164.164,0,0,0-.041.3l1.532.9.1.06a.163.163,0,0,1,.058.224L6.99,7.1l-.006.022-.02.034c-1.34,2.287-2.346,4.968-2.185,7.225,0,0-.011.016.018.02.063.008.2.007.271.007.226,0,1.031.007,2.064.014A10.823,10.823,0,0,1,8.85,8.447Z" fill="#c8f3ff" />
  </g>
  <metadata>
    <rdf:RDF xmlns:rdf="http://www.w3.org/1999/02/22-rdf-syntax-ns#">
      <rdf:li>public:true</rdf:li>
      <rdf:li>sdk:false</rdf:li>
      <rdf:li>category:Management + Governance</rdf:li>
    </rdf:RDF>
  </metadata>
</svg>