<svg xmlns="http://www.w3.org/2000/svg" viewBox="0 0 18 18">
  <defs>
    <linearGradient id="a44ff096-706f-4559-b460-8e06494f1ce5" x1="9" y1="-0.397" x2="9" y2="16.566" gradientUnits="userSpaceOnUse">
      <stop offset="0" stop-color="#ffb34d" />
      <stop offset="1" stop-color="#faa21d" />
    </linearGradient>
  </defs>
  <g id="a9d2c76c-926a-4ffe-a408-0d485beb4851">
    <path d="M7.1,8.105a5.3,5.3,0,0,0-.39-.54l1.9-.82v3.92l-.78-.4A5.649,5.649,0,0,0,7.1,8.105Zm.54,5.17a.149.149,0,0,1-.09-.02l-3.37-1.72v1.11l4.71,2.41v-3.28L7.81,13.2A.214.214,0,0,1,7.64,13.275Zm4.34-3.84,1.75-.89-1.83-.8c-.2.24-.39.48-.56.73a4.664,4.664,0,0,0-.57,1.58Zm-4.95.42a4.331,4.331,0,0,0-.52-1.38,7.106,7.106,0,0,0-.46-.62l-1.59.69.98.5Zm9.84-5.07v8.43a.543.543,0,0,1-.28.49l-7.3,4.22a.579.579,0,0,1-.57,0l-7.3-4.22a.552.552,0,0,1-.29-.49V4.785a.564.564,0,0,1,.29-.49L8.72.075a.579.579,0,0,1,.57,0l7.3,4.22A.554.554,0,0,1,16.87,4.785Zm-1.02,5.54L14.39,8.4c0-.01-.01-.01-.02-.02s-.02-.03-.04-.04h-.01l-.01-.01-2.12-.92c.27-.28.56-.56.87-.85l.5.54a.271.271,0,0,0,.47-.16l.19-1.7a.283.283,0,0,0-.29-.31l-1.7.08a.276.276,0,0,0-.19.47l.54.58c-.38.35-.74.7-1.07,1.06l-2.16-.94V3.275h.74a.276.276,0,0,0,.21-.46L9.19,1.525a.275.275,0,0,0-.42,0L7.66,2.815a.276.276,0,0,0,.21.46h.74v3.01l-2.18.95a14.193,14.193,0,0,0-1.16-1.17l.55-.58a.282.282,0,0,0-.2-.47l-1.7-.08a.283.283,0,0,0-.29.31l.19,1.7a.277.277,0,0,0,.48.16l.5-.54c.34.33.67.64.96.96l-1.88.81a.01.01,0,0,1-.01.01H3.86c-.02.01-.03.03-.04.04s-.01.01-.02.02l-1.45,1.92a.209.209,0,0,0-.04.17.177.177,0,0,0,.11.14l1.34.69v1.45a.2.2,0,0,0,.11.19L9,15.585a.3.3,0,0,0,.1.02.292.292,0,0,0,.09-.02l5.13-2.62a.2.2,0,0,0,.11-.19v-1.45l1.34-.69a.177.177,0,0,0,.11-.14A.2.2,0,0,0,15.85,10.325Zm-5.09-2.22a5.959,5.959,0,0,1,.47-.65l-1.88-.81v4.13l.65-.33A5.713,5.713,0,0,1,10.76,8.105Zm-.21,5.17a.2.2,0,0,1-.17-.09l-.02-.01-1.05-1.4v3.28l4.7-2.41v-1.11l-3.36,1.72A.18.18,0,0,1,10.55,13.275Z" fill="url(#a44ff096-706f-4559-b460-8e06494f1ce5)" />
  </g>
</svg>