<svg xmlns="http://www.w3.org/2000/svg" width="18" height="18" viewBox="0 0 18 18">
  <defs>
    <linearGradient id="a7178247-5031-482c-befe-1a60c1a2639b" x1="9.165" y1="788.636" x2="8.896" y2="777.834" gradientTransform="matrix(1, 0, 0, -1, 0, 791.516)" gradientUnits="userSpaceOnUse">
      <stop offset="0" stop-color="#5ea0ef"/>
      <stop offset="1" stop-color="#0078d4"/>
    </linearGradient>
  </defs>
  <g id="ba5240ae-6f9b-4b26-843b-f2c90836ded1">
    <rect x="4.173" y="4.171" width="2.681" height="0.536" rx="0.113" fill="#fff"/>
    <path d="M8.97,15.467l-1.83-1.84a.1.1,0,0,0-.14-.01l-.01.01v1.41H2.37a1.415,1.415,0,0,1,0-2.83H4.93a5.743,5.743,0,0,0,.18-.95H2.37a2.38,2.38,0,0,0,0,4.76H6.96v1.41a.1.1,0,0,0,.14.01.01.01,0,0,0,.01-.01L8.97,15.6A.085.085,0,0,0,8.97,15.467ZM18,4.369a2.384,2.384,0,0,1-2.379,2.379H13.605V5.8l1.575-.009h.441a1.415,1.415,0,0,0,0-2.83H11.01v1.42H11a.1.1,0,0,1-.14,0L9.03,2.53a.076.076,0,0,1,0-.121L10.89.569s.01,0,.01-.009a.106.106,0,0,1,.14.009V1.99h4.581A2.378,2.378,0,0,1,18,4.369Zm-3.1.618V13h0a.275.275,0,0,1-.276.275H3.376A.275.275,0,0,1,3.1,13V3.918h0a.276.276,0,0,1,.276-.275H7.7a.273.273,0,0,1,.153.047l1.47.977a.267.267,0,0,0,.153.046h5.146A.275.275,0,0,1,14.9,4.987Z" fill="#005ba1"/>
    <rect x="4.173" y="4.171" width="2.681" height="0.536" rx="0.113" fill="#fff"/>
    <rect x="4.173" y="4.169" width="0.54" height="0.54" rx="0.117" fill="#50e6ff"/>
    <path d="M14.623,4.7H8.971a.276.276,0,0,0-.2.081l-.908.909a.278.278,0,0,1-.2.081H3.377a.274.274,0,0,0-.276.274h0V12.99a.274.274,0,0,0,.276.274H14.623a.274.274,0,0,0,.276-.274h0V4.976a.275.275,0,0,0-.275-.276Z" fill="url(#a7178247-5031-482c-befe-1a60c1a2639b)"/>
    <path d="M9.612,11.229c-.44,0-.881,0-1.322,0a.226.226,0,0,1-.207-.288c.154-.5.3-.995.452-1.492.014-.048.011-.071-.035-.1A.838.838,0,0,1,8.083,8.5a.817.817,0,0,1,.563-.714A.874.874,0,0,1,9.39,9.359l-.043.026c.122.4.242.8.362,1.2.036.122.074.243.109.366A.214.214,0,0,1,9.612,11.229Z" fill="#005ba1"/>
  </g>
</svg>
