<svg xmlns="http://www.w3.org/2000/svg" width="18" height="18" viewBox="0 0 18 18">
  <g id="ec81304f-be50-4b2b-b479-ef9efa82a547">
    <g>
      <g>
        <path d="M7.366,16.412l1.589,1.566a.083.083,0,0,0,.112,0l1.574-1.566a.082.082,0,0,0,0-.116.079.079,0,0,0-.063-.026H9.664a.082.082,0,0,1-.082-.082V12.305a.076.076,0,0,0-.075-.075H8.515a.075.075,0,0,0-.1.026.079.079,0,0,0-.01.027v3.883a.075.075,0,0,1-.067.081h-.91a.087.087,0,0,0-.112.052A.088.088,0,0,0,7.366,16.412Z" fill="#50e6ff"/>
        <path d="M15.139,17.422l2.231-.016a.081.081,0,0,0,.079-.079l.006-2.22a.083.083,0,0,0-.08-.085.08.08,0,0,0-.063.027l-.649.648a.082.082,0,0,1-.116,0l-3.309-3.309a.074.074,0,0,0-.105,0l-.006.006-.7.7a.075.075,0,0,0-.054.091.058.058,0,0,0,.012.025l3.309,3.31a.075.075,0,0,1,.011.105l0,.006-.639.638a.087.087,0,0,0,.074.158Z" fill="#50e6ff"/>
        <path d="M2.861,17.422.63,17.406a.082.082,0,0,1-.079-.079L.545,15.106a.083.083,0,0,1,.143-.058l.649.649a.082.082,0,0,0,.116,0l3.309-3.309a.074.074,0,0,1,.105,0l.006.006.7.7a.075.075,0,0,1,.054.091.058.058,0,0,1-.012.025L2.3,16.515a.075.075,0,0,0-.011.105l0,0,.639.639a.087.087,0,0,1-.074.158Z" fill="#50e6ff"/>
        <g id="aa105341-7184-45c9-b2af-85ad35247185">
          <g>
            <path d="M17.448,5.212v7.545a.639.639,0,0,1-.652.625H1.2a.637.637,0,0,1-.652-.625V5.208A.636.636,0,0,1,1.2,4.587H5.839a.141.141,0,0,1,.134.174.585.585,0,0,0-.011.126.552.552,0,0,0,.165.381L8.688,7.815l.018.019a.562.562,0,0,0,.369.142h.019a.562.562,0,0,0,.369-.142l.01-.009,2.559-2.548a.555.555,0,0,0,.164-.524.137.137,0,0,1,.135-.166H16.8A.637.637,0,0,1,17.448,5.212Z" fill="#821010"/>
            <rect x="9.388" y="8.079" width="4.632" height="1.778" rx="0.085" fill="#e62323"/>
            <rect x="1.546" y="8.079" width="1.886" height="1.778" rx="0.085" fill="#e62323"/>
            <rect x="4.134" y="8.079" width="4.568" height="1.778" rx="0.085" fill="#ff7381"/>
            <rect x="14.722" y="8.079" width="1.902" height="1.778" rx="0.085" fill="#ff7381"/>
          </g>
        </g>
      </g>
      <path d="M16.624,10.627v1.748a.085.085,0,0,1-.085.085l-4.4.03a.083.083,0,0,1-.085-.084V10.627a.085.085,0,0,1,.085-.085h4.4A.085.085,0,0,1,16.624,10.627Z" fill="#e62323"/>
      <rect x="1.546" y="10.542" width="4.568" height="1.949" rx="0.085" fill="#e62323"/>
      <rect x="1.546" y="5.46" width="4.568" height="1.964" rx="0.085" fill="#e62323"/>
      <rect x="6.8" y="10.542" width="4.57" height="1.949" rx="0.085" fill="#ff7381"/>
      <rect x="12.118" y="5.459" width="4.569" height="1.965" rx="0.085" fill="#e62323"/>
      <path d="M11.744,4.969,9.183,7.517a.153.153,0,0,1-.2,0L6.425,4.969a.135.135,0,0,1,0-.188.137.137,0,0,1,.1-.043H8.016a.132.132,0,0,0,.132-.132s0-3.212,0-4.311A.3.3,0,0,1,8.444,0H9.725a.3.3,0,0,1,.295.3c0,1.1,0,4.311,0,4.311a.132.132,0,0,0,.132.132h1.492a.137.137,0,0,1,.1.043A.135.135,0,0,1,11.744,4.969Z" fill="#767676"/>
    </g>
  </g>
</svg>
