<svg xmlns="http://www.w3.org/2000/svg" width="18" height="18" viewBox="0 0 18 18">
  <defs>
    <linearGradient id="f5646f5a-33b3-49ab-8724-fd7db61be8a3" x1="-2616.405" y1="1421.47" x2="-2623.437" y2="1421.47" gradientTransform="matrix(0, 1, 1, 0, -1414.342, 2628.79)" gradientUnits="userSpaceOnUse">
      <stop offset="0" stop-color="#773adc"/>
      <stop offset="1" stop-color="#a67af4"/>
    </linearGradient>
  </defs>
  <path d="M5.991,1.581H7.255V5.113a.28.28,0,0,1-.28.28H5.711a.28.28,0,0,1-.28-.28h0V2.141A.559.559,0,0,1,5.991,1.581Z" fill="#999"/>
  <path d="M5.991,1.581H7.255V5.113a.28.28,0,0,1-.28.28H5.711a.28.28,0,0,1-.28-.28h0V2.141A.559.559,0,0,1,5.991,1.581Z" fill="#999" opacity="0.5"/>
  <path d="M16.175,1.581H17.44a.56.56,0,0,1,.56.56h0V14.318a.28.28,0,0,1-.28.28H16.456a.28.28,0,0,1-.281-.28h0V1.581Z" fill="#999"/>
  <path d="M16.175,1.581H17.44a.56.56,0,0,1,.56.56h0V14.318a.28.28,0,0,1-.28.28H16.456a.28.28,0,0,1-.281-.28h0V1.581Z" fill="#999" opacity="0.5"/>
  <path d="M18,2.136V3.363H5.431V2.136a.554.554,0,0,1,.555-.555H17.441A.554.554,0,0,1,18,2.132Z" fill="#949494"/>
  <path d="M5.711,12.606H6.976a.28.28,0,0,1,.28.28h0v3.532H5.991a.559.559,0,0,1-.56-.56h0V12.886a.28.28,0,0,1,.28-.28Z" fill="#999"/>
  <path d="M5.711,12.606H6.976a.28.28,0,0,1,.28.28h0v3.532H5.991a.559.559,0,0,1-.56-.56h0V12.886a.28.28,0,0,1,.28-.28Z" fill="#999" opacity="0.5"/>
  <path d="M16.456,12.606H17.72a.28.28,0,0,1,.28.28h0v2.973a.56.56,0,0,1-.56.56H16.175V12.886a.28.28,0,0,1,.281-.28Z" fill="#999"/>
  <path d="M16.456,12.606H17.72a.28.28,0,0,1,.28.28h0v2.973a.56.56,0,0,1-.56.56H16.175V12.886a.28.28,0,0,1,.281-.28Z" fill="#999" opacity="0.5"/>
  <path d="M5.431,15.863V14.636H18v1.227a.555.555,0,0,1-.555.555H5.986a.554.554,0,0,1-.555-.555Z" fill="#949494"/>
  <path d="M10.949,5.4l3.2,3.2a.381.381,0,0,1,0,.538h0l-3.2,3.2a.17.17,0,0,1-.291-.121V10.249a.17.17,0,0,0-.169-.171H.136A.134.134,0,0,1,0,9.945V7.8A.134.134,0,0,1,.135,7.66H10.488a.17.17,0,0,0,.17-.17h0V5.522a.17.17,0,0,1,.291-.118Z" fill="url(#f5646f5a-33b3-49ab-8724-fd7db61be8a3)"/>
</svg>
