<svg id="uuid-d3f71786-dcc6-4c41-adc1-ae76c2566bd3" xmlns="http://www.w3.org/2000/svg" width="18" height="18" viewBox="0 0 18 18">
  <defs>
    <linearGradient id="uuid-f235797b-e45c-48cf-abd1-0c57a9d3b065" x1="-377" y1="465.861" x2="-377" y2="455.308" gradientTransform="translate(386 469.032) scale(1 -1)" gradientUnits="userSpaceOnUse">
      <stop offset="0" stop-color="#a67af4"/>
      <stop offset="1" stop-color="#773adc"/>
    </linearGradient>
  </defs>
  <g>
    <path d="M17.972,13.681c-.169.735-1.087,1.46-2.747,2.024-4.153,1.221-8.569,1.227-12.725.018C.97,15.179.145,14.491.015,13.786-.007,13.662.015,11.722.015,11.722l17.985-.167s-.008,2.031-.028,2.126Z" fill="#5ea0ef"/>
    <ellipse cx="9" cy="11.681" rx="9" ry="3.112" transform="translate(-.117 .091) rotate(-.575)" fill="#50e6ff"/>
  </g>
  <g>
    <path d="M14.939,2.504h-5.433c-.058.002-.114-.017-.16-.052l-1.556-1.033c-.049-.029-.105-.044-.161-.044H3.06c-.159,0-.29.127-.293.287v9.605c.003.159.134.287.293.287h11.878c.16,0,.29-.127.294-.287V2.797c0-.162-.131-.293-.293-.293h0Z" fill="#773adc"/>
    <path d="M14.939,2.489h-5.939c-.079-.003-.156.031-.208.091l-.988.951c-.057.051-.131.079-.208.08H3.06c-.162,0-.293.132-.293.294h0v7.332c.004.159.134.286.293.287h11.878c.16,0,.29-.127.294-.287V2.8c.008-.159-.113-.296-.272-.308l-.022-.003Z" fill="url(#uuid-f235797b-e45c-48cf-abd1-0c57a9d3b065)"/>
  </g>
  <g>
    <path d="M7.067,9.338c-.125,0-.243-.075-.293-.197l-1.3-3.183c-.066-.162.011-.347.173-.413.161-.066.347.012.413.173l1.3,3.183c.066.162-.011.347-.173.413-.039.016-.08.024-.12.024Z" fill="#fff"/>
    <circle cx="10.255" cy="9.021" r=".38" fill="#fff"/>
    <circle cx="11.853" cy="9.021" r=".38" fill="#fff"/>
    <circle cx="8.657" cy="9.021" r=".38" fill="#fff"/>
  </g>
</svg>