<svg xmlns="http://www.w3.org/2000/svg" width="18" height="18" viewBox="0 0 18 18">
  <defs>
    <linearGradient id="b4c5c502-e1d0-4c15-8918-1e90784bf808" x1="13.681" y1="18" x2="13.681" y2="10.486" gradientUnits="userSpaceOnUse">
      <stop offset="0.001" stop-color="#773adc"/>
      <stop offset="1" stop-color="#a67af4"/>
    </linearGradient>
    <linearGradient id="a93ea640-0ce0-4bd8-8c2d-80c93b8fb77e" x1="7.46" x2="7.46" y2="16.894" gradientUnits="userSpaceOnUse">
      <stop offset="0.183" stop-color="#5ea0ef"/>
      <stop offset="1" stop-color="#0078d4"/>
    </linearGradient>
  </defs>
  <g id="a70f0257-6ae3-4edf-b210-e28c7da22f52">
    <g>
      <path d="M14.139,5.438,8.81.126V4.454a.977.977,0,0,0,.97.984h4.359Z" fill="#0078d4"/>
      <path d="M9.468,14.243a4.218,4.218,0,0,1,4.213-4.213,4.152,4.152,0,0,1,.572.04V5.938a.568.568,0,0,0-.563-.569H9.555A.567.567,0,0,1,8.992,4.8V.7A.564.564,0,0,0,8.434.126H1.23A.568.568,0,0,0,.662.694h0V16.2a.568.568,0,0,0,.567.569h9.082A4.191,4.191,0,0,1,9.468,14.243Z" fill="#fff"/>
      <rect x="2.767" y="7.692" width="9.385" height="1.259" rx="0.566" fill="#5ea0ef"/>
      <rect x="2.767" y="12.203" width="5.915" height="1.259" rx="0.566" fill="#5ea0ef"/>
      <circle cx="13.681" cy="14.243" r="3.757" fill="url(#b4c5c502-e1d0-4c15-8918-1e90784bf808)"/>
      <path d="M9.872,16.042H1.413V.852H8.158V4.746a1.43,1.43,0,0,0,1.426,1.43h3.923v3.858c.058,0,.116,0,.174,0a4.189,4.189,0,0,1,.677.055V5.9a.576.576,0,0,0-.576-.577h-4.2a.576.576,0,0,1-.575-.577h0V.577A.577.577,0,0,0,8.433,0H1.138A.576.576,0,0,0,.562.576h0v15.74a.576.576,0,0,0,.575.577H10.41A4.183,4.183,0,0,1,9.872,16.042Z" fill="url(#a93ea640-0ce0-4bd8-8c2d-80c93b8fb77e)"/>
      <path d="M12.119,10.331a.564.564,0,0,0-.533-.383H3.333a.566.566,0,0,0-.566.566v.126a.566.566,0,0,0,.566.566h7.432A4.25,4.25,0,0,1,12.119,10.331Z" fill="#5ea0ef"/>
      <g>
        <path d="M11.8,11.878a.265.265,0,0,0-.375.375l1.428,1.427-1.031,1.031a.586.586,0,0,0-.154.266l-.311,1.139a.26.26,0,0,0,.045.23.264.264,0,0,0,.21.105.242.242,0,0,0,.07-.01l1.139-.31a.6.6,0,0,0,.266-.155l1.031-1.03,1.427,1.427A.265.265,0,1,0,15.92,16Zm-.188,4.475a.2.2,0,0,1-.026-.006.15.15,0,0,0,.07,0A.172.172,0,0,1,11.612,16.353Zm1.1-.751a.087.087,0,0,1-.031.018l-.692.188.189-.692a.062.062,0,0,1,.018-.03l1.03-1.031.516.516Z" fill="#fff"/>
        <path d="M13.63,13.513l.069.07.07-.07.572-.572.516.516-.572.573-.069.069.069.069.236.236.069.069.069-.069,1.094-1.093a.895.895,0,1,0-1.265-1.266l-1.094,1.094-.069.069.069.069Zm2.054-1.4a.811.811,0,0,0-.264-.175A.811.811,0,0,1,15.684,12.114Zm-.564.2a.365.365,0,0,1,.258.623l-.147.147-.516-.516.147-.147A.363.363,0,0,1,15.12,12.313Zm-.327.038-.216.216h0Z" fill="#fff"/>
      </g>
    </g>
  </g>
</svg>
