<svg viewBox="0 0 18 18" xmlns="http://www.w3.org/2000/svg">
  <path fill-rule="evenodd" clip-rule="evenodd" d="M8.62506 13.7308C11.5564 13.7308 13.9327 11.3889 13.9327 8.5C13.9327 5.61112 11.5564 3.26923 8.62506 3.26923C5.69371 3.26923 3.31738 5.61112 3.31738 8.5C3.31738 11.3889 5.69371 13.7308 8.62506 13.7308ZM8.62506 11.7692C10.4572 11.7692 11.9424 10.3055 11.9424 8.5C11.9424 6.69444 10.4572 5.23075 8.62506 5.23075C6.79297 5.23075 5.30776 6.69444 5.30776 8.5C5.30776 10.3055 6.79297 11.7692 8.62506 11.7692Z" fill="#82BBFF" />
  <path fill-rule="evenodd" clip-rule="evenodd" d="M13.3072 15.6036C11.8902 16.5143 10.2268 17 8.56343 17C3.88125 17 0 13.2357 0 8.62144C0 7.71068 0.123215 6.86071 0.43125 6.01071L2.21786 6.49643C1.04732 9.95712 2.95715 13.6607 6.46875 14.8143C7.14643 15.0571 7.88573 15.1786 8.625 15.1786C12.383 15.1786 15.4018 12.1429 15.4018 8.37856C15.4018 7.10357 15.0322 5.88929 14.3545 4.79643C13.1223 2.91429 10.9661 1.76071 8.68658 1.82143C7.51605 1.82143 6.34553 2.125 5.29822 2.73214L8.00895 6.8C8.74823 6.55714 9.61073 6.8 10.042 7.46788C10.5348 8.25712 10.35 9.28932 9.54908 9.83568C8.74823 10.3821 7.63928 10.1393 7.14643 9.35C6.77678 8.80356 6.77678 8.075 7.14643 7.52856L3.32678 1.82143L4.3125 1.21429C5.66786 0.425 7.14643 0 8.74823 0C11.6438 0 14.3545 1.45714 15.9563 3.825C18.4822 7.77144 17.3116 13.0536 13.3072 15.6036Z" fill="url(#ae66dc81-f16f-483e-aeb0-575712d56e08)" />
  <path d="M3.98074 9.15384C5.08 9.15384 5.97112 10.0321 5.97112 11.1154C5.97112 12.1988 5.08 13.0769 3.98074 13.0769C2.88148 13.0769 1.99036 12.1988 1.99036 11.1154C1.99036 10.0321 2.88148 9.15384 3.98074 9.15384Z" fill="url(#c605d4ff-5d98-41fb-b04d-80d43efc41aa)" />
  <defs>
    <linearGradient id="ae66dc81-f16f-483e-aeb0-575712d56e08" x1="8.625" y1="-1.46926e-08" x2="8.32584" y2="16.6966" gradientUnits="userSpaceOnUse">
      <stop stop-color="#5EA0F0" />
      <stop offset="1" stop-color="#0078D4" />
    </linearGradient>
    <linearGradient id="c605d4ff-5d98-41fb-b04d-80d43efc41aa" x1="3.98074" y1="9.16448" x2="3.98074" y2="13.0663" gradientUnits="userSpaceOnUse">
      <stop stop-color="#F4CF97" />
      <stop offset="1" stop-color="#EEAA45" />
    </linearGradient>
  </defs>
</svg>