<svg xmlns="http://www.w3.org/2000/svg" width="18" height="18" viewBox="0 0 18 18">
  <defs>
    <linearGradient id="f88897af-19cf-4485-a3f4-e4b67e910b9b" x1="-46.536" y1="151.979" x2="-46.536" y2="172.204" gradientTransform="translate(55.536 -152.952)" gradientUnits="userSpaceOnUse">
      <stop offset="0.267" stop-color="#5ea0ef"/>
      <stop offset="1" stop-color="#0078d4"/>
    </linearGradient>
  </defs>
  <g id="b6adc379-cb36-4f44-853d-f93be9357798">
    <path d="M4.034,0a.79.79,0,0,1,.372.372c.476.84.954,1.679,1.424,2.523.209.376.4.761.6,1.145a1.5,1.5,0,0,1,.1.295.543.543,0,0,1-.142.531,1.2,1.2,0,0,1-.11.1C5.662,5.46,5.1,6.01,4.543,6.557a.651.651,0,0,0-.253.5.945.945,0,0,0,.079.345A13.185,13.185,0,0,0,6.51,10.692a12.041,12.041,0,0,0,3.6,2.7c.116.056.225.125.342.18a1.731,1.731,0,0,0,.314.126.6.6,0,0,0,.6-.174c.2-.2.4-.393.589-.6.362-.393.717-.792,1.073-1.191a.624.624,0,0,1,.48-.261.982.982,0,0,1,.267.049,5.1,5.1,0,0,1,.932.451q1.415.8,2.823,1.6a3.268,3.268,0,0,1,.275.182.429.429,0,0,1,.184.355.7.7,0,0,0,.015.1l-.044.489a.615.615,0,0,0-.029.089,5.585,5.585,0,0,1-.285,1.015,3.2,3.2,0,0,1-1.182,1.54,3.81,3.81,0,0,1-1.814.636,7.323,7.323,0,0,1-2.084-.105,12.034,12.034,0,0,1-2.04-.568,17.988,17.988,0,0,1-1.771-.794A13.648,13.648,0,0,1,6.6,15.194a19.912,19.912,0,0,1-2.418-2.189,16.808,16.808,0,0,1-1.892-2.348,16.156,16.156,0,0,1-.9-1.606A13.686,13.686,0,0,1,.213,5.808a7.926,7.926,0,0,1-.2-2.171A.871.871,0,0,0,0,3.524l.014-.15c.011-.049.023-.1.033-.146C.1,3,.13,2.763.2,2.537A3.186,3.186,0,0,1,1.744.556,4.864,4.864,0,0,1,3.416.027c.142-.022.286-.03.43-.044Z" fill="url(#f88897af-19cf-4485-a3f4-e4b67e910b9b)"/>
  </g>
</svg>
