<svg xmlns="http://www.w3.org/2000/svg" width="16" height="16" viewBox="0 0 16 16">
  <path d="M14,12v1H10a2.408,2.408,0,0,1-.2.8l-.4.6-.6.4L8,15l-.8-.2-.6-.4-.4-.6A2.408,2.408,0,0,1,6,13H2V12H3V6a5.9,5.9,0,0,1,.2-1.3,6.06,6.06,0,0,1,.5-1.2,3.907,3.907,0,0,1,.8-1,3.907,3.907,0,0,1,1-.8l1.2-.5L8,1l1.3.2,1.2.5a3.907,3.907,0,0,1,1,.8,3.907,3.907,0,0,1,.8,1,6.06,6.06,0,0,1,.5,1.2A5.9,5.9,0,0,1,13,6v6Zm-2,0V6a4.514,4.514,0,0,0-.3-1.6,2.705,2.705,0,0,0-.9-1.2,2.705,2.705,0,0,0-1.2-.9,4.4,4.4,0,0,0-3.2,0,2.705,2.705,0,0,0-1.2.9,2.705,2.705,0,0,0-.9,1.2A4.514,4.514,0,0,0,4,6v6ZM8,14h.4l.3-.2.2-.3A.7.7,0,0,0,9,13H7a.6.6,0,0,0,.1.4l.2.3.3.2Z"/>
</svg>
