<svg id="uuid-e0d422c2-5b08-43cc-a41f-a7dd98313361" xmlns="http://www.w3.org/2000/svg" width="16" height="16" viewBox="0 0 16 16">
  <circle cx="13.333" cy="2.667" r="2.667"/>
  <path d="M3.167,10.715V5.285c1.234-.234,2.167-1.317,2.167-2.618,0-1.473-1.194-2.667-2.667-2.667S0,1.194,0,2.667c0,1.302,.933,2.384,2.167,2.618v5.43c-1.234,.234-2.167,1.317-2.167,2.618,0,1.473,1.194,2.667,2.667,2.667s2.667-1.194,2.667-2.667c0-1.302-.933-2.384-2.167-2.618Zm-.5,4.285c-.919,0-1.667-.748-1.667-1.667s.748-1.667,1.667-1.667,1.667,.748,1.667,1.667-.748,1.667-1.667,1.667Z"/>
  <path d="M6.572,5.749l.75,.75c.023,.023,.055,.037,.088,.037h2.05l-3.968,3.968c-.098,.098-.098,.256,0,.354l.346,.346c.098,.098,.256,.098,.354,0l3.968-3.968v2.05c0,.033,.013,.065,.037,.088l.75,.75c.079,.079,.214,.023,.214-.088V5.786c0-.138-.112-.25-.25-.25H6.66c-.111,0-.167,.135-.088,.214Z"/>
</svg>