<svg xmlns="http://www.w3.org/2000/svg" viewBox="0 0 16 16">
  <path d="M2.55,10.05a3.2,3.2,0,0,1,.2-1.4,2.8,2.8,0,0,1,.8-1.1l1.7-1.8,5,5-1.8,1.7a2.8,2.8,0,0,1-1.1.8,3.094,3.094,0,0,1-1.3.3l-1.2-.2-.9-.5-2.6,2.5-.7-.7,2.5-2.6a4.085,4.085,0,0,1-.5-.9A4.518,4.518,0,0,1,2.55,10.05Zm3.5,2.5.9-.2a2.407,2.407,0,0,0,.8-.6l1.1-1-3.6-3.6-1,1.1-.6.8a3.094,3.094,0,0,0-.1,1,2.793,2.793,0,0,0,.1.9l.6.8.8.6Zm6.8-8.6a4.085,4.085,0,0,1,.5.9,5.028,5.028,0,0,1,.2,1.2,3.094,3.094,0,0,1-.3,1.3,2.8,2.8,0,0,1-.8,1.1l-1.7,1.8-5-5,1.8-1.7a2.8,2.8,0,0,1,1.1-.8,3.2,3.2,0,0,1,1.4-.2h1.1l.9.5,2.6-2.4.7.7Zm-1.1,3.8a2.407,2.407,0,0,0,.6-.8,2.9,2.9,0,0,0,.2-.9,3,3,0,0,0-.2-1l-.6-.8-.8-.5a1.507,1.507,0,0,0-.9-.2h-1l-.8.6-1.1,1,3.6,3.6Z" />
</svg>