<svg xmlns="http://www.w3.org/2000/svg" width="18" height="18" viewBox="0 0 18 18">
  <defs>
    <radialGradient id="ad8841a7-c9eb-466b-8330-114ebe2bc714" cx="3.438" cy="3.221" r="6.955" gradientUnits="userSpaceOnUse">
      <stop offset="0" stop-color="#50e6ff"/>
      <stop offset="1" stop-color="#32bedd"/>
    </radialGradient>
  </defs>
  <g id="f769be16-7e89-44e1-a0e5-0096347044a7">
    <path d="M17.847,10.308l-6.026,3.5a.308.308,0,0,1-.158.043V2.816a.615.615,0,0,1,.463.211L17.964,9.9A.308.308,0,0,1,17.847,10.308Z" fill="#8b57e1"/>
    <path d="M11.663,2.816V13.855a.267.267,0,0,1-.08-.011l-.005,0L9.9,12.869l-3.17-1.841-.007-.005L5.48,10.3l0,0a.309.309,0,0,1-.116-.411L6.643,8.365l.614-.725L9.148,5.4l2.045-2.362A.613.613,0,0,1,11.663,2.816Z" fill="#a67af4"/>
    <path d="M9.827,9.236,4.96,12.057v5.657a.575.575,0,0,0,.289-.078l4.383-2.548a.574.574,0,0,0,.286-.5L9.9,9.51a.566.566,0,0,0-.072-.274Z" fill="#a33a85"/>
    <path d="M9.822,9.226,5.781,11.574l-.821.477L.077,9.212a.573.573,0,0,1,.2-.207L.9,8.644l3.775-2.2a.577.577,0,0,1,.573,0L9.614,9.017A.579.579,0,0,1,9.822,9.226Z" fill="#dc92bf"/>
    <path d="M4.96,12.055v5.659a.575.575,0,0,1-.214-.042l0,0L.286,15.079l0,0A.575.575,0,0,1,0,14.582V9.5a.561.561,0,0,1,.075-.282Z" fill="#ce74b6"/>
    <circle cx="4.959" cy="4.672" r="4.386" fill="url(#ad8841a7-c9eb-466b-8330-114ebe2bc714)"/>
  </g>
</svg>
