<svg id="uuid-9d3f0bd2-38a2-4dc1-b870-479c944904af" xmlns="http://www.w3.org/2000/svg" width="18" height="18" viewBox="0 0 18 18">
  <defs>
    <radialGradient id="uuid-601dd438-bfa2-42e6-934d-034ea0b3a8c8" cx="-553.275" cy="1018.449" r="7.067" gradientTransform="translate(564 1025.516) scale(1 -1)" gradientUnits="userSpaceOnUse">
      <stop offset=".225" stop-color="#32d4f5"/>
      <stop offset=".59" stop-color="#32d2f2"/>
      <stop offset=".825" stop-color="#32caea"/>
      <stop offset="1" stop-color="#32bedd"/>
    </radialGradient>
  </defs>
  <g id="uuid-5c4dbba6-837b-40f4-baf5-a3e6e085b55c">
    <g>
      <rect x="-.925" y="12.81" width="10.302" height="2.346" rx="1.097" ry="1.097" transform="translate(-8.65 7.083) rotate(-45)" fill="#198ab3" stroke-width="0"/>
      <circle cx="10.725" cy="7.067" r="7.067" fill="url(#uuid-601dd438-bfa2-42e6-934d-034ea0b3a8c8)" stroke-width="0"/>
      <circle cx="10.71" cy="6.941" r="5.551" fill="#fff" stroke-width="0"/>
      <path d="M5.331,8.314S6.851.71,13.951,2.435c-1.95-1.446-4.622-1.426-6.549.05-1.84,1.32-2.665,3.645-2.07,5.829Z" fill="#c3f1ff" stroke-width="0"/>
    </g>
  </g>
  <g id="uuid-bd9d3fe8-d6a4-4c0a-b2fc-baeac3abb693" >
    <path d="M12.653,9.686l.01.003-.01-.003Z" fill="none" stroke-width="0"/>
    <path d="M12.653,10.71l.01.003-.01-.003Z" fill="none" stroke-width="0"/>
    <path d="M12.653,6.613l.01.003-.01-.003Z" fill="none" stroke-width="0"/>
    <path d="M12.653,7.637l.01.003-.01-.003Z" fill="none" stroke-width="0"/>
    <g>
      <ellipse cx="10.73" cy="7.793" rx="3.669" ry=".864" fill="#32bedd" stroke-width="0"/>
      <path d="M14.4,9.493v-1.7h0c0,.477-1.643.864-3.669.864s-3.67-.387-3.67-.864v1.74c0,.477,1.643.864,3.669.864,1.984,0,3.599-.371,3.667-.834h0v-.069h.003Z" fill="#0078d4" stroke-width="0"/>
    </g>
    <g>
      <path d="M10.719,5.584c-2.004,0-3.632-.379-3.666-.848h-.003v1.724c0,.478,1.643.864,3.669.864,1.984,0,3.599-.371,3.666-.834h0v-.03c0-.005,0-.01,0-.015v-.024h0v-1.7c.003.477-1.64.864-3.666.864Z" fill="#5ea0ef" stroke-width="0"/>
      <ellipse cx="10.719" cy="4.72" rx="3.669" ry=".864" fill="#9cebff" stroke-width="0"/>
    </g>
  </g>
</svg>