<svg xmlns="http://www.w3.org/2000/svg" width="18" height="18" viewBox="0 0 18 18">
  <defs>
    <linearGradient id="ba4d85f5-bdcf-456e-95f5-ee002437fa64" x1="4.93" y1="9" x2="16.67" y2="9" gradientUnits="userSpaceOnUse">
      <stop offset="0" stop-color="#5ea0ef"/>
      <stop offset="1" stop-color="#83b9f9"/>
    </linearGradient>
  </defs>
  <g id="a311c4fa-9b2a-426b-934d-417c71013f2d">
    <path d="M16.67,13.787v3.73a.483.483,0,0,1-.483.483H5.413a.483.483,0,0,1-.483-.483v-3.73a.483.483,0,0,1,.483-.483H16.187A.483.483,0,0,1,16.67,13.787Zm-.483-7.135H5.413a.483.483,0,0,0-.483.483v3.73a.483.483,0,0,0,.483.483H16.187a.483.483,0,0,0,.483-.483V7.135A.483.483,0,0,0,16.187,6.652Zm0-6.652H5.413A.483.483,0,0,0,4.93.483v3.73a.483.483,0,0,0,.483.483H16.187a.483.483,0,0,0,.483-.483V.483A.483.483,0,0,0,16.187,0Z" fill="url(#ba4d85f5-bdcf-456e-95f5-ee002437fa64)"/>
    <path d="M4.93,15.026H2.739a.156.156,0,0,1-.156-.156V9.626H4.93V8.374H2.583V3.13a.156.156,0,0,1,.156-.156H4.93V1.722H1.957a.627.627,0,0,0-.627.626v13.3a.627.627,0,0,0,.627.626H4.93Z" fill="#0078d4"/>
    <path d="M13.658,1.767V2.929a.139.139,0,0,0,.138.139h1.162a.139.139,0,0,0,.139-.139V1.767a.139.139,0,0,0-.139-.139H13.8A.138.138,0,0,0,13.658,1.767Zm-7.155,0V2.929a.139.139,0,0,0,.139.139H12.4a.139.139,0,0,0,.138-.139V1.767a.138.138,0,0,0-.138-.139H6.642A.139.139,0,0,0,6.5,1.767Z" fill="#fff"/>
    <path d="M13.658,8.419V9.581a.138.138,0,0,0,.138.139h1.162a.139.139,0,0,0,.139-.139V8.419a.139.139,0,0,0-.139-.139H13.8A.138.138,0,0,0,13.658,8.419Zm-7.155,0V9.581a.139.139,0,0,0,.139.139H12.4a.138.138,0,0,0,.138-.139V8.419A.138.138,0,0,0,12.4,8.28H6.642A.139.139,0,0,0,6.5,8.419Z" fill="#fff"/>
    <path d="M13.658,15.071v1.162a.138.138,0,0,0,.138.139h1.162a.139.139,0,0,0,.139-.139V15.071a.138.138,0,0,0-.139-.138H13.8A.138.138,0,0,0,13.658,15.071Zm-7.155,0v1.162a.139.139,0,0,0,.139.139H12.4a.138.138,0,0,0,.138-.139V15.071a.138.138,0,0,0-.138-.138H6.642A.138.138,0,0,0,6.5,15.071Z" fill="#fff"/>
  </g>
</svg>
