<svg xmlns="http://www.w3.org/2000/svg" width="18" height="18" viewBox="0 0 18 18">
  <defs>
    <radialGradient id="e81c38a2-8c82-4668-af8c-dc50f9a2dfe9" cx="-36.451" cy="9.288" r="11.067" gradientTransform="matrix(-0.942, 0, 0, 0.944, -25.649, -0.083)" gradientUnits="userSpaceOnUse">
      <stop offset="0.266" stop-color="#ffd70f"/>
      <stop offset="0.487" stop-color="#ffcb12"/>
      <stop offset="0.884" stop-color="#feac19"/>
      <stop offset="1" stop-color="#fea11b"/>
    </radialGradient>
    <linearGradient id="e4b38147-b636-4992-a096-f5f2256e794e" x1="12.179" y1="17.904" x2="12.179" y2="10.182" gradientUnits="userSpaceOnUse">
      <stop offset="0" stop-color="#005ba1"/>
      <stop offset="0.126" stop-color="#0f66ae"/>
      <stop offset="0.515" stop-color="#3a86d1"/>
      <stop offset="0.819" stop-color="#5499e7"/>
      <stop offset="1" stop-color="#5ea0ef"/>
    </linearGradient>
  </defs>
  <g id="e7cc86ad-9844-4138-8c85-6011eea6e7a7">
    <g>
      <path id="b3b184fa-3636-471a-845d-eee2ce984a24" d="M5.906,10.481v.282l-.765.769a.267.267,0,0,0,0,.377l.551.552a.292.292,0,0,1,0,.413l-.551.552a.267.267,0,0,0,0,.377l.551.553a.291.291,0,0,1,0,.412l-.551.552a.268.268,0,0,0,0,.378l.764.765v.012l1.3,1.3a.461.461,0,0,0,.655,0l1.337-1.34a.7.7,0,0,0,.2-.494V10.472a.572.572,0,0,1,.168-.406L12.5,7.124a2.056,2.056,0,0,0,0-2.9L8.974.69h0a2.039,2.039,0,0,0-2.89,0L2.559,4.225h0a2.053,2.053,0,0,0,0,2.9ZM7.53,1.545A1.163,1.163,0,1,1,6.37,2.708,1.162,1.162,0,0,1,7.53,1.545Z" fill="url(#e81c38a2-8c82-4668-af8c-dc50f9a2dfe9)"/>
      <path id="a18c28c8-f20c-4216-b59b-b88fe9ae4210" d="M8.446,16.057h0a.249.249,0,0,1-.421-.19V11.442a.263.263,0,0,1,.115-.219h0a.25.25,0,0,1,.385.219v4.425A.263.263,0,0,1,8.446,16.057Z" fill="#ff9300" opacity="0.75"/>
      <path id="a6d18b5c-ded6-4417-aaa2-4e5bf898fe66" d="M4.87,5.4h5.17a.314.314,0,0,1,.314.314v.059a.313.313,0,0,1-.313.313H4.869a.313.313,0,0,1-.313-.313V5.717A.314.314,0,0,1,4.87,5.4Z" fill="#ff9300" opacity="0.75"/>
      <path id="a0fb1735-2a85-4928-87bb-ea9a601a0993" d="M4.869,6.518H10.04a.314.314,0,0,1,.314.314v.058a.314.314,0,0,1-.314.314H4.869a.313.313,0,0,1-.313-.313V6.831a.313.313,0,0,1,.313-.313Z" fill="#ff9300" opacity="0.75"/>
    </g>
    <circle cx="12.179" cy="14.043" r="3.861" fill="url(#e4b38147-b636-4992-a096-f5f2256e794e)"/>
    <path d="M11.8,12.02H10.653a1.431,1.431,0,0,0-.222,2.842,1.539,1.539,0,0,1,.017-.533.9.9,0,0,1,.208-1.784H11.8a.906.906,0,0,1,0,1.812h-.317a.671.671,0,0,0-.064.286.649.649,0,0,0,.045.238H11.8a1.431,1.431,0,0,0,.06-2.861H11.8Z" fill="#fff"/>
    <path d="M13.739,13.231a1.8,1.8,0,0,1,.017.22,1.489,1.489,0,0,1-.032.312.9.9,0,0,1-.207,1.783H12.371a.906.906,0,0,1,0-1.811h.315a.67.67,0,0,0,.063-.286.65.65,0,0,0-.045-.239h-.331a1.431,1.431,0,0,0,0,2.861h1.146a1.431,1.431,0,0,0,.222-2.842Z" fill="#fff"/>
  </g>
</svg>
