<svg xmlns="http://www.w3.org/2000/svg" width="16" height="16" viewBox="0 0 16 16">
  <path d="M5,6a4.328,4.328,0,0,0,.2,1.1,2.394,2.394,0,0,0,.6.9,2.71,2.71,0,0,0,.8.7L7.7,9h.6L8,10,5.7,9.7,3.6,8.9,1.7,7.6A12.867,12.867,0,0,1,0,6,12.867,12.867,0,0,1,1.7,4.4L3.6,3.1l2.1-.8A9.068,9.068,0,0,1,8,2a8.465,8.465,0,0,1,2.3.3,6.6,6.6,0,0,1,2.1.8,8.589,8.589,0,0,1,2,1.3A8.085,8.085,0,0,1,16,6l-.7.7h-.1A9.83,9.83,0,0,0,13.4,5a11.594,11.594,0,0,0-2.2-1.3,3.388,3.388,0,0,1,.6,1.2A4.956,4.956,0,0,1,12,6h0l-1,.3V6a5.028,5.028,0,0,0-.2-1.2l-.7-.9-.9-.7L8,3l-1.2.2-.9.7-.7.9A5.028,5.028,0,0,0,5,6ZM4.7,8.3a5.427,5.427,0,0,1-.5-1.1A5.028,5.028,0,0,1,4,6a5.028,5.028,0,0,1,.2-1.2,5.427,5.427,0,0,1,.5-1.1l-1.8,1L1.4,6,2.9,7.3ZM8,5h.4l.3.2c.1.1.2.2.2.3A.6.6,0,0,1,9,6a.6.6,0,0,1-.1.4l-.2.3-.3.2H7.6l-.3-.2-.2-.3A.6.6,0,0,1,7,6a.6.6,0,0,1,.1-.4c0-.1.1-.2.2-.3l.3-.2Zm4.5,2a3.5,3.5,0,0,1,1.4.3A4.079,4.079,0,0,1,15,8a4.079,4.079,0,0,1,.7,1.1,3.4,3.4,0,0,1,0,2.8A4.079,4.079,0,0,1,15,13a4.079,4.079,0,0,1-1.1.7,3.4,3.4,0,0,1-2.8,0A4.079,4.079,0,0,1,10,13a4.079,4.079,0,0,1-.7-1.1,3.4,3.4,0,0,1,0-2.8A4.079,4.079,0,0,1,10,8a4.079,4.079,0,0,1,1.1-.7A3.5,3.5,0,0,1,12.5,7ZM10,10.5a3.6,3.6,0,0,0,.2,1,3.51,3.51,0,0,0,.5.8l.8.5,1,.2h.7l.7-.3L10.4,9.1l-.3.7A1.7,1.7,0,0,0,10,10.5Zm4.6,1.4.3-.7a1.7,1.7,0,0,0,.1-.7,3.6,3.6,0,0,0-.2-1,3.51,3.51,0,0,0-.5-.8l-.8-.5-1-.2h-.7l-.7.3Z"/>
</svg>
