<svg xmlns="http://www.w3.org/2000/svg" viewBox="0 0 16 16">
  <title>Icon1112-Artboard 1</title>
  <path d="M8.68,7H7.32L7,2H9ZM8,8a1,1,0,0,1,.39.08.94.94,0,0,1,.53.53,1,1,0,0,1,0,.78.94.94,0,0,1-.53.53,1,1,0,0,1-.78,0,.94.94,0,0,1-.53-.53,1,1,0,0,1,0-.78.94.94,0,0,1,.53-.53A1,1,0,0,1,8,8Zm6-8a1.85,1.85,0,0,1,.78.16,1.81,1.81,0,0,1,.63.43,1.81,1.81,0,0,1,.43.63A1.85,1.85,0,0,1,16,2v8a1.85,1.85,0,0,1-.16.78,2.06,2.06,0,0,1-1.06,1.06A1.85,1.85,0,0,1,14,12H10v4L6,12H2a1.85,1.85,0,0,1-.78-.16,1.81,1.81,0,0,1-.63-.43,1.81,1.81,0,0,1-.43-.63A1.85,1.85,0,0,1,0,10V2a1.85,1.85,0,0,1,.16-.78A1.81,1.81,0,0,1,.59.59,1.81,1.81,0,0,1,1.22.16,1.85,1.85,0,0,1,2,0Zm1,10V2a1,1,0,0,0-.08-.39.94.94,0,0,0-.53-.53A1,1,0,0,0,14,1H2a1,1,0,0,0-.39.08.94.94,0,0,0-.53.53A1,1,0,0,0,1,2v8a1,1,0,0,0,.08.39.94.94,0,0,0,.53.53A1,1,0,0,0,2,11H6.41c.45.42.88.85,1.3,1.29L9,13.59V11h5a1,1,0,0,0,.39-.08.94.94,0,0,0,.53-.53A1,1,0,0,0,15,10Z" />
</svg>