<svg xmlns="http://www.w3.org/2000/svg" width="18" height="18" viewBox="0 0 18 18">
  <defs>
    <linearGradient id="b3b1f937-0405-4923-86b5-1b37cb3b234e" x1="0.2728" y1="13.3511" x2="17.7272" y2="13.3511" gradientUnits="userSpaceOnUse">
      <stop offset="0.0012" stop-color="#773adc"/>
      <stop offset="1" stop-color="#552f99"/>
    </linearGradient>
    <linearGradient id="aa12cb1a-ab29-4bab-925f-b3dac8b870b7" x1="0.2757" y1="10.3205" x2="17.7272" y2="10.3205" gradientUnits="userSpaceOnUse">
      <stop offset="0" stop-color="#a67af4"/>
      <stop offset="0.9988" stop-color="#773adc"/>
    </linearGradient>
  </defs>
  <g id="b4e35222-ab7e-4fc2-8cdd-b09092316953">
    <g>
      <path d="M17.4878,10.6582,9.6122,15.235a1.2866,1.2866,0,0,1-1.1662,0L.5189,10.6582a.4123.4123,0,0,1-.2432-.34L.2728,11.3274a.4126.4126,0,0,0,.2432.34l7.9272,4.5767a1.2857,1.2857,0,0,0,1.1661,0l7.8756-4.5768a.4093.4093,0,0,0,.2394-.3354l.0029-1.0092A.41.41,0,0,1,17.4878,10.6582Z" fill="url(#b3b1f937-0405-4923-86b5-1b37cb3b234e)"/>
      <path d="M17.484,9.9827a.357.357,0,0,1,.0038.6755L9.6121,15.235a1.2863,1.2863,0,0,1-1.1661,0L.5189,10.6582a.357.357,0,0,1-.0038-.6754L8.3907,5.406a1.2857,1.2857,0,0,1,1.1661,0Z" fill="url(#aa12cb1a-ab29-4bab-925f-b3dac8b870b7)"/>
      <g opacity="0.5">
        <path d="M17.484,6.5915a.357.357,0,0,1,.0038.6754L9.6121,11.8437a1.2857,1.2857,0,0,1-1.1661,0L.5189,7.267a.357.357,0,0,1-.0038-.6755L8.3907,2.0147a1.2863,1.2863,0,0,1,1.1661,0Z" fill="#9cebff"/>
      </g>
      <path d="M9.0284,12.273a1.4638,1.4638,0,0,1-.7209-.1765l-.5848-.3376a.2742.2742,0,0,1,.2742-.475l.5848.3377a1.07,1.07,0,0,0,.7676.0547.2742.2742,0,0,1,.1717.5209A1.593,1.593,0,0,1,9.0284,12.273Zm1.8819-.8948a.2742.2742,0,0,1-.138-.5113l1.4656-.8518a.2742.2742,0,0,1,.2756.4741l-1.4656.8518A.2733.2733,0,0,1,10.91,11.3782Zm-4.5188-.43a.2723.2723,0,0,1-.1368-.0369l-1.4681-.8475a.2742.2742,0,1,1,.2742-.4749l1.4681.8475a.2743.2743,0,0,1-.1374.5118Zm7.45-1.2734a.2743.2743,0,0,1-.138-.5114l1.4657-.8517a.2742.2742,0,1,1,.2755.4741l-1.4657.8517A.2717.2717,0,0,1,13.8416,9.6747ZM3.4554,9.2529a.2732.2732,0,0,1-.1368-.0368L1.8505,8.3685a.2742.2742,0,1,1,.2742-.4749l1.4681.8475a.2743.2743,0,0,1-.1374.5118ZM16.7729,7.9712a.2743.2743,0,0,1-.138-.5114l.7136-.4147c.0848-.0492.1031-.0912.1031-.099s-.0189-.0515-.1061-.1019l.2706-.477L17.62,6.37a.6263.6263,0,0,1,.0036,1.15L16.91,7.934A.2726.2726,0,0,1,16.7729,7.9712ZM.3818,7.5206.38,7.5194A.6262.6262,0,0,1,.376,6.37l.7115-.4135A.2742.2742,0,1,1,1.363,6.43l-.7115.4136c-.0847.0492-.1031.0913-.1031.0991s.0189.0514.1061.1017ZM16.01,6.0311a.2724.2724,0,0,1-.1369-.0369l-1.468-.8476a.2742.2742,0,1,1,.2742-.4749l1.468.8476a.2743.2743,0,0,1-.1373.5118ZM2.6911,5.6158a.2742.2742,0,0,1-.138-.5113l1.4657-.8518a.2742.2742,0,0,1,.2755.4742l-1.4656.8517A.2722.2722,0,0,1,2.6911,5.6158Zm10.3828-1.28a.2732.2732,0,0,1-.1368-.0368L11.469,3.4514a.2742.2742,0,0,1,.2742-.4749l1.4681.8476a.2743.2743,0,0,1-.1374.5118ZM5.6225,3.9124a.2743.2743,0,0,1-.138-.5114L6.95,2.5493a.2742.2742,0,1,1,.2755.4741L5.76,3.8751A.272.272,0,0,1,5.6225,3.9124Zm4.5153-1.2717a.2723.2723,0,0,1-.1369-.0368l-.5826-.3364a1.066,1.066,0,0,0-.7694-.0542.2742.2742,0,0,1-.1727-.5206,1.5938,1.5938,0,0,1,.4954-.0767,1.4639,1.4639,0,0,1,.721.1765l.5825.3365a.2742.2742,0,0,1-.1373.5117Z" fill="#50e6ff"/>
    </g>
  </g>
</svg>
