<svg xmlns="http://www.w3.org/2000/svg" width="18" height="18" viewBox="0 0 18 18">
  <defs>
    <linearGradient id="b4c606dd-4308-4db9-ab5d-294fa1d070a9" x1="12.181" y1="8.995" x2="12.181" y2="0.886" gradientUnits="userSpaceOnUse">
      <stop offset="0" stop-color="#8974bd"/>
      <stop offset="1" stop-color="#a39ee7"/>
    </linearGradient>
    <linearGradient id="a8d473ba-9a0d-47f1-9605-806e1d24f35e" x1="6.017" y1="3.624" x2="6.017" y2="16.927" gradientUnits="userSpaceOnUse">
      <stop offset="0" stop-color="#c86dd7"/>
      <stop offset="1" stop-color="#a16bc7"/>
    </linearGradient>
  </defs>
  <path d="M17.326.257H7.036a.676.676,0,0,0-.674.674V3.458A4.176,4.176,0,0,1,10.23,7.61a4.072,4.072,0,0,1-.061.656h2.4a.113.113,0,0,1,.113.112V9.763a.225.225,0,0,0,.361.179L15.2,8.289a.114.114,0,0,1,.069-.023h2.054A.677.677,0,0,0,18,7.591V.931A.674.674,0,0,0,17.326.257Z" fill="url(#b4c606dd-4308-4db9-ab5d-294fa1d070a9)"/>
  <path d="M.971,17.743h10A1.054,1.054,0,0,0,12.03,16.7a.1.1,0,0,0,0-.025.565.565,0,0,0,0-.13c-.358-2.86-1.8-5.264-4.469-5.926A3.388,3.388,0,1,0,4.484,10.6C1.8,11.175.343,13.33.005,16.557A1.088,1.088,0,0,0,.971,17.743Z" fill="url(#a8d473ba-9a0d-47f1-9605-806e1d24f35e)"/>
  <path d="M15.374,1.743a.716.716,0,0,0-.56,1.158L13.663,4.95a.6.6,0,0,0-.086-.009.706.706,0,0,0-.382.114l-.893-.91a.714.714,0,1,0-1.283.081l-.814,1.056a.653.653,0,0,0-.613.132,4.147,4.147,0,0,1,.523,1.258.7.7,0,0,0,.533-1.037l.821-1.061a.691.691,0,0,0,.171.023.7.7,0,0,0,.259-.05l.976,1a.748.748,0,0,0-.012.116.714.714,0,1,0,1.289-.422l1.161-2.065a.6.6,0,0,0,.061.007.718.718,0,0,0,0-1.436Z" fill="#fff" opacity="0.7"/>
</svg>
