<svg id="uuid-1b4acfd8-2a83-46b7-8b2a-8663b9511932" xmlns="http://www.w3.org/2000/svg" width="18" height="18" viewBox="0 0 18 18">
  <path d="m5.604,7.576c-.167.333-.032.737.3.904.954.478,2.022.732,3.087.734h.013c1.071,0,2.143-.254,3.1-.734.333-.167.466-.571.299-.903-.167-.333-.573-.467-.903-.299-.538.27-1.407.591-2.496.591h-.01c-1.085-.002-1.951-.323-2.487-.592-.334-.167-.737-.032-.904.3Z"/>
  <path d="m12.403,10.315c-.167-.334-.573-.466-.903-.299-.538.27-1.407.591-2.496.591h-.01c-1.085-.002-1.951-.323-2.487-.592-.334-.167-.737-.033-.904.3-.167.333-.032.737.3.904.954.478,2.022.732,3.087.734h.013c1.071,0,2.143-.254,3.1-.734.333-.167.466-.571.299-.903Z"/>
  <path d="m7.316,12.988l-2.48,1.436v-7.35s3.163-1.898,3.163-1.898c.201-.12.324-.336.327-.57s-.117-.452-.315-.577l-3.489-2.191c-.21-.133-.48-.137-.696-.012L.346,3.849c-.093.052-.176.127-.238.223C.033,4.187-.002,4.318,0,4.446v9.124c0,.24.128.462.335.582l3.49,2.022c.01.006.022.003.032.009.093.048.193.082.305.082s.212-.034.305-.082c.01-.005.022-.003.032-.009l3.49-2.022c.322-.186.431-.598.245-.92-.186-.321-.598-.432-.92-.245ZM4.15,3.194l2.216,1.392-2.19,1.314-2.217-1.433,2.191-1.273Zm-2.804,2.479l2.145,1.386v7.365s-2.145-1.242-2.145-1.242v-7.509Z"/>
  <path d="m17.895,4.075s0,0,0,0c0,0,0-.001,0-.001,0,0,0,0,0-.001h0s0-.002-.001-.002c0,0,0-.001-.001-.002s0-.001-.001-.002c0,0,0-.001-.001-.002-.061-.092-.142-.165-.233-.215l-3.479-2.022c-.216-.126-.484-.121-.696.012l-3.489,2.191c-.198.125-.317.343-.315.577s.126.45.327.57l3.162,1.898v7.35s-2.478-1.436-2.478-1.436c-.321-.187-.733-.076-.92.245-.186.322-.077.733.245.92l3.49,2.022c.01.006.022.003.032.009.093.048.193.082.305.082s.212-.034.305-.082c.01-.005.022-.003.032-.009l3.49-2.022c.208-.12.335-.342.335-.582V4.446c.002-.127-.032-.256-.105-.371Zm-4.045-.881l2.191,1.273-2.217,1.433-2.19-1.314,2.216-1.392Zm2.804,9.989l-2.144,1.242v-7.365s2.144-1.386,2.144-1.386v7.509Z"/>
</svg>