<svg xmlns="http://www.w3.org/2000/svg" viewBox="0 0 18 18">
  <defs>
    <linearGradient id="b3d769cc-c0ae-46f6-bdf3-6dc095092442" x1="7.421" y1="2.444" x2="7.421" y2="14.924" gradientUnits="userSpaceOnUse">
      <stop offset="0" stop-color="#5ea0ef" />
      <stop offset="1" stop-color="#0078d4" />
    </linearGradient>
  </defs>
  <g id="ea2eeadf-c384-4cc3-baa1-d5601be52ff9">
    <path d="M13.1,8.229V3.742h0v0a.355.355,0,0,0-.348-.355c-3.506-.095-2.7-1.634-5.326-1.634S5.6,3.29,2.1,3.385a.356.356,0,0,0-.348.355v0h0V8.229c0,.09,0,.179.01.269,0,.06.009.119.014.179v.008l0,.012c.01.106.024.21.041.314v.006a6.861,6.861,0,0,0,1.336,2.912L3.206,12c.041.054.083.107.125.16s.058.076.089.113.07.084.1.126.077.094.117.139l.087.1c.047.053.095.107.143.159.022.025.045.05.068.074.056.06.111.12.168.178l.048.05c.064.066.128.131.193.194l.027.027c.073.071.145.142.218.21l0,0a17.462,17.462,0,0,0,2.637,2.035.305.305,0,0,0,.086.035.2.2,0,0,0,.024.005.31.31,0,0,0,.042.008h.068a.358.358,0,0,0,.043-.008l.024-.005a.305.305,0,0,0,.086-.035,17.41,17.41,0,0,0,2.86-2.249l.025-.025c.065-.064.13-.13.2-.2l.046-.048c.057-.06.114-.12.17-.181l.066-.071c.049-.053.1-.108.145-.163.029-.032.057-.063.085-.1l.119-.141c.035-.042.07-.083.1-.125s.06-.077.091-.115.082-.1.122-.157l.057-.077c.05-.067.1-.134.148-.2h0a6.682,6.682,0,0,0,1.185-2.7V9.011c.018-.1.031-.208.042-.314v-.02c.006-.06.011-.119.014-.179C13.091,8.409,13.1,8.319,13.1,8.229Z" fill="#0078d4" />
    <path d="M12.528,8.275V4.237h0v0a.319.319,0,0,0-.313-.319C9.059,3.829,9.786,2.444,7.421,2.444S5.783,3.829,2.628,3.915a.32.32,0,0,0-.314.319v0h0V8.275c0,.081,0,.161.01.241q0,.081.012.162V8.7c.01.1.022.189.038.282v.006a6.167,6.167,0,0,0,1.2,2.62l.048.065c.037.049.075.1.113.144l.08.1.094.114c.035.042.07.084.106.125l.078.089c.043.048.085.1.128.144.021.022.042.044.062.067.05.053.1.107.151.159l.044.045c.057.06.115.118.173.175l.025.024c.065.065.13.128.2.19l0,0A15.624,15.624,0,0,0,7.253,14.88a.292.292,0,0,0,.078.032l.022,0c.012,0,.025.006.038.007h.061c.013,0,.025,0,.038-.007l.022,0a.273.273,0,0,0,.077-.032,15.594,15.594,0,0,0,2.574-2.024l.023-.022c.058-.058.117-.117.175-.177l.042-.043.153-.162.059-.064.131-.147c.025-.029.051-.057.076-.087s.072-.084.107-.127.063-.074.094-.112l.081-.1c.038-.047.075-.093.111-.141l.05-.069c.045-.06.09-.121.134-.183h0a6.006,6.006,0,0,0,1.067-2.434V8.978c.015-.093.028-.187.037-.282l0-.011V8.678c0-.054.01-.108.013-.162C12.524,8.436,12.528,8.356,12.528,8.275Z" fill="url(#b3d769cc-c0ae-46f6-bdf3-6dc095092442)" />
    <g>
      <path d="M12.3,12.826l0,0v0L8.142,8.748l4.439-4.563a.511.511,0,0,0-.733-.712L7.055,8.4a.512.512,0,0,0,.008.721l4.512,4.426h0l.31.31a.512.512,0,0,0,.722,0,.512.512,0,0,0,0-.723Z" fill="#50e6ff" />
      <path d="M14.087,14.616a.511.511,0,1,0-.723.722l.739.74a.51.51,0,0,0,.362.15.511.511,0,0,0,.361-.871Z" fill="#50e6ff" />
      <path d="M16.614,17.147l-.309-.31a.511.511,0,0,0-.723.723l.309.31a.511.511,0,0,0,.723-.723Z" fill="#50e6ff" />
    </g>
    <g>
      <circle cx="13.377" cy="2.619" r="2.127" fill="#fff" />
      <path d="M13.377,5.219a2.6,2.6,0,1,1,2.6-2.6A2.6,2.6,0,0,1,13.377,5.219Zm0-4.255a1.655,1.655,0,1,0,1.654,1.655A1.657,1.657,0,0,0,13.377.964Z" fill="#50e6ff" />
    </g>
  </g>
  <metadata>
    <rdf:RDF xmlns:rdf="http://www.w3.org/1999/02/22-rdf-syntax-ns#">
      <rdf:li>public:true</rdf:li>
      <rdf:li>sdk:false</rdf:li>
      <rdf:li>category:Elixir</rdf:li>
    </rdf:RDF>
  </metadata>
</svg>