<svg id="abe77e88-e3df-4703-a164-2e1c0db27ea4" xmlns="http://www.w3.org/2000/svg" width="18" height="18" viewBox="0 0 18 18">
  <defs>
    <linearGradient id="a052bf02-56ce-4dcc-bbfa-419215fd990d" x1="9.66" y1="15.23" x2="9.66" y2="5.01" gradientTransform="translate(-0.41 -0.47) rotate(-0.06)" gradientUnits="userSpaceOnUse">
      <stop offset="0" stop-color="#0078d4"/>
      <stop offset="0.82" stop-color="#5ea0ef"/>
    </linearGradient>
  </defs>
  <title>Icon-377PolicySet</title>
  <g>
    <rect x="4.37" y="3.58" width="7.97" height="9.68" fill="#fff"/>
    <path d="M5.08,13H4.62V3.83h7.48V7.77h.5V3.58a.25.25,0,0,0-.25-.25h-8a.28.28,0,0,0-.25.25v9.69a.27.27,0,0,0,.08.18.26.26,0,0,0,.17.07h.71Z" fill="#0078d4"/>
    <path d="M9.84,4.61H5.42A.35.35,0,0,0,5.07,5v9.38a.35.35,0,0,0,.35.34H13.1a.35.35,0,0,0,.34-.35V8.12a.35.35,0,0,0-.35-.35H10.55a.35.35,0,0,1-.35-.35V5A.34.34,0,0,0,9.84,4.61Z" fill="#fff"/>
    <path d="M9.68,5.05V7.4a.86.86,0,0,0,.87.86H13v6H5.55V5.05H9.68m.17-.52H5.37A.36.36,0,0,0,5,4.88V14.4a.36.36,0,0,0,.36.35h7.77a.35.35,0,0,0,.36-.35V8.09a.34.34,0,0,0-.36-.34H10.56a.35.35,0,0,1-.35-.35V4.88a.36.36,0,0,0-.36-.35Z" fill="url(#a052bf02-56ce-4dcc-bbfa-419215fd990d)"/>
    <path d="M13.36,7.81l-3.28-3.2V7.22a.59.59,0,0,0,.59.6Z" fill="#0078d4"/>
    <path d="M11.72,9.34h-5a.17.17,0,0,1-.18-.17A.18.18,0,0,1,6.76,9h5a.18.18,0,0,1,.18.18A.17.17,0,0,1,11.72,9.34Z" fill="#4d4d4d"/>
    <path d="M11.72,10.34h-5a.18.18,0,0,1-.18-.18A.18.18,0,0,1,6.76,10h5a.18.18,0,0,1,.18.17A.18.18,0,0,1,11.72,10.34Z" fill="#4d4d4d"/>
    <path d="M11.72,11.35h-5a.18.18,0,0,1-.18-.18A.17.17,0,0,1,6.76,11h5a.17.17,0,0,1,.18.17A.18.18,0,0,1,11.72,11.35Z" fill="#4d4d4d"/>
    <path d="M.5,15.39a.15.15,0,0,0,.09.14l1.23.69,2.1,1.17a.17.17,0,0,0,.23-.06l.71-1.18a.17.17,0,0,0-.06-.23L2.34,14.55a.16.16,0,0,1-.08-.14V3.59a.16.16,0,0,1,.08-.14L4.8,2.08a.17.17,0,0,0,.06-.23L4.15.67A.17.17,0,0,0,3.92.61L1.86,1.76.59,2.47a.15.15,0,0,0-.09.14V15.39Z" fill="#949494"/>
    <path d="M2.25,3.51a.13.13,0,0,1,.07-.06L4.77,2.08a.17.17,0,0,0,.06-.23L4.13.67A.19.19,0,0,0,3.89.61l-2,1.15L.56,2.47a.17.17,0,0,0-.06.06l1,.53Z" fill="#a3a3a3"/>
    <path d="M4.77,15.92,2.32,14.55a.2.2,0,0,1-.08-.08l-1.73,1,.05,0,1.24.69,2.09,1.17a.19.19,0,0,0,.24-.06l.7-1.18A.17.17,0,0,0,4.77,15.92Z" fill="#a3a3a3"/>
    <path d="M17.5,15.39a.15.15,0,0,1-.09.14l-1.23.69-2.1,1.17a.17.17,0,0,1-.23-.06l-.71-1.18a.17.17,0,0,1,.06-.23l2.46-1.37a.16.16,0,0,0,.08-.14V3.59a.16.16,0,0,0-.08-.14L13.2,2.08a.17.17,0,0,1-.06-.23L13.85.67a.17.17,0,0,1,.23-.06l2.06,1.15,1.27.71a.15.15,0,0,1,.09.14V15.39Z" fill="#949494"/>
    <path d="M15.75,3.51a.13.13,0,0,0-.07-.06L13.23,2.08a.17.17,0,0,1-.06-.23l.7-1.18a.19.19,0,0,1,.24-.06l2.05,1.15,1.28.71a.17.17,0,0,1,.06.06l-1,.53Z" fill="#a3a3a3"/>
    <path d="M13.23,15.92l2.45-1.37a.2.2,0,0,0,.08-.08l1.73,1,0,0-1.24.69-2.09,1.17a.19.19,0,0,1-.24-.06l-.7-1.18A.17.17,0,0,1,13.23,15.92Z" fill="#a3a3a3"/>
  </g>
</svg>
