<svg id="uuid-bd959637-5da5-42c2-ac62-fb91bf66a519" xmlns="http://www.w3.org/2000/svg" width="18" height="18" viewBox="0 0 18 18">
  <defs>
    <linearGradient id="uuid-a4f1f0de-4d32-4888-8668-27f81530cd7e" x1="-227.278" y1="1347.2" x2="-227.278" y2="1358.264" gradientTransform="translate(-789.858 1123.144) rotate(45) scale(1 -1)" gradientUnits="userSpaceOnUse">
      <stop offset="0" stop-color="#0078d4"/>
      <stop offset=".82" stop-color="#5ea0ef"/>
    </linearGradient>
    <linearGradient id="uuid-fce0371b-5595-4c72-bba1-cc66aabae2be" x1="5.982" y1="11.415" x2="5.982" y2=".352" gradientTransform="matrix(1, 0, 0, 1, 0, 0)" gradientUnits="userSpaceOnUse">
      <stop offset="0" stop-color="#0078d4"/>
      <stop offset="1" stop-color="#5ea0ef"/>
    </linearGradient>
    <linearGradient id="uuid-6497c160-aa87-4b39-9352-cbc3c007fc92" x1="-332.68" y1="-252.86" x2="-338.699" y2="-258.879" gradientTransform="translate(69.727 431.706) rotate(45)" gradientUnits="userSpaceOnUse">
      <stop offset="0" stop-color="#5e9624"/>
      <stop offset=".82" stop-color="#76bc2d"/>
    </linearGradient>
  </defs>
  <path d="M7.286,13.355c0-.141-.559-.141-.559,0,.072,.831-.543,1.564-1.374,1.637-.039,0-.078,.005-.119,.005h3.542c-.834-.008-1.503-.691-1.495-1.524h0c0-.04,.002-.079,.005-.118Z" fill="#ef7100"/>
  <path d="M10.968,.899c.203-.203,.532-.204,.735,0h0l.024,.026c2.732,3.179,2.37,7.972-.809,10.704-2.846,2.446-7.053,2.445-9.898-.003-.213-.19-.233-.516-.045-.73l.023-.024H.998c.193-.197,.505-.21,.713-.029,2.75,2.35,6.883,2.026,9.233-.724,2.093-2.449,2.094-6.057,.002-8.507-.182-.206-.173-.518,.021-.713Z" fill="#f78d1e"/>
  <path d="M9.7,15.862H4.317c-.24,0-.434-.194-.434-.434h0c0-.24,.194-.434,.434-.434h5.383c.239,.001,.433,.195,.433,.434h0c0,.239-.194,.433-.433,.434Z" fill="#f78d1e"/>
  <circle cx="5.982" cy="5.884" r="5.532" fill="url(#uuid-a4f1f0de-4d32-4888-8668-27f81530cd7e)"/>
  <circle cx="5.982" cy="5.884" r="5.532" fill="url(#uuid-fce0371b-5595-4c72-bba1-cc66aabae2be)"/>
  <path d="M4.914,4.812h0c.299,.299,.299,.783,0,1.083h0c-.299,.299-.784,.299-1.083,0h0c-.298-.299-.298-.784,0-1.083h0c.299-.299,.783-.299,1.083,0h0Z" fill="#42e8ca"/>
  <path d="M3.516,2.907c.501,.501,1.313,.501,1.814,0,.501-.501,.501-1.313,0-1.814l-.595-.595c-.889,.205-1.713,.629-2.398,1.232l1.178,1.177Z" fill="#42e8ca"/>
  <path d="M4.033,11.055c1.283,.49,2.702,.48,3.978-.028l-.319-.319c-.921-.932-2.423-.941-3.355-.02-.113,.112-.215,.235-.304,.368Z" fill="#42e8ca"/>
  <path d="M8.525,4.731h0c-.817,.819-.817,2.144,0,2.963l.44,.44-.025-.022c.158,.159,.158,.416,0,.575-.159,.158-.416,.158-.575,0v.005c-.216-.214-.565-.213-.779,.003s-.213,.565,.003,.779l1.18,1.186c2.099-1.214,3.155-3.661,2.599-6.022-.825-.718-2.065-.678-2.842,.093Z" fill="#42e8ca"/>
  <circle cx="13.294" cy="13.393" r="4.255" fill="url(#uuid-6497c160-aa87-4b39-9352-cbc3c007fc92)"/>
  <path d="M16.025,11.45l-.28-.28c-.069-.069-.181-.069-.25,0l-3.177,3.177-1.21-1.21c-.069-.069-.181-.069-.25,0l-.28,.28c-.069,.069-.069,.181,0,.25l1.61,1.61c.018,.018,.04,.031,.063,.04,.065,.028,.142,.016,.195-.037l3.58-3.58c.069-.069,.069-.181,0-.25Z" fill="#fff"/>
</svg>