<svg id="uuid-f9b09bea-757f-49b5-a9ec-496691531272" xmlns="http://www.w3.org/2000/svg" width="18" height="18" viewBox="0 0 18 18">
  <defs>
    <linearGradient id="uuid-a2296271-2cd2-483c-aef5-f834af39516f" x1="-87.743" y1="795.349" x2="-87.743" y2="781.026" gradientTransform="translate(94 795.516) scale(1 -1)" gradientUnits="userSpaceOnUse">
      <stop offset="0" stop-color="#5ea0ef"/>
      <stop offset="1" stop-color="#0078d4"/>
    </linearGradient>
  </defs>
  <g id="uuid-972245e5-aa71-4bbe-88de-36ffa3ee6601">
    <g>
      <g id="uuid-48d2ffcd-ae42-4f8c-872b-14120c5b5d06">
        <g>
          <path d="m12.515,5.32v9.399c0,.285-.232.516-.519.516H.52C.233,15.235,0,15.005,0,14.72c0,0,0,0,0,0V.518C0,.232.232,0,.519,0c0,0,0,0,0,0h6.627c.123,0,.242.043.336.122v3.894c-.003.487.392.885.882.888h3.94c.133.097.211.251.211.415Z" fill="url(#uuid-a2296271-2cd2-483c-aef5-f834af39516f)"/>
          <path d="m12.317,4.905h-3.952c-.49-.004-.885-.401-.882-.888V.113l4.834,4.792Z" fill="#0078d4"/>
        </g>
      </g>
      <g>
        <g id="uuid-8fa0e6e3-61d2-4352-a58c-43b98a571b8e">
          <path d="m2.847,8.981h4.008c.219,0,.396.176.396.394h0c0,.218-.177.395-.396.395H2.847c-.219,0-.396-.176-.396-.394h0c0-.218.177-.395.396-.395Z" fill="#c3f1ff"/>
        </g>
        <g id="uuid-92b4bd31-592e-445d-a62f-48c875782676">
          <path d="m2.847,11.73h4.011c.217,0,.394.177.394.394h0c0,.218-.177.395-.394.395H2.843c-.217,0-.392-.176-.392-.392h0c0-.219.178-.396.396-.396Z" fill="#c3f1ff"/>
        </g>
        <g id="uuid-1fa99f8c-b615-4858-90e0-c8281fa41870">
          <path d="m2.847,6.189h4.011c.217,0,.394.177.394.394h0c0,.218-.177.395-.394.395H2.843c-.217,0-.392-.176-.392-.392h0c0-.219.178-.396.396-.396Z" fill="#c3f1ff"/>
        </g>
      </g>
    </g>
  </g>
  <path d="m15.304,8.718c-.275-.174-.641-.094-.817.179-.176.274-.095.638.181.813,1.466.93,2.149,2.002,2.149,3.372,0,2.063-1.689,3.741-3.764,3.741s-3.765-1.678-3.765-3.741c0-.899.447-2.071,1.18-2.898l.023.708c.013.326.294.576.621.554h0c.317-.022.557-.292.541-.606l-.095-2.115c-.018-.342-.327-.594-.668-.545l-2.35.345c-.319.046-.54.339-.495.656h0c.045.319.343.541.664.494l.774-.116c-.828,1.029-1.378,2.396-1.378,3.524,0,2.712,2.22,4.918,4.948,4.918s4.948-2.206,4.948-4.918c0-1.786-.882-3.213-2.696-4.364Z" fill="#b796f9"/>
</svg>