<svg xmlns="http://www.w3.org/2000/svg" viewBox="0 0 18 18">
  <defs>
    <linearGradient id="bdf09131-6b9d-4303-8a3c-453dd1f3421d" x1="7.38" y1="12.285" x2="7.38" y2="1.811" gradientUnits="userSpaceOnUse">
      <stop offset="0" stop-color="#0078d4" />
      <stop offset="0.776" stop-color="#5ea0ef" />
    </linearGradient>
    <linearGradient id="a231febd-7887-47ab-8ec4-0d2bc68d1b19" x1="14.385" y1="16.144" x2="14.385" y2="4.992" gradientUnits="userSpaceOnUse">
      <stop offset="0" stop-color="#949494" />
      <stop offset="1" stop-color="#b3b3b3" />
    </linearGradient>
  </defs>
  <g id="b4a3e155-309d-4c0b-a729-993de6ced92f">
    <path d="M10.685,15.357C8.967,15.127,9,14.023,9,12.232H5.787c.008,1.791.037,2.9-1.681,3.125a.877.877,0,0,0-.809.787h8.2A.882.882,0,0,0,10.685,15.357Z" fill="#1f56a3" />
    <rect x="-0.015" y="1.811" width="14.791" height="10.474" rx="0.501" fill="url(#bdf09131-6b9d-4303-8a3c-453dd1f3421d)" />
    <rect x="0.837" y="2.621" width="13.066" height="8.69" rx="0.251" fill="#83b9f9" />
    <path d="M18.005,15.766a.4.4,0,0,1-.417.378H11.183a.4.4,0,0,1-.418-.378V5.37a.4.4,0,0,1,.418-.378h6.405a.4.4,0,0,1,.417.378Z" fill="url(#a231febd-7887-47ab-8ec4-0d2bc68d1b19)" />
    <path d="M17.006,9.76a.829.829,0,0,1-.786.867h-3.6a.83.83,0,0,1-.787-.867h0a.83.83,0,0,1,.787-.867h3.6a.829.829,0,0,1,.786.867Zm0-2.576a.829.829,0,0,0-.786-.867h-3.6a.83.83,0,0,0-.787.867h0a.83.83,0,0,0,.787.867h3.6a.829.829,0,0,0,.786-.867Z" fill="#003067" />
    <path d="M13.528,7.184a.582.582,0,1,1-.582-.582A.583.583,0,0,1,13.528,7.184Zm-.582,1.994a.582.582,0,1,0,.582.582A.581.581,0,0,0,12.946,9.178Z" fill="#50e6ff" />
  </g>
  <metadata>
    <rdf:RDF xmlns:rdf="http://www.w3.org/1999/02/22-rdf-syntax-ns#">
      <rdf:li>public:true</rdf:li>
      <rdf:li>sdk:false</rdf:li>
      <rdf:li>category:Other</rdf:li>
    </rdf:RDF>
  </metadata>
</svg>