<svg xmlns="http://www.w3.org/2000/svg" width="18" height="18" viewBox="0 0 18 18">
  <g id="b0b05145-4fa6-4552-874f-1194881509c3">
    <path d="M16.905,1.573H1.092A1.1,1.1,0,0,0,0,2.668v12.49a1.1,1.1,0,0,0,1.094,1.094H16.905A1.1,1.1,0,0,0,18,15.158V2.667A1.1,1.1,0,0,0,16.905,1.573Zm0,13.62L1.059,15.158V6.243h15.88ZM1.059,5.184V2.667A.039.039,0,0,1,1.1,2.632l15.846.035V5.184Z"/>
    <path d="M5.826,13.923a.753.753,0,0,1-.752-.748,2.026,2.026,0,0,0-2.018-2.023.752.752,0,1,1,0-1.5,2.025,2.025,0,0,0,2.017-2.02.753.753,0,0,1,1.505-.007A2.026,2.026,0,0,0,8.6,9.647a.79.79,0,0,1,.528.217A.752.752,0,0,1,8.6,11.152,2.025,2.025,0,0,0,6.579,13.17a.759.759,0,0,1-.748.753H5.826ZM4.392,10.4a3.1,3.1,0,0,1,1.434,1.435A3.1,3.1,0,0,1,7.263,10.4,3.1,3.1,0,0,1,5.827,8.963,3.1,3.1,0,0,1,4.392,10.4Zm-1.333.307h0Zm5.536,0h0Zm-5.538-.613h0ZM6.133,7.625v0ZM12.9,14.684a.71.71,0,0,1-.709-.708,1.512,1.512,0,0,0-1.508-1.508.708.708,0,1,1,0-1.415,1.51,1.51,0,0,0,1.507-1.508.709.709,0,0,1,1.417,0,1.511,1.511,0,0,0,1.508,1.508.708.708,0,0,1,0,1.416A1.514,1.514,0,0,0,13.6,13.977.71.71,0,0,1,12.9,14.684Zm.35-.71h0Zm-1.273-2.213a2.579,2.579,0,0,1,.923.924,2.594,2.594,0,0,1,.924-.923,2.6,2.6,0,0,1-.924-.924A2.6,2.6,0,0,1,11.972,11.761Zm-1.293-.352h0Z"/>
  </g>
</svg>
