<svg id="bcd8c436-ae6d-4617-bf26-0e5edd8559fa" xmlns="http://www.w3.org/2000/svg" viewBox="0 0 18 18">
  <defs>
    <linearGradient id="f498f235-0180-489d-a2f2-c21b866b6bc5" x1="9.252" y1="0.485" x2="8.842" y2="16.966" gradientUnits="userSpaceOnUse">
      <stop offset="0" stop-color="#32d4f5" />
      <stop offset="0.228" stop-color="#31d0f1" />
      <stop offset="0.463" stop-color="#2cc3e6" />
      <stop offset="0.703" stop-color="#25afd4" />
      <stop offset="0.944" stop-color="#1c92ba" />
      <stop offset="1" stop-color="#198ab3" />
    </linearGradient>
  </defs>
  <title>00xxx-icon-menu-files</title>
  <rect x="-784.639" y="-592.013" width="1991.957" height="1767.411" fill="#fff" stroke="#000" stroke-miterlimit="10" stroke-width="1.302" />
  <g>
    <path d="M17.579,3.283H9.727a.419.419,0,0,1-.233-.07L7.251,1.721a.42.42,0,0,0-.233-.071H.421A.42.42,0,0,0,0,2.07V15.93a.42.42,0,0,0,.421.42H17.579A.42.42,0,0,0,18,15.93V3.7A.42.42,0,0,0,17.579,3.283Z" fill="#005ba1" />
    <rect x="1.636" y="2.455" width="4.091" height="0.818" rx="0.172" fill="#fff" />
    <rect x="1.636" y="2.455" width="0.818" height="0.818" rx="0.118" fill="#1ac3f2" />
    <path d="M17.579,3.263H8.956a.421.421,0,0,0-.3.123L7.272,4.773a.42.42,0,0,1-.3.123H.421A.42.42,0,0,0,0,5.316V15.91a.42.42,0,0,0,.421.419H17.579A.42.42,0,0,0,18,15.91V3.683A.42.42,0,0,0,17.579,3.263Z" fill="url(#f498f235-0180-489d-a2f2-c21b866b6bc5)" />
  </g>
</svg>