<svg xmlns="http://www.w3.org/2000/svg" width="18" height="18" viewBox="0 0 18 18">
  <defs>
    <linearGradient id="uuid-80d0ee39-64d9-4ee1-8250-0603d57e9ac0" x1="13.531" y1="16.719" x2="13.531" y2="7.779" gradientUnits="userSpaceOnUse">
      <stop offset="0" stop-color="#b3b2b3"/>
      <stop offset=".376" stop-color="#b5b4b5"/>
      <stop offset=".606" stop-color="#bdbdbd"/>
      <stop offset=".797" stop-color="#cbcbcb"/>
      <stop offset=".965" stop-color="#dfdfde"/>
      <stop offset="1" stop-color="#e5e5e4"/>
    </linearGradient>
    <linearGradient id="uuid-54cc4271-6fe4-40cc-a6c2-1ac11f708cc9" x1="16.648" x2="16.648" y2="7.779" gradientUnits="userSpaceOnUse">
      <stop offset="0" stop-color="#b3b2b3"/>
      <stop offset=".376" stop-color="#b5b4b5"/>
      <stop offset=".606" stop-color="#bdbdbd"/>
      <stop offset=".797" stop-color="#cbcbcb"/>
      <stop offset=".965" stop-color="#dfdfde"/>
      <stop offset="1" stop-color="#e5e5e4"/>
    </linearGradient>
    <linearGradient id="uuid-c0a1f4c9-1bf9-489f-84f2-00ae78a74dbc" x1="12.089" x2="12.089" y2="7.779" gradientUnits="userSpaceOnUse">
      <stop offset="0" stop-color="#b3b2b3"/>
      <stop offset=".376" stop-color="#b5b4b5"/>
      <stop offset=".606" stop-color="#bdbdbd"/>
      <stop offset=".797" stop-color="#cbcbcb"/>
      <stop offset=".965" stop-color="#dfdfde"/>
      <stop offset="1" stop-color="#e5e5e4"/>
    </linearGradient>
    <linearGradient id="uuid-aafafa4e-b08d-4853-a504-abe0e0b9d4e9" x1="15.786" y1="16.719" x2="15.786" y2="7.779" gradientUnits="userSpaceOnUse">
      <stop offset="0" stop-color="#b3b2b3"/>
      <stop offset=".376" stop-color="#b5b4b5"/>
      <stop offset=".606" stop-color="#bdbdbd"/>
      <stop offset=".797" stop-color="#cbcbcb"/>
      <stop offset=".965" stop-color="#dfdfde"/>
      <stop offset="1" stop-color="#e5e5e4"/>
    </linearGradient>
    <linearGradient id="uuid-1a76dd1c-00c3-44cd-afa6-78c113930345" x1="10.268" x2="10.268" y2="7.779" gradientUnits="userSpaceOnUse">
      <stop offset="0" stop-color="#b3b2b3"/>
      <stop offset=".376" stop-color="#b5b4b5"/>
      <stop offset=".606" stop-color="#bdbdbd"/>
      <stop offset=".797" stop-color="#cbcbcb"/>
      <stop offset=".965" stop-color="#dfdfde"/>
      <stop offset="1" stop-color="#e5e5e4"/>
    </linearGradient>
    <linearGradient id="uuid-a70c96be-5675-41e1-9f92-bdcbd20bfdeb" x1="13.268" x2="13.268" y2="7.779" gradientUnits="userSpaceOnUse">
      <stop offset="0" stop-color="#b3b2b3"/>
      <stop offset=".376" stop-color="#b5b4b5"/>
      <stop offset=".606" stop-color="#bdbdbd"/>
      <stop offset=".797" stop-color="#cbcbcb"/>
      <stop offset=".965" stop-color="#dfdfde"/>
      <stop offset="1" stop-color="#e5e5e4"/>
    </linearGradient>
  </defs>
  <g id="uuid-81d868a9-c8e3-473f-b549-da3e3ff36fdc">
    <rect x="-764.126" y="-169.242" width="1428" height="830" fill="#fff"/>
  </g>
  <g id="uuid-332504eb-7d4a-43e2-8569-49f117291345">
    <g>
      <path d="m5.981,9.35v-1.947h4.41v1.657c.205-.202.43-.383.672-.543v-1.114h4.41v.818c.286.138.553.306.801.499V1.918c0-.352-.285-.637-.637-.637H.637C.285,1.281,0,1.566,0,1.918v7.711C0,9.981.285,10.266.637,10.266h8.9c.164-.332.369-.637.607-.915h-4.163Zm1.833-2.615H3.404v-1.947h4.41v1.947Zm5.082,0h-4.41v-1.947h4.41v1.947Zm2.577,0h-1.833v-1.947h1.833v1.947Zm-4.41-4.562h4.41v1.947h-4.41v-1.947Zm-5.082,0h4.41v1.947h-4.41v-1.947ZM.9,2.173h4.41v1.947H.9v-1.947Zm0,2.615h1.833v1.947H.9v-1.947Zm4.41,4.562H.9v-1.947h4.41v1.947Z" fill="#821010"/>
      <rect x=".9" y="2.173" width="4.41" height="1.947" fill="#e62323"/>
      <rect x="5.981" y="2.173" width="4.41" height="1.947" fill="#ff7381"/>
      <rect x="11.063" y="2.173" width="4.41" height="1.947" fill="#e62323"/>
      <rect x=".9" y="4.789" width="1.833" height="1.947" fill="#e62323"/>
      <rect x="13.64" y="4.789" width="1.833" height="1.947" fill="#ff7381"/>
      <rect x="3.404" y="4.789" width="4.41" height="1.947" fill="#ff7381"/>
      <rect x="8.486" y="4.789" width="4.41" height="1.947" fill="#e62323"/>
      <rect x=".9" y="7.404" width="4.41" height="1.947" fill="#e62323"/>
      <path d="m5.981,7.404v1.947h4.163c.083-.097.157-.2.247-.29v-1.657h-4.41Z" fill="#ff7381"/>
      <path d="m13.549,7.779c.69,0,1.341.162,1.924.443v-.818h-4.41v1.114c.703-.465,1.543-.739,2.449-.739h.037Z" fill="#e62323"/>
      <path d="m17.97,11.707h-2.569c-.062,0-.103.052-.103.103v1.19c0,.093-.114.145-.186.083l-2.021-2.032c-.041-.041-.041-.103,0-.143l.638-.641h-4.193c-.295.595-.476,1.255-.476,1.964v.038c0,.162.008.321.025.478h2.61c.062,0,.103-.042.103-.103v-1.191c0-.091.112-.132.186-.072l2.021,2.032c.041.041.041.103,0,.143l-2.021,2.031c-.073.062-.186.011-.186-.082v-1.19c0-.052-.041-.103-.103-.103h-2.19c.723,1.484,2.244,2.506,4.005,2.506h.037c2.458,0,4.451-1.993,4.451-4.451v-.038c0-.177-.01-.352-.03-.523Z" fill="url(#uuid-80d0ee39-64d9-4ee1-8250-0603d57e9ac0)"/>
      <path d="m15.764,10.24h1.768c-.299-.597-.734-1.112-1.258-1.519v.908c0,.307-.221.551-.51.611Z" fill="url(#uuid-54cc4271-6fe4-40cc-a6c2-1ac11f708cc9)"/>
      <path d="m14.641,9.35h-3.578v-.833c-.241.16-.466.341-.672.543v.29h-.247c-.238.279-.443.583-.607.915h4.193l.911-.915Z" fill="#821010"/>
      <path d="m14.641,9.35h-3.578v-.833c-.241.16-.466.341-.672.543v.29h-.247c-.238.279-.443.583-.607.915h4.193l.911-.915Z" fill="url(#uuid-c0a1f4c9-1bf9-489f-84f2-00ae78a74dbc)"/>
      <path d="m15.473,9.35h-.175v.787c0,.062.041.103.103.103h.363c.289-.06.51-.305.51-.611v-.908c-.248-.193-.515-.362-.801-.499v1.129Z" fill="#821010"/>
      <path d="m15.473,9.35h-.175v.787c0,.062.041.103.103.103h.363c.289-.06.51-.305.51-.611v-.908c-.248-.193-.515-.362-.801-.499v1.129Z" fill="url(#uuid-aafafa4e-b08d-4853-a504-abe0e0b9d4e9)"/>
      <path d="m10.144,9.35h.247v-.29c-.091.089-.165.193-.247.29Z" fill="#ff7381"/>
      <path d="m10.144,9.35h.247v-.29c-.091.089-.165.193-.247.29Z" fill="url(#uuid-1a76dd1c-00c3-44cd-afa6-78c113930345)"/>
      <path d="m15.299,8.948v.403h.175v-1.129c-.583-.281-1.234-.443-1.924-.443h-.037c-.906,0-1.746.274-2.449.739v.833h3.578l.472-.475c.072-.062.186-.021.186.072Z" fill="#e62323"/>
      <path d="m15.299,8.948v.403h.175v-1.129c-.583-.281-1.234-.443-1.924-.443h-.037c-.906,0-1.746.274-2.449.739v.833h3.578l.472-.475c.072-.062.186-.021.186.072Z" fill="url(#uuid-a70c96be-5675-41e1-9f92-bdcbd20bfdeb)"/>
      <path d="m15.764,10.24h-.363c-.062,0-.103-.041-.103-.103v-1.19c0-.093-.114-.134-.186-.072l-.472.475-.911.915-.638.641c-.041.041-.041.103,0,.143l2.021,2.032c.072.062.186.01.186-.083v-1.19c0-.051.041-.103.103-.103h2.569c-.062-.522-.212-1.015-.439-1.465h-1.35s-.418-.001-.418-.001Z" fill="#e62323"/>
      <path d="m11.8,14.315v1.19c0,.093.112.143.186.082l2.021-2.031c.041-.041.041-.103,0-.143l-2.021-2.032c-.073-.06-.186-.02-.186.072v1.191c0,.06-.041.103-.103.103h-2.61c.056.52.201,1.015.42,1.467h2.19c.062,0,.103.051.103.103Z" fill="#fff"/>
    </g>
  </g>
</svg>