<svg xmlns="http://www.w3.org/2000/svg" width="18" height="18" viewBox="0 0 18 18">
  <defs>
    <linearGradient id="e9cf6479-52e4-4751-b03a-d6c070f5521c" x1="9" y1="17.486" x2="9" y2="3.792" gradientUnits="userSpaceOnUse">
      <stop offset="0" stop-color="#0078d4"/>
      <stop offset="0.156" stop-color="#1380da"/>
      <stop offset="0.528" stop-color="#3c91e5"/>
      <stop offset="0.822" stop-color="#559cec"/>
      <stop offset="1" stop-color="#5ea0ef"/>
    </linearGradient>
  </defs>
  <g id="fbd75248-e36e-4037-9f15-bf81dc2c796c">
    <g>
      <path d="M.038,9.142,4.4,16.69a.285.285,0,0,0,.246.142h8.716a.285.285,0,0,0,.246-.142l4.358-7.548a.283.283,0,0,0,0-.284L13.6,1.31a.285.285,0,0,0-.246-.142H4.642A.285.285,0,0,0,4.4,1.31L.038,8.858A.283.283,0,0,0,.038,9.142Z" fill="url(#e9cf6479-52e4-4751-b03a-d6c070f5521c)"/>
      <g>
        <g opacity="0.75">
          <path d="M10.834,4.414H8.72a.4.4,0,0,0-.4.4v8.375a.4.4,0,0,0,.4.4h2.114a.332.332,0,0,0,.331-.331V4.747A.333.333,0,0,0,10.834,4.414Zm-1.09,8.36a.345.345,0,1,1,.344-.344A.344.344,0,0,1,9.744,12.774Z" fill="#fff"/>
        </g>
        <path d="M7.685,4.414H4.019a.333.333,0,0,0-.332.333v8.507a.332.332,0,0,0,.332.331H7.685a.332.332,0,0,0,.332-.331V4.747A.333.333,0,0,0,7.685,4.414ZM7.6,9.707a.076.076,0,0,1-.075.076H4.179A.077.077,0,0,1,4.1,9.707V4.974A.075.075,0,0,1,4.179,4.9H7.526a.075.075,0,0,1,.075.076Z" fill="#fff"/>
        <g opacity="0.9">
          <path d="M13.981,4.414H11.869a.4.4,0,0,0-.4.4v8.375a.4.4,0,0,0,.4.4h2.112a.332.332,0,0,0,.332-.331V4.747A.333.333,0,0,0,13.981,4.414Zm-1.089,8.36a.345.345,0,1,1,.343-.344A.344.344,0,0,1,12.892,12.774Z" fill="#fff"/>
        </g>
      </g>
    </g>
  </g>
</svg>
