<svg xmlns="http://www.w3.org/2000/svg" viewBox="0 0 18 18">
  <defs>
    <linearGradient id="f22d06cf-2448-4a50-9b7d-656852aa6460" x1="8.965" y1="12.977" x2="8.965" y2="3.832" gradientUnits="userSpaceOnUse">
      <stop offset="0" stop-color="#005ba1" />
      <stop offset="0.82" stop-color="#0078d4" />
    </linearGradient>
    <linearGradient id="a8b147c0-4584-4b5b-a556-645a69e54e87" x1="8.965" y1="16.506" x2="8.965" y2="12.977" gradientUnits="userSpaceOnUse">
      <stop offset="0.149" stop-color="#ccc" />
      <stop offset="1" stop-color="#707070" />
    </linearGradient>
  </defs>
  <g id="fe1c065b-e650-4301-89c7-ecd8a166c802">
    <g opacity="0.5">
      <rect y="2.4" width="18" height="12" rx="0.6" fill="#0078d4" />
    </g>
    <path d="M13.328,2.4h-2a.173.173,0,1,0,0,.345h2a.173.173,0,1,0,0-.345Zm-4.072,0h-2a.173.173,0,0,0,0,.345h2a.173.173,0,1,0,0-.345Zm-4.071,0h-2a.173.173,0,0,0,0,.345h2a.173.173,0,0,0,0-.345Zm-4.072,0H.6A.6.6,0,0,0,0,3v.546a.173.173,0,0,0,.345,0V3A.255.255,0,0,1,.6,2.745h.513a.173.173,0,0,0,0-.345ZM.173,5.443A.173.173,0,0,0,0,5.616v2a.173.173,0,1,0,.345,0v-2a.173.173,0,0,0-.172-.173Zm0,4.072A.172.172,0,0,0,0,9.688v2a.173.173,0,1,0,.345,0v-2a.172.172,0,0,0-.172-.173Zm0,4.072A.172.172,0,0,0,0,13.759a.611.611,0,0,0,.6.641H1.619a.173.173,0,0,0,0-.345H.6A.255.255,0,0,1,.345,13.8v-.041a.172.172,0,0,0-.172-.172Zm5.517.468h-2a.173.173,0,0,0,0,.345h2a.173.173,0,1,0,0-.345Zm4.072,0h-2a.173.173,0,1,0,0,.345h2a.173.173,0,1,0,0-.345Zm4.072,0h-2a.173.173,0,1,0,0,.345h2a.173.173,0,0,0,0-.345Zm3.885-.143a.173.173,0,0,0-.129.057.251.251,0,0,1-.19.086H15.9a.173.173,0,0,0,0,.345H17.61l0,0h.02l0,0h.019l.006,0h.017l.006,0H17.7l.007,0h.015l.008-.006h.014l.007,0h.013l.007-.006h.016l0,0h.016l0,0h.032l0-.006h0a.172.172,0,0,0-.129-.287Zm.108-3.92a.172.172,0,0,0-.172.173v2a.173.173,0,1,0,.345,0v-2a.172.172,0,0,0-.173-.173Zm0-4.072a.173.173,0,0,0-.172.173v2a.173.173,0,1,0,.345,0v-2a.173.173,0,0,0-.173-.173ZM17.4,2.4h-2a.173.173,0,1,0,0,.345h2A.255.255,0,0,1,17.655,3V4.023a.173.173,0,0,0,.345,0V3a.6.6,0,0,0-.6-.6Z" fill="#0078d4" />
    <rect x="2.106" y="3.832" width="13.718" height="9.145" rx="0.457" fill="url(#f22d06cf-2448-4a50-9b7d-656852aa6460)" />
    <polygon points="11.252 7.071 11.252 9.731 8.965 11.072 8.965 8.405 11.252 7.071" fill="#76bc2d" />
    <path d="M8.965,8.412v2.66L6.679,9.731V7.071Zm2.287,1.319L8.965,8.4v2.667Z" fill="#86d633" />
    <path d="M11.716,15.744c-1.356-.214-1.409-1.189-1.409-2.767H7.616c0,1.578-.045,2.553-1.4,2.767a.761.761,0,0,0-.678.762H12.4A.763.763,0,0,0,11.716,15.744Z" fill="url(#a8b147c0-4584-4b5b-a556-645a69e54e87)" />
    <path d="M11.252,7.071,8.965,8.412,6.679,7.071,8.965,5.737Zm-2.287,4V8.4L6.679,9.731Z" fill="#b4ec36" />
  </g>
</svg>