<svg xmlns="http://www.w3.org/2000/svg" width="18" height="18" viewBox="0 0 18 18">
  <defs>
    <linearGradient id="effcce40-2a89-4360-b83c-f09ab63e643e" x1="13.05" y1="18.261" x2="13.05" y2="8.362" gradientUnits="userSpaceOnUse">
      <stop offset="0.026" stop-color="#773adc"/>
      <stop offset="0.985" stop-color="#a67af4"/>
    </linearGradient>
  </defs>
  <rect x="1.449" y="2.889" width="11.492" height="4.607" rx="0.376" fill="#005ba1"/>
  <rect x="2.583" y="0.001" width="9.225" height="6.949" rx="0.376" fill="#9cebff"/>
  <path d="M12.911,11.714v-1.3a.913.913,0,0,1,1.475-.723l.005,0V5.678a.751.751,0,0,0-.751-.751H.75A.75.75,0,0,0,0,5.678v7.638H9.417A5.535,5.535,0,0,1,12.911,11.714Z" fill="#5ea0ef"/>
  <rect x="1.866" y="10.092" width="10.655" height="1.493" rx="0.376" fill="#83b9f9"/>
  <circle cx="11.943" cy="7.308" r="0.357" fill="#c3f1ff"/>
  <path d="M10.763,12.331H0v1.277H9.162A5.018,5.018,0,0,1,10.763,12.331Z" fill="#0078d4"/>
  <path d="M11.808,11.923V10.351H2.582v4.787a.376.376,0,0,0,.376.376H8.11A5.306,5.306,0,0,1,11.808,11.923Z" fill="#9cebff"/>
  <path d="M13.366,17.6a.466.466,0,0,0,.463.4.453.453,0,0,0,.318-.13l3.71-3.56.047-.053a.464.464,0,0,0-.047-.617l-3.71-3.558-.051-.043a.448.448,0,0,0-.267-.087.464.464,0,0,0-.467.465V12.13l-.185.012c-2.939.228-4.661,2.042-5.072,5.334A.464.464,0,0,0,8.568,18a.455.455,0,0,0,.3-.115,7.713,7.713,0,0,1,4.279-2.018l.213-.019v1.687Z" fill="url(#effcce40-2a89-4360-b83c-f09ab63e643e)"/>
</svg>
