<svg xmlns="http://www.w3.org/2000/svg" width="18" height="18" viewBox="0 0 18 18">
  <defs>
    <linearGradient id="f0e9cd25-22b5-4daa-8dbc-fc76ec533c81" x1="9" y1="17.72" x2="9" y2="0.28" gradientUnits="userSpaceOnUse">
      <stop offset="0" stop-color="#0078d4"/>
      <stop offset="0.82" stop-color="#5ea0ef"/>
    </linearGradient>
  </defs>
  <title>Icon-428Artboard 1</title>
  <g id="addb7ecc-b20b-416d-8175-961df8de08c2">
    <g>
      <path d="M10,.41H2.57A.59.59,0,0,0,2,1V17a.59.59,0,0,0,.58.59H15.43A.59.59,0,0,0,16,17V6.41a.59.59,0,0,0-.58-.59H11.16a.58.58,0,0,1-.58-.58V1A.6.6,0,0,0,10,.41Z" fill="#fff"/>
      <path d="M9.72,1.16v4a1.48,1.48,0,0,0,1.47,1.48h4.05V16.84H2.76V1.16h7M10,.28H2.48a.6.6,0,0,0-.6.6V17.12a.6.6,0,0,0,.6.6h13a.6.6,0,0,0,.6-.6V6.37a.59.59,0,0,0-.6-.59H11.19a.59.59,0,0,1-.59-.6V.88a.6.6,0,0,0-.6-.6Z" fill="url(#f0e9cd25-22b5-4daa-8dbc-fc76ec533c81)"/>
      <path d="M15.89,5.9,10.39.41V4.88a1,1,0,0,0,1,1Z" fill="#0078d4"/>
      <path d="M5.27,10.2,8.5,7a.15.15,0,0,1,.23,0L12,10.2a.16.16,0,0,1-.11.28H10a.17.17,0,0,0-.17.17v4.17a.17.17,0,0,1-.16.17h-2a.17.17,0,0,1-.16-.17V10.65a.17.17,0,0,0-.17-.17H5.38A.16.16,0,0,1,5.27,10.2Z" fill="#32bedd"/>
    </g>
  </g>
</svg>
