<svg xmlns="http://www.w3.org/2000/svg" viewBox="0 0 18 18">
  <defs>
    <linearGradient id="b6f810a3-df2a-42b7-9d1b-1fd6c7cbf978" x1="3.239" y1="9.574" x2="3.239" y2="16.04" gradientUnits="userSpaceOnUse">
      <stop offset="0" stop-color="#ffd70f" />
      <stop offset="1" stop-color="#fea11b" />
    </linearGradient>
    <linearGradient id="f9ccf2a0-ea5f-463f-9f63-322c46394e03" x1="11.685" y1="1.96" x2="11.685" y2="14.691" gradientUnits="userSpaceOnUse">
      <stop offset="0" stop-color="#86d633" />
      <stop offset="0.994" stop-color="#76bc2d" />
    </linearGradient>
  </defs>
  <g id="afa781e9-6f85-40f9-825f-4887b4156afc">
    <path id="a3157103-dd6e-480b-af33-c27a729e8fdb" d="M6.479,13.116v-.757h0L5.71,12.1l-.2-.517L5.9,10.8v-.088l-.239-.24-.29-.289h-.1l-.756.378L4,10.418l-.328-.844H2.924l-.252.768-.567.253-.844-.479L.706,10.6v.1l.378.744-.214.517L0,12.334v.782H.113l.8.264.214.517-.4.87.53.529h.1l.756-.378.517.214.328.908h.743v-.114l.265-.794.5-.214.883.4.529-.529v-.1L5.5,13.947l.138-.529Zm-3.164.693a1.059,1.059,0,1,1,1.046-1.072v.013h0a1.058,1.058,0,0,1-1.046,1.008Z" fill="url(#b6f810a3-df2a-42b7-9d1b-1fd6c7cbf978)" />
    <path id="a36d48cd-2787-48b1-9c1a-d150174c137d" d="M18,8.88V7.405l-.076-.063-1.537-.529L16,5.805l.781-1.513.076-.164-.466-.5-.555-.592-.2.1-1.475.757L13.147,3.6,12.5,1.96H11.042l-.076.076-.5,1.5-1.033.39-1.7-.806L6.693,4.153l.1.2.769,1.462L7.147,6.826,5.37,7.468V8.943l.214.063,1.563.517L7.563,10.6l-.807,1.7L7.79,13.342l.2-.088L9.466,12.5l1.009.416.643,1.777h1.487v-.315l.517-1.563,1-.416,1.727.794,1.033-1.033-.1-.2L16.059,10.6l.29-1.034Zm-6.189,1.362a2.068,2.068,0,1,1,2.055-2.08h0A2.08,2.08,0,0,1,11.811,10.242Z" fill="url(#f9ccf2a0-ea5f-463f-9f63-322c46394e03)" />
  </g>
</svg>