<svg xmlns="http://www.w3.org/2000/svg" width="18" height="18" viewBox="0 0 18 18">
  <defs>
    <linearGradient id="e3c654cc-d452-4b51-986c-9d0a859cf619" x1="9" x2="9" y2="18.483" gradientUnits="userSpaceOnUse">
      <stop offset="0" stop-color="#a67af4"/>
      <stop offset="0.999" stop-color="#773adc"/>
    </linearGradient>
  </defs>
  <g id="ed465659-227a-406a-b693-8ae2649570e0">
    <path d="M18,11.053a2.159,2.159,0,0,1-2.087,2.04,2.134,2.134,0,0,1-1.359-.446.28.28,0,0,0-.455.219v4.558a.576.576,0,0,1-.576.576H9.139a.28.28,0,0,1-.244-.419A2.13,2.13,0,0,0,9.189,16.5a2.14,2.14,0,0,0-4.28,0A2.127,2.127,0,0,0,5.2,17.57a.282.282,0,0,1-.238.43H.576A.576.576,0,0,1,0,17.424V13.049a.28.28,0,0,1,.418-.244A2.14,2.14,0,1,0,.429,9.1.282.282,0,0,1,0,8.856V4.276A.576.576,0,0,1,.576,3.7H4.993a.28.28,0,0,0,.24-.426,2.14,2.14,0,1,1,3.638-.01.282.282,0,0,0,.234.436h4.416a.576.576,0,0,1,.576.577V9.038a.28.28,0,0,0,.449.225A2.141,2.141,0,0,1,18,11.053Z" fill="url(#e3c654cc-d452-4b51-986c-9d0a859cf619)"/>
  </g>
</svg>
