<svg xmlns="http://www.w3.org/2000/svg" width="18" height="18" viewBox="0 0 18 18">
  <defs>
    <linearGradient id="b1183702-47bf-4fa5-a39f-da381d528098" x1="161.48" y1="528.095" x2="161.48" y2="537.376" gradientTransform="matrix(1, 0, 0, -1, -156, 545.516)" gradientUnits="userSpaceOnUse">
      <stop offset="0" stop-color="#773adc"/>
      <stop offset="1" stop-color="#a67af4"/>
    </linearGradient>
  </defs>
  <g id="b1f7b4fc-beab-4b51-aa89-2231fd22d890">
    <g>
      <path d="M7.956,5.084H6.7V4.4H7.956ZM5.782,6.249H5.1V7.505h.681Zm0,6.147v-.218H5.1V12.4a.948.948,0,0,0,.947.947h.084v-.68H6.048A.267.267,0,0,1,5.782,12.4Zm1.07.947H8.108v-.68H6.852ZM9.932,4.4H8.676v.68H9.932ZM5.1,11.457h.681V10.2H5.1ZM12.713,4.4h-.084v.68h.084a.267.267,0,0,1,.266.267V5.57h.68V5.351A.947.947,0,0,0,12.713,4.4ZM5.782,8.225H5.1V9.481h.681Zm0-2.855A.267.267,0,0,1,6.047,5.1h.084v-.68H6.047A.947.947,0,0,0,5.1,5.37v.219h.68Zm7.2,4.153h.68V8.267h-.68Zm-4.151,3.82h1.256v-.68H8.828ZM12.979,11.5h.68V10.243h-.68Zm0-3.952h.68V6.291h-.68ZM12.968,12.4a.268.268,0,0,1-.267.267h-.083v.68H12.7a.948.948,0,0,0,.947-.947v-.219h-.68ZM11.909,4.4H10.653v.68h1.256Zm-1.1,8.939h1.256v-.68H10.805Z" fill="#773adc"/>
      <path d="M12.178.579h1.256v.68H12.178Zm3.232,0H14.155v.68H15.41ZM8.6,1.544v.219h.679V1.544a.268.268,0,0,1,.267-.267h.084V.6H9.549A.947.947,0,0,0,8.6,1.544Zm5.7,7.973h1.256v-.68H14.306ZM8.6,3.678h.68V2.423H8.6Zm1.6-2.419h1.256V.579H10.2Zm6.013-.68h-.084v.68h.084a.267.267,0,0,1,.266.266v.219h.68V1.525A.948.948,0,0,0,16.215.579Zm.255,7.993a.267.267,0,0,1-.267.266h-.084v.681H16.2a.947.947,0,0,0,.946-.947V8.353H16.47Zm.011-4.851h.68V2.465h-.68Zm0,3.952h.68V6.417h-.68Zm0-1.976h.68V4.441h-.68Z" fill="#a67af4"/>
      <rect x="0.839" y="8.139" width="9.282" height="9.282" rx="0.615" fill="url(#b1183702-47bf-4fa5-a39f-da381d528098)"/>
      <path d="M9.144,16.608H1.813a.164.164,0,0,1-.164-.165V9.117a.166.166,0,0,1,.164-.165H9.14a.165.165,0,0,1,.165.165v7.326A.164.164,0,0,1,9.144,16.608Z" fill="#773adc"/>
      <rect x="2.723" y="9.646" width="1.928" height="6.268" fill="#b796f9"/>
      <rect x="6.31" y="9.645" width="1.928" height="6.269" fill="#b796f9"/>
    </g>
  </g>
</svg>
