<svg id="uuid-51b35f6d-33b3-4772-9384-3cc8ff34eb3c" xmlns="http://www.w3.org/2000/svg" width="18" height="18" viewBox="0 0 18 18">
  <defs>
    <linearGradient id="uuid-bc01e3a4-6f51-46ac-addb-a32bf377eab4" x1=".974" y1="12.55" x2="17.392" y2="6.875" gradientUnits="userSpaceOnUse">
      <stop offset=".002" stop-color="#8de971"/>
      <stop offset=".104" stop-color="#87e36d"/>
      <stop offset=".237" stop-color="#76d263"/>
      <stop offset=".386" stop-color="#5cb852"/>
      <stop offset=".47" stop-color="#4aa647"/>
    </linearGradient>
    <linearGradient id="uuid-e716e668-5240-4985-9685-e5b53b4471a3" x1="12.396" y1="16.093" x2="12.396" y2="9.254" gradientUnits="userSpaceOnUse">
      <stop offset="0" stop-color="#f4364c"/>
      <stop offset=".277" stop-color="#f0354b"/>
      <stop offset=".51" stop-color="#e63448"/>
      <stop offset=".728" stop-color="#d43244"/>
      <stop offset=".935" stop-color="#bc2f3f"/>
      <stop offset="1" stop-color="#b32e3d"/>
    </linearGradient>
    <linearGradient id="uuid-58fb3e4c-c900-4d15-9b86-6faa66d789e5" x1="12.396" y1="10.826" x2="12.396" y2=".375" gradientUnits="userSpaceOnUse">
      <stop offset=".001" stop-color="#ff5c39"/>
      <stop offset=".498" stop-color="#ff7f62"/>
    </linearGradient>
  </defs>
  <ellipse cx="7.823" cy="10.182" rx="7.448" ry="7.443" fill="url(#uuid-bc01e3a4-6f51-46ac-addb-a32bf377eab4)"/>
  <path d="M16.07,9.713c-.14-.132-.301-.243-.483-.334-.181-.091-.384-.132-.606-.124h-5.122c-.223,0-.429.041-.619.124s-.359.194-.507.334c-.148.14-.264.309-.346.507-.082.198-.124.408-.124.631,0,.429.157.8.47,1.113l3.675,3.672c.305.305.676.457,1.114.457.528,0,.944-.223,1.25-.668.19-.272.388-.602.594-.989.206-.387.396-.8.569-1.236.173-.437.313-.865.421-1.286.107-.42.165-.795.173-1.125,0-.206-.041-.404-.124-.593-.082-.19-.194-.35-.334-.482Z" fill="url(#uuid-e716e668-5240-4985-9685-e5b53b4471a3)"/>
  <path d="M17.613,9.138c-.189-1.124-.539-2.178-1.05-3.161-.511-.983-1.149-1.856-1.912-2.618-.763-.763-1.641-1.404-2.632-1.923-.991-.519-2.046-.869-3.163-1.05-.039-.008-.075-.012-.106-.012h-.118c-.197,0-.386.039-.567.118-.181.079-.334.185-.46.318-.126.134-.232.291-.319.472-.087.181-.126.37-.118.566v7.466c0,.212.039.409.118.59.079.181.185.338.319.472.134.134.295.244.484.33.189.086.386.126.59.118h7.471c.205,0,.393-.039.567-.118.173-.079.33-.181.472-.307.142-.126.248-.279.319-.46s.11-.373.118-.578v-.106c0-.031-.004-.071-.012-.118Z" fill="url(#uuid-58fb3e4c-c900-4d15-9b86-6faa66d789e5)"/>
</svg>