<svg xmlns="http://www.w3.org/2000/svg" viewBox="0 0 18 18">
  <path d="M14.428,6.615a.526.526,0,0,1-.438-.235L11.351,2.415a2.643,2.643,0,0,0-4.443,0L5.43,4.7a.525.525,0,0,1-.882-.57L6.026,1.839a3.694,3.694,0,0,1,6.2,0L14.865,5.8a.526.526,0,0,1-.437.817Z" fill="#fff" />
  <path d="M14.3,15.538H11.131a.526.526,0,0,1,0-1.051H14.3a2.644,2.644,0,0,0,2.22-4.078L15.342,8.581a.525.525,0,0,1,.883-.569L17.4,9.84a3.694,3.694,0,0,1-3.1,5.7Z" fill="#fff" />
  <path d="M7.269,15.538H4.322a3.694,3.694,0,0,1-3.1-5.7L3.166,6.863a.525.525,0,0,1,.879.575L2.1,10.412a2.643,2.643,0,0,0,2.221,4.075H7.269a.526.526,0,0,1,0,1.051Z" fill="#fff" />
  <circle cx="13.398" cy="4.597" r="2.85" fill="#fff" />
  <path d="M2.849,5.382A2.85,2.85,0,1,0,5.7,8.231,2.85,2.85,0,0,0,2.849,5.382Z" fill="#fff" />
  <path d="M11.828,12.149A2.85,2.85,0,1,0,14.679,15,2.851,2.851,0,0,0,11.828,12.149Z" fill="#fff" />​
</svg>