<svg xmlns="http://www.w3.org/2000/svg" width="16" height="16" viewBox="0 0 16 16">
  <path d="M8.4,5.7H6.6L5.4,11.5a6.06,6.06,0,0,1-.5,1.2,4.4,4.4,0,0,1-.8,1.1,2.79,2.79,0,0,1-1,.9,3.094,3.094,0,0,1-1.3.3H1.4L1,14.8l-.3-.2a.6.6,0,0,1-.1-.4,1.392,1.392,0,0,1,.2-.6l.5-.2h.4l.2.2.3.3.2.3h.5l.3-.4.3-.6a1.392,1.392,0,0,0,.2-.6.8.8,0,0,0,.2-.5c0-.2.1-.3.1-.5l1.3-6H3.9L4.1,5H5.4V4.5a6.06,6.06,0,0,1,.5-1.2,7.489,7.489,0,0,1,.7-1.2l1.2-.8A2.807,2.807,0,0,1,9.1,1h.4l.4.2a.2.2,0,0,1,.2.2.6.6,0,0,1,.1.4,1.3,1.3,0,0,1-.1.6l-.6.2H9.1l-.2-.2-.3-.5-.2-.3-.5.2-.4.5L7.2,3c-.1.3-.1.5-.2.8a1.7,1.7,0,0,0-.1.7c-.1.2-.1.4-.2.5H8.5Zm5.2.5-.5.4-.4.5-.4.6-.3.5.2.6c0,.2.1.4.1.7a1.072,1.072,0,0,0,.2.6c.1.2.1.4.3.5a1,1,0,0,0,.4.5h1.5v.4l-.5.2-.4.2H12.3c-.2-.1-.3-.1-.4-.3l-.3-.4c0-.2-.1-.3-.1-.5a2.506,2.506,0,0,1-.2-.7,1.9,1.9,0,0,1-.2-.7l-.6.9-.6.9-.4.3-.3.3-.4.2H8.3l-.5-.2c-.2-.1-.2-.3-.2-.5a.6.6,0,0,1,.1-.4l.2-.2.3-.2H9.4l.9-.9.6-1.1h0a.8.8,0,0,0-.1-.4,4.294,4.294,0,0,1-.1-.5c-.1-.2-.1-.4-.2-.6a1.392,1.392,0,0,0-.2-.6l-.2-.4-.2-.3h-1l-.4.2V5.4h.3l.5-.2L9.7,5h.9c.2,0,.3.2.4.3l.3.4a1.392,1.392,0,0,0,.2.6c0,.2.1.4.1.6a1.421,1.421,0,0,0,.2.6h0l.3-.5.4-.6a2.092,2.092,0,0,1,.4-.6c.2-.2.3-.4.5-.5l.5-.4.6-.2a1.1,1.1,0,0,1,.6.2,1.1,1.1,0,0,1,.2.6.4.4,0,0,1-.1.3L15,6l-.3.2Z"/>
</svg>
