<svg id="f979ac95-5fcd-4178-b41e-ce55446df184" xmlns="http://www.w3.org/2000/svg" width="18" height="18" viewBox="0 0 18 18">
  <defs>
    <linearGradient id="a84853c1-eecd-4c12-a025-0729331bd453" x1="8.969" y1="5.881" x2="8.969" gradientUnits="userSpaceOnUse">
      <stop offset="0.001" stop-color="#773adc"/>
      <stop offset="1" stop-color="#a67af4"/>
    </linearGradient>
    <linearGradient id="a60d5746-06c9-4565-b544-1a536dbbaa92" x1="2.624" y1="4.031" x2="2.624" y2="8.833" gradientTransform="matrix(1, 0, 0, -1, 0, 20)" gradientUnits="userSpaceOnUse">
          <stop offset="0.001" stop-color="#773adc"/>
      <stop offset="1" stop-color="#a67af4"/>
    </linearGradient>
    <linearGradient id="e51f4891-2bce-4d34-807b-666ab8a559d4" x1="9.025" y1="2" x2="9.025" y2="6.802" gradientTransform="matrix(1, 0, 0, -1, 0, 20)" gradientUnits="userSpaceOnUse">
          <stop offset="0.001" stop-color="#773adc"/>
      <stop offset="1" stop-color="#a67af4"/>
    </linearGradient>
    <linearGradient id="f433a0bd-0204-4a29-99f4-40b65ba3511c" x1="15.376" y1="3.999" x2="15.376" y2="8.801" gradientTransform="matrix(1, 0, 0, -1, 0, 20)" gradientUnits="userSpaceOnUse">
          <stop offset="0.001" stop-color="#773adc"/>
      <stop offset="1" stop-color="#a67af4"/>
    </linearGradient>
  </defs>
  <path d="M15.509,7.868H10.052a.293.293,0,0,1-.293-.293h0V5.491H8.293V7.575A.294.294,0,0,1,8,7.868H2.479a.587.587,0,0,0-.587.587v2.7H3.358v-1.5a.294.294,0,0,1,.294-.293H8.293V13.28H9.759V9.368h4.577a.293.293,0,0,1,.293.293h0v1.53H16.1V8.455a.587.587,0,0,0-.587-.587Z" fill="#50e6ff"/>
  <rect x="6.029" width="5.881" height="5.881" rx="0.532" fill="url(#a84853c1-eecd-4c12-a025-0729331bd453)"/>
  <rect x="7.158" y="1.13" width="3.622" height="3.622" rx="0.328" fill="#fff"/>
  <rect x="0.223" y="11.167" width="4.802" height="4.802" rx="0.435" fill="url(#a60d5746-06c9-4565-b544-1a536dbbaa92)"/>
  <rect x="6.624" y="13.198" width="4.802" height="4.802" rx="0.435" fill="url(#e51f4891-2bce-4d34-807b-666ab8a559d4)"/>
  <rect x="12.975" y="11.199" width="4.802" height="4.802" rx="0.435" fill="url(#f433a0bd-0204-4a29-99f4-40b65ba3511c)"/>
</svg>
