<svg viewBox="0 0 16 16" xmlns="http://www.w3.org/2000/svg">
  <path d="M0 2V13.5C0 13.7761 0.223858 14 0.500001 14H5.973C6.11431 13.6461 6.29468 13.3065 6.50806 13H6.5V10H3.5V13H1V2C1 1.44772 1.44772 1 2 1H8C8.55229 1 9 1.44771 9 2V5.98606C9.30363 5.76451 9.6398 5.58489 10 5.45571V2C10 0.895431 9.10457 0 8 0H2C0.895431 0 0 0.89543 0 2ZM5.5 13H4.5V11H5.5V13Z" fill="#000" />
  <path d="M3.75 4C4.16421 4 4.5 3.66421 4.5 3.25C4.5 2.83579 4.16421 2.5 3.75 2.5C3.33579 2.5 3 2.83579 3 3.25C3 3.66421 3.33579 4 3.75 4Z" fill="#000" />
  <path d="M3.75 6.5C4.16421 6.5 4.5 6.16421 4.5 5.75C4.5 5.33579 4.16421 5 3.75 5C3.33579 5 3 5.33579 3 5.75C3 6.16421 3.33579 6.5 3.75 6.5Z" fill="#000" />
  <path d="M4.5 8.25C4.5 8.66421 4.16421 9 3.75 9C3.33579 9 3 8.66421 3 8.25C3 7.83579 3.33579 7.5 3.75 7.5C4.16421 7.5 4.5 7.83579 4.5 8.25Z" fill="#000" />
  <path d="M6.25 4C6.66421 4 7 3.66421 7 3.25C7 2.83579 6.66421 2.5 6.25 2.5C5.83579 2.5 5.5 2.83579 5.5 3.25C5.5 3.66421 5.83579 4 6.25 4Z" fill="#000" />
  <path d="M7 5.75C7 6.16421 6.66421 6.5 6.25 6.5C5.83579 6.5 5.5 6.16421 5.5 5.75C5.5 5.33579 5.83579 5 6.25 5C6.66421 5 7 5.33579 7 5.75Z" fill="#000" />
  <path d="M6.25 9C6.66421 9 7 8.66421 7 8.25C7 7.83579 6.66421 7.5 6.25 7.5C5.83579 7.5 5.5 7.83579 5.5 8.25C5.5 8.66421 5.83579 9 6.25 9Z" fill="#000" />
  <path d="M8.5 9.49808C8.5 7.84186 9.84263 6.49923 11.4988 6.49923C13.1551 6.49923 14.4977 7.84186 14.4977 9.49808C14.4977 10.4703 14.0351 11.3344 13.3179 11.8824C14.8977 12.5809 16 14.1617 16 16.0001H15C15 14.0671 13.433 12.5001 11.5 12.5001C9.567 12.5001 8 14.0671 8 16.0001H7C7 14.1623 8.10166 12.5818 9.68061 11.883C8.963 11.3351 8.5 10.4707 8.5 9.49808ZM11.4988 7.49923C10.3949 7.49923 9.5 8.39415 9.5 9.49808C9.5 10.602 10.3949 11.4969 11.4988 11.4969C12.6028 11.4969 13.4977 10.602 13.4977 9.49808C13.4977 8.39415 12.6028 7.49923 11.4988 7.49923Z" fill="#000" />
</svg>