<svg xmlns="http://www.w3.org/2000/svg" width="18" height="18" viewBox="0 0 18 18">
  <defs>
    <linearGradient id="b38c7a06-a2b9-4e47-a778-1c5ba414b5c7" x1="14.427" y1="16.36" x2="14.427" y2="0.887" gradientUnits="userSpaceOnUse">
      <stop offset="0" stop-color="#005ba1"/>
      <stop offset="1" stop-color="#0078d4"/>
    </linearGradient>
    <linearGradient id="a542c6ca-79c7-4ac2-8fd3-b5d7e4ad256a" x1="-39.861" y1="789.463" x2="-39.861" y2="777.491" gradientTransform="matrix(1, 0, 0, -1, 48.58, 791.516)" gradientUnits="userSpaceOnUse">
      <stop offset="0" stop-color="#5ea0ef"/>
      <stop offset="1" stop-color="#0078d4"/>
    </linearGradient>
  </defs>
  <path d="M17.7,1.91C14.681,1.831,15.378.5,13.114.5a3.232,3.232,0,0,0-2.261.84,3.879,3.879,0,0,1,.8.47,3.775,3.775,0,0,0,2.52.746.757.757,0,0,1,.737.753v4a7.088,7.088,0,0,1-2.407,4.8c.188.128.343.227.449.293a.3.3,0,0,0,.318,0C14.116,11.882,18,9.292,18,6.079V2.216A.307.307,0,0,0,17.7,1.91Z" fill="url(#b38c7a06-a2b9-4e47-a778-1c5ba414b5c7)"/>
  <path d="M14.167,3c-3.129-.082-2.407-1.458-4.753-1.458S7.791,2.913,4.662,3a.318.318,0,0,0-.31.317v4a4.545,4.545,0,0,0,.264,1.5c.013.036-1.547,1.069-1.534,1.105.666,1.788,2.73,3.569,3.9,4.455h0c.057,0,1.069-1.331,1.125-1.331h0c.451.337.94.7,1.142.826a.321.321,0,0,0,.331,0c.873-.543,4.9-3.226,4.9-6.555v-4A.316.316,0,0,0,14.167,3Z" fill="#0078d4"/>
  <path d="M14.057,7.349c0,3.054-3.687,5.5-4.491,6.011a.294.294,0,0,1-.3,0c-.8-.495-4.491-2.957-4.491-6.011V3.676a.289.289,0,0,1,.282-.289c2.868-.075,2.208-1.334,4.36-1.334s1.493,1.259,4.361,1.334a.289.289,0,0,1,.282.289Z" fill="#6bb9f2"/>
  <path d="M9.414,7.727V2.053c2.153,0,1.493,1.259,4.361,1.334a.3.3,0,0,1,.282.3V7.356a3.28,3.28,0,0,1,0,.371Zm0,0H4.793A4.278,4.278,0,0,0,5,8.69c.007.018-1.633,1-1.626,1.013A12.373,12.373,0,0,0,7.27,14.025c.048.032,1.071-1.294,1.116-1.261.385.284.7.487.877.6a.261.261,0,0,0,.124.041h.027Z" fill="url(#a542c6ca-79c7-4ac2-8fd3-b5d7e4ad256a)"/>
  <path d="M5.054,3.387c2.868-.075,2.208-1.334,4.36-1.334V7.727H4.793a3.28,3.28,0,0,1,0-.371V3.683A.3.3,0,0,1,5.054,3.387Z" fill="#50e6ff"/>
  <path d="M14.036,7.727H9.414V13.4h0a.261.261,0,0,0,.124-.041C10.336,12.885,13.761,10.6,14.036,7.727Z" fill="#50e6ff"/>
  <circle cx="5.272" cy="11.82" r="2.929" fill="#fff" opacity="0.3"/>
  <path d="M3.371,13.869l.154.153h0a.517.517,0,0,1,0,.731L.932,17.346a.517.517,0,0,1-.731,0l-.05-.05h0a.518.518,0,0,1,0-.731l2.7-2.7A.369.369,0,0,1,3.371,13.869Z" fill="#32bedd"/>
  <path d="M2.1,11.82a3.168,3.168,0,1,1,3.168,3.168A3.168,3.168,0,0,1,2.1,11.82Zm.477,0h0A2.691,2.691,0,1,0,5.272,9.13,2.691,2.691,0,0,0,2.581,11.821Z" fill="#50e6ff"/>
</svg>
