<svg xmlns="http://www.w3.org/2000/svg" width="18" height="18" viewBox="0 0 18 18">
  <defs>
    <linearGradient id="aed05a4c-4dff-4810-9286-a43dff432682" x1="9" y1="17.253" x2="9" y2="0.747" gradientUnits="userSpaceOnUse">
      <stop offset="0" stop-color="#b31b1b"/>
      <stop offset="1" stop-color="#e62323"/>
    </linearGradient>
    <linearGradient id="f3840ac9-4332-4789-af3b-c395bb3e3d4a" x1="8.891" y1="12.283" x2="8.891" y2="4.59" gradientUnits="userSpaceOnUse">
      <stop offset="0" stop-color="#ebd0d0"/>
      <stop offset="1" stop-color="#fff"/>
    </linearGradient>
  </defs>
  <g id="a1736d44-5479-4b86-8405-f67ddd8f4e39">
    <g>
      <path d="M16.364,8.4c0,4.84-5.849,8.736-7.122,9.526a.459.459,0,0,1-.484,0c-1.273-.79-7.122-4.686-7.122-9.526V2.582a.463.463,0,0,1,.452-.462C6.638,2,5.59,0,9,0s2.362,2,6.912,2.12a.463.463,0,0,1,.452.462Z" fill="#b31b1b"/>
      <path d="M15.754,8.454c0,4.438-5.365,8.011-6.532,8.736a.418.418,0,0,1-.444,0c-1.167-.725-6.532-4.3-6.532-8.736V3.114a.425.425,0,0,1,.415-.423C6.834,2.578,5.873.747,9,.747s2.166,1.831,6.339,1.944a.425.425,0,0,1,.415.423Z" fill="url(#aed05a4c-4dff-4810-9286-a43dff432682)"/>
    </g>
    <path d="M8.933,5.7a.222.222,0,0,1-.171-.081L7.316,3.865a.222.222,0,0,1,.343-.282L8.932,5.129l1.254-1.545a.222.222,0,1,1,.344.28L9.105,5.62a.227.227,0,0,1-.171.082Z" fill="#fff"/>
    <path d="M5.123,7.808A.221.221,0,0,1,4.9,7.586V6.925a.223.223,0,0,1,.128-.2L7.362,5.63a.222.222,0,1,1,.189.4L5.345,7.067v.519A.222.222,0,0,1,5.123,7.808Z" fill="#fff"/>
    <path d="M5.123,9.825A.221.221,0,0,1,4.9,9.6V8.942a.223.223,0,0,1,.128-.2L7.362,7.646a.222.222,0,1,1,.189.4L5.345,9.083V9.6A.222.222,0,0,1,5.123,9.825Z" fill="#fff" opacity="0.8"/>
    <path d="M5.123,11.945a.222.222,0,0,1-.222-.222v-.661a.222.222,0,0,1,.128-.2l2.333-1.1a.222.222,0,1,1,.189.4L5.345,11.2v.52A.223.223,0,0,1,5.123,11.945Z" fill="#fff" opacity="0.6"/>
    <path d="M12.746,7.808a.222.222,0,0,1-.222-.222V7.067L10.318,6.032a.222.222,0,1,1,.188-.4l2.335,1.094a.222.222,0,0,1,.127.2v.661A.221.221,0,0,1,12.746,7.808Z" fill="#fff"/>
    <path d="M12.746,9.825a.222.222,0,0,1-.222-.222v-.52L10.318,8.048a.222.222,0,1,1,.188-.4l2.335,1.095a.222.222,0,0,1,.127.2V9.6A.221.221,0,0,1,12.746,9.825Z" fill="#fff" opacity="0.8"/>
    <path d="M12.746,11.945a.223.223,0,0,1-.222-.222V11.2l-2.206-1.035a.222.222,0,1,1,.188-.4l2.335,1.1a.221.221,0,0,1,.127.2v.661A.222.222,0,0,1,12.746,11.945Z" fill="#fff" opacity="0.6"/>
    <path d="M11.179,6.877a2.288,2.288,0,0,0-4.575,0V10a2.288,2.288,0,0,0,4.575,0Z" fill="url(#f3840ac9-4332-4789-af3b-c395bb3e3d4a)"/>
    <path d="M10.906,5.794a2.286,2.286,0,0,0-.932-.932.667.667,0,0,0,.932.932Z" fill="#ff7381"/>
    <path d="M6.876,5.794a.667.667,0,0,0,1.062-.537.661.661,0,0,0-.13-.395A2.3,2.3,0,0,0,6.876,5.794Z" fill="#ff7381"/>
  </g>
</svg>
