<svg id="uuid-1803dff3-6cae-4917-9774-91e044f9bf17" xmlns="http://www.w3.org/2000/svg" width="18" height="18" viewBox="0 0 18 18">
  <defs>
    <linearGradient id="uuid-daf44e97-dd98-4a0e-a078-07bd3afdb447" x1="7.847" y1="9.003" x2="7.847" y2="3.853" gradientUnits="userSpaceOnUse">
      <stop offset=".003" stop-color="#a58ad4"/>
      <stop offset=".999" stop-color="#c5b4e3"/>
    </linearGradient>
    <linearGradient id="uuid-2f1a0b0d-214a-4d7f-82e9-234a20b9ccf8" x1="5.593" y1="14.121" x2="5.593" y2="6.455" gradientUnits="userSpaceOnUse">
      <stop offset=".001" stop-color="#8661c5"/>
      <stop offset="1" stop-color="#a58ad4"/>
    </linearGradient>
    <linearGradient id="uuid-92af02d1-4a72-46e0-b5da-2598f37fa353" x1="10.087" y1="14.122" x2="10.087" y2="6.431" gradientUnits="userSpaceOnUse">
      <stop offset="0" stop-color="#664b96"/>
      <stop offset=".999" stop-color="#8661c5"/>
    </linearGradient>
    <linearGradient id="uuid-50ee3475-5a0f-4b1c-b483-e61f04ee8dec" x1="8.47" y1="13.132" x2="11.148" y2="8.867" gradientUnits="userSpaceOnUse">
      <stop offset="0" stop-color="#664b96"/>
      <stop offset="1" stop-color="#463668"/>
    </linearGradient>
  </defs>
  <g>
    <path d="M4.412,2.3c0-.755-.612-1.367-1.367-1.367s-1.367.612-1.367,1.367.612,1.367,1.367,1.367,1.367-.612,1.367-1.367ZM3.752,4.295c-.755,0-1.367.612-1.367,1.367s.612,1.367,1.367,1.367,1.367-.612,1.367-1.367-.612-1.367-1.367-1.367Z" fill="#b9dcd2"/>
    <path d="M1.476.717C1.476.321,1.155,0,.759,0S.041.321.041.717s.321.717.717.717.717-.321.717-.717ZM5.924,3.136c-.396,0-.717.321-.717.717s.321.717.717.717.717-.321.717-.717-.321-.717-.717-.717ZM1.06,4.347c-.396,0-.717.321-.717.717s.321.717.717.717.717-.321.717-.717-.321-.717-.717-.717ZM3.412,7.921c-.396,0-.717.321-.717.717s.321.717.717.717.717-.321.717-.717-.321-.717-.717-.717Z" fill="#6eccbc"/>
  </g>
  <g>
    <path d="M12.282,6.431c-.042-.074-.104-.137-.18-.182l-3.996-2.328c-.154-.09-.344-.09-.498,0l-4.001,2.323c-.086.05-.153.125-.195.212l4.415,2.549,4.456-2.573Z" fill="url(#uuid-daf44e97-dd98-4a0e-a078-07bd3afdb447)"/>
    <path d="M3.412,6.455c-.032.067-.051.14-.051.217v4.633c0,.176.094.34.246.428l4.001,2.323c.068.039.142.06.218.065v-5.117l-4.415-2.549Z" fill="url(#uuid-2f1a0b0d-214a-4d7f-82e9-234a20b9ccf8)"/>
    <path d="M7.826,9.003v5.117c.096.006.194-.015.28-.065l3.996-2.323c.152-.089.246-.252.246-.428v-4.628c0-.088-.023-.172-.066-.246l-4.456,2.573Z" fill="url(#uuid-92af02d1-4a72-46e0-b5da-2598f37fa353)"/>
  </g>
  <path d="M11.534,9.491c0,.83-.549,1.822-1.226,2.216s-1.226.041-1.226-.789.549-1.822,1.226-2.216,1.226-.041,1.226.789Z" fill="url(#uuid-50ee3475-5a0f-4b1c-b483-e61f04ee8dec)"/>
  <path d="M11.627,13.374c-.538,0-.974.436-.974.974s.436.974.974.974.974-.436.974-.974-.436-.974-.974-.974ZM11.627,10.695c-.538,0-.974.436-.974.974s.436.974.974.974.974-.436.974-.974-.436-.974-.974-.974ZM16.985,12.642c.538,0,.974-.436.974-.974s-.436-.974-.974-.974-.974.436-.974.974.436.974.974.974ZM11.627,16.053c-.538,0-.974.436-.974.974s.436.974.974.974.974-.436.974-.974-.436-.974-.974-.974ZM14.306,16.053c-.538,0-.974.436-.974.974s.436.974.974.974.974-.436.974-.974-.436-.974-.974-.974ZM16.985,16.053c-.538,0-.974.436-.974.974s.436.974.974.974.974-.436.974-.974-.436-.974-.974-.974ZM14.306,13.374c-.538,0-.974.436-.974.974s.436.974.974.974.974-.436.974-.974-.436-.974-.974-.974ZM16.985,13.374c-.538,0-.974.436-.974.974s.436.974.974.974.974-.436.974-.974-.436-.974-.974-.974ZM14.306,10.695c-.538,0-.974.436-.974.974s.436.974.974.974.974-.436.974-.974-.436-.974-.974-.974Z" fill="#41afa1"/>
  <path d="M10.007,8.925c-.413.369-.743.944-.869,1.513.161.153.377.248.617.248.496,0,.899-.402.899-.899,0-.409-.273-.753-.647-.862Z" fill="#41afa1"/>
</svg>