<svg xmlns="http://www.w3.org/2000/svg" width="18" height="18" viewBox="0 0 18 18">
  <defs>
    <linearGradient id="fb9223e9-95ad-4019-b407-45a899bd2347" x1="8.638" y1="-0.078" x2="8.638" y2="17.197" gradientUnits="userSpaceOnUse">
      <stop offset="0" stop-color="#b4ec36"/>
      <stop offset="1" stop-color="#76bc2d"/>
    </linearGradient>
  </defs>
  <path d="M9.567,14.179a4.619,4.619,0,0,1,4.614-4.614,4.56,4.56,0,0,1,2.029.491l.817-.817a.847.847,0,0,0,0-1.2L9.237.25a.848.848,0,0,0-1.2,0L.248,8.041a.847.847,0,0,0,0,1.2l7.79,7.79a.848.848,0,0,0,1.2,0l.821-.821A4.56,4.56,0,0,1,9.567,14.179Z" fill="url(#fb9223e9-95ad-4019-b407-45a899bd2347)"/>
  <path d="M14.181,10.36A3.819,3.819,0,1,0,18,14.179,3.819,3.819,0,0,0,14.181,10.36Zm2.136,2.656-2.323,2.975a.239.239,0,0,1-.363.016l-1.573-1.689a.192.192,0,0,1-.051-.139.2.2,0,0,1,.062-.136l.4-.368a.195.195,0,0,1,.273.01l1.019,1.094,1.817-2.327a.2.2,0,0,1,.153-.075.19.19,0,0,1,.118.041l.432.333A.19.19,0,0,1,16.317,13.016Z" fill="#5e9624"/>
</svg>
