<svg xmlns="http://www.w3.org/2000/svg" width="18" height="18" viewBox="0 0 18 18">
  <defs>
    <linearGradient id="f51d171c-0bc0-4817-85f9-b6b037c84d94" x1="9" y1="15.231" x2="9" y2="2.769" gradientUnits="userSpaceOnUse">
      <stop offset="0" stop-color="#198ab3"/>
      <stop offset="0.132" stop-color="#21a0c7"/>
      <stop offset="0.31" stop-color="#28b7db"/>
      <stop offset="0.502" stop-color="#2ec7ea"/>
      <stop offset="0.717" stop-color="#31d1f2"/>
      <stop offset="1" stop-color="#32d4f5"/>
    </linearGradient>
    <linearGradient id="af9dd3e3-bb16-4961-bf90-2d7a9c0731eb" x1="5.114" y1="-343.454" x2="5.114" y2="-352.088" gradientTransform="translate(3.086 367.031) scale(1.156 1.029)" gradientUnits="userSpaceOnUse">
      <stop offset="0" stop-color="#fff"/>
      <stop offset="0.269" stop-color="#fff" stop-opacity="0.986"/>
      <stop offset="0.509" stop-color="#fff" stop-opacity="0.944"/>
      <stop offset="0.738" stop-color="#fff" stop-opacity="0.872"/>
      <stop offset="0.959" stop-color="#fff" stop-opacity="0.772"/>
      <stop offset="1" stop-color="#fff" stop-opacity="0.75"/>
    </linearGradient>
  </defs>
  <g id="e06e3369-dfd3-4866-bf47-1813fe468827">
    <g>
      <path d="M17.792,11.328a3.95,3.95,0,0,0-3.429-3.8A4.98,4.98,0,0,0,9.234,2.769,5.108,5.108,0,0,0,4.353,6.1,4.715,4.715,0,0,0,.208,10.634a4.784,4.784,0,0,0,4.951,4.6c.147,0,.292-.007.436-.018h8.018a.782.782,0,0,0,.212-.032A4,4,0,0,0,17.792,11.328Z" fill="url(#f51d171c-0bc0-4817-85f9-b6b037c84d94)"/>
      <g>
        <path d="M8.6,9.794h-2a.108.108,0,0,1-.113-.1.092.092,0,0,1,.01-.042L8.9,4.915a.114.114,0,0,1,.1-.06h2.364a.108.108,0,0,1,.113.1.089.089,0,0,1-.02.056L8.644,8.72h2.744a.107.107,0,0,1,.113.1.092.092,0,0,1-.029.067L6.911,13.631c-.042.025-.347.277-.2-.105h0Z" fill="url(#af9dd3e3-bb16-4961-bf90-2d7a9c0731eb)"/>
        <path d="M11.366,4.855a.108.108,0,0,1,.113.1.089.089,0,0,1-.02.056L8.644,8.72h2.744a.107.107,0,0,1,.113.1.092.092,0,0,1-.029.067L6.911,13.631c-.024.015-.136.105-.2.105-.045,0-.063-.048,0-.21L8.6,9.794h-2a.108.108,0,0,1-.113-.1.092.092,0,0,1,.01-.042L8.9,4.915a.114.114,0,0,1,.1-.06h2.364m0-.287H9a.4.4,0,0,0-.36.217l-2.4,4.737a.378.378,0,0,0-.041.171.4.4,0,0,0,.4.388H8.135L6.457,13.4l-.006.013,0,.012a.483.483,0,0,0,0,.462.321.321,0,0,0,.269.14.6.6,0,0,0,.34-.14l.01-.008.028-.016.027-.029,4.559-4.741a.377.377,0,0,0,.112-.268.4.4,0,0,0-.4-.388H9.223l2.465-3.247a.378.378,0,0,0,.078-.23.4.4,0,0,0-.4-.388Z" fill="#fff"/>
      </g>
    </g>
  </g>
</svg>
