<svg xmlns="http://www.w3.org/2000/svg" width="18" height="18" viewBox="0 0 18 18">
  <defs>
    <linearGradient id="fe380bf3-3739-44fb-b941-1f76f75e4b2e" x1="9.116" y1="18.947" x2="9.116" y2="11.29" gradientUnits="userSpaceOnUse">
      <stop offset="0" stop-color="#0078d4"/>
      <stop offset="1" stop-color="#5ea0ef"/>
    </linearGradient>
    <linearGradient id="a44af727-2225-4c4c-ada8-d288d64549ae" x1="9" y1="7.187" x2="9" y2="0.868" gradientUnits="userSpaceOnUse">
      <stop offset="0" stop-color="#0078d4"/>
      <stop offset="1" stop-color="#5ea0ef"/>
    </linearGradient>
    <linearGradient id="acf0f278-8a54-4cbb-a506-ba2d779fa57f" x1="9.039" y1="3.406" x2="9.039" y2="5.817" gradientUnits="userSpaceOnUse">
      <stop offset="0.016" stop-color="#86d633"/>
      <stop offset="1" stop-color="#76bc2d"/>
    </linearGradient>
    <linearGradient id="b64b04ac-b1b0-4689-811a-e1327fdad522" x1="9.117" y1="13.729" x2="9.117" y2="15.661" gradientUnits="userSpaceOnUse">
      <stop offset="0.016" stop-color="#86d633"/>
      <stop offset="1" stop-color="#76bc2d"/>
    </linearGradient>
  </defs>
  <g id="b3feff61-4723-4d5b-86a8-7fcae2c970a8" >
    <path d="M14.53,15.594a2.46,2.46,0,0,1-2.442,2.373.447.447,0,0,1-.131.019H7.021c-.087.008-.178.012-.268.012A2.946,2.946,0,0,1,3.7,15.171a2.9,2.9,0,0,1,2.553-2.8A3.146,3.146,0,0,1,8.2,10.49V14.1a1.254,1.254,0,0,0-.348.87,1.268,1.268,0,1,0,2.187-.868V10.4a3.068,3.068,0,0,1,2.383,2.858A2.433,2.433,0,0,1,14.53,15.594Z" fill="url(#fe380bf3-3739-44fb-b941-1f76f75e4b2e)"/>
    <path d="M9.644,14.272a.871.871,0,0,0-1.055,0V5.893L9.643,5.9Z" fill="#a3a3a3"/>
    <path d="M6.309,9.3l-.636.636a.3.3,0,0,1-.337,0L1.354,6.024,2.379,4.991,6.309,8.9A.3.3,0,0,1,6.309,9.3Zm5.322-.418a.188.188,0,0,0-.034.035.256.256,0,0,0,.034.362l.635.657a.3.3,0,0,0,.4,0l3.981-3.915L15.619,4.991Z" fill="#00e9ff"/>
    <path d="M6.269,1.069,2.379,4.991,1.354,6.024l-.205-.2L1.12,5.794.729,5.41.722,5.4A.549.549,0,0,1,.563,5a.539.539,0,0,1,.07-.287.521.521,0,0,1,.1-.125L5.276.076a.3.3,0,0,1,.4,0l.6.6A.212.212,0,0,1,6.3.706.256.256,0,0,1,6.269,1.069Zm11,3.534-.476-.477-.139-.145h0L12.762.076a.3.3,0,0,0-.4,0l-.635.6a.3.3,0,0,0,0,.4l3.889,3.922,1.025,1.033.383-.375.242-.239.01-.008a.54.54,0,0,0,.155-.348.362.362,0,0,0,0-.093A.543.543,0,0,0,17.269,4.6Z" fill="url(#a44af727-2225-4c4c-ada8-d288d64549ae)"/>
    <path d="M12.5,3.862a1.092,1.092,0,1,1-1.092,1.092A1.092,1.092,0,0,1,12.5,3.862ZM4.482,4.954A1.092,1.092,0,1,0,5.574,3.862,1.092,1.092,0,0,0,4.482,4.954Zm3.544,0A1.093,1.093,0,1,0,9.118,3.862,1.092,1.092,0,0,0,8.026,4.954Z" fill="url(#acf0f278-8a54-4cbb-a506-ba2d779fa57f)"/>
    <path d="M9.992,14.97a.876.876,0,1,1-1.4-.7.871.871,0,0,1,1.055,0A.876.876,0,0,1,9.992,14.97Z" fill="url(#b64b04ac-b1b0-4689-811a-e1327fdad522)"/>
  </g>
</svg>
