<svg xmlns="http://www.w3.org/2000/svg" width="18" height="18" viewBox="0 0 18 18">
  <defs>
    <linearGradient id="eba064be-b006-4517-ab3f-77822c173f0e" x1="14.249" y1="16.95" x2="14.249" y2="9.698" gradientUnits="userSpaceOnUse">
      <stop offset="0.001" stop-color="#773adc"/>
      <stop offset="1" stop-color="#a67af4"/>
    </linearGradient>
    <linearGradient id="eefdb382-cf2e-4325-9489-636fd137f555" x1="9.018" y1="17.647" x2="8.634" y2="2.207" gradientUnits="userSpaceOnUse">
      <stop offset="0" stop-color="#0078d4"/>
      <stop offset="1" stop-color="#5ea0ef"/>
    </linearGradient>
  </defs>
  <g id="ba656ea5-6e78-4aa9-822b-08e936ae06a1">
    <g>
      <path d="M10.182,13.324a4.065,4.065,0,0,1,7.293-2.471V3.026a.4.4,0,0,0-.406-.4H9.5a.41.41,0,0,1-.225-.068L7.114,1.118A.4.4,0,0,0,6.89,1.05H.531a.4.4,0,0,0-.406.4h0v13.36a.4.4,0,0,0,.405.4H10.652A4.047,4.047,0,0,1,10.182,13.324Z" fill="#005ba1"/>
      <rect x="1.702" y="1.825" width="3.943" height="0.788" rx="0.166" fill="#fff"/>
      <circle cx="14.249" cy="13.324" r="3.626" fill="url(#eba064be-b006-4517-ab3f-77822c173f0e)"/>
      <path d="M10.182,13.324a4.065,4.065,0,0,1,7.293-2.471V3.009a.405.405,0,0,0-.405-.4H8.758a.4.4,0,0,0-.289.119L7.134,4.06a.4.4,0,0,1-.289.118H.531a.406.406,0,0,0-.406.4h0V14.8a.406.406,0,0,0,.406.4H10.642A4.043,4.043,0,0,1,10.182,13.324Z" fill="url(#eefdb382-cf2e-4325-9489-636fd137f555)"/>
      <g>
        <path d="M12.393,11.091a.256.256,0,0,0-.184-.077h0a.261.261,0,0,0-.261.261.26.26,0,0,0,.076.185l1.408,1.408-1.017,1.016a.6.6,0,0,0-.152.262l-.306,1.124A.257.257,0,0,0,12,15.5a.264.264,0,0,0,.207.1.267.267,0,0,0,.069-.009l1.124-.307a.583.583,0,0,0,.262-.152l1.017-1.016,1.407,1.407a.261.261,0,1,0,.369-.369ZM12.208,15.5a.125.125,0,0,1-.026-.007.165.165,0,0,0,.07,0A.172.172,0,0,1,12.208,15.5Zm1.086-.741a.075.075,0,0,1-.03.017l-.683.186.186-.682a.058.058,0,0,1,.018-.03L13.8,13.237l.509.509Z" fill="#fff"/>
        <path d="M14.2,12.7l.068.068.068-.068.564-.564.509.509-.564.564-.068.069.068.068.233.233.068.068.068-.068L16.292,12.5a.882.882,0,1,0-1.248-1.247l-1.078,1.078L13.9,12.4l.069.068Zm1.214-1.078a.36.36,0,0,1,.509.509l-.144.145-.51-.509Z" fill="#fff"/>
      </g>
    </g>
  </g>
</svg>
