<svg id="ee0efcfc-ad2e-441d-8da0-037841517cc6" xmlns="http://www.w3.org/2000/svg" viewBox="0 0 18 18">
  <defs>
    <linearGradient id="ed748595-83de-4406-a0e1-2014e03a61d8" x1="9" y1="16.499" x2="9" y2="1.5" gradientUnits="userSpaceOnUse">
      <stop offset="0" stop-color="#5e9624" />
      <stop offset="0.822" stop-color="#86d633" />
    </linearGradient>
  </defs>
  <path d="M18,2.118V13.587a.617.617,0,0,1-.618.615H12.6a.151.151,0,0,0-.15.149V16.2a.3.3,0,0,1-.483.237l-2.883-2.2a.147.147,0,0,0-.092-.032H.618A.617.617,0,0,1,0,13.589V2.118A.62.62,0,0,1,.618,1.5H17.382A.62.62,0,0,1,18,2.118Z" fill="url(#ed748595-83de-4406-a0e1-2014e03a61d8)" />
  <g>
    <path d="M9.554,3.517a.64.64,0,1,1-.639-.641h0A.641.641,0,0,1,9.554,3.517Z" fill="#f2f2f2" />
    <path d="M9.528,12.259a.639.639,0,1,1-.637-.641.639.639,0,0,1,.637.641Z" fill="#f2f2f2" />
    <path d="M6.821,10.8V9.371a2.752,2.752,0,0,0,1.762.657,2,2,0,0,0,.476-.048,1.1,1.1,0,0,0,.34-.135.6.6,0,0,0,.2-.205.52.52,0,0,0,.067-.256.555.555,0,0,0-.106-.336,1.166,1.166,0,0,0-.292-.273,3.176,3.176,0,0,0-.439-.242q-.254-.117-.548-.238a2.813,2.813,0,0,1-1.117-.767A1.673,1.673,0,0,1,6.8,6.437,1.723,1.723,0,0,1,7,5.578a1.7,1.7,0,0,1,.548-.59,2.451,2.451,0,0,1,.8-.339,4.068,4.068,0,0,1,.965-.107,5.705,5.705,0,0,1,.886.063,3.506,3.506,0,0,1,.712.187V6.128a2.2,2.2,0,0,0-.35-.2,2.853,2.853,0,0,0-.391-.142,3.024,3.024,0,0,0-.4-.084A2.846,2.846,0,0,0,9.4,5.678a1.978,1.978,0,0,0-.447.045,1.181,1.181,0,0,0-.34.131.663.663,0,0,0-.215.2.492.492,0,0,0-.076.266.5.5,0,0,0,.084.288.968.968,0,0,0,.24.242,2.533,2.533,0,0,0,.379.224c.149.074.317.149.5.227a5.747,5.747,0,0,1,.689.344,2.44,2.44,0,0,1,.523.41,1.591,1.591,0,0,1,.334.521,1.822,1.822,0,0,1,.114.682,1.816,1.816,0,0,1-.206.9,1.65,1.65,0,0,1-.553.588,2.424,2.424,0,0,1-.811.321,4.639,4.639,0,0,1-.976.1,5.331,5.331,0,0,1-1-.092A3,3,0,0,1,6.821,10.8Z" fill="#f2f2f2" />
  </g>
</svg>