<svg xmlns="http://www.w3.org/2000/svg" width="16" height="16" viewBox="0 0 16 16">
  <polygon points="16 13 16 14 14 14 14 16 13 16 13 14 11 14 11 13 13 13 13 11 14 11 14 13 16 13"/>
  <path d="M10.6,11h1c0-.2-.1-.3-.1-.5a6,6,0,0,0-.9-1.3L9.5,8.1,8.1,7.4a2.71,2.71,0,0,0,.8-.7l.6-.8A3.575,3.575,0,0,0,9.9,5,3.405,3.405,0,0,0,10,4a4.1,4.1,0,0,0-.3-1.6,3.4,3.4,0,0,0-.9-1.2A3.4,3.4,0,0,0,7.6.3,4.1,4.1,0,0,0,6,0,4.1,4.1,0,0,0,4.4.3a3.4,3.4,0,0,0-1.2.9,3.4,3.4,0,0,0-.9,1.2A4.1,4.1,0,0,0,2,4a3.8,3.8,0,0,0,.5,1.9A4,4,0,0,0,3.9,7.4a5.121,5.121,0,0,0-1.6.9A4.89,4.89,0,0,0,1.1,9.6a4.784,4.784,0,0,0-.8,1.6A5.711,5.711,0,0,0,0,13H1a5.068,5.068,0,0,1,.2-1.3,3.287,3.287,0,0,1,.5-1.2,3.907,3.907,0,0,1,.8-1,3.907,3.907,0,0,1,1-.8,3.287,3.287,0,0,1,1.2-.5L6,8a4.7,4.7,0,0,1,1.7.3l1.5.8a6.908,6.908,0,0,1,1.1,1.3ZM7.2,6.8,6,7,4.8,6.8l-.9-.7-.7-.9A5.028,5.028,0,0,1,3,4a5.028,5.028,0,0,1,.2-1.2l.7-.9.9-.7L6,1l1.2.2.9.7.7.9A5.028,5.028,0,0,1,9,4a5.028,5.028,0,0,1-.2,1.2l-.7.9Z"/>
</svg>
