<svg xmlns="http://www.w3.org/2000/svg" width="18" height="18" viewBox="0 0 18 18">
  <defs>
    <linearGradient id="f745dfd1-398a-437d-ae0e-82dda1ce8444" x1="8.316" y1="792.508" x2="7.948" y2="777.693" gradientTransform="matrix(1, 0, 0, -1, 0, 791.516)" gradientUnits="userSpaceOnUse">
      <stop offset="0" stop-color="#ffd400"/>
      <stop offset="1" stop-color="#ffbd02"/>
    </linearGradient>
    <linearGradient id="b9a313fe-3d77-4d81-bcd6-73b024771076" x1="8.316" y1="792.508" x2="7.948" y2="777.693" gradientTransform="matrix(1, 0, 0, -1, 0, 791.516)" gradientUnits="userSpaceOnUse">
      <stop offset="0" stop-color="#5ea0ef"/>
      <stop offset="1" stop-color="#0078d4"/>
    </linearGradient>
  </defs>
  <g id="b77a4003-88a0-4b4e-9c38-3c40f8c27608">
    <g>
      <g id="b5f852f7-c7fa-4886-8093-97812db4d7e6">
        <g>
          <path d="M15.8,1.523H8.744a.381.381,0,0,1-.21-.063L6.518.119a.382.382,0,0,0-.21-.064H.378A.377.377,0,0,0,0,.432H0V12.891a.378.378,0,0,0,.378.378H15.8a.377.377,0,0,0,.378-.377h0V1.9A.378.378,0,0,0,15.8,1.523Z" fill="#dfa500"/>
          <rect x="1.471" y="0.779" width="3.677" height="0.735" rx="0.155" fill="#fff"/>
          <path d="M15.8,1.505H8.05a.377.377,0,0,0-.269.111L6.537,2.862a.376.376,0,0,1-.27.111H.378A.377.377,0,0,0,0,3.35H0v9.522a.377.377,0,0,0,.378.377H15.8a.377.377,0,0,0,.378-.377h0V1.883a.377.377,0,0,0-.377-.378Z" fill="url(#f745dfd1-398a-437d-ae0e-82dda1ce8444)"/>
        </g>
        <g>
          <path d="M15.8,1.523H8.744a.381.381,0,0,1-.21-.063L6.518.119a.382.382,0,0,0-.21-.064H.378A.377.377,0,0,0,0,.432H0V12.891a.378.378,0,0,0,.378.378H15.8a.377.377,0,0,0,.378-.377h0V1.9A.378.378,0,0,0,15.8,1.523Z" fill="#005ba1"/>
          <rect x="1.471" y="0.779" width="3.677" height="0.735" rx="0.155" fill="#fff"/>
          <path d="M15.8,1.505H8.05a.377.377,0,0,0-.269.111L6.537,2.862a.376.376,0,0,1-.27.111H.378A.377.377,0,0,0,0,3.35H0v9.522a.377.377,0,0,0,.378.377H15.8a.377.377,0,0,0,.378-.377h0V1.883a.377.377,0,0,0-.377-.378Z" fill="url(#b9a313fe-3d77-4d81-bcd6-73b024771076)"/>
        </g>
        <rect x="1.471" y="0.776" width="0.741" height="0.741" rx="0.16" fill="#50e6ff"/>
      </g>
      <g>
        <path d="M17.864,12.566a.4.4,0,0,0-.19-.1.1.1,0,0,0-.03-.005.065.065,0,0,0-.02,0h-.6V10.649a3.428,3.428,0,0,0-.876-2.307,2.909,2.909,0,0,0-4.358,0,3.367,3.367,0,0,0-.877,2.307V12.46h-.473a.217.217,0,0,0-.057.006l-.013,0a.409.409,0,0,0-.339.4v4.673a.412.412,0,0,0,.044.175.406.406,0,0,0,.128.154.42.42,0,0,0,.237.078h7.148A.418.418,0,0,0,18,17.538V12.865A.41.41,0,0,0,17.864,12.566Zm-5.53-1.945a1.863,1.863,0,0,1,.51-1.266A1.461,1.461,0,0,1,14.905,9.2a1.58,1.58,0,0,1,.159.158,1.866,1.866,0,0,1,.19.254,1.763,1.763,0,0,1,.354,1.012l0,1.839H12.334Z" fill="#ffbd02"/>
        <path d="M18,12.865v4.673a.415.415,0,0,1-.161.319L14.031,15.22l-3.842-2.658h0a.346.346,0,0,1,.111-.068.36.36,0,0,1,.058-.02l.016-.005.013,0,.03,0a.118.118,0,0,1,.027,0h7.181a.065.065,0,0,1,.02,0,.1.1,0,0,1,.03.005.385.385,0,0,1,.088.025.457.457,0,0,1,.109.069l-.007,0A.41.41,0,0,1,18,12.865Z" fill="#ffd400"/>
        <path d="M17.873,12.561h0l-.007,0L14.031,15.22l-3.825,2.647-.012.008a.4.4,0,0,1-.116-.162.374.374,0,0,1-.029-.144v-4.7a.417.417,0,0,1,.14-.306.444.444,0,0,1,.11-.069.38.38,0,0,1,.117-.03.176.176,0,0,1,.033,0h7.175a.065.065,0,0,1,.02,0,.337.337,0,0,1,.118.03A.369.369,0,0,1,17.873,12.561Z" fill="#fff" opacity="0.2"/>
      </g>
      <path d="M8.929,10.459c-.6,0-1.208,0-1.812,0a.311.311,0,0,1-.285-.4c.211-.681.412-1.364.62-2.046.02-.066.015-.1-.048-.137a1.154,1.154,0,0,1-.572-1.168,1.122,1.122,0,0,1,.772-.98A1.2,1.2,0,0,1,8.625,7.9l-.059.035c.167.552.331,1.1.5,1.645.05.167.1.334.15.5A.294.294,0,0,1,8.929,10.459Z" fill="#005ba1"/>
    </g>
  </g>
</svg>
