<svg xmlns="http://www.w3.org/2000/svg" width="18" height="18" viewBox="0 0 18 18">
  <g id="uuid-81cf057c-ff75-4803-9a10-fe44c632e0c8"/>
  <g id="uuid-b8784509-f923-44ee-a3b9-d40f96b60fd9">
    <g>
      <path d="M18,9c0-1.574-.406-3.052-1.117-4.34,.387-.44,.629-1.011,.629-1.643,0-1.381-1.119-2.5-2.5-2.5-.628,0-1.196,.24-1.635,.623-1.296-.724-2.788-1.14-4.378-1.14s-3.082,.416-4.378,1.14c-.439-.383-1.007-.623-1.635-.623C1.606,.517,.487,1.636,.487,3.017c0,.632,.242,1.203,.63,1.643-.71,1.287-1.116,2.766-1.116,4.34,0,1.594,.418,3.089,1.146,4.388-.405,.444-.659,1.03-.659,1.679,0,1.381,1.119,2.5,2.5,2.5,.656,0,1.247-.258,1.693-.671,1.282,.703,2.754,1.104,4.32,1.104s3.037-.401,4.32-1.104c.446,.413,1.038,.671,1.693,.671,1.381,0,2.5-1.119,2.5-2.5,0-.649-.253-1.234-.659-1.678,.727-1.299,1.146-2.794,1.146-4.388ZM13.617,2.478c.125-.324,.36-.589,.658-.759,.219-.125,.468-.202,.738-.202,.827,0,1.5,.673,1.5,1.5,0,.272-.078,.523-.205,.743-.172,.297-.438,.53-.762,.654-.166,.064-.344,.102-.533,.102-.827,0-1.5-.673-1.5-1.5,0-.19,.039-.371,.104-.539ZM2.987,1.517c.269,0,.519,.077,.738,.202,.298,.17,.533,.436,.658,.759,.065,.168,.104,.348,.104,.539,0,.827-.673,1.5-1.5,1.5-.188,0-.366-.039-.532-.102-.324-.124-.591-.357-.762-.654-.127-.22-.205-.472-.205-.744,0-.827,.673-1.5,1.5-1.5Zm1.417,14.02c-.11,.33-.327,.608-.615,.792-.233,.148-.507,.237-.802,.237-.827,0-1.5-.673-1.5-1.5,0-.291,.087-.561,.231-.792,.181-.29,.458-.509,.787-.622,.152-.052,.312-.086,.482-.086,.827,0,1.5,.673,1.5,1.5,0,.165-.033,.322-.083,.471Zm10.609,1.029c-.296,0-.57-.089-.802-.237-.288-.184-.505-.462-.615-.792-.05-.149-.083-.306-.083-.471,0-.827,.673-1.5,1.5-1.5,.17,0,.33,.034,.482,.087,.328,.113,.605,.332,.787,.622,.144,.23,.231,.5,.231,.792,0,.827-.673,1.5-1.5,1.5Zm0-4c-1.381,0-2.5,1.119-2.5,2.5,0,.359,.079,.698,.215,1.007-1.114,.59-2.382,.927-3.728,.927s-2.613-.338-3.728-.927c.136-.308,.215-.648,.215-1.006,0-1.381-1.119-2.5-2.5-2.5-.368,0-.714,.084-1.028,.226-.611-1.129-.959-2.421-.959-3.793,0-1.346,.337-2.613,.927-3.727,.323,.152,.68,.244,1.06,.244,1.381,0,2.5-1.119,2.5-2.5,0-.386-.095-.746-.25-1.073,1.123-.601,2.403-.945,3.764-.945s2.641,.343,3.763,.944c-.156,.326-.25,.687-.25,1.073,0,1.381,1.119,2.5,2.5,2.5,.381,0,.737-.092,1.06-.244,.589,1.114,.927,2.381,.927,3.727,0,1.372-.348,2.663-.959,3.793-.314-.143-.661-.227-1.029-.227Z" fill="#212121"/>
      <g>
        <path d="M11.874,10.037H6.125c-.621,0-1.124,.503-1.124,1.124v.289c0,.446,.159,.878,.449,1.217,.783,.917,1.976,1.369,3.548,1.369s2.765-.452,3.55-1.369c.291-.34,.45-.772,.45-1.219v-.288c0-.621-.503-1.124-1.124-1.124Z" fill="#212121"/>
        <path d="M8.998,9.04c1.38,0,2.499-1.119,2.499-2.499s-1.119-2.499-2.499-2.499-2.499,1.119-2.499,2.499,1.119,2.499,2.499,2.499Z" fill="#212121"/>
      </g>
    </g>
  </g>
</svg>