<svg xmlns="http://www.w3.org/2000/svg" width="18" height="18" viewBox="0 0 18 18">
  <defs>
    <radialGradient id="e46ac789-e53b-40ed-aefc-4e47de04f54c" cx="7.927" cy="7.478" r="7.242" gradientUnits="userSpaceOnUse">
      <stop offset="0.18" stop-color="#5ea0ef"/>
      <stop offset="1" stop-color="#0078d4"/>
    </radialGradient>
    <radialGradient id="e56b7a80-9a81-442b-b87b-ae71e0684015" cx="12.64" cy="10.702" r="2.842" gradientUnits="userSpaceOnUse">
          <stop offset="0.18" stop-color="#5ea0ef"/>
      <stop offset="1" stop-color="#0078d4"/>
    </radialGradient>
    <linearGradient id="e2a49ced-845e-4bb7-80a5-2701c36115ce" x1="-559.97" y1="1015.954" x2="-559.995" y2="1019.318" gradientTransform="matrix(1, 0, 0, -1, 564, 1025.516)" gradientUnits="userSpaceOnUse">
      <stop offset="0" stop-color="#ccc"/>
      <stop offset="1" stop-color="#fcfcfc"/>
    </linearGradient>
    <radialGradient id="b8e0ac70-78cc-4dff-8ebd-430b89c878cf" cx="-1312.284" cy="786.168" r="5.003" gradientTransform="translate(1326 -774.484)" gradientUnits="userSpaceOnUse">
      <stop offset="0" stop-color="#936bff"/>
      <stop offset="0.8" stop-color="#8255ff"/>
    </radialGradient>
    <linearGradient id="b618c8bd-cc9c-42d3-a035-4b41c092cb70" x1="-1312.269" y1="1735.121" x2="-1312.229" y2="1730.101" gradientTransform="matrix(1, 0, 0, -1, 1326, 1745.032)" gradientUnits="userSpaceOnUse">
      <stop offset="0" stop-color="#f2f2f2"/>
      <stop offset="1" stop-color="#fff" stop-opacity="0"/>
    </linearGradient>
  </defs>
  <g id="b1c6dbcf-da27-4eed-baa3-5e23fb34c14d">
    <g>
      <g>
        <path d="M10.715,13.618a4.306,4.306,0,0,1-.961-2.058,4.06,4.06,0,0,1-.025-.493,3.967,3.967,0,0,1,3.948-3.915h.074a4.087,4.087,0,0,1,.456.026,3.963,3.963,0,0,1,.942.243A7.23,7.23,0,0,0,3.586,1.675l-.076.051a7.24,7.24,0,0,0,7.483,12.29C10.9,13.88,10.808,13.748,10.715,13.618Z" fill="url(#e46ac789-e53b-40ed-aefc-4e47de04f54c)"/>
        <path d="M14.16,7.585a3.493,3.493,0,0,0-.409-.024h-.074a3.543,3.543,0,0,0-3.539,3.51,3.451,3.451,0,0,0,.023.443,5.242,5.242,0,0,0,1.2,2.315,7.264,7.264,0,0,0,1.024-.655,7.22,7.22,0,0,0,2.757-5.311A3.492,3.492,0,0,0,14.16,7.585Z" fill="url(#e56b7a80-9a81-442b-b87b-ae71e0684015)"/>
      </g>
      <path d="M5.98,5.942a11.077,11.077,0,0,1,7.589-3.049A7.262,7.262,0,0,0,12.3,1.666a12.227,12.227,0,0,0-4,.937,10.69,10.69,0,0,0-3.475,2.4A2.353,2.353,0,0,1,5.98,5.942Z" fill="#fff" opacity="0.6"/>
      <path d="M2.394,8.855a15.186,15.186,0,0,0-.707,2.232,6.666,6.666,0,0,0,.528.783c.153.2.3.375.468.554A15.266,15.266,0,0,1,3.6,9.469,2.357,2.357,0,0,1,2.394,8.855Z" fill="#fff" opacity="0.6"/>
      <path d="M3.229,4.988a10.21,10.21,0,0,1-.588-2.5A6.94,6.94,0,0,0,1.7,3.719a10.841,10.841,0,0,0,.485,2.027A2.3,2.3,0,0,1,3.229,4.988Z" fill="#f2f2f2" opacity="0.55"/>
      <circle cx="4.012" cy="7.177" r="2.325" fill="url(#e2a49ced-845e-4bb7-80a5-2701c36115ce)"/>
      <path d="M7.4,11.428a1.51,1.51,0,0,1,.46-1.082A10.147,10.147,0,0,1,5.707,8.762a2.338,2.338,0,0,1-1.269.707,11.22,11.22,0,0,0,1.235,1.09,10.272,10.272,0,0,0,1.746,1.064A1.587,1.587,0,0,1,7.4,11.428Z" fill="#f2f2f2" opacity="0.55"/>
      <path d="M10.775,7.39a1.561,1.561,0,0,1,.52-.852A21.674,21.674,0,0,1,7.5,3.012,14.468,14.468,0,0,1,5.792.525a6.443,6.443,0,0,0-.928.358A15.46,15.46,0,0,0,6.7,3.591,22.506,22.506,0,0,0,10.775,7.39Z" fill="#f2f2f2" opacity="0.7"/>
      <circle cx="4.012" cy="7.177" r="2.325" fill="#f2f2f2"/>
      <g>
        <path d="M10.138,11.071a3.451,3.451,0,0,0,.023.443c.163,1.492,1.577,2.179,1.982,4.064a.293.293,0,0,0,.28.229h2.588a.3.3,0,0,0,.28-.229c.4-1.885,1.806-2.577,1.981-4.064A3.547,3.547,0,0,0,13.75,7.561h-.073A3.543,3.543,0,0,0,10.138,11.071Z" fill="url(#b8e0ac70-78cc-4dff-8ebd-430b89c878cf)"/>
        <path d="M15.2,9.549a.84.84,0,0,0-.812.866h0v.466h-1.27v-.466a.849.849,0,0,0-.829-.867h-.02a.872.872,0,0,0,0,1.74h.382V14.9a.217.217,0,0,0,.434,0V11.289h1.3V14.9a.217.217,0,0,0,.433,0V11.289H15.2a.84.84,0,0,0,.813-.866v0h0A.839.839,0,0,0,15.2,9.55Zm-2.549,1.33h-.332a.467.467,0,1,1-.115-.927h0c.256-.031.412.151.443.406a.281.281,0,0,1,0,.058Zm2.577,0h-.409v-.487a.412.412,0,1,1,.817-.1.546.546,0,0,1,0,.1.444.444,0,0,1-.388.487Z" fill="url(#b618c8bd-cc9c-42d3-a035-4b41c092cb70)"/>
        <path d="M14.461,17.7l.487-.524v-1.4h-2.43v1.4l.487.524a.2.2,0,0,0,.114.067h1.2A.2.2,0,0,0,14.461,17.7Z" fill="#a39ee7"/>
      </g>
      <path d="M13.677,7.152h.074c.042,0,.083.006.125.007a1.606,1.606,0,1,0-2.991,1.164A3.937,3.937,0,0,1,13.677,7.152Z" fill="#f2f2f2"/>
      <path d="M9.754,11.56a4.06,4.06,0,0,1-.025-.493,3.9,3.9,0,0,1,.1-.836,1.514,1.514,0,1,0,.184,2.229A2.989,2.989,0,0,1,9.754,11.56Z" fill="#f2f2f2"/>
    </g>
  </g>
</svg>
