<svg id="uuid-d0f2e220-c3cd-4edf-824a-586c204550c7" xmlns="http://www.w3.org/2000/svg" width="18" height="18" viewBox="0 0 18 18">
  <defs>
    <linearGradient id="uuid-43809596-31b3-4551-890f-f89bfe246551" x1="13.474" y1="18" x2="13.474" y2="9.004" gradientTransform="matrix(1, 0, 0, 1, 0, 0)" gradientUnits="userSpaceOnUse">
      <stop offset="0" stop-color="#32bedd"/>
      <stop offset="1" stop-color="#50e6ff"/>
    </linearGradient>
    <linearGradient id="uuid-596f1229-53c9-4744-bdff-5be1a61c1ce8" x1="5" y1="597.513" x2="5" y2="585.883" gradientTransform="translate(4 -586)" gradientUnits="userSpaceOnUse">
      <stop offset="0" stop-color="#5e9624"/>
      <stop offset=".26" stop-color="#70a828"/>
      <stop offset=".79" stop-color="#9fd732"/>
      <stop offset="1" stop-color="#b4ec36"/>
    </linearGradient>
  </defs>
  <path d="M14.154,17.818l.335-1.093,.64-.374,1.117,.486,.711-.729v-.111l-.508-1.012,.305-.688,1.117-.405,.122-.051v-1.012h-.142l-1.096-.334-.365-.638,.477-1.113-.731-.708h-.081l-1.015,.506-.711-.304-.447-1.235h-1.015l-.051,.142-.335,1.093-.711,.304-1.198-.546-.711,.729,.071,.132,.528,1.012-.284,.708-1.218,.455v1.012l.142,.051,1.096,.334,.305,.708-.538,1.164,.741,.708,.132-.071,1.015-.536,.711,.283,.528,1.316h1.015l.051-.182Z" fill="url(#uuid-43809596-31b3-4551-890f-f89bfe246551)"/>
  <path d="M17.638,5.787l-1.455-1.539-.721-.719-5.062,5.046c-.088,.085-.228,.085-.316,0h0l-3.126-2.977L1.149,11.387c-.093,.087-.237,.087-.329,0H.82l-.747-.618c-.098-.102-.098-.263,0-.366L6.78,3.655c.093-.087,.237-.087,.329,0h0l3.088,3.002L14.398,2.469l-.734-.719-1.569-1.451c-.08-.077-.083-.205-.005-.285l.005-.005c.046-.012,.094-.012,.139,0h5.555c.112,0,.202,.09,.202,.202h0V5.635c.03,.107-.032,.219-.14,.249l-.012,.003c-.082,.015-.165-.026-.202-.101Z" fill="url(#uuid-596f1229-53c9-4744-bdff-5be1a61c1ce8)"/>
  <path d="M14.947,12.823c-.036,.012-.055,.051-.043,.087,.042,.139,.064,.283,.064,.428,.002,.866-.738,1.561-1.623,1.486-.537-.045-1.02-.386-1.236-.878-.228-.521-.141-1.097,.187-1.518,0,0,.104-.146,.153-.2,.012-.006,.027-.004,.038,.004l.023,.016,.342,.244c.018,.012,.042,.007,.054-.011,.005-.008,.007-.017,.006-.027l-.168-1.015c-.008-.047-.053-.079-.1-.071l-1.017,.168c-.021,.004-.035,.023-.032,.045,.002,.01,.007,.019,.016,.025l.342,.244h0c-.86,.876-.806,2.305,.15,3.111,.697,.588,1.717,.667,2.492,.186,.85-.528,1.2-1.534,.919-2.438-.012-.038-.054-.058-.091-.046l-.473,.16Z" fill="#fff"/>
</svg>