<svg id="uuid-fb8ea1f7-8acc-43dc-8592-d0e06a6b2ed6" xmlns="http://www.w3.org/2000/svg" width="18" height="18" viewBox="0 0 18 18">
  <defs>
    <radialGradient id="uuid-6a883691-de80-4d3e-bfbb-d3e2e74332d3" cx="6.59" cy="7.247" r="8.79" gradientTransform="matrix(1, 0, 0, 1, 0, 0)" gradientUnits="userSpaceOnUse">
      <stop offset="0" stop-color="#b4ec36"/>
      <stop offset=".813" stop-color="#86d633"/>
    </radialGradient>
    <linearGradient id="uuid-98caeede-b401-4514-80cc-fe4799069819" x1="2.609" y1="-181.387" x2="2.679" y2="-172.561" gradientTransform="translate(4 185.516)" gradientUnits="userSpaceOnUse">
      <stop offset="0" stop-color="#f2f2f2"/>
      <stop offset="1" stop-color="#b4ec36" stop-opacity=".02"/>
    </linearGradient>
    <radialGradient id="uuid-53cf3423-edfa-4144-9af5-cc73d8163f9c" cx="46.014" cy="809.129" r="4.833" gradientTransform="translate(-29.627 766.786) scale(.931 -.931)" gradientUnits="userSpaceOnUse">
      <stop offset="0" stop-color="#5ea0ef"/>
      <stop offset="1" stop-color="#0078d4"/>
    </radialGradient>
    <linearGradient id="uuid-0a0ea256-63a6-4091-b3b6-a26655c20f89" x1="6.775" y1="-10.704" x2="6.759" y2="-12.8" gradientTransform="translate(4 25.516)" gradientUnits="userSpaceOnUse">
      <stop offset="0" stop-color="#ccc"/>
      <stop offset="1" stop-color="#fcfcfc"/>
    </linearGradient>
  </defs>
  <g>
    <path d="M8.394,14.508h-3.921v2.455l.857,.921c.051,.061,.122,.102,.201,.117h2.117c.092-.004,.178-.044,.24-.112l.858-.921v-1.402c-.155-.334-.275-.688-.352-1.058Z" fill="#cecece"/>
    <path d="M8.29,13.5c0-2.398,1.725-4.4,3.999-4.834,.276-.523,.48-1.078,.556-1.717C13.241,3.531,10.792,.438,7.373,.042,7.135,.014,6.895,0,6.654,0h-.128C3.109-.001,.328,2.752,.295,6.17c-.003,.26,.011,.52,.041,.779,.287,2.614,2.773,3.83,3.483,7.143,.053,.233,.258,.399,.497,.402h4.076c-.066-.321-.101-.653-.101-.994Z" fill="url(#uuid-6a883691-de80-4d3e-bfbb-d3e2e74332d3)"/>
    <path d="M9.19,3.495c-.814,.029-1.452,.709-1.428,1.523v.815h-2.234v-.815c.018-.823-.634-1.505-1.457-1.523h-.035c-.844,.06-1.48,.794-1.42,1.638,.054,.76,.659,1.365,1.42,1.42h.678v6.35c.013,.21,.195,.37,.405,.356,.192-.012,.344-.165,.356-.356V6.553h2.287v6.35c.013,.21,.195,.37,.405,.356,.192-.012,.344-.165,.356-.356V6.553h.667c.817-.028,1.456-.713,1.428-1.529v-.002h0c.025-.815-.613-1.498-1.428-1.526Zm-4.477,2.336h-.72c-.45,.056-.86-.263-.916-.713-.056-.45,.263-.86,.713-.916,.45-.056,.86,.263,.916,.713,.004,.034,.006,.067,.006,.101v.815Zm4.53,0h-.72v-.857c-.04-.395,.248-.749,.643-.789,.384-.039,.731,.232,.785,.614,.008,.058,.008,.117,0,.174,.045,.423-.258,.804-.681,.855l-.028,.002Z" fill="url(#uuid-98caeede-b401-4514-80cc-fe4799069819)"/>
    <polygon points="8.746 16.533 8.746 16.067 4.428 16.925 4.428 16.967 4.756 17.327 8.746 16.533" fill="#999"/>
    <path d="M8.505,14.94l-4.077,.8v.466l4.237-.821c-.06-.145-.114-.293-.16-.445Z" fill="#999"/>
  </g>
  <g>
    <path d="M16.004,17.04c-1.958,1.535-4.791,1.192-6.326-.767-1.535-1.958-1.192-4.791,.767-6.326l.053-.053c1.997-1.489,4.824-1.077,6.313,.92,1.456,1.953,1.098,4.709-.807,6.225" fill="url(#uuid-53cf3423-edfa-4144-9af5-cc73d8163f9c)"/>
    <path d="M9.758,14.39c-.164,.451-.304,.911-.419,1.377l.314,.476,.314,.314c.114-.64,.31-1.263,.582-1.853-.291-.016-.569-.126-.791-.314Z" fill="#83b9f9"/>
    <path d="M10.287,11.955c-.18-.496-.304-1.011-.371-1.535-.223,.223-.418,.472-.582,.741,.055,.434,.16,.86,.314,1.27,.164-.215,.385-.38,.639-.476Z" fill="#83b9f9"/>
    <circle cx="10.764" cy="13.331" r="1.429" fill="url(#uuid-0a0ea256-63a6-4091-b3b6-a26655c20f89)"/>
    <path d="M12.88,15.978c.008-.253,.102-.495,.265-.688-.495-.257-.943-.598-1.323-1.006-.214,.22-.492,.366-.794,.419,.251,.261,.516,.509,.794,.741,.321,.261,.677,.475,1.058,.635v-.102Z" fill="#83b9f9"/>
    <path d="M16.215,16.084c-.498,0-.995-.053-1.482-.159v.053c.002,.239-.094,.469-.265,.635,.593,.114,1.198,.149,1.8,.105,.209-.209,.424-.476,.635-.688-.226,.045-.457,.063-.688,.053Z" fill="#83b9f9"/>
    <path d="M13.569,11.425c.971-.481,2.039-.734,3.123-.74-.225-.287-.493-.537-.795-.741-.855,.061-1.694,.257-2.487,.582-.182,.077-.359,.166-.53,.265-.4-.477-.755-.992-1.058-1.536-.17,.012-.333,.067-.476,.159,.321,.579,.693,1.128,1.112,1.64-.429,.244-.821,.547-1.165,.9,.283,.119,.524,.322,.689,.582,.297-.309,.636-.576,1.005-.794,.589,.634,1.246,1.202,1.959,1.694,.052-.203,.161-.387,.314-.53-.6-.45-1.165-.946-1.69-1.482Z" fill="#83b9f9"/>
    <circle cx="15.951" cy="13.649" r="1.006" fill="#fff"/>
    <path d="M17.648,14.351c-.042-.037-.088-.069-.137-.095h0c-.064-.04-.209-.105-.209-.105l-.209-.105-.172-.105c-.061,.184-.169,.349-.314,.478,.073,.038,.112,.053,.218,.105,0,0,.139,.068,.209,.105h0c.154,.094,.312,.181,.474,.259,.059-.176,.106-.355,.14-.537Z" fill="#83b9f9"/>
    <circle cx="10.764" cy="13.331" r="1.429" fill="#fff"/>
    <circle cx="13.833" cy="15.978" r=".953" fill="#fff"/>
  </g>
</svg>