<svg id="uuid-488848de-43e7-4edd-bddd-8165a7c11dc6" xmlns="http://www.w3.org/2000/svg" width="18" height="18" viewBox="0 0 18 18">
  <defs>
    <linearGradient id="uuid-88581d79-57ad-4d1a-84fa-8cc269fdceac" x1="21" y1="-178.892" x2="21" y2="-187.127" gradientTransform="translate(-12 192.016)" gradientUnits="userSpaceOnUse">
      <stop offset="0" stop-color="#32bedd"/>
      <stop offset="1" stop-color="#50e6ff"/>
    </linearGradient>
  </defs>
  <g id="uuid-0f66e7c0-ac6a-424f-8e6b-496632a67122">
    <g>
      <g>
        <path d="M12.779,5.663h.695c.103,0,.187.084.187.187h0v1.922c0,.103-.084.187-.187.187h-.695v-2.295ZM12.779,9.006v3.591h.695c.103,0,.187-.084.187-.187h0v-3.217h0c0-.103-.084-.187-.187-.187h-.695Z" fill="#a3a3a3"/>
        <rect x="5.223" y="4.889" width="7.554" height="8.235" rx=".379" ry=".379" fill="url(#uuid-88581d79-57ad-4d1a-84fa-8cc269fdceac)"/>
        <path d="M5.212,10.791h-.697c-.095,0-.175-.07-.187-.164v-3.217c0-.103.084-.187.187-.187h.697v3.568Z" fill="#949494"/>
      </g>
      <g>
        <path d="M6.841,7.217l-.005,3.479h.845v.384h-1.027c-.104-.003-.185-.089-.183-.193,0-.001,0-.003,0-.004v-3.855c0-.052.02-.102.057-.138.031-.039.078-.059.128-.055h3.089v.381h-2.904ZM9.62,10.658v-1.692h.61c.099-.009.173-.093.169-.192v-1.418h-.363v1.236h-.614c-.099.005-.175.088-.172.187v2.103c-.002.048.017.095.052.129.034.041.084.066.137.067h1.131v-.418h-.951Z" fill="#c3f1ff"/>
        <path d="M8.234,10.004v1.728c0,.08-.065.146-.146.146h-.395c-.08,0-.146-.065-.146-.145,0,0,0,0,0,0v-1.728c0-.081.065-.146.146-.146h.395c.08,0,.146.065.146.146,0,0,0,0,0,0ZM8.915,6.281v1.416c0,.08.065.146.146.146,0,0,0,0,0,0h2.245c.08,0,.146-.065.146-.146h0v-1.416c0-.08-.065-.146-.146-.146h-2.245c-.08,0-.146.065-.146.145,0,0,0,0,0,0Z" fill="#198ab3"/>
        <circle cx="10.912" cy="10.868" r=".475" fill="#fff"/>
      </g>
    </g>
  </g>
  <path d="M0,15.587c0,.062.033.119.086.15l1.221.708,2.075,1.2c.08.047.184.021.231-.06h0l.7-1.216c.046-.083.019-.187-.063-.236l-2.428-1.4c-.054-.03-.087-.087-.086-.149V3.422c0-.062.032-.119.086-.149l2.428-1.409c.081-.049.109-.152.063-.235l-.697-1.215c-.047-.082-.151-.111-.233-.065h0L1.349,1.53.086,2.263c-.053.031-.086.088-.086.149v13.174Z" fill="#949494"/>
  <path d="M4.314,1.629l-.698-1.215c-.035-.061-.104-.095-.174-.084-.03,0-.06.006-.086.021L1.324,1.53.061,2.263c-.025.015-.046.035-.061.06l.02.012c-.013.024-.02.05-.02.077l1.739,1.01c0-.062.032-.119.086-.149l2.426-1.409c.081-.049.109-.152.063-.235Z" fill="#a3a3a3"/>
  <path d="M4.314,16.372l-.7,1.215c-.035.061-.104.094-.174.084-.03,0-.06-.006-.086-.021l-2.032-1.18L.061,15.738c-.025-.015-.046-.036-.061-.061l.02-.011c-.013-.024-.02-.051-.02-.078l1.739-1.009c0,.062.032.119.086.149l2.426,1.408c.082.049.109.153.063.236Z" fill="#a3a3a3"/>
  <path d="M17.999,2.413c0-.062-.033-.119-.086-.15l-1.221-.708-2.077-1.204c-.08-.047-.184-.021-.231.06h0l-.7,1.216c-.046.083-.019.187.063.236l2.426,1.408c.054.03.087.087.086.149v11.157c0,.062-.032.119-.086.149l-2.426,1.409c-.081.049-.109.152-.063.235l.7,1.215c.047.082.151.111.233.065h0l2.033-1.18,1.263-.733c.054-.031.087-.088.087-.15V2.413h0Z" fill="#949494"/>
  <path d="M13.683,16.371l.7,1.215c.035.061.104.095.174.084.03,0,.06-.006.086-.021l2.032-1.179,1.263-.733c.025-.015.046-.035.061-.06l-.02-.012c.013-.024.019-.05.02-.077l-1.739-1.01c0,.062-.032.119-.086.149l-2.426,1.409c-.082.048-.111.152-.065.235Z" fill="#a3a3a3"/>
  <path d="M13.683,1.628l.7-1.215c.035-.061.104-.094.174-.084.03,0,.06.006.086.021l2.032,1.18,1.263.732c.025.015.046.036.061.061l-.02.011c.013.024.02.051.02.078l-1.741,1.009c0-.062-.032-.119-.086-.149l-2.426-1.408c-.082-.049-.109-.153-.063-.236Z" fill="#a3a3a3"/>
</svg>