<svg xmlns="http://www.w3.org/2000/svg" viewBox="0 0 18 18">
  <defs>
    <linearGradient id="f0268210-8796-44f5-b20a-5364fc75955b" x1="9" y1="6.92" x2="9" y2="19.61" gradientUnits="userSpaceOnUse">
      <stop offset="0.22" stop-color="#32d4f5" />
      <stop offset="0.47" stop-color="#31d1f3" />
      <stop offset="1" stop-color="#198ab3" />
    </linearGradient>
    <linearGradient id="ac2aa981-0bec-4689-9b43-1bee7fffd72e" x1="8.64" y1="0.13" x2="9.56" y2="11.64" gradientUnits="userSpaceOnUse">
      <stop offset="0.22" stop-color="#32d4f5" />
      <stop offset="0.47" stop-color="#31d1f3" />
      <stop offset="1" stop-color="#198ab3" />
    </linearGradient>
    <linearGradient id="ba5b59cd-1ac8-40c3-baec-4db943a1d98f" x1="-69.96" y1="-39.14" x2="-72.19" y2="-40.67" gradientTransform="matrix(1.05, -0.53, 0.66, 0.85, 115.11, 9.15)" gradientUnits="userSpaceOnUse">
      <stop offset="0.22" stop-color="#b4ec36" />
      <stop offset="0.52" stop-color="#b1eb36" />
      <stop offset="0.71" stop-color="#a9e735" />
      <stop offset="0.86" stop-color="#9ae034" />
      <stop offset="1" stop-color="#86d633" />
    </linearGradient>
  </defs>
  <g id="e9acac7e-1f99-48f0-aafa-a87f0bf65cf5">
    <g>
      <path d="M15.28,17.32A1.35,1.35,0,0,0,16.64,16a1,1,0,0,0,0-.17c-.53-4.27-3-7.74-7.62-7.74S1.84,11,1.37,15.81a1.37,1.37,0,0,0,1.22,1.5H15.28Z" fill="url(#f0268210-8796-44f5-b20a-5364fc75955b)" />
      <path d="M9,9a4.45,4.45,0,0,1-2.32-.65L9,14.16l2.28-5.74A4.33,4.33,0,0,1,9,9Z" fill="#fff" opacity="0.8" />
      <circle cx="9.01" cy="4.78" r="4.28" fill="url(#ac2aa981-0bec-4689-9b43-1bee7fffd72e)" />
      <g>
        <rect x="12.45" y="9.66" width="2.06" height="6.81" transform="matrix(0.85, 0.53, -0.53, 0.85, 9, -5.16)" fill="url(#ba5b59cd-1ac8-40c3-baec-4db943a1d98f)" />
        <rect x="14.23" y="9.79" width="2.06" height="0.85" transform="translate(7.76 -6.55) rotate(32.07)" fill="#0078d4" />
        <path d="M10.63,16.06l.07,1.44L12,16.93a1,1,0,0,0,.51-.43h0L10.8,15.4h0A1.17,1.17,0,0,0,10.63,16.06Z" fill="#f2f2f2" />
        <path d="M15.68,8.85h.19a.93.93,0,0,1,.93.93v.15a0,0,0,0,1,0,0H14.75a0,0,0,0,1,0,0V9.78A.93.93,0,0,1,15.68,8.85Z" transform="matrix(0.85, 0.53, -0.53, 0.85, 7.4, -6.95)" fill="#5ea0ef" />
        <polygon points="10.66 16.73 11.41 17.2 10.7 17.5 10.66 16.73" fill="#0078d4" />
      </g>
    </g>
  </g>
</svg>