<svg xmlns="http://www.w3.org/2000/svg" width="18" height="18" viewBox="0 0 18 18">
  <defs>
    <linearGradient id="ea57d7bc-1584-4880-adea-6981c79b3319" x1="9" x2="9" y2="18" gradientUnits="userSpaceOnUse">
      <stop offset="0" stop-color="#faa21d"/>
      <stop offset="1" stop-color="#f78d1e"/>
    </linearGradient>
  </defs>
  <g id="aba73323-ee35-4d1b-80e0-527cea82f1b0" >
    <path d="M16.589,4.292,9.283.073a.587.587,0,0,0-.566,0L1.411,4.292a.564.564,0,0,0-.281.491V6.771a.284.284,0,0,0,.371.27L4.963,5.9V5.278a.544.544,0,0,1,.544-.543h.465a.538.538,0,0,1,.54.54v7.354a.538.538,0,0,1-.54.54H5.507a.541.541,0,0,1-.544-.54v-.608L1.5,10.87a.282.282,0,0,0-.371.266v2.082a.564.564,0,0,0,.281.491l7.306,4.215a.567.567,0,0,0,.566,0l7.306-4.215a.572.572,0,0,0,.281-.491V4.783A.572.572,0,0,0,16.589,4.292ZM9,10.124A1.124,1.124,0,1,1,10.123,9,1.122,1.122,0,0,1,9,10.124Zm3.109,0A1.124,1.124,0,1,1,13.232,9,1.122,1.122,0,0,1,12.107,10.124Zm3.109,0A1.124,1.124,0,1,1,16.337,9,1.125,1.125,0,0,1,15.216,10.124Z" fill="url(#ea57d7bc-1584-4880-adea-6981c79b3319)"/>
  </g>
</svg>
