<svg id="uuid-796cf8a5-c4f9-4d88-82dc-c32fa3bb1701" xmlns="http://www.w3.org/2000/svg" width="18" height="18" viewBox="0 0 18 18">
  <path d="M0,15.587c0,.062,.033,.119,.086,.15l1.221,.708,2.075,1.2c.08,.047,.184,.021,.231-.06h0l.7-1.216c.046-.083,.019-.187-.063-.236l-2.428-1.4c-.054-.03-.087-.087-.086-.149V3.422c0-.062,.032-.119,.086-.149l2.428-1.409c.081-.049,.109-.152,.063-.235L3.616,.414c-.047-.082-.151-.111-.233-.065h0L1.349,1.53,.086,2.263C.033,2.294,0,2.351,0,2.412V15.587Z" fill="#949494"/>
  <path d="M4.314,1.629L3.616,.414c-.035-.061-.104-.095-.174-.084-.03-.001-.06,.006-.086,.021L1.324,1.53,.061,2.263C.036,2.278,.015,2.298,0,2.323l.02,.012C.007,2.359,0,2.385,0,2.412l1.739,1.01c-.001-.062,.032-.119,.086-.149l2.426-1.409c.081-.049,.109-.152,.063-.235Z" fill="#a3a3a3"/>
  <path d="M4.314,16.372l-.7,1.215c-.035,.061-.104,.094-.174,.084-.03,.001-.06-.006-.086-.021l-2.032-1.18L.061,15.738c-.025-.015-.046-.036-.061-.061l.02-.011C.007,15.642,0,15.615,0,15.588l1.739-1.009c0,.062,.032,.119,.086,.149l2.426,1.408c.082,.049,.109,.153,.063,.236Z" fill="#a3a3a3"/>
  <path d="M18,2.413c0-.062-.033-.119-.086-.15l-1.221-.708L14.616,.351c-.08-.047-.184-.021-.231,.06h0l-.7,1.216c-.046,.083-.019,.187,.063,.236l2.426,1.408c.054,.03,.087,.087,.086,.149V14.578c0,.062-.032,.119-.086,.149l-2.426,1.409c-.081,.049-.109,.152-.063,.235l.7,1.215c.047,.082,.151,.111,.233,.065h0l2.033-1.18,1.263-.733c.054-.031,.087-.088,.087-.15V2.413Z" fill="#949494"/>
  <path d="M13.684,16.371l.7,1.215c.035,.061,.104,.095,.174,.084,.03,.001,.06-.006,.086-.021l2.032-1.179,1.263-.733c.025-.015,.046-.035,.061-.06l-.02-.012c.013-.024,.019-.05,.02-.077l-1.739-1.01c.001,.062-.032,.119-.086,.149l-2.426,1.409c-.082,.048-.111,.152-.065,.235Z" fill="#a3a3a3"/>
  <path d="M13.684,1.628l.7-1.215c.035-.061,.104-.094,.174-.084,.03-.001,.06,.006,.086,.021l2.032,1.18,1.263,.732c.025,.015,.046,.036,.061,.061l-.02,.011c.013,.024,.02,.051,.02,.078l-1.741,1.009c0-.062-.032-.119-.086-.149l-2.426-1.408c-.082-.049-.109-.153-.063-.236Z" fill="#a3a3a3"/>
  <g id="uuid-e763c83e-7d5f-4942-b2c3-e255794f6789">
    <path d="M11.512,10.167l.012,.004-.012-.004Z" fill="none"/>
    <path d="M11.512,11.427l.012,.004-.012-.004Z" fill="none"/>
    <path d="M11.512,6.385l.012,.004-.012-.004Z" fill="none"/>
    <path d="M11.512,7.646l.012,.004-.012-.004Z" fill="none"/>
    <g>
      <ellipse cx="9.147" cy="11.62" rx="4.515" ry="1.063" fill="#198ab3"/>
      <path d="M13.662,13.711v-2.091h0c0,.587-2.021,1.063-4.515,1.063s-4.515-.476-4.515-1.063v2.14c0,.587,2.021,1.063,4.515,1.063,2.441,0,4.429-.456,4.511-1.026h0v-.085h.004Z" fill="#005ba1"/>
    </g>
    <g>
      <ellipse cx="9.147" cy="7.838" rx="4.515" ry="1.063" fill="#32bedd"/>
      <path d="M13.662,9.93v-2.092h0c0,.588-2.021,1.063-4.515,1.063s-4.515-.476-4.515-1.063v2.141c0,.587,2.021,1.063,4.515,1.063,2.441,0,4.429-.456,4.511-1.026h0v-.085h.004Z" fill="#0078d4"/>
    </g>
    <g>
      <path d="M9.133,5.12c-2.466,0-4.469-.466-4.511-1.044h-.004v2.121c0,.588,2.021,1.063,4.515,1.063,2.441,0,4.429-.456,4.511-1.026h0v-.037c0-.006,0-.013,0-.019v-.03h0v-2.092c.004,.587-2.018,1.063-4.511,1.063Z" fill="#5ea0ef"/>
      <ellipse cx="9.133" cy="4.056" rx="4.515" ry="1.063" fill="#9cebff"/>
    </g>
  </g>
</svg>