<svg xmlns="http://www.w3.org/2000/svg" width="18" height="18" viewBox="0 0 18 18">
  <defs>
    <linearGradient id="bf7c0ac4-390b-4a44-9cb5-6488c5880ab8" x1="10.615" y1="17.506" x2="10.615" y2="0.494" gradientUnits="userSpaceOnUse">
      <stop offset="0" stop-color="#0078d4"/>
      <stop offset="1" stop-color="#5ea0ef"/>
    </linearGradient>
    <linearGradient id="b2f09f2f-f721-4cdd-bf55-d8a124c50bd3" x1="-2007.556" y1="152.187" x2="-2013.103" y2="152.187" gradientTransform="matrix(0, -1, -1, 0, 156.936, -2000.269)" gradientUnits="userSpaceOnUse">
      <stop offset="0" stop-color="#faa21d"/>
      <stop offset="0.999" stop-color="#f78d1e"/>
    </linearGradient>
    <linearGradient id="bbebeda5-1353-489e-ad5e-b7139c14273d" x1="4.75" y1="789.004" x2="4.75" y2="784.103" gradientTransform="matrix(1, 0, 0, -1, 0, 791.516)" gradientUnits="userSpaceOnUse">
      <stop offset="0" stop-color="#a67af4"/>
      <stop offset="1" stop-color="#773adc"/>
    </linearGradient>
  </defs>
  <g id="bc7815e2-4b4e-4d04-b89a-974be9096f09">
    <g>
      <path d="M17.245,5.955H12.916a1.012,1.012,0,0,1-1.011-1.011V.624a.571.571,0,0,0-.354-.13H4.315a.573.573,0,0,0-.586.559V3.671H5.7V2.459a.542.542,0,0,1,.536-.532h.017a.549.549,0,0,1,.367.159l2.415,2.42a.7.7,0,0,1,0,.983L6.612,7.906a.54.54,0,0,1-.754.009h0a.538.538,0,0,1-.167-.392v-1.2H3.729v.99a.511.511,0,0,1,.01.123V8.717H8.89a.51.51,0,0,1,.51.491V10.9a.518.518,0,0,1-.482.52H3.739v1.285a.332.332,0,0,1-.01.1V16.93a.573.573,0,0,0,.569.576H16.914a.578.578,0,0,0,.586-.567V6.437A.59.59,0,0,0,17.245,5.955Z" fill="url(#bf7c0ac4-390b-4a44-9cb5-6488c5880ab8)"/>
      <path d="M17.273,5.955H12.916a1.012,1.012,0,0,1-1.011-1.011V.624a.157.157,0,0,0,.047.038Z" fill="#0078d4"/>
      <path d="M11.952.662a.157.157,0,0,1-.047-.038V.615Z" fill="#0078d4"/>
      <path d="M10.89,7.965h3.756a.371.371,0,0,1,.371.372h0a.371.371,0,0,1-.371.371H10.89a.372.372,0,0,1-.369-.37h0A.372.372,0,0,1,10.89,7.965Zm0,2.942h3.756a.372.372,0,0,1,.371.372h0a.371.371,0,0,1-.371.371H10.89a.372.372,0,0,1-.372-.371h0A.373.373,0,0,1,10.89,10.907ZM9.8,13.473l-.089-.094a.152.152,0,0,0-.216,0l-.868.867-.356-.357a.155.155,0,0,0-.217,0l-.094.09a.153.153,0,0,0,0,.217l.555.555a.152.152,0,0,0,.216,0h0L9.8,13.685a.151.151,0,0,0,0-.214h0Zm1.091.268h3.756a.371.371,0,0,1,.371.371h0a.372.372,0,0,1-.371.372H10.89a.373.373,0,0,1-.372-.372h0A.372.372,0,0,1,10.89,13.741Z" fill="#c3f1ff"/>
      <path d="M.588,10.274a.3.3,0,0,1,0-.423h0L3.111,7.327a.134.134,0,0,1,.19,0,.137.137,0,0,1,.04.1V8.974a.134.134,0,0,0,.131.135h5.42a.1.1,0,0,1,.107.1v0H9v1.692a.1.1,0,0,1-.1.109H3.475a.133.133,0,0,0-.134.132h0V12.7a.135.135,0,0,1-.134.135.137.137,0,0,1-.1-.04Z" fill="url(#b2f09f2f-f721-4cdd-bf55-d8a124c50bd3)"/>
      <path d="M8.74,5.2,6.321,7.617a.128.128,0,0,1-.181,0h0A.122.122,0,0,1,6.1,7.526V6.038a.13.13,0,0,0-.129-.13H.78a.1.1,0,0,1-.1-.1h0V4.187a.1.1,0,0,1,.1-.106h5.2a.13.13,0,0,0,.133-.126V2.465a.129.129,0,0,1,.129-.128.133.133,0,0,1,.09.039L8.74,4.8A.289.289,0,0,1,8.74,5.2Z" fill="url(#bbebeda5-1353-489e-ad5e-b7139c14273d)"/>
    </g>
  </g>
</svg>
