<svg id="uuid-f8204cc5-2de8-4832-80db-11cb8618a020" xmlns="http://www.w3.org/2000/svg" width="18" height="18" viewBox="0 0 18 18"><defs><linearGradient id="uuid-c43a3b2b-c465-497b-9758-8ce6815ae643" x1="8.343" y1=".47" x2="8.343" y2="14.707" gradientTransform="matrix(1, 0, 0, 1, 0, 0)" gradientUnits="userSpaceOnUse"><stop offset=".18" stop-color="#5ea0ef" /><stop offset="1" stop-color="#0078d4" /></linearGradient><linearGradient id="uuid-bf81de86-1b56-4e46-b55d-cc727420a980" x1="13.006" y1="15.241" x2="13.006" y2="10.298" gradientTransform="matrix(1, 0, 0, 1, 0, 0)" gradientUnits="userSpaceOnUse"><stop offset=".001" stop-color="#773adc" /><stop offset="1" stop-color="#a67af4" /></linearGradient></defs><path d="M10.14,12.769c0-1.585,1.286-2.874,2.866-2.874,.409,0,.797,.088,1.149,.243V5.445c0-.268-.217-.486-.486-.486h-3.534c-.268,0-.486-.217-.486-.486V.956c0-.262-.207-.477-.469-.486H3.017c-.268,0-.486,.217-.486,.486V14.221c0,.268,.217,.486,.486,.486h7.879c-.467-.512-.755-1.191-.755-1.938Z" fill="url(#uuid-c43a3b2b-c465-497b-9758-8ce6815ae643)" /><path d="M13.971,5.076L9.482,.579v3.66c0,.463,.375,.837,.837,.837h3.651Z" fill="#0078d4" /><path d="M12.14,8.869l-.277,.276h0l-2.178-2.184c-.049-.049-.049-.128,0-.177l.277-.276c.049-.049,.128-.049,.177,0l2.002,2.008c.098,.098,.097,.256,0,.354h0Z" fill="#fff" /><path d="M11.867,8.238l.276,.277c.098,.098,.097,.256,0,.354h0l-2.043,2.037c-.049,.049-.128,.049-.177,0l-.276-.277c-.049-.049-.049-.128,0-.177l2.22-2.214h0Z" fill="#fff" /><path d="M6.257,6.505l.277,.276c.049,.049,.049,.128,0,.177l-2.181,2.187h0l-.277-.276c-.098-.098-.098-.256,0-.354h0l2.005-2.01c.049-.049,.128-.049,.177,0h0Z" fill="#fff" /><path d="M6.576,10.627l-.276,.277c-.049,.049-.128,.049-.177,0l-2.043-2.037c-.098-.098-.098-.256,0-.354h0l.276-.277h0l2.218,2.212c.05,.048,.052,.127,.004,.177l-.002,.002Z" fill="#fff" /><rect x="5.026" y="8.442" width="6.088" height=".643" rx=".089" ry=".089" transform="translate(-2.736 13.777) rotate(-72.248)" fill="#fff" /><path d="M14.356,13.804c-.379,.34-.87,.529-1.379,.529s-1-.188-1.379-.529l-.172,3.429c-.004,.056,.009,.111,.038,.159,.029,.048,.072,.086,.123,.108,.051,.022,.108,.028,.163,.017,.055-.011,.105-.039,.143-.08l1.064-1.08,1.072,1.088c.038,.04,.087,.068,.141,.079,.054,.011,.11,.006,.161-.015,.051-.021,.094-.058,.123-.104,.029-.047,.044-.101,.042-.156l-.139-3.445Z" fill="#552f99" /><path d="M13.006,15.241c1.36,0,2.463-1.106,2.463-2.471s-1.103-2.471-2.463-2.471-2.463,1.106-2.463,2.471,1.103,2.471,2.463,2.471Z" fill="url(#uuid-bf81de86-1b56-4e46-b55d-cc727420a980)" /><path d="M13.006,14.643c1.035,0,1.874-.839,1.874-1.874s-.839-1.874-1.874-1.874-1.874,.839-1.874,1.874,.839,1.874,1.874,1.874Z" fill="#b796f9" /></svg>