<svg id="uuid-0a1bcbfd-0fb9-4650-9d6b-c82db2c1a38f" xmlns="http://www.w3.org/2000/svg" width="18" height="18" viewBox="0 0 18 18"><defs><linearGradient id="uuid-d414ce28-77e3-4ce3-978a-0e590eb963ec" x1="5.842" y1="7.679" x2="8.988" y2="7.679" gradientTransform="matrix(1, 0, 0, 1, 0, 0)" gradientUnits="userSpaceOnUse"><stop offset="0" stop-color="#5ea0ef" /><stop offset="1" stop-color="#0078d4" /></linearGradient><radialGradient id="uuid-a3bc7c7b-bc90-4b70-b12c-af92da0db1e9" cx="600.633" cy="823.019" r="35.471" gradientTransform="translate(-73.421 126.525) scale(.141 -.141)" gradientUnits="userSpaceOnUse"><stop offset="0" stop-color="#50e6ff" /><stop offset="1" stop-color="#32bedd" /></radialGradient></defs><g><path d="M0,2.793c0-.059,.031-.114,.082-.143l1.224-.684L3.266,.833h0c.087-.04,.19-.003,.231,.084l.675,1.143c.039,.076,.012,.17-.062,.214L1.766,3.601c-.051,.029-.082,.084-.082,.143V14.276c.002,.058,.032,.112,.082,.143l2.347,1.328c.073,.044,.1,.138,.062,.214l-.675,1.143c-.049,.081-.153,.108-.235,.061l-2-1.157L.082,15.348c-.051-.03-.083-.084-.082-.144V2.793Zm18-.02c0-.059-.031-.114-.082-.143l-1.224-.684-1.96-1.112h0c-.087-.04-.19-.003-.231,.084l-.675,1.143c-.039,.076-.012,.17,.062,.214l2.344,1.326c.051,.029,.082,.084,.082,.143V14.276c-.002,.058-.032,.112-.082,.143l-2.347,1.328c-.073,.044-.1,.138-.062,.214l.675,1.143c.049,.081,.153,.108,.235,.061l2-1.157,1.184-.663c.05-.029,.081-.083,.081-.141V2.773Z" fill="#949494" /><path d="M.939,3.232L.02,2.711c.002-.033,.029-.059,.062-.061l1.215-.684L3.266,.833c.01-.006,.021-.011,.032-.014,.08-.026,.166,.017,.193,.096l.675,1.143c.006,.009,.011,.018,.015,.027,.03,.073-.004,.156-.077,.187L1.756,3.601l-.062,.061-.755-.43Zm3.164,12.494l-2.347-1.327c-.032-.025-.057-.058-.071-.096L.031,15.327h.051l1.173,.664,2.043,1.133c.07,.047,.165,.029,.212-.04l.013-.021,.675-1.142c.031-.073-.003-.157-.075-.188l-.019-.007ZM17.06,3.215l.919-.524-.062-.061-1.215-.684-1.969-1.112c-.01-.006-.021-.011-.032-.014-.08-.026-.166,.017-.193,.096l-.675,1.143c-.006,.009-.011,.018-.015,.027-.03,.073,.004,.156,.077,.187l2.348,1.328,.062,.061,.755-.446Zm-3.205,12.705l.675,1.142,.012,.021c.048,.07,.143,.088,.213,.04l2.042-1.133,1.173-.664h0l-1.653-1.02c-.015,.038-.039,.071-.071,.096l-2.347,1.326c-.061,.043-.08,.125-.042,.19Z" fill="#a3a3a3" /></g><g><polygon points="8.988 4.944 8.988 8.585 5.842 10.414 5.842 6.769 8.988 4.944" fill="url(#uuid-d414ce28-77e3-4ce3-978a-0e590eb963ec)" /><polygon points="8.988 4.944 5.842 6.773 2.692 4.939 5.842 3.11 8.988 4.944" fill="#83b9f9" /><polygon points="5.842 6.773 5.842 10.414 2.692 8.585 2.692 4.939 5.842 6.773" fill="#5ea0ef" /><polygon points="2.692 8.585 5.842 6.769 5.842 10.414 2.692 8.585" fill="#83b9f9" /><polygon points="8.988 8.585 5.842 6.769 5.842 10.414 8.988 8.585" fill="#5ea0ef" /></g><circle cx="12.2" cy="11.739" r="3.148" fill="url(#uuid-a3bc7c7b-bc90-4b70-b12c-af92da0db1e9)" /></svg>