<svg xmlns="http://www.w3.org/2000/svg" width="18" height="18" viewBox="0 0 18 18">
  <defs>
    <linearGradient id="bf7cfa21-88fe-4b6f-ac1c-ac388f0b7da7" x1="15.591" y1="2.424" x2="3.016" y2="14.999" gradientUnits="userSpaceOnUse">
      <stop offset="0" stop-color="#a67af4"/>
      <stop offset="0.999" stop-color="#773adc"/>
    </linearGradient>
  </defs>
  <g id="b356de20-7da5-485f-bb25-14dd7f2eaf81">
    <path d="M14.991,15.348a.283.283,0,0,1,0,.4l-.027.028a.564.564,0,0,1-.637.111l-1.906-.9a.28.28,0,0,0-.227-.005l-1.166.479a.288.288,0,0,0-.161.172l-.658,1.981A.564.564,0,0,1,9.675,18H8.422a.561.561,0,0,1-.529-.37l-.727-2a.276.276,0,0,0-.156-.163l-1.166-.481A.281.281,0,0,0,5.61,15l-1.862.945a.564.564,0,0,1-.653-.1l-.872-.873a.561.561,0,0,1-.111-.637l.9-1.91a.282.282,0,0,0,.006-.226L2.7,11.418l-.16-.391a.279.279,0,0,0-.172-.159L1.249,10.5l-.864-.288A.561.561,0,0,1,0,9.676V8.426A.564.564,0,0,1,.373,7.9l2.033-.728a.283.283,0,0,0,.166-.157l.48-1.166a.284.284,0,0,0-.01-.235l-.948-1.86A.562.562,0,0,1,2.2,3.1l.071-.071a.281.281,0,0,1,.4,0L5.631,5.989A1.558,1.558,0,0,0,4.724,8.1c.009.023.021.045.032.068a1.52,1.52,0,0,0,.285.391,1.556,1.556,0,0,0,2.2,0,1.489,1.489,0,0,0,.313-.443c.022-.047.04-.1.059-.142l.164.164L9.267,9.625l.587.586.523.523a.252.252,0,0,0,.431-.179.906.906,0,0,1,.026-.228.491.491,0,0,1,.017-.066,1.006,1.006,0,0,1,.267-.455A1.041,1.041,0,0,1,11.86,9.5h0a1.029,1.029,0,0,1,.738.3l.01.01a1.037,1.037,0,0,1,.281.548A1.056,1.056,0,0,1,11.853,11.6h-.007a.253.253,0,0,0-.177.432Zm2.624-7.555-1.868-.622-.112-.038a.276.276,0,0,1-.172-.16l-.479-1.166a.278.278,0,0,1,.005-.226l.5-1.057.4-.848a.563.563,0,0,0-.113-.637l-.781-.782-.09-.092c-.012-.011-.023-.022-.036-.032a.567.567,0,0,0-.617-.072L12.392,3a.284.284,0,0,1-.235.01l-1.166-.48a.277.277,0,0,1-.157-.163l-.727-2A.564.564,0,0,0,9.578,0H8.326a.566.566,0,0,0-.534.385L7.134,2.367a.287.287,0,0,1-.16.171l-1.166.48a.283.283,0,0,1-.228-.007L3.707,2.116a.566.566,0,0,0-.64.11l-.044.044a.282.282,0,0,0,0,.4L6.332,5.975a.252.252,0,0,1-.178.431H6.148a1.04,1.04,0,0,0-.745.31,1.056,1.056,0,0,0-.31.742,1.024,1.024,0,0,0,.1.444.9.9,0,0,0,.111.183.651.651,0,0,0,.1.114,1.05,1.05,0,0,0,1.484,0A1.126,1.126,0,0,0,7,8.063a1.051,1.051,0,0,0,.2-.616.263.263,0,0,1,.012-.08.258.258,0,0,1,.144-.156.255.255,0,0,1,.275.055l.055.054,1.9,1.906.807.807a1.578,1.578,0,0,1,.37-.585,1.553,1.553,0,0,1,1.1-.459h0a1.537,1.537,0,0,1,1.1.455A1.784,1.784,0,0,1,13.1,9.6a1.561,1.561,0,0,1-.724,2.415l2.977,2.978a.281.281,0,0,0,.4,0l.09-.09a.565.565,0,0,0,.1-.653L15,12.392a.281.281,0,0,1-.009-.234l.48-1.166a.286.286,0,0,1,.164-.158l2-.727A.563.563,0,0,0,18,9.579V8.326A.561.561,0,0,0,17.615,7.793Z" fill="url(#bf7cfa21-88fe-4b6f-ac1c-ac388f0b7da7)"/>
  </g>
</svg>
