<svg xmlns="http://www.w3.org/2000/svg" width="18" height="18" viewBox="0 0 18 18">
  <defs>
    <linearGradient id="b8af4a95-0d30-4c97-91e1-63b45156ff54" x1="9" y1="2.641" x2="9" y2="16.735" gradientUnits="userSpaceOnUse">
      <stop offset="0" stop-color="#ff7381"/>
      <stop offset="1" stop-color="#f04049"/>
    </linearGradient>
    <linearGradient id="ac379854-27ad-45ff-8201-7b1289727beb" x1="243" y1="496.647" x2="243" y2="487.763" gradientTransform="matrix(1, 0, 0, -1, -234, 503.516)" gradientUnits="userSpaceOnUse">
      <stop offset="0.22" stop-color="#fff"/>
      <stop offset="1" stop-color="#e6e6e6"/>
    </linearGradient>
    <linearGradient id="bfa05dd5-616b-4005-a3d2-dc7d68eeedcd" x1="9.008" y1="4.055" x2="9.008" y2="8.882" gradientTransform="matrix(1, 0, 0, 1, 0, 0)" gradientUnits="userSpaceOnUse">
      <stop offset="0.22" stop-color="#fff"/>
      <stop offset="1" stop-color="#e6e6e6"/>
    </linearGradient>
  </defs>
  <g id="b719de45-b86c-4856-9c63-a0c81ab1df28">
    <g>
      <path d="M17.924,9.283l-.154.266-.478.828-.605,1.048-.477.828L15.6,13.3l-.478.826-.6,1.05-.479.828-.335.581a.566.566,0,0,1-.49.283H4.783a.566.566,0,0,1-.49-.283l-.335-.581-.479-.828-.6-1.05L2.4,13.3,1.79,12.253l-.477-.828-.6-1.048L.23,9.549.076,9.283a.565.565,0,0,1,0-.565L.2,8.5.68,7.672l.6-1.048L1.763,5.8l.605-1.048.478-.828.6-1.049.48-.828.363-.63a.566.566,0,0,1,.49-.283h8.434a.566.566,0,0,1,.49.283l.363.63.479.828.605,1.049.478.828.6,1.048.479.828.6,1.048L17.8,8.5l.126.219A.565.565,0,0,1,17.924,9.283Z" fill="url(#b8af4a95-0d30-4c97-91e1-63b45156ff54)"/>
      <g>
        <path d="M13.4,14.149a.949.949,0,0,0,.949-.949h0a.3.3,0,0,0,0-.112C13.969,10.1,12.274,7.661,9,7.661S3.985,9.723,3.651,13.1A.957.957,0,0,0,4.5,14.148h8.9Z" fill="url(#ac379854-27ad-45ff-8201-7b1289727beb)"/>
        <path d="M9,8.368A3.012,3.012,0,0,1,7.377,7.89L9,12.093l1.6-4.177A2.969,2.969,0,0,1,9,8.368Z" fill="#e62323" opacity="0.5"/>
        <path d="M9.006,2.362a3,3,0,0,0-1.654,5.5l0,0a2.991,2.991,0,0,0,3.261.023l0,0A3,3,0,0,0,9.006,2.362Zm1.251,4.6a.744.744,0,0,1-.434-.153,1.448,1.448,0,0,0-1.669,0,.765.765,0,0,1-.437.153A1.273,1.273,0,0,1,6.443,5.7V5.247a.82.82,0,0,1,.821-.821h3.445a.82.82,0,0,1,.821.821V5.7A1.272,1.272,0,0,1,10.257,6.966Zm.019-1.838a.986.986,0,0,0-.66.384.072.072,0,0,0,0,.1.985.985,0,0,0,.66.383.975.975,0,0,0,.656-.383.072.072,0,0,0,0-.1A.976.976,0,0,0,10.276,5.128Zm-2.575,0a.984.984,0,0,0-.659.384.081.081,0,0,0,0,.1A.983.983,0,0,0,7.7,6a.993.993,0,0,0,.66-.383.081.081,0,0,0,0-.1A.993.993,0,0,0,7.7,5.128Z" fill="url(#bfa05dd5-616b-4005-a3d2-dc7d68eeedcd)"/>
      </g>
    </g>
  </g>
</svg>
