<svg xmlns="http://www.w3.org/2000/svg" viewBox="0 0 18 18">
  <defs>
    <linearGradient id="e40a7e57-98c8-45f5-8016-014abb64b8e7" x1="9.007" y1="932.994" x2="9.007" y2="913.574" gradientTransform="matrix(1, 0, 0, -1, 0, 932.373)" gradientUnits="userSpaceOnUse">
      <stop offset="0" stop-color="#e6e6e6" />
      <stop offset="1" stop-color="#999" />
    </linearGradient>
    <linearGradient id="e2e261e5-c52c-4789-adff-ccc822519246" x1="4.203" y1="0.039" x2="4.203" y2="3.585" gradientUnits="userSpaceOnUse">
      <stop offset="0" stop-color="#50e6ff" />
      <stop offset="1" stop-color="#32bedd" />
    </linearGradient>
    <linearGradient id="af606f7a-761f-4b5e-9479-123ba14f6ca1" x1="13.797" y1="0.048" x2="13.797" y2="3.553" gradientUnits="userSpaceOnUse">
      <stop offset="0" stop-color="#50e6ff" />
      <stop offset="1" stop-color="#32bedd" />
    </linearGradient>
  </defs>
  <path d="M7.81,11.66v.949a2.436,2.436,0,1,0,2.374-.008v-.926A3.288,3.288,0,1,1,7.81,11.66Z" fill="#32bedd" />
  <path d="M12.908,7.155a.294.294,0,0,0,.3-.295V1.818h1.2V7.144a1.2,1.2,0,0,1-1.191,1.214H9.591v4.627A1.843,1.843,0,1,1,8.4,12.99V8.358H4.8A1.2,1.2,0,0,1,3.606,7.144V2.21h1.2V6.859a.3.3,0,0,0,.3.3Z" fill="url(#e40a7e57-98c8-45f5-8016-014abb64b8e7)" />
  <circle cx="4.203" cy="1.844" r="1.842" fill="url(#e2e261e5-c52c-4789-adff-ccc822519246)" />
  <circle cx="13.797" cy="1.842" r="1.842" fill="url(#af606f7a-761f-4b5e-9479-123ba14f6ca1)" />
</svg>