<svg xmlns="http://www.w3.org/2000/svg" width="18" height="18" viewBox="0 0 18 18">
  <defs>
    <radialGradient id="fdf7ceb6-48b0-4e85-ab00-c93bffff3e7e" cx="9.32" cy="8.689" r="10.704" gradientUnits="userSpaceOnUse">
      <stop offset="0.5" stop-color="#b3b3b3"/>
      <stop offset="1" stop-color="#999"/>
    </radialGradient>
  </defs>
  <path d="M9.32.01A8.682,8.682,0,0,0,.867,10.66L4.54,9.8a4.913,4.913,0,1,1,4.78,3.8,4.8,4.8,0,0,1-.614-.062L8.232,17.3A8.683,8.683,0,0,0,18,8.689,8.721,8.721,0,0,0,9.32.01Z" fill="url(#fdf7ceb6-48b0-4e85-ab00-c93bffff3e7e)"/>
  <path d="M9.017,17.99h0V13.978h0a4.908,4.908,0,0,1-4.986-4.83q0-.082,0-.165H0A9.008,9.008,0,0,0,9.007,17.99Z" fill="#0078d4"/>
  <path d="M4.012,8.983a4.947,4.947,0,0,0,4.88,4.995h.125l-.318-.6a4.339,4.339,0,0,1-4.08-4.1Z" fill="#005ba1"/>
  <path d="M7.626,8.637a1.112,1.112,0,0,1-.836-.329,1.222,1.222,0,0,1-.317-.885,1.341,1.341,0,0,1,.338-.963,1.183,1.183,0,0,1,.9-.356,1.1,1.1,0,0,1,.843.322,1.272,1.272,0,0,1,.3.906,1.322,1.322,0,0,1-.336.952A1.173,1.173,0,0,1,7.626,8.637Zm3.55-2.465L8.009,11.034H7.182l3.16-4.862ZM7.691,6.7c-.33,0-.5.229-.5.689,0,.434.157.65.471.65s.481-.226.481-.678S8,6.7,7.691,6.7Zm2.963,4.4a1.106,1.106,0,0,1-.836-.329A1.222,1.222,0,0,1,9.5,9.888a1.339,1.339,0,0,1,.338-.962,1.178,1.178,0,0,1,.9-.356,1.1,1.1,0,0,1,.844.318,1.262,1.262,0,0,1,.3.9,1.335,1.335,0,0,1-.336.956A1.172,1.172,0,0,1,10.654,11.1Zm.055-1.936c-.329,0-.492.23-.492.688q0,.651.478.651t.481-.678a.81.81,0,0,0-.128-.488A.4.4,0,0,0,10.709,9.166Z" fill="#0078d4"/>
</svg>
