<svg xmlns="http://www.w3.org/2000/svg" viewBox="0 0 18 18">
  <defs>
    <linearGradient id="a2f017eb-ea05-4160-87a2-65c42e0a03a6" x1="8.96" y1="16.972" x2="9.012" y2="2.149" gradientUnits="userSpaceOnUse">
      <stop offset="0.545" stop-color="#0078d4" />
      <stop offset="1" stop-color="#5ea0ef" />
    </linearGradient>
    <linearGradient id="a188da6d-0d45-4be6-8b2e-385805ef8245" x1="9" y1="16.877" x2="9" y2="1.123" gradientUnits="userSpaceOnUse">
      <stop offset="0" stop-color="#1988d9" />
      <stop offset="0.9" stop-color="#54aef0" />
    </linearGradient>
  </defs>
  <g id="b4f424b2-4db8-4967-ad93-5bf15b4415ba">
    <path d="M16.029,8.432c0,4.619-5.583,8.337-6.8,9.091a.433.433,0,0,1-.462,0c-1.215-.754-6.8-4.472-6.8-9.091V2.874a.442.442,0,0,1,.432-.44C6.745,2.317,5.746.41,9,.41s2.255,1.907,6.6,2.024a.442.442,0,0,1,.432.44Z" fill="url(#a2f017eb-ea05-4160-87a2-65c42e0a03a6)" />
    <path d="M15.446,8.479c0,4.236-5.12,7.646-6.234,8.337a.4.4,0,0,1-.424,0c-1.114-.691-6.234-4.1-6.234-8.337v-5.1a.4.4,0,0,1,.4-.4C6.932,2.871,6.016,1.123,9,1.123s2.068,1.748,6.05,1.856a.4.4,0,0,1,.4.4Z" fill="url(#a188da6d-0d45-4be6-8b2e-385805ef8245)" />
    <circle cx="9" cy="8.337" r="4.256" fill="#0078d4" />
    <path d="M10.126,8.75c-.01.006-.021.009-.03.014a1.967,1.967,0,1,0-2.121-.027l-.007,0a3.11,3.11,0,0,0-2.211,2.331A4.2,4.2,0,0,0,12.3,11,3.367,3.367,0,0,0,10.126,8.75Zm-.441.2c-.038.013-.076.025-.116.036C9.609,8.979,9.647,8.967,9.685,8.954ZM8.421,8.949c.039.014.079.026.12.038C8.5,8.975,8.461,8.963,8.421,8.949Z" fill="#f2f2f2" />
  </g>
</svg>