<svg id="b9003a35-2e77-412e-b4e1-79530a641fca" xmlns="http://www.w3.org/2000/svg" width="18" height="18" viewBox="0 0 18 18">
  <defs>
    <linearGradient id="fed5038d-7fb9-448e-9116-0fdf3ba25e21" x1="7.691" y1="16.843" x2="7.691" y2="4.28" gradientUnits="userSpaceOnUse">
      <stop offset="0" stop-color="#b3b2b3"/>
      <stop offset="0.38" stop-color="#afaeaf"/>
      <stop offset="0.76" stop-color="#a2a2a2"/>
      <stop offset="1" stop-color="#979797"/>
    </linearGradient>
    <linearGradient id="bb9da2ea-c4d8-4a22-82c0-cecfa78b5d1f" x1="13.718" y1="830.911" x2="13.718" y2="840.364" gradientTransform="matrix(1, 0, 0, -0.99, 0, 839.41)" gradientUnits="userSpaceOnUse">
      <stop offset="0" stop-color="#949494"/>
      <stop offset="0.33" stop-color="#9b9b9b"/>
      <stop offset="0.82" stop-color="#aeafb0"/>
      <stop offset="1" stop-color="#b6b8b9"/>
    </linearGradient>
  </defs>
  <path d="M6.111,12.087a1.661,1.661,0,0,1,.448-.306,1.482,1.482,0,0,1,.1-.269,1.553,1.553,0,0,1,.811-.646,1.545,1.545,0,0,1,.316-.432,1.528,1.528,0,0,1,.783-.361l-.213-.4-.413-.828,1.023-1V.421A.481.481,0,0,0,8.449,0H.518A.481.481,0,0,0,0,.421V12.114a.481.481,0,0,0,.518.419H5.833A1.514,1.514,0,0,1,6.111,12.087Z" fill="#949494"/>
  <path d="M1.32,5.355a.974.974,0,0,1,.974-.975h4.49a.974.974,0,0,1,.974.975h0a.974.974,0,0,1-.962.986h-4.5a.974.974,0,0,1-.974-.974Z" fill="#003067"/>
  <path d="M1.32,2.469a.974.974,0,0,1,.962-.987h4.5a.974.974,0,0,1,.974.974v.013h0a.974.974,0,0,1-.974.974H2.294A.974.974,0,0,1,1.32,2.469Z" fill="#003067"/>
  <circle cx="2.331" cy="2.469" r="0.654" fill="#50e6ff"/>
  <path d="M7.981,15.361l.009-.019a4.565,4.565,0,0,1-1.849-1.1,1.57,1.57,0,0,1-.03-2.152,1.661,1.661,0,0,1,.448-.306,1.482,1.482,0,0,1,.1-.269,1.553,1.553,0,0,1,.811-.646,1.545,1.545,0,0,1,.316-.432,1.528,1.528,0,0,1,.783-.361l-.213-.4-.413-.828L10.022,6.81l1.357.653.205-.605.581-.581.017,0,0-1.539,0-.028a.481.481,0,0,0-.529-.427L3.716,4.3H3.7a.481.481,0,0,0-.5.458l.029,11.68a.481.481,0,0,0,.519.431l5.716-.014Z" fill="url(#fed5038d-7fb9-448e-9116-0fdf3ba25e21)"/>
  <g>
    <path d="M17.944,12.611V11.518l-.061-.055-1.123-.378-.286-.726.555-1.147.061-.129-.366-.372L16.3,8.29l-.147.073-1.1.556-.739-.208L13.837,7.49H12.745l-.055.055-.379,1.117-.769.287-1.269-.61L9.492,9.1l.073.146.586,1.111A3.66,3.66,0,0,1,12.1,9.834a3.822,3.822,0,0,1,2.179.7,2.136,2.136,0,0,1,.219.158h0a1.989,1.989,0,0,1,.568.824h0a1.831,1.831,0,0,1,.128.678,1.971,1.971,0,0,1-1.971,1.971h-.012a2,2,0,0,1-1.142-.36,3.848,3.848,0,0,1-2.441,1.068l-.116.238.781.787.159-.043,1.1-.61.756.311.483,1.319h1.1l.043-.153.39-1.166.745-.311,1.288.61.775-.769-.074-.146-.567-1.092.232-.763Z" fill="url(#bb9da2ea-c4d8-4a22-82c0-cecfa78b5d1f)"/>
    <path d="M9.4,13.2h0a2.2,2.2,0,0,1-1.562-.641.281.281,0,1,1,.292-.48.288.288,0,0,1,.1.114,1.615,1.615,0,0,0,1.165.445h0a1.6,1.6,0,0,0,1.148-.445,2.163,2.163,0,0,1,1.556-.611,2.217,2.217,0,0,1,1.568.611.281.281,0,1,1-.38.413l-.016-.017a1.646,1.646,0,0,0-1.154-.476h0a1.594,1.594,0,0,0-1.147.476A2.206,2.206,0,0,1,9.4,13.2Z" fill="#50e6ff"/>
    <path d="M9.4,12.08h0a1.093,1.093,0,0,1-.769-.317.281.281,0,0,1,.4-.4.514.514,0,0,0,.372.152h0a.663.663,0,0,0,.367-.152,3.33,3.33,0,0,1,4.68,0,.281.281,0,0,1-.4.4,2.776,2.776,0,0,0-3.912,0A1.192,1.192,0,0,1,9.4,12.08Z" fill="#50e6ff"/>
    <path d="M9.4,14.314a3.3,3.3,0,0,1-2.361-.971.28.28,0,0,1,.4-.39,2.77,2.77,0,0,0,3.912-.007,1.187,1.187,0,0,1,.739-.3,1.12,1.12,0,0,1,.763.318.281.281,0,0,1,0,.4.285.285,0,0,1-.4,0,.5.5,0,0,0-.36-.152h0a.6.6,0,0,0-.366.159A3.3,3.3,0,0,1,9.4,14.314Z" fill="#32bedd"/>
  </g>
  <path d="M10.022,6.81l.8.386a.958.958,0,0,0,.126-.447V6.737a.973.973,0,0,0-.989-.959L5.5,5.789a.974.974,0,1,0,0,1.948l3.581-.008Z" fill="#003067"/>
  <path d="M7.787,10.434a1.528,1.528,0,0,1,.783-.361l-.213-.4-.413-.828.138-.136L5.5,8.712a.975.975,0,0,0,0,1.949l2.117-.006A1.293,1.293,0,0,1,7.787,10.434Z" fill="#003067"/>
  <circle cx="2.331" cy="5.355" r="0.654" fill="#50e6ff"/>
  <circle cx="5.535" cy="6.788" r="0.654" fill="#50e6ff"/>
  <circle cx="5.543" cy="9.686" r="0.654" fill="#50e6ff"/>
  <metadata>
   <rdf:RDF xmlns:rdf="http://www.w3.org/1999/02/22-rdf-syntax-ns#">
      <rdf:li>public:true</rdf:li>
      <rdf:li>sdk:false</rdf:li>
      <rdf:li>category: New Icons</rdf:li>
   </rdf:RDF>
</metadata>
</svg>
