<svg xmlns="http://www.w3.org/2000/svg" viewBox="0 0 18 18">
  <defs>
    <linearGradient id="bdbf7916-ca7b-4cb1-b60a-1f8df6cb87f3" x1="13.124" y1="17.784" x2="13.124" y2="13.285" gradientUnits="userSpaceOnUse">
      <stop offset="0" stop-color="#0078d2" />
      <stop offset="1" stop-color="#5e9eee" />
    </linearGradient>
    <linearGradient id="f492fc70-2846-4171-a044-0381f96460dd" x1="9" y1="12.428" x2="9" y2="5.568" gradientUnits="userSpaceOnUse">
      <stop offset="0" stop-color="#76ba2d" />
      <stop offset="0.817" stop-color="#85d433" />
    </linearGradient>
    <linearGradient id="e77d240e-f317-4eb1-a483-0bc6e700cda2" x1="13.085" y1="4.499" x2="13.085" y2="0" gradientUnits="userSpaceOnUse">
      <stop offset="0" stop-color="#0078d2" />
      <stop offset="1" stop-color="#5e9eee" />
    </linearGradient>
  </defs>
  <g id="ff9ff450-0c67-4957-baf3-737d398d58ea">
    <path d="M7.2,8.66c.01.113.034.222.034.338a3.8,3.8,0,0,1-.072.712h9.8V8.66Z" fill="#76ba2d" />
    <g>
      <path d="M6.843,7.347l6.547-4.67-.609-.855L6.257,6.475A3.819,3.819,0,0,1,6.843,7.347Z" fill="#0078d4" />
      <path d="M6.772,10.777a3.79,3.79,0,0,1-.609.856l6.675,4.342.572-.88Z" fill="#0078d4" />
    </g>
    <circle cx="13.124" cy="15.535" r="2.25" fill="url(#bdbf7916-ca7b-4cb1-b60a-1f8df6cb87f3)" />
    <path d="M6.86,9a3.43,3.43,0,1,1-3.43-3.43A3.43,3.43,0,0,1,6.86,9Zm8.89-2.062A2.25,2.25,0,1,0,18,9.185,2.249,2.249,0,0,0,15.75,6.936Z" fill="url(#f492fc70-2846-4171-a044-0381f96460dd)" />
    <circle cx="13.085" cy="2.25" r="2.25" fill="url(#e77d240e-f317-4eb1-a483-0bc6e700cda2)" />
  </g>
  <metadata>
    <rdf:RDF xmlns:rdf="http://www.w3.org/1999/02/22-rdf-syntax-ns#">
      <rdf:li>public:true</rdf:li>
      <rdf:li>sdk:false</rdf:li>
      <rdf:li>category:Other</rdf:li>
    </rdf:RDF>
  </metadata>
</svg>