<svg xmlns="http://www.w3.org/2000/svg" viewBox="0 0 16 16">
  <title>Icon467-command-Request-quota</title>
  <g id="f619bb96-42a7-4551-bb6e-5620b85c8151">
    <path d="M13.389,12.9h1.96v.979h-1.96v1.96h-.98v-1.96H10.45V12.9h1.959V10.94h.98ZM11.43,11.476A6.028,6.028,0,0,0,9.615,10.35a5.926,5.926,0,0,0-3.667-.183,5.55,5.55,0,0,0-1.4.6,6.562,6.562,0,0,0-1.194.918,5.319,5.319,0,0,0-.918,1.187,6.317,6.317,0,0,0-.59,1.409,5.647,5.647,0,0,0-.214,1.561H.651a6.892,6.892,0,0,1,.321-2.113A6.506,6.506,0,0,1,1.9,11.889,7.253,7.253,0,0,1,3.33,10.412,7.038,7.038,0,0,1,5.2,9.378,4.95,4.95,0,0,1,3.591,8H3.269q-.192,0-.375-.015a1.1,1.1,0,0,1-.368-.1,1.429,1.429,0,0,1-.65-.536,1.5,1.5,0,0,1-.245-.819V4.571a1.407,1.407,0,0,1,.107-.544,1.609,1.609,0,0,1,.291-.467,1.255,1.255,0,0,1,.444-.321A1.652,1.652,0,0,1,3.016,3.1a5.108,5.108,0,0,1,.758-1.21A4.762,4.762,0,0,1,4.823.965a5.187,5.187,0,0,1,1.271-.6A4.53,4.53,0,0,1,7.51.161,4.842,4.842,0,0,1,8.926.368,4.972,4.972,0,0,1,10.2.957a4.741,4.741,0,0,1,1.049.927A5.033,5.033,0,0,1,12,3.1a1.388,1.388,0,0,1,.543.138,1.43,1.43,0,0,1,.437.321,1.665,1.665,0,0,1,.3.459,1.266,1.266,0,0,1,.107.552V6.53a1.449,1.449,0,0,1-.114.574,1.464,1.464,0,0,1-.781.781A1.436,1.436,0,0,1,11.92,8a1.37,1.37,0,0,1-.437-.069,5.508,5.508,0,0,1-.75.819,4.67,4.67,0,0,1-.911.628,6.416,6.416,0,0,1,.834.375,6.483,6.483,0,0,1,.774.49Zm0-6.905V6.53a.49.49,0,0,0,.979,0V4.571a.49.49,0,0,0-.979,0ZM3.591,7.02V4.571a.488.488,0,0,0-.835-.345.471.471,0,0,0-.145.345V6.53a.5.5,0,0,0,.49.49Zm7.1.322a1.112,1.112,0,0,1-.184-.383,1.956,1.956,0,0,1-.061-.429V4.571a1.439,1.439,0,0,1,.153-.666,1.493,1.493,0,0,1,.451-.521,3.918,3.918,0,0,0-.612-.926,3.8,3.8,0,0,0-.834-.705,4.162,4.162,0,0,0-1-.451,3.767,3.767,0,0,0-1.1-.161,3.914,3.914,0,0,0-1.095.153,3.8,3.8,0,0,0-1,.452,4.146,4.146,0,0,0-.842.712,3.633,3.633,0,0,0-.612.926A1.464,1.464,0,0,1,4.41,3.9a1.522,1.522,0,0,1,.16.674V7.02h.98a.953.953,0,0,1,.077-.383.984.984,0,0,1,.207-.306,1.071,1.071,0,0,1,.313-.214A.835.835,0,0,1,6.53,6.04a.949.949,0,0,1,.383.077.984.984,0,0,1,.306.207,1.073,1.073,0,0,1,.215.313.837.837,0,0,1,.076.383.949.949,0,0,1-.076.383,1,1,0,0,1-.207.306,1.092,1.092,0,0,1-.314.215A.834.834,0,0,1,6.53,8H4.915a3.87,3.87,0,0,0,1.209.727A4.049,4.049,0,0,0,7.51,8.98a3.994,3.994,0,0,0,.919-.107A3.7,3.7,0,0,0,9.3,8.544a4.266,4.266,0,0,0,.766-.513A3.721,3.721,0,0,0,10.7,7.342Z" />
  </g>
</svg>