<svg xmlns="http://www.w3.org/2000/svg" viewBox="0 0 18 18">
  <defs>
    <linearGradient id="fb199509-8833-4590-b6c1-b1ab89770734" x1="8.738" y1="2.237" x2="8.738" y2="14.425" gradientUnits="userSpaceOnUse">
      <stop offset="0" stop-color="#5ea0ef" />
      <stop offset="1" stop-color="#0078d4" />
    </linearGradient>
  </defs>
  <g id="b3b5b4c6-a1c7-4a0d-b393-a9c279ada9f5">
    <g>
      <g>
        <path d="M15.876,13.17H.585a.581.581,0,0,1-.58-.581V2.818a.581.581,0,0,1,.58-.581L15.876.982a.58.58,0,0,1,.58.58V12.589A.581.581,0,0,1,15.876,13.17Z" fill="#0078d4" />
        <rect x="0.005" y="2.237" width="17.467" height="12.188" rx="0.58" fill="url(#fb199509-8833-4590-b6c1-b1ab89770734)" />
        <path d="M5.905,10.784H0V8.334H6.505v1.742A.66.66,0,0,1,5.905,10.784Z" fill="#5ea0ef" />
        <path d="M5.905,5.885H0V8.334H6.506V6.592A.66.66,0,0,0,5.905,5.885Z" fill="#83b9f9" />
        <circle cx="4.653" cy="8.339" r="1.147" fill="#0078d4" />
      </g>
      <circle cx="13.646" cy="12.664" r="4.354" fill="#faa21d" />
      <circle cx="13.646" cy="12.664" r="3.685" fill="#ffb34d" />
      <rect x="11.788" y="12.286" width="3.717" height="0.756" fill="#fff" opacity="0.9" />
    </g>
  </g>
</svg>