<svg xmlns="http://www.w3.org/2000/svg" viewBox="0 0 18 18">
  <defs>
    <linearGradient id="ed08a46a-d82e-4b83-8f3c-c4251b7a9e3b" x1="8.897" y1="1.361" x2="8.897" y2="17.868" gradientUnits="userSpaceOnUse">
      <stop offset="0" stop-color="#42e8ca" />
      <stop offset="1" stop-color="#3cd4c2" />
    </linearGradient>
  </defs>
  <g id="b507cca7-482c-4679-aaae-13f71b71f5a8">
    <path d="M16.262,8.4c0,4.84-5.85,8.736-7.122,9.526a.461.461,0,0,1-.485,0c-1.272-.79-7.122-4.686-7.122-9.526V2.582a.463.463,0,0,1,.452-.462C6.535,2,5.487,0,8.9,0S11.26,2,15.81,2.12a.463.463,0,0,1,.452.462Z" fill="#3cd4c2" />
    <path d="M15.651,8.454c0,4.438-5.365,8.011-6.531,8.736a.42.42,0,0,1-.445,0c-1.167-.725-6.531-4.3-6.531-8.736V3.114a.424.424,0,0,1,.414-.423C6.731,2.578,5.77.747,8.9.747s2.167,1.831,6.339,1.944a.424.424,0,0,1,.415.423Z" fill="url(#ed08a46a-d82e-4b83-8f3c-c4251b7a9e3b)" />
    <path d="M10.87,6.852A1.552,1.552,0,0,0,9.357,8.07h-5.5a1,1,0,0,0-.621.219L1.645,9.57a6.9,6.9,0,0,0,.174.708L3.654,8.8a.33.33,0,0,1,.207-.072h5.5a1.549,1.549,0,1,0,1.513-1.88Zm0,2.437a.888.888,0,1,1,.888-.888A.889.889,0,0,1,10.87,9.289Z" fill="#fff" opacity="0.8" />
    <path d="M14.254,12.134a1,1,0,0,0-.621-.218h-5.5a1.55,1.55,0,1,0,0,.661h5.5a.331.331,0,0,1,.207.073l.636.511c.131-.178.258-.36.379-.544Zm-7.63,1a.888.888,0,1,1,.888-.888A.889.889,0,0,1,6.624,13.135Z" fill="#fff" />
    <path d="M16.262,6.829l-2.491-2a.993.993,0,0,0-.621-.218h-5.5a1.55,1.55,0,1,0,0,.661h5.5a.336.336,0,0,1,.207.072l2.905,2.332Zm-10.121-1a.888.888,0,1,1,.889-.888A.889.889,0,0,1,6.141,5.83Z" fill="#fff" opacity="0.6" />
  </g>
</svg>