<svg id="uuid-2ec4bf41-58c8-4100-b205-605323094f68" xmlns="http://www.w3.org/2000/svg" width="18" height="18" viewBox="0 0 18 18">
  <defs>
    <linearGradient id="uuid-50706c83-2baa-43c7-a0cd-a031fa0ca6b3" x1="-613.1" y1="-214.759" x2="-605.424" y2="-214.759" gradientTransform="translate(617.126 -205.758) scale(1 -1)" gradientUnits="userSpaceOnUse">
      <stop offset=".496" stop-color="#5e9624"/>
      <stop offset=".999" stop-color="#365615"/>
    </linearGradient>
    <linearGradient id="uuid-fe49ae81-5d1a-4dca-8d06-572f338e4da7" x1="-612.042" y1="-214.799" x2="-604.366" y2="-214.799" gradientTransform="translate(617.126 -205.758) scale(1 -1)" gradientUnits="userSpaceOnUse">
      <stop offset=".001" stop-color="#76bc2d"/>
      <stop offset="1" stop-color="#86d633"/>
    </linearGradient>
  </defs>
  <g>
    <path d="m5.086,12.11c.041-.673.345-1.494.86-2.268.166-.282.372-.57.618-.849.743-.847,1.817-1.589,3.136-1.919.187-.046.3-.236.254-.423-.046-.187-.236-.3-.423-.254-1.471.368-2.665,1.194-3.49,2.135-.186.212-.357.433-.507.658-.063-.21-.103-.448-.103-.711,0-.64.326-1.334.842-1.885.526-.562,1.288-1.015,2.228-1.14,1.954-.259,3.165-.042,3.88.159.197.055.344.221.375.423s-.057.404-.228.517c-.04.027-.104.09-.182.237-.077.145-.148.335-.223.576-.061.199-.12.413-.182.646l-.04.147c-.077.286-.164.593-.266.897-.204.602-.491,1.243-.974,1.736-.501.511-1.182.83-2.091.83-.927,0-1.574-.375-1.988-.808-.282.516-.428,1.002-.45,1.361-.018.288-.265.508-.554.49-.288-.018-.508-.265-.49-.554h0Z" fill="url(#uuid-50706c83-2baa-43c7-a0cd-a031fa0ca6b3)"/>
    <path d="m5.086,12.11c.041-.673.345-1.494.86-2.268.166-.282.372-.57.618-.849.743-.847,1.817-1.589,3.136-1.919,1.342-.315,2.666-1.103,1.714-1.659.484.06.797.153.966.199.199.055.344.221.375.423s-.057.404-.228.517c-.04.027-.104.09-.182.237-.077.145-.148.335-.223.576-.061.199-.12.413-.182.646l-.04.147c-.077.286-.164.593-.266.897-.204.602-.491,1.243-.974,1.736-.501.511-1.182.83-2.091.83-.927,0-1.574-.375-1.988-.808-.282.516-.428,1.002-.45,1.361-.018.288-.265.508-.554.49-.288-.018-.508-.265-.49-.554Z" fill="url(#uuid-fe49ae81-5d1a-4dca-8d06-572f338e4da7)"/>
  </g>
  <path d="m10.903,16.087l-1.637-1.63c-.102-.101-.276-.029-.275.115l.002,1.023h-.004v.006c-2.446,0-4.659-1.448-5.639-3.69l-1.183.517c1.185,2.712,3.863,4.464,6.822,4.464h.007l.002.946c0,.144.174.215.276.113l1.63-1.637c.063-.063.063-.165,0-.228Z" fill="#0078d4"/>
  <path d="m9.011,1.108h-.007l-.002-.947c0-.144-.174-.215-.276-.113l-1.63,1.637c-.063.063-.063.165,0,.228l1.637,1.63c.102.101.276.029.275-.115l-.002-1.032h.005v.002c2.446,0,4.659,1.448,5.639,3.69l1.183-.517c-1.185-2.712-3.863-4.464-6.822-4.464Z" fill="#83b9f9"/>
  <path d="m17.952,8.726l-1.637-1.63c-.063-.063-.165-.063-.228,0l-1.63,1.637c-.101.102-.029.276.115.275l1.03-.002v.005c0,2.446-1.448,4.659-3.69,5.638l.517,1.183c2.712-1.185,4.464-3.863,4.464-6.822v-.007l.947-.002c.144,0,.215-.174.113-.276Z" fill="#005ba1"/>
  <path d="m2.399,8.989c0-2.446,1.448-4.659,3.69-5.639l-.517-1.183C2.86,3.352,1.108,6.03,1.108,8.989v.007l-.947.002c-.144,0-.215.174-.113.276l1.637,1.63c.063.063.165.063.228,0l1.63-1.637c.101-.102.029-.276-.115-.275l-1.032.002v-.005h.002Z" fill="#5ea0ef"/>
</svg>