<svg xmlns="http://www.w3.org/2000/svg" width="18" height="18" viewBox="0 0 18 18">
  <g id="acd24aad-3c9d-4e0d-8986-5ac88088cc4d">
    <g>
      <path d="M9,16.4A7.4,7.4,0,1,0,1.6,9,7.422,7.422,0,0,0,9,16.4Z" fill="#57a300"/>
      <path d="M7.057,5.762v6.476c0,.092.093.092.185.092l5.18-3.238c.093,0,.093-.092,0-.185L7.15,5.67A.091.091,0,0,0,7.057,5.762Z" fill="#fff"/>
    </g>
    <path d="M9,2.013A6.987,6.987,0,1,1,2.013,9,6.987,6.987,0,0,1,9,2.013M9,1a8,8,0,1,0,8,8A8.009,8.009,0,0,0,9,1Z" fill="#fff"/>
  </g>
</svg>
