<svg xmlns="http://www.w3.org/2000/svg" width="18" height="18" viewBox="0 0 18 18">
  <defs>
    <linearGradient id="b601e27b-adb7-4682-87d4-434966c27e5f" x1="-1013.452" y1="8.807" x2="-1013.452" y2="16.027" gradientTransform="matrix(-1, 0, 0.364, 1, -1005.275, 0)" gradientUnits="userSpaceOnUse">
      <stop offset="0" stop-color="#005ba1"/>
      <stop offset="1" stop-color="#003067"/>
    </linearGradient>
    <linearGradient id="b7c74bc1-7c20-4a8b-9299-9f13d417575f" x1="-145.96" y1="0.879" x2="-145.96" y2="17.192" gradientTransform="matrix(1, 0, -0.364, 1, 157.734, 0)" gradientUnits="userSpaceOnUse">
      <stop offset="0.238" stop-color="#0078d4"/>
      <stop offset="1" stop-color="#005ba1"/>
    </linearGradient>
    <linearGradient id="b1c0fc38-bffd-4dbb-95f7-4e0265dce377" x1="-145.96" y1="1.977" x2="-145.96" y2="16.033" gradientTransform="matrix(1, 0, -0.364, 1, 157.734, 0)" gradientUnits="userSpaceOnUse">
      <stop offset="0" stop-color="#005ba1"/>
      <stop offset="1" stop-color="#003067"/>
    </linearGradient>
    <linearGradient id="af0cd716-573f-47e1-82a1-f05c9c726d1d" x1="169.745" y1="939.354" x2="169.745" y2="944.125" gradientTransform="matrix(-0.163, -0.906, 1.027, -0.423, -933.172, 560.938)" gradientUnits="userSpaceOnUse">
      <stop offset="0.261" stop-color="#e6e6e6"/>
      <stop offset="0.999" stop-color="#b3b3b3"/>
    </linearGradient>
    <linearGradient id="f504439e-e917-4d84-8f0b-e072bfb5869e" x1="-679.952" y1="-101.502" x2="-679.952" y2="-97.516" gradientTransform="matrix(0.163, 0.906, -1.027, 0.423, 18.701, 665.979)" gradientUnits="userSpaceOnUse">
      <stop offset="0.001" stop-color="#fff"/>
      <stop offset="1" stop-color="#f2f2f2"/>
    </linearGradient>
  </defs>
  <g id="b9fc3c10-bb62-42eb-8b53-4382b1cf2fb8">
    <g>
      <path d="M11.094,13.343l6.521,2.441a.284.284,0,0,0,.379-.322L15.567,9,7.739,10.31Z" fill="url(#b601e27b-adb7-4682-87d4-434966c27e5f)"/>
      <path d="M13.17,16.667.425,13.31a.57.57,0,0,1-.4-.708L3.134,1.727a.569.569,0,0,1,.616-.408l13.377,1.62a.568.568,0,0,1,.477.727L13.861,16.278A.569.569,0,0,1,13.17,16.667Z" fill="url(#b7c74bc1-7c20-4a8b-9299-9f13d417575f)"/>
      <polygon points="1.101 12.457 3.992 2.352 16.504 3.868 13.023 15.597 1.101 12.457" fill="url(#b1c0fc38-bffd-4dbb-95f7-4e0265dce377)"/>
      <g>
        <path d="M5.084,9.03,9.152,7.357l.264,1.467L5.348,10.5c-.46.189-.892.014-.965-.393A1.078,1.078,0,0,1,5.084,9.03Z" fill="url(#af0cd716-573f-47e1-82a1-f05c9c726d1d)"/>
        <path d="M10.769,9.356c-1.082.445-2.1.041-2.287-.9a2.558,2.558,0,0,1,1.644-2.582,1.844,1.844,0,0,1,1.79.084c.067.048.027.166-.069.206l-1.278.525a1.231,1.231,0,0,0-.8,1.183c.069.468.557.673,1.077.459l1.3-.536c.1-.04.171.031.129.123A2.865,2.865,0,0,1,10.769,9.356Z" fill="url(#f504439e-e917-4d84-8f0b-e072bfb5869e)"/>
      </g>
    </g>
  </g>
</svg>
