<svg xmlns="http://www.w3.org/2000/svg" width="18" height="18" viewBox="0 0 18 18">
  <defs>
    <linearGradient id="b8b3038c-4047-4603-8289-68add48111e9" x1="9" y1="16.236" x2="9" y2="5.599" gradientUnits="userSpaceOnUse">
      <stop offset="0" stop-color="#5ea0ef"/>
      <stop offset="0.775" stop-color="#83b9f9"/>
    </linearGradient>
  </defs>
  <g id="f02141e5-fd5b-41e4-9c0b-03d02c84e685">
    <path d="M0,5.6H18a0,0,0,0,1,0,0V15.635a.6.6,0,0,1-.6.6H.6a.6.6,0,0,1-.6-.6V5.6A0,0,0,0,1,0,5.6Z" fill="url(#b8b3038c-4047-4603-8289-68add48111e9)"/>
    <path d="M.6,1.764H17.4a.6.6,0,0,1,.6.6V5.6a0,0,0,0,1,0,0H0a0,0,0,0,1,0,0V2.365A.6.6,0,0,1,.6,1.764Z" fill="#005ba1"/>
    <g>
      <g opacity="0.8">
        <rect x="9" y="7.937" width="7.413" height="1.084" rx="0.542" fill="#fff"/>
      </g>
      <g opacity="0.6">
        <rect x="9" y="10.376" width="6.273" height="1.084" rx="0.542" fill="#fff"/>
      </g>
      <g opacity="0.4">
        <rect x="9" y="12.816" width="7.413" height="1.084" rx="0.542" fill="#fff"/>
      </g>
    </g>
    <path d="M4.733,7.257a.421.421,0,1,1-.42-.42A.42.42,0,0,1,4.733,7.257Zm0,7.321a.421.421,0,1,1-.42-.42A.421.421,0,0,1,4.733,14.578ZM2.509,13.4V12.213a2.282,2.282,0,0,0,1.466.541,1.7,1.7,0,0,0,.4-.04.917.917,0,0,0,.282-.114.489.489,0,0,0,.169-.17.43.43,0,0,0,.056-.214.463.463,0,0,0-.089-.278.968.968,0,0,0-.243-.226,2.56,2.56,0,0,0-.366-.2c-.141-.064-.293-.13-.456-.2a2.335,2.335,0,0,1-.93-.635,1.386,1.386,0,0,1-.306-.9,1.445,1.445,0,0,1,.167-.715,1.419,1.419,0,0,1,.455-.492,2.025,2.025,0,0,1,.666-.283,3.4,3.4,0,0,1,.8-.091,4.752,4.752,0,0,1,.737.05,2.9,2.9,0,0,1,.592.154V9.507a1.747,1.747,0,0,0-.292-.163,2.318,2.318,0,0,0-.324-.117,2.537,2.537,0,0,0-.646-.091,1.631,1.631,0,0,0-.371.039.959.959,0,0,0-.282.11.537.537,0,0,0-.178.169.4.4,0,0,0-.063.22.425.425,0,0,0,.07.24.811.811,0,0,0,.2.2,2.115,2.115,0,0,0,.315.186c.124.06.263.123.419.187a4.724,4.724,0,0,1,.574.284,2.067,2.067,0,0,1,.436.339,1.332,1.332,0,0,1,.278.433,1.733,1.733,0,0,1-.072,1.313,1.374,1.374,0,0,1-.459.49,1.975,1.975,0,0,1-.673.269,3.859,3.859,0,0,1-.811.082,4.545,4.545,0,0,1-.833-.074A2.528,2.528,0,0,1,2.509,13.4Z" fill="#fff"/>
  </g>
  <metadata>
   <rdf:RDF xmlns:rdf="http://www.w3.org/1999/02/22-rdf-syntax-ns#">
      <rdf:li>public:true</rdf:li>
      <rdf:li>sdk:false</rdf:li>
      <rdf:li>category:Cost Management</rdf:li>
   </rdf:RDF>
</metadata>
</svg>
