<svg id="uuid-59f67dc7-b0a0-4388-be24-c3f9b1ab3d8f" xmlns="http://www.w3.org/2000/svg" width="18" height="18" viewBox="0 0 18 18"><defs><linearGradient id="uuid-b6390e26-4797-4c04-b89d-85e3fe8cd3f2" x1="9" y1="1077.875" x2="9" y2="1060.125" gradientTransform="translate(0 -1060)" gradientUnits="userSpaceOnUse"><stop offset="0" stop-color="#155ea1" /><stop offset="1" stop-color="#0078d4" /></linearGradient><linearGradient id="uuid-02203664-f2f2-489d-92c3-cd784be0a3c5" x1="5.567" y1="1068.837" x2="12.432" y2="1068.837" gradientTransform="translate(0 -1060)" gradientUnits="userSpaceOnUse"><stop offset="0" stop-color="#155ea1" /><stop offset="1" stop-color="#2a446f" /></linearGradient><linearGradient id="uuid-592377a7-68cb-478a-92e4-756b9ecbd450" x1="-4419.821" y1="1074.051" x2="-4419.821" y2="1064.252" gradientTransform="translate(-4410.886 -1060) rotate(-180) scale(1 -1)" gradientUnits="userSpaceOnUse"><stop offset="0" stop-color="#46a0de" /><stop offset="1" stop-color="#8dc8e8" /></linearGradient></defs><path d="M1,3.5c0-.4.3-.7.7-.7,2.3,0,4.6-.8,6.9-2.5.2-.2.6-.2.8,0,2.3,1.7,4.6,2.5,6.9,2.5.4,0,.7.3.7.7v4.7c0,4.4-2.6,7.7-7.7,9.7-.2.1-.3.1-.5,0C3.6,15.8,1,12.6,1,8.1V3.5Z" fill="url(#uuid-b6390e26-4797-4c04-b89d-85e3fe8cd3f2)" /><path d="M6.7,4.2l.6-.2c.5-.2,1,.1,1.2.6l.4,1c.2.4.1.9-.2,1.2l-1,.9c.1.5.2,1,.5,1.6s.7.9,1.1,1.3l1.1-.4c.4-.1.9,0,1.1.4l.6.9c.3.4.2,1.1-.1,1.4l-.4.4c-.4.4-1,.5-1.5.4-1.2-.4-2.4-1.5-3.4-3.5-1-1.9-1.4-3.5-1.1-4.9.2-.5.6-1,1.1-1.1h0Z" fill="url(#uuid-02203664-f2f2-489d-92c3-cd784be0a3c5)" isolation="isolate" opacity=".4" /><path d="M6.7,4.5l.5-.2c.5-.2,1,.1,1.2.6l.4,1c.3.4.2.9-.1,1.2l-1,.9c.1.5.2,1,.5,1.6.3.5.7.9,1.1,1.3l1.1-.4c.4-.1.9,0,1.1.4l.6.9c.3.4.2,1.1-.1,1.4l-.4.4c-.4.4-1,.5-1.5.4-1.2-.4-2.4-1.5-3.4-3.5-1-1.9-1.3-3.5-1-4.9.1-.5.5-1,1-1.1h0Z" fill="url(#uuid-592377a7-68cb-478a-92e4-756b9ecbd450)" /></svg>