<svg xmlns="http://www.w3.org/2000/svg" width="18" height="18" viewBox="0 0 18 18">
  <defs>
    <linearGradient id="b5d38d74-7c0f-44df-bd91-7a8a2543ce78" x1="6.154" y1="782.955" x2="6.154" y2="786.91" gradientTransform="matrix(1, 0, 0, -1, 0, 791.516)" gradientUnits="userSpaceOnUse">
      <stop offset="0" stop-color="#198ab3"/>
      <stop offset="0.16" stop-color="#1f9ac2"/>
      <stop offset="0.5" stop-color="#29bade"/>
      <stop offset="0.8" stop-color="#30cdef"/>
      <stop offset="1" stop-color="#32d4f5"/>
    </linearGradient>
  </defs>
  <g id="b94c71a2-53f7-4a99-bc5e-7a69d0d9dd24">
    <g>
      <g>
        <path d="M13.022,16.764c-2.09-.28-2.055-1.624-2.045-3.8H7.061c.01,2.179.045,3.523-2.046,3.8a1.066,1.066,0,0,0-.984.958h9.981A1.072,1.072,0,0,0,13.022,16.764Z" fill="#1f56a3"/>
        <rect y="0.278" width="18" height="12.747" rx="0.61" fill="#1490df"/>
        <rect x="1.037" y="1.265" width="15.901" height="10.576" rx="0.305" fill="#fff"/>
      </g>
      <g>
        <ellipse cx="6.154" cy="6.58" rx="1.966" ry="1.974" fill="url(#b5d38d74-7c0f-44df-bd91-7a8a2543ce78)"/>
        <ellipse cx="11.66" cy="3.494" rx="0.961" ry="0.968" fill="#32bedd"/>
        <ellipse cx="11.66" cy="6.655" rx="0.961" ry="0.968" fill="#32bedd"/>
        <ellipse cx="11.66" cy="9.809" rx="0.961" ry="0.968" fill="#32bedd"/>
        <ellipse cx="9.467" cy="5.112" rx="0.961" ry="0.968" fill="#50e6ff"/>
        <ellipse cx="9.467" cy="8.274" rx="0.961" ry="0.968" fill="#50e6ff"/>
      </g>
    </g>
  </g>
</svg>
