<svg xmlns="http://www.w3.org/2000/svg" width="18" height="18" viewBox="0 0 18 18">
  <defs>
    <linearGradient id="aa61777f-5b07-4822-8b1b-81dffd1978f7" x1="3.501" y1="-407.372" x2="3.501" y2="-394.561" gradientTransform="matrix(1, -0.001, 0.001, 0.481, -0.277, 199.684)" gradientUnits="userSpaceOnUse">
      <stop offset="0" stop-color="#32bedd"/>
      <stop offset="1" stop-color="#198ab3"/>
    </linearGradient>
    <linearGradient id="a59af4a9-08bd-44c1-ab2b-9b5434c5b24d" x1="8.795" y1="-408.51" x2="8.795" y2="-393.542" gradientTransform="matrix(1, -0.001, 0.001, 0.481, -0.277, 199.684)" gradientUnits="userSpaceOnUse">
      <stop offset="0" stop-color="#50e6ff"/>
      <stop offset="1" stop-color="#32bedd"/>
    </linearGradient>
  </defs>
  <path d="M2.727,9.641.41,9.646c-.282,0-.477-.136-.376-.263l2.71-2.648a.122.122,0,0,0,0-.189L.027,3.844c-.1-.126.093-.263.376-.263l2.317,0A.506.506,0,0,1,3.1,3.7L5.927,6.541a.121.121,0,0,1,0,.187L3.1,9.516A.508.508,0,0,1,2.727,9.641Z" fill="url(#aa61777f-5b07-4822-8b1b-81dffd1978f7)"/>
  <path d="M8.777,9.635,4.948,9.64c-.282,0-.477-.136-.376-.263l2.71-2.648a.121.121,0,0,0,0-.188l-2.719-2.7c-.1-.127.093-.264.376-.264L8.77,3.569a.513.513,0,0,1,.376.124l2.831,2.842a.119.119,0,0,1,0,.186L9.153,9.51A.513.513,0,0,1,8.777,9.635Z" fill="url(#a59af4a9-08bd-44c1-ab2b-9b5434c5b24d)"/>
  <g opacity="0.9">
    <polygon points="14.266 5.646 8.854 11.058 9.069 11.417 9.738 12.503 15.43 6.81 14.266 5.646" fill="#0078d4" />
    <path d="M15.773,6.467,17,5.239l-.888-.886a.387.387,0,0,0-.547,0l-.955.955Z" fill="#0078d4"/>
  </g>
  <polygon points="16.594 7.973 11.18 13.384 10.823 13.168 9.736 12.502 15.43 6.808 16.594 7.973" fill="#0078d4"/>
  <path d="M15.771,6.467,17,5.238l.887.887a.388.388,0,0,1,0,.548l-.955.955Z" fill="#0078d4"/>
  <path d="M11.179,13.39,8.208,14.43a.388.388,0,0,1-.394-.38v-.012l1.04-2.973.887,1.44Z" fill="#83b9f9"/>
</svg>
