<svg xmlns="http://www.w3.org/2000/svg" width="18" height="18" viewBox="0 0 18 18">
  <defs>
    <linearGradient id="a8e7e652-f9a9-4805-b445-d997f5c7f658" x1="9.949" y1="11.912" x2="9.949" y2="7.749" gradientUnits="userSpaceOnUse">
      <stop offset="0" stop-color="#773adc"/>
      <stop offset="1" stop-color="#a67af4"/>
    </linearGradient>
  </defs>
  <g id="e3311863-cfe6-41c2-b05e-f1618710dfab">
    <path d="M9.866.772H10.1a.329.329,0,0,1,.329.329h0V2.332H9.537V1.1A.329.329,0,0,1,9.866.772ZM9.537,4.554h.892V2.992H9.537Zm0,2.142h.892V5.135H9.537Zm-7.4,2.911V10.5h1.72V9.607Zm-1.806,0h0A.329.329,0,0,0,0,9.936v.234H0a.329.329,0,0,0,.329.329H1.561V9.607Z" fill="#b796f9"/>
    <path d="M15.549,7.749H4.35a.5.5,0,0,0-.495.5v3.172a.5.5,0,0,0,.495.5h11.2a.5.5,0,0,0,.5-.5h0V8.245A.5.5,0,0,0,15.549,7.749Z" fill="url(#a8e7e652-f9a9-4805-b445-d997f5c7f658)"/>
    <path d="M5.29,8.32h.78a.151.151,0,0,1,.151.15v.78A.152.152,0,0,1,6.07,9.4H5.29a.151.151,0,0,1-.15-.151V8.47A.15.15,0,0,1,5.29,8.32Zm-.15,2.011v.78a.15.15,0,0,0,.15.15h.78a.151.151,0,0,0,.151-.15v-.78a.151.151,0,0,0-.151-.15H5.29A.15.15,0,0,0,5.14,10.331Z" fill="#c3f1ff"/>
    <path d="M7.789,6.671h4.323a.27.27,0,0,1,.27.27h0v.811H7.518V6.94a.27.27,0,0,1,.271-.269Z" fill="#773adc"/>
    <g>
      <circle cx="14.296" cy="11.762" r="1.765" fill="#fff"/>
      <path d="M18,12.155v-.831l-.117-.044-.889-.291-.233-.569.452-.961-.583-.583-.117.058-.83.422-.569-.233-.364-1h-.831l-.043.116-.292.889-.568.233L12.069,8.9l-.583.583.058.116.423.831L11.733,11l-1.02.365v.83l.117.044.889.292.233.568-.452.962.583.583.117-.059.83-.422.569.233.364,1.006h.831l.044-.117.291-.889.568-.233.962.452.583-.583-.058-.117-.423-.831.233-.568ZM14.357,13.36a1.6,1.6,0,1,1,1.6-1.6A1.6,1.6,0,0,1,14.357,13.36Z" fill="#9cebff"/>
    </g>
  </g>
  <metadata>
   <rdf:RDF xmlns:rdf="http://www.w3.org/1999/02/22-rdf-syntax-ns#">
      <rdf:li>public:true</rdf:li>
      <rdf:li>sdk:false</rdf:li>
      <rdf:li>category:Other</rdf:li>
   </rdf:RDF>
</metadata>
</svg>
