<svg xmlns="http://www.w3.org/2000/svg" viewBox="0 0 18 18">
  <defs>
    <linearGradient id="b516e8b4-5df4-4c7c-a13c-0c8f63581678" x1="9" y1="17.777" x2="9" y2="3.206" gradientUnits="userSpaceOnUse">
      <stop offset="0" stop-color="#0078d4" />
      <stop offset="1" stop-color="#005ba1" />
    </linearGradient>
  </defs>
  <g id="aecab697-99a9-4ec9-9b5c-ae9f941a2d0d">
    <path d="M9,3.206,1.071,9.347v7.83a.6.6,0,0,0,.6.6H6.424a.6.6,0,0,0,.6-.6V12.768a.6.6,0,0,1,.6-.6h2.752a.6.6,0,0,1,.6.6v4.409a.6.6,0,0,0,.6.6h4.753a.6.6,0,0,0,.6-.6V9.848Z" fill="url(#b516e8b4-5df4-4c7c-a13c-0c8f63581678)" />
    <path d="M8.582,1.633.229,8.624A.641.641,0,0,0,0,9.115v1.414a.6.6,0,0,0,.986.46l7.6-6.375a.64.64,0,0,1,.832.007l7.593,6.6A.6.6,0,0,0,18,10.767V9.376a.642.642,0,0,0-.221-.484L9.412,1.64A.639.639,0,0,0,8.582,1.633Z" fill="#0078d4" />
    <path d="M17.793,7.58,15.635,5.709V2.288h.252a.6.6,0,0,0,.6-.6v-.4a.6.6,0,0,0-.6-.6H13.54a.6.6,0,0,0-.6.6v.4a.6.6,0,0,0,.6.6h.346v1.9l-4.5-3.9A.6.6,0,0,0,8.608.286L.215,7.311A.6.6,0,0,0,0,7.771v2.72l8.581-7.2a.642.642,0,0,1,.832.007L18,10.759V8.033A.6.6,0,0,0,17.793,7.58Z" fill="#5ea0ef" />
  </g>
</svg>