<svg xmlns="http://www.w3.org/2000/svg" width="18" height="18" viewBox="0 0 18 18">
  <defs>
    <linearGradient id="a0de2df3-d4b7-45af-871d-30607c05dcd8" x1="9" y1="2.246" x2="9" y2="18" gradientUnits="userSpaceOnUse">
      <stop offset="0" stop-color="#5ea0ef"/>
      <stop offset="1" stop-color="#0078d4"/>
    </linearGradient>
    <linearGradient id="e529bef0-a019-47a6-8c2d-1ac0a7985a18" x1="9" x2="9" y2="3.757" gradientUnits="userSpaceOnUse">
      <stop offset="0" stop-color="#5ea0ef"/>
      <stop offset="1" stop-color="#0078d4"/>
    </linearGradient>
  </defs>
  <g id="e8c904ec-ce7f-4400-a8d8-dc8f16a8ab36">
    <rect x="1.65" y="2.246" width="14.7" height="15.754" rx="0.6" fill="url(#a0de2df3-d4b7-45af-871d-30607c05dcd8)"/>
    <rect x="2.547" y="3.207" width="12.906" height="13.831" rx="0.6" fill="#5ea0ef"/>
    <path d="M10.145,1.155a1.155,1.155,0,1,0-2.31,0H5.594a.5.5,0,0,0-.5.5v2.1H12.9v-2.1a.5.5,0,0,0-.5-.5ZM8.831.6a.578.578,0,0,1,.736.556H9.553a.574.574,0,0,1-.792.53.579.579,0,0,1-.324-.7A.567.567,0,0,1,8.831.6Z" fill="url(#e529bef0-a019-47a6-8c2d-1ac0a7985a18)"/>
    <path id="b010368f-1a46-4320-84ab-80cf199e035c" d="M11.605,7.707l.038.038a.068.068,0,0,0,.094,0l.369-.309.672-1.105a.068.068,0,0,0-.01-.085l-.105-.105a.068.068,0,0,0-.087-.008l-1.054.7-.3.386a.069.069,0,0,0,.006.091l.04.041L9.085,9.61l-.451-.468-.5.518a.9.9,0,0,1-.234.717.793.793,0,0,1-.684.251L5.09,12.8a.14.14,0,0,0,0,.194l1.042,1.083a.138.138,0,0,0,.2,0l2.1-2.182a.857.857,0,0,1,.25-.718.793.793,0,0,1,.685-.25l.5-.517-.45-.468Z" fill="#fff" opacity="0.8"/>
    <path d="M12.468,12.659l-.521-.536L8.628,8.7h0L8.463,8.52A1.852,1.852,0,0,0,8.029,6.7a1.716,1.716,0,0,0-1.543-.5.07.07,0,0,0-.038.118l.869.884a.068.068,0,0,1,.018.065L7.1,8.18a.071.071,0,0,1-.049.05l-.889.245A.068.068,0,0,1,6.1,8.456l-.848-.877a.07.07,0,0,0-.119.036A1.825,1.825,0,0,0,5.609,9.2a1.686,1.686,0,0,0,1.685.45l.034.034.186.193h0l3.8,3.979a.788.788,0,0,0,1.113.039l.039-.039a.829.829,0,0,0,.234-.6A.9.9,0,0,0,12.468,12.659Z" fill="#fff"/>
  </g>
</svg>
