<svg xmlns="http://www.w3.org/2000/svg" viewBox="0 0 16 16">
  <path d="M8,0,9.2.2l1.1.4.9.7.7.9a4.895,4.895,0,0,1,.4,1.1,5.028,5.028,0,0,1,.2,1.2,5.028,5.028,0,0,1-.2,1.2,4.2,4.2,0,0,1-.4,1l-.7.8a4.543,4.543,0,0,1-.7.7l-.7.7-.7.7a3.575,3.575,0,0,0-.4.9,3,3,0,0,0-.2,1V13h-1V11.5a5.028,5.028,0,0,1,.2-1.2,4.2,4.2,0,0,1,.4-1l.7-.8.7-.7.7-.7a4.543,4.543,0,0,0,.7-.7,3.575,3.575,0,0,0,.4-.9,3,3,0,0,0,.2-1,3.5,3.5,0,0,0-.3-1.4A4.079,4.079,0,0,0,10.5,2a4.079,4.079,0,0,0-1.1-.7,3.417,3.417,0,0,0-2.8,0A4.079,4.079,0,0,0,5.5,2a4.079,4.079,0,0,0-.7,1.1,3.5,3.5,0,0,0-.3,1.4h-1a5.028,5.028,0,0,1,.2-1.2,4.895,4.895,0,0,1,.4-1.1l.7-.9L5.7.6,6.8.2ZM7.5,15h1v1h-1Z" />
</svg>