<svg xmlns="http://www.w3.org/2000/svg" width="18" height="18" viewBox="0 0 18 18">
  <defs>
    <linearGradient id="ab2570c0-4ecd-4abb-a67c-f60bcf781ad0" x1="8.183" y1="16.041" x2="8.183" y2="6.961" gradientUnits="userSpaceOnUse">
      <stop offset="0" stop-color="#32bedd"/>
      <stop offset="0.175" stop-color="#32caea"/>
      <stop offset="0.41" stop-color="#32d2f2"/>
      <stop offset="0.775" stop-color="#32d4f5"/>
    </linearGradient>
  </defs>
  <g id="aab88087-6f1b-4ce1-a179-511341676457">
    <g>
      <path d="M17.5,5.233V2.472a.513.513,0,0,0-.513-.513H2.651a.513.513,0,0,0-.513.513V5.233h0V13.8a.513.513,0,0,0,.513.513H16.987A.513.513,0,0,0,17.5,13.8V5.233Z" fill="#198ab3"/>
      <path d="M.5,6.961H15.865a0,0,0,0,1,0,0v8.566a.513.513,0,0,1-.513.513H1.013A.513.513,0,0,1,.5,15.528V6.961A0,0,0,0,1,.5,6.961Z" fill="url(#ab2570c0-4ecd-4abb-a67c-f60bcf781ad0)"/>
      <path d="M1.854,12.366H.5V11.68H1.712L3.493,9.9a.346.346,0,0,1,.243-.1H6.242v.686H3.878L2.1,12.266A.346.346,0,0,1,1.854,12.366Z" fill="#e6e6e6"/>
      <circle cx="6.242" cy="10.142" r="1.493" fill="#fff"/>
      <path d="M12.3,12.729H9.669v-.686h2.489L14,10.205a.346.346,0,0,1,.243-.1h1.626v.686H14.381l-1.838,1.838A.342.342,0,0,1,12.3,12.729Z" fill="#e6e6e6"/>
      <circle cx="9.817" cy="12.386" r="1.493" fill="#fff"/>
      <path d="M1.016,3.687H15.349a.513.513,0,0,1,.513.513V6.961a0,0,0,0,1,0,0H.5a0,0,0,0,1,0,0V4.2A.513.513,0,0,1,1.016,3.687Z" fill="#d6d6d6"/>
    </g>
  </g>
</svg>
