<svg id="e4e89c2e-92b9-42e8-80ac-4b43f6e67d4c" xmlns="http://www.w3.org/2000/svg" width="18" height="18" viewBox="0 0 18 18">
  <defs>
    <linearGradient id="bcd874a9-7983-4d43-a810-b98cfaa2769f" x1="309.711" y1="-350.606" x2="309.711" y2="-367.25" gradientTransform="matrix(1, 0, 0, -1, -297, -351)" gradientUnits="userSpaceOnUse">
      <stop offset="0" stop-color="#ffb900"/>
      <stop offset="0.17" stop-color="#ef8400"/>
      <stop offset="0.31" stop-color="#e25c01"/>
      <stop offset="0.43" stop-color="#db4401"/>
      <stop offset="0.5" stop-color="#d83b01"/>
    </linearGradient>
    <linearGradient id="a48d9b18-89d6-41e2-abc7-bd9818a8cbd3" x1="306.709" y1="-351.195" x2="297.896" y2="-363.78" gradientTransform="matrix(1, 0, 0, -1, -297, -351)" gradientUnits="userSpaceOnUse">
      <stop offset="0" stop-color="#800600"/>
      <stop offset="0.6" stop-color="#c72127"/>
      <stop offset="0.73" stop-color="#c13959"/>
      <stop offset="0.85" stop-color="#bc4b81"/>
      <stop offset="0.94" stop-color="#b95799"/>
      <stop offset="1" stop-color="#b85ba2"/>
    </linearGradient>
    <linearGradient id="a98f9a07-90de-46d5-9f23-9ba096ee2a66" x1="302.206" y1="-366.638" x2="313.712" y2="-366.638" gradientTransform="matrix(1, 0, 0, -1, -297, -351)" gradientUnits="userSpaceOnUse">
      <stop offset="0" stop-color="#f32b44"/>
      <stop offset="0.6" stop-color="#a4070a"/>
    </linearGradient>
  </defs>
  <title>Icon661_OfficeProPoliciesArtboard 1</title>
  <g id="f9125afc-ee46-4d13-9a51-9ef48599905b">
    <g opacity="0.2">
      <path d="M5.608,13.663a.906.906,0,0,0-.447,1.687l3.193,1.81a1.738,1.738,0,0,0,.862.227,1.7,1.7,0,0,0,.481-.07l4.8-1.369A1.719,1.719,0,0,0,15.745,14.3v-.636Z" fill="#fff"/>
    </g>
    <g opacity="0.12">
      <path d="M5.608,13.663a.906.906,0,0,0-.447,1.687l3.193,1.81a1.738,1.738,0,0,0,.862.227,1.7,1.7,0,0,0,.481-.07l4.8-1.369A1.719,1.719,0,0,0,15.745,14.3v-.636Z" fill="#fff"/>
    </g>
    <path d="M9.677.567l1.29,2.951V13.777L9.7,17.43l4.8-1.368a1.72,1.72,0,0,0,1.245-1.65V3.586A1.718,1.718,0,0,0,14.5,1.933Z" fill="url(#bcd874a9-7983-4d43-a810-b98cfaa2769f)"/>
    <path d="M3.587,13.667l1.4-.759a1.224,1.224,0,0,0,.635-1.076V6.309a1.229,1.229,0,0,1,.807-1.152l4.533-1.639V2.273A1.776,1.776,0,0,0,9.677.567,1.733,1.733,0,0,0,9.191.5h0a1.805,1.805,0,0,0-.882.233L3.121,3.693a1.712,1.712,0,0,0-.866,1.489v7.69a.9.9,0,0,0,1.332.8Z" fill="url(#a48d9b18-89d6-41e2-abc7-bd9818a8cbd3)"/>
    <path d="M10.967,13.776H5.608a.9.9,0,0,0-.447,1.686l3.193,1.81a1.739,1.739,0,0,0,.862.228h0a1.7,1.7,0,0,0,.481-.07,1.748,1.748,0,0,0,1.27-1.687Z" fill="url(#a98f9a07-90de-46d5-9f23-9ba096ee2a66)"/>
  </g>
</svg>
