<svg xmlns="http://www.w3.org/2000/svg" width="18" height="18" viewBox="0 0 18 18">
  <defs>
    <linearGradient id="a65bbbcc-72bd-4980-accc-8a914bcdc36f" x1="7.063" y1="15.721" x2="7.063" y2="1.106" gradientUnits="userSpaceOnUse">
      <stop offset="0" stop-color="#5e9624"/>
      <stop offset="1" stop-color="#76bc2d"/>
    </linearGradient>
    <radialGradient id="a4255e0c-5828-44a1-a1d3-031f70ec48a2" cx="13.368" cy="13.351" r="4.651" gradientUnits="userSpaceOnUse">
      <stop offset="0" stop-color="#5ea0ef"/>
      <stop offset="1" stop-color="#0078d4"/>
    </radialGradient>
    <linearGradient id="b3aca20a-c180-436b-bbf5-2e8e708d100d" x1="177.847" y1="-274.808" x2="177.83" y2="-276.976" gradientTransform="translate(-167 289.516)" gradientUnits="userSpaceOnUse">
      <stop offset="0" stop-color="#ccc"/>
      <stop offset="1" stop-color="#fcfcfc"/>
    </linearGradient>
  </defs>
  <path d="M8.176,12.714a5.207,5.207,0,0,1,1.971-3.5l.032-.035a5.237,5.237,0,0,1,3.927-1.014l.017,0c0-.082.019-.162.019-.245v-5.5a.44.44,0,0,0-.434-.435c-4.374-.114-3.367-2-6.645-2s-2.27,1.884-6.645,2a.44.44,0,0,0-.433.438v5.5c0,4.571,5.622,8.247,6.845,8.994a.449.449,0,0,0,.466,0c.3-.181.851-.537,1.519-1.031A5.2,5.2,0,0,1,8.176,12.714Z" fill="#76bc2d"/>
  <path d="M8.176,12.714a5.207,5.207,0,0,1,1.971-3.5l.032-.035a5.263,5.263,0,0,1,2.892-1.061c0-.05.011-.1.011-.147V3.481a.5.5,0,0,0-.472-.494,5.524,5.524,0,0,1-3.269-1.1,3.268,3.268,0,0,0-2.278-.71,3.267,3.267,0,0,0-2.277.71,5.527,5.527,0,0,1-3.269,1.1.5.5,0,0,0-.472.493v4.5c0,3.915,4.935,7.151,6.022,7.816.259-.159.739-.468,1.316-.894A5.208,5.208,0,0,1,8.176,12.714Z" fill="url(#a65bbbcc-72bd-4980-accc-8a914bcdc36f)"/>
  <path d="M16.255,17.013a4.66,4.66,0,1,1-5.749-7.335l.055-.056a4.666,4.666,0,0,1,5.694,7.391" fill="url(#a4255e0c-5828-44a1-a1d3-031f70ec48a2)"/>
  <path d="M9.8,14.272A13.813,13.813,0,0,0,9.361,15.7l.325.493.325.325a7.912,7.912,0,0,1,.6-1.917A1.382,1.382,0,0,1,9.8,14.272Z" fill="#83b9f9"/>
  <path d="M10.342,11.753a7.467,7.467,0,0,1-.383-1.587,4.05,4.05,0,0,0-.6.766,5.835,5.835,0,0,0,.325,1.314A1.494,1.494,0,0,1,10.342,11.753Z" fill="#83b9f9"/>
  <circle cx="10.835" cy="13.177" r="1.478" fill="url(#b3aca20a-c180-436b-bbf5-2e8e708d100d)"/>
  <path d="M13.024,15.914A1.16,1.16,0,0,1,13.3,15.2a5.057,5.057,0,0,1-1.368-1.041,1.509,1.509,0,0,1-.821.433,10.273,10.273,0,0,0,.821.767,4.456,4.456,0,0,0,1.094.657Z" fill="#83b9f9"/>
  <path d="M16.474,16.023a7.239,7.239,0,0,1-1.533-.164v.055a.907.907,0,0,1-.274.657,7.081,7.081,0,0,0,1.861.108c.216-.216.438-.492.657-.711A2.927,2.927,0,0,1,16.474,16.023Z" fill="#83b9f9"/>
  <path d="M13.737,11.205a7.37,7.37,0,0,1,3.229-.765,3.627,3.627,0,0,0-.821-.767,8.382,8.382,0,0,0-2.573.6,5.092,5.092,0,0,0-.548.274A10.273,10.273,0,0,1,11.93,8.961a1.055,1.055,0,0,0-.493.164,11.475,11.475,0,0,0,1.15,1.7,5.424,5.424,0,0,0-1.2.931,1.566,1.566,0,0,1,.712.6,4.921,4.921,0,0,1,1.04-.821,12.2,12.2,0,0,0,2.025,1.752,1.14,1.14,0,0,1,.325-.548A15.059,15.059,0,0,1,13.737,11.205Z" fill="#83b9f9"/>
  <circle cx="16.2" cy="13.505" r="1.04" fill="#fff"/>
  <path d="M17.955,14.231a.732.732,0,0,0-.142-.1h0c-.066-.041-.216-.108-.216-.108l-.217-.109-.178-.108a1.127,1.127,0,0,1-.324.5c.075.039.115.055.225.108,0,0,.144.071.216.108h0a5.426,5.426,0,0,0,.491.268A4.245,4.245,0,0,0,17.955,14.231Z" fill="#83b9f9"/>
  <circle cx="10.835" cy="13.177" r="1.478" fill="#fff"/>
  <circle cx="14.01" cy="15.914" r="0.985" fill="#fff"/>
</svg>
