<svg xmlns="http://www.w3.org/2000/svg" width="18" height="18" viewBox="0 0 18 18">
  <defs>
    <linearGradient id="be6f7ce4-04b7-46fe-b23d-793991947e26" x1="-555.003" y1="1020.763" x2="-555.003" y2="1012.716" gradientTransform="matrix(1, 0, 0, -1, 564, 1025.516)" gradientUnits="userSpaceOnUse">
      <stop offset="0.135" stop-color="#2398f2"/>
      <stop offset="1" stop-color="#2064ae"/>
    </linearGradient>
  </defs>
  <g id="a3f20eba-924a-4319-9083-ab0656dd150c">
    <g>
      <g>
        <path d="M6.183,13.632l-.664.666a.3.3,0,0,1-.425,0L.182,9.4a.6.6,0,0,1,0-.85l.664-.666h0l5.337,5.322a.3.3,0,0,1,0,.426Z" fill="#50e6ff"/>
        <path d="M5.419,3.7l.666.664a.3.3,0,0,1,0,.425h0L.84,10.049h0L.177,9.388a.6.6,0,0,1,0-.85L5,3.7a.3.3,0,0,1,.426,0Z" fill="#1490df"/>
        <path d="M17.156,7.884l.664.666a.6.6,0,0,1,0,.851l-4.913,4.9a.3.3,0,0,1-.425,0h0l-.664-.666a.3.3,0,0,1,0-.425h0l5.338-5.324Z" fill="#50e6ff"/>
        <path d="M17.824,9.385l-.666.664h0l-5.245-5.26a.3.3,0,0,1,0-.425h0l.665-.664A.3.3,0,0,1,13,3.7h0l4.82,4.834a.6.6,0,0,1,0,.851Z" fill="#1490df"/>
      </g>
      <g>
        <circle cx="8.997" cy="8.791" r="4.037" fill="url(#be6f7ce4-04b7-46fe-b23d-793991947e26)"/>
        <path d="M13.032,8.643a2.011,2.011,0,0,0-.018-.268A4.038,4.038,0,0,0,6.542,5.591c-.006,0-.012.006-.018.012A4.018,4.018,0,0,0,4.966,8.55c-.006.076-.006.158-.006.239s0,.17.006.257a4.033,4.033,0,0,0,6.5,2.936c.036-.024.071-.049.105-.076a4.042,4.042,0,0,0,1.465-2.854c0-.076.005-.158.005-.233C13.037,8.76,13.037,8.7,13.032,8.643Zm-.981-1.692h-.869a4.649,4.649,0,0,0-.66-1.383,3.522,3.522,0,0,1,1.529,1.383Zm-1.366,0H9.25V5.235C10.207,5.469,10.44,6.291,10.685,6.951ZM8.763,5.23V6.952H7.246C7.429,6.332,7.872,5.364,8.763,5.23ZM7.047,5.8A3.057,3.057,0,0,1,7.38,5.61a4.608,4.608,0,0,0-.63,1.354H5.932A3.6,3.6,0,0,1,7.05,5.8ZM5.693,7.437h.934a5.345,5.345,0,0,0,.029,2.591H5.649A3.576,3.576,0,0,1,5.7,7.435ZM6.942,11.7a3.47,3.47,0,0,1-1.068-1.185H6.8a5.482,5.482,0,0,0,.841,1.57,3.289,3.289,0,0,1-.693-.386Zm1.833.648a2.727,2.727,0,0,1-1.453-1.833H8.775Zm0-2.306H7.166c-.023-.07-.041-.14-.058-.21A4.993,4.993,0,0,1,7.12,7.448H8.777Zm.472-2.608h1.565a5.769,5.769,0,0,1,.157,1.348,4.559,4.559,0,0,1-.2,1.243H9.247Zm.012,4.914V10.518h1.36a4.058,4.058,0,0,1-1.358,1.833Zm1.792-.648a3.409,3.409,0,0,1-.788.42,5.459,5.459,0,0,0,.87-1.6h.98a3.521,3.521,0,0,1-1.06,1.184Zm1.29-1.669H11.278a5.286,5.286,0,0,0,.03-2.6h.986a3.548,3.548,0,0,1,.263,1.517,3.421,3.421,0,0,1-.214,1.078Z" fill="#50e6ff"/>
      </g>
    </g>
  </g>
</svg>
