<svg xmlns="http://www.w3.org/2000/svg" width="18" height="18" viewBox="0 0 18 18">
  <defs>
    <linearGradient id="be52973b-6de4-4df2-929c-a426b62b51b5" x1="4.377" y1="8.821" x2="4.377" y2="-2.214" gradientUnits="userSpaceOnUse">
      <stop offset="0.026" stop-color="#773adc"/>
      <stop offset="0.985" stop-color="#a67af4"/>
    </linearGradient>
  </defs>
  <path d="M16.1,5.4H7.818L8.939,6.476l.035.039.01.014a.681.681,0,0,1-.069.909L7.024,9.251l-.038.031-.012.009a.669.669,0,0,1-.4.131.685.685,0,0,1-.685-.684v-.6H5V9.623A.374.374,0,0,0,5.379,10H16.1a.374.374,0,0,0,.375-.374V5.774A.375.375,0,0,0,16.1,5.4Z" fill="#005ba1"/>
  <path d="M14.969,2.516H7.583A2.741,2.741,0,0,1,6.55,4.468h.025a.678.678,0,0,1,.471.19L8.939,6.476l.035.039.01.014a.681.681,0,0,1-.069.909L7.024,9.251l-.038.031-.012.009a.669.669,0,0,1-.4.131.658.658,0,0,1-.349-.11.369.369,0,0,0,.286.141h8.457a.375.375,0,0,0,.375-.375V2.891A.375.375,0,0,0,14.969,2.516Z" fill="#9cebff"/>
  <path d="M17.172,7.433H8.919l0,0L7.024,9.251l-.038.031-.012.009a.669.669,0,0,1-.4.131.685.685,0,0,1-.685-.684v-.6H3.567c0,.015-.009.029-.009.045v7.624H17.922V8.183A.75.75,0,0,0,17.172,7.433Z" fill="#5ea0ef"/>
  <rect x="3.558" y="14.823" width="14.364" height="1.275" fill="#0078d4"/>
  <rect x="5.42" y="12.588" width="10.635" height="1.49" rx="0.375" fill="#83b9f9"/>
  <circle cx="15.479" cy="9.81" r="0.356" fill="#c3f1ff"/>
  <path d="M6.137,12.847h9.207v4.778a.375.375,0,0,1-.375.375H6.51a.375.375,0,0,1-.375-.375V12.847Z" fill="#9cebff"/>
  <path d="M8.628,6.8,8.6,6.776,6.735,4.983a.23.23,0,0,0-.16-.066.235.235,0,0,0-.234.2l0,.034V6.171H2.413A.811.811,0,0,1,1.6,5.427.785.785,0,0,1,2.379,4.6H4.857a2.3,2.3,0,1,0,0-4.6L.83.026a.746.746,0,0,0,0,1.491H4.823a.81.81,0,0,1,.817.744.785.785,0,0,1-.783.824H2.379a2.311,2.311,0,0,0-2.3,2.262,2.26,2.26,0,0,0,.66,1.631,2.376,2.376,0,0,0,1.684.709H6.339v1.05a.234.234,0,0,0,.236.234.226.226,0,0,0,.134-.044l.026-.021L8.6,7.114A.235.235,0,0,0,8.628,6.8Z" fill="url(#be52973b-6de4-4df2-929c-a426b62b51b5)"/>
</svg>
