<svg xmlns="http://www.w3.org/2000/svg" width="18" height="18" viewBox="0 0 18 18">
  <defs>
    <linearGradient id="e25bde55-9a54-4924-866d-246369a363ab" x1="15.815" y1="13.267" x2="15.815" y2="4.739" gradientUnits="userSpaceOnUse">
      <stop offset="0" stop-color="#fcee21"/>
      <stop offset="0.395" stop-color="#f99e1b"/>
      <stop offset="1" stop-color="#ed1c24"/>
    </linearGradient>
    <linearGradient id="bbb76c19-6d2f-47af-bf62-2bda395f38cd" x1="13.103" y1="11.412" x2="13.103" y2="1.731" gradientUnits="userSpaceOnUse">
      <stop offset="0" stop-color="#fcee21"/>
      <stop offset="0.395" stop-color="#f99e1b"/>
      <stop offset="1" stop-color="#ed1c24"/>
    </linearGradient>
    <linearGradient id="b4952722-5306-4b8c-a5c6-25ae2f8cc5fb" x1="-849.067" y1="1077.483" x2="-849.067" y2="1071.592" gradientTransform="translate(-1068.456 -835.963) rotate(-90)" gradientUnits="userSpaceOnUse">
      <stop offset="0" stop-color="#ef7100"/>
      <stop offset="0.605" stop-color="#f99e1b"/>
      <stop offset="1" stop-color="#faa21d"/>
    </linearGradient>
    <linearGradient id="a27863ae-f05a-4ef7-88a6-703dc1865451" x1="10.899" y1="11.659" x2="10.988" y2="5.276" gradientUnits="userSpaceOnUse">
      <stop offset="0" stop-color="#fcee21"/>
      <stop offset="0.395" stop-color="#f99e1b"/>
      <stop offset="1" stop-color="#ed1c24"/>
    </linearGradient>
  </defs>
  <g id="a366c8ff-6e71-4256-880a-16d78ba87d44">
    <g>
      <path d="M17.7,9.825a2.253,2.253,0,0,1-.524.8A.106.106,0,0,1,17,10.512a5.64,5.64,0,0,0-.3-3.987,13.655,13.655,0,0,0-1-1.744.106.106,0,0,0-.19.075,4.9,4.9,0,0,1-.215,2.2,6.372,6.372,0,0,1-.758,1.556,4.918,4.918,0,0,0-.821,2.435L15.2,12.52a.811.811,0,0,1,.211.747c.724-.178,1.311-.494,2.137-1.915l.007-.015a3.5,3.5,0,0,0,.351-1.466A.106.106,0,0,0,17.7,9.825Z" fill="url(#e25bde55-9a54-4924-866d-246369a363ab)"/>
      <path d="M11.672,10.61a.671.671,0,0,1,.671-.67.664.664,0,0,1,.473.2l.445.445c.1-1.129,1.033-2.45,1.708-4.3.551-1.51-.487-3.567-1.041-4.5a.106.106,0,0,0-.2.072c.006.036.011.071.016.106a3.574,3.574,0,0,1-.668,2.591,9.658,9.658,0,0,0-1.813,3.493,4.059,4.059,0,0,0,.405,3.367Z" fill="url(#bbb76c19-6d2f-47af-bf62-2bda395f38cd)"/>
      <path d="M5.6,15.689,3.22,13.306a.284.284,0,0,1,0-.4L5.6,10.52a.127.127,0,0,1,.217.09v1.466a.127.127,0,0,0,.127.127H8.926a.1.1,0,0,1,.1.1v1.6a.1.1,0,0,1-.1.1H5.947a.127.127,0,0,0-.127.127V15.6A.127.127,0,0,1,5.6,15.689Z" fill="url(#b4952722-5306-4b8c-a5c6-25ae2f8cc5fb)"/>
      <g>
        <path d="M2.836,12.52l1.913-1.913c-.07,0-.136.005-.207.005-2.429,0-4.4-.459-4.443-1.028h0v2.089c0,.429,1.1.8,2.666.958A.746.746,0,0,1,2.836,12.52Z" fill="#0078d4"/>
        <path d="M6.363,10.61v1.05H8.926a.618.618,0,0,1,.062.012l0-.018v-.029h0V9.565c0,.426-1.088.792-2.643.955A.683.683,0,0,1,6.363,10.61Z" fill="#0078d4"/>
      </g>
      <path d="M12.432,10.52,14.815,12.9a.284.284,0,0,1,0,.4l-2.383,2.383a.127.127,0,0,1-.217-.09V14.134a.127.127,0,0,0-.127-.127H9.109a.1.1,0,0,1-.1-.1V12.3a.1.1,0,0,1,.1-.1h2.979a.127.127,0,0,0,.127-.127V10.61A.127.127,0,0,1,12.432,10.52Z" fill="#0078d4"/>
      <path d="M4.749,10.607l.47-.471a.661.661,0,0,1,1.126.384c1.555-.163,2.643-.529,2.643-.955,0-.578-1.991-1.047-4.446-1.047S.1,8.987.1,9.565s1.991,1.047,4.447,1.047C4.613,10.612,4.679,10.608,4.749,10.607Z" fill="#83b9f9"/>
      <path d="M4.581,7.581c-2.429,0-4.4-.458-4.443-1.028h0v2.09c0,.578,1.991,1.046,4.447,1.046,2.4,0,4.362-.449,4.443-1.01h0V8.666l0-.023,0-.02V8.6h0V6.534C9.027,7.112,7.037,7.581,4.581,7.581Z" fill="#0078d4"/>
      <ellipse cx="4.581" cy="6.534" rx="4.447" ry="1.047" fill="#83b9f9"/>
      <path d="M16.632,11.214a1.266,1.266,0,0,1-.349.4.06.06,0,0,1-.089-.073,3.158,3.158,0,0,0,.122-2.24,7.692,7.692,0,0,0-.427-1.043.059.059,0,0,0-.111.028A2.753,2.753,0,0,1,15.5,9.5a3.558,3.558,0,0,1-.534.811,2.738,2.738,0,0,0-.64,1.336l.874.875a.8.8,0,0,1,.2.386,2.094,2.094,0,0,0,1.033-.854l0-.008a1.951,1.951,0,0,0,.3-.79A.059.059,0,0,0,16.632,11.214Z" fill="#ffe452"/>
      <path d="M12.343,9.94a.664.664,0,0,1,.473.2l.066.066a4.429,4.429,0,0,1,.451-1.632c.045-.088.486-.841.527-.931a4.135,4.135,0,0,0,.5-3.115s-2.22,2.813-2.1,5.434A.52.52,0,0,1,12.343,9.94Z" fill="#ffd400"/>
      <path d="M12.275,9.953a8.967,8.967,0,0,1,1.653-4.636,4.479,4.479,0,0,0,.852-3.158.048.048,0,0,0-.095.005,4.733,4.733,0,0,1-.092.741,6.359,6.359,0,0,1-1.024,2.354c-.338.488-.675,1.051-.935,1.5a5.5,5.5,0,0,0-.692,3.324A.667.667,0,0,1,12.275,9.953Z" fill="#ffe452"/>
      <path d="M10.915,11.66h.424c-.051-.087-.108-.17-.153-.26a5.12,5.12,0,0,1,.067-4.626,12.723,12.723,0,0,1,.784-1.318.106.106,0,0,0-.161-.136c-2.132,2.009-2,3.45-2,3.45A3.812,3.812,0,0,0,10.915,11.66Z" fill="url(#a27863ae-f05a-4ef7-88a6-703dc1865451)"/>
    </g>
  </g>
</svg>
