<svg xmlns="http://www.w3.org/2000/svg" viewBox="0 0 18 18">
  <title>Artboard 2</title>
  <g id="e7a776de-3011-4371-84bf-b74a1334e7a2">
    <rect x="-802.13" y="-169.24" width="1428" height="830" fill="#fff" />
  </g>
  <g id="bf4b65fc-ce6e-4e24-bff7-d7ede5b01505">
    <g>
      <path d="M6,9.57V7.63h4.41V9.28a5,5,0,0,1,.67-.54V7.63h4.41v.83a3.47,3.47,0,0,1,.8.5V2.14a.64.64,0,0,0-.63-.64H.64A.64.64,0,0,0,0,2.14V9.85a.64.64,0,0,0,.64.64h8.9a4.69,4.69,0,0,1,.6-.92ZM7.81,7H3.4V5H7.81ZM12.9,7H8.49V5H12.9Zm2.57,0H13.64V5h1.83ZM11.06,2.4h4.41V4.34H11.06ZM6,2.4h4.41V4.34H6ZM.9,2.4H5.31V4.34H.9ZM.9,5H2.73V7H.9ZM5.31,9.57H.9V7.63H5.31Z" fill="#821010" />
      <rect x="0.9" y="2.4" width="4.41" height="1.95" fill="#e62323" />
      <rect x="5.98" y="2.4" width="4.41" height="1.95" fill="#ff7381" />
      <rect x="11.06" y="2.4" width="4.41" height="1.95" fill="#e62323" />
      <rect x="0.9" y="5.01" width="1.83" height="1.95" fill="#e62323" />
      <rect x="13.64" y="5.01" width="1.83" height="1.95" fill="#ff7381" />
      <rect x="3.4" y="5.01" width="4.41" height="1.95" fill="#ff7381" />
      <rect x="8.49" y="5.01" width="4.41" height="1.95" fill="#e62323" />
      <rect x="0.9" y="7.63" width="4.41" height="1.95" fill="#e62323" />
      <path d="M6,7.63V9.57h4.16c.09-.09.16-.2.25-.29V7.63Z" fill="#ff7381" />
      <path d="M11.06,7.63V8.74A4.5,4.5,0,0,1,13.51,8h0a4.28,4.28,0,0,1,1.92.46V7.63Z" fill="#e62323" />
      <path d="M16.27,9a3.47,3.47,0,0,0-.8-.5A4.28,4.28,0,0,0,13.55,8h0a4.5,4.5,0,0,0-2.45.74,5,5,0,0,0-.67.54c-.09.09-.16.2-.25.29a4.69,4.69,0,0,0-.6.92,4.3,4.3,0,0,0-.48,2v0a4.45,4.45,0,0,0,4.45,4.45h0A4.45,4.45,0,0,0,18,12.49v0A4.4,4.4,0,0,0,16.27,9Zm-.36,6a.88.88,0,0,1-.81-.57H12a.87.87,0,1,1-.81-1.17h0l1.66-2.88A.86.86,0,0,1,13.55,9a.89.89,0,0,1,.88.87.85.85,0,0,1-.24.58l1.62,2.81.1,0a.86.86,0,0,1,.87.86A.89.89,0,0,1,15.91,15Z" fill="#767676" />
      <path d="M13.48,10.7l-1.65,2.87a.41.41,0,0,1,.07.11h3.26a.43.43,0,0,1,0-.07l-1.67-2.9Z" fill="#767676" />
      <path d="M11.83,13.57l1.65-2.87a.84.84,0,0,1-.62-.35L11.2,13.23A.82.82,0,0,1,11.83,13.57Z" fill="#b3b3b3" />
      <path d="M13.56,10.72h0l1.67,2.9a.86.86,0,0,1,.61-.37l-1.62-2.81A.83.83,0,0,1,13.56,10.72Z" fill="#a3a3a3" />
      <path d="M15.16,13.68H11.9a.78.78,0,0,1,.12.4,1.07,1.07,0,0,1-.06.31H15.1a1,1,0,0,1-.06-.3A.82.82,0,0,1,15.16,13.68Z" fill="#4f4f4f" />
      <path d="M13.48,10.7h.08a.83.83,0,0,0,.63-.29.85.85,0,0,0,.24-.58A.89.89,0,0,0,13.55,9a.86.86,0,0,0-.69,1.37A.84.84,0,0,0,13.48,10.7Z" fill="#fff" />
      <path d="M15.91,13.22l-.1,0a.86.86,0,0,0-.61.37.43.43,0,0,0,0,.07.82.82,0,0,0-.12.41,1,1,0,0,0,.06.3.87.87,0,0,0,1.68-.31A.86.86,0,0,0,15.91,13.22Z" fill="#fff" />
      <path d="M11.9,13.68a.41.41,0,0,0-.07-.11.82.82,0,0,0-.63-.34h0A.87.87,0,1,0,12,14.39a1.07,1.07,0,0,0,.06-.31A.78.78,0,0,0,11.9,13.68Z" fill="#fff" />
    </g>
  </g>
</svg>