<svg xmlns="http://www.w3.org/2000/svg" width="18" height="18" viewBox="0 0 18 18">
  <defs>
    <linearGradient id="e4da1f51-ec69-4548-adf7-de7f1b576a87" x1="6.654" y1="15.874" x2="6.654" gradientUnits="userSpaceOnUse">
      <stop offset="0" stop-color="#0078d4"/>
      <stop offset="1" stop-color="#5ea0ef"/>
    </linearGradient>
    <linearGradient id="faf23f86-c0e1-451b-a99c-6c497c5e2962" x1="12.628" y1="18" x2="12.628" y2="9.425" gradientUnits="userSpaceOnUse">
      <stop offset="0" stop-color="#76bc2d"/>
      <stop offset="0.817" stop-color="#86d633"/>
    </linearGradient>
    <linearGradient id="b39490cf-06f6-475e-b02f-b56bf8f4bb81" x1="6.654" y1="10.677" x2="6.654" y2="1.694" gradientUnits="userSpaceOnUse">
      <stop offset="0" stop-color="#50e6ff"/>
      <stop offset="1" stop-color="#9cebff"/>
    </linearGradient>
  </defs>
  <g id="e297d975-cd48-44ea-9a74-1e05ed0a5c68">
    <path d="M7.012,15.581V11.868a.591.591,0,0,1,.591-.59h.363V9.819a.788.788,0,0,1,.805-.769h4.367V.529A.529.529,0,0,0,12.609,0H.7A.529.529,0,0,0,.17.529V15.345a.529.529,0,0,0,.529.529H7.122A.676.676,0,0,1,7.012,15.581Z" fill="url(#e4da1f51-ec69-4548-adf7-de7f1b576a87)"/>
    <path d="M1.305,12.519v1.937a.283.283,0,0,0,.283.283H3.62a.283.283,0,0,0,.25-.152L6.861,8.858A.282.282,0,0,0,6.44,8.5L1.417,12.294A.284.284,0,0,0,1.305,12.519Z" fill="#c3f1ff"/>
    <path d="M2.321,1.643a.508.508,0,1,1-.508-.508A.507.507,0,0,1,2.321,1.643ZM11.5,1.135A.508.508,0,1,0,12,1.643.507.507,0,0,0,11.5,1.135Zm0,12.588a.508.508,0,1,0,.508.508A.507.507,0,0,0,11.5,13.723Z" fill="#83b9f9"/>
    <path d="M8.408,15.772H7.6a.217.217,0,0,1-.216-.191V11.868a.216.216,0,0,1,.216-.215h.8v4.119Zm8.429-5.918v2.577h.783a.21.21,0,0,0,.21-.21V10.063h0a.209.209,0,0,0-.21-.209Zm0,3.754v4.033h.783a.21.21,0,0,0,.21-.21V13.818h0a.21.21,0,0,0-.21-.21Z" fill="#5e9624"/>
    <path d="M8.771,9.425h7.715a.413.413,0,0,1,.43.394v7.787a.413.413,0,0,1-.43.394H8.771a.413.413,0,0,1-.43-.394V9.819A.413.413,0,0,1,8.771,9.425Z" fill="url(#faf23f86-c0e1-451b-a99c-6c497c5e2962)"/>
    <path d="M7.966,9.819a.788.788,0,0,1,.805-.769h1.317a4.474,4.474,0,1,0-3.434,1.627,4.452,4.452,0,0,0,1.312-.217ZM5.244,6.186A1.41,1.41,0,1,1,6.654,7.6,1.41,1.41,0,0,1,5.244,6.186Z" fill="url(#b39490cf-06f6-475e-b02f-b56bf8f4bb81)"/>
    <path d="M11.509,16.01H10.374l.014-4.715h3.836v.312H10.7L10.686,15.7h.823Zm0,.425H9.85V10.808h4.361V10.5H9.539v6.251h1.97Zm3.4-5.214H14.6v3.073h.311Z" fill="#b4ec36"/>
    <path d="M15.541,12.168H13.96a.156.156,0,0,1-.156-.156V10.43a.156.156,0,0,1,.156-.156h1.581a.156.156,0,0,1,.156.156v1.582A.156.156,0,0,1,15.541,12.168Zm-3.7,4.991V14.922a.156.156,0,0,0-.156-.156h-.343a.156.156,0,0,0-.156.156v2.237a.156.156,0,0,0,.156.156h.343A.156.156,0,0,0,11.837,17.159Zm1.059,0V14.922a.156.156,0,0,0-.156-.156H12.4a.156.156,0,0,0-.156.156v2.237a.156.156,0,0,0,.156.156h.344A.156.156,0,0,0,12.9,17.159Zm2.4-2.549v-.781a.156.156,0,0,0-.156-.156H14.36a.156.156,0,0,0-.156.156v.781a.156.156,0,0,0,.156.156h.781A.156.156,0,0,0,15.3,14.61Z" fill="#e1f7af"/>
  </g>
  <metadata>
   <rdf:RDF xmlns:rdf="http://www.w3.org/1999/02/22-rdf-syntax-ns#">
      <rdf:li>public:true</rdf:li>
      <rdf:li>sdk:false</rdf:li>
      <rdf:li>category:Other</rdf:li>
   </rdf:RDF>
</metadata>
</svg>
