<svg xmlns="http://www.w3.org/2000/svg" viewBox="0 0 16 16">
  <path d="M8,1.3H8a1.635,1.635,0,0,0-1.025.4,1.373,1.373,0,0,0-.4,1.025,1.424,1.424,0,1,0,2.847,0,1.643,1.643,0,0,0-.4-1.025A1.376,1.376,0,0,0,8,1.3Zm.569,1.423A.571.571,0,0,1,8,3.3a.517.517,0,0,1-.4-.171.647.647,0,0,1-.171-.456.515.515,0,0,1,.171-.4A.517.517,0,0,1,8,2.1.67.67,0,0,1,8.572,2.726Z" />
  <path d="M12.5,3.694,9.54.676a2.2,2.2,0,0,0-3.075,0L3.505,3.694a2.164,2.164,0,0,0,0,3.075l2.505,2.5v4.669a1.2,1.2,0,0,0,.285.74l1.138,1.139A.732.732,0,0,0,8,16.05a1.01,1.01,0,0,0,.569-.228l1.765-1.765a.692.692,0,0,0,0-.911L10,12.8l.341-.341a.692.692,0,0,0,0-.911L10,11.21l.341-.341a.692.692,0,0,0,0-.912L9.882,9.5l2.676-2.676A2.29,2.29,0,0,0,12.5,3.694ZM8.971,9.046h0l-.057.627.626.626-.342.342a.7.7,0,0,0,0,.911l.342.341-.342.342a.7.7,0,0,0,0,.911l.342.342L8,15.139,6.921,14c-.057,0-.057-.057-.057-.114V9.274a.913.913,0,0,0-.285-.626l-2.5-2.5a1.272,1.272,0,0,1,0-1.823L7.035,1.3A1.343,1.343,0,0,1,7.946.9a1.133,1.133,0,0,1,.911.4l2.961,2.961a1.272,1.272,0,0,1,0,1.822Z" />
</svg>