<svg id="uuid-c1982030-e63e-4381-9774-c95471a7f28f" xmlns="http://www.w3.org/2000/svg" width="18" height="18" viewBox="0 0 18 18">
  <defs>
    <linearGradient id="uuid-3a4566cd-adca-4e33-a009-63f0a3b61c7a" x1="3.623" y1="10.704" x2="10.176" y2="10.704" gradientUnits="userSpaceOnUse">
      <stop offset=".533" stop-color="#773adc"/>
      <stop offset="1" stop-color="#552f99"/>
    </linearGradient>
    <linearGradient id="uuid-83f1e8e8-8094-4eaa-855b-9e55daa8a542" x1="641.363" y1="337.099" x2="644.986" y2="334.019" gradientTransform="translate(-263.607 680.846) rotate(-40.151) scale(1 -1)" gradientUnits="userSpaceOnUse">
      <stop offset=".533" stop-color="#773adc"/>
      <stop offset="1" stop-color="#552f99"/>
    </linearGradient>
    <linearGradient id="uuid-2680add9-3dfe-4d7c-9e75-1aa1fd7e55fd" x1="3.908" y1="10.713" x2="11.441" y2="12.663" gradientUnits="userSpaceOnUse">
      <stop offset=".506" stop-color="#b796f9"/>
      <stop offset="1" stop-color="#a67af4"/>
    </linearGradient>
    <linearGradient id="uuid-4f89ee53-75af-49c9-bdca-db863edc97b9" x1="6.422" y1="15.884" x2="10.897" y2="15.884" gradientUnits="userSpaceOnUse">
      <stop offset=".533" stop-color="#773adc"/>
      <stop offset="1" stop-color="#552f99"/>
    </linearGradient>
  </defs>
  <g>
    <path d="m7.689,12.537l1.776-1.707c.092-.089.118-.226.065-.343-.053-.117-.173-.187-.301-.175l-.318.029c-.331.03-.624-.215-.654-.546-.04-.435.482-.607.188-.914-.115-.12-.304-.124-.425-.01,0,0,0,0,0,0,.056-.054-2.719,2.623-2.774,2.677-.119.115-.123.306-.009.426.115.12.305.124.424.01.214-.203.539-.227.774-.057l.867.635c.061.044.134.063.205.057.066-.006.13-.034.181-.083Z" fill="url(#uuid-3a4566cd-adca-4e33-a009-63f0a3b61c7a)" stroke-width="0"/>
    <path d="m12.212,10.412l.438-.435c.1-.1.262-.099.361.001.099.1.099.262-.001.362l-.512.51c-.048.048-.115.075-.181.075l-1.021-.004c-.092,0-.191-.068-.228-.142l-.437-.884-.863-.003c-.141,0-.255-.115-.254-.257,0-.141.115-.256.256-.255l.863.003.443-.881c.036-.072.13-.141.229-.141l1.021.004c.066,0,.133.028.181.076l.508.514c.099.1.099.262-.001.362-.1.1-.262.099-.361-.001l-.434-.439-.758-.003-.386.767.38.769.758.003Z" fill="url(#uuid-83f1e8e8-8094-4eaa-855b-9e55daa8a542)" stroke-width="0"/>
    <path d="m7.084,11.323c-.405-.431-1.057-.506-1.552-.178-.609.402-.754,1.284-.222,1.895l2.398,2.605c.153-.863.9-1.363,1.643-1.292.365.035.7.2.948.468l-3.214-3.497Zm1.91-.383h.971c.179,0,.324-.145.324-.324v-1.947c0-.179-.144-.324-.323-.325h-.971c-.726,0-1.294.59-1.295,1.298,0,.716.581,1.298,1.294,1.298Z" fill="url(#uuid-2680add9-3dfe-4d7c-9e75-1aa1fd7e55fd)" stroke-width="0"/>
    <path d="m8.896,13.77c-.775.038-1.42.702-1.429,1.519v2.41c0,.166.135.301.301.301h2.406c.166,0,.301-.135.301-.301v-2.41c-.011-.875-.751-1.56-1.579-1.519Z" fill="url(#uuid-4f89ee53-75af-49c9-bdca-db863edc97b9)" stroke-width="0"/>
  </g>
  <path d="m15.244,8.966c0-.212-.011-.421-.031-.627-.224.164-.498.262-.796.262-.03,0-.059-.003-.088-.004.008.122.014.245.014.369,0,.821-.181,1.608-.538,2.34-.109.224-.016.494.207.603.224.109.494.016.603-.207.418-.856.63-1.777.63-2.736Zm-11.587,0c0-.518.076-1.018.214-1.492-.306-.073-.584-.218-.816-.416-.194.602-.299,1.243-.299,1.908,0,.959.212,1.88.63,2.736.078.16.239.253.405.253.066,0,.134-.015.197-.046.224-.109.317-.379.207-.603-.357-.732-.538-1.519-.538-2.341ZM9,.902c1.564,0,3.024.454,4.257,1.235.133-.277.329-.518.57-.705C12.436.528,10.779,0,9,0,8.183,0,7.392.113,6.64.321c.204.224.333.516.349.838.643-.167,1.316-.257,2.011-.257Zm5.437,4.999c-1.073-1.895-3.107-3.178-5.437-3.178-1.366,0-2.63.442-3.659,1.189.263.161.485.383.646.646.858-.588,1.896-.933,3.013-.933,1.934,0,3.631,1.033,4.569,2.576.232-.188.527-.3.848-.3.007,0,.013,0,.02,0ZM.117,8.883c0,2.406.946,4.659,2.665,6.344.088.086.202.129.316.129.117,0,.234-.045.322-.135.174-.178.172-.463-.006-.638-1.544-1.514-2.394-3.538-2.394-5.7,0-2.81,1.461-5.284,3.663-6.707-.214-.216-.355-.504-.384-.824C1.789,2.924.117,5.711.117,8.883Zm16.424-4.686c-.19.237-.435.428-.714.556.732,1.206,1.154,2.619,1.154,4.13,0,2.132-.83,4.136-2.338,5.644-.176.176-.176.461,0,.637.176.176.461.176.637,0,1.678-1.678,2.602-3.908,2.602-6.281,0-1.719-.492-3.325-1.341-4.686Z" fill="#7de3fc" stroke-width="0"/>
  <path d="m4.324,4.073c-.83,0-1.503.673-1.503,1.503s.673,1.503,1.503,1.503,1.503-.673,1.503-1.503-.673-1.503-1.503-1.503ZM5.642.326c-.497,0-.902.404-.902.902s.404.902.902.902.902-.404.902-.902-.404-.902-.902-.902Zm9.376,1.149c-.83,0-1.503.673-1.503,1.503s.673,1.503,1.503,1.503,1.503-.673,1.503-1.503-.673-1.503-1.503-1.503Zm-.601,4.874c-.497,0-.902.404-.902.902s.404.902.902.902.902-.404.902-.902-.404-.902-.902-.902Z" fill="#198ab3" stroke-width="0"/>
</svg>