<svg xmlns="http://www.w3.org/2000/svg" width="18" height="18" viewBox="0 0 18 18">
  <defs>
    <linearGradient id="e32dfe24-7d31-43d0-aaca-9627d9e7c770" x1="9.278" y1="4.863" x2="9.278" y2="14.141" gradientUnits="userSpaceOnUse">
      <stop offset="0.225" stop-color="#9cebff"/>
      <stop offset="1" stop-color="#50e6ff"/>
    </linearGradient>
  </defs>
  <g id="b0b353ee-39d8-4818-b958-0247b6426a75">
    <path d="M14.19,8.683A1.091,1.091,0,0,1,13.1,9.775H1.092A1.091,1.091,0,0,1,0,8.683V1.588A1.091,1.091,0,0,1,1.092.5H13.1A1.09,1.09,0,0,1,14.19,1.588Z" fill="#0078d4"/>
    <path d="M16.373,13.05a1.09,1.09,0,0,1-1.091,1.091H3.275A1.091,1.091,0,0,1,2.183,13.05v-7.1A1.091,1.091,0,0,1,3.275,4.863H15.282a1.091,1.091,0,0,1,1.091,1.092Z" fill="url(#e32dfe24-7d31-43d0-aaca-9627d9e7c770)"/>
    <path d="M9.551,9.775h1.637a.273.273,0,0,1,.273.273v.546a.273.273,0,0,1-.273.273H9.551a.273.273,0,0,1-.273-.273v-.546A.273.273,0,0,1,9.551,9.775Zm2.729,0h1.637a.273.273,0,0,1,.273.273v.546a.273.273,0,0,1-.273.273H12.28a.273.273,0,0,1-.273-.273v-.546A.273.273,0,0,1,12.28,9.775Zm-8.187,0H5.731A.273.273,0,0,1,6,10.048v.546a.274.274,0,0,1-.273.273H4.093a.274.274,0,0,1-.273-.273v-.546A.273.273,0,0,1,4.093,9.775Zm0,2.183H7.914a.273.273,0,0,1,.273.273h0a.273.273,0,0,1-.273.273H4.093a.273.273,0,0,1-.273-.273h0A.273.273,0,0,1,4.093,11.958Zm5.458,0h1.092a.273.273,0,0,1,.273.273h0a.273.273,0,0,1-.273.273H9.551a.273.273,0,0,1-.273-.273h0A.273.273,0,0,1,9.551,11.958ZM6.822,9.775H8.46a.272.272,0,0,1,.272.273v.546a.273.273,0,0,1-.272.273H6.822a.273.273,0,0,1-.273-.273v-.546A.273.273,0,0,1,6.822,9.775ZM6.549,8.258a.445.445,0,0,1-.463.425h-1.8a.446.446,0,0,1-.464-.425V7.046c0-.235.208-.546.464-.546h1.8a.446.446,0,0,1,.463.425Z" fill="#fff"/>
    <rect y="2.134" width="14.19" height="1.092" fill="#e6e6e6"/>
    <circle cx="13.923" cy="13.117" r="4.077" fill="#f78d1e"/>
    <circle cx="13.939" cy="13.117" r="3.55" fill="#fff"/>
    <path d="M15.405,14.206l-1.032-1.031a.242.242,0,0,0-.185-.069.238.238,0,0,0,.048-.116V10.363a.251.251,0,0,0-.25-.25h-.047a.251.251,0,0,0-.25.25V12.99a.25.25,0,0,0,.25.249h.035a.245.245,0,0,0,.013.322l1.032,1.031a.249.249,0,0,0,.352,0l.034-.033A.25.25,0,0,0,15.405,14.206Z" fill="#b3b3b3"/>
    <circle cx="13.941" cy="13.111" r="0.578" fill="#666"/>
  </g>
</svg>
