<svg xmlns="http://www.w3.org/2000/svg" viewBox="0 0 18 18">
  <defs>
    <linearGradient id="b84845ee-9f89-466d-8bde-d630b40c15ba" y1="6.644" x2="10.49" y2="6.644" gradientUnits="userSpaceOnUse">
      <stop offset="0" stop-color="#b77af4" />
      <stop offset="1" stop-color="#773adc" />
    </linearGradient>
    <linearGradient id="b271aa8c-021e-49fb-99c3-d62eec4f617d" x1="7.51" y1="11.356" x2="18" y2="11.356" gradientUnits="userSpaceOnUse">
      <stop offset="0" stop-color="#b77af4" />
      <stop offset="1" stop-color="#773adc" />
    </linearGradient>
  </defs>
  <path d="M6.8,7.4a.338.338,0,0,1,.277-.333l3.414-.63V4.147a.458.458,0,0,0-.31-.433L5.239,2.027,0,2.994v7.142L5.239,11.26l1.56-.629Z" fill="url(#b84845ee-9f89-466d-8bde-d630b40c15ba)" />
  <path d="M5.435,11.139l4.722-1.9a.459.459,0,0,0,.287-.425V4.19a.457.457,0,0,0-.311-.433L5.367,2.139a.437.437,0,0,0-.221-.017L.373,3a.352.352,0,0,0-.288.346V9.816a.35.35,0,0,0,.279.344l4.814,1A.443.443,0,0,0,5.435,11.139Z" fill="none" />
  <path d="M0,2.994v7.142L5.291,11.26V2.027ZM2.223,9.6.74,9.3V3.791l1.483-.248Zm2.312.414-1.7-.275V3.452l1.7-.3Z" fill="#341a6e" />
  <path d="M12.945,15.852l4.722-1.9a.457.457,0,0,0,.287-.425V8.9a.457.457,0,0,0-.311-.433L12.877,6.851a.445.445,0,0,0-.22-.016l-4.774.873a.351.351,0,0,0-.288.345v6.476a.351.351,0,0,0,.28.344l4.813,1A.443.443,0,0,0,12.945,15.852Z" fill="none" />
  <path d="M12.75,6.74l-5.24.967v7.142l5.24,1.124,4.963-2A.457.457,0,0,0,18,13.546V8.86a.458.458,0,0,0-.31-.433Z" fill="url(#b271aa8c-021e-49fb-99c3-d62eec4f617d)" />
  <path d="M7.51,7.707v7.142L12.8,15.973V6.74Zm2.223,6.605-1.483-.3V8.5l1.483-.248Zm2.312.414-1.7-.275V8.165l1.7-.3Z" fill="#341a6e" />
</svg>