<svg xmlns="http://www.w3.org/2000/svg" width="18" height="18" viewBox="0 0 18 18">
  <defs>
    <linearGradient id="fb6d8c52-062e-43f3-86cb-ec73507b8c93" x1="-555.993" y1="1028.855" x2="-554.329" y2="1008.17" gradientTransform="matrix(1, 0, 0, -1, 564, 1025.516)" gradientUnits="userSpaceOnUse">
      <stop offset="0" stop-color="#5ea0ef"/>
      <stop offset="0.174" stop-color="#569ded"/>
      <stop offset="0.447" stop-color="#3f93e6"/>
      <stop offset="0.784" stop-color="#1b84dc"/>
      <stop offset="1" stop-color="#0078d4"/>
    </linearGradient>
  </defs>
  <g id="facc9e71-99df-4063-818f-a788ba1ce277">
    <g>
      <circle cx="9" cy="9" r="8.5" fill="url(#fb6d8c52-062e-43f3-86cb-ec73507b8c93)"/>
      <path d="M13.652,9.588a4.484,4.484,0,0,0-2.644-4.757,2,2,0,0,0-3.995,0,4.661,4.661,0,0,0-2.69,4.226,4.734,4.734,0,0,0,.041.519,1.971,1.971,0,0,0-.95,1.666,2.014,2.014,0,0,0,2.01,2.012,1.955,1.955,0,0,0,1-.3,4.607,4.607,0,0,0,5.161,0,1.949,1.949,0,0,0,.99.3,2.015,2.015,0,0,0,2.012-2.012A1.982,1.982,0,0,0,13.652,9.588Zm-4.641-5.8A1.108,1.108,0,1,1,7.9,4.9,1.108,1.108,0,0,1,9.011,3.791ZM4.318,11.243a1.108,1.108,0,1,1,1.108,1.109h0A1.108,1.108,0,0,1,4.318,11.243ZM7.11,12.274a1.943,1.943,0,0,0,.326-1.031A2.014,2.014,0,0,0,5.424,9.231c-.064,0-.118.031-.179.036,0-.07-.016-.136-.016-.208A3.745,3.745,0,0,1,7.219,5.77a1.973,1.973,0,0,0,3.587,0A3.752,3.752,0,0,1,12.8,9.059c0,.072-.015.142-.018.212a2.041,2.041,0,0,0-.2-.04,2.014,2.014,0,0,0-2.012,2.012,1.947,1.947,0,0,0,.331,1.039A3.788,3.788,0,0,1,7.11,12.274Zm5.464.078a1.109,1.109,0,1,1,1.108-1.109,1.109,1.109,0,0,1-1.108,1.109Z" fill="#fff"/>
    </g>
  </g>
</svg>
