<svg xmlns="http://www.w3.org/2000/svg" viewBox="0 0 18 18">
  <defs>
    <linearGradient id="fbb96a1d-1d82-49ad-b7a4-21c26f27c01d" x1="9" y1="797.619" x2="9" y2="764.592" gradientTransform="matrix(1, 0, 0, -1, 0, 791.516)" gradientUnits="userSpaceOnUse">
      <stop offset="0" stop-color="#83b9f9" />
      <stop offset="0.8" stop-color="#0078d4" />
    </linearGradient>
  </defs>
  <path d="M10.023.134H2.362a.6.6,0,0,0-.6.605v16.52a.6.6,0,0,0,.6.605H15.638a.6.6,0,0,0,.6-.6h0V6.326a.6.6,0,0,0-.6-.6H11.232a.605.605,0,0,1-.6-.605h0V.741a.606.606,0,0,0-.6-.607Z" fill="#fff" />
  <path d="M10.036,0H2.264A.615.615,0,0,0,1.65.615v16.77A.615.615,0,0,0,2.264,18H15.736a.615.615,0,0,0,.614-.615V6.286a.614.614,0,0,0-.614-.614H11.264a.614.614,0,0,1-.614-.614h0V.615A.616.616,0,0,0,10.036,0Z" fill="url(#fbb96a1d-1d82-49ad-b7a4-21c26f27c01d)" />
  <path d="M16.115,5.794,10.438.134V4.746a1.042,1.042,0,0,0,1.035,1.048h4.642Z" fill="#83b9f9" />
  <path d="M4.382,5.009V8.762a.3.3,0,0,0,.452.261L8.116,7.147a.3.3,0,0,0,.113-.41.306.306,0,0,0-.113-.113L4.834,4.748a.3.3,0,0,0-.412.113A.307.307,0,0,0,4.382,5.009Z" fill="#c3f1ff" />
  <rect x="4.328" y="10.501" width="7.804" height="1.047" rx="0.47" fill="#9cebff" />
  <rect x="4.328" y="12.377" width="7.804" height="1.047" rx="0.47" fill="#9cebff" />
  <rect x="4.328" y="14.253" width="4.918" height="1.047" rx="0.47" fill="#9cebff" />
</svg>