<svg xmlns="http://www.w3.org/2000/svg" viewBox="0 0 18 18">
  <defs>
    <linearGradient id="a47f84f5-7e09-4eaf-abca-96c55dddc3dc" x1="8.872" y1="0.232" x2="8.872" y2="17.491" gradientUnits="userSpaceOnUse">
      <stop offset="0" stop-color="#86d633" />
      <stop offset="1" stop-color="#5e9624" />
    </linearGradient>
    <linearGradient id="a7601136-2b35-45a0-bc21-198d4beed297" x1="13.461" y1="0.232" x2="13.461" y2="17.491" gradientUnits="userSpaceOnUse">
      <stop offset="0" stop-color="#86d633" />
      <stop offset="1" stop-color="#5e9624" />
    </linearGradient>
    <linearGradient id="a226acf5-4b5b-4218-9202-ef3bb1b7accf" x1="6.382" y1="0.232" x2="6.382" y2="17.491" gradientUnits="userSpaceOnUse">
      <stop offset="0" stop-color="#86d633" />
      <stop offset="1" stop-color="#5e9624" />
    </linearGradient>
  </defs>
  <path d="M6.188,8.523,4.494,11.83a.752.752,0,1,0,1.338.686l2-3.906a.752.752,0,0,0-.31-1,2.915,2.915,0,1,1,4.15-1.62.752.752,0,0,0,1.422.488A4.421,4.421,0,1,0,6.188,8.523Z" fill="url(#a47f84f5-7e09-4eaf-abca-96c55dddc3dc)" />
  <path d="M17.784,11.6a4.423,4.423,0,0,0-5.776-2.775L10.315,6.056a.752.752,0,1,0-1.283.784l2.046,3.347a.751.751,0,0,0,1.021.257,2.916,2.916,0,1,1-.756,4.39.752.752,0,0,0-1.153.966,4.421,4.421,0,0,0,7.594-4.2Z" fill="url(#a7601136-2b35-45a0-bc21-198d4beed297)" />
  <path d="M12.764,12.814A.752.752,0,0,0,12,12.08l-3.922.092a.752.752,0,0,0-.734.756,2.915,2.915,0,1,1-3.42-2.856.752.752,0,1,0-.258-1.481A4.42,4.42,0,1,0,8.785,13.66l3.245-.076A.752.752,0,0,0,12.764,12.814Z" fill="url(#a226acf5-4b5b-4218-9202-ef3bb1b7accf)" />
  <circle cx="4.463" cy="12.969" r="1.598" fill="#0078d4" />
  <circle cx="13.608" cy="12.969" r="1.598" fill="#0078d4" />
  <circle cx="8.964" cy="5.071" r="1.598" fill="#0078d4" />
</svg>