<svg xmlns="http://www.w3.org/2000/svg" width="18" height="18" viewBox="0 0 18 18">
  <defs>
    <linearGradient id="ab9210d6-1839-4047-b3bd-a265c3597793" x1="2.214" y1="10.229" x2="15.787" y2="10.229" gradientUnits="userSpaceOnUse">
      <stop offset="0" stop-color="#0078d4"/>
      <stop offset="0.483" stop-color="#5ea0ef"/>
      <stop offset="1" stop-color="#0078d4"/>
    </linearGradient>
  </defs>
  <g id="e0bd84d4-8cf1-4e48-9927-bb6ff2eccc22">
    <path d="M12.234,4.618c.19-.04.38-.08.56-.12a2.992,2.992,0,0,1-.32.08c-.22.05-.46.1-.7.13C11.934,4.678,12.084,4.648,12.234,4.618Z" fill="#0078d4"/>
    <path d="M13.724,4.238c-.07.02-.14.05-.21.07-.11.03-.22.07-.33.1l-.36.09c.17-.05.34-.09.49-.14s.27-.09.39-.13C13.714,4.228,13.724,4.228,13.724,4.238Z" fill="#0078d4"/>
    <path d="M3.034,3.648c.04.03.09.06.14.09a.3.3,0,0,1-.08-.04A.265.265,0,0,1,3.034,3.648Z" fill="#0078d4"/>
    <path d="M12.234,4.618c.19-.04.38-.08.56-.12a2.992,2.992,0,0,1-.32.08c-.22.05-.46.1-.7.13C11.934,4.678,12.084,4.648,12.234,4.618Z" fill="#0078d4"/>
    <path d="M15.194,3.468a2.322,2.322,0,0,1-.3.22,6.111,6.111,0,0,1-1.17.55c-.07.02-.14.05-.21.07-.11.03-.22.07-.33.1l-.36.09c.17-.05.34-.09.49-.14s.27-.09.39-.13A5.28,5.28,0,0,0,15.194,3.468Z" fill="#0078d4"/>
    <path d="M11.024,4.808c-.25.04-.52.06-.79.08.04-.01.08-.01.12-.02Z" fill="#9cebff"/>
    <path d="M12.474,4.578c-.22.05-.46.1-.7.13.16-.03.31-.06.46-.09A2,2,0,0,0,12.474,4.578Z" fill="#9cebff"/>
    <path d="M13.514,4.308c-.11.03-.22.07-.33.1a.694.694,0,0,0,.13-.05A1.17,1.17,0,0,0,13.514,4.308Z" fill="#9cebff"/>
    <path d="M9,0a16.92,16.92,0,0,0-2.18.13A18.732,18.732,0,0,1,9,.008a18.984,18.984,0,0,1,2.18.12A16.7,16.7,0,0,0,9,0Z" fill="#e8e8e8"/>
    <path d="M15.784,13.088a.71.71,0,0,1-.05.29,1.87,1.87,0,0,1-.84.93A12,12,0,0,1,9,15.538a12.021,12.021,0,0,1-5.91-1.22,1.576,1.576,0,0,1-.88-1.23.972.972,0,0,1,.16-.54c.67,1.12,3.39,1.91,6.63,1.91s5.94-.82,6.62-1.91A.972.972,0,0,1,15.784,13.088Zm-.16-4.08c-.68,1.09-3.39,1.91-6.62,1.91s-5.96-.79-6.63-1.91a.972.972,0,0,0-.16.54,1.576,1.576,0,0,0,.88,1.23A12.007,12.007,0,0,0,9,12.008a11.99,11.99,0,0,0,5.89-1.24,1.87,1.87,0,0,0,.84-.93.71.71,0,0,0,.05-.29A.972.972,0,0,0,15.624,9.008Zm0-3.54c-.68,1.09-3.39,1.91-6.62,1.91s-5.96-.79-6.63-1.91a.972.972,0,0,0-.16.54,1.576,1.576,0,0,0,.88,1.23A12.007,12.007,0,0,0,9,8.468a11.99,11.99,0,0,0,5.89-1.24,1.87,1.87,0,0,0,.84-.93.71.71,0,0,0,.05-.29A.972.972,0,0,0,15.624,5.468ZM9,.013c-3.748,0-6.786,1.058-6.786,2.456A1.566,1.566,0,0,0,3.093,3.7,11.985,11.985,0,0,0,9,4.926a12.009,12.009,0,0,0,5.893-1.238,1.888,1.888,0,0,0,.844-.925.925.925,0,0,0,.049-.294C15.786,1.071,12.748.013,9,.013Z" fill="#0078d4"/>
    <path d="M14.894,3.688a6.111,6.111,0,0,1-1.17.55A14.994,14.994,0,0,1,9,4.928a14.8,14.8,0,0,1-4.74-.69,5.318,5.318,0,0,1-1.17-.54,1.576,1.576,0,0,1-.88-1.23v2.46a.929.929,0,0,0,.05.29,1.361,1.361,0,0,0,.11.25c.5.84,2.15,1.49,4.31,1.77h.01A18.741,18.741,0,0,0,9,7.378a18.575,18.575,0,0,0,2.3-.14h.01c2.15-.29,3.8-.95,4.31-1.77a2.718,2.718,0,0,0,.11-.25V2.768A1.9,1.9,0,0,1,14.894,3.688Zm0,3.54a6.111,6.111,0,0,1-1.17.55A14.994,14.994,0,0,1,9,8.468a14.8,14.8,0,0,1-4.74-.69,5.318,5.318,0,0,1-1.17-.54,1.576,1.576,0,0,1-.88-1.23v2.46a.929.929,0,0,0,.05.29,1.361,1.361,0,0,0,.11.25c.5.84,2.15,1.49,4.31,1.77h.01a18.741,18.741,0,0,0,2.31.14,18.575,18.575,0,0,0,2.3-.14h.01c2.15-.29,3.8-.95,4.31-1.77a2.718,2.718,0,0,0,.11-.25V6.3A1.87,1.87,0,0,1,14.894,7.228Zm0,3.54a6.111,6.111,0,0,1-1.17.55,14.994,14.994,0,0,1-4.72.69,14.8,14.8,0,0,1-4.74-.69,5.318,5.318,0,0,1-1.17-.54,1.576,1.576,0,0,1-.88-1.23v2.46a.929.929,0,0,0,.05.29,1.361,1.361,0,0,0,.11.25c.67,1.12,3.39,1.91,6.63,1.91s5.94-.82,6.62-1.91a2.718,2.718,0,0,0,.11-.25V9.838A1.87,1.87,0,0,1,14.894,10.768Zm0,3.54A12,12,0,0,1,9,15.538a12.021,12.021,0,0,1-5.91-1.22,1.576,1.576,0,0,1-.88-1.23v2.45a.993.993,0,0,0,.05.3C2.654,17.088,5.524,18,9,18s6.33-.94,6.73-2.16v-2.46A1.87,1.87,0,0,1,14.894,14.308Z" fill="#9cebff"/>
    <path d="M9,0C5.252,0,2.214,1.059,2.214,2.457S5.252,4.913,9,4.913s6.786-1.1,6.786-2.456C15.786,1.059,12.748,0,9,0Zm.006,3.822c-2.87,0-5.21-.7-5.21-1.557S6.126.7,9.006.7s5.2.7,5.2,1.557S11.874,3.822,9.006,3.822Z" fill="#e8e8e8"/>
    <path d="M15.787,2.457V15.543C15.787,16.9,12.748,18,9,18s-6.786-1.059-6.786-2.457V2.457c0,1.4,3.039,2.457,6.786,2.457S15.787,3.813,15.787,2.457Z" opacity="0.7" fill="url(#ab9210d6-1839-4047-b3bd-a265c3597793)"/>
  </g>
</svg>
