<svg xmlns="http://www.w3.org/2000/svg" width="18" height="18" viewBox="0 0 18 18">
  <defs>
    <linearGradient id="fe0b378b-e7e2-4eef-acff-3874d4725db2" x1="8.854" y1="2.8" x2="8.854" y2="15.3" gradientUnits="userSpaceOnUse">
      <stop offset="0" stop-color="#86d633"/>
      <stop offset="0.999" stop-color="#76bc2d"/>
    </linearGradient>
  </defs>
  <g id="f9c5b8d2-d219-4ee7-8f28-969ece02bba1">
    <g>
      <g>
        <path d="M.985,16.827v-.882H4.772a.306.306,0,0,1,.306.306h0v.883a.306.306,0,0,1-.305.307H1.6a.6.6,0,0,1-.614-.588v-.026Z" fill="#a3a3a3"/>
        <path d="M.985,1.152v0A.6.6,0,0,1,1.6.559H4.773a.306.306,0,0,1,.305.307v.883h0a.306.306,0,0,1-.306.306H.985v-.9Z" fill="#a3a3a3"/>
        <path d="M.6.559H1.51V17.441H.6a.6.6,0,0,1-.6-.6H0V1.162a.6.6,0,0,1,.6-.6Z" fill="#949494"/>
      </g>
      <g>
        <path d="M17.015,16.848v.005a.6.6,0,0,1-.614.588H13.227a.306.306,0,0,1-.3-.307v-.883h0a.306.306,0,0,1,.306-.306h3.787v.9Z" fill="#a3a3a3"/>
        <path d="M17.015,1.173v.882H13.228a.306.306,0,0,1-.306-.306h0V.866a.306.306,0,0,1,.3-.307H16.4a.6.6,0,0,1,.614.588v.026Z" fill="#a3a3a3"/>
        <path d="M17.4.559a.6.6,0,0,1,.6.6V16.84h0a.6.6,0,0,1-.6.6H16.49V.559H17.4Z" fill="#949494"/>
      </g>
      <path d="M14.228,6.143a4.8,4.8,0,0,0-1.206-1.654,5.327,5.327,0,0,0-1.8-1.041,6.658,6.658,0,0,0-2.209-.36,6.406,6.406,0,0,0-2.432.467A5.561,5.561,0,0,0,4.7,4.83,5.784,5.784,0,0,0,3.47,6.765,6.616,6.616,0,0,0,3.032,9.2a6.009,6.009,0,0,0,.428,2.364,5.348,5.348,0,0,0,1.206,1.81,5.2,5.2,0,0,0,1.839,1.147,6.715,6.715,0,0,0,2.363.4,13.1,13.1,0,0,0,1.586-.116,5.858,5.858,0,0,0,1.527-.419v-.895a5.579,5.579,0,0,1-1.488.467,9.6,9.6,0,0,1-1.556.127A5.846,5.846,0,0,1,6.9,13.73a4.293,4.293,0,0,1-2.539-2.548,5.733,5.733,0,0,1-.34-2.024,5.914,5.914,0,0,1,.35-2.033,4.962,4.962,0,0,1,1-1.673A4.856,4.856,0,0,1,6.933,4.324a4.76,4.76,0,0,1,2.023-.419,5.825,5.825,0,0,1,1.907.3,4.193,4.193,0,0,1,1.5.876,3.96,3.96,0,0,1,.972,1.41A4.89,4.89,0,0,1,13.684,8.4a5.014,5.014,0,0,1-.039.6q-.039.321-.117.671a2.948,2.948,0,0,1-.224.652,3.111,3.111,0,0,1-.34.554,1.437,1.437,0,0,1-.467.4,1.3,1.3,0,0,1-.623.146.7.7,0,0,1-.467-.156,1.085,1.085,0,0,1-.253-.379,1.6,1.6,0,0,1-.116-.486c-.013-.169-.02-.325-.02-.467a5.245,5.245,0,0,1,.039-.633c.026-.214.049-.424.068-.632l.234-2.782h-.9c-.019.13-.032.259-.039.389s-.016.259-.029.389v.049a1.378,1.378,0,0,0-.234-.409,1.228,1.228,0,0,0-.359-.292,1.983,1.983,0,0,0-.438-.175,1.76,1.76,0,0,0-.448-.058,2.663,2.663,0,0,0-1.352.34,3.061,3.061,0,0,0-.934.866,3.659,3.659,0,0,0-.554,1.216,5.438,5.438,0,0,0-.175,1.362,3.908,3.908,0,0,0,.126,1,2.618,2.618,0,0,0,.4.856,1.935,1.935,0,0,0,1.663.827,1.918,1.918,0,0,0,1.343-.477,2.679,2.679,0,0,0,.72-1.235h.039a1.984,1.984,0,0,0,.379,1.255,1.466,1.466,0,0,0,1.206.457,2.282,2.282,0,0,0,1.314-.37,3.144,3.144,0,0,0,.9-.943,4.235,4.235,0,0,0,.526-1.265,5.737,5.737,0,0,0,.165-1.333A5.41,5.41,0,0,0,14.228,6.143ZM10.114,9.178a4.236,4.236,0,0,1-.292,1.06,2.267,2.267,0,0,1-.594.837,1.428,1.428,0,0,1-.972.331,1.309,1.309,0,0,1-.642-.166,1.148,1.148,0,0,1-.419-.428,2.042,2.042,0,0,1-.223-.593A3.047,3.047,0,0,1,6.9,9.577a6.131,6.131,0,0,1,.107-.983,3.342,3.342,0,0,1,.331-.953,2.242,2.242,0,0,1,.613-.73A1.507,1.507,0,0,1,8.9,6.619a1.492,1.492,0,0,1,.612.117.971.971,0,0,1,.409.321,1.379,1.379,0,0,1,.214.487,2.625,2.625,0,0,1,.068.612A8.561,8.561,0,0,1,10.114,9.178Z" fill="url(#fe0b378b-e7e2-4eef-acff-3874d4725db2)"/>
    </g>
  </g>
</svg>
