<svg id="f79f1f18-c663-4ccf-98d6-b0da90fcbfff" xmlns="http://www.w3.org/2000/svg" width="16" height="16" viewBox="0 0 16 16">
  <g>
    <path d="M10.562.438h-8A2.128,2.128,0,0,0,.437,2.563v6a2.128,2.128,0,0,0,2.125,2.125h1.88v.76H3.068a.625.625,0,1,0,0,1.25h3.75l-.031-.15a4.894,4.894,0,0,1-.1-.975v-.125h-1v-.76H6.767l.019-.1A4.771,4.771,0,0,1,7.1,9.61l.077-.175H2.562a.877.877,0,0,1-.875-.875v-6a.876.876,0,0,1,.875-.875h8a.875.875,0,0,1,.875.875V6.688h.125a4.908,4.908,0,0,1,.975.1l.15.03V2.563A2.127,2.127,0,0,0,10.562.438Z" fill="#0078d4"/>
    <circle cx="11.563" cy="11.562" r="4" fill="#8a2da5"/>
    <path d="M11.563,9.124a2.438,2.438,0,0,0-2.438,2.438.281.281,0,1,1-.562,0,3,3,0,1,1,3,3,.281.281,0,1,1,0-.562,2.438,2.438,0,0,0,0-4.876Z" fill="#fff"/>
  </g>
</svg>
