<svg width="18" height="18" viewBox="0 0 18 18" xmlns="http://www.w3.org/2000/svg">
<path d="M17.3995 15.9448H0.600513C0.261762 15.9448 0 15.6924 0 15.3657V5.69783H18V15.3805C18 15.6924 17.7229 15.9448 17.3995 15.9448Z" fill="url(#335f7e3b-fed3-4fde-8b6d-33c2cf936196)"/>
<path d="M18 5.69783H0V2.57918C0 2.25246 0.261762 2 0.600513 2H17.3841C17.7229 2 17.9846 2.25246 17.9846 2.57918V5.69783H18Z" fill="#767676"/>
<path d="M15.2746 4.58402H2.72543C2.55606 4.58402 2.41748 4.45037 2.41748 4.28701V3.38111C2.41748 3.21775 2.55606 3.0841 2.72543 3.0841H15.2746C15.444 3.0841 15.5826 3.21775 15.5826 3.38111V4.30186C15.5826 4.45037 15.444 4.58402 15.2746 4.58402Z" fill="#F2F2F2"/>
<path d="M3.16626 11.5789H2.52172L2.33496 11.0051H1.40112L1.21618 11.5789H0.575317L1.53112 8.99928H2.23242L3.16626 11.5789ZM2.19946 10.5589L1.91748 9.6919C1.89673 9.62713 1.88208 9.54976 1.87354 9.45979H1.85889C1.85278 9.53539 1.83752 9.61033 1.81311 9.68468L1.52746 10.5589H2.19946ZM3.97924 11.1077H5.09253V11.5789H3.3457V11.3846C3.3457 11.2528 3.36829 11.1346 3.41345 11.0303C3.45862 10.9247 3.51538 10.8306 3.58374 10.7479C3.6521 10.6639 3.72656 10.5901 3.80713 10.5266C3.88891 10.4618 3.96643 10.4036 4.03967 10.3521C4.11658 10.2981 4.18372 10.2465 4.24109 10.1974C4.29968 10.1482 4.34851 10.0997 4.38757 10.0516C4.42786 10.0025 4.45776 9.95333 4.4773 9.90418C4.49683 9.85378 4.50659 9.80043 4.50659 9.74407C4.50659 9.63369 4.47485 9.55035 4.41138 9.49398C4.3479 9.43761 4.25086 9.40947 4.12024 9.40947C3.89441 9.40947 3.67834 9.49759 3.47204 9.67392V9.17378C3.70032 9.02867 3.95788 8.95611 4.24475 8.95611C4.37781 8.95611 4.49683 8.9735 4.6018 9.00828C4.708 9.04185 4.79773 9.09043 4.87097 9.15399C4.94422 9.21755 4.99975 9.29491 5.0376 9.38603C5.07666 9.476 5.09619 9.57673 5.09619 9.68829C5.09619 9.80699 5.07727 9.91251 5.03943 10.0049C5.00281 10.0972 4.95337 10.1812 4.89111 10.2568C4.83007 10.3323 4.75927 10.4018 4.67871 10.4654C4.59814 10.5278 4.51453 10.5883 4.42786 10.6471C4.36926 10.6879 4.3125 10.7286 4.25757 10.7695C4.20385 10.809 4.15625 10.8486 4.11475 10.8882C4.07324 10.9265 4.04028 10.9643 4.01587 11.0015C3.99145 11.0387 3.97924 11.0741 3.97924 11.1077ZM6.61414 10.7946H5.61255V10.3971H6.61414V10.7946ZM7.16711 11.5789V8.99928H8.12295C8.4159 8.99928 8.64112 9.05205 8.79855 9.15759C8.95605 9.26313 9.0348 9.41182 9.0348 9.6037C9.0348 9.74281 8.98657 9.86454 8.89012 9.96888C8.79495 10.0732 8.67285 10.1458 8.5239 10.1866V10.1938C8.71072 10.2165 8.8596 10.2843 8.97067 10.3971C9.08302 10.5098 9.13912 10.6471 9.13912 10.809C9.13912 11.0453 9.0531 11.2329 8.88097 11.372C8.70885 11.51 8.47387 11.5789 8.17605 11.5789H7.16711ZM7.75852 9.42744V10.0391H8.01855C8.14065 10.0391 8.23642 10.0103 8.30602 9.95274C8.37682 9.89394 8.41222 9.81362 8.41222 9.71164C8.41222 9.5222 8.26822 9.42744 7.98007 9.42744H7.75852ZM7.75852 10.4708V11.1508H8.079C8.21572 11.1508 8.32252 11.1196 8.3994 11.0573C8.47755 10.9949 8.51662 10.9097 8.51662 10.8018C8.51662 10.6986 8.47815 10.6177 8.40127 10.5589C8.32552 10.5002 8.21932 10.4708 8.08267 10.4708H7.75852ZM9.48705 11.4944V10.9997C9.66285 11.1256 9.8679 11.1886 10.1023 11.1886C10.25 11.1886 10.3648 11.1574 10.4465 11.0951C10.5295 11.0327 10.571 10.9457 10.571 10.8342C10.571 10.7191 10.5198 10.6303 10.4172 10.5679C10.3159 10.5056 10.1761 10.4744 9.99795 10.4744H9.75442V10.0391H9.97965C10.3214 10.0391 10.4923 9.92754 10.4923 9.7045C10.4923 9.49457 10.3611 9.38964 10.0986 9.38964C9.92287 9.38964 9.75195 9.44542 9.5859 9.55698V9.09283C9.77025 9.00168 9.98512 8.95611 10.2304 8.95611C10.499 8.95611 10.7077 9.01548 10.8567 9.1342C11.0068 9.25293 11.0819 9.40703 11.0819 9.59655C11.0819 9.93351 10.9079 10.1446 10.5601 10.2297V10.2388C10.7456 10.2615 10.8921 10.3281 10.9995 10.4384C11.1069 10.5476 11.1607 10.6819 11.1607 10.8414C11.1607 11.0825 11.0709 11.2732 10.8915 11.4135C10.712 11.5537 10.4642 11.6239 10.1481 11.6239C9.87705 11.6239 9.65677 11.5807 9.48705 11.4944ZM12.6932 10.7946H11.6917V10.3971H12.6932V10.7946ZM15.1285 11.4872C14.9369 11.5784 14.6866 11.6239 14.3778 11.6239C13.975 11.6239 13.6582 11.5076 13.4275 11.2749C13.1968 11.0422 13.0814 10.7322 13.0814 10.3449C13.0814 9.93233 13.2108 9.59773 13.4696 9.34108C13.7296 9.08443 14.0665 8.95611 14.4803 8.95611C14.7367 8.95611 14.9527 8.98789 15.1285 9.05145V9.61092C14.9527 9.50776 14.7526 9.45618 14.5279 9.45618C14.2813 9.45618 14.0824 9.53237 13.931 9.68468C13.7797 9.83698 13.704 10.0433 13.704 10.3035C13.704 10.553 13.7754 10.7521 13.9182 10.9008C14.061 11.0483 14.2533 11.122 14.495 11.122C14.7257 11.122 14.9369 11.0668 15.1285 10.9565V11.4872ZM17.0292 8.99928V10.6255H17.3441V11.05H17.0292V11.5789H16.5018V11.05H15.3574V10.6057C15.4588 10.4942 15.5637 10.3724 15.6724 10.2405C15.781 10.1074 15.886 9.97072 15.9873 9.83042C16.0886 9.69005 16.1826 9.54917 16.2693 9.40762C16.3572 9.26493 16.4317 9.1288 16.4926 8.99928H17.0292ZM15.8756 10.6255H16.5018V9.72424C16.4591 9.8022 16.4127 9.88134 16.3627 9.96173C16.3126 10.0409 16.2601 10.1194 16.2052 10.1974C16.1503 10.2741 16.0947 10.3491 16.0386 10.4223C15.9824 10.4942 15.9281 10.562 15.8756 10.6255Z" fill="white"/>
<defs>
<linearGradient id="335f7e3b-fed3-4fde-8b6d-33c2cf936196" x1="8.99948" y1="15.949" x2="8.99948" y2="5.69074" gradientUnits="userSpaceOnUse">
<stop stop-color="#32BEDD"/>
<stop offset="0.1755" stop-color="#32CAEA"/>
<stop offset="0.41" stop-color="#32D2F2"/>
<stop offset="0.7753" stop-color="#32D4F5"/>
</linearGradient>
</defs>
</svg>
