<svg id="afd3dfcc-3c72-459b-924b-b3af3e2646c2" xmlns="http://www.w3.org/2000/svg" width="16" height="16" viewBox="0 0 16 16">
  <g>
    <path d="M10.562.438h-8A2.127,2.127,0,0,0,.437,2.563v6a2.128,2.128,0,0,0,2.125,2.125H4.443v.76H3.069a.625.625,0,1,0,0,1.25H6.818l-.031-.15a4.908,4.908,0,0,1-.1-.975v-.125h-1v-.76H6.765l.021-.1A4.842,4.842,0,0,1,7.1,9.61l.077-.175H2.562a.877.877,0,0,1-.875-.875v-6a.876.876,0,0,1,.875-.875h8a.875.875,0,0,1,.875.875V6.688h.125a4.913,4.913,0,0,1,.974.1l.15.03V2.563A2.127,2.127,0,0,0,10.562.438Z" fill="#212121"/>
    <circle cx="11.563" cy="11.562" r="4" fill="#8a2da5"/>
    <path d="M11.563,9.125a2.438,2.438,0,0,0-2.438,2.437.281.281,0,1,1-.562,0,3,3,0,1,1,3,3,.281.281,0,1,1,0-.562,2.438,2.438,0,0,0,0-4.875Z" fill="#fff"/>
  </g>
</svg>
