<svg xmlns="http://www.w3.org/2000/svg" width="18" height="18" viewBox="0 0 18 18">
  <defs>
    <linearGradient id="a7da1af2-3176-4636-bb08-3070d0575e68" x1="-556.284" y1="1020.247" x2="-556.284" y2="1015.442" gradientTransform="matrix(1, 0, 0, -1, 564, 1025.516)" gradientUnits="userSpaceOnUse">
      <stop offset="0.16" stop-color="#50e6ff"/>
      <stop offset="1" stop-color="#32bedd"/>
    </linearGradient>
    <linearGradient id="b7b72f6f-94c5-4948-b270-48bd84ffd70d" x1="-556.285" y1="1025.038" x2="-556.285" y2="1020.288" gradientTransform="matrix(1, 0, 0, -1, 564, 1025.516)" gradientUnits="userSpaceOnUse">
      <stop offset="0.234" stop-color="#50e6ff"/>
      <stop offset="1" stop-color="#32bedd"/>
    </linearGradient>
  </defs>
  <g id="e27443d1-8c7f-4091-8ed3-b7a285ebd316">
    <g>
      <path d="M14.934,5.308l-7.2,4.766L.5,5.3a.108.108,0,0,1,.024-.032H14.906A.2.2,0,0,1,14.934,5.308Z" fill="url(#a7da1af2-3176-4636-bb08-3070d0575e68)"/>
      <path d="M14.906,5.268H.523a.377.377,0,0,1,.121-.13L7.47.494a.451.451,0,0,1,.509,0l6.809,4.644A.368.368,0,0,1,14.906,5.268Z" fill="url(#b7b72f6f-94c5-4948-b270-48bd84ffd70d)"/>
      <path d="M7.729,10.074l-.009.008L.628,14.759.62,14.751v-.008a.448.448,0,0,1-.169-.34V5.51A.438.438,0,0,1,.5,5.3Z" fill="#a67af4"/>
      <circle cx="13.321" cy="13.357" r="4.228" fill="#773adc"/>
      <path d="M13.321,8.759a4.571,4.571,0,0,1,1.666.323V5.51a.367.367,0,0,0-.056-.2L7.725,10.074l1.6,1.056A4.584,4.584,0,0,1,13.321,8.759Z" fill="#773adc"/>
      <path d="M15.542,11.622l-.486-.486a.155.155,0,0,0-.22,0l-1.405,1.405a.154.154,0,0,1-.219,0l-1.406-1.405a.154.154,0,0,0-.219,0l-.487.486a.155.155,0,0,0,0,.22l1.405,1.4a.154.154,0,0,1,0,.219L11.1,14.872a.154.154,0,0,0,0,.219l.487.487a.154.154,0,0,0,.219,0l1.406-1.4a.154.154,0,0,1,.219,0l1.405,1.4a.155.155,0,0,0,.22,0l.486-.487a.154.154,0,0,0,0-.219l-1.4-1.406a.154.154,0,0,1,0-.219l1.4-1.4A.155.155,0,0,0,15.542,11.622Z" fill="#fff"/>
      <path d="M8.723,13.357a4.545,4.545,0,0,1,.6-2.228l-1.6-1.047-.008-.008L.62,14.743v.008l.008.008a.408.408,0,0,0,.275.1L9,14.865A4.55,4.55,0,0,1,8.723,13.357Z" fill="#552f99"/>
    </g>
  </g>
</svg>
