<svg xmlns="http://www.w3.org/2000/svg" viewBox="0 0 18 18">
  <defs>
    <linearGradient id="8902fb67-1d0c-4de8-9891-df7d349dcff1" x1="12.262" y1="731.202" x2="12.262" y2="737.93" gradientTransform="matrix(1, 0, 0, -1, 0, 746)" gradientUnits="userSpaceOnUse">
      <stop offset="0" stop-color="#32bedd" />
      <stop offset="0.532" stop-color="#50e6ff" />
      <stop offset="1" stop-color="#9cebff" />
    </linearGradient>
    <linearGradient id="f3a2bc27-9be8-42d5-b72b-aa6bdd6118ac" x1="5.693" y1="728" x2="5.693" y2="734.728" gradientTransform="matrix(1, 0, 0, -1, 0, 746)" gradientUnits="userSpaceOnUse">
      <stop offset="0" stop-color="#006dcd" />
      <stop offset="0.502" stop-color="#3787e1" />
      <stop offset="0.775" stop-color="#5395ec" />
    </linearGradient>
  </defs>
  <g>
    <path d="M6.569,8.07H17.954v6.348a.38.38,0,0,1-.38.38H6.95a.381.381,0,0,1-.381-.38V8.07Z" fill="url(#8902fb67-1d0c-4de8-9891-df7d349dcff1)" />
    <path d="M6.952,5.644h10.62a.381.381,0,0,1,.38.381h0V8.07H6.569V6.025a.382.382,0,0,1,.381-.381Z" fill="#32bedd" />
    <rect x="7.777" y="8.963" width="2.444" height="1.239" rx="0.19" fill="#fff" opacity="0.9" />
    <rect x="11.056" y="8.945" width="2.444" height="1.239" rx="0.19" fill="#fff" opacity="0.9" />
    <rect x="14.335" y="8.945" width="2.444" height="1.239" rx="0.19" fill="#fff" opacity="0.9" />
    <rect x="7.814" y="10.735" width="2.444" height="1.239" rx="0.19" fill="#fff" opacity="0.9" />
    <rect x="11.093" y="10.717" width="2.444" height="1.239" rx="0.19" fill="#fff" opacity="0.9" />
    <rect x="14.371" y="10.717" width="2.444" height="1.239" rx="0.19" fill="#fff" opacity="0.9" />
    <rect x="7.814" y="12.524" width="2.444" height="1.239" rx="0.19" fill="#ffcd05" />
    <rect x="11.093" y="12.507" width="2.444" height="1.239" rx="0.19" fill="#fff" opacity="0.9" />
    <rect x="14.371" y="12.507" width="2.444" height="1.239" rx="0.19" fill="#fff" opacity="0.9" />
  </g>
  <g>
    <path d="M0,11.272H11.385V17.62a.38.38,0,0,1-.38.38H.38A.38.38,0,0,1,0,17.62V11.272Z" fill="url(#f3a2bc27-9be8-42d5-b72b-aa6bdd6118ac)" />
    <path d="M.382,8.846H11a.381.381,0,0,1,.38.381h0v2.045H0V9.227a.381.381,0,0,1,.38-.381Z" fill="#006dcd" />
    <rect x="1.208" y="12.165" width="2.444" height="1.239" rx="0.19" fill="#fff" opacity="0.9" />
    <rect x="4.487" y="12.147" width="2.444" height="1.239" rx="0.19" fill="#fff" opacity="0.9" />
    <rect x="7.766" y="12.147" width="2.444" height="1.239" rx="0.19" fill="#fff" opacity="0.9" />
    <rect x="1.244" y="13.937" width="2.444" height="1.239" rx="0.19" fill="#fff" opacity="0.9" />
    <rect x="4.523" y="13.919" width="2.444" height="1.239" rx="0.19" fill="#fff" opacity="0.9" />
    <rect x="7.802" y="13.919" width="2.444" height="1.239" rx="0.19" fill="#fff" opacity="0.9" />
    <rect x="1.244" y="15.726" width="2.444" height="1.239" rx="0.19" fill="#fff" opacity="0.9" />
    <rect x="4.523" y="15.709" width="2.444" height="1.239" rx="0.19" fill="#fff" opacity="0.9" />
    <rect x="7.802" y="15.709" width="2.444" height="1.239" rx="0.19" fill="#fff" opacity="0.9" />
  </g>
  <path d="M7.8,2.44,6.252.936C6.083.768,5.94.827,5.94,1.088v.676a.186.186,0,0,1-.186.186H5.745c-1,0-3.775.262-3.876,4.062a.194.194,0,0,0,.194.2h.988a.194.194,0,0,0,.195-.194V6A2.33,2.33,0,0,1,5.779,3.183a.194.194,0,0,1,.2.194V4c0,.313.1.363.312.152L7.8,2.761a.2.2,0,0,0,.051-.27A.19.19,0,0,0,7.8,2.44Z" fill="#b3b3b3" />
  <metadata>
    <rdf:RDF xmlns:rdf="http://www.w3.org/1999/02/22-rdf-syntax-ns#">
      <rdf:li>public:true</rdf:li>
      <rdf:li>sdk:false</rdf:li>
      <rdf:li>category: Databases</rdf:li>
    </rdf:RDF>
  </metadata>
</svg>