<svg xmlns="http://www.w3.org/2000/svg" width="18" height="18" viewBox="0 0 18 18">
  <defs>
    <linearGradient id="ee713ee9-482a-497d-99e5-a11d24a1e648" x1="5.282" y1="774.079" x2="5.282" y2="791.016" gradientTransform="matrix(1, 0, 0, -1, 0, 791.516)" gradientUnits="userSpaceOnUse">
      <stop offset="0" stop-color="#949494"/>
      <stop offset="0.53" stop-color="#a2a2a2"/>
      <stop offset="1" stop-color="#b3b3b3"/>
    </linearGradient>
    <linearGradient id="f41a4cd5-3449-406a-9b6d-b04f570a42ff" x1="10.135" y1="774.016" x2="10.135" y2="784.723" gradientTransform="matrix(1, 0, 0, -1, 0, 791.516)" gradientUnits="userSpaceOnUse">
      <stop offset="0" stop-color="#0078d4"/>
      <stop offset="0.16" stop-color="#1380da"/>
      <stop offset="0.53" stop-color="#3c91e5"/>
      <stop offset="0.82" stop-color="#559cec"/>
      <stop offset="1" stop-color="#5ea0ef"/>
    </linearGradient>
  </defs>
  <g id="f5c22ad2-d30e-4602-8fbd-bb23d4c39a29">
    <g>
      <path d="M10.255,16.859a.584.584,0,0,1-.172.406.591.591,0,0,1-.4.172H.885a.577.577,0,0,1-.577-.578V1.077A.583.583,0,0,1,.349.855.567.567,0,0,1,.663.541.583.583,0,0,1,.885.5H9.678a.577.577,0,0,1,.577.577Z" fill="url(#ee713ee9-482a-497d-99e5-a11d24a1e648)"/>
      <path d="M1.767,6.436A1.084,1.084,0,0,1,2.84,5.362H7.8a1.089,1.089,0,0,1,.422.073,1.082,1.082,0,0,1,.692,1h0a1.079,1.079,0,0,1-.328.777A1.086,1.086,0,0,1,7.8,7.52H2.84A1.082,1.082,0,0,1,1.767,6.436Z" fill="#003067"/>
      <path d="M1.767,3.235A1.082,1.082,0,0,1,2.84,2.151H7.8a1.086,1.086,0,0,1,.786.307,1.079,1.079,0,0,1,.328.777,1.084,1.084,0,0,1-.692,1,1.089,1.089,0,0,1-.422.073H2.84A1.084,1.084,0,0,1,1.767,3.235Z" fill="#003067"/>
      <path d="M2.9,3.964a.729.729,0,1,0-.729-.729A.729.729,0,0,0,2.9,3.964Z" fill="#50e6ff"/>
      <path d="M2.9,7.165a.729.729,0,1,0-.729-.729A.729.729,0,0,0,2.9,7.165Z" fill="#50e6ff"/>
      <path d="M17.692,14.145a3.4,3.4,0,0,0-2.948-3.262,4.274,4.274,0,0,0-4.406-4.052A4.378,4.378,0,0,0,6.144,9.647a4.051,4.051,0,0,0-3.565,3.9A4.112,4.112,0,0,0,6.833,17.5h7.486a3.434,3.434,0,0,0,3.373-3.352Z" fill="url(#f41a4cd5-3449-406a-9b6d-b04f570a42ff)"/>
      <path d="M12.814,12.267H10.689V10.142a.279.279,0,0,0-.279-.279h-.217a.279.279,0,0,0-.279.279v2.125H7.789a.279.279,0,0,0-.279.279v.217a.279.279,0,0,0,.279.279H9.914v2.125a.279.279,0,0,0,.279.279h.217a.279.279,0,0,0,.279-.279V13.042h2.125a.279.279,0,0,0,.279-.279v-.217A.279.279,0,0,0,12.814,12.267Z" fill="#fff"/>
    </g>
  </g>
</svg>
