<svg id="eddb2690-7a27-418a-893f-a8f1be93fb0b" xmlns="http://www.w3.org/2000/svg" width="16" height="16" viewBox="0 0 16 16">
  <g>
    <path d="M6.5,11.508h-1V10.5H6.6a4.915,4.915,0,0,1,.325-1H2.5a1,1,0,0,1-1-1v-6a1,1,0,0,1,1-1h8a1,1,0,0,1,1,1v4h0a5,5,0,0,1,1,.1V2.5a2,2,0,0,0-2-2h-8a2,2,0,0,0-2,2v6a2,2,0,0,0,2,2H4.505v1.011h-1.5a.5.5,0,0,0,0,1H6.6A5,5,0,0,1,6.5,11.508Z" fill="#0078d4"/>
    <circle cx="11.5" cy="11.5" r="4" fill="#8a2da5"/>
    <path d="M11.5,9.062A2.439,2.439,0,0,0,9.062,11.5a.281.281,0,0,1-.562,0,3,3,0,1,1,3,3,.281.281,0,0,1,0-.562,2.438,2.438,0,0,0,0-4.876Z" fill="#fff"/>
  </g>
</svg>
