<svg xmlns="http://www.w3.org/2000/svg" viewBox="0 0 16 16">
  <path d="M16,13.5H7a2,2,0,0,1-.4.8,1.5,1.5,0,0,1-.5.6l-.7.5H3.6l-.7-.5a1.5,1.5,0,0,1-.5-.6,2,2,0,0,1-.4-.8H0v-1H2a2,2,0,0,1,.4-.8,1.5,1.5,0,0,1,.5-.6l.7-.5H5.4l.7.5a1.5,1.5,0,0,1,.5.6,2,2,0,0,1,.4.8h9Zm-11.5,1h.6l.5-.3.3-.5a1.3,1.3,0,0,0,.1-.6,1.3,1.3,0,0,0-.1-.6L5.6,12l-.5-.3H3.9l-.5.3-.3.5a1.3,1.3,0,0,0-.1.6,1.3,1.3,0,0,0,.1.6l.3.5.5.3Z" />
  <path d="M16,3.5H7a2,2,0,0,1-.4.8,1.5,1.5,0,0,1-.5.6l-.7.5H3.6l-.7-.5a1.5,1.5,0,0,1-.5-.6A2,2,0,0,1,2,3.5H0v-1H2a2,2,0,0,1,.4-.8,1.5,1.5,0,0,1,.5-.6L3.6.6H5.4l.7.5a1.5,1.5,0,0,1,.5.6,2,2,0,0,1,.4.8h9ZM4.5,4.5h.6l.5-.3.3-.5A1.3,1.3,0,0,0,6,3a1.3,1.3,0,0,0-.1-.6l-.3-.5-.5-.3H3.9l-.5.3-.3.5A1.3,1.3,0,0,0,3,3a1.3,1.3,0,0,0,.1.6l.3.5.5.3Z" />
  <path d="M0,7.5H9a2,2,0,0,1,.4-.8,1.5,1.5,0,0,1,.5-.6l.7-.5h1.8l.7.5a1.5,1.5,0,0,1,.5.6,2,2,0,0,1,.4.8h2v1H14a2,2,0,0,1-.4.8,1.5,1.5,0,0,1-.5.6l-.7.5H10.6l-.7-.5a1.5,1.5,0,0,1-.5-.6A2,2,0,0,1,9,8.5H0ZM12.1,9.4l.5-.3.3-.5A1.3,1.3,0,0,0,13,8a1.3,1.3,0,0,0-.1-.6l-.3-.5-.5-.3H10.9l-.5.3-.3.5A1.3,1.3,0,0,0,10,8a1.3,1.3,0,0,0,.1.6l.3.5.5.3Z" />
</svg>