<svg xmlns="http://www.w3.org/2000/svg" viewBox="0 0 18 18">
  <metadata>
    <?xpacket begin="﻿" id="W5M0MpCehiHzreSzNTczkc9d"?>
    <x:xmpmeta xmlns:x="adobe:ns:meta/" x:xmptk="Adobe XMP Core 6.0-c002 79.164352, 2020/01/30-15:50:38        ">
      <rdf:RDF xmlns:rdf="http://www.w3.org/1999/02/22-rdf-syntax-ns#">
        <rdf:Description rdf:about="" xmlns:dc="http://purl.org/dc/elements/1.1/" xmlns:xmp="http://ns.adobe.com/xap/1.0/" xmlns:xmpMM="http://ns.adobe.com/xap/1.0/mm/" xmlns:stEvt="http://ns.adobe.com/xap/1.0/sType/ResourceEvent#">
          <dc:subject>
            <rdf:Bag>
              <rdf:li>security</rdf:li>
              <rdf:li>azure security center</rdf:li>
              <rdf:li>firewall</rdf:li>
            </rdf:Bag>
          </dc:subject>
          <xmp:MetadataDate>2020-02-13T18:09:05-08:00</xmp:MetadataDate>
          <xmpMM:InstanceID>xmp.iid:0af11fef-c3fc-5e48-b4eb-838648cf2a75</xmpMM:InstanceID>
          <xmpMM:DocumentID>xmp.did:0af11fef-c3fc-5e48-b4eb-838648cf2a75</xmpMM:DocumentID>
          <xmpMM:OriginalDocumentID>xmp.did:0af11fef-c3fc-5e48-b4eb-838648cf2a75</xmpMM:OriginalDocumentID>
          <xmpMM:History>
            <rdf:Seq>
              <rdf:li>
                <rdf:Description>
                  <stEvt:action>saved</stEvt:action>
                  <stEvt:instanceID>xmp.iid:0af11fef-c3fc-5e48-b4eb-838648cf2a75</stEvt:instanceID>
                  <stEvt:when>2020-02-13T18:09:05-08:00</stEvt:when>
                  <stEvt:softwareAgent>Adobe Bridge 2020 (Windows)</stEvt:softwareAgent>
                  <stEvt:changed>/metadata</stEvt:changed>
                </rdf:Description>
              </rdf:li>
            </rdf:Seq>
          </xmpMM:History>
        </rdf:Description>
      </rdf:RDF>
    </x:xmpmeta>
    <?xpacket end="w"?>
  </metadata>
  <defs>
    <linearGradient id="A" x1="7.04" y1=".75" x2="7.04" y2="16.35" gradientUnits="userSpaceOnUse">
      <stop offset=".18" stop-color="#5ea0ef" />
      <stop offset="1" stop-color="#0078d4" />
    </linearGradient>
  </defs>
  <path d="M14 8c0 4.58-5.53 8.26-6.73 9a.47.47 0 0 1-.46 0C5.6 16.25.07 12.57.07 8V2.48a.44.44 0 0 1 .43-.43C4.8 1.93 3.8 0 7 0s2.23 1.9 6.54 2a.44.44 0 0 1 .42.43z" fill="#5ea0ef" />
  <path d="M13.42 8c0 4.2-5.08 7.57-6.18 8.26a.4.4 0 0 1-.42 0C5.72 15.6.65 12.23.65 8V3A.39.39 0 0 1 1 2.59C5 2.48 4.07.75 7 .75s2.05 1.73 6 1.84a.4.4 0 0 1 .4.4z" fill="#60b0ef" />
  <path d="M7 8.55V.75c3 0 2.05 1.73 6 1.84a.41.41 0 0 1 .4.4V8.5zm0 0H.67c.4 4 5.1 7.1 6.15 7.75a.34.34 0 0 0 .17.05H7z" fill="url(#A)" />
  <g fill="#0078d4">
    <path d="M1 2.6C5 2.48 4.07.75 7 .75v7.8H.67V3A.4.4 0 0 1 1 2.59z" />
    <path d="M13.4 8.55H7v7.8a.34.34 0 0 0 .17-.05c1.13-.66 5.83-3.8 6.22-7.75z" />
  </g>
  <path d="M14.13 17.8l.33-1.08.63-.37 1.1.48.7-.72V16l-.5-1 .3-.68 1.1-.4.12-.05v-1h-.14l-1.08-.33-.36-.63.47-1.1-.72-.7H16l-1 .5-.7-.3-.44-1.22h-1l-.05.14-.33 1.08-.7.3-1.18-.54-.7.72.07.13.52 1-.28.7-1.2.45v1l.14.05 1.08.33.3.7L10 16.3l.73.7.13-.07 1-.53.7.28.52 1.3h1zm-1.63-3.23a1.45 1.45 0 1 1 2 0 1.44 1.44 0 0 1-2 0z" fill="#949494" />
</svg>