<svg xmlns="http://www.w3.org/2000/svg" width="18" height="18" viewBox="0 0 18 18"><defs><linearGradient id="bae53cc9-ea45-4dba-8209-531de2ed2cf2" x1="9" y1="2.794" x2="9" y2="15.206" gradientUnits="userSpaceOnUse"><stop offset="0.296" stop-color="#005ba1" /><stop offset="0.465" stop-color="#00569a" /><stop offset="0.714" stop-color="#004786" /><stop offset="1" stop-color="#003067" /></linearGradient><linearGradient id="ff9405e5-c270-4591-8f02-9aad59c80b27" x1="10.951" y1="6.718" x2="10.951" y2="8.714" gradientUnits="userSpaceOnUse"><stop offset="0" stop-color="#9cebff" /><stop offset="1" stop-color="#50e6ff" /></linearGradient><linearGradient id="fca79c37-36bf-470b-8f0d-814a0da66704" x1="12.563" y1="8.293" x2="12.563" y2="10.313" gradientUnits="userSpaceOnUse"><stop offset="0" stop-color="#9cebff" /><stop offset="1" stop-color="#50e6ff" /></linearGradient></defs><g id="b06bbdfa-947a-43ef-9a1f-2dd6b21cda83"><g><path d="M15.738,15.046a1.9,1.9,0,0,1-.693-.566c-.176-.223-.317-.47-.488-.721l-.02-.027A7.071,7.071,0,0,0,9,10.944a7.071,7.071,0,0,0-5.537,2.788l-.02.027c-.171.251-.312.5-.488.721a1.9,1.9,0,0,1-.693.566C-1.368,16.449.392,8.2.673,6.352c.512-3.177,3.174-4.131,5.84-3.241A11.482,11.482,0,0,0,9,3.344a11.482,11.482,0,0,0,2.487-.233c2.666-.89,5.328.064,5.84,3.241C17.608,8.2,19.368,16.449,15.738,15.046Z" fill="url(#bae53cc9-ea45-4dba-8209-531de2ed2cf2)" /><path d="M6.543,7.257v.658a.165.165,0,0,1-.165.165H5.261V9.2a.165.165,0,0,1-.164.165H4.438A.165.165,0,0,1,4.274,9.2V8.08H3.157a.165.165,0,0,1-.165-.165V7.257a.164.164,0,0,1,.165-.164H4.274V5.974a.165.165,0,0,1,.164-.165H5.1a.165.165,0,0,1,.164.165V7.093H6.378A.164.164,0,0,1,6.543,7.257Z" fill="#f78d1e" /><circle cx="12.563" cy="5.974" r="0.834" fill="#f2f2f2" /><circle cx="10.951" cy="7.586" r="0.834" fill="url(#ff9405e5-c270-4591-8f02-9aad59c80b27)" /><circle cx="12.563" cy="9.197" r="0.834" fill="url(#fca79c37-36bf-470b-8f0d-814a0da66704)" /><circle cx="14.174" cy="7.586" r="0.834" fill="#f2f2f2" /></g></g></svg>