<svg xmlns="http://www.w3.org/2000/svg" width="18" height="18" viewBox="0 0 18 18">
  <defs>
    <linearGradient id="b25d34ec-6167-4c39-bea2-f13d68bee008" x1="6.585" y1="1.56" x2="6.585" y2="15.401" gradientUnits="userSpaceOnUse">
      <stop offset="0.1" stop-color="#5ea0ef"/>
      <stop offset="1" stop-color="#0078d4"/>
    </linearGradient>
    <linearGradient id="f677ea3e-47cd-4e11-b30b-e33bed3f1d25" x1="13.31" y1="17.875" x2="13.31" y2="8.787" gradientUnits="userSpaceOnUse">
      <stop offset="0" stop-color="#0078d4"/>
      <stop offset="1" stop-color="#5ea0ef"/>
    </linearGradient>
    <linearGradient id="b6cd5c06-412f-4097-80fe-75ff010efba1" x1="13.321" y1="16.669" x2="13.321" y2="13.133" gradientUnits="userSpaceOnUse">
      <stop offset="0.001" stop-color="#ffbd02"/>
      <stop offset="1" stop-color="#ffd400"/>
    </linearGradient>
  </defs>
  <g id="ef5797dc-fa17-4868-8f8e-9b867dcf1571">
    <g>
      <path d="M9.175,9.1a.734.734,0,0,1,.734-.734h3.8V.875c0-.029,0-.059,0-.088a.731.731,0,0,0-.8-.659H2.482a.531.531,0,0,0-.4.181L1,1.578.983,15.056l.717.3H9.175Z" fill="#0078d4"/>
      <path d="M9.175,9.1a.734.734,0,0,1,.734-.734H13.1V1.116a.469.469,0,0,0-.469-.469H2.89a.472.472,0,0,0-.353.158l-.667.763L9.175,11.2Z" fill="#fff"/>
      <path d="M9.175,9.1a.734.734,0,0,1,.734-.734H12.19V1.906a.344.344,0,0,0-.344-.346H1.028a.049.049,0,0,0-.049.049h0V15.056a.346.346,0,0,0,.345.345H9.175Z" fill="url(#b25d34ec-6167-4c39-bea2-f13d68bee008)"/>
      <path d="M10.687,7V6.251a.168.168,0,0,0-.168-.167H4.41a.167.167,0,0,0-.167.167V7a.168.168,0,0,0,.165.167h6.113A.168.168,0,0,0,10.689,7h0Z" fill="#fff" opacity="0.8"/>
      <path d="M3.562,7V6.251A.168.168,0,0,0,3.4,6.084H2.648a.169.169,0,0,0-.168.167V7a.167.167,0,0,0,.167.167H3.4A.168.168,0,0,0,3.564,7Z" fill="#fff" opacity="0.8"/>
      <path d="M10.687,4.572V3.821a.168.168,0,0,0-.168-.168H4.41a.168.168,0,0,0-.167.168v.748a.168.168,0,0,0,.165.167h6.113a.167.167,0,0,0,.168-.166h0Z" fill="#fff" opacity="0.8"/>
      <path d="M3.562,4.572V3.821A.169.169,0,0,0,3.4,3.653H2.648a.169.169,0,0,0-.168.168v.748a.167.167,0,0,0,.167.167H3.4a.168.168,0,0,0,.165-.167Z" fill="#fff" opacity="0.8"/>
      <path d="M13.713,8.787h-3.8a.31.31,0,0,0-.31.31h0v8.467a.31.31,0,0,0,.309.311h6.8a.31.31,0,0,0,.31-.31h0V12.082a.292.292,0,0,0-.086-.207l-3.017-3A.287.287,0,0,0,13.713,8.787Z" fill="url(#f677ea3e-47cd-4e11-b30b-e33bed3f1d25)"/>
      <rect x="11.139" y="13.133" width="4.364" height="3.535" fill="url(#b6cd5c06-412f-4097-80fe-75ff010efba1)"/>
      <path d="M15.65,13.176a.256.256,0,0,0-.039-.093.272.272,0,0,0-.031-.038.269.269,0,0,0-.082-.055.261.261,0,0,0-.1-.021H11.223a.259.259,0,0,0-.259.259V16.56a.259.259,0,0,0,.259.259H15.4a.261.261,0,0,0,.1-.021.269.269,0,0,0,.082-.055.272.272,0,0,0,.031-.038.256.256,0,0,0,.039-.093.224.224,0,0,0,.006-.052V13.228A.224.224,0,0,0,15.65,13.176Zm-4.427.052H13.38v1.666H11.223Zm0,3.332V15.136H13.38V16.56Zm4.174,0H13.638V13.228H15.4Z" fill="#005ba1"/>
    </g>
  </g>
</svg>
