<svg xmlns="http://www.w3.org/2000/svg" width="18" height="18" viewBox="0 0 18 18">
  <title>Icon442</title>
  <g id="a835c17b-40c3-4983-a544-cdbdb2a27bbe">
    <g>
      <path d="M10.646,9.664c-.005.053-.008.107-.018.16s-.021.086-.033.13-.025.1-.043.151-.035.083-.052.124-.046.106-.074.158a2.2,2.2,0,0,1-.13.215l-.025.034a2.606,2.606,0,0,1-.166.208c-.012.013-.022.027-.034.04-.065.071-.138.141-.214.209-.048.044-.1.086-.156.129s-.091.076-.142.112-.12.081-.182.122-.124.084-.193.124a5.361,5.361,0,0,1-.479.242l-.145.062c-.129.054-.263.105-.4.151-.049.017-.1.035-.145.05-.086.027-.175.051-.263.075-.066.018-.131.037-.2.053-.092.023-.186.042-.281.061-.064.013-.127.027-.191.038-.19.034-.383.06-.578.081-.06.006-.121.01-.181.015-.114.01-.228.018-.342.023-.074,0-.147.005-.221.006-.092,0-.185,0-.278,0-.077,0-.155,0-.232-.006s-.172-.008-.258-.014-.156-.012-.234-.019-.17-.018-.254-.029-.151-.02-.227-.032-.18-.03-.269-.047c-.07-.013-.141-.027-.211-.042-.106-.023-.21-.05-.314-.077-.059-.016-.117-.03-.175-.047-.186-.054-.368-.115-.544-.184-.088-.034-.172-.071-.257-.109-.043-.019-.088-.037-.131-.057-.128-.061-.252-.125-.372-.194a2.541,2.541,0,0,1-1.5-2.093L.5,11.747A2.539,2.539,0,0,0,2,13.84c.119.069.244.134.372.194.042.021.087.038.131.057.075.034.15.069.228.1l.029.009c.176.069.358.13.544.184.015,0,.029.011.043.015.043.012.088.02.131.032.1.027.209.054.315.077.028.006.055.015.084.021L4,14.551c.089.017.178.032.268.046.037.006.072.014.108.019s.08.008.12.014c.084.01.168.02.253.028.041,0,.08.01.12.013s.077,0,.115.006c.086.006.171.011.257.014.043,0,.086.006.129.007s.069,0,.1,0c.093,0,.185,0,.278,0h.138l.082-.006c.115,0,.229-.013.342-.023.046,0,.093,0,.139-.009.015,0,.029,0,.043-.006q.292-.03.577-.08l.028,0c.056-.01.109-.024.164-.035.094-.019.188-.038.281-.06.067-.017.133-.036.2-.054.087-.024.175-.048.261-.075l.056-.016c.031-.01.059-.023.09-.034.136-.046.269-.1.4-.151.049-.02.1-.04.145-.062.165-.075.327-.154.479-.242L9.24,13.8c.047-.028.086-.058.131-.087.062-.04.125-.08.182-.122s.095-.074.142-.112.107-.085.156-.128c.009-.009.021-.017.031-.026.065-.06.125-.122.182-.184.012-.013.023-.027.034-.04.034-.038.068-.076.1-.115s.046-.062.068-.093l.025-.034c.04-.058.078-.117.111-.176.007-.013.011-.026.018-.038.028-.053.051-.106.074-.159.014-.03.032-.061.043-.092,0-.01.006-.021.009-.031.018-.051.031-.1.044-.152.009-.034.022-.068.029-.1,0-.009,0-.018,0-.027.009-.053.013-.106.018-.16,0-.035.011-.069.012-.1v-.045l.007-2.259C10.659,9.565,10.651,9.614,10.646,9.664Z" fill="#32bedd"/>
      <path d="M9.161,7.422c1.989,1.148,2,3.01.023,4.158a7.915,7.915,0,0,1-7.18,0c-1.989-1.148-2-3.011-.022-4.159A7.91,7.91,0,0,1,9.161,7.422Z" fill="#50e6ff"/>
      <path d="M10.659,4.594a1.478,1.478,0,0,1-.013.148c-.005.053-.008.107-.018.16s-.021.086-.033.13-.025.1-.043.151-.035.083-.052.124a1.744,1.744,0,0,1-.075.158,2.108,2.108,0,0,1-.129.215l-.025.034c-.051.071-.107.14-.167.209-.011.012-.021.026-.033.038-.066.072-.138.142-.214.21-.049.044-.1.086-.156.129s-.092.076-.142.112-.121.082-.182.122-.125.084-.193.124c-.152.088-.314.167-.479.242-.048.022-.1.042-.145.062-.13.054-.263.105-.4.151-.049.017-.1.035-.146.05-.086.027-.174.051-.262.075-.066.018-.131.037-.2.053-.092.023-.187.042-.281.061-.064.013-.127.027-.191.038-.19.034-.383.06-.577.081-.06.006-.121.01-.181.015-.114.009-.228.018-.342.023l-.221.006c-.092,0-.185,0-.278,0-.077,0-.155,0-.232-.006S5.079,7.5,4.994,7.5s-.157-.012-.235-.02-.169-.017-.253-.028-.152-.02-.227-.032c-.091-.014-.18-.03-.269-.047-.071-.013-.141-.027-.211-.042q-.159-.036-.315-.078L3.31,7.2c-.186-.055-.369-.116-.545-.184-.087-.034-.171-.072-.256-.109-.043-.02-.089-.037-.132-.058-.128-.06-.252-.125-.372-.194a2.537,2.537,0,0,1-1.5-2.093L.5,6.824A2.541,2.541,0,0,0,2,8.917c.119.069.244.134.372.2.043.02.087.037.13.056.077.034.152.069.23.1l.028.01q.264.1.545.184c.015,0,.028.01.044.015.042.012.087.02.129.031.1.028.209.054.316.078l.084.02c.041.009.084.014.126.022.089.017.179.033.269.047.037.006.072.014.108.019l.119.013c.084.011.169.02.254.028.04,0,.08.011.121.014s.075,0,.113.006c.086.006.171.01.257.014.043,0,.086.006.13.007s.068,0,.1,0c.093,0,.185,0,.278,0,.046,0,.092,0,.138,0l.082,0c.115-.005.229-.013.343-.023.046,0,.093,0,.138-.009.014,0,.028-.005.042-.006q.292-.03.578-.08l.028,0c.055-.01.108-.024.162-.035.095-.019.189-.038.282-.06.067-.017.132-.036.2-.054.088-.024.177-.048.263-.075l.056-.016c.03-.01.059-.023.089-.034.137-.046.27-.1.4-.151.048-.02.1-.04.144-.062a4.876,4.876,0,0,0,.479-.242l.062-.036c.047-.028.086-.059.131-.088.062-.04.125-.08.183-.122s.095-.074.141-.112.108-.085.157-.129L9.882,8.4c.065-.061.125-.122.182-.184.012-.013.022-.027.034-.04.034-.038.068-.076.1-.115s.045-.062.068-.093l.024-.034a1.992,1.992,0,0,0,.112-.176c.007-.013.011-.026.018-.039.028-.052.051-.105.074-.158.014-.031.032-.061.043-.092,0-.01.006-.021.009-.031.018-.051.031-.1.044-.152.009-.034.022-.068.029-.1,0-.01,0-.019,0-.028.01-.053.014-.106.019-.16,0-.034.011-.069.012-.1V6.853h0Z" fill="#32bedd"/>
      <ellipse cx="5.583" cy="4.579" rx="2.94" ry="5.076" transform="translate(0.988 10.149) rotate(-89.838)" fill="#50e6ff"/>
      <path d="M17.178,13.459c-.031.045-.06.089-.1.131s-.061.064-.092.1-.073.076-.114.111-.07.054-.106.081-.093.07-.143.1a2.3,2.3,0,0,1-.219.123l-.038.017a2.611,2.611,0,0,1-.248.1l-.049.018c-.092.03-.189.054-.289.076-.064.014-.132.024-.2.035s-.117.02-.179.027-.145.011-.218.016-.15.011-.23.012c-.175,0-.355-.01-.536-.026l-.156-.018c-.14-.017-.281-.04-.422-.067-.051-.009-.1-.017-.151-.028-.088-.019-.176-.042-.265-.065-.066-.017-.133-.033-.2-.052-.091-.026-.182-.057-.273-.087-.062-.02-.124-.039-.186-.061q-.273-.1-.542-.216c-.055-.024-.11-.051-.165-.076-.1-.048-.207-.1-.309-.15-.065-.033-.13-.068-.194-.1-.082-.045-.162-.09-.243-.137s-.132-.08-.2-.121-.146-.091-.217-.139-.13-.088-.194-.133-.139-.1-.206-.15-.122-.093-.182-.141-.142-.114-.211-.173l-.162-.141c-.081-.073-.158-.148-.235-.223-.043-.043-.087-.084-.128-.127-.135-.14-.263-.283-.382-.429-.06-.073-.115-.148-.17-.222-.028-.038-.058-.076-.085-.114-.081-.116-.158-.234-.227-.353a2.537,2.537,0,0,1-.266-2.56L7.33,10.249a2.54,2.54,0,0,0,.266,2.56c.07.119.146.236.227.353.027.038.058.076.086.115.049.066.1.133.149.2l.02.022c.119.146.247.289.382.429.011.011.02.023.031.034.03.032.065.061.1.092.077.076.155.151.236.224l.062.059c.032.028.067.054.1.082.069.059.139.117.21.173.029.023.055.047.084.07l.1.071c.068.051.136.1.206.15.033.023.064.048.1.071s.064.041.1.062c.072.048.144.094.217.139.036.023.071.048.108.07s.061.033.091.051c.08.047.161.092.242.137.041.022.08.046.12.067s.05.024.075.036c.1.053.205.1.309.15.042.019.082.042.124.06l.04.016c.18.079.36.151.542.216l.026.011c.053.018.106.032.159.05.091.03.183.061.275.087.066.019.132.035.2.052.088.023.177.046.265.065.019,0,.038.01.056.013s.063.009.1.015c.142.027.282.05.423.067.052.006.1.013.156.017a5.117,5.117,0,0,0,.536.027h.072c.054,0,.1-.008.156-.011.074,0,.149-.008.219-.016s.12-.017.179-.027.135-.021.2-.035l.04-.006c.087-.021.169-.044.25-.07L15,16.177c.048-.016.1-.032.142-.051s.071-.031.105-.047l.039-.017c.063-.031.125-.063.184-.1.012-.008.022-.017.035-.025.05-.031.1-.066.142-.1.027-.021.058-.038.083-.059.009-.007.015-.016.024-.023.04-.035.076-.073.113-.111s.053-.048.076-.074c.006-.007.01-.015.016-.022.035-.042.065-.086.095-.13.02-.029.044-.055.062-.085l.023-.038,1.123-1.96A1.465,1.465,0,0,1,17.178,13.459Z" fill="#32bedd"/>
      <path d="M17,10.776c1.16,1.982.246,3.605-2.038,3.625A7.912,7.912,0,0,1,8.72,10.849c-1.16-1.983-.246-3.605,2.039-3.625A7.913,7.913,0,0,1,17,10.776Z" fill="#50e6ff"/>
    </g>
  </g>
</svg>
