<svg id="uuid-23294b0b-8490-450d-8dc6-9004cb3f89c5" xmlns="http://www.w3.org/2000/svg" width="18" height="18" viewBox="0 0 18 18">
  <defs>
    <linearGradient id="uuid-b58ee44d-69de-4ab5-a4e8-7622c65ed526" x1="7.268" y1="18" x2="7.268" y2="0" gradientUnits="userSpaceOnUse">
      <stop offset="0" stop-color="#198ab3"/>
      <stop offset="1" stop-color="#32bedd"/>
    </linearGradient>
  </defs>
  <path d="m3.638,6.293v1.526c0,.211.171.381.381.381h1.526c.211,0,.381-.171.381-.381v-1.526c0-.211-.171-.381-.381-.381h-1.526c-.211,0-.381.171-.381.381Zm0-3.888v1.526c0,.211.171.381.381.381h1.526c.211,0,.381-.171.381-.381v-1.526c0-.211-.171-.381-.381-.381h-1.526c-.211,0-.381.171-.381.381Zm0,7.777v1.525c0,.211.171.381.381.381h1.526c.211,0,.381-.171.381-.381v-1.525c0-.211-.171-.381-.381-.381h-1.526c-.211,0-.381.171-.381.381Zm0,3.888v1.526c0,.211.171.381.381.381h1.526c.211,0,.381-.171.381-.381v-1.526c0-.211-.171-.381-.381-.381h-1.526c-.211,0-.381.171-.381.381Z" fill="#32bedd"/>
  <path d="m15.225,5.566v-1.032c0-.049-.04-.089-.089-.089,0,0,0,0,0,0h-6.941c-.049,0-.089-.04-.089-.09v-1.091c0-.049.04-.089.089-.09h6.941c.049,0,.089-.039.09-.088,0,0,0,0,0,0v-1.032c0-.049.039-.089.088-.09.024,0,.047.009.064.026l1.757,1.757c.035.034.036.09.002.125,0,0-.001.001-.002.002l-1.757,1.757c-.035.035-.091.035-.126,0-.017-.017-.027-.04-.026-.064Z" fill="#7fcb30"/>
  <path d="m15.225,9.853v-1.032c0-.049-.04-.089-.089-.089,0,0,0,0,0,0h-6.941c-.049,0-.089-.04-.089-.09v-1.091c0-.049.04-.089.089-.09h6.941c.049,0,.089-.039.09-.088,0,0,0,0,0,0v-1.032c0-.049.039-.089.088-.09.024,0,.047.009.064.026l1.757,1.757c.035.034.036.09.002.125,0,0-.001.001-.002.002l-1.757,1.757c-.035.035-.091.035-.126,0-.017-.017-.027-.04-.026-.064Z" fill="#7fcb30"/>
  <path d="m10.16,14.642c-.453,0-.821-.368-.821-.821s.368-.821.821-.821h5.065v1.14c0,.024.009.047.026.064.035.035.091.034.126,0l1.757-1.757s.001-.001.002-.002c.034-.035.033-.091-.002-.125l-1.757-1.757c-.017-.017-.04-.027-.064-.026-.049,0-.089.041-.088.09v1.14h-5.065c-1.133,0-2.054.922-2.054,2.054s.922,2.054,2.054,2.054h7.001v-1.233h-7.001Z" fill="#7fcb30"/>
  <path d="m12.838,16.701v.154c0,.158-.128.286-.286.286H1.983c-.158,0-.286-.128-.286-.286V1.144c0-.158.128-.286.286-.286h10.569c.158,0,.286.128.286.286v1.203h.858v-1.203c0-.631-.513-1.144-1.144-1.144H1.983C1.353,0,.839.513.839,1.144v15.712c0,.631.513,1.144,1.144,1.144h10.569c.631,0,1.144-.513,1.144-1.144v-.154h-.858Z" fill="url(#uuid-b58ee44d-69de-4ab5-a4e8-7622c65ed526)"/>
</svg>