<svg xmlns="http://www.w3.org/2000/svg" width="18" height="18" viewBox="0 0 18 18">
  <defs>
    <linearGradient id="a2d879e4-8d08-471d-a627-7f061548d40f" x1="7.842" y1="14.001" x2="7.842" y2="1.15" gradientUnits="userSpaceOnUse">
      <stop offset="0" stop-color="#773adc"/>
      <stop offset="0.998" stop-color="#a67af4"/>
    </linearGradient>
    <linearGradient id="f0306a3e-b0a4-4e40-ba9d-38da2c2e9293" x1="13.496" y1="16.85" x2="13.496" y2="8.093" gradientUnits="userSpaceOnUse">
      <stop offset="0" stop-color="#b31b1b"/>
      <stop offset="0.999" stop-color="#e62323"/>
    </linearGradient>
  </defs>
  <g id="e6510b92-788a-476e-a4d2-ca582e792e90">
    <g>
      <path d="M8.7,10.889a.97.97,0,0,1,.286-.69l2.238-2.238a.973.973,0,0,1,.69-.286h3.166a.972.972,0,0,1,.48.127V1.922a.839.839,0,0,0-.895-.77H1.021a.841.841,0,0,0-.895.77v9.331a.84.84,0,0,0,.895.77H5.5a.141.141,0,0,1,.15.128v1.584a.292.292,0,0,0,.06.149.3.3,0,0,0,.418.055l2.573-1.7Z" fill="url(#a2d879e4-8d08-471d-a627-7f061548d40f)"/>
      <path d="M11.093,5.313a1.019,1.019,0,1,1-1.019,1.019h0A1.019,1.019,0,0,1,11.093,5.313ZM6.824,6.346A1.019,1.019,0,1,0,7.843,5.322,1.019,1.019,0,0,0,6.824,6.346Zm-3.251,0A1.019,1.019,0,1,0,4.592,5.322,1.018,1.018,0,0,0,3.573,6.346Z" fill="#fff" opacity="0.8" style="isolation: isolate"/>
      <path d="M15.079,8.093H11.913a.558.558,0,0,0-.394.164L9.281,10.5a.554.554,0,0,0-.163.394v3.165a.554.554,0,0,0,.163.394l2.238,2.239a.561.561,0,0,0,.394.163h3.166a.561.561,0,0,0,.394-.163l2.238-2.239a.554.554,0,0,0,.163-.394V10.889a.554.554,0,0,0-.163-.394L15.473,8.257A.558.558,0,0,0,15.079,8.093Z" fill="url(#f0306a3e-b0a4-4e40-ba9d-38da2c2e9293)"/>
      <path d="M12.071,13.16v-.118c0-.886,0-1.773,0-2.659A.4.4,0,0,1,12.309,10a.381.381,0,0,1,.543.311q0,.8,0,1.6c0,.039,0,.079,0,.119,0,.058.012.122.081.123s.075-.068.075-.124q0-1.137,0-2.273a.406.406,0,0,1,.185-.347.392.392,0,0,1,.6.258c.009.112.025.224.025.337,0,.668,0,1.337,0,2.006,0,.054-.029.145.065.143s.059-.093.059-.146q0-.972,0-1.942a.409.409,0,0,1,.528-.384.429.429,0,0,1,.284.459c.007.491,0,.982,0,1.473,0,.147,0,.294,0,.441,0,.046,0,.1.063.1s.062-.058.062-.1c0-.429,0-.858,0-1.288a.388.388,0,0,1,.231-.356.325.325,0,0,1,.4.125.49.49,0,0,1,.086.277c0,1.025.007,2.049,0,3.073a1.21,1.21,0,0,1-.537,1.032,1.339,1.339,0,0,1-.761.253c-.482,0-.963,0-1.445,0a1.813,1.813,0,0,1-.394-.073,1.314,1.314,0,0,1-.485-.244,1.249,1.249,0,0,1-.373-.408c-.1-.173-.213-.335-.312-.508-.157-.275-.338-.537-.493-.815a1.437,1.437,0,0,1-.176-.339.51.51,0,0,1,.235-.539.484.484,0,0,1,.559.025.725.725,0,0,1,.205.244c.133.223.271.442.42.654Z" fill="#fff"/>
    </g>
  </g>
</svg>
