<svg xmlns="http://www.w3.org/2000/svg" viewBox="0 0 18 18">
  <defs>
    <linearGradient id="fa59e403-f854-435f-829a-2a19c768079c" x1="0.48" y1="14.562" x2="5.375" y2="14.562" gradientUnits="userSpaceOnUse">
      <stop offset="0" stop-color="#50e6ff" />
      <stop offset="0.999" stop-color="#32bedd" />
    </linearGradient>
    <linearGradient id="f9801fa1-5073-434a-8a2c-6bba6507d2dd" x1="10.128" y1="9.168" x2="17.52" y2="9.168" gradientUnits="userSpaceOnUse">
      <stop offset="0" stop-color="#50e6ff" />
      <stop offset="0.999" stop-color="#32bedd" />
    </linearGradient>
  </defs>
  <g id="abd47d01-d14b-4ca2-84b9-ab8fc91f9755">
    <g>
      <path d="M4.364,16.5c-1.068-.03-2.493-.89-2.493-1.944A1.942,1.942,0,0,1,3.24,12.71l.446-.011.709-1.486-.514.006H3.818a3.323,3.323,0,0,0-1.342.284l-.01,0,0,0A3.343,3.343,0,0,0,.48,14.559c0,1.84,2.1,3.338,3.942,3.338.3,0,.881.129.953-.384l-.35-.558C4.766,16.8,4.433,16.913,4.364,16.5Z" fill="url(#fa59e403-f854-435f-829a-2a19c768079c)" />
      <path d="M14.182,5.8a.7.7,0,1,0,0,1.391,1.948,1.948,0,1,1-.009,3.895l-3.378.042-.667,1.4,4.054-.051a3.339,3.339,0,0,0,0-6.677Z" fill="url(#f9801fa1-5073-434a-8a2c-6bba6507d2dd)" />
    </g>
    <polygon points="5.375 17.513 4.112 16.904 4.227 14.96 6.74 16.174 5.375 17.513" fill="#32bedd" />
    <path d="M6.39,16.069,4.548,15.18a1,1,0,0,1-.608-1.259L10.242.71A.993.993,0,0,1,11.6.4l1.842.889a1.006,1.006,0,0,1,.608,1.259l-6.3,13.211A.992.992,0,0,1,6.39,16.069Z" fill="#c3f1ff" />
    <path d="M6.71,6.389a.251.251,0,0,1-.152-.315L9.234.464a1.243,1.243,0,0,1,1.7-.387l.719.347A.25.25,0,0,1,11.8.738a.248.248,0,0,1-.339.078L10.742.469A.746.746,0,0,0,9.725.7L7.049,6.311A.248.248,0,0,1,6.71,6.389Z" fill="#50e6ff" />
    <polygon points="4.681 17.683 4.363 17.529 4.392 17.039 5.025 17.345 4.681 17.683" fill="#c3f1ff" />
    <path d="M8.984,8.23,12.509.84,11.6.4a.993.993,0,0,0-1.356.31L7.091,7.316Z" fill="#50e6ff" />
    <path d="M9.006,8.24,5.481,15.63l.911.44a.993.993,0,0,0,1.356-.31L10.9,9.154Z" fill="#9cebff" />
    <path d="M10.909,9.159,14.06,2.553A1,1,0,0,0,13.452,1.3L12.521.846,9,8.235Z" fill="#32bedd" />
  </g>
</svg>