<svg xmlns="http://www.w3.org/2000/svg" viewBox="0 0 18 18">
  <defs>
    <linearGradient id="a136bf14-bf6d-4de3-a901-17dc00779aeb" x1="-794.332" y1="1199.28" x2="-800.156" y2="1193.456" gradientTransform="translate(-1400.924 287.57) rotate(-134.955)" gradientUnits="userSpaceOnUse">
      <stop offset="0" stop-color="#5ea0ef" />
      <stop offset="1" stop-color="#0078d4" />
    </linearGradient>
  </defs>
  <path d="M0,7.146.011,10.5a.578.578,0,0,0,.176.43l3.238,2.8a.77.77,0,0,0,.409.169l13.581.039A.588.588,0,0,0,18,13.348l-.014-8.635a.6.6,0,0,0-.591-.592L3.785,4.068a.89.89,0,0,0-.38.141L.205,6.7A.569.569,0,0,0,0,7.146Zm3.134.925a1.076,1.076,0,1,1-1.522,0l.007-.007a1.067,1.067,0,0,1,1.508,0Z" fill="url(#a136bf14-bf6d-4de3-a901-17dc00779aeb)" />
  <path d="M1.279,9.921a1.554,1.554,0,1,0,0-2.2A1.554,1.554,0,0,0,1.279,9.921ZM1.893,8.1a.874.874,0,1,1-.241.241A.891.891,0,0,1,1.893,8.1Z" fill="#005ba1" />
  <path d="M15.762,6.978H10.476a.522.522,0,1,0,0,1.044h5.338a.522.522,0,1,0,0-1.044Z" fill="#fff" opacity="0.6" />
  <path d="M6.74,8.787a.245.245,0,0,0,.347,0l2.1-2.1a.245.245,0,0,0,0-.347l-.163-.163a.246.246,0,0,0-.346,0L6.914,7.936,6.307,7.33a.249.249,0,0,0-.346,0L5.8,7.5a.246.246,0,0,0,0,.346Z" fill="#fff" opacity="0.8" />
  <path d="M15.788,10.016H10.5a.522.522,0,0,0,0,1.044h5.338a.522.522,0,1,0,0-1.044Z" fill="#fff" opacity="0.6" />
  <path d="M6.767,11.825a.244.244,0,0,0,.346,0l2.1-2.1a.247.247,0,0,0,0-.347l-.164-.163a.245.245,0,0,0-.346,0L6.94,10.974l-.606-.607a.251.251,0,0,0-.346,0l-.166.166a.245.245,0,0,0,0,.347Z" fill="#fff" opacity="0.8" />
</svg>