<svg xmlns="http://www.w3.org/2000/svg" viewBox="0 0 16 16">
  <path d="M10.2,2.3l1.9,1a12.094,12.094,0,0,1,1.6,1.6,6.6,6.6,0,0,1,.9,1.9A5.709,5.709,0,0,1,15,9a12.233,12.233,0,0,1-.2,1.9,7.976,7.976,0,0,1-.8,1.6,3.809,3.809,0,0,1-1.1,1.4A3.809,3.809,0,0,1,11.5,15l-1.6.8L8,16l-1.9-.2L4.5,15a3.809,3.809,0,0,1-1.4-1.1A3.809,3.809,0,0,1,2,12.5a4.61,4.61,0,0,1-.7-1.6A6.283,6.283,0,0,1,1,9a5.709,5.709,0,0,1,.4-2.2,6.6,6.6,0,0,1,.9-1.9A12.094,12.094,0,0,1,3.9,3.3l1.9-1,.4,1a4.608,4.608,0,0,0-1.7.9A5.7,5.7,0,0,0,3.1,5.5a7.976,7.976,0,0,0-.8,1.6A5.811,5.811,0,0,0,2,9a7.767,7.767,0,0,0,.2,1.6L2.8,12a3.989,3.989,0,0,0,1,1.2,3.989,3.989,0,0,0,1.2,1l1.4.6L8,15l1.6-.2,1.4-.6a3.989,3.989,0,0,0,1.2-1,3.989,3.989,0,0,0,1-1.2l.6-1.4A7.767,7.767,0,0,0,14,9a5.811,5.811,0,0,0-.3-1.9,7.976,7.976,0,0,0-.8-1.6,5.7,5.7,0,0,0-1.4-1.3,4.608,4.608,0,0,0-1.7-.9ZM8.5,8h-1V0h1Z" />
</svg>