<svg xmlns="http://www.w3.org/2000/svg" viewBox="0 0 18 18">
  <g id="ac68f893-d1e3-45ac-82d7-8943722d3ccb">
    <g>
      <path d="M18,13.25v-.88a1.441,1.441,0,0,0-.112-.548,1.489,1.489,0,0,0-.293-.445,1.381,1.381,0,0,0-.443-.309,1.446,1.446,0,0,0-.507-.118,2.953,2.953,0,0,0-.283-.486,1.6,1.6,0,0,0,.384-.153A1.289,1.289,0,0,0,17.118,10a1.563,1.563,0,0,0,.245-.422,1.372,1.372,0,0,0,.089-.492V8.2h-.663v.879a.755.755,0,0,1-.223.542.766.766,0,0,1-.541.223h-.273c-.057-.042-.115-.081-.172-.116s-.106-.062-.165-.092a1.479,1.479,0,0,0,.084-.248,1.38,1.38,0,0,0-.086-.874l.612-.612-.467-.466-.547.547a1.5,1.5,0,0,0-.4-.237,1.375,1.375,0,0,0-.506-.094,1.444,1.444,0,0,0-.508.1,1.538,1.538,0,0,0-.4.233l-.547-.547-.466.466.611.612a1.392,1.392,0,0,0-.121.567,1.585,1.585,0,0,0,.04.311,1.5,1.5,0,0,0,.08.243,2.711,2.711,0,0,0-.338.209H12.19a.762.762,0,0,1-.765-.765V8.2h-.663v.88a1.49,1.49,0,0,0,.089.5,1.414,1.414,0,0,0,1,.887,2.909,2.909,0,0,0-.282.485,1.584,1.584,0,0,0-.507.122,1.389,1.389,0,0,0-.442.3,1.435,1.435,0,0,0-.3.451,1.4,1.4,0,0,0-.108.544v.879h.663v-.879a.7.7,0,0,1,.043-.245.937.937,0,0,1,.118-.218.633.633,0,0,1,.173-.165.831.831,0,0,1,.135-.072c-.009.055-.017.109-.023.163-.008.087-.013.176-.013.263v1.1a.333.333,0,0,0,0,.046,1.829,1.829,0,0,0-.41.608,1.9,1.9,0,0,0-.141.72,1.924,1.924,0,0,0,.146.72,1.868,1.868,0,0,0,.406.6l.041.04.466-.466-.04-.04a1.252,1.252,0,0,1-.262-.393,1.214,1.214,0,0,1-.019-.868,3.006,3.006,0,0,0,.347.657,2.623,2.623,0,0,0,.608.622,2.928,2.928,0,0,0,.773.4,2.752,2.752,0,0,0,1.763,0,2.945,2.945,0,0,0,.768-.4,2.713,2.713,0,0,0,.612-.621,2.746,2.746,0,0,0,.344-.655,1.225,1.225,0,0,1-.02.869,1.17,1.17,0,0,1-.261.388l-.041.041.467.466.04-.041a1.9,1.9,0,0,0,.406-.609,1.847,1.847,0,0,0,.142-.715,1.879,1.879,0,0,0-.142-.72,1.848,1.848,0,0,0-.4-.608c0-.014,0-.03,0-.046V12.1c0-.09-.009-.178-.017-.265-.006-.053-.013-.105-.021-.157a.96.96,0,0,1,.138.074.739.739,0,0,1,.178.166.762.762,0,0,1,.115.216.715.715,0,0,1,.04.242v.879ZM13.4,8.785a.772.772,0,0,1,.164-.243.772.772,0,0,1,.839-.164.76.76,0,0,1,.407.407.748.748,0,0,1,.06.3A.687.687,0,0,1,14.8,9.4a2.987,2.987,0,0,0-.323-.066,2.466,2.466,0,0,0-.369-.026h0a3.13,3.13,0,0,0-.371.03c-.1.016-.212.037-.318.063a.688.688,0,0,1-.074-.319A.762.762,0,0,1,13.4,8.785Zm2.84,4.408a2.039,2.039,0,0,1-.171.828,2.275,2.275,0,0,1-.459.681,2.113,2.113,0,0,1-.676.459,2.091,2.091,0,0,1-.829.166,2.05,2.05,0,0,1-.829-.17,2.286,2.286,0,0,1-.68-.46,2.1,2.1,0,0,1-.458-.675,2.078,2.078,0,0,1-.167-.829V12.1a1.928,1.928,0,0,1,.17-.819,2.347,2.347,0,0,1,.464-.681,2.174,2.174,0,0,1,.676-.463,2.079,2.079,0,0,1,1.649,0,2.161,2.161,0,0,1,.68.462,2.294,2.294,0,0,1,.459.681,2.025,2.025,0,0,1,.171.82Z" />
      <path d="M.848,12.184V3.706H3.994l.848-.848H8.723l.848.848h3.146V6.488a2.585,2.585,0,0,1,.848-.055V2.858H9.929L9.081,2.01h-4.6l-.848.848H0V13.032H9.1a2.654,2.654,0,0,1,.037-.848Z" />
      <path d="M9.18,5.541A3.469,3.469,0,0,0,8.1,4.819a3.3,3.3,0,0,0-1.318-.265,3.375,3.375,0,0,0-2.405.993,3.5,3.5,0,0,0-.722,1.08,3.312,3.312,0,0,0-.265,1.318,3.366,3.366,0,0,0,.994,2.4,3.462,3.462,0,0,0,1.08.722,3.291,3.291,0,0,0,1.318.265,3.375,3.375,0,0,0,2.4-.993,3.48,3.48,0,0,0,.722-1.08,3.3,3.3,0,0,0,.265-1.318,3.366,3.366,0,0,0-.994-2.4ZM9.121,8.932a2.671,2.671,0,0,1-.543.808,2.511,2.511,0,0,1-2.782.543,2.635,2.635,0,0,1-.808-.543,2.5,2.5,0,0,1-.55-.808,2.469,2.469,0,0,1-.2-.987,2.55,2.55,0,0,1,.205-.987,2.656,2.656,0,0,1,.544-.808,2.505,2.505,0,0,1,1.8-.749,2.533,2.533,0,0,1,.987.206,2.647,2.647,0,0,1,.808.543,2.494,2.494,0,0,1,.549.808,2.469,2.469,0,0,1,.2.987A2.532,2.532,0,0,1,9.121,8.932Z" />
    </g>
  </g>
</svg>