<svg xmlns="http://www.w3.org/2000/svg" width="18" height="18" viewBox="0 0 18 18">
  <defs>
    <linearGradient id="e6770bef-f874-4cfe-94ee-b13ec807aa0a" x1="9" y1="15.574" x2="9" y2="2.426" gradientUnits="userSpaceOnUse">
      <stop offset="0.001" stop-color="#773adc"/>
      <stop offset="1" stop-color="#a67af4"/>
    </linearGradient>
    <linearGradient id="b41c2740-bbb5-43c7-b8a7-6cc8f8658c50" x1="13.928" y1="786.462" x2="13.928" y2="777.173" gradientTransform="matrix(1, 0, 0, -1, 0, 791.516)" gradientUnits="userSpaceOnUse">
      <stop offset="0" stop-color="#9cebff"/>
      <stop offset="1" stop-color="#50e6ff"/>
    </linearGradient>
  </defs>
  <g id="aee7216a-d528-45e7-bceb-bf00a16717c3">
    <g>
      <rect y="2.426" width="18" height="13.148" rx="0.594" fill="url(#e6770bef-f874-4cfe-94ee-b13ec807aa0a)"/>
      <g>
        <path d="M4.211,6.342H3.648a.282.282,0,0,1,0-.563h.563a.282.282,0,0,1,0,.563Z" fill="#341a6e"/>
        <path d="M12.4,13.609H11.274a.282.282,0,1,1,0-.563H12.4a.282.282,0,1,1,0,.563Zm-2.252,0H9.021a.282.282,0,0,1,0-.563h1.127a.282.282,0,0,1,0,.563Zm-2.253,0H6.769a.282.282,0,0,1,0-.563H7.9a.282.282,0,1,1,0,.563Zm-2.252,0H5.349a1.987,1.987,0,0,1-.932-.233.281.281,0,1,1,.265-.5,1.429,1.429,0,0,0,.667.166h.294a.282.282,0,0,1,0,.563ZM3.8,12.6a.282.282,0,0,1-.258-.167,1.967,1.967,0,0,1-.171-.808,2,2,0,0,1,.057-.475.281.281,0,1,1,.546.135,1.381,1.381,0,0,0-.04.34,1.419,1.419,0,0,0,.122.579.28.28,0,0,1-.142.371A.273.273,0,0,1,3.8,12.6Zm.5-2.03a.282.282,0,0,1-.174-.5,1.969,1.969,0,0,1,1.216-.425h0a.282.282,0,0,1,0,.563,1.408,1.408,0,0,0-.871.3A.278.278,0,0,1,4.3,10.571Zm3.3-.365H6.467a.282.282,0,1,1,0-.563H7.593a.282.282,0,0,1,0,.563Zm1.11-.123a.281.281,0,0,1-.1-.542,1.435,1.435,0,0,0,.7-.606.281.281,0,1,1,.486.283,2,2,0,0,1-.972.845A.306.306,0,0,1,8.7,10.083Zm1.064-1.81a.281.281,0,0,1-.281-.282V7.762a1.419,1.419,0,0,0-.193-.714.282.282,0,0,1,.487-.284,1.973,1.973,0,0,1,.268,1v.229A.281.281,0,0,1,9.767,8.273ZM8.7,6.465a.281.281,0,0,1-.1-.021,1.423,1.423,0,0,0-.529-.1H7.59a.282.282,0,1,1,0-.563h.476a1.964,1.964,0,0,1,.739.143.282.282,0,0,1-.105.543ZM6.463,6.342H5.337a.282.282,0,0,1,0-.563H6.463a.282.282,0,1,1,0,.563Z" fill="#341a6e"/>
        <path d="M14.1,13.609h-.563a.282.282,0,0,1,0-.563H14.1a.282.282,0,1,1,0,.563Z" fill="#341a6e"/>
      </g>
      <circle cx="3.728" cy="5.902" r="2.188" fill="#50e6ff"/>
      <path d="M13.928,5.054a2.823,2.823,0,0,0-2.736,2.907l0,.039c0,1.285,1.631,4.3,2.374,6.1a.388.388,0,0,0,.719,0c.742-1.818,2.376-4.855,2.376-6.1A2.857,2.857,0,0,0,13.928,5.054Zm0,3.991A1.216,1.216,0,1,1,15.144,7.83h0A1.215,1.215,0,0,1,13.928,9.045Z" fill="url(#b41c2740-bbb5-43c7-b8a7-6cc8f8658c50)"/>
    </g>
  </g>
</svg>
