<svg xmlns="http://www.w3.org/2000/svg" width="18" height="18" viewBox="0 0 18 18">
  <defs>
    <linearGradient id="b56eb331-da25-476f-94d6-526350d2d36f" x1="9.004" y1="791.492" x2="9.004" y2="773.659" gradientTransform="matrix(1, 0, 0, -1, 0, 791.516)" gradientUnits="userSpaceOnUse">
      <stop offset="0" stop-color="#5ea0ef"/>
      <stop offset="1" stop-color="#0078d4"/>
    </linearGradient>
    <linearGradient id="a9c92c89-367f-4801-b17a-654069f296d2" x1="9" y1="791.575" x2="9" y2="781.849" gradientTransform="matrix(1, 0, 0, -1, 0, 791.516)" gradientUnits="userSpaceOnUse">
      <stop offset="0" stop-color="#5ea0ef"/>
      <stop offset="1" stop-color="#0078d4"/>
    </linearGradient>
  </defs>
  <polygon points="16.256 5.432 8.999 1.244 1.744 5.432 1.744 13.812 8.999 18 16.265 13.812 16.256 5.432" fill="url(#b56eb331-da25-476f-94d6-526350d2d36f)"/>
  <polygon points="9.009 1.239 1.744 5.433 9.009 9.628 16.256 5.431 9.009 1.239" fill="url(#a9c92c89-367f-4801-b17a-654069f296d2)"/>
  <polygon points="8.999 9.622 8.999 17.994 1.741 13.809 1.741 5.431 8.999 9.622" fill="#0078d4"/>
  <path d="M1.743,5.427,9,9.621l-1.722,3.6L.017,9.109S1.74,5.461,1.743,5.427Z" fill="#5ea0ef"/>
  <path d="M16.258,5.431,9,9.625l1.723,3.6,7.26-4.1S16.261,5.464,16.258,5.431Z" fill="#5ea0ef"/>
  <path d="M6.191,4.12a.247.247,0,0,0-.178.42L8.931,7.494a.333.333,0,0,0,.47,0h0L12.319,4.54a.247.247,0,0,0,0-.349.25.25,0,0,0-.175-.071l-2.092.021V.182A.182.182,0,0,0,9.867,0L8.474,0A.181.181,0,0,0,8.3.184V4.141Z" fill="#c3f1ff"/>
  <polygon points="7.934 0.05 7.933 0.051 7.934 0.05 7.934 0.05" fill="#42e8ca"/>
</svg>
