<svg id="uuid-8e76739c-0ec9-43e9-8b3b-d3e0498b5a6d" xmlns="http://www.w3.org/2000/svg" width="18" height="18" viewBox="0 0 18 18">
  <defs>
    <linearGradient id="uuid-267e1bcf-3cf7-4491-83c2-f9eacdbd4045" x1="9.05" y1="12.192" x2="9.05" y2="5.913" gradientTransform="matrix(1, 0, 0, 1, 0, 0)" gradientUnits="userSpaceOnUse">
      <stop offset="0" stop-color="#32bedd"/>
      <stop offset="1" stop-color="#50e6ff"/>
    </linearGradient>
  </defs>
  <g>
    <path d="M3.6,.001H.6C.28-.01,.011,.241,0,.561c0,.01,0,.02,0,.03V3.591C0,3.751,.13,3.881,.29,3.881h.33c.16,.006,.294-.12,.3-.28V.881H3.6c.16,.006,.294-.12,.3-.28V.301c.006-.16-.119-.294-.279-.3-.007,0-.014,0-.02,0Z" fill="#949494"/>
    <path d="M17.37,.001h-3c-.166,0-.3,.134-.3,.3h0v.32c.02,.15,.149,.261,.3,.26h2.69V3.581c-.006,.16,.119,.295,.279,.3,.01,0,.021,0,.031,0h.33c.16,.006,.294-.12,.3-.28V.591h0C18.001,.265,17.737,0,17.411,0c-.014,0-.028,0-.041,.001Z" fill="#949494"/>
    <path d="M3.6,17.09H.92v-2.7c0-.16-.13-.29-.29-.29H.29c-.16,0-.29,.13-.29,.29v3H0c-.006,.32,.25,.584,.57,.59H3.58c.16,.006,.294-.12,.3-.28v-.33c-.01-.15-.129-.27-.28-.28Z" fill="#949494"/>
    <path d="M17.66,14.1h-.29c-.16,0-.29,.13-.29,.29h0v2.7h-2.71c-.163,.005-.295,.137-.3,.3v.32c.005,.162,.138,.29,.3,.29h3c.326,0,.59-.264,.59-.59h0v-3c.011-.16-.109-.298-.269-.309-.01,0-.021,0-.031,0Z" fill="#949494"/>
  </g>
  <g>
    <path d="M9.462,8.5c-.055,0-.111-.014-.162-.044-.155-.089-.208-.288-.118-.442l2.92-5.039c.089-.154,.286-.209,.442-.118,.155,.089,.208,.288,.118,.442l-2.92,5.039c-.06,.104-.168,.162-.28,.162Z" fill="#83b9f9"/>
    <path d="M8.675,9.269c-.083,0-.166-.032-.229-.096l-3.533-3.55c-.126-.126-.125-.332,.001-.458,.126-.125,.331-.126,.458,.001l3.533,3.55c.126,.126,.125,.332-.001,.458-.063,.062-.146,.094-.228,.094Z" fill="#83b9f9"/>
    <path d="M14.851,10.01c-.015,0-.031,0-.046-.003l-5.045-.718c-.177-.025-.3-.189-.275-.366s.192-.304,.366-.275l5.045,.718c.177,.025,.3,.189,.275,.366-.023,.162-.162,.278-.32,.278Z" fill="#83b9f9"/>
    <path d="M10.343,15.338c-.149,0-.284-.104-.316-.257l-.881-4.179c-.037-.175,.075-.347,.25-.383,.169-.039,.347,.074,.383,.25l.881,4.179c.037,.175-.075,.347-.25,.383-.022,.005-.045,.007-.067,.007Z" fill="#83b9f9"/>
    <path d="M3.032,11.337c-.135,0-.261-.085-.307-.22-.057-.169,.034-.353,.203-.41l4.851-1.635c.173-.057,.354,.035,.41,.203,.057,.169-.034,.353-.203,.41l-4.851,1.635c-.035,.012-.069,.017-.104,.017Z" fill="#83b9f9"/>
    <path d="M15.842,9.662c0,.548-.444,.992-.992,.992s-.992-.444-.992-.992,.444-.992,.992-.992h.002c.547,.001,.989,.445,.989,.992Z" fill="#a67af4"/>
    <path d="M11.335,14.965c0,.548-.444,.992-.992,.992s-.992-.444-.992-.992,.444-.992,.992-.992h.002c.547,.001,.989,.445,.989,.992Z" fill="#a67af4"/>
    <g>
      <circle cx="9.05" cy="9.053" r="3.139" fill="url(#uuid-267e1bcf-3cf7-4491-83c2-f9eacdbd4045)"/>
      <g>
        <path d="M8.728,10.105l-.288,.288c-.049,.049-.129,.049-.178,0h0l-1.145-1.146c-.049-.049-.049-.129,0-.178h0l.199-.199c.049-.049,.129-.049,.178,0h0l1.234,1.234h0Z" fill="#fff"/>
        <path d="M8.268,10.396l-.288-.288h0l2.634-2.635c.049-.049,.129-.049,.178,0h0l.199,.199c.049,.049,.049,.129,0,.178h0l-2.545,2.546c-.049,.049-.129,.049-.178,0h0Z" fill="#f0f0f0"/>
      </g>
    </g>
    <path d="M6.197,5.395c0,.548-.444,.992-.992,.992s-.992-.444-.992-.992,.444-.992,.992-.992h.002c.547,.001,.989,.445,.989,.992Z" fill="#a67af4"/>
    <path d="M13.391,3.153c0,.548-.444,.992-.992,.992s-.992-.444-.992-.992,.444-.992,.992-.992h.002c.547,.001,.989,.445,.989,.992Z" fill="#a67af4"/>
    <path d="M4.024,11.045c0,.548-.444,.992-.992,.992s-.992-.444-.992-.992,.444-.992,.992-.992h.002c.547,.001,.989,.445,.989,.992Z" fill="#a67af4"/>
  </g>
</svg>