<svg xmlns="http://www.w3.org/2000/svg" width="18" height="18" viewBox="0 0 18 18">
  <defs>
    <linearGradient id="aed07c62-569a-4da4-8648-7caa4ad496a2" x1="-0.02" y1="18.022" x2="3.711" y2="14.291" gradientUnits="userSpaceOnUse">
      <stop offset="0" stop-color="#a67af4"/>
      <stop offset="0.999" stop-color="#773adc"/>
    </linearGradient>
    <linearGradient id="f294ac4e-cb78-4697-807e-1bf1c7f695c0" x1="2.804" y1="12.035" x2="16.324" y2="12.035" gradientUnits="userSpaceOnUse">
      <stop offset="0" stop-color="#50e6ff"/>
      <stop offset="1" stop-color="#32bedd"/>
    </linearGradient>
    <linearGradient id="a3af8c52-2485-41fd-b2c8-40406df0323b" x1="7.573" y1="5.965" x2="21.092" y2="5.965" gradientUnits="userSpaceOnUse">
      <stop offset="0" stop-color="#50e6ff"/>
      <stop offset="1" stop-color="#32bedd"/>
    </linearGradient>
    <linearGradient id="b843e7d9-1df4-4e81-a13c-2d48c7218cc0" x1="-1331.297" y1="402.736" x2="-1327.566" y2="399.005" gradientTransform="translate(-1313.277 402.713) rotate(180)" gradientUnits="userSpaceOnUse">
      <stop offset="0" stop-color="#50e6ff"/>
      <stop offset="1" stop-color="#32bedd"/>
    </linearGradient>
  </defs>
  <g id="a5eb0881-f13c-4455-a001-e255c15fcb49">
    <g>
      <path d="M4.738,16.418a.339.339,0,0,1,0,.473l-.4.4v0a.341.341,0,0,1-.473,0L2.679,16.1.936,17.847a.292.292,0,0,1-.4,0L.084,17.4a.281.281,0,0,1,0-.4l1.744-1.744L.711,14.134a.326.326,0,0,1,0-.468l.4-.4a.329.329,0,0,1,.469,0l.412.413.566-.566,2.325,2.325L4.318,16Z" fill="url(#aed07c62-569a-4da4-8648-7caa4ad496a2)"/>
      <path d="M10.254,13.249l-.54.544a.338.338,0,0,1-.472,0L9.148,13.7,6.621,16.227a.668.668,0,0,1-.942,0l-.795-.791L2.559,13.111l-.787-.788a.667.667,0,0,1,0-.941L4.3,8.851l-.094-.094a.329.329,0,0,1,0-.469l.544-.544a.336.336,0,0,1,.469,0L6.246,8.768l.742.746,1.478,1.474.727.728,1.061,1.065A.326.326,0,0,1,10.254,13.249Z" fill="url(#f294ac4e-cb78-4697-807e-1bf1c7f695c0)"/>
      <path d="M10.749,10.156l-1.556,1.56-.727-.728,1.556-1.56a.336.336,0,0,1,.236-.094.324.324,0,0,1,.233.094l.258.259A.327.327,0,0,1,10.749,10.156Zm-2.2-2.67-.277-.278a.333.333,0,0,0-.469,0L6.246,8.768l.742.746,1.56-1.56A.328.328,0,0,0,8.548,7.486Z" fill="#32bedd"/>
      <path d="M16.228,6.619,13.7,9.151l.094.093a.329.329,0,0,1,0,.469l-.54.544a.341.341,0,0,1-.473,0L7.746,5.221a.327.327,0,0,1,0-.469l.543-.544a.336.336,0,0,1,.469,0l.094.094,2.531-2.531a.663.663,0,0,1,.938,0l3.907,3.907A.667.667,0,0,1,16.228,6.619Z" fill="url(#a3af8c52-2485-41fd-b2c8-40406df0323b)"/>
      <path d="M13.262,1.582a.339.339,0,0,1,0-.473l.4-.4v0a.341.341,0,0,1,.473,0L15.321,1.9,17.064.153a.292.292,0,0,1,.405,0l.447.45a.281.281,0,0,1,0,.4L16.172,2.748l1.117,1.118a.326.326,0,0,1,0,.468l-.4.4a.329.329,0,0,1-.469,0l-.412-.413-.566.566L13.116,2.564,13.682,2Z" fill="url(#b843e7d9-1df4-4e81-a13c-2d48c7218cc0)"/>
    </g>
  </g>
</svg>
