<svg xmlns="http://www.w3.org/2000/svg" width="18" height="18" viewBox="0 0 18 18">
  <defs>
    <linearGradient id="bc61d6b2-d190-47bc-be8d-deebc631e3eb" x1="-2654.405" y1="434.436" x2="-2661.437" y2="434.436" gradientTransform="translate(441.564 2666.79) rotate(90)" gradientUnits="userSpaceOnUse">
      <stop offset="0" stop-color="#1b93eb"/>
      <stop offset="1" stop-color="#6bb9f2"/>
    </linearGradient>
  </defs>
  <path d="M5.991,1.581H7.255V5.113a.28.28,0,0,1-.28.28H5.711a.28.28,0,0,1-.28-.28h0V2.141A.559.559,0,0,1,5.991,1.581Z" fill="#999"/>
  <path d="M5.991,1.581H7.255V5.113a.28.28,0,0,1-.28.28H5.711a.28.28,0,0,1-.28-.28h0V2.141A.559.559,0,0,1,5.991,1.581Z" fill="#999" opacity="0.5"/>
  <path d="M16.175,1.581H17.44a.56.56,0,0,1,.56.56h0V14.318a.28.28,0,0,1-.28.28H16.456a.28.28,0,0,1-.281-.28h0V1.581Z" fill="#999"/>
  <path d="M16.175,1.581H17.44a.56.56,0,0,1,.56.56h0V14.318a.28.28,0,0,1-.28.28H16.456a.28.28,0,0,1-.281-.28h0V1.581Z" fill="#999" opacity="0.5"/>
  <path d="M18,2.136V3.363H5.431V2.136a.554.554,0,0,1,.555-.555H17.441A.554.554,0,0,1,18,2.132Z" fill="#949494"/>
  <path d="M5.711,12.606H6.976a.28.28,0,0,1,.28.28h0v3.532H5.991a.559.559,0,0,1-.56-.56h0V12.886a.28.28,0,0,1,.28-.28Z" fill="#999"/>
  <path d="M5.711,12.606H6.976a.28.28,0,0,1,.28.28h0v3.532H5.991a.559.559,0,0,1-.56-.56h0V12.886a.28.28,0,0,1,.28-.28Z" fill="#999" opacity="0.5"/>
  <path d="M16.456,12.606H17.72a.28.28,0,0,1,.28.28h0v2.973a.56.56,0,0,1-.56.56H16.175V12.886a.28.28,0,0,1,.281-.28Z" fill="#999"/>
  <path d="M16.456,12.606H17.72a.28.28,0,0,1,.28.28h0v2.973a.56.56,0,0,1-.56.56H16.175V12.886a.28.28,0,0,1,.281-.28Z" fill="#999" opacity="0.5"/>
  <path d="M5.431,15.863V14.636H18v1.227a.555.555,0,0,1-.555.555H5.986a.554.554,0,0,1-.555-.555Z" fill="#949494"/>
  <path d="M3.428,5.353a.169.169,0,0,1,.17.169V7.489h0a.17.17,0,0,0,.17.17H14.121a.134.134,0,0,1,.135.135v2.15a.134.134,0,0,1-.136.133H3.767a.171.171,0,0,0-.169.171v1.965a.164.164,0,0,1-.05.122.17.17,0,0,1-.24,0l-3.2-3.2h0a.381.381,0,0,1,0-.538l3.2-3.2A.171.171,0,0,1,3.428,5.353Z" fill="url(#bc61d6b2-d190-47bc-be8d-deebc631e3eb)"/>
</svg>
