<svg xmlns="http://www.w3.org/2000/svg" width="18" height="18" viewBox="0 0 18 18">
  <defs>
    <radialGradient id="ae3514e3-b89c-4718-9b83-1b94c27c74e0" cx="307" cy="395" r="9" gradientTransform="matrix(1, 0, 0, -1, -298, 404)" gradientUnits="userSpaceOnUse">
      <stop offset="0" stop-color="#198ab3"/>
      <stop offset="1" stop-color="#32d4f5"/>
    </radialGradient>
    <linearGradient id="f7c05091-4144-46a3-907c-268b09391477" x1="9" y1="16.828" x2="9" y2="1.172" gradientUnits="userSpaceOnUse">
      <stop offset="0" stop-color="#005ba1"/>
      <stop offset="1" stop-color="#0078d4"/>
    </linearGradient>
  </defs>
  <g id="a7999cec-b815-490f-bfc2-ee77e43aa669">
    <g>
      <circle cx="9" cy="9" r="9" fill="url(#ae3514e3-b89c-4718-9b83-1b94c27c74e0)"/>
      <circle cx="9" cy="9" r="7.828" fill="url(#f7c05091-4144-46a3-907c-268b09391477)"/>
      <path d="M9.011,10.537A1.543,1.543,0,1,1,9.02,7.452a1.581,1.581,0,0,1,1.515,1.512A1.538,1.538,0,0,1,9.011,10.537Zm2.918-2.691a1.154,1.154,0,0,0-.05,2.3,1.1,1.1,0,0,0,1.1-1.136A1.141,1.141,0,0,0,11.929,7.846Zm-5.89,2.3A1.1,1.1,0,0,0,7.124,9.025a1.147,1.147,0,0,0-1.037-1.18A1.123,1.123,0,0,0,5.01,8.978,1.087,1.087,0,0,0,6.039,10.144Zm4.1-3.953A1.079,1.079,0,0,0,8.954,5.149a1.046,1.046,0,1,0,.075,2.083A1.107,1.107,0,0,0,10.141,6.191Zm-2.288,5.65A1.144,1.144,0,1,0,9,10.754,1.084,1.084,0,0,0,7.853,11.841ZM6.011,10.678a.845.845,0,0,0-.884.857A1.237,1.237,0,0,0,6.3,12.741a.821.821,0,0,0,.864-.868A1.171,1.171,0,0,0,6.011,10.678ZM11.68,5.245a.876.876,0,0,0-.885.868,1.225,1.225,0,0,0,1.179,1.193.794.794,0,0,0,.867-.853A1.226,1.226,0,0,0,11.68,5.245Zm.3,5.439a1.254,1.254,0,0,0-1.19,1.193.865.865,0,0,0,.877.872,1.181,1.181,0,0,0,1.17-1.186A.835.835,0,0,0,11.983,10.684ZM6.366,5.264A1.184,1.184,0,0,0,5.154,6.441.8.8,0,0,0,6,7.312,1.178,1.178,0,0,0,7.167,6.14.8.8,0,0,0,6.366,5.264ZM8.32,13.45a.568.568,0,0,0-.338.532.532.532,0,0,0,.369.505,1.605,1.605,0,0,0,.686.142c.582-.016.974-.289.959-.661s-.458-.69-1-.689A1.447,1.447,0,0,0,8.32,13.45ZM9.781,4.455a.534.534,0,0,0-.091-.916,1.465,1.465,0,0,0-1.434.038.491.491,0,0,0-.131.8,1.148,1.148,0,0,0,.97.334A1.03,1.03,0,0,0,9.781,4.455ZM3.26,9.549c.1.24.231.443.527.455a.6.6,0,0,0,.555-.37,1.386,1.386,0,0,0-.126-1.44.518.518,0,0,0-.861.064,1.181,1.181,0,0,0-.172.707A1.539,1.539,0,0,0,3.26,9.549Zm10.4.1a.607.607,0,0,0,.56.362.564.564,0,0,0,.49-.447,1.513,1.513,0,0,0-.051-1.254.513.513,0,0,0-.9-.106,1.141,1.141,0,0,0-.242.838A1.088,1.088,0,0,0,13.657,9.653ZM5.532,13.488a.627.627,0,0,0,.32.7,1.583,1.583,0,0,0,1.074.288.441.441,0,0,0,.377-.721,1.365,1.365,0,0,0-1.086-.639C5.917,13.143,5.62,13.158,5.532,13.488Zm6.69.649a.592.592,0,0,0,.208-.633.506.506,0,0,0-.509-.358,1.362,1.362,0,0,0-1.093.429.578.578,0,0,0-.2.633c.1.279.348.277.585.285A1.392,1.392,0,0,0,12.222,14.137ZM7.266,4.291a.449.449,0,0,0-.337-.767A1.451,1.451,0,0,0,5.8,3.869a.563.563,0,0,0-.25.681c.113.274.358.316.664.319A1.29,1.29,0,0,0,7.266,4.291Zm3.376-.536a.6.6,0,0,0,.217.7,1.347,1.347,0,0,0,.956.4.559.559,0,0,0,.606-.344.614.614,0,0,0-.252-.695,1.567,1.567,0,0,0-.932-.325C11.017,3.5,10.757,3.5,10.642,3.755ZM4.325,5.69a.562.562,0,0,0-.681.247,1.382,1.382,0,0,0-.332,1.2.429.429,0,0,0,.712.293,1.338,1.338,0,0,0,.617-1.1C4.629,6.057,4.6,5.805,4.325,5.69Zm-.269,4.9c-.355-.234-.641-.122-.739.289a1.367,1.367,0,0,0,.311,1.176.577.577,0,0,0,.685.259c.275-.106.314-.362.33-.648A1.345,1.345,0,0,0,4.056,10.593ZM14.161,5.74a.476.476,0,0,0-.786.3,1.363,1.363,0,0,0,.473,1.311.5.5,0,0,0,.585.11.535.535,0,0,0,.252-.539A1.445,1.445,0,0,0,14.161,5.74Zm.214,4.794a.609.609,0,0,0-.683.275,1.436,1.436,0,0,0-.346,1.02.511.511,0,0,0,.935.334,1.314,1.314,0,0,0,.384-.917C14.659,10.907,14.678,10.632,14.375,10.534Z" fill="#f2f2f2"/>
    </g>
  </g>
</svg>
