<svg id="uuid-314cc076-ae2e-47c0-bc39-03a0654b27b0" xmlns="http://www.w3.org/2000/svg" width="18" height="18" viewBox="0 0 18 18"><polygon points="8.218 7.975 5.328 12.457 5.325 12.451 8.218 7.975" fill="#66a227" /><g><g><path d="M15.564,8.355l2.436,4.775-2.903,4.503-2.439-4.781,2.906-4.496Z" fill="#664b96" /><polygon points="10.214 8.059 9.125 9.75 7.31 12.563 7.312 12.563 10.634 12.746 12.661 12.858 15.565 8.355 10.214 8.059" fill="#a58ad4" /><polygon points="12.661 12.858 10.634 12.746 7.312 12.563 8.83 15.542 9.747 17.34 15.097 17.632 12.661 12.858" fill="#8661c5" /></g><g><path d="M12.823.662l-2.891,4.483-5.327-.292L7.495.368l5.328.294Z" fill="#b1eb80" /><path d="M9.932,5.145l2.426,4.755-5.327-.292-2.426-4.755,5.327.292Z" fill="#76d263" /><path d="M12.823.661l2.426,4.755-2.891,4.484-2.429-4.761L12.823.661Z" fill="#60bc55" /></g><g><polygon points="9.125 9.75 7.31 12.563 7.312 12.563 8.83 15.542 7.753 17.213 5.327 12.458 8.218 7.975 9.125 9.75" fill="#155ea1" /><polygon points="8.218 7.975 5.324 12.452 5.327 12.458 0 12.166 2.89 7.681 8.218 7.975" fill="#46a0de" /><polygon points="5.327 12.458 7.753 17.213 2.426 16.922 0 12.166 5.327 12.458" fill="#0078d4" /></g></g></svg>