<svg xmlns="http://www.w3.org/2000/svg" width="18" height="18" viewBox="0 0 18 18">
  <defs>
    <linearGradient id="a8d2458b-24ae-4912-a408-beef9278e922" x1="-278" y1="851.516" x2="-278" y2="869.516" gradientTransform="matrix(1, 0, 0, -1, 287, 869.516)" gradientUnits="userSpaceOnUse">
      <stop offset="0" stop-color="#5e9624"/>
      <stop offset="0.174" stop-color="#649f26"/>
      <stop offset="0.672" stop-color="#71b42b"/>
      <stop offset="0.999" stop-color="#76bc2d"/>
    </linearGradient>
    <linearGradient id="fe0956dd-ae68-4421-ad39-d6a927c27be1" x1="9" y1="4.137" x2="9" y2="13.863" gradientUnits="userSpaceOnUse">
      <stop offset="0.001" stop-color="#b4ec36"/>
      <stop offset="1" stop-color="#86d633"/>
    </linearGradient>
  </defs>
  <g id="f4c0cad2-dfd9-41b3-b40e-3e5bd036556c">
    <g>
      <path d="M18,9.768V8.122a.292.292,0,0,0-.189-.273l-.1-.037L15.64,7.134a.291.291,0,0,1-.179-.166l-.476-1.157a.291.291,0,0,1,.006-.235L15.965,3.5a.293.293,0,0,0-.058-.331L14.761,2.025a.292.292,0,0,0-.337-.055l-.1.05L12.4,3a.291.291,0,0,1-.243.01L11,2.533a.291.291,0,0,1-.163-.17L10.042.192A.293.293,0,0,0,9.768,0H8.122a.292.292,0,0,0-.273.189l-.037.1L7.134,2.36a.291.291,0,0,1-.166.179l-1.156.476a.292.292,0,0,1-.237-.007L3.534,2.033A.292.292,0,0,0,3.2,2.09L2.057,3.235A.292.292,0,0,0,2,3.572l.05.1L3.039,5.6a.293.293,0,0,1,.01.244L2.573,7a.291.291,0,0,1-.171.164L.193,7.959A.29.29,0,0,0,0,8.233V9.878a.292.292,0,0,0,.189.273l.1.037,2.072.678a.291.291,0,0,1,.179.166l.476,1.157a.291.291,0,0,1-.006.235L2.031,14.5a.293.293,0,0,0,.058.331l1.146,1.146a.292.292,0,0,0,.337.055l.1-.05L5.605,15a.291.291,0,0,1,.243-.01l1.157.476a.291.291,0,0,1,.163.17l.79,2.171A.293.293,0,0,0,8.232,18H9.878a.292.292,0,0,0,.273-.189l.037-.1.678-2.072a.291.291,0,0,1,.166-.179l1.157-.476a.291.291,0,0,1,.235.006l2.074.974a.293.293,0,0,0,.331-.058l1.146-1.146a.292.292,0,0,0,.055-.337l-.05-.1L15,12.4a.291.291,0,0,1-.01-.243L15.467,11a.291.291,0,0,1,.17-.163l2.171-.79A.293.293,0,0,0,18,9.768Z" fill="url(#a8d2458b-24ae-4912-a408-beef9278e922)"/>
      <circle cx="9" cy="9" r="4.863" fill="url(#fe0956dd-ae68-4421-ad39-d6a927c27be1)"/>
      <path d="M7.589,10.626,6.08,9.117a.4.4,0,1,0-.562.562l1.79,1.791a.4.4,0,0,0,.563,0l4.376-4.377a.4.4,0,1,0-.562-.563Z" fill="#fff"/>
    </g>
  </g>
</svg>
