<svg xmlns="http://www.w3.org/2000/svg" viewBox="0 0 18 18">
  <defs>
    <linearGradient id="b32d1ff1-a4c8-441c-a45f-19e45d25ed04" x1="165" y1="527.699" x2="165" y2="545.415" gradientTransform="matrix(1, 0, 0, -1, -156, 545.516)" gradientUnits="userSpaceOnUse">
      <stop offset="0" stop-color="#773adc" />
      <stop offset="1" stop-color="#a67af4" />
    </linearGradient>
  </defs>
  <g id="a99eb364-c6cf-47e1-a86b-ea5b46d5c549">
    <g>
      <path d="M3.883,17.858H14.118a.634.634,0,0,0,.633-.6V.744a.634.634,0,0,0-.633-.6H3.883a.635.635,0,0,0-.634.6V17.257A.635.635,0,0,0,3.883,17.858Z" fill="url(#b32d1ff1-a4c8-441c-a45f-19e45d25ed04)" />
      <path d="M13.164,7.717A1.318,1.318,0,0,1,11.915,9.1H6.19A1.319,1.319,0,0,1,4.94,7.717h0a1.319,1.319,0,0,1,1.25-1.38h5.725A1.318,1.318,0,0,1,13.164,7.717Zm0-4.095a1.318,1.318,0,0,0-1.249-1.379H6.19A1.318,1.318,0,0,0,4.94,3.625h0A1.32,1.32,0,0,0,6.19,5.006h5.725a1.32,1.32,0,0,0,1.249-1.381Z" fill="#341a6e" />
      <path d="M7.64,3.625a.921.921,0,1,1-.922-.92h0A.922.922,0,0,1,7.64,3.625ZM6.719,6.792a.921.921,0,1,0,.921.921h0a.92.92,0,0,0-.92-.92Z" fill="#b796f9" />
    </g>
  </g>
</svg>