<svg id="uuid-294d5c1d-1d9b-403e-81d2-15784c75a24a" xmlns="http://www.w3.org/2000/svg" width="16" height="16" viewBox="0 0 16 16">
  <path d="m12.864,9.31h-1.597l1.039-2.046.015-.03c.023-.057.037-.119.037-.184,0-.276-.224-.5-.5-.5h-2.538c-.177,0-.34.099-.423.256l-2.265,4.328-.024.046c-.022.056-.036.117-.036.181,0,.277.224.502.5.502h.762l-.974,2.051c-.156.329.084.709.448.709h1.024c.111,0,.219-.043.3-.119l4.572-4.338c.325-.308.107-.855-.341-.855Zm-4.74,4.312h-.017l1.311-2.76h-1.514l1.733-3.312h1.401l-1.401,2.76h1.966l-3.48,3.312Z"/>
  <g>
    <path d="m5.343,9.266v-.004h-2.963c-.276,0-.5.224-.5.5s.224.5.5.5h2.942s.002,0,.003,0c.276,0,.5-.224.5-.5,0-.27-.215-.486-.482-.497Z"/>
    <path d="m6.699,6.637h0s-4.319,0-4.319,0h0c-.276,0-.5.224-.5.5s.224.5.5.5c0,0,0,0,0,0h4.297v-.004c.008,0,.014.004.021.004.276,0,.5-.224.5-.5s-.224-.5-.5-.5Z"/>
    <path d="m13.606,4.012s0,0-.001,0H2.381s0,0-.001,0c-.276,0-.5.224-.5.5s.224.5.5.5h0s11.226,0,11.226,0h0c.276,0,.5-.224.5-.5s-.224-.5-.5-.5Z"/>
    <path d="m14.999,1.378H1.001c-.552,0-1.001.449-1.001,1.001v9.517c0,.552.449,1.001,1.001,1.001h3.209v-.004c.007,0,.012.004.019.004.276,0,.5-.224.5-.5s-.224-.5-.5-.5h0s-3.228,0-3.228,0V2.378s13.999,0,13.999,0v5.841h0v3.677s-2.193,0-2.193,0h0c-.276,0-.5.224-.5.5s.224.5.5.5h2.193c.552,0,1.001-.449,1.001-1.001V2.379c0-.552-.449-1.001-1.001-1.001Z"/>
  </g>
</svg>