<svg xmlns="http://www.w3.org/2000/svg"  width="18" height="18" viewBox="0 0 18 18">
  <defs>
    <linearGradient id="b584ad72-8435-46a6-9ed9-d5f494a63850" x1="8.233" y1="6.166" x2="10.832" y2="15.774" gradientUnits="userSpaceOnUse">
      <stop offset="0" stop-color="#f04049"/>
      <stop offset="1" stop-color="#e62323"/>
    </linearGradient>
  </defs>
  <g id="b5d5eeb8-cd25-4dd2-96d2-e92d841861f9">
    <path d="M16.691,4.4,9.14.038a.279.279,0,0,0-.282,0L1.309,4.4a.277.277,0,0,0-.141.244v8.718a.279.279,0,0,0,.141.244l2.454,1.418c.092-.148.173-.289.247-.426a4.638,4.638,0,0,0,.25-.556,4.377,4.377,0,0,0,.21-.822,5.9,5.9,0,0,0,.065-1.148,11.262,11.262,0,0,0-.716-3.33,5.327,5.327,0,0,1,.275-4.187.636.636,0,0,1,1.132.579,3.993,3.993,0,0,0-.209,3.182,12.512,12.512,0,0,1,.788,3.711c0,.1,0,.2,0,.3a6.939,6.939,0,0,1-.084,1.1,5.7,5.7,0,0,1-.273,1.057,5.768,5.768,0,0,1-.319.713h0c-.081.155-.172.309-.269.467l.917.529c.14-.227.268-.454.384-.688a6.476,6.476,0,0,0,.282-.658,7.217,7.217,0,0,0,.416-2.324,11.273,11.273,0,0,0-.338-2.864.636.636,0,0,1,1.236-.3,12.6,12.6,0,0,1,.374,3.191,8.508,8.508,0,0,1-.494,2.732,7.95,7.95,0,0,1-.336.783c-.13.264-.271.515-.422.762l.917.529a9.491,9.491,0,0,0,.836-1.71,9.143,9.143,0,0,0,.422-1.584.636.636,0,0,1,1.253.215,10.461,10.461,0,0,1-.48,1.806A10.805,10.805,0,0,1,8.9,17.984a.285.285,0,0,0,.235-.021l1.4-.806c.106-.237.2-.473.291-.714.042-.117.084-.237.122-.357a.636.636,0,0,1,1.235.119l1.355-.782A16.2,16.2,0,0,0,13.5,8.782a.636.636,0,1,1,1.246-.252,17.956,17.956,0,0,1,.236,6.063l1.714-.99a.279.279,0,0,0,.141-.244V4.641A.277.277,0,0,0,16.691,4.4Zm-6.219,8.081a.634.634,0,0,1-.635.628H9.829a.636.636,0,0,1-.628-.643,12.8,12.8,0,0,0-.212-2.423c-.048-.267-.1-.541-.169-.816a19.6,19.6,0,0,0-.608-2.05.635.635,0,1,1,1.2-.426,20.439,20.439,0,0,1,.65,2.187c.069.295.13.591.182.88A14,14,0,0,1,10.472,12.478ZM12.6,14.7a.635.635,0,0,1-.625.527.59.59,0,0,1-.11-.009.635.635,0,0,1-.517-.736,15.989,15.989,0,0,0-.942-8.088A1.7,1.7,0,1,0,7.213,7.529c.028.077.054.151.08.228a.636.636,0,0,1-1.2.412c-.024-.071-.048-.141-.074-.212a2.967,2.967,0,1,1,5.59-1.992A17.239,17.239,0,0,1,12.6,14.7Zm.908-8.407a.6.6,0,0,1-.206.033.636.636,0,0,1-.6-.429c-.032-.094-.066-.19-.1-.286A4.026,4.026,0,0,0,7.458,3.168a.636.636,0,1,1-.426-1.2A5.3,5.3,0,0,1,13.8,5.183c.035.1.071.2.105.3A.636.636,0,0,1,13.51,6.291Z" fill="url(#b584ad72-8435-46a6-9ed9-d5f494a63850)"/>
  </g>
</svg>
