<svg xmlns="http://www.w3.org/2000/svg" viewBox="0 0 18 18">
  <defs>
    <linearGradient id="eb0adc7c-f7d1-469c-8b71-30e6e78014eb" x1="9" y1="15.186" x2="9" y2="3.475" gradientUnits="userSpaceOnUse">
      <stop offset="0" stop-color="#0078d4" />
      <stop offset="0.064" stop-color="#0a7cd7" />
      <stop offset="0.338" stop-color="#2e8ce1" />
      <stop offset="0.594" stop-color="#4897e9" />
      <stop offset="0.822" stop-color="#589eed" />
      <stop offset="1" stop-color="#5ea0ef" />
    </linearGradient>
    <linearGradient id="a477ddcc-d253-42d6-ad76-b78ee24b77d5" x1="12.789" y1="9.284" x2="12.789" y2="14.846" gradientUnits="userSpaceOnUse">
      <stop offset="0" stop-color="#fff" />
      <stop offset="1" stop-color="#e6e6e6" />
    </linearGradient>
    <linearGradient id="b57ac208-8458-4f3e-bb96-734ccbe2df3e" x1="16.227" y1="13.448" x2="16.227" y2="13.222" />
    <clipPath id="ba8f6b1c-0f2e-414f-9693-5e0372429c83">
      <path d="M16.283,2.335V8.678C14.015,8.6,14.527,7.61,12.789,7.61a2.229,2.229,0,0,0-1.557.512,3.2,3.2,0,0,1-2,.558A.233.233,0,0,0,9,8.913v2.94a3.514,3.514,0,0,0,.408,1.587H1.371V2.335Z" fill="none" />
    </clipPath>
  </defs>
  <g id="a08b7638-4e08-4b57-87cd-0aba1ebd8bee">
    <g>
      <path d="M18,1.875V13.344a.572.572,0,0,1-.572.572H16.2a.568.568,0,0,0-.462.236,10.38,10.38,0,0,1-2.818,2.511.242.242,0,0,1-.249,0,10.35,10.35,0,0,1-2.824-2.511.568.568,0,0,0-.462-.236H.572A.572.572,0,0,1,0,13.344V1.875A.572.572,0,0,1,.572,1.3H17.428A.572.572,0,0,1,18,1.875Z" fill="url(#eb0adc7c-f7d1-469c-8b71-30e6e78014eb)" />
      <path d="M15.841,9.173c-2.009-.054-1.547-.919-3.052-.919a1.916,1.916,0,0,0-1.337.439,2.735,2.735,0,0,1-1.715.479.2.2,0,0,0-.2.2V11.9c0,2.1,2.584,3.785,3.148,4.128a.209.209,0,0,0,.213,0c.561-.343,3.144-2.031,3.144-4.128V9.372A.2.2,0,0,0,15.841,9.173Zm-1.178,2.943a.174.174,0,0,1-.174.174H13.27v1.219a.174.174,0,0,1-.174.174h-.613a.173.173,0,0,1-.174-.174V12.29H11.09a.174.174,0,0,1-.174-.174V11.5a.173.173,0,0,1,.174-.174h1.219V10.111a.173.173,0,0,1,.174-.174H13.1a.174.174,0,0,1,.174.174V11.33h1.219a.173.173,0,0,1,.174.174Z" fill="url(#a477ddcc-d253-42d6-ad76-b78ee24b77d5)" />
      <path d="M16.171,13.44c.04-.079.077-.159.112-.239v.239Z" fill="url(#b57ac208-8458-4f3e-bb96-734ccbe2df3e)" />
      <path d="M9.682,13.916H15.9a4.8,4.8,0,0,0,.274-.476H9.408A4.8,4.8,0,0,0,9.682,13.916Zm6.6-.715V8.678" fill="none" />
      <g clip-path="url(#ba8f6b1c-0f2e-414f-9693-5e0372429c83)">
        <g>
          <path d="M6.807,2.886l-.2-.2a.34.34,0,0,0-.481,0L4.2,4.614l-.794-.793a.34.34,0,0,0-.481,0l-.2.2a.341.341,0,0,0,0,.482L3.958,5.74a.341.341,0,0,0,.241.1.345.345,0,0,0,.241-.1L6.807,3.368A.341.341,0,0,0,6.807,2.886Z" fill="#83b9f9" />
          <path d="M8.049,3.631h5.8a.628.628,0,0,1,.628.628v.034a.629.629,0,0,1-.629.629h-5.8a.628.628,0,0,1-.628-.628V4.259a.628.628,0,0,1,.628-.628Z" fill="#fff" />
          <path d="M8.049,7.122h5.8a.628.628,0,0,1,.628.628v.034a.629.629,0,0,1-.629.629h-5.8a.628.628,0,0,1-.628-.628V7.751A.628.628,0,0,1,8.049,7.122Z" fill="#fff" />
          <path d="M8.049,10.614h5.8a.628.628,0,0,1,.628.628v.034a.629.629,0,0,1-.629.629h-5.8a.628.628,0,0,1-.628-.628v-.035A.628.628,0,0,1,8.049,10.614Z" fill="#fff" />
          <path d="M6.807,6.427l-.2-.2a.34.34,0,0,0-.481,0L4.2,8.155l-.794-.793a.34.34,0,0,0-.481,0l-.2.2a.341.341,0,0,0,0,.482L3.958,9.281a.34.34,0,0,0,.482,0L6.807,6.909A.341.341,0,0,0,6.807,6.427Z" fill="#83b9f9" />
          <path d="M6.807,9.968l-.2-.2a.34.34,0,0,0-.481,0L4.2,11.7,3.405,10.9a.34.34,0,0,0-.481,0l-.2.2a.341.341,0,0,0,0,.482l1.233,1.237a.34.34,0,0,0,.482,0L6.807,10.45A.341.341,0,0,0,6.807,9.968Z" fill="#83b9f9" />
        </g>
      </g>
    </g>
  </g>
</svg>