<svg xmlns="http://www.w3.org/2000/svg" width="18" height="18" viewBox="0 0 18 18">
  <defs>
    <linearGradient id="aea2c64a-dc1d-4b98-8b2c-611278fb8f55" x1="2.694" y1="4.068" x2="14.338" y2="15.711" gradientUnits="userSpaceOnUse">
      <stop offset="0" stop-color="#fff"/>
      <stop offset="1" stop-color="#fff" stop-opacity="0"/>
    </linearGradient>
  </defs>
  <g id="bf612a78-1b87-4a78-9a2c-e71f3845e758">
    <path d="M18,12.619c0,.05,0,.1,0,.152a5.2,5.2,0,0,1-5.15,5.256h-4.8a.563.563,0,0,1-.563-.563V14.3H4.307a.562.562,0,0,1-.563-.563V10.557H.565A.563.563,0,0,1,0,9.994V5.256A5.205,5.205,0,0,1,5.152,0h.107a5.214,5.214,0,0,1,5.1,3.912A5.219,5.219,0,0,1,14.092,7.63a5.221,5.221,0,0,1,3.751,3.76A5.338,5.338,0,0,1,18,12.619Z" fill="#50e6ff" fill-rule="evenodd"/>
    <path d="M14.26,8.894c0,.052,0,.1,0,.154A5.2,5.2,0,0,1,9.108,14.3H7.485V12.726A5.178,5.178,0,0,1,8.8,9.217a5.194,5.194,0,0,1-3.431,1.34H3.744V9A5.2,5.2,0,0,1,8.9,3.744H9a5.176,5.176,0,0,1,1.355.165l0,.011a5.228,5.228,0,0,1,.158,1.227c0,.051,0,.1,0,.154A5.172,5.172,0,0,1,9.2,8.808a5.186,5.186,0,0,1,3.435-1.341h.105a5.234,5.234,0,0,1,1.35.163c0,.013.007.024.01.037A5.335,5.335,0,0,1,14.26,8.894Z" fill="#32bedd" fill-rule="evenodd"/>
    <path d="M17.843,11.39a5.218,5.218,0,0,0-3.751-3.759h0a5.219,5.219,0,0,0-3.736-3.721h0A5.214,5.214,0,0,0,5.259,0H5.152A5.205,5.205,0,0,0,0,5.256V9.994a.563.563,0,0,0,.564.563H3.744v3.184a.562.562,0,0,0,.563.563H7.485v3.16a.563.563,0,0,0,.563.563h4.8A5.2,5.2,0,0,0,18,12.771c0-.051,0-.1,0-.152A5.338,5.338,0,0,0,17.843,11.39Z" fill-rule="evenodd" opacity="0.2" fill="url(#aea2c64a-dc1d-4b98-8b2c-611278fb8f55)"/>
  </g>
</svg>
