<svg xmlns="http://www.w3.org/2000/svg" viewBox="0 0 18 18">
  <defs>
    <linearGradient id="e164c387-011f-4b48-8099-45457fc4b94d" x1="5.775" y1="14.338" x2="5.775" y2="0.059" gradientUnits="userSpaceOnUse">
      <stop offset="0" stop-color="#773adc" />
      <stop offset="1" stop-color="#a67af4" />
    </linearGradient>
    <linearGradient id="ff97fb47-dfe6-449c-984e-0ce02821fd6a" x1="12.225" y1="17.967" x2="12.225" y2="3.688" gradientUnits="userSpaceOnUse">
      <stop offset="0" stop-color="#0078d4" />
      <stop offset="1" stop-color="#5ea0ef" />
    </linearGradient>
  </defs>
  <path d="M6.952,4.173A1.155,1.155,0,0,1,8.124,3.082H10.41V.485A.512.512,0,0,0,9.874,0h-8.2A.511.511,0,0,0,1.14.485V13.8a.512.512,0,0,0,.535.484H6.952Z" fill="url(#e164c387-011f-4b48-8099-45457fc4b94d)" />
  <path d="M3.509,3.92H6.993a1.171,1.171,0,0,1,1.131-.838h.965a1.044,1.044,0,0,0,.041-.274A1.063,1.063,0,0,0,8.123,1.7H3.509A1.063,1.063,0,0,0,2.5,2.808,1.063,1.063,0,0,0,3.509,3.92Z" fill="#341a6e" />
  <path d="M6.952,4.993H3.509A1.062,1.062,0,0,0,2.5,6.105,1.062,1.062,0,0,0,3.509,7.217H6.952Z" fill="#341a6e" />
  <path d="M4.677,2.807a.742.742,0,1,1-.741-.741h0A.741.741,0,0,1,4.677,2.807Z" fill="#b796f9" />
  <path d="M4.677,6.1a.742.742,0,1,1-.741-.742h0A.742.742,0,0,1,4.677,6.1Z" fill="#b796f9" />
  <path d="M8.1,18H16.35a.511.511,0,0,0,.51-.484V4.206a.511.511,0,0,0-.51-.485H8.1a.512.512,0,0,0-.511.485v13.31A.512.512,0,0,0,8.1,18Z" fill="url(#ff97fb47-dfe6-449c-984e-0ce02821fd6a)" />
  <path d="M15.581,9.826a1.063,1.063,0,0,1-1.007,1.112H9.96A1.063,1.063,0,0,1,8.952,9.826h0A1.063,1.063,0,0,1,9.96,8.714h4.614A1.063,1.063,0,0,1,15.581,9.826Zm0-3.3a1.063,1.063,0,0,0-1.007-1.112H9.96A1.063,1.063,0,0,0,8.952,6.528h0A1.064,1.064,0,0,0,9.96,7.641h4.614A1.064,1.064,0,0,0,15.581,6.528Z" fill="#003067" />
  <path d="M11.128,6.528a.742.742,0,1,1-.742-.741.742.742,0,0,1,.742.741Zm-.742,2.553a.742.742,0,1,0,.742.741.741.741,0,0,0-.742-.741h0Z" fill="#83b9f9" />
</svg>