<svg xmlns="http://www.w3.org/2000/svg" viewBox="0 0 18 18">
  <defs>
    <linearGradient id="a042aca4-cc2d-46b3-8970-f51875f70721" x1="206.104" y1="589.987" x2="206.104" y2="610.071" gradientTransform="matrix(1, 0, 0, -1, -198, 611.516)" gradientUnits="userSpaceOnUse">
      <stop offset="0" stop-color="#258277" />
      <stop offset="1" stop-color="#37c2b1" />
    </linearGradient>
  </defs>
  <path d="M1.516,1.707,2.8.215A.629.629,0,0,1,3.268,0h12.3A.86.86,0,0,1,16.5.781a.87.87,0,0,1,0,.1v15.35a.625.625,0,0,1-.2.461l-1.384,1.26H2.347L1.5,17.6Z" fill="#258277" />
  <path d="M2.547,1.7,3.333.8A.552.552,0,0,1,3.75.612H15.23a.554.554,0,0,1,.553.553h0V15.759a.554.554,0,0,1-.181.409l-1.226,1.116Z" fill="#fff" />
  <path d="M14.3,1.69H1.556a.06.06,0,0,0-.059.059V17.592A.407.407,0,0,0,1.905,18H14.3a.407.407,0,0,0,.407-.408h0V2.1A.409.409,0,0,0,14.3,1.69Z" fill="url(#a042aca4-cc2d-46b3-8970-f51875f70721)" />
  <path d="M8.63,4.5a3.76,3.76,0,0,0-2.859,6.224L3.462,13.032a.589.589,0,0,0,0,.833l.053.053a.589.589,0,0,0,.833,0L6.737,11.53a3.736,3.736,0,0,0,1.893.526,3.779,3.779,0,0,0,0-7.557Zm-.01.814a2.96,2.96,0,0,1,2.763,1.908H9.969l-.561.946L8.545,6.525l-.8,2.36L7.017,7.211,6.123,8.843H5.712a3.009,3.009,0,0,1-.057-.566A2.965,2.965,0,0,1,8.62,5.313Zm0,5.929a2.958,2.958,0,0,1-2.763-1.91H6.4L6.965,8.3,7.8,10.236l.843-2.485.7,1.414L10.2,7.71h1.33A2.954,2.954,0,0,1,8.62,11.242Z" fill="#fff" />
</svg>