<svg xmlns="http://www.w3.org/2000/svg" viewBox="0 0 18 18">
  <defs>
    <linearGradient id="a77afbac-357d-40a4-940d-e19cb54da704" x1="9" y1="12.929" x2="9" y2="0.171" gradientUnits="userSpaceOnUse">
      <stop offset="0" stop-color="#773adc" />
      <stop offset="0.817" stop-color="#a67af4" />
    </linearGradient>
    <linearGradient id="a8b475fe-85fb-496a-9c21-091c13fe56bc" x1="9.009" y1="6.406" x2="9.009" y2="11.208" gradientUnits="userSpaceOnUse">
      <stop offset="0" stop-color="#9cebff" />
      <stop offset="1" stop-color="#50e6ff" />
    </linearGradient>
  </defs>
  <g id="a975394b-8daa-4569-ae83-a3405473e7ea">
    <path d="M18,8.933a4.045,4.045,0,0,0-3.51-3.888A5.1,5.1,0,0,0,9.24.171a5.228,5.228,0,0,0-5,3.408A4.825,4.825,0,0,0,0,8.222a4.9,4.9,0,0,0,5.068,4.707c.151,0,.3-.008.447-.02h8.207a.819.819,0,0,0,.217-.032A4.093,4.093,0,0,0,18,8.933Z" fill="url(#a77afbac-357d-40a4-940d-e19cb54da704)" />
    <path d="M8.97,11.456a.508.508,0,0,0-.509.508V13.65h0v1.585a1.409,1.409,0,0,1-.03.291l-.008.029c-.008.037-.017.074-.028.11,0,.015-.011.029-.016.044-.011.03-.021.06-.033.09s-.029.066-.046.1-.024.047-.037.07-.024.04-.036.059-.027.041-.04.061l-.042.056c-.015.02-.031.039-.048.059s-.028.033-.043.049-.048.05-.073.074l-.052.048c-.027.023-.053.045-.081.067s-.031.023-.047.034-.049.035-.075.051l-.05.032-.084.046-.047.025c-.043.021-.087.041-.132.058l-.012,0c-.045.017-.09.032-.136.045l-.048.013c-.034.009-.069.018-.1.025l-.054.01c-.036.006-.073.011-.109.015l-.05.006c-.053,0-.107.007-.161.007s-.108,0-.161-.007L6.529,16.8c-.037,0-.073-.009-.109-.015l-.054-.01c-.036-.007-.07-.016-.1-.025l-.048-.013q-.069-.02-.135-.045l-.012,0a1.443,1.443,0,0,1-.133-.058L5.886,16.6c-.028-.015-.056-.03-.083-.046s-.034-.021-.051-.032-.05-.033-.074-.051L5.63,16.44c-.027-.022-.054-.044-.08-.067L5.5,16.325c-.025-.024-.05-.049-.073-.074s-.029-.033-.043-.049l-.048-.059-.041-.056c-.014-.02-.027-.04-.04-.061s-.025-.039-.037-.059-.025-.047-.037-.07-.031-.065-.045-.1-.023-.06-.033-.09c-.006-.015-.012-.029-.017-.044-.011-.036-.02-.073-.028-.11l-.008-.029a1.409,1.409,0,0,1-.03-.291V13.65h0v-.723A5.47,5.47,0,0,1,4,12.82v2.415a2.434,2.434,0,0,0,.056.522,2.711,2.711,0,0,0,2.683,2.072h0a2.712,2.712,0,0,0,2.684-2.072,2.5,2.5,0,0,0,.055-.522V11.964A.507.507,0,0,0,8.97,11.456Z" fill="#50e6ff" />
    <path d="M10.9,11.887H10.4v-.863H7.617v.863H7.123a.281.281,0,0,0-.281.282v.478a.281.281,0,0,0,.281.282H10.9a.281.281,0,0,0,.281-.282v-.478A.281.281,0,0,0,10.9,11.887Z" fill="#32bedd" />
    <path d="M7.505,4.26h.33a.281.281,0,0,1,.281.281V6.874a0,0,0,0,1,0,0H7.224a0,0,0,0,1,0,0V4.542A.281.281,0,0,1,7.505,4.26Z" fill="#c3f1ff" />
    <path d="M10.161,4.26h.309a.281.281,0,0,1,.281.281v2.47a0,0,0,0,1,0,0H9.88a0,0,0,0,1,0,0V4.542A.281.281,0,0,1,10.161,4.26Z" fill="#c3f1ff" />
    <path d="M12.021,6.406H6a.281.281,0,0,0-.281.281v.649A.281.281,0,0,0,6,7.617h.112v3.028a.563.563,0,0,0,.562.563h4.675a.563.563,0,0,0,.563-.563V7.617h.112a.281.281,0,0,0,.281-.281V6.687A.281.281,0,0,0,12.021,6.406Z" fill="url(#a8b475fe-85fb-496a-9c21-091c13fe56bc)" />
  </g>
</svg>