<svg xmlns="http://www.w3.org/2000/svg" viewBox="0 0 18 18">
  <defs>
    <linearGradient id="b20e6f4d-f708-4a7b-a40e-4800a8349249" x1="6.863" y1="6.505" x2="6.863" y2="17.198" gradientUnits="userSpaceOnUse">
      <stop offset="0" stop-color="#5ea0ef" />
      <stop offset="1" stop-color="#0078d4" />
    </linearGradient>
    <linearGradient id="e49725f0-d884-473d-8477-88b1577a3e3d" x1="8.696" y1="1.63" x2="8.696" y2="10.015" gradientUnits="userSpaceOnUse">
      <stop offset="0" stop-color="#0078d4" />
      <stop offset="1" stop-color="#005ba1" />
    </linearGradient>
  </defs>
  <polygon points="2.943 4.544 2.943 14.08 10.783 18 10.783 8.604 2.943 4.544" fill="url(#b20e6f4d-f708-4a7b-a40e-4800a8349249)" />
  <polygon points="14.19 6.643 10.783 8.604 10.783 18 14.19 16.331 14.19 6.643" fill="#0078d4" />
  <polygon points="2.943 4.544 6.535 2.622 14.449 6.784 10.783 8.604 2.943 4.544" fill="url(#e49725f0-d884-473d-8477-88b1577a3e3d)" />
  <path d="M2.943,4.544,1.608,3.172A.277.277,0,0,1,1.7,2.767l3.183-1.7a.275.275,0,0,1,.362.094l1.288,1.46Z" fill="#5ea0ef" />
  <path d="M8.663.092,6.535,2.622,14.2,6.663l1.978-2.7a.3.3,0,0,0-.076-.479L9.019.034A.3.3,0,0,0,8.663.092Z" fill="#5ea0ef" />
  <path d="M10.783,8.591s1.751.065,2.258.092a.611.611,0,0,0,.35-.048l2.963-1.729a.181.181,0,0,0-.063-.335L14.2,6.649Z" fill="#5ea0ef" />
</svg>