<svg id="uuid-a33d19f9-cc1c-4659-988c-68621faf9402" xmlns="http://www.w3.org/2000/svg" width="18" height="18" viewBox="0 0 18 18">
  <defs>
    <linearGradient id="uuid-9f3c3124-c6fd-49fe-8d30-0cb9860a922b" x1="6.938" y1="7.62" x2="10.007" y2="10.689" gradientUnits="userSpaceOnUse">
      <stop offset=".601" stop-color="#86d633"/>
      <stop offset=".999" stop-color="#76bc2d"/>
    </linearGradient>
    <linearGradient id="uuid-f0b7d6b1-9c97-4934-8340-5a77f9f39973" x1="3.859" y1="10.71" x2="3.859" y2="7.324" gradientUnits="userSpaceOnUse">
      <stop offset="0" stop-color="#0078d4"/>
      <stop offset=".704" stop-color="#5ea0ef"/>
    </linearGradient>
    <linearGradient id="uuid-7916879b-f964-41cc-9399-993e5810e678" x1="13.535" y1="15.286" x2="13.535" y2="2.714" gradientUnits="userSpaceOnUse">
      <stop offset="0" stop-color="#198ab3"/>
      <stop offset="1" stop-color="#32bedd"/>
    </linearGradient>
  </defs>
  <g>
    <path d="m3.859,9.665h7.496c.05,0,.091.041.091.091v1.053h0c0,.026.01.049.027.066.036.036.093.035.129,0l1.793-1.793h.001c.035-.037.034-.094-.001-.129l-1.793-1.793c-.017-.017-.041-.027-.066-.027-.05,0-.09.041-.09.091v1.053h0c0,.051-.041.091-.092.091H3.859v1.297Z" fill="url(#uuid-9f3c3124-c6fd-49fe-8d30-0cb9860a922b)"/>
    <path d="m15.653,6.977h-1.008c-.139,0-.252.113-.252.252v1.008c0,.139.113.252.252.252h1.008c.139,0,.252-.113.252-.252v-1.008c0-.139-.113-.252-.252-.252Zm0-2.567h-1.008c-.139,0-.252.113-.252.252v1.008c0,.139.113.252.252.252h1.008c.139,0,.252-.113.252-.252v-1.008c0-.139-.113-.252-.252-.252Zm0,5.135h-1.008c-.139,0-.252.113-.252.252v1.007c0,.139.113.252.252.252h1.008c.139,0,.252-.113.252-.252v-1.007c0-.139-.113-.252-.252-.252Zm0,2.567h-1.008c-.139,0-.252.113-.252.252v1.008c0,.139.113.252.252.252h1.008c.139,0,.252-.113.252-.252v-1.008c0-.139-.113-.252-.252-.252Z" fill="#32bedd"/>
    <rect y="7.324" width="7.718" height="3.386" rx=".702" ry=".702" fill="url(#uuid-f0b7d6b1-9c97-4934-8340-5a77f9f39973)"/>
  </g>
  <path d="m17.399,15.286h-7.729c-.332,0-.601-.269-.601-.601v-3.751c0-.234.158-.449.388-.493.309-.059.58.176.58.475v3.401h6.994V3.682h-6.994v3.521c0,.234-.158.449-.388.493-.309.059-.58-.176-.58-.475v-3.907c0-.332.269-.601.601-.601h7.729c.332,0,.601.269.601.601v11.371c0,.332-.269.601-.601.601Z" fill="url(#uuid-7916879b-f964-41cc-9399-993e5810e678)"/>
</svg>