<svg xmlns="http://www.w3.org/2000/svg" width="16" height="16" viewBox="0 0 16 16">
  <g id="bbf4c96e-9d48-408b-8b11-c592a6bee6b2" data-name="Layer 1">
    <path d="M12.432,4.936,8.06.565A.347.347,0,0,0,8.024.534L8,.512A1.507,1.507,0,0,0,7.832.377a.5.5,0,0,0-.06-.033L7.736.326,7.7.3A1.236,1.236,0,0,0,7.574.239a1.492,1.492,0,0,0-.468-.1L7.062.131A.42.42,0,0,0,7,.125H2.371a1.5,1.5,0,0,0-1.5,1.5v12a1.5,1.5,0,0,0,1.5,1.5H7.479A4.905,4.905,0,0,1,6.67,14h-4.3A.376.376,0,0,1,2,13.625v-12a.376.376,0,0,1,.375-.375h4.5V4.625a1.5,1.5,0,0,0,1.5,1.5h3.375v.807a4.81,4.81,0,0,1,1.125.317V6A1.5,1.5,0,0,0,12.432,4.936ZM8,2.091,10.905,5H8.371A.376.376,0,0,1,8,4.625ZM5.934,11.75h.187a4.851,4.851,0,0,0,.131,1.125H5.934a.563.563,0,1,1,0-1.125Zm.318-1.125A4.835,4.835,0,0,1,6.67,9.5H5.934a.563.563,0,1,0,0,1.125Zm1.227-2.25A4.88,4.88,0,0,1,9.118,7.25H5.934a.563.563,0,1,0,0,1.125ZM3.684,7.25a.563.563,0,1,0,.562.563A.563.563,0,0,0,3.684,7.25Zm-.563,2.813a.563.563,0,1,1,.563.562A.563.563,0,0,1,3.121,10.063Zm0,2.25a.563.563,0,1,1,.563.562A.563.563,0,0,1,3.121,12.313Zm8.251-4.688v4.336l1.24-1.24a.376.376,0,0,1,.526,0,.372.372,0,0,1,0,.533l-1.879,1.879a.378.378,0,0,1-.526,0L8.855,11.254a.372.372,0,0,1,0-.533.376.376,0,0,1,.526,0l1.24,1.24V7.625a4.133,4.133,0,1,0,.751,0Zm1.5,6.747H9.118A.381.381,0,0,1,8.742,14a.377.377,0,0,1,.376-.376h3.757A.372.372,0,0,1,13.25,14,.376.376,0,0,1,12.875,14.372Z"/>
  </g>
</svg>
