<svg xmlns="http://www.w3.org/2000/svg" width="18" height="18" viewBox="0 0 18 18">
  <defs>
    <linearGradient id="b328a2d6-f723-439d-8a50-c3b7c2e7df13" x1="7.996" y1="0.592" x2="7.996" y2="18.88" gradientUnits="userSpaceOnUse">
      <stop offset="0.122" stop-color="#5ea0ef"/>
      <stop offset="1" stop-color="#0078d4"/>
    </linearGradient>
  </defs>
  <g id="a11f7034-a4dd-4e5e-97c1-054ddabcad94">
    <g>
      <path d="M16.694.546V15.8a.545.545,0,0,1-.546.545h-1.04V7.365c0-.013,0-.026,0-.037a.983.983,0,0,0-.253-.581c-.021-.049-5.24-5.274-5.24-5.274a.436.436,0,0,0-.169-.1.968.968,0,0,0-.514-.148H3.361V.546A.545.545,0,0,1,3.905,0H16.148A.547.547,0,0,1,16.694.546Z" fill="#005ba1"/>
      <g>
        <path d="M8.929,1.647H1.852a.545.545,0,0,0-.546.546V17.455A.545.545,0,0,0,1.852,18H14.139a.545.545,0,0,0,.546-.545V7.364a.559.559,0,0,0-.558-.51H10.046A.558.558,0,0,1,9.487,6.3V2.205A.558.558,0,0,0,8.929,1.647Z" fill="url(#b328a2d6-f723-439d-8a50-c3b7c2e7df13)"/>
        <path d="M14.488,6.985,9.3,1.784V5.97a.963.963,0,0,0,.963.963Z" fill="#0078d4"/>
      </g>
      <g>
        <polygon points="10.429 9.275 10.429 12.105 8.003 13.535 8.003 10.69 10.429 9.275" fill="#50e6ff"/>
        <polygon points="10.429 9.275 8.003 10.704 5.562 9.275 8.003 7.845 10.429 9.275" fill="#c3f1ff"/>
        <polygon points="8.003 10.704 8.003 13.535 5.562 12.105 5.562 9.275 8.003 10.704" fill="#9cebff"/>
        <polygon points="5.562 12.105 8.003 10.69 8.003 13.535 5.562 12.105" fill="#c3f1ff"/>
        <polygon points="10.429 12.105 8.003 10.69 8.003 13.535 10.429 12.105" fill="#9cebff"/>
      </g>
    </g>
  </g>
</svg>
