<svg xmlns="http://www.w3.org/2000/svg" width="16" height="16" viewBox="0 0 16 16">
  <path d="M15.75,5.65l-.5.5-.5.3-.5.3h-1.2l-1.1,1h-1.4l2.2-2.1h.8a1.2,1.2,0,0,0,.8-.2l-3.9-3.7a1.9,1.9,0,0,0-.2.8.4.4,0,0,0,.1.3v.4h.1l-3.9,3.9H4.25l-.8.4,3.8,3.5v1.5l-1.5-1.5-4.4,4.4-1.1.3.4-1,4.4-4.5-3-3,.3-.3a3.8,3.8,0,0,1,1.3-.9l1.5-.2h.6l.6.2,3-3a.9.9,0,0,1-.1-.5,1.494,1.494,0,0,1,.1-.7,1.392,1.392,0,0,1,.2-.6l.4-.5.5-.5Zm-4,3.1a3.5,3.5,0,0,1,1.4.3l1.1.8a4.079,4.079,0,0,1,.7,1.1,3.094,3.094,0,0,1,.3,1.3,3.208,3.208,0,0,1-.3,1.4,4.079,4.079,0,0,1-.7,1.1l-1.1.8a3.4,3.4,0,0,1-1.4.2,3.4,3.4,0,0,1-1.4-.2l-1.1-.8a4.079,4.079,0,0,1-.7-1.1,3.208,3.208,0,0,1-.3-1.4,3.094,3.094,0,0,1,.3-1.3,4.079,4.079,0,0,1,.7-1.1l1.1-.8A3.5,3.5,0,0,1,11.75,8.75Zm-2.5,3.5a3,3,0,0,0,.2,1,2.19,2.19,0,0,0,.5.8l.8.6h1.7a.9.9,0,0,0,.7-.3l-3.5-3.4-.3.6A1.983,1.983,0,0,0,9.25,12.25Zm4.6,1.4.3-.6a2.21,2.21,0,0,0,.1-.8,2.9,2.9,0,0,0-.2-.9,2.19,2.19,0,0,0-.5-.8l-.8-.6-1-.2-.7.2a.9.9,0,0,0-.7.3Z"/>
</svg>
