<svg xmlns="http://www.w3.org/2000/svg" viewBox="0 0 18 18">
  <defs>
    <linearGradient id="beb06816-69f8-4d8c-b173-bcd3ad287c08" x1="9.245" y1="5.076" x2="9.245" y2="14.321" gradientUnits="userSpaceOnUse">
      <stop offset="0.225" stop-color="#9cebff" />
      <stop offset="1" stop-color="#50e6ff" />
    </linearGradient>
  </defs>
  <g id="bb42b1e4-f6ed-4ce5-92a0-f3a79828aee0">
    <g>
      <path d="M14.14,8.883A1.087,1.087,0,0,1,13.052,9.97H1.088A1.087,1.087,0,0,1,0,8.883V1.813A1.088,1.088,0,0,1,1.088.725H13.052A1.088,1.088,0,0,1,14.14,1.813Z" fill="#0078d4" />
      <path d="M16.315,13.233a1.087,1.087,0,0,1-1.087,1.088H3.263a1.088,1.088,0,0,1-1.088-1.088V6.163A1.087,1.087,0,0,1,3.263,5.076H15.228a1.086,1.086,0,0,1,1.087,1.087Z" fill="url(#beb06816-69f8-4d8c-b173-bcd3ad287c08)" />
      <path d="M9.517,9.97h1.632a.272.272,0,0,1,.272.272v.544a.272.272,0,0,1-.272.272H9.517a.272.272,0,0,1-.272-.272v-.544A.272.272,0,0,1,9.517,9.97Zm2.72,0h1.631a.272.272,0,0,1,.272.272v.544a.272.272,0,0,1-.272.272H12.237a.272.272,0,0,1-.272-.272v-.544A.272.272,0,0,1,12.237,9.97Zm-8.158,0H5.71a.272.272,0,0,1,.272.272v.544a.272.272,0,0,1-.272.272H4.079a.272.272,0,0,1-.272-.272v-.544A.272.272,0,0,1,4.079,9.97Zm0,2.176H7.886a.272.272,0,0,1,.272.272h0a.272.272,0,0,1-.272.272H4.079a.272.272,0,0,1-.272-.272h0A.272.272,0,0,1,4.079,12.146Zm5.438,0h1.088a.272.272,0,0,1,.272.272h0a.272.272,0,0,1-.272.272H9.517a.272.272,0,0,1-.272-.272h0A.272.272,0,0,1,9.517,12.146ZM6.8,9.97H8.43a.272.272,0,0,1,.272.272v.544a.272.272,0,0,1-.272.272H6.8a.272.272,0,0,1-.272-.272v-.544A.272.272,0,0,1,6.8,9.97ZM6.526,8.459a.444.444,0,0,1-.462.424H4.269a.444.444,0,0,1-.462-.424V7.251c0-.234.207-.544.462-.544h1.8a.444.444,0,0,1,.462.424Z" fill="#fff" />
      <rect y="2.356" width="14.14" height="1.088" fill="#e6e6e6" />
    </g>
    <circle cx="13.504" cy="12.78" r="4.495" fill="#76bc2d" />
    <path d="M10.294,12.357a.158.158,0,0,1-.218-.056l-.191-.32a.159.159,0,0,1,.056-.218l1.509-.9a.16.16,0,0,1,.218.056l.9,1.509a.159.159,0,0,1-.056.218l-.321.191a.161.161,0,0,1-.218-.056l-.266-.448a2.042,2.042,0,0,0-.041.755,1.878,1.878,0,0,0,.249.716,1.824,1.824,0,0,0,.348.428,2.053,2.053,0,0,0,.448.311,1.949,1.949,0,0,0,.514.179,2.005,2.005,0,0,0,.41.037.158.158,0,0,1,.156.144l.072.777a2.809,2.809,0,0,1-.814-.044,2.96,2.96,0,0,1-.763-.264,2.872,2.872,0,0,1-1.466-3.329Zm3.667-1.463a1.971,1.971,0,0,1,.515.181,2.059,2.059,0,0,1,.449.311,1.9,1.9,0,0,1,.6,1.144,2.021,2.021,0,0,1-.041.755l-.266-.448A.16.16,0,0,0,15,12.781l-.321.191a.159.159,0,0,0-.055.218l.9,1.509a.159.159,0,0,0,.218.056l1.509-.9a.158.158,0,0,0,.056-.218l-.19-.32a.159.159,0,0,0-.218-.056l-.523.31a2.871,2.871,0,0,0-.807-2.87,2.888,2.888,0,0,0-.659-.459,2.966,2.966,0,0,0-.762-.264,2.841,2.841,0,0,0-.65-.054.158.158,0,0,0-.149.173l.057.612a.156.156,0,0,0,.156.144A1.807,1.807,0,0,1,13.961,10.894Z" fill="#fff" />
  </g>
</svg>