<svg xmlns="http://www.w3.org/2000/svg" viewBox="0 0 18 18">
  <defs>
    <linearGradient id="b705c890-b6a8-4a30-a7d4-1e4fb93d20f7" x1="8.577" y1="14.243" x2="8.577" y2="2.086" gradientUnits="userSpaceOnUse">
      <stop offset="0" stop-color="#0078d4" />
      <stop offset="1" stop-color="#5ea0ef" />
    </linearGradient>
  </defs>
  <g id="ae840b09-ad9b-4ff7-8bb7-df753c1f4297">
    <path d="M7.4,7.91V9.565a.143.143,0,0,0,.144.144H9.118v2.037H7.544a.144.144,0,0,0-.144.144v1.655a.144.144,0,0,1-.245.1L4.463,10.955a.322.322,0,0,1,0-.454L7.155,7.809A.143.143,0,0,1,7.4,7.91Zm3.917,3.836h-.589c-.017,0-.032-.027-.032-.061V9.771c0-.034.015-.062.032-.062h.589c.018,0,.032.028.032.062v1.914C11.349,11.719,11.335,11.746,11.317,11.746Zm-1.116,0H9.613c-.018,0-.033-.027-.033-.061V9.771c0-.034.015-.062.033-.062H10.2c.018,0,.033.028.033.062v1.914C10.234,11.719,10.219,11.746,10.2,11.746Z" fill="#42e8ca" />
    <path d="M10.4,14.205V12.1c0-.011.01-.017.011-.027H7.724v1.475a.468.468,0,0,1-.8.331L4.234,11.183a.646.646,0,0,1,0-.911L6.926,7.58a.467.467,0,0,1,.8.33V9.385h3.184a.438.438,0,0,1,.115.017.424.424,0,0,1,.114-.017h.222a.288.288,0,0,1,.288.289v2.108c0,.01-.01.016-.011.026h2.686V10.333a.467.467,0,0,1,.8-.33l1.764,1.764a3.515,3.515,0,0,0,.27-1.331,3.854,3.854,0,0,0-3.345-3.7,4.857,4.857,0,0,0-5-4.645A4.984,4.984,0,0,0,4.043,5.333,4.6,4.6,0,0,0,0,9.758a4.667,4.667,0,0,0,4.83,4.485c.143,0,.285-.007.425-.018h5.152C10.406,14.217,10.4,14.213,10.4,14.205Z" fill="url(#b705c890-b6a8-4a30-a7d4-1e4fb93d20f7)" />
    <path d="M14.645,15.968V14.313a.143.143,0,0,0-.143-.143H12.927V12.132H14.5a.143.143,0,0,0,.143-.143V10.333a.143.143,0,0,1,.245-.1l2.692,2.692a.32.32,0,0,1,0,.454L14.89,16.07A.144.144,0,0,1,14.645,15.968Zm-2.212-1.8h-.589c-.018,0-.032-.028-.032-.062V12.194c0-.034.014-.062.032-.062h.589c.018,0,.032.028.032.062v1.914C12.465,14.142,12.451,14.17,12.433,14.17Zm-1.116,0h-.589c-.017,0-.032-.028-.032-.062V12.194c0-.034.015-.062.032-.062h.589c.018,0,.032.028.032.062v1.914C11.349,14.142,11.335,14.17,11.317,14.17Z" fill="#3cd4c2" />
  </g>
</svg>