<svg xmlns="http://www.w3.org/2000/svg" width="18" height="18" viewBox="0 0 18 18">
  <defs>
    <linearGradient id="beebcc63-9994-4446-b310-9739a77510db" x1="10.2" y1="6.68" x2="10.2" y2="16.88" gradientUnits="userSpaceOnUse">
      <stop offset="0.225" stop-color="#9cebff"/>
      <stop offset="1" stop-color="#50e6ff"/>
    </linearGradient>
  </defs>
  <g id="b3f2c461-b71e-4edc-bb55-d8b84454e05c">
    <path d="M15.6,10.88a1.2,1.2,0,0,1-1.2,1.2H1.2A1.2,1.2,0,0,1,0,10.88V3.08a1.2,1.2,0,0,1,1.2-1.2H14.4a1.2,1.2,0,0,1,1.2,1.2Z" fill="#0078d4"/>
    <path d="M18,15.68a1.2,1.2,0,0,1-1.2,1.2H3.6a1.2,1.2,0,0,1-1.2-1.2V7.88a1.2,1.2,0,0,1,1.2-1.2H16.8A1.2,1.2,0,0,1,18,7.88Z" fill="url(#beebcc63-9994-4446-b310-9739a77510db)"/>
    <path d="M10.5,12.08h1.8a.3.3,0,0,1,.3.3v.6a.3.3,0,0,1-.3.3H10.5a.3.3,0,0,1-.3-.3v-.6A.3.3,0,0,1,10.5,12.08Zm3,0h1.8a.3.3,0,0,1,.3.3v.6a.3.3,0,0,1-.3.3H13.5a.3.3,0,0,1-.3-.3v-.6A.3.3,0,0,1,13.5,12.08Zm-9,0H6.3a.3.3,0,0,1,.3.3v.6a.3.3,0,0,1-.3.3H4.5a.3.3,0,0,1-.3-.3v-.6A.3.3,0,0,1,4.5,12.08Zm0,2.4H8.7a.3.3,0,0,1,.3.3H9a.3.3,0,0,1-.3.3H4.5a.3.3,0,0,1-.3-.3h0A.3.3,0,0,1,4.5,14.48Zm6,0h1.2a.3.3,0,0,1,.3.3h0a.3.3,0,0,1-.3.3H10.5a.3.3,0,0,1-.3-.3h0A.3.3,0,0,1,10.5,14.48Zm-3-2.4H9.3a.3.3,0,0,1,.3.3v.6a.3.3,0,0,1-.3.3H7.5a.3.3,0,0,1-.3-.3v-.6A.3.3,0,0,1,7.5,12.08Zm-.3-1.668a.49.49,0,0,1-.509.468H4.709a.49.49,0,0,1-.509-.468V9.08c0-.258.228-.6.509-.6H6.691a.489.489,0,0,1,.509.467Z" fill="#fff"/>
    <rect y="3.68" width="15.6" height="1.2" fill="#e6e6e6"/>
  </g>
   <metadata>
   <rdf:RDF xmlns:rdf="http://www.w3.org/1999/02/22-rdf-syntax-ns#">
      <rdf:li>public:true</rdf:li>
      <rdf:li>sdk:false</rdf:li>
      <rdf:li>category:Cost Management</rdf:li>
   </rdf:RDF>
</metadata>
</svg>
