<svg xmlns="http://www.w3.org/2000/svg" viewBox="0 0 18 18">
  <defs>
    <linearGradient id="fea76938-e153-47b3-9922-f5bb0c9e9bdf" x1="7.687" y1="2.453" x2="7.687" y2="17.826" gradientUnits="userSpaceOnUse">
      <stop offset="0" stop-color="#5ea0ef" />
      <stop offset="1" stop-color="#0078d4" />
    </linearGradient>
  </defs>
  <g id="a5c8527c-0c9d-4e5b-89ee-5847950fb222">
    <path d="M3.4.188,17.585,2.276c.283.042.464.407.4.816L15.967,16.821c-.06.409-.338.706-.621.665L1.161,15.4c-.283-.041-.463-.406-.4-.815L2.779.853C2.839.444,3.117.146,3.4.188Z" fill="#0078d4" />
    <g>
      <path d="M.518,2.453H14.856c.286,0,.517.335.517.748V17.078c0,.413-.231.748-.517.748H.518c-.286,0-.518-.335-.518-.748V3.2C0,2.788.232,2.453.518,2.453Z" fill="url(#fea76938-e153-47b3-9922-f5bb0c9e9bdf)" />
      <path d="M.517,17.773H13.132L2.775,8.531a1.249,1.249,0,0,0-1.624,0L.034,9.546H0v7.479C0,17.438.232,17.773.517,17.773Z" fill="#fff" opacity="0.4" />
      <path d="M.517,17.826H14.856c.286,0,.517-.335.517-.748v-.261l-3-2.7-4.738-4.3a.966.966,0,0,0-1.252,0l-4.738,4.3L0,15.655v1.423C0,17.491.232,17.826.517,17.826Z" fill="#fff" opacity="0.4" />
    </g>
  </g>
</svg>