<svg xmlns="http://www.w3.org/2000/svg" viewBox="0 0 16 16">
  <path d="M6.445,15a5.589,5.589,0,0,0,.985,1H.5V0H9.211L13.5,4.289V6.328c-.161-.073-.326-.14-.492-.2s-.336-.12-.508-.172V5h-4V1h-7V15ZM9.5,1.711V4h2.289Zm6,9.789a4.385,4.385,0,0,1-.352,1.75,4.459,4.459,0,0,1-.968,1.43,4.654,4.654,0,0,1-1.43.961A4.458,4.458,0,0,1,11,16a4.385,4.385,0,0,1-1.75-.352,4.459,4.459,0,0,1-1.43-.968,4.654,4.654,0,0,1-.961-1.43A4.458,4.458,0,0,1,6.5,11.5a4.385,4.385,0,0,1,.352-1.75A4.459,4.459,0,0,1,7.82,8.32a4.654,4.654,0,0,1,1.43-.961A4.458,4.458,0,0,1,11,7a4.385,4.385,0,0,1,1.75.352,4.459,4.459,0,0,1,1.43.968,4.654,4.654,0,0,1,.961,1.43A4.458,4.458,0,0,1,15.5,11.5ZM11,15a3.391,3.391,0,0,0,1.359-.273,3.525,3.525,0,0,0,1.86-1.86A3.5,3.5,0,0,0,14.5,11.5a3.391,3.391,0,0,0-.273-1.359,3.525,3.525,0,0,0-1.86-1.86A3.5,3.5,0,0,0,11,8a3.391,3.391,0,0,0-1.359.273,3.525,3.525,0,0,0-1.86,1.86A3.5,3.5,0,0,0,7.5,11.5a3.391,3.391,0,0,0,.273,1.359,3.525,3.525,0,0,0,1.86,1.86A3.5,3.5,0,0,0,11,15Zm-.5-1V11h1v3Zm0-4V9h1v1Z" />
</svg>