<svg xmlns="http://www.w3.org/2000/svg" width="18" height="18" viewBox="0 0 18 18">
  <defs>
    <linearGradient id="b26b96b0-9236-4cc4-bad7-03158bf64839" x1="7.773" y1="9.242" x2="7.773" y2="6.536" gradientUnits="userSpaceOnUse">
      <stop offset="0" stop-color="#b77af4"/>
      <stop offset="0.997" stop-color="#773adc"/>
    </linearGradient>
    <linearGradient id="e2671739-f8f9-4120-a347-dc2a84af3a7a" x1="7.773" y1="16.933" x2="7.773" y2="4.468" gradientUnits="userSpaceOnUse">
      <stop offset="0" stop-color="#b77af4"/>
      <stop offset="0.997" stop-color="#773adc"/>
    </linearGradient>
  </defs>
  <g id="a6f3256a-5eec-4adb-81fc-e5ca2a8e5340">
    <path d="M14.091,5.15a.9.9,0,0,0-.9-.9H2.326a.9.9,0,0,0,0,1.8H13.991a1.555,1.555,0,0,1,1.554,1.555V6.048a2.193,2.193,0,0,0-1.492-.641A.908.908,0,0,0,14.091,5.15Z" fill="#552f99"/>
    <path d="M13.991,3.342H1.555A1.555,1.555,0,0,0,0,4.9a.425.425,0,0,1,.108-.263c.267-.369,1.109.019,1.272.41.018.041.045.065.045.106a.9.9,0,0,1,.9-.9H13.189a.9.9,0,0,1,.864,1.158,2.193,2.193,0,0,1,1.492.641V4.9A1.555,1.555,0,0,0,13.991,3.342Z" fill="url(#b26b96b0-9236-4cc4-bad7-03158bf64839)"/>
    <rect x="1.71" y="3.192" width="15.084" height="10.526" rx="0.501" transform="matrix(0.939, -0.343, 0.343, 0.939, -2.338, 3.684)" fill="#b796f9"/>
    <rect x="1.135" y="6.088" width="15.084" height="1.58" transform="translate(-1.832 3.391) rotate(-20.046)" fill="#fff" opacity="0.6"/>
    <path d="M13.991,6.052H2.326a.9.9,0,0,1-.9-.9h0C1.425,4.652,0,4.038,0,4.9V15.379a1.555,1.555,0,0,0,1.555,1.554H13.991a1.554,1.554,0,0,0,1.554-1.554V7.606A1.554,1.554,0,0,0,13.991,6.052Z" fill="url(#e2671739-f8f9-4120-a347-dc2a84af3a7a)"/>
    <path d="M10.751,10.138h4.794a0,0,0,0,1,0,0v2.954a0,0,0,0,1,0,0H10.751a.877.877,0,0,1-.877-.877v-1.2A.877.877,0,0,1,10.751,10.138Z" fill="#fff" opacity="0.5"/>
    <circle cx="11.767" cy="11.614" r="0.886" fill="#fff"/>
  </g>
</svg>
