<svg xmlns="http://www.w3.org/2000/svg" viewBox="0 0 18 18">
  <g id="e250d7e1-2f56-4890-87e7-9b28447a9f45">
    <polygon points="13.462 7.728 13.462 2.576 9 0 4.538 2.576 4.538 7.728 9 10.305 13.462 7.728" fill="#b796f9" />
    <polygon points="12.614 7.239 12.614 3.066 9 0.979 5.386 3.066 5.386 7.239 9 9.326 12.614 7.239" fill="#a67af4" />
    <polygon points="12.614 3.066 8.934 5.152 9 9.326 12.614 7.239 12.614 3.066" fill="#773adc" opacity="0.6" />
    <polygon points="5.386 3.066 8.934 5.152 9 9.326 5.386 7.239 5.386 3.066" fill="#773adc" />
    <path d="M5.951,3.942l1.017.6,0,3.115-1.02-.589ZM7.28,7.82l1.146.662L8.415,5.364,7.28,4.7Z" fill="#b796f9" />
    <polygon points="9 15.424 9 10.272 4.538 7.695 0.076 10.272 0.076 15.424 4.538 18 9 15.424" fill="#a67af4" />
    <polygon points="8.152 14.934 8.152 10.761 4.538 8.674 0.924 10.761 0.924 14.934 4.538 17.021 8.152 14.934" fill="#773adc" />
    <polygon points="17.924 15.424 17.924 10.272 13.462 7.695 9 10.272 9 15.424 13.462 18 17.924 15.424" fill="#773adc" />
    <polygon points="17.076 14.934 17.076 10.761 13.462 8.674 9.848 10.761 9.848 14.934 13.462 17.021 17.076 14.934" fill="#552f99" />
    <polygon points="0.924 10.761 4.472 12.848 4.538 17.021 0.924 14.934 0.924 10.761" fill="#552f99" />
    <path d="M1.489,11.638l1.017.6,0,3.115-1.021-.589Zm1.329,3.877,1.146.662-.011-3.118-1.135-.667Z" fill="#a67af4" />
    <polygon points="9.848 10.761 13.396 12.848 13.462 17.021 9.848 14.934 9.848 10.761" fill="#341a6e" />
    <path d="M10.413,11.638l1.017.6,0,3.115-1.02-.589Zm1.329,3.877,1.146.662-.011-3.118-1.135-.667Z" fill="#773adc" />
    <polygon points="8.152 10.761 4.472 12.848 4.538 17.021 8.152 14.934 8.152 10.761" fill="#552f99" opacity="0.6" />
    <polygon points="17.076 10.763 13.396 12.85 13.462 17.023 17.076 14.937 17.076 10.763" fill="#341a6e" opacity="0.6" />
  </g>
</svg>