<svg xmlns="http://www.w3.org/2000/svg" viewBox="0 0 18 18">
  <defs>
    <linearGradient id="f2bfad5d-3427-49ed-ba6f-101305b0b7d3" x1="9" y1="14.652" x2="9" y2="3.1" gradientUnits="userSpaceOnUse">
      <stop offset="0" stop-color="#949494" />
      <stop offset="0.532" stop-color="#a2a2a2" />
      <stop offset="1" stop-color="#b3b3b3" />
    </linearGradient>
  </defs>
  <g id="b941f30d-4818-49d2-9071-d9e395cb05b0">
    <path d="M7.5,14.261a.414.414,0,0,1-.433.391H.433A.414.414,0,0,1,0,14.261V3.492A.414.414,0,0,1,.433,3.1H7.067a.414.414,0,0,1,.433.392ZM18,3.492a.414.414,0,0,0-.433-.392H10.933a.414.414,0,0,0-.433.392V14.261a.414.414,0,0,0,.433.391h6.634A.414.414,0,0,0,18,14.261Z" fill="url(#f2bfad5d-3427-49ed-ba6f-101305b0b7d3)" />
    <path d="M9,17.452a.3.3,0,0,1-.3-.3V.848a.3.3,0,0,1,.6,0v16.3A.3.3,0,0,1,9,17.452Z" fill="#0078d4" />
    <path d="M6.465,8.039a.86.86,0,0,1-.815.9H1.917a.86.86,0,0,1-.815-.9h0a.86.86,0,0,1,.815-.9H5.65a.86.86,0,0,1,.815.9Zm0-2.668a.86.86,0,0,0-.815-.9H1.917a.86.86,0,0,0-.815.9h0a.86.86,0,0,0,.815.9H5.65a.86.86,0,0,0,.815-.9Z" fill="#003067" />
    <path d="M2.862,5.371a.6.6,0,1,1-.6-.6A.6.6,0,0,1,2.862,5.371Zm-.6,2.065a.6.6,0,1,0,.6.6A.6.6,0,0,0,2.259,7.436Z" fill="#50e6ff" />
    <path d="M16.965,8.039a.86.86,0,0,1-.815.9H12.417a.86.86,0,0,1-.815-.9h0a.86.86,0,0,1,.815-.9H16.15a.86.86,0,0,1,.815.9Zm0-2.668a.86.86,0,0,0-.815-.9H12.417a.86.86,0,0,0-.815.9h0a.86.86,0,0,0,.815.9H16.15a.86.86,0,0,0,.815-.9Z" fill="#003067" />
    <path d="M13.362,5.371a.6.6,0,1,1-.6-.6A.6.6,0,0,1,13.362,5.371Zm-.6,2.065a.6.6,0,1,0,.6.6A.6.6,0,0,0,12.759,7.436Z" fill="#50e6ff" />
  </g>
  <metadata>
    <rdf:RDF xmlns:rdf="http://www.w3.org/1999/02/22-rdf-syntax-ns#">
      <rdf:li>public:true</rdf:li>
      <rdf:li>sdk:false</rdf:li>
      <rdf:li>category:Other</rdf:li>
    </rdf:RDF>
  </metadata>
</svg>