<svg xmlns="http://www.w3.org/2000/svg" width="18" height="18" viewBox="0 0 18 18">
  <defs>
    <linearGradient id="b75346c2-109a-4b03-a3b3-a08291675dfb" x1="10.989" y1="16.712" x2="10.666" y2="3.743" gradientUnits="userSpaceOnUse">
      <stop offset="0" stop-color="#9cebff"/>
      <stop offset="1" stop-color="#50e6ff"/>
    </linearGradient>
  </defs>
  <g id="a640c4aa-cbac-4002-a1f8-2c14fd7c57f0">
    <path d="M11.8,9.851,8.425,13.23a.172.172,0,0,1-.293-.122V11.139C4.066,11.139,0,8.966,0,5.054c.581.872,3.485,3.191,8.132,3.191V6.351a.172.172,0,0,1,.293-.122L11.8,9.608A.172.172,0,0,1,11.8,9.851Z" fill="#773adc"/>
    <path d="M17.663,4.093H11.386a.344.344,0,0,1-.187-.056L9.406,2.844a.334.334,0,0,0-.186-.057H3.945a.335.335,0,0,0-.336.335h0V7.148a12.245,12.245,0,0,0,4.232.82v-1.6A.464.464,0,0,1,8.305,5.9a.459.459,0,0,1,.326.136l3.378,3.378a.463.463,0,0,1,0,.655L8.631,13.451a.459.459,0,0,1-.326.136.464.464,0,0,1-.464-.463V11.441a10.938,10.938,0,0,1-4.232-.954V14.2a.336.336,0,0,0,.336.336H17.663A.336.336,0,0,0,18,14.205h0V4.426A.335.335,0,0,0,17.663,4.093Z" fill="#32bedd"/>
    <path d="M17.664,4.077h-6.9a.333.333,0,0,0-.24.1L9.423,5.284a.337.337,0,0,1-.24.1H3.945a.336.336,0,0,0-.336.335h0v1.43a12.245,12.245,0,0,0,4.232.82v-1.6A.464.464,0,0,1,8.305,5.9a.459.459,0,0,1,.326.136l3.378,3.378a.463.463,0,0,1,0,.655L8.631,13.451a.459.459,0,0,1-.326.136.464.464,0,0,1-.464-.463V11.441a10.938,10.938,0,0,1-4.232-.954v3.7a.336.336,0,0,0,.336.335H17.663A.336.336,0,0,0,18,14.188V4.412A.335.335,0,0,0,17.664,4.077Z" fill="url(#b75346c2-109a-4b03-a3b3-a08291675dfb)"/>
  </g>
</svg>
