<svg xmlns="http://www.w3.org/2000/svg" viewBox="0 0 18 18">
  <defs>
    <linearGradient id="b3b5db98-01be-456e-8c24-a1dce8f6c0c9" x1="7.053" y1="12.65" x2="7.053" y2="0.064" gradientUnits="userSpaceOnUse">
      <stop offset="0" stop-color="#a16bc7" />
      <stop offset="1" stop-color="#c86dd7" />
    </linearGradient>
    <linearGradient id="b392abd4-ee1c-4efb-b529-17ff8f2cff25" x1="12.999" y1="17.485" x2="12.999" y2="8.043" gradientUnits="userSpaceOnUse">
      <stop offset="0" stop-color="#8255ff" />
      <stop offset="1" stop-color="#936bff" />
    </linearGradient>
  </defs>
  <path d="M0,3.449V.535A.471.471,0,0,1,.471.064H13.635a.471.471,0,0,1,.472.471V3.449a.471.471,0,0,1-.472.471H.471A.471.471,0,0,1,0,3.449ZM.471,8.285H8.776a3.324,3.324,0,0,1,1.587-.531c.09-.007.179-.011.268-.011a3.248,3.248,0,0,1,1.784.542h1.17a3.358,3.358,0,0,1,.468-.263.459.459,0,0,0,.054-.208V4.9a.471.471,0,0,0-.472-.471H.471A.471.471,0,0,0,0,4.9V7.814A.471.471,0,0,0,.471,8.285Zm6.79,3.6a4.339,4.339,0,0,1,.926-3.091H.471A.471.471,0,0,0,0,9.266v2.913a.471.471,0,0,0,.471.471H7.358A3.307,3.307,0,0,1,7.261,11.885Z" fill="url(#b3b5db98-01be-456e-8c24-a1dce8f6c0c9)" />
  <rect x="11.97" y="5.104" width="1.054" height="1.054" rx="0.236" fill="#fff" />
  <rect x="11.97" y="6.557" width="1.054" height="1.054" rx="0.236" fill="#fff" />
  <rect x="11.97" y="0.739" width="1.054" height="1.054" rx="0.236" fill="#fff" />
  <rect x="11.97" y="2.192" width="1.054" height="1.054" rx="0.236" fill="#fff" />
  <path d="M10.631,8.493q-.1,0-.207.009c-2.319.182-2.442,2.477-2.413,3.358,0,.628.188,2.636,4.99,6.076,4.8-3.44,4.967-5.448,4.985-6.076.029-.881-.088-3.176-2.437-3.358-.062-.005-.124-.007-.186-.007A2.5,2.5,0,0,0,13,10.175,2.514,2.514,0,0,0,10.631,8.493Z" fill="url(#b392abd4-ee1c-4efb-b529-17ff8f2cff25)" />
  <path d="M18,11.414H15.634a.1.1,0,0,0-.077.041l-.715,1.236a.1.1,0,0,1-.131.029.081.081,0,0,1-.029-.029l-1.023-1.945a.182.182,0,0,0-.244-.087.175.175,0,0,0-.087.087l-.982,2.927a.1.1,0,0,1-.126.046.1.1,0,0,1-.046-.046l-.84-1.946a.183.183,0,0,0-.247-.078.2.2,0,0,0-.078.078L9.862,13.791a.1.1,0,0,1-.077.048H8.7a7.785,7.785,0,0,0,.532.721h.994a.074.074,0,0,0,.076-.047l.716-1.319a.1.1,0,0,1,.129-.037.109.109,0,0,1,.037.037l.981,2.283a.183.183,0,0,0,.343,0L13.541,12.4a.087.087,0,0,1,.114-.051.086.086,0,0,1,.051.051l.864,1.638a.177.177,0,0,0,.313,0l1.1-1.851a.1.1,0,0,1,.077-.048h1.91" fill="#fff" />
</svg>