<svg xmlns="http://www.w3.org/2000/svg" viewBox="0 0 18 18">
  <path d="M9,3.244,1.071,9.386v7.83a.6.6,0,0,0,.6.6H6.424a.6.6,0,0,0,.6-.6v-4.41a.6.6,0,0,1,.6-.6h2.752a.6.6,0,0,1,.6.6v4.41a.6.6,0,0,0,.6.6h4.753a.6.6,0,0,0,.6-.6V9.887Z" fill="#2a69b6" />
  <path d="M8.582,1.671.229,8.662A.643.643,0,0,0,0,9.154v1.414a.6.6,0,0,0,.986.459l7.6-6.374a.64.64,0,0,1,.832.007l7.593,6.6A.6.6,0,0,0,18,10.806V9.415a.64.64,0,0,0-.221-.484L9.412,1.678A.639.639,0,0,0,8.582,1.671Z" fill="#77c2eb" />
  <path d="M17.793,7.618l-2.158-1.87V2.327h.252a.6.6,0,0,0,.6-.6v-.4a.6.6,0,0,0-.6-.6H13.54a.6.6,0,0,0-.6.6v.4a.6.6,0,0,0,.6.6h.346v1.9l-4.5-3.9A.6.6,0,0,0,8.608.324L.215,7.35A.6.6,0,0,0,0,7.81v2.72l8.581-7.2a.64.64,0,0,1,.832.007L18,10.8V8.072A.6.6,0,0,0,17.793,7.618Z" fill="#4192d9" />
</svg>