<svg xmlns="http://www.w3.org/2000/svg" viewBox="0 0 18 18">
  <defs>
    <radialGradient id="b11e973d-fc0a-478b-bcb6-f4ad0bfa38db" cx="-6849.268" cy="9911.831" r="17.999" gradientTransform="matrix(0.5, 0, 0, -0.5, 3433.843, 4965.218)" gradientUnits="userSpaceOnUse">
      <stop offset="0.183" stop-color="#a67af4" />
      <stop offset="1" stop-color="#773adc" />
    </radialGradient>
  </defs>
  <g id="a8c8e22a-37c1-49af-888e-07e0f8d77a17">
    <path id="aac5e1d7-7fb1-4d42-9f2f-b468c63b768d" d="M14.515,16.112A9,9,0,0,1,3.485,1.888l.091-.069A9,9,0,0,1,14.515,16.112" fill="url(#b11e973d-fc0a-478b-bcb6-f4ad0bfa38db)" />
    <path d="M9,.855A8.145,8.145,0,1,0,17.145,9,8.154,8.154,0,0,0,9,.855ZM14.456,3.6a7.845,7.845,0,0,1-2.243.854,9.48,9.48,0,0,0-1.358-2.906A7.676,7.676,0,0,1,14.456,3.6ZM9,1.317a7.675,7.675,0,0,1,1.152.087l-.007.007a7.979,7.979,0,0,1,1.621,3.135,15.859,15.859,0,0,1-5.774-.018A7.963,7.963,0,0,1,7.6,1.468L7.58,1.451A7.647,7.647,0,0,1,9,1.317Zm-2.123.3A9.444,9.444,0,0,0,5.54,4.429a6.168,6.168,0,0,1-2.012-.815A7.68,7.68,0,0,1,6.877,1.618ZM3.405,14.257a5.811,5.811,0,0,1,1.889-.8,7.431,7.431,0,0,0,1.43,2.885A7.691,7.691,0,0,1,3.405,14.257ZM10.2,16.589a7.622,7.622,0,0,1-1.2.094,7.716,7.716,0,0,1-1.53-.153l.042-.048a6.272,6.272,0,0,1-1.769-3.135,15.721,15.721,0,0,1,6.226.006,6.448,6.448,0,0,1-1.79,3.216Zm.773-.163a7.546,7.546,0,0,0,1.455-2.964,7.2,7.2,0,0,1,2.094.875A7.688,7.688,0,0,1,10.97,16.426Zm1.568-3.414c.086-.376.157-.773.213-1.184q-.238.063-.489.12c-.05.328-.108.649-.179.954a16.006,16.006,0,0,0-6.453,0c-.068-.294-.129-.6-.179-.918,0-.031-.008-.062-.013-.093-.166-.041-.327-.085-.485-.131.014.1.027.2.042.3.052.331.115.649.186.956a6.261,6.261,0,0,0-2.084.9,7.662,7.662,0,0,1,.116-9.956,6.538,6.538,0,0,0,2.2.915c-.071.259-.137.526-.2.8-.029.133-.053.268-.079.4.161-.044.327-.085.5-.123.012-.06.022-.121.035-.181.059-.273.125-.538.2-.8a15.585,15.585,0,0,0,3.084.3A15.449,15.449,0,0,0,11.892,5c.077.292.145.595.207.9q.249.053.489.114c-.073-.382-.154-.755-.249-1.114a8.139,8.139,0,0,0,2.436-.958,7.661,7.661,0,0,1,.06,10.049A7.624,7.624,0,0,0,12.538,13.012Z" fill="#b796f9" />
    <g>
      <path d="M2.863,10.821V7.25h.986q1.888,0,1.887,1.741a1.755,1.755,0,0,1-.523,1.328,1.945,1.945,0,0,1-1.4.5Zm.418-3.192v2.813h.533a1.51,1.51,0,0,0,1.093-.376A1.405,1.405,0,0,0,5.3,9q0-1.372-1.459-1.372Z" fill="#fff" />
      <path d="M9.124,10.821H8.705V9.192H6.858v1.629H6.439V7.25h.419V8.816H8.705V7.25h.419Z" fill="#fff" />
      <path d="M12.49,10.671a2.086,2.086,0,0,1-.986.209,1.589,1.589,0,0,1-1.22-.49A1.808,1.808,0,0,1,9.825,9.1a1.9,1.9,0,0,1,.516-1.385,1.75,1.75,0,0,1,1.308-.528,2.092,2.092,0,0,1,.841.147v.446a1.7,1.7,0,0,0-.847-.215,1.3,1.3,0,0,0-1,.412,1.547,1.547,0,0,0-.382,1.1,1.472,1.472,0,0,0,.357,1.039,1.215,1.215,0,0,0,.938.387,1.761,1.761,0,0,0,.931-.238Z" fill="#fff" />
      <path d="M13.636,9.471v1.35h-.419V7.25H14.2a1.3,1.3,0,0,1,.888.279,1,1,0,0,1,.316.787,1.082,1.082,0,0,1-.351.832,1.338,1.338,0,0,1-.944.323Zm0-1.842V9.093h.438a.985.985,0,0,0,.661-.2.7.7,0,0,0,.228-.559q0-.708-.837-.707Z" fill="#fff" />
    </g>
  </g>
  <metadata>
    <rdf:RDF xmlns:rdf="http://www.w3.org/1999/02/22-rdf-syntax-ns#">
      <rdf:li>public:true</rdf:li>
      <rdf:li>sdk:false</rdf:li>
      <rdf:li>category:Other</rdf:li>
    </rdf:RDF>
  </metadata>
</svg>