<svg xmlns="http://www.w3.org/2000/svg" width="18" height="18" viewBox="0 0 18 18">
  <defs>
    <linearGradient id="b203f16b-3254-4931-b511-b1694a240c35" x1="10.739" y1="-1.527" x2="8.009" y2="15.893" gradientUnits="userSpaceOnUse">
      <stop offset="0" stop-color="#5ea0ef"/>
      <stop offset="1" stop-color="#0078d4"/>
    </linearGradient>
    <linearGradient id="bedc462e-9e02-4505-b8e4-15aeb89660c7" x1="9.357" y1="0.234" x2="8.726" y2="4.26" gradientUnits="userSpaceOnUse">
      <stop offset="0" stop-color="#5ea0ef"/>
      <stop offset="1" stop-color="#0078d4"/>
    </linearGradient>
  </defs>
  <polygon points="9.029 4.079 0.173 9.32 2.544 14.489 3.062 14.366 2.177 10.207 9.032 6.025 15.911 10.212 15.114 14.375 15.591 14.493 17.906 9.314 9.029 4.079" fill="url(#b203f16b-3254-4931-b511-b1694a240c35)"/>
  <path d="M9.862.319H8.347a.475.475,0,0,0-.474.475V2.931h2.463V.794A.475.475,0,0,0,9.862.319Z" fill="url(#bedc462e-9e02-4505-b8e4-15aeb89660c7)"/>
  <rect x="3.078" y="11.152" width="12.039" height="6.528" rx="0.375" fill="#767676"/>
  <rect x="4.263" y="11.988" width="1.469" height="4.857" rx="0.187" fill="#a3a3a3"/>
  <rect x="9.73" y="11.988" width="1.469" height="4.857" rx="0.187" fill="#a3a3a3"/>
  <path d="M7.184,11.988H8.278a.187.187,0,0,1,.187.187v4.482a.188.188,0,0,1-.187.188H7.184A.188.188,0,0,1,7,16.658V12.175A.187.187,0,0,1,7.184,11.988Z" fill="#a3a3a3"/>
  <path d="M12.652,11.988h1.094a.187.187,0,0,1,.187.187v4.482a.188.188,0,0,1-.187.188H12.652a.188.188,0,0,1-.187-.187V12.175A.187.187,0,0,1,12.652,11.988Z" fill="#a3a3a3"/>
  <circle cx="9.087" cy="5.052" r="2.589" fill="#76bc2d"/>
  <circle cx="1.356" cy="9.766" r="1.356" fill="#83b9f9"/>
  <circle cx="16.644" cy="9.766" r="1.356" fill="#83b9f9"/>
  <path d="M11.121,5.258V4.783l-.483-.166-.127-.324.246-.491V3.747L10.606,3.6l-.182-.182h-.063l-.475.238-.324-.087-.206-.531H8.889l-.158.483-.356.158-.53-.3-.349.3v.064l.238.467L7.6,4.53l-.546.237v.491h.071l.5.166.135.325L7.5,6.3l.333.332H7.9l.475-.237.324.134.206.57h.467V7.023l.166-.5.317-.134.554.253.332-.332V6.247L10.5,5.78l.087-.332Zm-2.034.873a1.067,1.067,0,1,1,1.067-1.067A1.067,1.067,0,0,1,9.087,6.131Z" fill="#fff"/>
</svg>
