<svg xmlns="http://www.w3.org/2000/svg" viewBox="0 0 18 18">
  <g id="ae8027fc-de75-4bcc-8a7d-d3c37c874b75">
    <path d="M9.013,14.186,4.736,9.914C4.461,9.639,4.18,9.37,3.9,9.1c-.371-.355-.729-.7-1.057-1.039h.235L5.087,6.112,9,10.031l2.827-2.838.931.908L15.18,8.07c-.181.205-.374.419-.586.652l-.271.3a4.967,4.967,0,0,1,1.3.247C17,7.754,17.982,6.587,17.982,4.708A4.707,4.707,0,0,0,13.275,0,4.962,4.962,0,0,0,9,2.235,5.06,5.06,0,0,0,4.708,0,4.708,4.708,0,0,0,0,4.708,4.518,4.518,0,0,0,.144,5.83l1.168-.015a3.4,3.4,0,0,1-.187-1.107A3.587,3.587,0,0,1,4.708,1.125a3.949,3.949,0,0,1,3.4,1.806l.9,1.137.88-1.15a3.859,3.859,0,0,1,3.386-1.793,3.586,3.586,0,0,1,3.582,3.583A3.642,3.642,0,0,1,16.1,6.933l-2.885.037L11.816,5.61,9,8.438,5.1,4.531,2.622,6.939.582,6.95a18.121,18.121,0,0,0,3.359,3.76L9,15.759H9A2.813,2.813,0,0,1,9.013,14.186Z" />
    <path d="M18,14.078a3.82,3.82,0,0,1-.308,1.53,3.943,3.943,0,0,1-.835,1.24,4.041,4.041,0,0,1-1.249.844,3.664,3.664,0,0,1-1.53.308,3.82,3.82,0,0,1-1.53-.308,4.071,4.071,0,0,1-1.249-.835,3.9,3.9,0,0,1-1.151-2.779,3.9,3.9,0,0,1,.307-1.53,3.96,3.96,0,0,1,.88-1.293h-1.2V10.13h3.377v3.376H12.39V11.827a2.913,2.913,0,0,0-.827.985,2.709,2.709,0,0,0-.3,1.257,2.737,2.737,0,0,0,.22,1.091,2.854,2.854,0,0,0,2.6,1.732,2.715,2.715,0,0,0,1.09-.22,2.829,2.829,0,0,0,.888-.6,2.91,2.91,0,0,0,.607-.9,2.585,2.585,0,0,0,.22-1.1,2.819,2.819,0,0,0-.132-.862,2.7,2.7,0,0,0-.387-.765,3.1,3.1,0,0,0-.589-.615,2.585,2.585,0,0,0-.774-.414l.378-1.055a3.794,3.794,0,0,1,1.064.581,4.2,4.2,0,0,1,.827.853,3.526,3.526,0,0,1,.527,1.072A4.645,4.645,0,0,1,18,14.078Z" />
  </g>
</svg>