<svg xmlns="http://www.w3.org/2000/svg" width="18" height="18" viewBox="0 0 18 18">
  <defs>
    <linearGradient id="a69af12e-0052-424a-8089-f6bb7ef34056" x1="9.315" y1="4.013" x2="9.015" y2="16.073" gradientUnits="userSpaceOnUse">
      <stop offset="0" stop-color="#32d4f5"/>
      <stop offset="0.228" stop-color="#31d0f1"/>
      <stop offset="0.463" stop-color="#2cc3e6"/>
      <stop offset="0.703" stop-color="#25afd4"/>
      <stop offset="0.944" stop-color="#1c92ba"/>
      <stop offset="1" stop-color="#198ab3"/>
    </linearGradient>
  </defs>
  <g id="a1c71d34-4de4-441c-a862-2979e7d46cde">
    <g>
      <path d="M15.65,3.91H8.66a.368.368,0,0,1-.208-.062l-2-1.328a.371.371,0,0,0-.207-.063H.375A.373.373,0,0,0,0,2.83H0V15.17a.373.373,0,0,0,.374.373H15.65a.374.374,0,0,0,.375-.373h0V4.282A.375.375,0,0,0,15.65,3.91Z" fill="#005ba1"/>
      <rect x="1.456" y="3.173" width="3.642" height="0.728" rx="0.153" fill="#fff"/>
      <path d="M15.933,15.543H.281L2,6.447A.439.439,0,0,1,2.434,6.1H17.555a.428.428,0,0,1,.438.5l-1.622,8.6A.438.438,0,0,1,15.933,15.543Z" fill="url(#a69af12e-0052-424a-8089-f6bb7ef34056)"/>
    </g>
  </g>
</svg>
