<svg xmlns="http://www.w3.org/2000/svg" width="18" height="18" viewBox="0 0 18 18">
  <defs>
    <linearGradient id="b3e924b2-ec8d-4190-8d47-78cda2e99015" x1="8.999" y1="6.058" x2="8.999" y2="12.008" gradientUnits="userSpaceOnUse">
      <stop offset="0.16" stop-color="#50e6ff"/>
      <stop offset="1" stop-color="#32bedd"/>
    </linearGradient>
    <linearGradient id="adb96cf0-f77b-4246-ad65-7bf47e27c449" x1="8.999" y1="0.128" x2="8.999" y2="6.009" gradientUnits="userSpaceOnUse">
      <stop offset="0.234" stop-color="#50e6ff"/>
      <stop offset="1" stop-color="#32bedd"/>
    </linearGradient>
  </defs>
  <g id="f249998e-b1c4-40b5-88cd-be0ecad004d2">
    <path d="M17.934,6.108l-8.92,5.9L.064,6.1a.138.138,0,0,1,.03-.04H17.9C17.914,6.078,17.924,6.088,17.934,6.108Z" fill="url(#b3e924b2-ec8d-4190-8d47-78cda2e99015)"/>
    <path d="M17.9,6.058H.094a.457.457,0,0,1,.15-.16L8.694.148a.558.558,0,0,1,.63,0l8.43,5.75A.457.457,0,0,1,17.9,6.058Z" fill="url(#adb96cf0-f77b-4246-ad65-7bf47e27c449)"/>
    <path d="M9.014,12.008l-.01.01-8.78,5.79-.01-.01v-.01a.556.556,0,0,1-.21-.42V6.358a.554.554,0,0,1,.06-.26Z" fill="#a67af4"/>
    <path d="M18,6.358v11.03a.569.569,0,0,1-.19.42l-.01.01-5.23-3.45-1.32-.88-2.24-1.48,8.92-5.9A.451.451,0,0,1,18,6.358Z" fill="#773adc"/>
    <path d="M17.814,17.808l-.01.01a.594.594,0,0,1-.37.13l-16.87-.02a.5.5,0,0,1-.34-.12l-.01-.01v-.01l8.78-5.78.01.01,2.25,1.47,1.32.88Z" fill="#552f99"/>
  </g>
</svg>
