<svg xmlns="http://www.w3.org/2000/svg" width="18" height="18" viewBox="0 0 18 18">
  <defs>
    <linearGradient id="ad3d2db5-c8ff-47c0-8dad-7f5d6f1901bb" x1="8.116" y1="7.285" x2="14.605" y2="7.285" gradientUnits="userSpaceOnUse">
      <stop offset="0" stop-color="#ccc"/>
      <stop offset="1" stop-color="#f0f0f0"/>
    </linearGradient>
  </defs>
  <g id="ae147e25-d235-4f43-8c19-00a89ada5029">
    <path d="M15.556,1.963H.676A.65.65,0,0,0,0,2.584V13.769a.651.651,0,0,0,.676.622h14.88a.651.651,0,0,0,.676-.622V2.584A.65.65,0,0,0,15.556,1.963Z" fill="#3cd4c2"/>
    <path d="M15.614,1.963H8.088V14.391h7.526a.621.621,0,0,0,.618-.622V2.584A.62.62,0,0,0,15.614,1.963Z" fill="#37c2b1"/>
    <path d="M6.818.188H1.952a.325.325,0,0,0-.325.326V12.9a.325.325,0,0,0,.325.326H6.818a1.184,1.184,0,0,1,1.3,1.159V1.493A1.3,1.3,0,0,0,6.818.188Z" fill="#f2f2f2"/>
    <path d="M9.414.188h4.867a.325.325,0,0,1,.324.326V12.9a.325.325,0,0,1-.324.326H9.414a1.184,1.184,0,0,0-1.3,1.159V1.493A1.3,1.3,0,0,1,9.414.188Z" fill="url(#ad3d2db5-c8ff-47c0-8dad-7f5d6f1901bb)"/>
    <g>
      <polygon points="18 10.969 18 15.524 14.063 17.813 14.063 13.251 18 10.969" fill="#0078d4"/>
      <polygon points="18 10.969 14.064 13.257 10.126 10.968 14.064 8.679 18 10.969" fill="#83b9f9"/>
      <polygon points="14.063 13.257 14.063 17.813 10.126 15.524 10.126 10.968 14.063 13.257" fill="#5ea0ef"/>
    </g>
    <path d="M6.84,4.009H2.813a.279.279,0,0,1-.279-.279V3.615a.279.279,0,0,1,.279-.279H6.84a.279.279,0,0,1,.279.279V3.73A.279.279,0,0,1,6.84,4.009Zm.279,1.738V5.632a.279.279,0,0,0-.279-.279H2.813a.279.279,0,0,0-.279.279v.115a.278.278,0,0,0,.279.278H6.84A.278.278,0,0,0,7.119,5.747ZM5,7.763V7.649a.279.279,0,0,0-.279-.279H2.931a.279.279,0,0,0-.279.279v.114a.279.279,0,0,0,.279.279H4.717A.279.279,0,0,0,5,7.763Z" fill="#ccc"/>
  </g>
</svg>
