<svg xmlns="http://www.w3.org/2000/svg" width="18" height="18" viewBox="0 0 18 18">
  <defs>
    <linearGradient id="ad304906-bdf0-4977-a446-0f46aa8e46c1" x1="-554.145" y1="1021.831" x2="-554.145" y2="1012.854" gradientTransform="matrix(1, 0, 0, -1, 564, 1025.516)" gradientUnits="userSpaceOnUse">
      <stop offset="0.388" stop-color="#50e6ff"/>
      <stop offset="1" stop-color="#32bedd"/>
    </linearGradient>
    <linearGradient id="fde1a385-1165-4fd0-aa7d-58609bc32d06" x1="-553.944" y1="1020.255" x2="-553.944" y2="1012.153" gradientTransform="matrix(1, 0, 0, -1, 564, 1025.516)" gradientUnits="userSpaceOnUse">
      <stop offset="0" stop-color="#198ab3"/>
      <stop offset="0.073" stop-color="#2098be"/>
      <stop offset="0.214" stop-color="#29accf"/>
      <stop offset="0.354" stop-color="#2fb8d9"/>
      <stop offset="0.493" stop-color="#31bcdc"/>
      <stop offset="0.653" stop-color="#2bb0d2"/>
      <stop offset="0.94" stop-color="#1d91b9"/>
      <stop offset="1" stop-color="#198ab3"/>
    </linearGradient>
  </defs>
  <g id="f27ff51d-a5b5-43b9-a7d1-18a39a350d7d">
    <path d="M6.76,6.368c-.02-.06-.05-.12-.07-.18-.25-.6-.58-.97-.94-.97H4.27c.36,0,.69.37.94.97a8.272,8.272,0,0,1,.49,2.95,7.989,7.989,0,0,1-.49,2.95c-.25.61-.58.98-.94.98H5.75c.36,0,.68-.36.93-.97a7.986,7.986,0,0,0,.49-2.91v-.05A8.383,8.383,0,0,0,6.76,6.368Zm8.6,1.48a6.555,6.555,0,0,0-.18-.96c-.25-1.01-.68-1.67-1.16-1.67H12.55c.49,0,.92.68,1.18,1.72.06.28.12.58.16.9a10.676,10.676,0,0,1,.08,1.3c0,2.17-.64,3.92-1.42,3.92h1.47c.39,0,.74-.43,1-1.13a8.6,8.6,0,0,0,.42-2.73v-.06A10.509,10.509,0,0,0,15.36,7.848Z" fill="url(#ad304906-bdf0-4977-a446-0f46aa8e46c1)"/>
    <path d="M13.969,9.14c0,2.17-.635,3.926-1.422,3.926-.361,0-.688-.367-.937-.976h.937c.492,0,.885-1.318.885-2.95s-.393-2.95-.885-2.95H11.61c.249-.6.576-.97.937-.97C13.334,5.219,13.969,6.977,13.969,9.14ZM4.276,5.218c-.786,0-1.421,1.755-1.421,3.922s.637,3.922,1.421,3.922S5.7,11.3,5.7,9.14,5.06,5.218,4.276,5.218Z" fill="#9cebff"/>
    <path d="M5.16,9.138a9.782,9.782,0,0,1-.052,1.016,6.212,6.212,0,0,1-.177.957c-.157.6-.39.978-.656.978s-.5-.378-.656-.978a6.1,6.1,0,0,1-.176-.957A9.5,9.5,0,0,1,3.39,9.138c0-1.627.4-2.947.885-2.947S5.16,7.511,5.16,9.138Z" fill="#32bedd"/>
    <path d="M13.432,9.14c0,1.632-.393,2.95-.885,2.95H10.875V12.1h-4.2a8.029,8.029,0,0,0,.492-2.911V9.14a8.525,8.525,0,0,0-.413-2.773c-.02-.059-.046-.118-.072-.177h5.861C13.039,6.19,13.432,7.513,13.432,9.14Z" fill="url(#fde1a385-1165-4fd0-aa7d-58609bc32d06)"/>
    <path d="M12.74,14.368l-1.83-1.84a.1.1,0,0,0-.14-.01l-.01.01v1.41H2.37a1.415,1.415,0,0,1,0-2.83H4.93a5.743,5.743,0,0,0,.18-.95H2.37a2.38,2.38,0,0,0,0,4.76h8.36v1.41a.1.1,0,0,0,.14.01.01.01,0,0,0,.01-.01l1.86-1.83A.085.085,0,0,0,12.74,14.368ZM18,5.468a2.386,2.386,0,0,1-2.38,2.38h-.26a6.555,6.555,0,0,0-.18-.96h.44a1.415,1.415,0,0,0,0-2.83H7.23v1.42H7.22a.1.1,0,0,1-.14,0L5.25,3.628a.075.075,0,0,1,0-.12l1.86-1.84a.01.01,0,0,0,.01-.01.107.107,0,0,1,.14.01v1.42h8.36A2.379,2.379,0,0,1,18,5.468Z" fill="#198ab3"/>
  </g>
</svg>
