<svg xmlns="http://www.w3.org/2000/svg" width="18" height="18" viewBox="0 0 18 18">
  <defs>
    <linearGradient id="b7bee86f-1212-445c-99b3-752dc9e4aa9e" x1="11.12" y1="1.587" x2="11.12" y2="18" gradientUnits="userSpaceOnUse">
      <stop offset="0" stop-color="#32d4f5"/>
      <stop offset="1" stop-color="#198ab3"/>
    </linearGradient>
  </defs>
  <g id="a7574b7b-14a3-4179-b141-a8f43943a377">
    <rect x="0.178" width="13.404" height="16.413" rx="0.547" fill="#198ab3"/>
    <rect x="4.417" y="1.587" width="13.404" height="16.413" rx="0.547" fill="url(#b7bee86f-1212-445c-99b3-752dc9e4aa9e)"/>
    <rect x="5.274" y="2.451" width="11.692" height="14.685" rx="0.137" fill="#fff"/>
    <path d="M8.164,8.7H7.017A.137.137,0,0,1,6.88,8.56V7.414a.137.137,0,0,1,.137-.137H8.164a.136.136,0,0,1,.136.137V8.56A.136.136,0,0,1,8.164,8.7Zm7.2-.137V7.414a.137.137,0,0,0-.137-.137H9.545a.136.136,0,0,0-.136.137V8.56a.136.136,0,0,0,.136.137h5.677A.137.137,0,0,0,15.359,8.56ZM8.3,11.414V10.268a.136.136,0,0,0-.136-.137H7.017a.137.137,0,0,0-.137.137v1.146a.137.137,0,0,0,.137.137H8.164A.136.136,0,0,0,8.3,11.414Zm7.059,0V10.268a.137.137,0,0,0-.137-.137H9.545a.136.136,0,0,0-.136.137v1.146a.136.136,0,0,0,.136.137h5.677A.137.137,0,0,0,15.359,11.414ZM8.3,14.268V13.122a.136.136,0,0,0-.136-.137H7.017a.137.137,0,0,0-.137.137v1.146a.137.137,0,0,0,.137.137H8.164A.136.136,0,0,0,8.3,14.268Zm7.059,0V13.122a.137.137,0,0,0-.137-.137H9.545a.136.136,0,0,0-.136.137v1.146a.136.136,0,0,0,.136.137h5.677A.137.137,0,0,0,15.359,14.268Z" fill="#9cebff"/>
    <g>
      <path d="M7.457,3.123l3.024,3.024a.36.36,0,0,1,0,.51L7.457,9.681a.161.161,0,0,1-.275-.114V7.708a.161.161,0,0,0-.161-.161H1.881a.128.128,0,0,1-.128-.129V5.386a.128.128,0,0,1,.128-.128h5.14A.161.161,0,0,0,7.182,5.1V3.237A.161.161,0,0,1,7.457,3.123Z" fill="#773adc"/>
      <path d="M7.344,3.075a.158.158,0,0,1,.113.048l3.024,3.024a.36.36,0,0,1,0,.51L7.457,9.681a.158.158,0,0,1-.113.048.161.161,0,0,1-.162-.162V7.708a.161.161,0,0,0-.161-.161H1.881a.128.128,0,0,1-.128-.129V5.386a.128.128,0,0,1,.128-.128h5.14A.161.161,0,0,0,7.182,5.1V3.237a.161.161,0,0,1,.162-.162m0-.389h0a.551.551,0,0,0-.551.551V4.869H1.881a.518.518,0,0,0-.517.517V7.418a.519.519,0,0,0,.517.518H6.793V9.567a.551.551,0,0,0,.551.551.542.542,0,0,0,.388-.162l3.024-3.024a.751.751,0,0,0,0-1.06L7.732,2.848a.546.546,0,0,0-.388-.162Z" fill="#fff"/>
    </g>
  </g>
</svg>
