<svg id="a2777fcf-af25-4dba-b3d5-9c5ab6e1b653" xmlns="http://www.w3.org/2000/svg" width="20" height="20" viewBox="0 0 20 20">
  <path d="M10,2a8,8,0,1,1-8,8A8,8,0,0,1,10,2Zm0,1a7,7,0,1,0,7,7A7,7,0,0,0,10,3Zm0,10.5a.75.75,0,1,1-.75.75A.75.75,0,0,1,10,13.5Zm0-8a2.5,2.5,0,0,1,1.6513,4.3771l-.1546.1253-.2185.1631-.0876.0717a1.9678,1.9678,0,0,0-.156.1487A2.2156,2.2156,0,0,0,10.5,12a.5.5,0,0,1-1,0,3.2,3.2,0,0,1,.8054-2.2984,3.1172,3.1172,0,0,1,.3555-.3229l.2467-.1843.118-.1A1.5,1.5,0,1,0,8.5,8a.5.5,0,0,1-1,0A2.5,2.5,0,0,1,10,5.5Z" fill="#212121"/>
</svg>
