<svg xmlns="http://www.w3.org/2000/svg" width="18" height="18" viewBox="0 0 18 18">
  <defs>
    <linearGradient id="e3072abf-1b8e-4f1a-b406-967eeafc2979" x1="-46.536" y1="151.979" x2="-46.536" y2="172.204" gradientTransform="translate(55.536 -152.952)" gradientUnits="userSpaceOnUse">
      <stop offset="0.267" stop-color="#5ea0ef"/>
      <stop offset="1" stop-color="#0078d4"/>
    </linearGradient>
    <linearGradient id="e3d212f5-e48f-4fdb-b932-9a33895c71f3" x1="9.451" y1="0.714" x2="18.304" y2="9.567" gradientUnits="userSpaceOnUse">
      <stop offset="0.071" stop-color="#5ea0ef" stop-opacity="0"/>
      <stop offset="1" stop-color="#005ba1"/>
    </linearGradient>
  </defs>
  <g id="a03ec4e7-6dd9-49eb-9440-26ebf25f5dfa">
    <g>
      <g>
        <path d="M15.636,2.962l-.6-.6a.281.281,0,0,0-.4,0l-.647.647L11.781,5.223a.278.278,0,0,0,.011.407c.1.089.2.183.3.28s.19.2.279.3a.28.28,0,0,0,.408.012l2.211-2.212.648-.647A.281.281,0,0,0,15.636,2.962Z" fill="#5ea0ef"/>
        <path d="M10.646.5A.281.281,0,0,0,10.39.2L9.547.123a.281.281,0,0,0-.3.256L9.236.452,8.927,3.984a.28.28,0,0,0,.224.3,5.013,5.013,0,0,1,.784.223.282.282,0,0,0,.381-.237L10.611.893Z" fill="#83b9f9"/>
        <path d="M17.875,8.451,17.8,7.608a.282.282,0,0,0-.3-.256l-.39.034-3.376.3a.281.281,0,0,0-.237.381,5.067,5.067,0,0,1,.223.786.279.279,0,0,0,.3.223l3.532-.309.073-.007A.28.28,0,0,0,17.875,8.451Z" fill="#0078d4"/>
      </g>
      <g>
        <path d="M4.034,0a.79.79,0,0,1,.372.372c.476.84.954,1.679,1.424,2.523.209.376.4.761.6,1.145a1.5,1.5,0,0,1,.1.295.543.543,0,0,1-.142.531,1.2,1.2,0,0,1-.11.1C5.662,5.46,5.1,6.01,4.543,6.557a.651.651,0,0,0-.253.5.945.945,0,0,0,.079.345A13.185,13.185,0,0,0,6.51,10.692a12.041,12.041,0,0,0,3.6,2.7c.116.056.225.125.342.18a1.731,1.731,0,0,0,.314.126.6.6,0,0,0,.6-.174c.2-.2.4-.393.589-.6.362-.393.717-.792,1.073-1.191a.624.624,0,0,1,.48-.261.982.982,0,0,1,.267.049,5.1,5.1,0,0,1,.932.451q1.415.8,2.823,1.6a3.268,3.268,0,0,1,.275.182.429.429,0,0,1,.184.355.7.7,0,0,0,.015.1l-.044.489a.615.615,0,0,0-.029.089,5.585,5.585,0,0,1-.285,1.015,3.2,3.2,0,0,1-1.182,1.54,3.81,3.81,0,0,1-1.814.636,7.323,7.323,0,0,1-2.084-.105,12.034,12.034,0,0,1-2.04-.568,17.988,17.988,0,0,1-1.771-.794A13.648,13.648,0,0,1,6.6,15.194a19.912,19.912,0,0,1-2.418-2.189,16.808,16.808,0,0,1-1.892-2.348,16.156,16.156,0,0,1-.9-1.606A13.686,13.686,0,0,1,.213,5.808a7.926,7.926,0,0,1-.2-2.171A.871.871,0,0,0,0,3.524l.014-.15c.011-.049.023-.1.033-.146C.1,3,.13,2.763.2,2.537A3.186,3.186,0,0,1,1.744.556,4.864,4.864,0,0,1,3.416.027c.142-.022.286-.03.43-.044Z" fill="url(#e3072abf-1b8e-4f1a-b406-967eeafc2979)"/>
        <path d="M14.988,4.007,12.777,6.219a.28.28,0,0,1-.408-.012q-.134-.151-.279-.3c-.1-.1-.2-.191-.3-.28a.279.279,0,0,1-.011-.408l2.211-2.211.647-.647a.281.281,0,0,1,.4,0l.6.6a.281.281,0,0,1,0,.4ZM10.39.2,9.547.123a.281.281,0,0,0-.3.256L9.236.453,8.927,3.984a.28.28,0,0,0,.224.3,5.013,5.013,0,0,1,.784.223.282.282,0,0,0,.381-.237L10.611.893,10.646.5A.281.281,0,0,0,10.39.2ZM17.8,7.608a.282.282,0,0,0-.3-.256l-.39.034-3.376.3a.281.281,0,0,0-.237.381,5.067,5.067,0,0,1,.223.786.279.279,0,0,0,.3.223l3.532-.309.073-.007a.28.28,0,0,0,.255-.3Z" fill="url(#e3d212f5-e48f-4fdb-b932-9a33895c71f3)"/>
      </g>
    </g>
  </g>
</svg>
