<?xml version="1.0" encoding="utf-8"?>
<!-- Generator: Adobe Illustrator 24.0.1, SVG Export Plug-In . SVG Version: 6.00 Build 0)  -->
<svg version="1.1" id="f3fd6249-104f-4be9-975d-cbeefcf4479a"
	 xmlns="http://www.w3.org/2000/svg"  x="0px" y="0px" viewBox="0 0 256 256"
	 style="enable-background:new 0 0 256 256;" xml:space="preserve">
<style type="text/css">
	.st0{fill:#949494;}
	.st1{fill:#B3B3B3;}
	.st2{fill:#E6E6E6;}
	.st3{fill:#50E6FF;}
	.st4{fill:url(#fe5a0693-7ac1-41ed-8008-1d80e4daeb81_4_);}
	.st5{fill:#F2F2F2;}
	.st6{fill:url(#fe5a0693-7ac1-41ed-8008-1d80e4daeb81_5_);}
	.st7{fill:url(#fe5a0693-7ac1-41ed-8008-1d80e4daeb81_6_);}
	.st8{fill:url(#fe5a0693-7ac1-41ed-8008-1d80e4daeb81_7_);}
</style>
<g>
	<title>Azure Dev Spaces</title>
	<g>
		<polygon class="st0" points="-411.5,87.4 -411.5,122.1 -441.3,139.5 -441.3,104.8 		"/>
		<polygon class="st1" points="-411.5,87.4 -441.3,104.8 -471,87.4 -441.3,70.1 		"/>
		<polygon class="st2" points="-441.3,104.8 -441.3,139.5 -471,122.1 -471,87.4 		"/>
		<polygon class="st0" points="-444.6,146 -444.6,180.6 -474.3,198 -474.3,163.4 		"/>
		<polygon class="st1" points="-444.6,146 -474.3,163.4 -504.1,146 -474.3,128.6 		"/>
		<polygon class="st2" points="-474.3,163.4 -474.3,198 -504.1,180.6 -504.1,146 		"/>
		<polygon class="st3" points="-407.9,128.5 -437.6,146 -437.6,180.7 -407.9,198.1 -378,180.7 -378,146 		"/>
		
			<linearGradient id="fe5a0693-7ac1-41ed-8008-1d80e4daeb81_4_" gradientUnits="userSpaceOnUse" x1="-407.4107" y1="930.2961" x2="-407.4107" y2="893.9601" gradientTransform="matrix(1 0 0 1 0 -748)">
			<stop  offset="0" style="stop-color:#0078D4"/>
			<stop  offset="0.16" style="stop-color:#1380DA"/>
			<stop  offset="0.53" style="stop-color:#3C91E5"/>
			<stop  offset="0.82" style="stop-color:#559CEC"/>
			<stop  offset="1" style="stop-color:#5EA0EF"/>
		</linearGradient>
		<path id="fe5a0693-7ac1-41ed-8008-1d80e4daeb81" class="st4" d="M-386.3,182.4h-42c-2.3,0-4.1-1.9-4-4.2c0,0,0,0,0,0l0,0v-28.3
			c-0.2-2,1.3-3.8,3.3-3.9c0,0,0,0,0,0h42.4c2.2,0.1,4,2,4,4.2v28c0.3,2-1.1,3.9-3.1,4.2C-385.6,182.4-386.3,182.4-386.3,182.4z"/>
		<g id="a973cc63-1b5a-44cb-848b-8b6365660e39">
			<path class="st5" d="M-414.3,175.5l-11.3-11.1c-0.4-0.5-0.4-1.2,0-1.7l11.5-10.7c0.5-0.4,1.1-0.4,1.6,0l1,1
				c0.4,0.4,0.5,1.1,0.1,1.5c0,0,0,0-0.1,0.1l0,0l-8.8,8.2c-0.4,0.5-0.4,1.2,0,1.6l8.7,8.9c0.4,0.4,0.5,1,0.1,1.4
				c0,0-0.1,0.1-0.1,0.1l0,0l-0.7,0.7c-0.4,0.4-1.1,0.4-1.6,0H-414.3z"/>
		</g>
		<g id="b56fecf7-ed4b-4c05-8b69-1204b7229a87">
			<path class="st5" d="M-400.8,175.5l11.2-11.1c0.5-0.4,0.5-1.1,0.1-1.6c0,0-0.1-0.1-0.1-0.1l-11.8-10.7c-0.4-0.4-1.1-0.5-1.5-0.1
				c0,0,0,0-0.1,0.1l0,0l-0.8,0.9c-0.4,0.4-0.4,1.1,0,1.6l8.9,8.3c0.5,0.4,0.5,1.1,0.1,1.6c0,0-0.1,0.1-0.1,0.1l-8.5,8.7
				c-0.4,0.4-0.5,1-0.1,1.4c0,0,0.1,0.1,0.1,0.1l0,0l0.6,0.6c0.2,0.5,0.8,0.8,1.3,0.6c0,0,0.1,0,0.1-0.1
				C-401.1,175.8-401,175.7-400.8,175.5z"/>
		</g>
	</g>
</g>
<g>
	<title>Azure Dev Spaces</title>
	<g>
		<polygon class="st0" points="-266.5,92.1 -266.5,123.3 -293.2,139 -293.2,107.7 		"/>
		<polygon class="st1" points="-266.5,92.1 -293.2,107.8 -320,92.1 -293.2,76.6 		"/>
		<polygon class="st2" points="-293.2,107.8 -293.2,139 -320,123.3 -320,92.1 		"/>
		<polygon class="st0" points="-296.3,144.8 -296.3,175.9 -322.9,191.5 -322.9,160.4 		"/>
		<polygon class="st1" points="-296.3,144.8 -322.9,160.5 -349.7,144.8 -322.9,129.2 		"/>
		<polygon class="st2" points="-322.9,160.5 -322.9,191.5 -349.7,175.9 -349.7,144.8 		"/>
		<polygon class="st3" points="-263.2,129.1 -290,144.8 -290,176 -263.2,191.6 -236.4,176 -236.4,144.8 		"/>
		
			<linearGradient id="fe5a0693-7ac1-41ed-8008-1d80e4daeb81_5_" gradientUnits="userSpaceOnUse" x1="-262.8296" y1="925.3974" x2="-262.8296" y2="892.7518" gradientTransform="matrix(1 0 0 1 0 -748)">
			<stop  offset="0" style="stop-color:#0078D4"/>
			<stop  offset="0.16" style="stop-color:#1380DA"/>
			<stop  offset="0.53" style="stop-color:#3C91E5"/>
			<stop  offset="0.82" style="stop-color:#559CEC"/>
			<stop  offset="1" style="stop-color:#5EA0EF"/>
		</linearGradient>
		<path id="fe5a0693-7ac1-41ed-8008-1d80e4daeb81_1_" class="st6" d="M-243.8,177.5h-37.7c-2,0-3.6-1.7-3.6-3.7c0,0,0,0,0,0l0,0
			v-25.4c-0.1-1.8,1.2-3.4,3-3.5c0,0,0,0,0,0h38.1c2,0.1,3.6,1.8,3.6,3.8v25.1c0.3,1.8-1,3.5-2.8,3.8
			C-243.3,177.5-243.8,177.5-243.8,177.5z"/>
		<g id="a973cc63-1b5a-44cb-848b-8b6365660e39_1_">
			<path class="st5" d="M-269,171.3l-10.1-10c-0.4-0.4-0.4-1.1,0-1.5l10.3-9.6c0.4-0.3,1-0.3,1.4,0l0.9,0.9c0.4,0.4,0.4,1,0.1,1.4
				c0,0,0,0-0.1,0.1l0,0l-7.9,7.3c-0.4,0.4-0.4,1.1,0,1.5l7.8,8c0.4,0.3,0.4,0.9,0.1,1.3c0,0-0.1,0.1-0.1,0.1l0,0l-0.6,0.6
				c-0.4,0.4-1,0.4-1.4,0H-269z"/>
		</g>
		<g id="b56fecf7-ed4b-4c05-8b69-1204b7229a87_1_">
			<path class="st5" d="M-256.9,171.3l10-10c0.4-0.4,0.5-1,0.1-1.5c0,0-0.1-0.1-0.1-0.1l-10.6-9.6c-0.4-0.4-1-0.4-1.4-0.1
				c0,0,0,0-0.1,0.1l0,0l-0.7,0.8c-0.4,0.4-0.4,1,0,1.4l8,7.5c0.4,0.4,0.5,1,0.1,1.5c0,0-0.1,0.1-0.1,0.1l-7.7,7.9
				c-0.4,0.3-0.4,0.9-0.1,1.3c0,0,0.1,0.1,0.1,0.1l0,0l0.6,0.6c0.2,0.5,0.7,0.7,1.2,0.5c0,0,0.1,0,0.1-0.1
				C-257.2,171.5-257,171.4-256.9,171.3z"/>
		</g>
	</g>
</g>
<g>
	<title>Azure Dev Spaces</title>
	<g>
		<polygon class="st0" points="-145.6,114.2 -145.6,129 -158.3,136.4 -158.3,121.6 		"/>
		<polygon class="st1" points="-145.6,114.2 -158.3,121.6 -171,114.2 -158.3,106.8 		"/>
		<polygon class="st2" points="-158.3,121.6 -158.3,136.4 -171,129 -171,114.2 		"/>
		<polygon class="st0" points="-159.8,139.2 -159.8,153.9 -172.4,161.3 -172.4,146.6 		"/>
		<polygon class="st1" points="-159.8,139.2 -172.4,146.6 -185.1,139.2 -172.4,131.7 		"/>
		<polygon class="st2" points="-172.4,146.6 -172.4,161.3 -185.1,153.9 -185.1,139.2 		"/>
		<polygon class="st3" points="-144.1,131.7 -156.8,139.1 -156.8,153.9 -144.1,161.3 -131.4,153.9 -131.4,139.1 		"/>
		
			<linearGradient id="fe5a0693-7ac1-41ed-8008-1d80e4daeb81_6_" gradientUnits="userSpaceOnUse" x1="-143.895" y1="902.6163" x2="-143.895" y2="887.1328" gradientTransform="matrix(1 0 0 1 0 -748)">
			<stop  offset="0" style="stop-color:#0078D4"/>
			<stop  offset="0.16" style="stop-color:#1380DA"/>
			<stop  offset="0.53" style="stop-color:#3C91E5"/>
			<stop  offset="0.82" style="stop-color:#559CEC"/>
			<stop  offset="1" style="stop-color:#5EA0EF"/>
		</linearGradient>
		<path id="fe5a0693-7ac1-41ed-8008-1d80e4daeb81_2_" class="st7" d="M-134.9,154.6h-17.9c-1,0-1.7-0.8-1.7-1.8c0,0,0,0,0,0l0,0
			v-12.1c-0.1-0.9,0.6-1.6,1.4-1.7c0,0,0,0,0,0h18c1,0.1,1.7,0.8,1.7,1.8v11.9c0.1,0.9-0.5,1.7-1.3,1.8
			C-134.6,154.6-134.9,154.6-134.9,154.6z"/>
		<g id="a973cc63-1b5a-44cb-848b-8b6365660e39_2_">
			<path class="st5" d="M-146.8,151.7l-4.8-4.7c-0.2-0.2-0.2-0.5,0-0.7l4.9-4.6c0.2-0.2,0.5-0.2,0.7,0l0.4,0.4
				c0.2,0.2,0.2,0.5,0,0.6c0,0,0,0,0,0l0,0l-3.8,3.5c-0.2,0.2-0.2,0.5,0,0.7l3.7,3.8c0.2,0.2,0.2,0.4,0,0.6c0,0,0,0,0,0l0,0
				l-0.3,0.3c-0.2,0.2-0.5,0.2-0.7,0H-146.8z"/>
		</g>
		<g id="b56fecf7-ed4b-4c05-8b69-1204b7229a87_2_">
			<path class="st5" d="M-141.1,151.7l4.8-4.7c0.2-0.2,0.2-0.5,0-0.7c0,0,0,0,0,0l-5-4.6c-0.2-0.2-0.5-0.2-0.6,0c0,0,0,0,0,0l0,0
				l-0.3,0.4c-0.2,0.2-0.2,0.5,0,0.7l3.8,3.5c0.2,0.2,0.2,0.5,0,0.7c0,0,0,0,0,0l-3.6,3.7c-0.2,0.2-0.2,0.4,0,0.6c0,0,0,0,0,0l0,0
				l0.3,0.3c0.1,0.2,0.3,0.3,0.6,0.2c0,0,0,0,0.1,0C-141.2,151.8-141.1,151.8-141.1,151.7z"/>
		</g>
	</g>
</g>
<g>
	<title>Azure Dev Spaces</title>
	<g>
		<polygon class="st0" points="187.1,34.7 187.1,104.1 127.6,138.9 127.6,69.4 		"/>
		<polygon class="st1" points="187.1,34.7 127.6,69.5 68.2,34.7 127.6,0 		"/>
		<polygon class="st2" points="127.6,69.5 127.6,138.9 68.2,104.1 68.2,34.7 		"/>
		<polygon class="st0" points="120.9,151.9 120.9,221 61.6,255.9 61.6,186.6 		"/>
		<polygon class="st1" points="120.9,151.9 61.6,186.8 1.9,151.9 61.6,117.1 		"/>
		<polygon class="st2" points="61.6,186.8 61.6,255.9 1.9,221 1.9,151.9 		"/>
		<polygon class="st3" points="194.4,117 135,151.8 135,221.3 194.4,256 254.1,221.3 254.1,151.8 		"/>
		
			<linearGradient id="fe5a0693-7ac1-41ed-8008-1d80e4daeb81_7_" gradientUnits="userSpaceOnUse" x1="195.3259" y1="972.4658" x2="195.3259" y2="899.7939" gradientTransform="matrix(1 0 0 1 0 -748)">
			<stop  offset="0" style="stop-color:#0078D4"/>
			<stop  offset="0.16" style="stop-color:#1380DA"/>
			<stop  offset="0.53" style="stop-color:#3C91E5"/>
			<stop  offset="0.82" style="stop-color:#559CEC"/>
			<stop  offset="1" style="stop-color:#5EA0EF"/>
		</linearGradient>
		<path id="fe5a0693-7ac1-41ed-8008-1d80e4daeb81_3_" class="st8" d="M237.6,224.6h-84c-4.5-0.1-8.1-3.8-8-8.3c0,0,0,0,0,0l0,0
			v-56.6c-0.3-4,2.7-7.6,6.7-7.9c0,0,0,0,0,0H237c4.5,0.3,8,4,8,8.5v55.9c0.6,4-2.1,7.8-6.2,8.5
			C238.9,224.6,237.6,224.6,237.6,224.6z"/>
		<g id="a973cc63-1b5a-44cb-848b-8b6365660e39_3_">
			<path class="st5" d="M181.5,210.8L159,188.6c-0.9-1-0.9-2.5,0-3.4l22.9-21.4c0.9-0.7,2.2-0.7,3.2,0l2,2c0.9,0.8,0.9,2.2,0.1,3
				c0,0-0.1,0.1-0.1,0.1l0,0l-17.6,16.3c-0.9,0.9-0.9,2.4,0,3.3l17.3,17.8c0.8,0.7,0.9,2,0.2,2.8c-0.1,0.1-0.1,0.1-0.2,0.2l0,0
				l-1.4,1.4c-0.9,0.8-2.3,0.8-3.2,0H181.5z"/>
		</g>
		<g id="b56fecf7-ed4b-4c05-8b69-1204b7229a87_3_">
			<path class="st5" d="M208.5,210.8l22.4-22.2c0.9-0.8,1-2.3,0.2-3.2c-0.1-0.1-0.1-0.1-0.2-0.2l-23.5-21.4c-0.8-0.9-2.2-0.9-3-0.1
				c0,0-0.1,0.1-0.1,0.1l0,0l-1.6,1.7c-0.8,0.9-0.8,2.3,0,3.2l17.8,16.6c0.9,0.8,1,2.3,0.2,3.2c-0.1,0.1-0.1,0.1-0.2,0.2l-17.1,17.5
				c-0.8,0.7-0.9,2-0.2,2.8c0.1,0.1,0.1,0.1,0.2,0.2l0,0l1.3,1.3c0.4,1,1.6,1.5,2.6,1.1c0.1,0,0.2-0.1,0.3-0.1
				C207.9,211.4,208.2,211.2,208.5,210.8z"/>
		</g>
	</g>
</g>
</svg>
