<svg xmlns="http://www.w3.org/2000/svg" width="18" height="18" viewBox="0 0 18 18">
  <defs>
    <linearGradient id="af463148-731c-4ee7-a3d0-e1b11a410c8a" x1="-1461.31" y1="1009.393" x2="-1461.31" y2="1027.859" gradientTransform="translate(-1452.328 1025.516) rotate(180)" gradientUnits="userSpaceOnUse">
      <stop offset="0" stop-color="#0078d4"/>
      <stop offset="1" stop-color="#83b9f9"/>
    </linearGradient>
  </defs>
  <g id="a64de0e4-55d0-4639-872a-1163874d1595">
    <g>
      <polygon points="15.293 14.091 9.021 17.736 2.707 14.091 8.979 10.446 15.293 14.091" fill="#005ba1"/>
      <polygon points="15.293 12.579 9.021 16.225 2.707 12.58 8.979 8.934 15.293 12.579" fill="#50e6ff"/>
      <polygon points="2.894 3.78 8.987 0.264 15.078 3.78 15.078 10.815 8.987 14.331 2.887 10.815 2.887 3.804 2.894 3.78" fill="url(#af463148-731c-4ee7-a3d0-e1b11a410c8a)"/>
      <polygon points="2.903 3.792 8.981 7.287 8.982 14.32 2.894 10.812 2.894 3.817 2.903 3.792" fill="#0078d4"/>
      <path d="M5.983,7.946a.042.042,0,0,0-.043,0l-1.323.75c-.039.022-.013.113.042.144l.7.336.044.025a.134.134,0,0,1,.061.106L5.46,10.892a.382.382,0,0,0,.17.3l.524.313c.1.056.174.013.175-.1l.006-1.6c0-.04.026-.055.061-.036l.043.025.819.5c.055.031.082-.029.044-.1L6.026,7.991A.124.124,0,0,0,5.983,7.946Z" fill="#fff" opacity="0.9"/>
      <path d="M5.1,5.057l5.94-3.609L12.9,2.521,6.961,6.132V7.276a.085.085,0,0,1-.15.054l-.788-.938a.089.089,0,0,0-.088-.028L5.2,6.521a.085.085,0,0,1-.1-.066l0-.017Z" fill="#fff" opacity="0.5"/>
    </g>
  </g>
</svg>
