<svg width="18" height="18" viewBox="0 0 18 18" xmlns="http://www.w3.org/2000/svg">
<path d="M17.4 0.76001H0.6C0.268629 0.76001 0 1.02864 0 1.36001V12.91C0 13.2414 0.268629 13.51 0.6 13.51H17.4C17.7314 13.51 18 13.2414 18 12.91V1.36001C18 1.02864 17.7314 0.76001 17.4 0.76001Z" fill="url(#6f49fffe-79ad-4f7f-9be5-482e6fb8a7ea)"/>
<path d="M16.6501 1.88H1.35005C1.18436 1.88 1.05005 2.01432 1.05005 2.18V12.08C1.05005 12.2457 1.18436 12.38 1.35005 12.38H16.6501C16.8157 12.38 16.9501 12.2457 16.9501 12.08V2.18C16.9501 2.01432 16.8157 1.88 16.6501 1.88Z" fill="white"/>
<path d="M14.94 9.34C14.94 9.41521 14.9109 9.4875 14.8586 9.54161C14.8064 9.59571 14.7352 9.62741 14.66 9.63H8.16C8.08308 9.63 8.00932 9.59945 7.95493 9.54506C7.90055 9.49068 7.87 9.41692 7.87 9.34C7.87 9.26309 7.90055 9.18933 7.95493 9.13494C8.00932 9.08056 8.08308 9.05 8.16 9.05H14.66C14.6976 9.04998 14.7349 9.05754 14.7695 9.07223C14.8041 9.08692 14.8355 9.10845 14.8616 9.13552C14.8877 9.16258 14.9082 9.19464 14.9216 9.22978C14.9351 9.26491 14.9413 9.3024 14.94 9.34" fill="#198AB3"/>
<path d="M14.94 7.54C14.94 7.61521 14.9109 7.6875 14.8586 7.7416C14.8064 7.79571 14.7352 7.82741 14.66 7.83H8.16C8.08308 7.83 8.00932 7.79945 7.95493 7.74506C7.90055 7.69068 7.87 7.61691 7.87 7.54C7.87 7.46309 7.90055 7.38932 7.95493 7.33494C8.00932 7.28055 8.08308 7.25 8.16 7.25H14.66C14.6976 7.24998 14.7349 7.25754 14.7695 7.27223C14.8041 7.28692 14.8355 7.30844 14.8616 7.33551C14.8877 7.36258 14.9082 7.39464 14.9216 7.42978C14.9351 7.46491 14.9413 7.5024 14.94 7.54" fill="#198AB3"/>
<path d="M14.94 4.93C14.9413 4.9676 14.9351 5.00509 14.9216 5.04022C14.9081 5.07536 14.8877 5.10742 14.8616 5.13449C14.8355 5.16156 14.8041 5.18308 14.7695 5.19777C14.7349 5.21246 14.6976 5.22002 14.66 5.22H3.76998C3.7319 5.22 3.69419 5.2125 3.659 5.19793C3.62382 5.18335 3.59185 5.16199 3.56492 5.13506C3.53799 5.10813 3.51663 5.07616 3.50206 5.04098C3.48748 5.00579 3.47998 4.96808 3.47998 4.93C3.47998 4.89192 3.48748 4.85421 3.50206 4.81902C3.51663 4.78384 3.53799 4.75187 3.56492 4.72494C3.59185 4.69801 3.62382 4.67665 3.659 4.66207C3.69419 4.6475 3.7319 4.64 3.76998 4.64H14.66C14.6976 4.63998 14.7349 4.64754 14.7695 4.66223C14.8041 4.67692 14.8355 4.69844 14.8616 4.72551C14.8877 4.75258 14.9081 4.78464 14.9216 4.81977C14.9351 4.85491 14.9413 4.8924 14.94 4.93" fill="#198AB3"/>
<path d="M5.12998 12.69C4.66734 13.106 4.06716 13.3362 3.44498 13.3362C2.8228 13.3362 2.22262 13.106 1.75998 12.69L1.54998 16.88C1.54492 16.9481 1.5611 17.0161 1.5963 17.0746C1.63151 17.1331 1.68399 17.1793 1.74652 17.2067C1.80906 17.2341 1.87856 17.2415 1.94545 17.2277C2.01233 17.214 2.07331 17.1799 2.11998 17.13L3.41998 15.81L4.72998 17.14C4.77611 17.189 4.83611 17.2227 4.90195 17.2367C4.96778 17.2506 5.03631 17.2441 5.09833 17.218C5.16035 17.1918 5.21291 17.1474 5.24895 17.0906C5.28499 17.0337 5.3028 16.9672 5.29998 16.9L5.12998 12.69Z" fill="#005294"/>
<path d="M3.47997 13.56C5.14235 13.56 6.48997 12.2079 6.48997 10.54C6.48997 8.8721 5.14235 7.52 3.47997 7.52C1.81759 7.52 0.469971 8.8721 0.469971 10.54C0.469971 12.2079 1.81759 13.56 3.47997 13.56Z" fill="#0088CC"/>
<path d="M3.47994 12.83C4.74467 12.83 5.76994 11.8047 5.76994 10.54C5.76994 9.27527 4.74467 8.25 3.47994 8.25C2.21521 8.25 1.18994 9.27527 1.18994 10.54C1.18994 11.8047 2.21521 12.83 3.47994 12.83Z" fill="#52D3FF"/>
<defs>
<linearGradient id="6f49fffe-79ad-4f7f-9be5-482e6fb8a7ea" x1="9" y1="13.51" x2="9" y2="0.76001" gradientUnits="userSpaceOnUse">
<stop stop-color="#45ADD3"/>
<stop offset="1" stop-color="#33C9E2"/>
</linearGradient>
</defs>
</svg>
