<svg xmlns="http://www.w3.org/2000/svg" width="18" height="18" viewBox="0 0 18 18">
  <defs>
    <linearGradient id="e918e2d0-df2c-411d-9861-3aac7220a2db" x1="8.169" y1="2.944" x2="8.002" y2="22.754" gradientUnits="userSpaceOnUse">
      <stop offset="0.022" stop-color="#a67af4"/>
      <stop offset="0.249" stop-color="#a071f1"/>
      <stop offset="0.613" stop-color="#8e5ae8"/>
      <stop offset="1" stop-color="#773adc"/>
    </linearGradient>
  </defs>
  <g id="aea49ea8-bf62-4420-aec0-7d15710c61da">
    <g>
      <path d="M1.529,1.706,2.808.216A.621.621,0,0,1,3.283,0H15.551a.856.856,0,0,1,.937.767.815.815,0,0,1,0,.11V16.2a.6.6,0,0,1-.211.454l-1.374,1.257H2.364l-.856-.348Z" fill="#773adc"/>
      <path d="M2.564,1.7,3.346.807a.531.531,0,0,1,.37-.19H15.224a.549.549,0,0,1,.549.55V15.728a.546.546,0,0,1-.179.412l-1.226,1.11Z" fill="#fff"/>
      <path d="M14.283,1.684H1.6a.064.064,0,0,0-.064.064V17.6a.413.413,0,0,0,.413.4H14.283a.4.4,0,0,0,.4-.4V2.1A.413.413,0,0,0,14.283,1.684Z" fill="url(#e918e2d0-df2c-411d-9861-3aac7220a2db)"/>
      <path d="M11.469,7.678,8.023,6.5V6.489L8,6.493l-.013,0-3.694.682v5.035L7.986,13,8,12.994,8.023,13v-.015l3.463-1.4a.323.323,0,0,0,.2-.3v-3.3A.324.324,0,0,0,11.469,7.678Zm-3.98-.394V12.12l-1.2-.195V7.493Zm-1.63.273v4.271l-1.046-.213V7.732Z" fill="#fff"/>
    </g>
  </g>
  <metadata>
   <rdf:RDF xmlns:rdf="http://www.w3.org/1999/02/22-rdf-syntax-ns#">
      <rdf:li>public:true</rdf:li>
      <rdf:li>sdk:false</rdf:li>
      <rdf:li>category:Compute</rdf:li>
   </rdf:RDF>
</metadata>
</svg>
