<svg id="uuid-a360b2c4-63e9-46bc-87fa-c826e0d65520" xmlns="http://www.w3.org/2000/svg" width="18" height="18" viewBox="0 0 18 18">
  <defs>
    <clipPath id="uuid-5f72c48b-2566-4631-b56e-f19004fdfb12">
      <circle cx="-626.176" cy="422.798" r="50.865" fill="none"/>
    </clipPath>
    <linearGradient id="uuid-ebb646fe-8d17-4275-b0c8-d1a41b68e932" x1="-284.787" y1="859.288" x2="-271.213" y2="859.288" gradientTransform="translate(287 869.516) scale(1 -1)" gradientUnits="userSpaceOnUse">
      <stop offset="0" stop-color="#005ba1"/>
      <stop offset=".07" stop-color="#0060a9"/>
      <stop offset=".36" stop-color="#0071c8"/>
      <stop offset=".52" stop-color="#0078d4"/>
      <stop offset=".64" stop-color="#0074cd"/>
      <stop offset=".82" stop-color="#006abb"/>
      <stop offset="1" stop-color="#005ba1"/>
    </linearGradient>
  </defs>
  <g>
    <g>
      <path d="m9,4.913c-3.748,0-6.787-1.059-6.787-2.456v13.087c0,1.345,2.986,2.435,6.692,2.456h.095c3.748,0,6.787-1.059,6.787-2.456V2.456c0,1.366-3.039,2.456-6.787,2.456Z" fill="url(#uuid-ebb646fe-8d17-4275-b0c8-d1a41b68e932)"/>
      <path d="m15.787,2.456c0,1.366-3.039,2.456-6.787,2.456S2.213,3.854,2.213,2.456,5.252,0,9,0s6.787,1.059,6.787,2.456" fill="#e8e8e8"/>
      <path d="m14.209,2.255c0,.868-2.34,1.567-5.209,1.567s-5.209-.699-5.209-1.567,2.34-1.556,5.209-1.556,5.209.699,5.209,1.556" fill="#50e6ff"/>
      <path d="m9,2.647c-1.397-.036-2.79.168-4.119.604,1.33.427,2.723.62,4.119.572,1.398.041,2.793-.167,4.119-.614-1.332-.415-2.724-.605-4.119-.561Z" fill="#198ab3"/>
    </g>
    <path d="m8.319,7.327c.259,0,.406.258.406.517v1.586h-.328c-.109-.268-.372-.458-.679-.458-.404,0-.732.328-.732.732s.328.732.732.732c.307,0,.57-.189.679-.458h.328v3.989c0,.218-.092.435-.287.535-.166.085-.358.142-.571.142-.553,0-.964-.28-1.229-.611-.194-.243-.322-.529-.373-.782-.147-.043-.314-.123-.465-.252-.26-.223-.462-.582-.462-1.111,0-.276.02-.517.069-.72h1.541c.248,0,.454.183.489.421-.265.11-.452.372-.452.677,0,.404.328.732.732.732s.732-.328.732-.732c0-.308-.191-.572-.46-.68-.039-.541-.49-.967-1.041-.967h-1.23c.048-.039.1-.073.157-.1.008-.004.016-.007.024-.011-.039-.134-.059-.275-.065-.412-.012-.269.028-.549.108-.798.079-.246.204-.484.38-.649.111-.104.247-.182.401-.208.073-.307.258-.562.495-.746.304-.237.703-.368,1.098-.368Zm.956,5.489h.604c.576,0,1.043-.467,1.043-1.043v-.657c.268-.109.458-.372.458-.679,0-.404-.328-.732-.732-.732s-.732.328-.732.732c0,.307.189.57.458.679v.657c0,.273-.221.494-.494.494h-.604v-4.423c0-.259.147-.517.406-.517.396,0,.794.131,1.098.368.237.184.422.439.495.746.154.025.29.104.401.208.176.165.301.404.38.649.08.249.12.529.108.798-.006.138-.026.278-.065.412.008.003.016.007.024.011.136.064.245.164.327.297.156.251.21.612.21,1.072,0,.529-.202.888-.462,1.111-.151.129-.317.21-.465.252-.051.254-.179.539-.373.782-.265.331-.676.611-1.229.611-.213,0-.405-.057-.571-.142-.194-.099-.287-.316-.287-.535v-1.152Zm-1.739-3.111c0-.101.082-.183.183-.183s.183.082.183.183-.082.183-.183.183-.183-.082-.183-.183Zm.183,2.379c-.101,0-.183.082-.183.183s.082.183.183.183.183-.082.183-.183-.082-.183-.183-.183Zm2.745-1.647c0,.101.082.183.183.183s.183-.082.183-.183-.082-.183-.183-.183-.183.082-.183.183Z" fill="#fff"/>
  </g>
</svg>