<svg id="uuid-cee01b44-ff1f-4100-9753-bb5ee8fb9c20" xmlns="http://www.w3.org/2000/svg" width="9.822" height="18" viewBox="0 0 9.822 18">
  <g id="uuid-ef76fecf-7a83-403b-901c-2a6b00bec632">
      <g>
        <path d="M3.042,7.149c.07.066.136.136.195.207l.125.149,1.24-1.201c.045.01.088.028.137.028.362,0,.655-.293.655-.655s-.293-.655-.655-.655-.655.293-.655.655c0,.059.019.112.033.166l-1.214,1.175.138.13Z" fill="#0078d4"/>
        <path d="M8.658,7.781h-.001c-.478,0-.887.289-1.066.701h-3.811l.021.2c.009.086.014.172.014.258,0,.082-.004.166-.013.249l-.02.199h3.801c.174.423.589.722,1.075.722.643,0,1.165-.521,1.165-1.164s-.521-1.164-1.165-1.164Z" fill="#0078d4"/>
        <path d="M1.322,0h-.001C.677,0,.156.521.156,1.164H.156s0,0,0,0c0,.486.298.9.721,1.075v4.27l.201-.022c.172-.018.335-.02.506-.003l.199.019V2.232c.413-.179.703-.589.703-1.067,0-.643-.521-1.164-1.165-1.164Z" fill="#0078d4"/>
        <path d="M4.672,11.58c-.058,0-.109.019-.163.033l-1.185-1.187-.127.145c-.064.073-.132.141-.2.203l-.142.128,1.191,1.193c-.011.047-.028.091-.028.141,0,.362.293.655.655.655s.655-.293.655-.655-.293-.655-.655-.655Z" fill="#0078d4"/>
        <path d="M1.784,15.768v-4.393l-.198.019c-.173.017-.336.015-.507-.003l-.201-.022v4.391c-.423.174-.722.589-.722,1.075H.156s0,0,0,0c0,.643.521,1.164,1.165,1.164s1.165-.521,1.165-1.164c0-.479-.29-.888-.703-1.067Z" fill="#0078d4"/>
      </g>
      <path d="M1.365,6.984c-.441,0-.858.144-1.205.417l-.138.108.546.546.107-.077c.202-.145.44-.222.689-.222.651,0,1.181.53,1.181,1.181s-.53,1.181-1.181,1.181c-.259,0-.505-.083-.712-.239l-.108-.082-.545.545.133.109c.347.282.784.438,1.231.438,1.076,0,1.952-.876,1.952-1.952s-.875-1.952-1.952-1.952Z" fill="#0078d4"/>
    </g>
</svg>