<svg xmlns="http://www.w3.org/2000/svg" width="18" height="18" viewBox="0 0 18 18">
  <defs>
    <linearGradient id="b3eb1d3f-e049-4c87-9a8a-f215cafb607d" x1="9" y1="16.803" x2="9" y2="7.6512" gradientUnits="userSpaceOnUse">
      <stop offset="0.0012" stop-color="#773adc"/>
      <stop offset="0.3418" stop-color="#8b55e6"/>
      <stop offset="0.7562" stop-color="#9f70f0"/>
      <stop offset="1" stop-color="#a67af4"/>
    </linearGradient>
    <linearGradient id="f12f5535-9582-4dcd-9ea8-dd2d6dcf11a8" x1="9" y1="1.197" x2="9" y2="13.1889" gradientUnits="userSpaceOnUse">
      <stop offset="0" stop-color="#50e6ff"/>
      <stop offset="1" stop-color="#32bedd"/>
    </linearGradient>
  </defs>
  <g id="e74d320a-0b0b-42b3-968a-7fa80d0701af">
    <g>
      <circle cx="9" cy="12.2271" r="4.5759" fill="url(#b3eb1d3f-e049-4c87-9a8a-f215cafb607d)"/>
      <path d="M14.1853,5.8034A4.814,4.814,0,0,0,9.2272,1.1993,4.9382,4.9382,0,0,0,4.5085,4.4176,4.5573,4.5573,0,0,0,.5,8.8079a4.6263,4.6263,0,0,0,3.58,4.3244,5.0029,5.0029,0,1,1,9.8291.0566A3.864,3.864,0,0,0,17.5,9.4741,3.8177,3.8177,0,0,0,14.1853,5.8034Z" fill="url(#f12f5535-9582-4dcd-9ea8-dd2d6dcf11a8)"/>
      <path d="M10.796,11.6115h-.6977a.4119.4119,0,1,0,0,.8237h1.51a.4119.4119,0,0,0,.4119-.4118V10.2386a.4119.4119,0,0,0-.8238,0V10.65A2.741,2.741,0,0,0,9,9.5522a2.7015,2.7015,0,0,0-2.1016.9723.4119.4119,0,0,0,.6335.5265A1.8782,1.8782,0,0,1,9,10.3759,1.923,1.923,0,0,1,10.796,11.6115Z" fill="#fff"/>
      <path d="M6.8034,14.3573v-.4119a2.7518,2.7518,0,0,0,4.2952.13.4119.4119,0,1,0-.6276-.5335,1.9281,1.9281,0,0,1-3.2082-.42h.6389a.4119.4119,0,1,0,0-.8237h-1.51A.4119.4119,0,0,0,5.98,12.71v1.6475a.4119.4119,0,0,0,.8238,0Z" fill="#fff"/>
    </g>
  </g>
</svg>
