<svg xmlns="http://www.w3.org/2000/svg" width="18" height="18" viewBox="0 0 18 18">
  <path d="M4.732.264H17.184A.816.816,0,0,1,18,1.08V9.139a.819.819,0,0,1-.816.817h-5.1a.138.138,0,0,0-.083.028l-2.613,2a.272.272,0,0,1-.437-.216V10.092a.137.137,0,0,0-.137-.136H4.732a.816.816,0,0,1-.816-.817V1.08A.818.818,0,0,1,4.732.264Z" fill="#2a69b6"/>
  <path d="M8.514,17.736a.828.828,0,0,0,.828-.928c-.326-2.613-1.817-4.74-4.66-4.74C1.788,12.068.3,13.869,0,16.815a.836.836,0,0,0,.746.917.787.787,0,0,0,.084,0Z" fill="#67c8ef"/>
  <circle cx="4.682" cy="9.827" r="2.622" fill="#67c8ef"/>
  <circle cx="14.039" cy="5.156" r="0.962" fill="#4192d9"/>
  <circle cx="10.971" cy="5.164" r="0.962" fill="#54aee5"/>
  <circle cx="7.903" cy="5.164" r="0.962" fill="#77c2eb"/>
</svg>
