<svg xmlns="http://www.w3.org/2000/svg" width="18" height="18" viewBox="0 0 18 18">
  <defs>
    <linearGradient id="acc5cc42-a53e-4874-bbd3-3c0258afa3d7" x1="6.469" y1="7.959" x2="6.469" y2="18.7" gradientUnits="userSpaceOnUse">
      <stop offset="0.225" stop-color="#50e6ff"/>
      <stop offset="1" stop-color="#198ab3"/>
    </linearGradient>
    <linearGradient id="f9eca203-c243-4049-bbc0-2185fc911b2a" x1="6.197" y1="2.201" x2="6.981" y2="11.953" gradientUnits="userSpaceOnUse">
      <stop offset="0.225" stop-color="#50e6ff"/>
      <stop offset="1" stop-color="#198ab3"/>
    </linearGradient>
  </defs>
  <g id="a8c24eac-6b68-4bb8-94d3-d3be7f5015b2">
    <path d="M11.783,16.761a1.15,1.15,0,0,0,1.154-1.146,1.08,1.08,0,0,0-.008-.139c-.452-3.615-2.515-6.56-6.45-6.56-4,0-6.07,2.493-6.473,6.57a1.158,1.158,0,0,0,1.032,1.269,1.112,1.112,0,0,0,.116.006Z" fill="url(#acc5cc42-a53e-4874-bbd3-3c0258afa3d7)"/>
    <path d="M6.541,9.773A3.6,3.6,0,0,1,4.577,9.2l1.944,5.08L8.452,9.229A3.608,3.608,0,0,1,6.541,9.773Z" fill="#fff" opacity="0.8"/>
    <circle cx="6.514" cy="6.146" r="3.628" fill="url(#f9eca203-c243-4049-bbc0-2185fc911b2a)"/>
    <path d="M18,8.611V7.127l-.208-.078L16.2,6.528l-.416-1.015L16.6,3.8,15.553,2.754l-.208.1-1.483.754L12.847,3.2,12.2,1.4H10.712l-.078.208L10.114,3.2l-1.009.414a3.61,3.61,0,0,1,.966,1.833,2.851,2.851,0,1,1,1.422,5.32,2.884,2.884,0,0,1-.641-.078,7.369,7.369,0,0,1,1.68,2.972l.341-1.039,1.015-.417,1.717.807,1.042-1.041-.1-.208-.754-1.484L16.2,9.261Z" fill="#0078d4"/>
  </g>
</svg>
