<svg xmlns="http://www.w3.org/2000/svg" width="18" height="18" viewBox="0 0 18 18">
  <defs>
    <linearGradient id="aba4b394-5fa9-4f45-a274-50c9000edfd3" x1="8.638" y1="0.002" x2="8.638" y2="17.277" gradientUnits="userSpaceOnUse">
      <stop offset="0" stop-color="#b3b3b3"/>
      <stop offset="1" stop-color="#999"/>
    </linearGradient>
  </defs>
  <path d="M9.567,14.179a4.619,4.619,0,0,1,4.614-4.614,4.56,4.56,0,0,1,2.029.491l.817-.817a.847.847,0,0,0,0-1.2L9.237.25a.848.848,0,0,0-1.2,0L.248,8.041a.847.847,0,0,0,0,1.2l7.79,7.79a.848.848,0,0,0,1.2,0l.821-.821A4.56,4.56,0,0,1,9.567,14.179Z" fill="url(#aba4b394-5fa9-4f45-a274-50c9000edfd3)"/>
  <path d="M14.181,10.36A3.819,3.819,0,1,0,18,14.179,3.819,3.819,0,0,0,14.181,10.36Zm2.387,4.392H11.794V13.606h4.774Z" fill="#767676"/>
</svg>
