<svg xmlns="http://www.w3.org/2000/svg" width="18" height="18" viewBox="0 0 18 18">
  <g id="uuid-bfe2b4cc-b1bf-4660-af17-366f68d1ee75"/>
  <g id="uuid-3d9eee4d-9249-4314-b32c-96e7a2f5bd4f">
    <g>
      <path d="M12.77,14.959c.023-.275-.181-.517-.456-.541-.275-.023-.517,.181-.541,.456-.058,.677-.391,1.137-.97,1.582l-.019,.017c-.033,.024-.071,.034-.104,.057v.019c-.405,.282-.892,.451-1.422,.451-1.025,0-1.906-.617-2.292-1.5h.792c.276,0,.5-.224,.5-.5s-.224-.5-.5-.5h-2c-.276,0-.5,.224-.5,.5v2c0,.276,.224,.5,.5,.5s.5-.224,.5-.5v-.696c.612,1.016,1.726,1.696,3,1.696,.801,0,1.535-.274,2.124-.726l.005-.003c.024-.018,.041-.041,.064-.06,.146-.118,.29-.238,.415-.378,.007-.008,.008-.017,.015-.025,.519-.577,.826-1.107,.889-1.85Z" fill="#212121"/>
      <path d="M5.26,3.041c-.023,.275,.181,.517,.456,.541,.275,.023,.517-.181,.541-.456,.058-.677,.391-1.137,.97-1.582l.019-.017c.033-.024,.071-.034,.104-.057v-.019c.405-.282,.892-.451,1.422-.451,1.025,0,1.906,.617,2.292,1.5h-.792c-.276,0-.5,.224-.5,.5,0,.276,.224,.5,.5,.5h2c.276,0,.5-.224,.5-.5V1c0-.276-.224-.5-.5-.5s-.5,.224-.5,.5v.696C11.16,.68,10.046,0,8.772,0c-.801,0-1.535,.274-2.124,.726l-.005,.003c-.024,.018-.041,.041-.064,.06-.146,.118-.29,.238-.415,.378-.007,.008-.008,.017-.015,.025-.519,.577-.826,1.107-.889,1.85Z" fill="#212121"/>
      <path d="M6.5,5.39v7.5H1V5.39H6.5m.5-1H.5C.224,4.39,0,4.614,0,4.89V13.39C0,13.666,.224,13.89,.5,13.89H7c.276,0,.5-.224,.5-.5V4.89c0-.276-.224-.5-.5-.5h0Z" fill="#212121"/>
      <g>
        <rect x="2.25" y="6.411" width="1" height="1.482" fill="#212121"/>
        <rect x="4.25" y="6.411" width="1" height="1.482" fill="#212121"/>
        <rect x="2.25" y="8.893" width="1" height="1.482" fill="#212121"/>
        <rect x="4.25" y="8.893" width="1" height="1.482" fill="#212121"/>
      </g>
      <path d="M17,5.39v7.5h-5.5V5.39h5.5m.5-1h-6.5c-.276,0-.5,.224-.5,.5V13.39c0,.276,.224,.5,.5,.5h6.5c.276,0,.5-.224,.5-.5V4.89c0-.276-.224-.5-.5-.5h0Z" fill="#212121"/>
      <g>
        <rect x="12.75" y="6.411" width="1" height="1.482" fill="#212121"/>
        <rect x="14.75" y="6.411" width="1" height="1.482" fill="#212121"/>
        <rect x="12.75" y="8.893" width="1" height="1.482" fill="#212121"/>
        <rect x="14.75" y="8.893" width="1" height="1.482" fill="#212121"/>
      </g>
    </g>
  </g>
</svg>