<svg xmlns="http://www.w3.org/2000/svg" viewBox="0 0 18 18">
  <defs>
    <linearGradient id="e88c3689-b162-4994-acca-0a821c235523" x1="9" y1="776.134" x2="9" y2="788.897" gradientTransform="matrix(1, 0, 0, -1, 0, 791.516)" gradientUnits="userSpaceOnUse">
      <stop offset="0" stop-color="#198ab3" />
      <stop offset="1" stop-color="#32bedd" />
    </linearGradient>
  </defs>
  <path d="M18,11.383A4.042,4.042,0,0,0,14.49,7.5,5.1,5.1,0,0,0,9.241,2.621a5.23,5.23,0,0,0-5,3.408A4.825,4.825,0,0,0,0,10.677a4.9,4.9,0,0,0,5.07,4.7c.151,0,.3-.007.446-.019h8.207a.837.837,0,0,0,.217-.032A4.092,4.092,0,0,0,18,11.383Z" fill="url(#e88c3689-b162-4994-acca-0a821c235523)" />
  <rect x="7.674" y="11.149" width="2.617" height="2.617" rx="0.22" fill="#9cebff" />
  <rect x="3.953" y="11.149" width="2.617" height="2.617" rx="0.22" fill="#9cebff" />
  <rect x="11.395" y="11.149" width="2.617" height="2.617" rx="0.22" fill="#9cebff" />
  <rect x="7.674" y="7.4" width="2.617" height="2.617" rx="0.22" fill="#fff" opacity="0.8" />
  <rect x="3.953" y="7.4" width="2.617" height="2.617" rx="0.22" fill="#fff" opacity="0.8" />
</svg>