<svg xmlns="http://www.w3.org/2000/svg" width="16" height="16" viewBox="0 0 16 16">
  <g id="b3c5dbe4-8e83-4458-a263-fa0e10adaf9b">
    <path d="M13.839,5.176,9.248.586C9.228.566,9.2.55,9.181.531A1.63,1.63,0,0,0,9.009.39a1.094,1.094,0,0,0-.1-.054,1.85,1.85,0,0,0-.17-.091A1.55,1.55,0,0,0,8.246.136c-.037,0-.073-.011-.111-.011H3.275A1.576,1.576,0,0,0,1.7,1.7V14.3a1.576,1.576,0,0,0,1.575,1.575h9.45A1.576,1.576,0,0,0,14.3,14.3V6.29A1.576,1.576,0,0,0,13.839,5.176ZM9.181,2.189l3.054,3.055H9.575a.4.4,0,0,1-.394-.394ZM13.119,14.3a.4.4,0,0,1-.394.394H3.275a.4.4,0,0,1-.394-.394V1.7a.4.4,0,0,1,.394-.394H8V4.85A1.576,1.576,0,0,0,9.575,6.425h3.544Zm-6.3-4.649v2.441a.4.4,0,0,1-.8.055l0-.046V9.659a.4.4,0,0,1,.8-.054Zm-2.3-1.487v4.674a1.153,1.153,0,0,0,1.151,1.151h4.674a1.153,1.153,0,0,0,1.151-1.151V8.164a1.152,1.152,0,0,0-1.151-1.151H5.663A1.152,1.152,0,0,0,4.512,8.164Zm6.169,4.674a.345.345,0,0,1-.344.344H5.663a.345.345,0,0,1-.344-.344V8.164a.344.344,0,0,1,.344-.344h4.674a.344.344,0,0,1,.344.344ZM8.39,10.76,8.4,12.1a.387.387,0,0,1-.113.28.4.4,0,0,1-.279.118h0a.4.4,0,0,1-.393-.337l0-.045L7.6,10.776a.4.4,0,0,1,.789-.061ZM9.992,8.9v3.2a.4.4,0,0,1-.8.054l0-.046V8.9a.4.4,0,0,1,.8-.054Z"/>
  </g>
</svg>
