<svg xmlns="http://www.w3.org/2000/svg" width="16" height="16" viewBox="0 0 16 16">
  <path d="M7,5.05H2v-5H3v3.3l.8-.9.8-.7.8-.7.9-.5a1.705,1.705,0,0,1,1-.3L8.5.05l1.4.2,1.4.6,1.1.8a4.986,4.986,0,0,1,.8,1.2,5.2,5.2,0,0,1,.6,1.3,5.863,5.863,0,0,1,.2,1.4,7.789,7.789,0,0,1-.4,2.1,6.617,6.617,0,0,1-1.2,1.7l-6.5,6.6-.8-.8,6.6-6.5a4.213,4.213,0,0,0,.9-1.4,3.5,3.5,0,0,0,.4-1.7,3.293,3.293,0,0,0-.4-1.7,2.8,2.8,0,0,0-1-1.4,2.8,2.8,0,0,0-1.4-1,3.293,3.293,0,0,0-1.7-.4,3.3,3.3,0,0,0-1.5.3l-1.2.7-1,.9L3.7,4.05H7Z"/>
</svg>
