<svg id="ba95f4ad-f110-4d2e-ba86-7a3465f07771" xmlns="http://www.w3.org/2000/svg" width="18" height="18" viewBox="0 0 18 18">
  <g>
    <path d="M13.352,17.622H4.645a1.393,1.393,0,0,1-1.37-1.47V1.848A1.393,1.393,0,0,1,4.645.378h8.707a1.393,1.393,0,0,1,1.37,1.47v14.3A1.392,1.392,0,0,1,13.352,17.622ZM4.645,1.358a.448.448,0,0,0-.391.49v14.3a.448.448,0,0,0,.391.49h8.707c.245,0,.392-.2.392-.49V1.848a.448.448,0,0,0-.392-.49Z"/>
    <path d="M12.18,3.611v9.9H5.869v-9.9Zm.88-.93H4.94V14.389h8.12Z"/>
    <path d="M9.636,15.515A.636.636,0,1,1,9,14.879.59.59,0,0,1,9.636,15.515Z"/>
    <path d="M9,14.879H9a.637.637,0,1,0,.636.636A.725.725,0,0,0,9,14.879Z"/>
  </g>
</svg>
