<svg xmlns="http://www.w3.org/2000/svg" viewBox="0 0 16 16">
  <path d="M10.4,9.4a6.9,6.9,0,0,1,1.9,1A7.5,7.5,0,0,1,13.8,12a5.6,5.6,0,0,1,.9,1.9A7.078,7.078,0,0,1,15,16H14a6.384,6.384,0,0,0-.5-2.4,7.607,7.607,0,0,0-1.2-1.9,7.607,7.607,0,0,0-1.9-1.2A6.384,6.384,0,0,0,8,10l-1.6.2-1.5.6-1.2.9-.9,1.2-.6,1.5A7.767,7.767,0,0,0,2,16H1a8.307,8.307,0,0,1,.3-2.2,6.407,6.407,0,0,1,1-1.8,6.989,6.989,0,0,1,1.4-1.6l1.9-1L4.5,8.6l-.8-1a4.971,4.971,0,0,1-.5-1.3A5.112,5.112,0,0,1,3,5a4.091,4.091,0,0,1,.4-1.9A3.8,3.8,0,0,1,4.5,1.5,3.8,3.8,0,0,1,6.1.4,4.091,4.091,0,0,1,8,0,4.091,4.091,0,0,1,9.9.4a3.8,3.8,0,0,1,1.6,1.1,3.8,3.8,0,0,1,1.1,1.6A4.091,4.091,0,0,1,13,5a5.068,5.068,0,0,1-.2,1.3,4.971,4.971,0,0,1-.5,1.3l-.8,1ZM4,5a4.1,4.1,0,0,0,.3,1.6,3.4,3.4,0,0,0,.9,1.2,3.4,3.4,0,0,0,1.2.9A4.1,4.1,0,0,0,8,9a4.1,4.1,0,0,0,1.6-.3,3.4,3.4,0,0,0,1.2-.9,3.4,3.4,0,0,0,.9-1.2A4.1,4.1,0,0,0,12,5a4.1,4.1,0,0,0-.3-1.6,3.4,3.4,0,0,0-.9-1.2,3.4,3.4,0,0,0-1.2-.9A4.1,4.1,0,0,0,8,1a4.1,4.1,0,0,0-1.6.3,3.4,3.4,0,0,0-1.2.9,3.4,3.4,0,0,0-.9,1.2A4.1,4.1,0,0,0,4,5Z" />
</svg>