<svg xmlns="http://www.w3.org/2000/svg" width="18" height="18" viewBox="0 0 18 18">
  <defs>
    <linearGradient id="a94695fa-c455-4390-96a3-15519fff4db8" x1="-43.291" y1="737.518" x2="-43.291" y2="755.518" gradientTransform="matrix(1, 0, 0, -1, 54, 755.516)" gradientUnits="userSpaceOnUse">
      <stop offset="0" stop-color="#0078d4"/>
      <stop offset="1" stop-color="#5ea0ef"/>
    </linearGradient>
    <linearGradient id="a9ecdafd-57c9-49e0-9ae3-a9b3d871b176" x1="-1935.699" y1="634.694" x2="-1941.568" y2="634.694" gradientTransform="translate(-630.19 -1928.511) rotate(-90)" gradientUnits="userSpaceOnUse">
      <stop offset="0" stop-color="#faa21d"/>
      <stop offset="0.999" stop-color="#f78d1e"/>
    </linearGradient>
  </defs>
  <g id="acd8ef03-7a76-4959-9764-1a9e32cc51df">
    <g>
      <g id="b485479b-1cb3-414d-9e3b-54b63d32340c">
        <g>
          <path d="M17.724,5.778h-4.58a1.071,1.071,0,0,1-1.07-1.07V.138A.6.6,0,0,0,11.7,0H4.044a.606.606,0,0,0-.62.6v6.61a.528.528,0,0,1,.01.13V8.7h5.45a.54.54,0,0,1,.54.52v1.79a.547.547,0,0,1-.51.55H3.434v1.36a.375.375,0,0,1-.01.11v4.36a.606.606,0,0,0,.61.61h13.34a.612.612,0,0,0,.62-.6V6.288A.625.625,0,0,0,17.724,5.778Z" fill="url(#a94695fa-c455-4390-96a3-15519fff4db8)"/>
          <path d="M17.754,5.778h-4.61a1.071,1.071,0,0,1-1.07-1.07V.138a.176.176,0,0,0,.05.04Z" fill="#0078d4"/>
          <path d="M12.124.178a.176.176,0,0,1-.05-.04V.128Z" fill="#0078d4"/>
        </g>
      </g>
      <path d="M11,7.905h3.974a.393.393,0,0,1,.393.393h0a.393.393,0,0,1-.393.393H11A.393.393,0,0,1,10.61,8.3h0A.393.393,0,0,1,11,7.905Zm0,3.113h3.974a.393.393,0,0,1,.393.393h0a.393.393,0,0,1-.393.393H11a.393.393,0,0,1-.393-.393h0A.393.393,0,0,1,11,11.018ZM9.846,13.733l-.094-.1a.162.162,0,0,0-.229,0l-.918.917-.377-.377a.162.162,0,0,0-.229,0l-.1.095a.162.162,0,0,0,0,.229l.587.588a.162.162,0,0,0,.23,0l1.126-1.128a.16.16,0,0,0,0-.228ZM11,14.016h3.974a.393.393,0,0,1,.393.393h0a.393.393,0,0,1-.393.393H11a.393.393,0,0,1-.393-.393h0A.393.393,0,0,1,11,14.016Z" fill="#c3f1ff"/>
      <path d="M.1,10.348A.317.317,0,0,1,.1,9.9h0L2.77,7.23a.142.142,0,0,1,.243.1V8.972a.141.141,0,0,0,.141.143H8.886A.111.111,0,0,1,9,9.225H9v1.79a.111.111,0,0,1-.106.116H3.155a.141.141,0,0,0-.142.141h0v1.642a.142.142,0,0,1-.243.1Z" fill="url(#a9ecdafd-57c9-49e0-9ae3-a9b3d871b176)"/>
    </g>
  </g>
</svg>
