<svg xmlns="http://www.w3.org/2000/svg" width="18" height="18" viewBox="0 0 18 18">
  <defs>
    <linearGradient id="ab6a5a3c-b002-4b29-a46a-9832a992ed89" x1="307.11" y1="385.121" x2="307.11" y2="392.353" gradientTransform="matrix(1, 0, 0, -1, -298, 403.516)" gradientUnits="userSpaceOnUse">
      <stop offset="0" stop-color="#0078d4"/>
      <stop offset="1" stop-color="#5ea0ef"/>
    </linearGradient>
    <linearGradient id="bd974ab8-b4df-409f-9f5d-7f42349a0dc4" x1="307" y1="396.228" x2="307" y2="402.196" gradientUnits="userSpaceOnUse">
          <stop offset="0" stop-color="#0078d4"/>
      <stop offset="1" stop-color="#5ea0ef"/>
    </linearGradient>
    <linearGradient id="b6cdb1b9-b154-4fcd-ac92-b39e1543605a" x1="307.037" y1="399.799" x2="307.037" y2="397.522" gradientTransform="matrix(1, 0, 0, -1, -298, 403.516)" gradientUnits="userSpaceOnUse">
      <stop offset="0" stop-color="#50e6ff"/>
      <stop offset="1" stop-color="#32bedd"/>
    </linearGradient>
    <linearGradient id="b9e8f42a-de05-4b0e-953f-a991f8b4f0a3" x1="307.111" y1="390.049" x2="307.111" y2="388.225" gradientUnits="userSpaceOnUse">
          <stop offset="0" stop-color="#50e6ff"/>
      <stop offset="1" stop-color="#32bedd"/>
    </linearGradient>
  </defs>
  <g id="eb67484b-3a80-4513-9deb-27be01e0a7ec">
    <g>
      <path d="M14.224,15.228a2.324,2.324,0,0,1-2.306,2.241.433.433,0,0,1-.124.018H7.133c-.083.007-.169.011-.254.011A2.782,2.782,0,0,1,4,14.828a2.739,2.739,0,0,1,2.411-2.644,2.975,2.975,0,0,1,1.839-1.777v3.41a1.184,1.184,0,0,0-.329.821,1.2,1.2,0,1,0,2.066-.819v-3.5a2.9,2.9,0,0,1,2.25,2.7A2.3,2.3,0,0,1,14.224,15.228Z" fill="url(#ab6a5a3c-b002-4b29-a46a-9832a992ed89)"/>
      <path d="M9.61,13.979a.824.824,0,0,0-1,0V6.066l1,.006Z" fill="#a3a3a3"/>
      <path d="M6.46,9.283l-.6.6a.285.285,0,0,1-.319,0L1.781,6.19l.968-.976L6.46,8.906A.283.283,0,0,1,6.46,9.283Zm5.026-.394a.144.144,0,0,0-.032.033.241.241,0,0,0,.031.34v0l.6.62a.284.284,0,0,0,.378,0l3.76-3.7-.971-.973Z" fill="#00e9ff"/>
      <path d="M6.422,1.51l-3.673,3.7-.968.976L1.587,6,1.56,5.972,1.19,5.61,1.184,5.6a.513.513,0,0,1-.15-.378.5.5,0,0,1,.16-.389L5.485.572a.283.283,0,0,1,.377,0l.567.567a.311.311,0,0,1,.023.028.243.243,0,0,1-.027.341ZM16.811,4.848l-.45-.451L16.23,4.26h0L12.555.572a.284.284,0,0,0-.378,0l-.6.567a.284.284,0,0,0,0,.378l3.673,3.7.968.975.362-.354.228-.226.01-.007a.509.509,0,0,0,.146-.329.324.324,0,0,0,0-.088.512.512,0,0,0-.153-.347Z" fill="url(#bd974ab8-b4df-409f-9f5d-7f42349a0dc4)"/>
      <path d="M12.307,4.148a1.031,1.031,0,1,1-1.031,1.031,1.03,1.03,0,0,1,1.031-1.031ZM4.735,5.179A1.031,1.031,0,1,0,5.766,4.148,1.03,1.03,0,0,0,4.735,5.179Zm3.347,0A1.032,1.032,0,1,0,9.115,4.148h0A1.03,1.03,0,0,0,8.082,5.179Z" fill="url(#b6cdb1b9-b154-4fcd-ac92-b39e1543605a)"/>
      <path d="M9.938,14.638a.824.824,0,1,1-.325-.661A.828.828,0,0,1,9.938,14.638Z" fill="url(#b9e8f42a-de05-4b0e-953f-a991f8b4f0a3)"/>
    </g>
  </g>
</svg>
