<svg xmlns="http://www.w3.org/2000/svg" width="18" height="18" viewBox="0 0 18 18">
  <defs>
    <linearGradient id="e5e2f1fb-663f-4333-9746-146ea8768d01" x1="9.007" y1="4.986" x2="9.007" y2="13.813" gradientUnits="userSpaceOnUse">
      <stop offset="0" stop-color="#50e6ff"/>
      <stop offset="1" stop-color="#32bedd"/>
    </linearGradient>
  </defs>
  <g id="e94f55aa-667f-402b-b0f5-2d22e25b77d6">
    <g>
      <polygon points="14.294 9.229 14.294 9.235 16.999 9.173 16.98 8.329 14.292 8.391 14.292 8.375 12.048 8.117 12.048 5.675 12.042 5.664 13.63 1.602 12.842 1.3 11.243 5.389 11.245 5.39 9.527 7.373 6.821 5.373 6.786 5.344 5.204 1.3 4.416 1.602 6.016 5.692 6.037 5.684 7.488 8.859 4.002 8.375 3.985 8.403 3.985 8.391 1.31 8.329 1.29 9.173 3.965 9.235 3.972 8.946 5.739 9.509 6.09 10.699 6.056 12.067 4.456 16.156 5.244 16.459 6.844 12.369 6.714 12.319 7.975 11.095 11.26 11.872 11.671 12.22 11.283 12.369 12.882 16.459 13.67 16.156 12.071 12.067 12.042 12.078 12.277 10.377 14.294 9.229" fill="#0078d4"/>
      <path d="M18,8.766a1.294,1.294,0,1,1-1.294-1.294A1.294,1.294,0,0,1,18,8.766ZM1.294,7.472A1.294,1.294,0,1,0,2.588,8.766h0A1.294,1.294,0,0,0,1.294,7.472Zm3.479,7.706a1.264,1.264,0,1,0,1.263,1.265h0A1.263,1.263,0,0,0,4.773,15.178Zm8.146,0a1.264,1.264,0,1,0,1.263,1.265h0A1.263,1.263,0,0,0,12.919,15.178ZM4.961.3A1.264,1.264,0,1,0,6.225,1.566h0A1.262,1.262,0,0,0,4.962.3ZM13.167.294a1.268,1.268,0,1,0,1.267,1.269v0A1.267,1.267,0,0,0,13.167.294Z" fill="#86d633"/>
      <g id="b23a4377-ef82-4297-adfd-78df0019a425">
        <g>
          <path d="M14.271,5.268H9.455a.252.252,0,0,1-.144-.044L7.93,4.309a.25.25,0,0,0-.143-.043H3.743a.258.258,0,0,0-.258.257V13.03a.257.257,0,0,0,.257.257H14.271a.258.258,0,0,0,.258-.257v-7.5A.258.258,0,0,0,14.271,5.268Z" fill="#198ab3"/>
          <rect x="4.206" y="4.79" width="2.668" height="0.534" rx="0.113" fill="#fff"/>
          <rect x="4.206" y="4.79" width="0.534" height="0.534" rx="0.077" fill="#50e6ff"/>
          <path d="M14.271,5.255H8.977a.261.261,0,0,0-.183.076l-.85.851a.263.263,0,0,1-.183.076H3.743a.258.258,0,0,0-.258.257v6.5a.257.257,0,0,0,.257.256H14.271a.258.258,0,0,0,.258-.256V5.513A.259.259,0,0,0,14.271,5.255Z" fill="url(#e5e2f1fb-663f-4333-9746-146ea8768d01)"/>
        </g>
      </g>
    </g>
  </g>
</svg>
