<svg xmlns="http://www.w3.org/2000/svg" width="18" height="18" viewBox="0 0 18 18">
  <defs>
    <linearGradient id="e5be45ab-9a06-4137-90c2-f1b208a00988" x1="7.8" y1="-0.01" x2="7.8" y2="10.425" gradientUnits="userSpaceOnUse">
      <stop offset="0.18" stop-color="#5ea0ef"/>
      <stop offset="1" stop-color="#0078d4"/>
    </linearGradient>
    <linearGradient id="b9153e6d-ad7c-4914-a22d-514b1f20f1c5" x1="6.22" y1="10.425" x2="6.22" y2="14.447" gradientUnits="userSpaceOnUse">
      <stop offset="0" stop-color="#707070"/>
      <stop offset="0.85" stop-color="#ccc"/>
    </linearGradient>
    <linearGradient id="eaf24e3b-2354-4d0c-ac47-113eb27c77fe" x1="12.045" y1="7.722" x2="12.045" y2="15.987" gradientUnits="userSpaceOnUse">
      <stop offset="0.259" stop-color="#50e6ff"/>
      <stop offset="1" stop-color="#32bedd"/>
    </linearGradient>
    <linearGradient id="a91cc2e5-06ee-454a-8d9f-2e3b0b7ddd97" x1="12.049" y1="8.444" x2="12.049" y2="15.118" gradientUnits="userSpaceOnUse">
      <stop offset="0" stop-color="#fff"/>
      <stop offset="1" stop-color="#fff" stop-opacity="0"/>
    </linearGradient>
  </defs>
  <g id="ab179b2f-8901-4479-8ff5-aa67d8eaafab">
    <g>
      <g>
        <path d="M15.6.525V8.777a.141.141,0,0,1-.248.091A4.427,4.427,0,0,0,7.83,10.425H.52A.52.52,0,0,1,0,9.9V.535A.532.532,0,0,1,.53.005H15.08A.52.52,0,0,1,15.6.525Z" fill="url(#e5be45ab-9a06-4137-90c2-f1b208a00988)"/>
        <polygon points="10.4 3.709 10.4 6.734 7.808 8.262 7.808 5.222 10.4 3.709" fill="#50e6ff"/>
        <polygon points="10.4 3.709 7.808 5.237 5.2 3.709 7.808 2.182 10.4 3.709" fill="#c3f1ff"/>
        <polygon points="7.808 5.237 7.808 8.262 5.2 6.734 5.2 3.709 7.808 5.237" fill="#9cebff"/>
        <polygon points="5.2 6.734 7.808 5.222 7.808 8.262 5.2 6.734" fill="#c3f1ff"/>
        <polygon points="10.4 6.734 7.808 5.222 7.808 8.262 10.4 6.734" fill="#9cebff"/>
        <path d="M8.46,14.385H3.98a.919.919,0,0,1,.77-.88c1.55-.18,1.55-1.29,1.55-3.08H7.83a4.417,4.417,0,0,0-.22,1.37A4.3,4.3,0,0,0,8.46,14.385Z" fill="url(#b9153e6d-ad7c-4914-a22d-514b1f20f1c5)"/>
      </g>
      <path d="M17.82,17.745l-.06.07a.628.628,0,0,1-.88,0l-2.36-2.36-.3-.3-.59-.59c-.03-.03-.05-.06-.07-.08a2.255,2.255,0,0,0,.36-.24.9.9,0,0,0,.19-.15,1.753,1.753,0,0,0,.24-.23,1.239,1.239,0,0,0,.18-.22q.03-.015.03-.03a.01.01,0,0,1,.01.01l.63.63.3.3,2.32,2.31A.628.628,0,0,1,17.82,17.745Z" fill="#198ab3"/>
      <path d="M15.59,9.955a3.993,3.993,0,0,0-7.3.47,3.875,3.875,0,0,0-.25,1.37,4,4,0,0,0,6.18,3.36,3.826,3.826,0,0,0,.98-.9,3.984,3.984,0,0,0,.85-2.46A3.8,3.8,0,0,0,15.59,9.955Z" fill="url(#eaf24e3b-2354-4d0c-ac47-113eb27c77fe)"/>
      <circle cx="12.049" cy="11.725" r="3.145" opacity="0.5" fill="url(#a91cc2e5-06ee-454a-8d9f-2e3b0b7ddd97)"/>
      <path d="M13.924,9.2a3.084,3.084,0,0,0-3.711-.028C14.236,8.2,15.1,12.5,15.1,12.5A3.075,3.075,0,0,0,13.924,9.2Z" fill="#c3f1ff"/>
    </g>
  </g>
</svg>
