<svg xmlns="http://www.w3.org/2000/svg" width="18" height="18" viewBox="0 0 18 18">
  <defs>
    <linearGradient id="bddd6ae9-bb11-400a-9aa3-a1fb90b4c896" x1="-561.026" y1="1018.377" x2="-561.026" y2="1023.454" gradientTransform="matrix(1, 0, 0, -1, 564, 1025.516)" gradientUnits="userSpaceOnUse">
      <stop offset="0" stop-color="#0078d4"/>
      <stop offset="0.891" stop-color="#5ea0ef"/>
    </linearGradient>
    <linearGradient id="e87a59f6-c4e4-4dc0-8bb4-da2abe302349" x1="-561.027" y1="1012.988" x2="-561.027" y2="1018.066" gradientUnits="userSpaceOnUse">
      <stop offset="0" stop-color="#0078d4"/>
      <stop offset="0.891" stop-color="#5ea0ef"/>
    </linearGradient>
    <linearGradient id="bfa24d86-a778-4490-8f5c-bce66cffd3c8" x1="13.523" y1="6.467" x2="13.523" y2="16.713" gradientUnits="userSpaceOnUse">
      <stop offset="0.109" stop-color="#5ea0ef"/>
      <stop offset="1" stop-color="#0078d4"/>
    </linearGradient>
  </defs>
  <g id="b9b2b666-cdb8-491e-bf51-8ce6bcf54a12">
    <path d="M5.809,2.463l-.276-.277a.474.474,0,0,0-.669,0L2.186,4.861l-1.1-1.1a.473.473,0,0,0-.668,0l-.278.277a.474.474,0,0,0,0,.669L1.852,6.423a.474.474,0,0,0,.669,0L5.809,3.131A.471.471,0,0,0,5.809,2.463Z" fill="url(#bddd6ae9-bb11-400a-9aa3-a1fb90b4c896)"/>
    <rect x="6.708" y="3.555" width="10.241" height="1.693" rx="0.846" fill="#a3a3a3"/>
    <path d="M10.044,9.784a.265.265,0,0,1,.011.215l-.034.1a.285.285,0,0,1-.18.177l-.73.23a1.041,1.041,0,0,0-.123.054H7.553a.844.844,0,0,1-.595-1.443.835.835,0,0,1,.595-.25H9.641a.769.769,0,0,0,.061.2Z" fill="#a3a3a3"/>
    <path d="M5.808,7.852l-.276-.277a.473.473,0,0,0-.669,0L2.186,10.249l-1.1-1.1a.474.474,0,0,0-.669,0l-.277.277a.474.474,0,0,0,0,.669l1.714,1.716a.471.471,0,0,0,.668,0L5.808,8.52A.473.473,0,0,0,5.808,7.852Z" fill="url(#e87a59f6-c4e4-4dc0-8bb4-da2abe302349)"/>
    <path d="M17.8,10.909l-.94-.3a.271.271,0,0,1-.173-.158l-.2-.464A.272.272,0,0,1,16.5,9.75l.449-.9a.287.287,0,0,0-.057-.334l-.461-.426a.279.279,0,0,0-.314-.05l-.868.415a.278.278,0,0,1-.234,0l-.472-.2a.282.282,0,0,1-.154-.169l-.3-.894A.285.285,0,0,0,13.82,7h-.648a.284.284,0,0,0-.269.2l-.295.925a.28.28,0,0,1-.173.18l-.464.165a.261.261,0,0,1-.215-.012l-.864-.41a.281.281,0,0,0-.33.061l-.43.461a.27.27,0,0,0-.054.3l0,.015.422.879a.3.3,0,0,1,.012.215l-.165.465a.3.3,0,0,1-.084.119.291.291,0,0,1-.1.053l-.929.3a.28.28,0,0,0-.2.269v.594a.276.276,0,0,0,.2.269l.936.3a.278.278,0,0,1,.177.158l.2.464a.3.3,0,0,1-.007.238l-.453.9a.281.281,0,0,0,.061.33l.461.43a.28.28,0,0,0,.314.05L11.8,14.5a.269.269,0,0,1,.23-.007l.472.2a.287.287,0,0,1,.158.169l.295.894a.281.281,0,0,0,.269.192h.6a.28.28,0,0,0,.269-.2l.3-.936a.281.281,0,0,1,.158-.177l.468-.2a.289.289,0,0,1,.234,0l.86.414a.286.286,0,0,0,.322-.058l.422-.418a.28.28,0,0,0,.054-.322L16.5,13.2a.265.265,0,0,1,0-.23l.2-.468a.271.271,0,0,1,.173-.158l.94-.3a.281.281,0,0,0,.2-.269v-.594A.285.285,0,0,0,17.8,10.909Zm-2.322.6a1.927,1.927,0,0,1-1.9,1.927h-.062a1.932,1.932,0,0,1-1.961-1.9v-.058a1.93,1.93,0,0,1,1.9-1.961h.057a1.937,1.937,0,0,1,1.961,1.9Z" fill="#fff"/>
    <path d="M17.8,10.909l-.94-.3a.271.271,0,0,1-.173-.158l-.2-.464A.272.272,0,0,1,16.5,9.75l.449-.9a.287.287,0,0,0-.057-.334l-.461-.426a.279.279,0,0,0-.314-.05l-.868.415a.278.278,0,0,1-.234,0l-.472-.2a.282.282,0,0,1-.154-.169l-.3-.894A.285.285,0,0,0,13.82,7h-.648a.284.284,0,0,0-.269.2l-.295.925a.28.28,0,0,1-.173.18l-.464.165a.261.261,0,0,1-.215-.012l-.864-.41a.281.281,0,0,0-.33.061l-.43.461a.27.27,0,0,0-.054.3l0,.015.422.879a.3.3,0,0,1,.012.215l-.165.465a.3.3,0,0,1-.084.119.291.291,0,0,1-.1.053l-.929.3a.28.28,0,0,0-.2.269v.594a.276.276,0,0,0,.2.269l.936.3a.278.278,0,0,1,.177.158l.2.464a.3.3,0,0,1-.007.238l-.453.9a.281.281,0,0,0,.061.33l.461.43a.28.28,0,0,0,.314.05L11.8,14.5a.269.269,0,0,1,.23-.007l.472.2a.287.287,0,0,1,.158.169l.295.894a.281.281,0,0,0,.269.192h.6a.28.28,0,0,0,.269-.2l.3-.936a.281.281,0,0,1,.158-.177l.468-.2a.289.289,0,0,1,.234,0l.86.414a.286.286,0,0,0,.322-.058l.422-.418a.28.28,0,0,0,.054-.322L16.5,13.2a.265.265,0,0,1,0-.23l.2-.468a.271.271,0,0,1,.173-.158l.94-.3a.281.281,0,0,0,.2-.269v-.594A.285.285,0,0,0,17.8,10.909Zm-2.322.6a1.927,1.927,0,0,1-1.9,1.927h-.062a1.932,1.932,0,0,1-1.961-1.9v-.058a1.93,1.93,0,0,1,1.9-1.961h.057a1.937,1.937,0,0,1,1.961,1.9Z" fill="url(#bfa24d86-a778-4490-8f5c-bce66cffd3c8)"/>
  </g>
</svg>
