<svg xmlns="http://www.w3.org/2000/svg" viewBox="0 0 18 18">
  <defs>
    <linearGradient id="b1420368-04a1-4c8d-a084-6e0d9219e247" x1="9" x2="9" y2="18" gradientUnits="userSpaceOnUse">
      <stop offset="0" stop-color="#0078d4" />
      <stop offset="1" stop-color="#005ba1" />
    </linearGradient>
    <linearGradient id="f7508dca-a5d0-4bd6-b8a6-e752244238ef" x1="9" y1="2.523" x2="9" y2="12.043" gradientUnits="userSpaceOnUse">
      <stop offset="0" stop-color="#9cebff" />
      <stop offset="1" stop-color="#9cebff" stop-opacity="0.5" />
    </linearGradient>
  </defs>
  <g id="b40058b1-a4a4-4239-a9ea-b79dd02d82af">
    <circle cx="9" cy="9" r="9" fill="url(#b1420368-04a1-4c8d-a084-6e0d9219e247)" />
    <g>
      <path d="M12.9,9.919a.437.437,0,1,0-.874,0A2.781,2.781,0,0,1,9.245,12.7h-.49A2.781,2.781,0,0,1,5.977,9.919a.437.437,0,0,0-.874,0,3.65,3.65,0,0,0,3.515,3.638v1.484H7.5a.437.437,0,1,0,0,.874h3a.437.437,0,0,0,0-.874H9.492v-1.5A3.645,3.645,0,0,0,12.9,9.919Z" fill="#9cebff" />
      <path d="M9.777,9.965a.357.357,0,0,1,0-.714h1.761V8.5H9.777a.357.357,0,0,1,0-.714h1.761V5.006A2.483,2.483,0,0,0,9.054,2.523H8.946A2.481,2.481,0,0,0,6.468,4.886H8.137a.357.357,0,0,1,0,.713H6.462v.754H8.137a.357.357,0,0,1,0,.714H6.462V9.56a2.484,2.484,0,0,0,2.484,2.483h.108A2.481,2.481,0,0,0,11.5,9.965Z" fill="url(#f7508dca-a5d0-4bd6-b8a6-e752244238ef)" />
    </g>
    <g>
      <path d="M15.876,11.916a.391.391,0,0,1-.39-.39v-5.4a.39.39,0,0,1,.78,0v5.4A.391.391,0,0,1,15.876,11.916Z" fill="#fff" />
      <path d="M14.034,10.543a.391.391,0,0,1-.39-.39V7.308a.39.39,0,0,1,.78,0v2.845A.39.39,0,0,1,14.034,10.543Z" fill="#fff" />
    </g>
    <g>
      <path d="M2.066,11.916a.391.391,0,0,1-.39-.39v-5.4a.39.39,0,0,1,.78,0v5.4A.391.391,0,0,1,2.066,11.916Z" fill="#fff" />
      <path d="M3.908,10.543a.391.391,0,0,1-.39-.39V7.308a.39.39,0,1,1,.78,0v2.845A.391.391,0,0,1,3.908,10.543Z" fill="#fff" />
    </g>
  </g>
</svg>