<svg xmlns="http://www.w3.org/2000/svg" width="18" height="18" viewBox="0 0 18 18">
  <g id="bb8fa9d2-43c8-4d83-803f-7388004428d1" data-name="Layer 1">
    <polygon points="10.757 0 5.341 3.148 5.341 3.149 5.341 9.416 10.756 12.564 16.172 9.416 16.172 3.149 10.757 0" fill="#3cd4c2" opacity="0.5"/>
    <g>
      <path d="M16.093,5.567V7.028a.079.079,0,0,0,.158,0V5.567a.079.079,0,0,0-.158,0Z" fill="#258277"/>
      <path d="M16.093,8.489v.9l-.775.452a.077.077,0,0,0-.028.107.078.078,0,0,0,.068.039.072.072,0,0,0,.039-.011l.815-.473a.08.08,0,0,0,.039-.068V8.489a.079.079,0,0,0-.158,0Z" fill="#258277"/>
      <path d="M12.794,11.3a.079.079,0,0,0,.039.147.083.083,0,0,0,.04-.011l1.262-.734a.078.078,0,0,0,.028-.107.078.078,0,0,0-.107-.029Z" fill="#258277"/>
      <path d="M10.835,12.442v-.8a.079.079,0,0,0-.157,0v.8l-.7-.4a.079.079,0,0,0-.108.028.078.078,0,0,0,.028.107l.815.474a.076.076,0,0,0,.079,0l.815-.474a.078.078,0,0,0,.028-.107.08.08,0,0,0-.108-.028Z" fill="#258277"/>
      <path d="M11.532,5.764l-.783.453-.767-.446h0a.079.079,0,1,0-.08.136l.776.451v.9a.079.079,0,1,0,.157,0v-.9l.776-.451A.079.079,0,0,0,11.64,5.8h0l0-.007A.079.079,0,0,0,11.532,5.764Z" fill="#258277"/>
      <path d="M14.056,4.3l-1.262.731a.079.079,0,0,0-.028.108h0v0a.078.078,0,0,0,.068.039.07.07,0,0,0,.039-.011l1.262-.733a.078.078,0,0,0,.028-.107h0v0A.079.079,0,0,0,14.056,4.3Z" fill="#258277"/>
      <path d="M16.212,3.1,15.4,2.623a.079.079,0,0,0-.079.136l.7.406-.7.4a.079.079,0,0,0-.029.108h0a.078.078,0,0,0,.068.039.082.082,0,0,0,.039-.011l.7-.4v.806a.079.079,0,0,0,.158,0V3.165A.079.079,0,0,0,16.212,3.1Z" fill="#258277"/>
      <path d="M7.458,4.3h0a.079.079,0,0,0-.079.136l1.262.734a.083.083,0,0,0,.04.011h0a.078.078,0,0,0,.068-.039.079.079,0,0,0-.028-.108Z" fill="#258277"/>
      <path d="M6.223,2.65a.079.079,0,0,0-.107-.028L5.3,3.1a.079.079,0,0,0-.039.068h0v.942a.079.079,0,1,0,.158,0V3.3l.7.4h0a.076.076,0,0,0,.038.011.079.079,0,0,0,.067-.038h0A.078.078,0,0,0,6.2,3.569l-.7-.4.7-.406A.078.078,0,0,0,6.223,2.65Z" fill="#258277"/>
      <path d="M7.379,1.889A.078.078,0,0,0,7.35,2a.079.079,0,0,0,.068.039.073.073,0,0,0,.04-.011L8.72,1.291a.079.079,0,0,0-.079-.136Z" fill="#258277"/>
      <path d="M10.8-.053a.08.08,0,0,0-.079,0L9.9.421a.078.078,0,0,0,.04.146.081.081,0,0,0,.039-.01l.775-.451.775.451A.079.079,0,0,0,11.64.528a.078.078,0,0,0-.029-.107Z" fill="#258277"/>
      <path d="M12.873,1.155a.079.079,0,0,0-.079.136l1.262.734a.083.083,0,0,0,.04.011.079.079,0,0,0,.039-.147Z" fill="#258277"/>
      <path d="M10.835,10.176V8.71a.079.079,0,1,0-.157,0v1.466a.079.079,0,1,0,.157,0Z" fill="#258277"/>
      <path d="M7.457,10.57a.079.079,0,0,0-.079.136l1.262.734a.083.083,0,0,0,.04.011.079.079,0,0,0,.039-.147Z" fill="#258277"/>
      <path d="M5.42,9.385v-.9a.079.079,0,1,0-.158,0v.942A.08.08,0,0,0,5.3,9.5l.815.473a.072.072,0,0,0,.039.011.078.078,0,0,0,.068-.039A.077.077,0,0,0,6.2,9.837Z" fill="#258277"/>
      <path d="M5.42,7.028V5.567a.079.079,0,0,0-.158,0V7.028a.079.079,0,1,0,.158,0Z" fill="#258277"/>
    </g>
    <polygon points="12.659 8.585 12.659 14.852 7.243 18 7.243 11.725 12.659 8.585" fill="#37c2b1"/>
    <polygon points="12.659 8.585 7.244 11.733 1.828 8.584 7.244 5.436 12.659 8.585" fill="#42e8ca"/>
    <polygon points="7.243 11.733 7.243 18 1.828 14.852 1.828 8.585 7.243 11.733" fill="#3cd4c2"/>
  </g>
</svg>
