<svg xmlns="http://www.w3.org/2000/svg" viewBox="0 0 18 18">
  <defs>
    <linearGradient id="ee1e1458-57ef-48e3-bbe9-11a2d76a1a31" x1="6.37" y1="15.018" x2="6.37" y2="0.974" gradientUnits="userSpaceOnUse">
      <stop offset="0" stop-color="#32bedd" />
      <stop offset="0.793" stop-color="#32d4f5" />
    </linearGradient>
    <linearGradient id="e7d11e1d-cacb-4224-940e-4f7d804054b7" x1="12.179" y1="6.863" x2="13.263" y2="20.342" gradientUnits="userSpaceOnUse">
      <stop offset="0" stop-color="#5ea0ef" />
      <stop offset="1" stop-color="#0078d4" />
    </linearGradient>
  </defs>
  <title>Icon-672SPOffers</title>
  <g id="b6b6d028-7fa1-4a34-a20a-d0b30989dbf9">
    <g>
      <path d="M7.168,1.079H1.191a.473.473,0,0,0-.472.473V14.441a.472.472,0,0,0,.472.472H11.549a.472.472,0,0,0,.472-.472V5.911a.472.472,0,0,0-.472-.473H8.111a.471.471,0,0,1-.471-.472V1.552A.473.473,0,0,0,7.168,1.079Z" fill="#fff" />
      <path d="M6.95,1.683V4.92A1.188,1.188,0,0,0,8.136,6.108H11.4v8.2H1.343V1.683H6.95M7.178.974H1.114a.479.479,0,0,0-.478.48V14.539a.479.479,0,0,0,.478.479H11.626a.48.48,0,0,0,.479-.479V5.879a.48.48,0,0,0-.479-.48H8.136a.479.479,0,0,1-.479-.479V1.454a.479.479,0,0,0-.479-.48Z" fill="url(#ee1e1458-57ef-48e3-bbe9-11a2d76a1a31)" />
      <path d="M11.922,5.5,7.492,1.079v3.6A.813.813,0,0,0,8.3,5.5Z" fill="#32bedd" />
      <path d="M9.006,7.571H3.735a.342.342,0,0,0,0,.684H9.006a.342.342,0,0,0,0-.684Zm0,2.037H3.735a.342.342,0,0,0,0,.684H9.006a.342.342,0,1,0,0-.684Zm0,2.053H3.735a.342.342,0,0,0,0,.684H9.006a.342.342,0,0,0,0-.684Z" fill="#50e6ff" />
      <g>
        <path d="M17.359,16.145c-.254-2.028-1.249-3.747-3.081-4.3a2.482,2.482,0,1,0-2.716-.021c-1.846.5-2.832,2.051-3.057,4.331a.792.792,0,0,0,.707.869.7.7,0,0,0,.079,0h7.283a.788.788,0,0,0,.79-.786A.611.611,0,0,0,17.359,16.145Z" fill="url(#e7d11e1d-cacb-4224-940e-4f7d804054b7)" />
        <path d="M12.94,12.239a2.47,2.47,0,0,1-1.346-.4l1.332,3.481,1.323-3.457A2.475,2.475,0,0,1,12.94,12.239Z" fill="#fff" opacity="0.8" />
      </g>
    </g>
  </g>
</svg>