<svg xmlns="http://www.w3.org/2000/svg" width="18" height="18" viewBox="0 0 18 18">
  <defs>
    <linearGradient id="b87a5a31-2352-4a56-a3d5-6a680f740fbe" x1="9" y1="787.27" x2="9" y2="772.032" gradientTransform="matrix(1, 0, 0, -1, 0, 791.516)" gradientUnits="userSpaceOnUse">
      <stop offset="0" stop-color="#a67af4"/>
      <stop offset="1" stop-color="#773adc"/>
    </linearGradient>
  </defs>
  <path d="M17.576,3.283H9.73A.358.358,0,0,1,9.5,3.208L7.253,1.716a.456.456,0,0,0-.233-.064H.424A.424.424,0,0,0,0,2.065v13.87a.424.424,0,0,0,.424.413H17.576A.422.422,0,0,0,18,15.935V3.706A.423.423,0,0,0,17.576,3.283Z" fill="#773adc"/>
  <rect x="1.641" y="2.457" width="4.087" height="0.815" rx="0.169" fill="#fff" opacity="0.6"/>
  <path d="M17.576,3.261H9a.384.384,0,0,0-.3.127L7.274,4.765a.458.458,0,0,1-.3.116H.424A.424.424,0,0,0,0,5.305H0V15.893a.425.425,0,0,0,.424.413H17.576A.423.423,0,0,0,18,15.893V3.706a.423.423,0,0,0-.4-.444Z" fill="url(#b87a5a31-2352-4a56-a3d5-6a680f740fbe)"/>
  <rect x="3.276" y="8.028" width="2.224" height="1.7" rx="0.393" fill="#fff" opacity="0.8"/>
  <rect x="6.752" y="8.028" width="7.915" height="1.7" rx="0.381" fill="#fff"/>
  <rect x="3.276" y="11.037" width="2.224" height="1.7" rx="0.393" fill="#fff" opacity="0.8"/>
  <rect x="6.752" y="11.037" width="7.915" height="1.7" rx="0.381" fill="#fff"/>
</svg>
