<svg xmlns="http://www.w3.org/2000/svg" width="18" height="18" viewBox="0 0 18 18"><defs><linearGradient id="ee9ce1f6-0381-4912-b635-a5ad5a39c5b7" x1="8.965" y1="775.697" x2="8.965" y2="789.304" gradientTransform="matrix(1, 0, 0, -1, 0, 791.516)" gradientUnits="userSpaceOnUse"><stop offset="0" stop-color="#005ba1" /><stop offset="1" stop-color="#0078d4" /></linearGradient></defs><g id="aab8afbe-13a1-46f7-8795-52401d6e3286"><g><path d="M11.068,17.377l-9.7-4.366a1.479,1.479,0,0,1-.74-1.948L4.994,1.392A1.479,1.479,0,0,1,6.941.63l.051.023,9.621,4.366a1.479,1.479,0,0,1,.763,1.947c-.008.017-.015.034-.024.051l-4.365,9.621A1.48,1.48,0,0,1,11.068,17.377Z" fill="#50e6ff" /><path d="M14.285,15.819H3.645A1.489,1.489,0,0,1,2.167,14.34V3.69A1.487,1.487,0,0,1,3.645,2.212h10.64A1.479,1.479,0,0,1,15.764,3.69h0V14.34a1.479,1.479,0,0,1-1.479,1.479Z" fill="url(#ee9ce1f6-0381-4912-b635-a5ad5a39c5b7)" /><path d="M8.965,5c3.459,0,5.572,2.573,5.741,6.086a.891.891,0,0,1-.844.933H4.115a.89.89,0,0,1-.891-.889c0-.015,0-.031,0-.046C3.4,7.576,5.512,5,8.965,5Z" fill="#50e6ff" /><path d="M4.115,11.427a.294.294,0,0,1-.215-.089.3.3,0,0,1-.082-.221C3.983,7.757,6.3,5.6,8.965,5.6s4.987,2.161,5.149,5.521a.3.3,0,0,1-.286.313h-.011Z" fill="#fff" /><path d="M11.749,7.451A4.168,4.168,0,0,0,9.259,6.39V8.326a2.322,2.322,0,0,1,1.156.494Z" fill="#32bedd" /><path d="M6.182,7.451,7.516,8.82a2.322,2.322,0,0,1,1.156-.494V6.39A4.168,4.168,0,0,0,6.182,7.451Z" fill="#32bedd" /><path d="M10.836,9.25a2.456,2.456,0,0,1,.483,1.189H13.2a4.418,4.418,0,0,0-1.031-2.558Z" fill="#50e6ff" /><path d="M7.094,9.25,5.76,7.881a4.419,4.419,0,0,0-1.032,2.558H6.615A2.46,2.46,0,0,1,7.094,9.25Z" fill="#32bedd" /><path d="M12.429,8.826a.3.3,0,0,0-.384-.168L9.274,9.764l.216.553,2.773-1.108A.3.3,0,0,0,12.429,8.826Z" fill="#0078d4" /><circle cx="8.965" cy="10.164" r="0.809" fill="#b3b3b3" /></g></g></svg>