<svg xmlns="http://www.w3.org/2000/svg" width="18" height="18" viewBox="0 0 18 18">
  <defs>
    <linearGradient id="e340a5cb-eea9-41d6-8700-a18145ec5f42" x1="9" y1="0.358" x2="9" y2="11.392" gradientUnits="userSpaceOnUse">
      <stop offset="0" stop-color="#5ea0ef"/>
      <stop offset="1" stop-color="#0078d4"/>
    </linearGradient>
  </defs>
  <g id="a2bd512b-1323-408c-ae64-9b2504eb8cf8">
    <g>
      <polygon points="11.045 11.225 6.955 11.225 0.896 0.807 17.104 0.807 11.045 11.225" fill="url(#e340a5cb-eea9-41d6-8700-a18145ec5f42)"/>
      <path d="M17.2,1.607H.8a.8.8,0,0,1-.8-.8H0a.8.8,0,0,1,.8-.8H17.2a.8.8,0,0,1,.8.8h0A.8.8,0,0,1,17.2,1.607ZM11.061,16.173V11.225H6.955V17.43a.562.562,0,0,0,.781.518l2.981-1.257A.562.562,0,0,0,11.061,16.173Z" fill="#005ba1"/>
    </g>
  </g>
</svg>
