<svg xmlns="http://www.w3.org/2000/svg" width="18" height="18" viewBox="0 0 18 18">
  <defs>
    <linearGradient id="a4e796cc-b12a-4b4c-9c71-2590f4a370eb" x1="9" y1="0.415" x2="9" y2="17.585" gradientUnits="userSpaceOnUse">
      <stop offset="0.139" stop-color="#5ea0ef"/>
      <stop offset="1" stop-color="#0078d4"/>
    </linearGradient>
    <linearGradient id="bca0210e-2c1c-4230-9d0c-299d954bbca0" x1="12.194" y1="8.741" x2="12.194" y2="15.591" gradientUnits="userSpaceOnUse">
      <stop offset="0.18" stop-color="#b4ec36"/>
      <stop offset="1" stop-color="#86d633"/>
    </linearGradient>
    <linearGradient id="a453c032-f8c8-4c54-b37a-a08f5dc0f168" x1="5.804" y1="2.794" x2="5.804" y2="9.262" gradientUnits="userSpaceOnUse">
      <stop offset="0.18" stop-color="#b4ec36"/>
      <stop offset="1" stop-color="#86d633"/>
    </linearGradient>
  </defs>
  <g id="e2ea9422-d36a-4ec5-b5ca-5a3f1570fed5">
    <path d="M9.484,11.748v.9h-.07a4.063,4.063,0,0,1-4.06-4.06v-.07h.9v.07a3.167,3.167,0,0,0,3.16,3.16ZM2.409.436A1.85,1.85,0,0,0,.732,2.3c0,.048.005.1.009.128V7.587c0,.567-.185.82-.6.82H0v1.2H.141c.257,0,.6.081.6.788v5.242a1.93,1.93,0,0,0,1.683,1.929,2.642,2.642,0,0,0,.32.019c.072,0,.144,0,.216-.008l.067-.006,0-.064h.023V16.353l-.154.014a.627.627,0,0,1-.48-.157,1.161,1.161,0,0,1-.148-.621l0-5.038A1.629,1.629,0,0,0,1.634,9.02a1.679,1.679,0,0,0,.631-1.537V2.391c0-.509.217-.746.683-.746h.141V.449L2.964.435A2.574,2.574,0,0,0,2.409.436ZM18,8.4V9.6h-.141c-.257,0-.6.082-.6.789v5.242a1.93,1.93,0,0,1-1.682,1.929,2.869,2.869,0,0,1-.322.019c-.071,0-.143,0-.215-.009l-.067-.005,0-.065h-.023V16.347l.154.015a.625.625,0,0,0,.48-.157,1.165,1.165,0,0,0,.149-.616V10.525a1.609,1.609,0,0,1,.631-1.51,1.681,1.681,0,0,1-.631-1.538V2.386c0-.51-.217-.747-.683-.747h-.141V.443L15.036.43a2.461,2.461,0,0,1,.556,0A1.849,1.849,0,0,1,17.268,2.29c0,.047,0,.095-.01.142v5.15c0,.567.185.819.6.819Z" fill="url(#a4e796cc-b12a-4b4c-9c71-2590f4a370eb)"/>
    <path d="M14.9,9.888v4.63a.384.384,0,0,1-.39.39H9.884a.393.393,0,0,1-.4-.39V9.888a.4.4,0,0,1,.4-.4h4.63A.393.393,0,0,1,14.9,9.888Z" fill="url(#bca0210e-2c1c-4230-9d0c-299d954bbca0)"/>
    <rect x="3.094" y="3.098" width="5.42" height="5.42" rx="0.39" fill="url(#a453c032-f8c8-4c54-b37a-a08f5dc0f168)"/>
  </g>
</svg>
