<svg xmlns="http://www.w3.org/2000/svg" width="18" height="18" viewBox="0 0 18 18">
  <defs>
    <linearGradient id="a7e84f43-3388-42a9-a210-aac2c43b083f" x1="7.517" y1="775.809" x2="7.517" y2="789.927" gradientTransform="matrix(1, 0, 0, -1, 0, 791.516)" gradientUnits="userSpaceOnUse">
      <stop offset="0" stop-color="#0078d4"/>
      <stop offset="0.9" stop-color="#5ea0ef"/>
    </linearGradient>
    <linearGradient id="b8aa3241-c5e0-4109-ad98-47656cb7e6e5" x1="12.158" y1="17.875" x2="12.158" y2="9.788" gradientUnits="userSpaceOnUse">
      <stop offset="0.001" stop-color="#773adc"/>
      <stop offset="1" stop-color="#a67af4"/>
    </linearGradient>
  </defs>
  <g id="abbbb9a7-5916-411f-8664-b2bb4c2da8ab">
    <g>
      <path d="M1.815,1.607,2.925.313A.539.539,0,0,1,3.332.128H13.974a.745.745,0,0,1,.81.672.677.677,0,0,1,0,.09V14.173a.535.535,0,0,1-.175.4l-1.2,1.092H2.534L1.8,15.355Z" fill="#0078d4"/>
      <path d="M2.708,1.6l.68-.779a.48.48,0,0,1,.36-.16h9.939a.478.478,0,0,1,.478.478V13.768a.481.481,0,0,1-.155.354l-1.066.966Z" fill="#fff"/>
      <path d="M12.883,1.588H1.849a.05.05,0,0,0-.05.051h0V15.355a.352.352,0,0,0,.352.352H12.883a.353.353,0,0,0,.352-.352h0V1.941a.353.353,0,0,0-.351-.353Z" fill="url(#a7e84f43-3388-42a9-a210-aac2c43b083f)"/>
      <path d="M11.532,9.79H5.3a.17.17,0,0,1-.171-.168V8.854A.172.172,0,0,1,5.3,8.683h6.233a.171.171,0,0,1,.171.171v.763a.169.169,0,0,1-.167.173Zm-7.1-.17V8.854a.171.171,0,0,0-.165-.171H3.5a.171.171,0,0,0-.171.171v.763a.17.17,0,0,0,.17.17h.768a.169.169,0,0,0,.167-.17ZM11.7,7.14V6.374a.171.171,0,0,0-.171-.17H5.3a.171.171,0,0,0-.171.17v.763a.171.171,0,0,0,.169.171h6.235a.171.171,0,0,0,.171-.17h0Zm-7.268,0V6.374a.17.17,0,0,0-.165-.17H3.5a.171.171,0,0,0-.171.17v.763a.171.171,0,0,0,.17.171h.768a.171.171,0,0,0,.167-.171ZM11.7,4.661V3.9a.171.171,0,0,0-.171-.171H5.3a.171.171,0,0,0-.171.171v.763a.17.17,0,0,0,.169.17h6.235a.169.169,0,0,0,.171-.169h0Zm-7.268,0V3.9a.17.17,0,0,0-.165-.171H3.5A.171.171,0,0,0,3.33,3.9v.763a.17.17,0,0,0,.17.17h.768a.169.169,0,0,0,.167-.17Z" fill="#fff" opacity="0.8"/>
      <circle cx="12.158" cy="13.832" r="4.043" fill="url(#b8aa3241-c5e0-4109-ad98-47656cb7e6e5)"/>
      <g>
        <path d="M11.724,15.229l-.376.376a.165.165,0,0,1-.232,0h0L9.622,14.112a.165.165,0,0,1,0-.233h0l.26-.259a.165.165,0,0,1,.232,0h0Z" fill="#fff"/>
        <path d="M11.123,15.607l-.376-.375h0L14.183,11.8a.163.163,0,0,1,.231,0h0l.26.26a.164.164,0,0,1,0,.232h0l-3.321,3.319a.164.164,0,0,1-.231,0Z" fill="#f0f0f0"/>
      </g>
    </g>
  </g>
</svg>
