<svg xmlns="http://www.w3.org/2000/svg" width="18" height="18" viewBox="0 0 18 18">
  <defs>
    <linearGradient id="b36196ee-9a88-41cd-8480-72bed18625e6" x1="7.667" y1="0.495" x2="7.667" y2="15.829" gradientUnits="userSpaceOnUse">
      <stop offset="0" stop-color="#5ea0ef"/>
      <stop offset="1" stop-color="#0078d4"/>
    </linearGradient>
  </defs>
  <g id="b9781b19-8aaa-498c-9c64-4654a47a700a">
    <path d="M9.742,13.752A4.259,4.259,0,0,1,14,9.5a4.212,4.212,0,0,1,1.338.236V1.241C15.334.829,15.1.5,14.818.5H.516C.231.5,0,.829,0,1.241V15.083c0,.412.231.746.516.746h9.791A4.2,4.2,0,0,1,9.742,13.752Z" fill="url(#b36196ee-9a88-41cd-8480-72bed18625e6)"/>
    <path d="M14,10a3.754,3.754,0,1,0,3.754,3.754A3.758,3.758,0,0,0,14,10Z" fill="#76bc2d"/>
    <path d="M1.407,8l.43-.429h0L5.22,10.962a.194.194,0,0,1,0,.275l-.43.429a.2.2,0,0,1-.275,0L1.406,8.547a.388.388,0,0,1,0-.55h0Zm8.985,3.519a4.249,4.249,0,0,1,2.4-1.824l1.143-1.146a.389.389,0,0,0,0-.55l-.43-.429-3.387,3.4a.194.194,0,0,0,0,.275Z" fill="#50e6ff"/>
    <g>
      <path d="M13.566,15.135l-.372.373a.164.164,0,0,1-.23,0h0l-1.479-1.479a.164.164,0,0,1,0-.23h0l.257-.258a.164.164,0,0,1,.23,0h0l1.594,1.594Z" fill="#fff"/>
      <path d="M12.971,15.511l-.372-.372h0l3.4-3.4a.161.161,0,0,1,.229,0h0l.258.257a.164.164,0,0,1,0,.23h0L13.2,15.511a.162.162,0,0,1-.23,0Z" fill="#f0f0f0"/>
    </g>
    <path d="M1.831,8.978,1.4,8.548A.389.389,0,0,1,1.4,8h0L4.576,4.834a.194.194,0,0,1,.275,0l.428.43a.194.194,0,0,1,0,.275L1.831,8.978Zm8.215-3.709a.194.194,0,0,0,.006.275L13.5,8.98h0l.429-.43h0a.39.39,0,0,0,0-.55L10.752,4.836a.2.2,0,0,0-.275,0l-.428.43ZM8.652,3.639l-2.8,8.741a.139.139,0,0,0,.089.175l.687.22a.138.138,0,0,0,.174-.09L9.6,3.943a.138.138,0,0,0-.09-.174l-.686-.22A.139.139,0,0,0,8.652,3.639Z" fill="#9cebff"/>
  </g>
</svg>
