<svg viewBox="0 0 18 18" xmlns="http://www.w3.org/2000/svg">
  <path d="M10.1146 16.9L10.709 14.95L11.8483 14.3L13.8297 15.2L15.1176 13.9V13.75L14.226 12L14.7709 10.75L16.7523 10.05H16.9505V8.25H16.7028L14.7214 7.65L14.0774 6.5L14.9195 4.45L13.6316 3.2H13.483L11.7492 4.1L10.5604 3.35L9.81734 1H7.98452V1.25L7.39009 3.2L6.1517 3.75L4.02167 2.75L2.73375 4.1L2.83282 4.35L3.77399 6.2L3.27864 7.45L1 8.2V10.05H1.24768L3.17957 10.65L3.72446 11.9L2.78328 14.05L4.07121 15.35L4.26935 15.25L6.10217 14.3L7.34056 14.8L8.18266 17H9.96595L10.1146 16.9ZM7.19195 11C6.1517 10 6.1517 8.3 7.14242 7.25C8.13313 6.2 9.81734 6.2 10.8576 7.2C11.8978 8.2 11.8978 9.95 10.9071 11C10.1641 11.75 9.02477 12 8.03406 11.6C7.73684 11.45 7.43963 11.25 7.19195 11Z" fill="url(#80dff37e-ff71-465f-b67c-5e209b6c7a49)" />
  <defs>
    <linearGradient id="80dff37e-ff71-465f-b67c-5e209b6c7a49" x1="9.00496" y1="1" x2="9.00496" y2="16.9935" gradientUnits="userSpaceOnUse">
      <stop stop-color="#7CAFED" />
      <stop offset="1" stop-color="#0066BE" />
    </linearGradient>
  </defs>
</svg>