<svg xmlns="http://www.w3.org/2000/svg" width="18" height="18" viewBox="0 0 18 18">
  <defs>
    <linearGradient id="e8a6ece5-8b04-4dcf-958e-26708dc3a94a" x1="5.22" y1="-0.409" x2="5.22" y2="18.676" gradientUnits="userSpaceOnUse">
      <stop offset="0" stop-color="#50e6ff"/>
      <stop offset="1" stop-color="#32bedd"/>
    </linearGradient>
    <linearGradient id="aaee0fe8-6f86-481d-884d-2e63eb045dce" x1="5.21" y1="1.76" x2="5.21" y2="15.77" gradientUnits="userSpaceOnUse">
      <stop offset="0" stop-color="#32bedd"/>
      <stop offset="1" stop-color="#198ab3"/>
    </linearGradient>
    <linearGradient id="bb05bf7b-4667-4893-83a7-f929d0585b4c" x1="12.55" y1="4.69" x2="12.55" y2="13.761" gradientUnits="userSpaceOnUse">
      <stop offset="0.015" stop-color="#a67af4"/>
      <stop offset="0.974" stop-color="#773adc"/>
    </linearGradient>
  </defs>
  <g id="b2cfa5b9-1eca-4fb3-bb92-f80e628c36c0">
    <g>
      <g>
        <path d="M10.44.8V4.3H7.7a.99.99,0,0,0-.99.9v6.65a.991.991,0,0,0,.99.91h2.74V17.2a.525.525,0,0,1-.53.52H.52A.516.516,0,0,1,0,17.2V.8A.523.523,0,0,1,.52.28H9.91A.532.532,0,0,1,10.44.8Z" fill="url(#e8a6ece5-8b04-4dcf-958e-26708dc3a94a)"/>
        <path d="M4.9,16.368h.616a.277.277,0,0,1,.277.277v.442a.277.277,0,0,1-.277.277H4.9a.277.277,0,0,1-.277-.277v-.442A.277.277,0,0,1,4.9,16.368ZM4.009,1.02v.011a.154.154,0,0,0,.154.154H6.257a.154.154,0,0,0,.154-.154V1.02A.154.154,0,0,0,6.257.866H4.163A.154.154,0,0,0,4.009,1.02Z" fill="#198ab3"/>
        <path d="M9.45,1.95V4.3H7.7a.99.99,0,0,0-.99.9v6.65a.991.991,0,0,0,.99.91H9.45v2.82a.192.192,0,0,1-.2.19H1.17a.192.192,0,0,1-.2-.19V1.95a.2.2,0,0,1,.2-.19H9.25A.2.2,0,0,1,9.45,1.95Z" fill="url(#aaee0fe8-6f86-481d-884d-2e63eb045dce)"/>
      </g>
      <path d="M18,5.24v6.58a.589.589,0,0,1-.59.54H13.42a.142.142,0,0,0-.06.02l-.81.54-.89.59-.32.21a.211.211,0,0,1-.1.04.221.221,0,0,1-.24-.19V12.46a.092.092,0,0,0-.1-.09H7.7a.607.607,0,0,1-.6-.55V5.24a.615.615,0,0,1,.6-.55h9.71A.605.605,0,0,1,18,5.24Z" fill="#fff"/>
      <path d="M18,5.24v6.58a.589.589,0,0,1-.59.54H13.42a.142.142,0,0,0-.06.02l-.81.54-.89.59-.32.21a.211.211,0,0,1-.1.04.221.221,0,0,1-.24-.19V12.46a.092.092,0,0,0-.1-.09H7.7a.607.607,0,0,1-.6-.55V5.24a.615.615,0,0,1,.6-.55h9.71A.605.605,0,0,1,18,5.24Z" fill="url(#bb05bf7b-4667-4893-83a7-f929d0585b4c)"/>
      <path d="M12.783,8.2h-3.4a.422.422,0,0,1,0-.844h3.4a.422.422,0,0,1,0,.844Zm2.533,1.188a.422.422,0,0,0-.422-.422H9.384a.422.422,0,1,0,0,.844h5.51A.422.422,0,0,0,15.316,9.386Z" fill="#fff"/>
    </g>
  </g>
</svg>
