<svg xmlns="http://www.w3.org/2000/svg" viewBox="0 0 18 18">
  <defs>
    <linearGradient id="a831d57b-86e7-44ba-8d86-d7b6ed1b960c" x1="-555" y1="1011.638" x2="-555" y2="1024.398" gradientTransform="matrix(1, 0, 0, -1, 564, 1025.516)" gradientUnits="userSpaceOnUse">
      <stop offset="0" stop-color="#0078d4" />
      <stop offset="1" stop-color="#5ea0ef" />
    </linearGradient>
    <clipPath id="a979c1fe-7891-49a3-a82e-3be139dd3671">
      <path d="M15.041,7.973,13.157,4.919,9.567,3.29l-2.218.1L4.7,4.566,4.452,9.717H6.517l4.365-1.094.942,2.884,1.927.333,1.39-2.33Z" />
    </clipPath>
    <linearGradient id="a0a1962e-5ca5-46c2-8d6c-4a8b8bd9b38a" x1="238.843" y1="486.592" x2="238.843" y2="491.58" gradientTransform="matrix(1, 0, 0, -1, -234, 503.516)" gradientUnits="userSpaceOnUse">
      <stop offset="0" stop-color="#b3b3b3" />
      <stop offset="1" stop-color="#e6e6e6" />
    </linearGradient>
  </defs>
  <g id="ad98a585-8326-4fe6-ba1e-21da823dbe38">
    <path d="M18,9.882a4.047,4.047,0,0,0-3.511-3.93,5.1,5.1,0,0,0-5.24-4.873,5.238,5.238,0,0,0-5,3.445A4.821,4.821,0,0,0,0,9.175a4.9,4.9,0,0,0,5.026,4.77l.044,0h8.869A4.1,4.1,0,0,0,18,9.882Z" fill="url(#a831d57b-86e7-44ba-8d86-d7b6ed1b960c)" />
    <g clip-path="url(#a979c1fe-7891-49a3-a82e-3be139dd3671)">
      <path d="M14.8,9.4,13.346,11.31a.282.282,0,0,1-.447,0L11.448,9.4a.281.281,0,0,1,.225-.452h.752A3.212,3.212,0,0,0,6.066,8.3a3.252,3.252,0,0,0,.166,1.838A3.189,3.189,0,0,0,6.923,11.2l-.027.025a.771.771,0,0,0,0,1.086.581.581,0,0,0,.094.078l-.277.429a4.607,4.607,0,1,1,7.107-3.87h.753A.282.282,0,0,1,14.8,9.4Z" fill="#fff" />
    </g>
    <path d="M.624,11.936H9.061v4.7a.283.283,0,0,1-.282.283H.907a.283.283,0,0,1-.283-.283Z" fill="url(#a0a1962e-5ca5-46c2-8d6c-4a8b8bd9b38a)" />
    <path d="M.907,10.139H8.779a.283.283,0,0,1,.282.283v1.514H.624V10.417A.284.284,0,0,1,.907,10.139Z" fill="#37c2b1" />
    <path d="M1.77,12.482H7.91a.133.133,0,0,1,.129.134v.694a.133.133,0,0,1-.129.134H1.77a.133.133,0,0,1-.129-.134v-.694A.133.133,0,0,1,1.77,12.482Z" fill="#fff" />
    <path d="M1.775,13.866h6.14A.134.134,0,0,1,8.044,14v.7a.134.134,0,0,1-.129.134H1.775a.134.134,0,0,1-.129-.134v-.675a.134.134,0,0,1,.107-.156Z" fill="#37c2b1" />
    <path d="M1.775,15.266h6.14a.134.134,0,0,1,.129.134v.7a.134.134,0,0,1-.129.134H1.775a.134.134,0,0,1-.129-.134v-.7A.134.134,0,0,1,1.775,15.266Z" fill="#258277" />
  </g>
</svg>