<svg xmlns="http://www.w3.org/2000/svg"  width="18" height="18" viewBox="0 0 18 18">
  <defs>
    <radialGradient id="f601254a-e6de-45fc-86c5-49779bcf16a3" cx="9" cy="9" r="11.804" gradientUnits="userSpaceOnUse">
      <stop offset="0.27" stop-color="#ffd70f"/>
      <stop offset="0.49" stop-color="#ffcb12"/>
      <stop offset="0.88" stop-color="#feac19"/>
    </radialGradient>
  </defs>
  <g id="aa2d78c3-b490-4609-9039-6bc4e6f8d5df" >
    <path d="M16.587,4.294,9.283.076a.565.565,0,0,0-.565,0l-7.3,4.218a.562.562,0,0,0-.282.489v8.434a.566.566,0,0,0,.282.49l1.309.756c1.444-.369,2.337-.947,2.66-1.724.39-.932-.131-1.989-.682-3.108-.594-1.2-1.207-2.448-.7-3.673A3.77,3.77,0,0,1,7.641,3.6,5.707,5.707,0,0,1,10.8,4.934l.6-.817a.283.283,0,0,1,.5.1l.564,2.373a.284.284,0,0,1-.257.348l-2.436.152a.282.282,0,0,1-.244-.45l.669-.905A4.828,4.828,0,0,0,7.591,4.6,2.768,2.768,0,0,0,4.927,6.341c-.335.807.153,1.8.67,2.846.6,1.212,1.274,2.584.709,3.938A3.851,3.851,0,0,1,3.9,15.144l4.817,2.781a.57.57,0,0,0,.565,0l7.3-4.218a.566.566,0,0,0,.282-.49V4.783A.562.562,0,0,0,16.587,4.294ZM9,10.746a1.066,1.066,0,1,1,1.065-1.067A1.068,1.068,0,0,1,9,10.746Zm3.285,2.81a.334.334,0,0,1,0,.472l-.117.119a.334.334,0,0,1-.472,0l-.53-.532-.531.532a.334.334,0,0,1-.472,0l-.118-.119a.334.334,0,0,1,0-.472l.53-.53-.53-.531a.333.333,0,0,1,0-.471l.118-.118a.334.334,0,0,1,.472,0l.531.531.53-.531a.334.334,0,0,1,.472,0l.117.118a.333.333,0,0,1,0,.471l-.53.531ZM15.256,8.8a.334.334,0,0,1,0,.472l-.119.119a.332.332,0,0,1-.47,0l-.532-.532-.529.532a.334.334,0,0,1-.472,0l-.118-.119a.333.333,0,0,1,0-.472l.53-.53-.53-.531a.33.33,0,0,1,0-.47l.118-.119a.334.334,0,0,1,.472,0l.529.531.532-.531a.332.332,0,0,1,.47,0l.119.119a.332.332,0,0,1,0,.47l-.531.531Z" fill="url(#f601254a-e6de-45fc-86c5-49779bcf16a3)"/>
  </g>
</svg>
