<svg id="b8fe1be8-6337-4405-a93d-1408747c9ad9" xmlns="http://www.w3.org/2000/svg" width="18" height="18" viewBox="0 0 18 18">
  <defs>
    <linearGradient id="e53729a6-6f5b-4265-b169-6e5ab505a7ce" x1="-115.405" y1="-469.775" x2="-115.405" y2="-481.903" gradientTransform="translate(-247.033 424.649) rotate(45)" gradientUnits="userSpaceOnUse">
      <stop offset="0" stop-color="#0078d4"/>
      <stop offset="0.82" stop-color="#5ea0ef"/>
    </linearGradient>
  </defs>
  <path d="M9.3,14.752c0-.154-.613-.154-.613,0a1.657,1.657,0,0,1-1.506,1.794c-.043,0-.086.006-.13.006h3.882a1.655,1.655,0,0,1-1.639-1.671Q9.294,14.816,9.3,14.752Z" fill="#ef7100"/>
  <path d="M13.335,1.1a.57.57,0,0,1,.807,0l.026.028A8.32,8.32,0,0,1,2.432,12.858a.569.569,0,0,1-.049-.8l.025-.026h0A.57.57,0,0,1,3.19,12,7.178,7.178,0,0,0,13.312,1.882.573.573,0,0,1,13.335,1.1Z" fill="#f78d1e"/>
  <path d="M11.946,17.5h-5.9a.476.476,0,0,1-.476-.476h0a.476.476,0,0,1,.476-.476h5.9a.477.477,0,0,1,.475.476h0A.477.477,0,0,1,11.946,17.5Z" fill="#f78d1e"/>
  <circle cx="7.871" cy="6.563" r="6.063" fill="url(#e53729a6-6f5b-4265-b169-6e5ab505a7ce)"/>
  <circle cx="7.871" cy="6.563" r="6.063" fill="none"/>
  <path d="M6.7,5.389h0a.839.839,0,0,1,0,1.187h0a.841.841,0,0,1-1.187,0h0a.841.841,0,0,1,0-1.187h0a.839.839,0,0,1,1.187,0Z" fill="#42e8ca"/>
  <path d="M5.168,3.3A1.406,1.406,0,0,0,7.157,1.312L6.505.66A6.028,6.028,0,0,0,3.877,2.01Z" fill="#42e8ca"/>
  <path d="M2.686,4.925h0a.838.838,0,0,0,0-1.186L2.57,3.622a6.029,6.029,0,0,0-.589,1.527A.824.824,0,0,0,2.686,4.925Z" fill="#42e8ca"/>
  <path d="M5.734,12.231a6,6,0,0,0,4.36-.031l-.35-.35a2.6,2.6,0,0,0-4.01.381Z" fill="#42e8ca"/>
  <path d="M10.656,5.3h0a2.3,2.3,0,0,0,0,3.248l.482.482-.027-.024a.445.445,0,0,1-.631.629l0,.006a.6.6,0,0,0-.851.857l1.293,1.3a6.028,6.028,0,0,0,2.849-6.6A2.289,2.289,0,0,0,10.656,5.3Z" fill="#42e8ca"/>
</svg>
