<svg xmlns="http://www.w3.org/2000/svg" width="18" height="18" viewBox="0 0 18 18"><defs><linearGradient id="b79f5790-ff33-450a-9add-1424c7217db0" x1="3.591" y1="14.782" x2="3.591" y2="7.86" gradientUnits="userSpaceOnUse"><stop offset="0.001" stop-color="#76bc2d" /><stop offset="1" stop-color="#86d633" /></linearGradient><linearGradient id="f6e5682e-11e7-4a3c-9217-58e7f8eee2e7" x1="8.534" y1="2.537" x2="8.534" y2="16.939" gradientUnits="userSpaceOnUse"><stop offset="0" stop-color="#5ea0ef" /><stop offset="1" stop-color="#0078d4" /></linearGradient></defs><g id="aab57876-733b-4505-a99f-531127c8bc1e"><g><path d="M.125,11.326A3.429,3.429,0,0,1,3.517,7.861h.074a3.437,3.437,0,0,1,3.465,3.41v3.511H3.591A3.429,3.429,0,0,1,.125,11.39Z" fill-rule="evenodd" fill="url(#b79f5790-ff33-450a-9add-1424c7217db0)" /><path d="M15.225,6.9A3.835,3.835,0,0,0,11.267,3.22,3.944,3.944,0,0,0,7.684,5.347a3.762,3.762,0,0,1,3.444,3.585,3,3,0,0,1,2.606,2.884,2.983,2.983,0,0,1-.211,1.024h1.291a3.077,3.077,0,0,0,3.061-3.013A3.046,3.046,0,0,0,15.225,6.9Z" fill="#005ba1" /><path d="M11.128,8.932A3.774,3.774,0,0,0,7.235,5.317,3.885,3.885,0,0,0,3.508,7.844c-.06.007-.115.027-.174.037.062,0,.12-.02.183-.02h.074a3.437,3.437,0,0,1,3.465,3.41V14.78h3.667a3.027,3.027,0,0,0,3.011-2.964A3,3,0,0,0,11.128,8.932Z" fill="url(#f6e5682e-11e7-4a3c-9217-58e7f8eee2e7)" /><path d="M2.8,12.868l-.962-.962a.253.253,0,0,0-.359.358l1.141,1.142a.254.254,0,0,0,.359,0l2.79-2.79a.254.254,0,1,0-.359-.359Z" fill="#70ad10" /><path d="M2.763,12.712l-.947-.947a.25.25,0,0,0-.353.353l1.124,1.124a.25.25,0,0,0,.353,0L5.687,10.5a.25.25,0,0,0-.354-.353Z" fill="#fff" /></g></g></svg>