<svg xmlns="http://www.w3.org/2000/svg" width="18" height="18" viewBox="0 0 18 18">
  <defs>
    <linearGradient id="bb8d0c98-8cda-4810-ae27-bf8cd8398890" x1="-34.989" y1="821.075" x2="-34.989" y2="836.957" gradientTransform="matrix(1, 0, 0, -1, 44, 838.016)" gradientUnits="userSpaceOnUse">
      <stop offset="0" stop-color="#32bedd"/>
      <stop offset="1" stop-color="#50e6ff"/>
    </linearGradient>
  </defs>
  <g id="f85865e9-ab09-4f42-9044-488cd2501e7d">
    <g>
      <g>
        <path d="M16.3,2.552H17.64a.36.36,0,0,1,.36.36h0V6.618a.36.36,0,0,1-.36.36H16.3V2.552ZM16.3,9v6.925H17.64a.36.36,0,0,0,.36-.36V9.36h0A.36.36,0,0,0,17.64,9Z" fill="#a3a3a3"/>
        <rect x="1.726" y="1.059" width="14.569" height="15.882" rx="0.731" fill="url(#bb8d0c98-8cda-4810-ae27-bf8cd8398890)"/>
        <path d="M1.705,12.441H.36A.36.36,0,0,1,0,12.124V5.919a.36.36,0,0,1,.36-.36H1.705v6.882Z" fill="#949494"/>
      </g>
      <g>
        <path d="M4.846,5.549l-.01,6.71h1.63V13H4.485a.362.362,0,0,1-.352-.379V5.187a.363.363,0,0,1,.109-.266.282.282,0,0,1,.246-.106h5.958v.734Zm5.36,6.637V8.923h1.177a.358.358,0,0,0,.326-.371V5.817h-.7V8.2H9.825a.35.35,0,0,0-.332.361v4.055a.32.32,0,0,0,.1.248.35.35,0,0,0,.265.129h2.182v-.807Z" fill="#c3f1ff"/>
        <path d="M7.534,10.925v3.332a.281.281,0,0,1-.281.281H6.492a.281.281,0,0,1-.282-.281V10.925a.282.282,0,0,1,.282-.282h.761A.281.281,0,0,1,7.534,10.925ZM8.846,3.743V6.474a.281.281,0,0,0,.282.281h4.329a.281.281,0,0,0,.281-.281V3.743a.281.281,0,0,0-.281-.281H9.128A.281.281,0,0,0,8.846,3.743Z" fill="#198ab3"/>
        <circle cx="12.699" cy="12.591" r="0.917" fill="#fff"/>
      </g>
    </g>
  </g>
</svg>
