<svg viewBox="0 0 18 18" xmlns="http://www.w3.org/2000/svg">
  <path d="M10.038 0.130028H2.22302C1.88457 0.130028 1.60767 0.390078 1.60767 0.707917V16.5421C1.60767 16.8599 1.88457 17.12 2.22302 17.12H15.7762C16.1146 17.12 16.3915 16.8599 16.3915 16.5421V6.06784C16.3915 5.75 16.1146 5.48995 15.7762 5.48995H11.2841C10.9456 5.48995 10.6687 5.2299 10.6687 4.91206V0.722364C10.6534 0.390078 10.3918 0.130028 10.038 0.130028Z" fill="white" />
  <path d="M9.76111 0.866834V4.83982C9.76111 5.64887 10.4534 6.29899 11.3149 6.29899H15.5762V16.3687H2.42303V0.866834H9.76111ZM10.0534 0H2.13074C1.77691 0 1.5 0.26005 1.5 0.592337V16.6577C1.5 16.99 1.77691 17.25 2.13074 17.25H15.8839C16.2223 17.25 16.5146 16.99 16.5146 16.6577V6.0245C16.5146 5.69221 16.2377 5.43216 15.8839 5.43216H11.3149C10.9764 5.43216 10.6841 5.17211 10.6841 4.83982V0.592337C10.6841 0.26005 10.4072 0 10.0534 0Z" fill="url(#31af56db-d42f-48e4-a240-31aa63343c7f)" />
  <path d="M16.2685 5.54774L10.4688 0.130028V4.55088C10.4688 5.09988 10.9456 5.56219 11.5302 5.56219H16.2685V5.54774Z" fill="#0078D4" />
  <path d="M11.25 12.3806C11.6642 12.3806 12 12.0448 12 11.6306C12 11.2164 11.6642 10.8806 11.25 10.8806C10.8358 10.8806 10.5 11.2164 10.5 11.6306C10.5 12.0448 10.8358 12.3806 11.25 12.3806Z" fill="url(#c232e68b-a921-435a-92ac-40e84e7897cb)" />
  <path d="M9 12.3806C9.41421 12.3806 9.75 12.0448 9.75 11.6306C9.75 11.2164 9.41421 10.8806 9 10.8806C8.58579 10.8806 8.25 11.2164 8.25 11.6306C8.25 12.0448 8.58579 12.3806 9 12.3806Z" fill="url(#30a08008-ae3a-4bdd-bec3-2481b125fca0)" />
  <path d="M6.75 12.3806C7.16421 12.3806 7.5 12.0448 7.5 11.6306C7.5 11.2164 7.16421 10.8806 6.75 10.8806C6.33579 10.8806 6 11.2164 6 11.6306C6 12.0448 6.33579 12.3806 6.75 12.3806Z" fill="url(#4a6fb3d1-2cd8-40d1-8589-4e57914fdbb4)" />
  <path d="M7.17329 14.8358L6.74282 15.2675C6.70638 15.304 6.65692 15.3246 6.60532 15.3247C6.55372 15.3247 6.5042 15.3043 6.46766 15.2679L3.28063 12.0897C3.20755 12.0168 3.16642 11.9179 3.16628 11.8147C3.16613 11.7115 3.20699 11.6125 3.27986 11.5394L3.71033 11.1077L7.1729 14.5607C7.20944 14.5971 7.23001 14.6465 7.23008 14.6981C7.23015 14.7497 7.20972 14.7993 7.17329 14.8358V14.8358Z" fill="#50E6FF" />
  <path d="M6.67768 8.39622L7.10936 8.82669C7.1459 8.86312 7.16646 8.91258 7.16654 8.96418C7.16661 9.01578 7.14618 9.0653 7.10974 9.10184L3.7072 12.5139L3.27553 12.0834C3.20245 12.0106 3.16132 11.9116 3.16117 11.8084C3.16103 11.7052 3.20189 11.6062 3.27476 11.5331L6.40253 8.3966C6.43897 8.36006 6.48843 8.3395 6.54003 8.33942C6.59163 8.33935 6.64115 8.35978 6.67768 8.39622V8.39622Z" fill="#1490DF" />
  <path d="M14.2908 11.1018L14.7212 11.5335C14.7941 11.6066 14.835 11.7056 14.8348 11.8088C14.8347 11.912 14.7935 12.0109 14.7205 12.0838L11.5334 15.2619C11.4969 15.2984 11.4474 15.3188 11.3958 15.3187C11.3442 15.3187 11.2947 15.2981 11.2583 15.2616L10.8278 14.8299C10.7914 14.7933 10.771 14.7438 10.771 14.6922C10.7711 14.6406 10.7917 14.5912 10.8282 14.5547L14.2908 11.1018V11.1018Z" fill="#50E6FF" />
  <path d="M14.7199 12.0792L14.2882 12.5096L10.8857 9.09758C10.8492 9.06105 10.8288 9.01153 10.8289 8.95993C10.8289 8.90833 10.8495 8.85887 10.886 8.82243L11.3223 8.38738C11.3588 8.35095 11.4084 8.33052 11.46 8.33059C11.5116 8.33066 11.561 8.35123 11.5975 8.38777L14.7252 11.5243C14.7981 11.5974 14.839 11.6964 14.8388 11.7996C14.8387 11.9028 14.7975 12.0017 14.7245 12.0746L14.7199 12.0792Z" fill="#1490DF" />
  <defs>
    <linearGradient id="31af56db-d42f-48e4-a240-31aa63343c7f" x1="9.00011" y1="17.2494" x2="9.00011" y2="0" gradientUnits="userSpaceOnUse">
      <stop stop-color="#0078D4" />
      <stop offset="0.8167" stop-color="#5EA0EF" />
    </linearGradient>
    <linearGradient id="c232e68b-a921-435a-92ac-40e84e7897cb" x1="11.2537" y1="12.3839" x2="11.2517" y2="10.8839" gradientUnits="userSpaceOnUse">
      <stop stop-color="#0078D4" />
      <stop offset="0.82" stop-color="#5EA0EF" />
    </linearGradient>
    <linearGradient id="30a08008-ae3a-4bdd-bec3-2481b125fca0" x1="7.67457" y1="13.1306" x2="7.68103" y2="11.6306" gradientUnits="userSpaceOnUse">
      <stop stop-color="#0078D4" />
      <stop offset="0.82" stop-color="#5EA0EF" />
    </linearGradient>
    <linearGradient id="4a6fb3d1-2cd8-40d1-8589-4e57914fdbb4" x1="5.42457" y1="13.1306" x2="5.43103" y2="11.6306" gradientUnits="userSpaceOnUse">
      <stop stop-color="#0078D4" />
      <stop offset="0.82" stop-color="#5EA0EF" />
    </linearGradient>
  </defs>
</svg>