<svg xmlns="http://www.w3.org/2000/svg" viewBox="0 0 16 16">
  <path d="M11.8,1a4.514,4.514,0,0,1,1.6.3l1.4.9.9,1.4A4.7,4.7,0,0,1,16,5.3a4.514,4.514,0,0,1-.3,1.6,4.213,4.213,0,0,1-.9,1.4L8,15,1.2,8.3A4.213,4.213,0,0,1,.3,6.9,4.514,4.514,0,0,1,0,5.3,4.7,4.7,0,0,1,.3,3.6l.9-1.4,1.4-.9A4.7,4.7,0,0,1,4.3,1H5.4l.9.5a2.394,2.394,0,0,1,.9.6L8,3l.8-.8a2.394,2.394,0,0,1,.9-.6l.9-.5ZM14,7.5a2.5,2.5,0,0,0,.8-1A5.028,5.028,0,0,0,15,5.3,2.807,2.807,0,0,0,14.7,4a2.4,2.4,0,0,0-.6-1A2.6,2.6,0,0,0,13,2.3L11.8,2l-1.2.2-1,.6-.8.7L8,4.4l-.8-.8-.9-.8-.9-.6L4.3,2A2.807,2.807,0,0,0,3,2.3a3.885,3.885,0,0,0-1.1.6A3.885,3.885,0,0,0,1.3,4,2.807,2.807,0,0,0,1,5.3a5.028,5.028,0,0,0,.2,1.2,2.5,2.5,0,0,0,.8,1l6,6.1Z" />
</svg>