<svg xmlns="http://www.w3.org/2000/svg" viewBox="0 0 18 18">
  <defs>
    <linearGradient id="e242c85b-520f-4329-b06a-62eb9e13da27" x1="6.389" y1="17.053" x2="6.389" y2="1.365" gradientUnits="userSpaceOnUse">
      <stop offset="0" stop-color="#76bc2d" />
      <stop offset="1" stop-color="#86d633" />
    </linearGradient>
    <linearGradient id="b4f5fcee-37d2-4091-9a80-b88295c9a054" x1="14.397" y1="16.946" x2="14.397" y2="0.815" gradientUnits="userSpaceOnUse">
      <stop offset="0" stop-color="#83b9f9" />
      <stop offset="0.999" stop-color="#0078d4" />
    </linearGradient>
  </defs>
  <g id="b51b002f-48ba-4de9-8209-15d7f9af1bf0">
    <path d="M10.581,13.846a.566.566,0,0,1,.4-.967H12.77V9.019a.537.537,0,0,1,.02-.139.523.523,0,0,1-.02-.138V4.881H10.982a.566.566,0,0,1-.4-.966l1.371-1.371A7.841,7.841,0,1,0,7.831,17.053a7.8,7.8,0,0,0,4.518-1.439Z" fill="url(#e242c85b-520f-4329-b06a-62eb9e13da27)" />
    <path d="M11.787,15.052a7.058,7.058,0,1,1-3.956-12.9,7,7,0,0,1,3.549.967l.572-.572A7.841,7.841,0,1,0,7.831,17.053a7.8,7.8,0,0,0,4.518-1.439Z" fill="#86d633" />
    <path d="M8.459,4.906A.66.66,0,1,1,7.8,4.245.659.659,0,0,1,8.459,4.906Zm-.026,9.017a.66.66,0,1,1-.658-.662A.659.659,0,0,1,8.433,13.923ZM5.641,12.418l0-1.473a2.853,2.853,0,0,0,.869.506,2.8,2.8,0,0,0,.948.171,2.1,2.1,0,0,0,.491-.049,1.141,1.141,0,0,0,.35-.139.619.619,0,0,0,.211-.212.526.526,0,0,0,.069-.264.572.572,0,0,0-.109-.346,1.19,1.19,0,0,0-.3-.282,3.231,3.231,0,0,0-.453-.25c-.175-.08-.363-.162-.566-.246A2.9,2.9,0,0,1,6,9.044a1.724,1.724,0,0,1-.377-1.125,1.789,1.789,0,0,1,.21-.886A1.765,1.765,0,0,1,6.4,6.424a2.545,2.545,0,0,1,.828-.35,4.263,4.263,0,0,1,.995-.109,6.024,6.024,0,0,1,.914.064,3.631,3.631,0,0,1,.734.194l0,1.377a2.177,2.177,0,0,0-.361-.2,2.73,2.73,0,0,0-.4-.146,3.056,3.056,0,0,0-.412-.087A2.815,2.815,0,0,0,8.3,7.135a1.99,1.99,0,0,0-.46.047,1.163,1.163,0,0,0-.351.134.674.674,0,0,0-.221.209.491.491,0,0,0-.079.274.515.515,0,0,0,.086.3,1.009,1.009,0,0,0,.248.25,2.73,2.73,0,0,0,.391.231c.153.076.327.154.52.234a5.943,5.943,0,0,1,.71.355,2.531,2.531,0,0,1,.54.423,1.639,1.639,0,0,1,.344.537,1.918,1.918,0,0,1,.118.7,1.874,1.874,0,0,1-.213.927,1.69,1.69,0,0,1-.57.606,2.463,2.463,0,0,1-.837.332,4.871,4.871,0,0,1-1.006.1,5.622,5.622,0,0,1-1.034-.1A3.089,3.089,0,0,1,5.641,12.418Z" fill="#fff" />
    <path d="M17.813,4.489H15.806a.174.174,0,0,0-.174.174V6.572h-2.47V4.663a.174.174,0,0,0-.174-.174H10.982a.174.174,0,0,1-.123-.3L14.122.929a.389.389,0,0,1,.55,0l3.264,3.263A.174.174,0,0,1,17.813,4.489Zm-6.954,9.079,3.263,3.264a.389.389,0,0,0,.55,0l3.264-3.264a.173.173,0,0,0-.123-.3H15.806a.174.174,0,0,1-.174-.174V11.189h-2.47V13.1a.174.174,0,0,1-.174.174H10.982A.173.173,0,0,0,10.859,13.568Zm4.773-6.4v.714c0,.021-.033.039-.075.039h-2.32c-.041,0-.075-.018-.075-.039V7.171c0-.021.034-.039.075-.039h2.32C15.6,7.132,15.632,7.15,15.632,7.171Zm0,1.353v.713c0,.022-.033.039-.075.039h-2.32c-.041,0-.075-.017-.075-.039V8.524c0-.022.034-.04.075-.04h2.32C15.6,8.484,15.632,8.5,15.632,8.524Zm0,1.352v.713c0,.022-.033.04-.075.04h-2.32c-.041,0-.075-.018-.075-.04V9.876c0-.022.034-.039.075-.039h2.32C15.6,9.837,15.632,9.854,15.632,9.876Z" fill="url(#b4f5fcee-37d2-4091-9a80-b88295c9a054)" />
  </g>
</svg>