<svg id="uuid-3b74028e-a9f2-46de-8bee-2a85ccb6f35e" xmlns="http://www.w3.org/2000/svg" width="18" height="18" viewBox="0 0 18 18">
  <defs>
    <linearGradient id="uuid-e1e1f9b3-a995-4271-95ed-afea48ec88f0" x1="-1056.612" y1=".663" x2="-1056.612" y2="20.791" gradientTransform="translate(1063.359 18) scale(1 -1)" gradientUnits="userSpaceOnUse">
      <stop offset="0" stop-color="#0078d4"/>
      <stop offset="1" stop-color="#005ba1"/>
    </linearGradient>
    <linearGradient id="uuid-869ac60d-54d2-4d4b-a91b-e5aad0e8e5c4" x1="-1059.685" y1="4.055" x2="-1059.685" y2="18.256" gradientTransform="translate(-1049.866) rotate(-180) scale(1 -1)" gradientUnits="userSpaceOnUse">
      <stop offset="0" stop-color="#50e6ff"/>
      <stop offset="1" stop-color="#32bedd"/>
    </linearGradient>
  </defs>
  <path d="m0,0h12.891C13.223,0,13.493.269,13.493.601v16.798c0,.332-.269.601-.601.601H0V0h0Z" transform="translate(13.493 18) rotate(-180)" fill="url(#uuid-e1e1f9b3-a995-4271-95ed-afea48ec88f0)"/>
  <path d="m1.725,8.791l4.57-4.567c.189-.189.513-.055.513.212v2.389s2.058,0,2.058,0V1.803C8.865.807,9.673,0,10.67,0h6.729c.332,0,.601.269.601.601v16.798c0,.332-.269.601-.601.601h-6.729c-.996,0-1.804-.807-1.804-1.803v-5.015s-2.058,0-2.058,0v2.389c0,.268-.324.402-.513.212L1.725,9.216c-.117-.117-.117-.308,0-.425Z" fill="url(#uuid-869ac60d-54d2-4d4b-a91b-e5aad0e8e5c4)"/>
</svg>