<svg xmlns="http://www.w3.org/2000/svg" width="18" height="18" viewBox="0 0 18 18">
  <defs>
    <linearGradient id="b55ef76c-a3ad-4bad-8241-167820ff31cb" x1="9" y1="19.848" x2="9" y2="-1.014" gradientUnits="userSpaceOnUse">
      <stop offset="0" stop-color="#0078d4"/>
      <stop offset="0.817" stop-color="#5ea0ef"/>
    </linearGradient>
  </defs>
  <path d="M.181,8.566,8.568.179a.61.61,0,0,1,.864,0l8.387,8.387a.611.611,0,0,1,0,.863l-8.395,8.4a.6.6,0,0,1-.848,0l-8.4-8.4A.611.611,0,0,1,.181,8.566Z" fill="url(#b55ef76c-a3ad-4bad-8241-167820ff31cb)"/>
  <circle id="feec4f34-49ee-4987-a442-e9f6e70fe42c" cx="9.077" cy="8.902" r="1.331" fill="#198ab3"/>
  <path d="M14.093,7.56a1.4,1.4,0,0,0-1.179.642H11.389a2.412,2.412,0,0,0-1.64-1.564V5.108c0-.023,0-.044,0-.062a1.41,1.41,0,1,0-1.535,0V6.709A2.423,2.423,0,0,0,6.805,8.2H5.091a1.409,1.409,0,1,0,0,1.535H6.808a2.42,2.42,0,0,0,1.429,1.489v1.662a1.409,1.409,0,1,0,1.535,0c0-.018,0-.039,0-.062V11.283a2.415,2.415,0,0,0,1.615-1.547h1.528A1.408,1.408,0,1,0,14.093,7.56Z" fill="#fff"/>
  <circle id="b7503269-de67-47ca-b76c-02c9009dff7b" cx="9.111" cy="9" r="1.409" fill="#50e6ff"/>
</svg>
