<svg xmlns="http://www.w3.org/2000/svg" viewBox="0 0 18 18">
  <defs>
    <linearGradient id="f094c991-64a9-4c09-9db8-1bc849462e9d" x1="9.059" y1="5.687" x2="9.059" y2="0.766" gradientUnits="userSpaceOnUse">
      <stop offset="0" stop-color="#0078d2" />
      <stop offset="1" stop-color="#5e9eee" />
    </linearGradient>
  </defs>
  <g id="a7951d71-bd09-4fa6-96ab-abb99e5a9d9f">
    <path d="M16.276,9.471H9.553a.422.422,0,0,0-.2.054L9.336,3.9a.423.423,0,0,0-.846,0l.023,5.6H1.841a.422.422,0,0,0-.422.422v5.17a.423.423,0,1,0,.845,0V10.347H8.516l.019,4.759a.423.423,0,0,0,.423.421h0a.424.424,0,0,0,.422-.424l-.02-4.838a.408.408,0,0,0,.192.052h6.3v4.777a.423.423,0,0,0,.846,0v-5.2A.424.424,0,0,0,16.276,9.471Z" fill="#76bc2d" />
    <g>
      <rect x="0.059" y="0.766" width="18" height="4.921" rx="0.602" fill="url(#f094c991-64a9-4c09-9db8-1bc849462e9d)" />
      <rect x="15.261" y="1.627" width="1.345" height="1.345" rx="0.301" fill="#fff" />
      <rect x="15.261" y="3.481" width="1.345" height="1.345" rx="0.301" fill="#fff" opacity="0.6" />
    </g>
    <path d="M17.628,17.234h-2.7a.173.173,0,0,1-.173-.173v-2.7a.173.173,0,0,1,.173-.173h2.7a.172.172,0,0,1,.173.173v2.7A.172.172,0,0,1,17.628,17.234Zm-7.111-.173v-2.7a.173.173,0,0,0-.174-.173H7.64a.173.173,0,0,0-.174.173v2.7a.173.173,0,0,0,.174.173h2.7A.173.173,0,0,0,10.517,17.061Zm-7.15,0v-2.7a.173.173,0,0,0-.174-.173H.49a.173.173,0,0,0-.174.173v2.7a.173.173,0,0,0,.174.173h2.7A.173.173,0,0,0,3.367,17.061Z" fill="#86d633" />
  </g>
  <metadata>
    <rdf:RDF xmlns:rdf="http://www.w3.org/1999/02/22-rdf-syntax-ns#">
      <rdf:li>public:true</rdf:li>
      <rdf:li>sdk:false</rdf:li>
      <rdf:li>category:Other</rdf:li>
    </rdf:RDF>
  </metadata>
</svg>