<svg id="uuid-245eb699-28b5-4460-906a-113e2fcfde2d" xmlns="http://www.w3.org/2000/svg" width="18" height="18" viewBox="0 0 18 18">
  <defs>
    <linearGradient id="uuid-5573f9db-0a4f-43a2-ac5b-c6ad1490d1bd" x1="-216.753" y1="1610.027" x2="-198.753" y2="1610.027" gradientTransform="translate(-1599.923 -198.753) rotate(-90)" gradientUnits="userSpaceOnUse">
      <stop offset="0" stop-color="#198ab3"/>
      <stop offset="1" stop-color="#32bedd"/>
    </linearGradient>
    <linearGradient id="uuid-7c003000-472d-4c30-abbf-ef974b6ca61b" x1="-207.753" y1="1610.039" x2="-207.753" y2="1601.391" gradientTransform="translate(-1599.923 -198.753) rotate(-90)" gradientUnits="userSpaceOnUse">
      <stop offset="0" stop-color="#76bc2d"/>
      <stop offset=".192" stop-color="#7fcb30"/>
      <stop offset=".42" stop-color="#84d332"/>
      <stop offset=".775" stop-color="#86d633"/>
    </linearGradient>
  </defs>
  <path d="m15.388,18H4.819c-.631,0-1.144-.513-1.144-1.144v-5.375c0-.237.192-.429.429-.429s.429.192.429.429v5.375c0,.158.128.286.286.286h10.569c.158,0,.286-.128.286-.286V1.144c0-.158-.128-.286-.286-.286H4.819c-.158,0-.286.128-.286.286v5.375c0,.237-.192.429-.429.429s-.429-.192-.429-.429V1.144c0-.631.513-1.144,1.144-1.144h10.569c.631,0,1.144.513,1.144,1.144v15.712c0,.631-.513,1.144-1.144,1.144Z" fill="url(#uuid-5573f9db-0a4f-43a2-ac5b-c6ad1490d1bd)"/>
  <path d="m7.287,11.567v-1.508c0-.072-.058-.13-.13-.13,0,0,0,0-.001,0H1.598c-.072,0-.13-.059-.13-.131v-1.595c0-.072.058-.131.13-.131h5.558c.072,0,.131-.057.131-.129,0,0,0,0,0-.001v-1.508c0-.072.057-.131.129-.131.035,0,.069.014.094.039l2.567,2.567c.051.05.052.132.002.183,0,0-.002.002-.002.002l-2.567,2.567c-.051.051-.133.052-.184.001-.025-.025-.039-.058-.039-.094Z" fill="url(#uuid-7c003000-472d-4c30-abbf-ef974b6ca61b)"/>
  <path d="m13.353,5.912h-1.526c-.211,0-.381.171-.381.381v1.526c0,.211.171.381.381.381h1.526c.211,0,.381-.171.381-.381v-1.526c0-.211-.171-.381-.381-.381Zm0-3.888h-1.526c-.211,0-.381.171-.381.381v1.526c0,.211.171.381.381.381h1.526c.211,0,.381-.171.381-.381v-1.526c0-.211-.171-.381-.381-.381Zm0,7.777h-1.526c-.211,0-.381.171-.381.381v1.525c0,.211.171.381.381.381h1.526c.211,0,.381-.171.381-.381v-1.525c0-.211-.171-.381-.381-.381Zm0,3.888h-1.526c-.211,0-.381.171-.381.381v1.526c0,.211.171.381.381.381h1.526c.211,0,.381-.171.381-.381v-1.526c0-.211-.171-.381-.381-.381Z" fill="#32bedd"/>
</svg>