<svg id="uuid-62cb07e5-f97a-4bd2-8c21-cfdc2b101d7a" xmlns="http://www.w3.org/2000/svg" width="14.281" height="16" viewBox="0 0 14.281 16">
  <g id="uuid-dbe07b0f-8944-440c-b961-4cf11ad9e965">
    <g>
      <g>
        <polygon points="3.635 10.772 7.347 10.772 8.156 9.964 3.635 9.964 3.635 10.772"/>
        <rect x="3.635" y="7.541" width="4.847" height=".808"/>
        <rect x="2.02" y="9.964" width=".808" height=".808"/>
        <rect x="3.635" y="5.117" width="4.847" height=".808"/>
        <rect x="2.02" y="7.541" width=".808" height=".808"/>
        <path d="M5.267,12.85l.113-.113,.62-.619H.808V.808H6.463v3.231h3.231v4.388l.808-.807V3.474L7.028,0H0V12.925H5.249l.019-.076ZM7.271,1.373l1.858,1.858h-1.858V1.373Z"/>
        <rect x="2.02" y="5.117" width=".808" height=".808"/>
      </g>
      <g id="uuid-38ed6d61-1df9-46a4-adb7-979b4d422609">
        <path d="M14.281,8.282c-.001,.198-.041,.394-.115,.577-.075,.186-.187,.355-.329,.496l-5.901,5.936-2.884,.71,.71-2.855,5.936-5.93c.142-.142,.31-.254,.496-.329,.183-.075,.379-.114,.577-.115,.199,0,.395,.042,.577,.121,.18,.074,.343,.184,.479,.323,.137,.138,.247,.3,.323,.479,.085,.185,.13,.385,.133,.588ZM5.848,15.204l1.511-.358c-.034-.136-.084-.268-.15-.392-.067-.119-.149-.229-.242-.329-.1-.093-.21-.175-.329-.242-.136-.073-.282-.127-.433-.162l-.358,1.483Zm.675-2.002c.626,.204,1.117,.695,1.321,1.321l4.875-4.869-1.321-1.321-4.875,4.869Zm6.605-3.957l.219-.213c.066-.065,.128-.135,.185-.208,.051-.076,.094-.157,.127-.242,.032-.095,.047-.194,.046-.294,.003-.125-.023-.249-.075-.363-.046-.113-.115-.215-.202-.3-.085-.087-.187-.156-.3-.202-.112-.051-.234-.077-.358-.075-.102-.001-.203,.014-.3,.046-.085,.033-.167,.076-.242,.127-.076,.056-.146,.12-.208,.19l-.213,.213,1.321,1.321Z"/>
      </g>
    </g>
  </g>
</svg>