<svg id="uuid-4e5c1569-a036-41e5-9383-c31faecc07dc" xmlns="http://www.w3.org/2000/svg" width="18" height="18" viewBox="0 0 18 18">
  <polygon points="8.772 10.469 8.772 15.482 4.44 18 4.44 12.98 8.772 10.469" fill="#0078d4" stroke-width="0"/>
  <polygon points="8.772 10.469 4.44 12.987 .107 10.468 4.44 7.949 8.772 10.469" fill="#5ea0ef" stroke-width="0"/>
  <polygon points="4.44 12.987 4.44 18 .107 15.482 .107 10.468 4.44 12.987" fill="#83b9f9" stroke-width="0"/>
  <polygon points="13.364 2.52 13.364 7.533 9.032 10.051 9.032 5.031 13.364 2.52" fill="#0078d4" stroke-width="0"/>
  <polygon points="13.364 2.52 9.032 5.037 4.7 2.519 9.032 0 13.364 2.52" fill="#5ea0ef" stroke-width="0"/>
  <polygon points="9.032 5.037 9.032 10.051 4.7 7.533 4.7 2.519 9.032 5.037" fill="#83b9f9" stroke-width="0"/>
  <polygon points="17.893 10.457 17.893 15.47 13.56 17.988 13.56 12.968 17.893 10.457" fill="#32bedd" stroke-width="0"/>
  <polygon points="17.893 10.457 13.56 12.975 9.228 10.456 13.56 7.937 17.893 10.457" fill="#50e6ff" stroke-width="0"/>
  <polygon points="13.56 12.975 13.56 17.988 9.228 15.47 9.228 10.456 13.56 12.975" fill="#9cebff" stroke-width="0"/>
</svg>