<svg xmlns="http://www.w3.org/2000/svg" width="16" height="16" viewBox="0 0 16 16">
  <g id="a3a3262b-ae45-4fe3-be5c-6443395ab9a4" data-name="Layer 1">
    <g>
      <path d="M12.674,14.627H9.213V8.934h3.461a.556.556,0,1,0,0-1.112H8.583a.565.565,0,0,0-.573.556v6.805a.565.565,0,0,0,.573.556h4.091a.556.556,0,1,0,0-1.112Z"/>
      <path d="M15.809,11.622l-2.191-2.2a.23.23,0,0,0-.319,0l-.359.36a.218.218,0,0,0-.067.16.227.227,0,0,0,.066.159l1.167,1.163H9.822a.226.226,0,0,0-.225.226v.576a.225.225,0,0,0,.225.225h4.284l-1.168,1.164a.227.227,0,0,0-.065.159.223.223,0,0,0,.066.159l.361.361a.225.225,0,0,0,.317,0l2.192-2.2A.225.225,0,0,0,15.809,11.622Zm-2.262,2.444Z"/>
      <path d="M6.416,7.535A3.637,3.637,0,1,0,2.779,3.9,3.64,3.64,0,0,0,6.416,7.535Zm0-6.191A2.555,2.555,0,1,1,3.861,3.9,2.558,2.558,0,0,1,6.416,1.344Z"/>
      <path d="M.125,10.09a3.939,3.939,0,0,0,1.934,3.443,8.136,8.136,0,0,0,4.357,1.08c.288,0,.586-.013.911-.04l.091-.007V13.473l-.227.015c-.279.018-.661.042-.775.042a7.167,7.167,0,0,1-3.775-.91,2.865,2.865,0,0,1-1.434-2.53A.79.79,0,0,1,2,9.305H7.418V8.223H2A1.874,1.874,0,0,0,.125,10.09Z"/>
    </g>
  </g>
</svg>
