<svg xmlns="http://www.w3.org/2000/svg" viewBox="0 0 18 18">
  <g id="add7007d-8c92-4006-92c8-0acc39e64723">
    <path d="M7.539,13.943a4.54,4.54,0,0,1-.695.207,8.1,8.1,0,0,1-1.685.164,9.337,9.337,0,0,1-1.731-.159,5.2,5.2,0,0,1-1.422-.467l.007-2.468a4.736,4.736,0,0,0,3.043,1.135,3.569,3.569,0,0,0,.822-.082,1.92,1.92,0,0,0,.561-.224A3.408,3.408,0,0,0,7.539,13.943ZM5.618,2.209A1.1,1.1,0,1,0,4.517,1.1,1.1,1.1,0,0,0,5.618,2.209ZM4.541,9.361q.507.21.947.411a5.3,5.3,0,0,1,.758.419,2.349,2.349,0,0,1,.282.223A3.415,3.415,0,0,1,8.123,8.407c-.081-.056-.156-.114-.243-.166a9.771,9.771,0,0,0-1.19-.594q-.486-.2-.871-.392a4.5,4.5,0,0,1-.654-.387,1.694,1.694,0,0,1-.416-.418.884.884,0,0,1-.145-.5.832.832,0,0,1,.133-.458,1.128,1.128,0,0,1,.371-.35A1.949,1.949,0,0,1,5.7,4.918a3.4,3.4,0,0,1,.771-.079,5.048,5.048,0,0,1,.652.048,5.2,5.2,0,0,1,.69.145,4.842,4.842,0,0,1,.674.245,3.676,3.676,0,0,1,.6.341l.007-2.306a6.052,6.052,0,0,0-1.229-.324A10.037,10.037,0,0,0,6.333,2.88a7.067,7.067,0,0,0-1.666.184,4.227,4.227,0,0,0-1.386.586,2.936,2.936,0,0,0-.948,1.019,3,3,0,0,0-.352,1.484,2.881,2.881,0,0,0,.631,1.883A4.838,4.838,0,0,0,4.541,9.361ZM5.58,15.1a1.1,1.1,0,1,0,1.1,1.107A1.1,1.1,0,0,0,5.58,15.1Z" fill="#76bc2d" />
    <g>
      <rect x="13.293" y="12.848" width="1.319" height="5.789" rx="0.616" transform="translate(-7.045 14.476) rotate(-45)" fill="#999" />
      <path d="M9.659,7.411a3.972,3.972,0,1,0,3.972,3.972A3.971,3.971,0,0,0,9.659,7.411Zm.008,7.02a3.12,3.12,0,1,1,3.12-3.119A3.118,3.118,0,0,1,9.667,14.431Z" fill="#b3b3b3" />
    </g>
    <path d="M9.67,8.607a4.7,4.7,0,0,0-.416-.374,3.1,3.1,0,0,0-2.509,1.994,2.332,2.332,0,0,1,.473.46,1.159,1.159,0,0,1,.224.7,1.069,1.069,0,0,1-.14.536,1.242,1.242,0,0,1-.425.429c-.037.024-.085.043-.126.064a3.108,3.108,0,0,0,2.111,1.9c.056-.032.12-.055.174-.089A3.452,3.452,0,0,0,10.188,13a3.809,3.809,0,0,0,.424-1.879,3.85,3.85,0,0,0-.242-1.422A3.319,3.319,0,0,0,9.67,8.607Z" fill="#86d633" />
  </g>
</svg>