<svg xmlns="http://www.w3.org/2000/svg" width="18" height="18" viewBox="0 0 18 18">
  <defs>
    <linearGradient id="bedd7003-574c-4a40-92b0-409f2a062f7c" x1="9" y1="17.747" x2="9" y2="0.039" gradientUnits="userSpaceOnUse">
      <stop offset="0" stop-color="#773adc"/>
      <stop offset="1" stop-color="#a67af4"/>
    </linearGradient>
  </defs>
  <g id="bab085c1-fad7-47bd-97ef-6bee12d36e13">
    <g>
      <path d="M12.4,7.409a1.076,1.076,0,0,1-1.019,1.126H6.711A1.077,1.077,0,0,1,5.69,7.409h0A1.077,1.077,0,0,1,6.711,6.283h4.671A1.076,1.076,0,0,1,12.4,7.409Zm0-3.341a1.075,1.075,0,0,0-1.019-1.125H6.711A1.076,1.076,0,0,0,5.69,4.07h0A1.077,1.077,0,0,0,6.711,5.2h4.671A1.076,1.076,0,0,0,12.4,4.07Z" fill="#773adc"/>
      <path d="M7.893,4.07a.751.751,0,1,1-.752-.75h0A.75.75,0,0,1,7.893,4.07ZM7.142,6.655a.751.751,0,1,0,.751.751h0a.75.75,0,0,0-.75-.75Z" fill="#fff"/>
      <path d="M14.908,11.73h-.932V9.492h.932ZM4.017,11.689H3.085V9.451h.932ZM14.908,8.373h-.932V6.136h.932ZM4.017,8.332H3.085V6.1h.932ZM14.908,5.017h-.932V2.78h.932ZM4.017,4.976H3.085V2.738h.932Zm10.891-3h-.932V1.091a.134.134,0,0,0-.134-.119h-.6V.039h.6a1.066,1.066,0,0,1,1.064,1.012v.924ZM4.017,1.931H3.085v-.88A1.068,1.068,0,0,1,4.151.039H4.8V.972H4.152a.136.136,0,0,0-.135.12ZM12.035.972H9.622V.039h2.413Zm-3.619,0H6V.039H8.416Zm6.493,14.022h-.932V12.756h.932ZM4.018,14.952H3.087V12.715h.931Zm10.9,1.76v.023a1.065,1.065,0,0,1-1.064,1.012h-.6v-.932h.6a.135.135,0,0,0,.134-.12v-.884h.932ZM4.024,16.7a.135.135,0,0,0,.135.12H4.8v.932H4.158a1.067,1.067,0,0,1-1.065-1.011v-.88h.932Zm8.018,1.052H9.629v-.932h2.413Zm-3.619,0H6.01v-.932H8.423Z" fill="url(#bedd7003-574c-4a40-92b0-409f2a062f7c)"/>
    </g>
  </g>
</svg>
