<svg xmlns="http://www.w3.org/2000/svg" width="18" height="18" viewBox="0 0 18 18">
  <defs>
    <linearGradient id="ffac867e-97a4-457f-b882-3519e6d65b46" x1="9" y1="16.126" x2="9" y2="5.49" gradientUnits="userSpaceOnUse">
      <stop offset="0" stop-color="#0078d4"/>
      <stop offset="0.776" stop-color="#5ea0ef"/>
    </linearGradient>
  </defs>
  <g id="ec79a931-1419-4499-b629-d201e607434f">
    <g>
      <path d="M0,5.49H18a0,0,0,0,1,0,0V15.525a.6.6,0,0,1-.6.6H.6a.6.6,0,0,1-.6-.6V5.49A0,0,0,0,1,0,5.49Z" fill="url(#ffac867e-97a4-457f-b882-3519e6d65b46)"/>
      <path d="M.6,1.654H17.4a.6.6,0,0,1,.6.6V5.49a0,0,0,0,1,0,0H0a0,0,0,0,1,0,0V2.255A.6.6,0,0,1,.6,1.654Z" fill="#005ba1"/>
      <path d="M16.344,10.479V9.642L16.226,9.6,15.331,9.3,15.1,8.731l.455-.969-.588-.588-.117.059-.837.426-.573-.235-.367-1.013h-.838l-.044.117-.293.9-.573.235L10.366,7.2l-.588.587.059.118.426.837-.235.573L9,9.686v.837l.118.044.895.294.235.573-.455.969.588.588.117-.059.837-.426.573.235.367,1.014h.838l.044-.118.293-.9.573-.235.97.455.587-.587-.059-.118-.425-.837.235-.573Zm-3.672,1.215a1.612,1.612,0,1,1,1.612-1.611A1.61,1.61,0,0,1,12.672,11.694Zm-4.607.728v-.573l-.08-.03-.613-.2-.161-.392.312-.663-.4-.4-.081.04-.572.291-.392-.161-.251-.693H5.252l-.03.08-.2.613-.392.161-.653-.311-.4.4.04.081.292.573-.161.391-.7.251v.573l.08.03.613.2.161.392-.312.663.4.4.081-.04.572-.292.392.161.251.693h.573l.03-.08.2-.613.392-.161.663.312.4-.4-.041-.08-.291-.573.161-.392Zm-2.512.831a1.1,1.1,0,1,1,1.1-1.1A1.1,1.1,0,0,1,5.553,13.253Z" fill="#c3f1ff"/>
    </g>
  </g>
  <metadata>
   <rdf:RDF xmlns:rdf="http://www.w3.org/1999/02/22-rdf-syntax-ns#">
      <rdf:li>public:true</rdf:li>
      <rdf:li>sdk:false</rdf:li>
      <rdf:li>category:Other</rdf:li>
   </rdf:RDF>
</metadata>
</svg>
