<svg xmlns="http://www.w3.org/2000/svg" width="16" height="16" viewBox="0 0 16 16">
  <path d="M5.2,7.1c0-.3-.1-.6-.1-.8A2.21,2.21,0,0,1,5,5.5,7.664,7.664,0,0,1,5.2,4a3.8,3.8,0,0,1,.6-1.3,4.4,4.4,0,0,1,.8-1.1L7.7.7,9,.2,10.5,0,12,.2a3.8,3.8,0,0,1,1.3.6l1.1.8.9,1.1A6.872,6.872,0,0,1,15.8,4,7.664,7.664,0,0,1,16,5.5,7.664,7.664,0,0,1,15.8,7a6.872,6.872,0,0,1-.5,1.3l-.9,1.1-1.1.9-1.3.5-1.5.2-1.3-.2L8,10.4V12H6v2H4v2H0V12.3ZM1,15H3V13H5V11H7V9h.7A3.29,3.29,0,0,0,9,9.7a4,4,0,0,0,1.5.3,3.909,3.909,0,0,0,1.8-.4,4.213,4.213,0,0,0,1.4-.9,4.213,4.213,0,0,0,.9-1.4A3.909,3.909,0,0,0,15,5.5a3.293,3.293,0,0,0-.4-1.7,3.792,3.792,0,0,0-.9-1.5,4.213,4.213,0,0,0-1.4-.9A3.909,3.909,0,0,0,10.5,1a3.293,3.293,0,0,0-1.7.4,3.792,3.792,0,0,0-1.5.9,4.213,4.213,0,0,0-.9,1.4A3.909,3.909,0,0,0,6,5.5a2.793,2.793,0,0,0,.1.9l.3.9L1,12.7ZM12.4,3.1l.3.2c.1.1.2.2.2.3A.6.6,0,0,1,13,4a.6.6,0,0,1-.1.4l-.2.3-.3.2h-.8l-.3-.2-.2-.3A.6.6,0,0,1,11,4a.6.6,0,0,1,.1-.4c0-.1.1-.2.2-.3l.3-.2Z"/>
</svg>
