<svg xmlns="http://www.w3.org/2000/svg" width="18" height="18" viewBox="0 0 18 18">
  <g id="f4d22d63-308f-465c-ad6f-15d361b7a843">
    <g>
      <path d="M17.085,9.674a3.523,3.523,0,0,1-1.011,2.476v4.094a.506.506,0,0,1-.809.4l-1.415-1.061a.5.5,0,0,0-.606,0L11.83,16.648a.506.506,0,0,1-.809-.4V12.15a3.537,3.537,0,1,1,6.064-2.476Zm-3.537,3.538a3.514,3.514,0,0,1-1.516-.341V14.98l1.256-.753a.505.505,0,0,1,.52,0l1.256.753V12.871A3.51,3.51,0,0,1,13.548,13.212Zm0-1.011a2.527,2.527,0,1,0-2.527-2.527A2.527,2.527,0,0,0,13.548,12.2Z"/>
      <path d="M9.548,6.678,6.538,3.334a.449.449,0,0,0-.67,0L2.858,6.678a.45.45,0,1,0,.669.6L5.753,4.808v6.185a.45.45,0,1,0,.9,0V4.808L8.879,7.281a.445.445,0,0,0,.311.148.451.451,0,0,0,.358-.751Z"/>
      <path d="M3.441,2.261H14.559a1.516,1.516,0,0,1,1.516,1.516V5.256a.5.5,0,0,0,.5.5h0a.5.5,0,0,0,.505-.5V3.777A2.526,2.526,0,0,0,14.559,1.25H3.441A2.526,2.526,0,0,0,.915,3.777v7.074a2.526,2.526,0,0,0,2.526,2.527H8.7a.5.5,0,0,0,.505-.505h0a.506.506,0,0,0-.505-.506H3.441a1.516,1.516,0,0,1-1.516-1.516V3.777A1.516,1.516,0,0,1,3.441,2.261Z"/>
    </g>
  </g>
</svg>
