<svg xmlns="http://www.w3.org/2000/svg" width="18" height="18" viewBox="0 0 18 18">
  <defs>
    <linearGradient id="b9741aa8-2059-4d50-94b9-66d6684cbaf3" x1="9" y1="1.958" x2="9" y2="16.48" gradientUnits="userSpaceOnUse">
      <stop offset="0.164" stop-color="#ef7100"/>
      <stop offset="0.999" stop-color="#d15900"/>
    </linearGradient>
  </defs>
  <g id="f6efd85b-5e99-4641-b010-15182ba125e4" >
    <g>
      <rect y="2.7" width="18" height="12.6" rx="0.601" fill="url(#b9741aa8-2059-4d50-94b9-66d6684cbaf3)"/>
      <g>
        <g>
          <rect x="0.95" y="11.319" width="4.905" height="2.73" rx="0.283" fill="#ffb34d"/>
          <g>
            <rect x="0.95" y="7.652" width="2.967" height="2.73" rx="0.283" fill="#f78d1e"/>
            <rect x="4.664" y="7.652" width="4.905" height="2.73" rx="0.283" fill="#ffb34d"/>
          </g>
          <g>
            <rect x="8.459" y="3.983" width="4.905" height="2.73" rx="0.283" fill="#f78d1e"/>
            <rect x="0.95" y="3.983" width="6.762" height="2.73" rx="0.283" fill="#ffb34d"/>
          </g>
        </g>
        <path d="M9.287,14.033h-2.4A.283.283,0,0,1,6.6,13.75V11.409a.283.283,0,0,1,.283-.283h2.4a.282.282,0,0,1,.282.283V13.75A.283.283,0,0,1,9.287,14.033Zm4.077-.283V7.741a.283.283,0,0,0-.283-.283h-2.4a.283.283,0,0,0-.283.283V13.75a.283.283,0,0,0,.283.283h2.4A.283.283,0,0,0,13.364,13.75Zm3.795,0V4.25a.283.283,0,0,0-.283-.283h-2.4a.283.283,0,0,0-.283.283v9.5a.283.283,0,0,0,.283.283h2.4A.283.283,0,0,0,17.159,13.75Z" fill="#fff"/>
      </g>
    </g>
  </g>
</svg>
