<svg id="uuid-44d9a749-10a6-4f8f-ba93-ac1143df2c6d" xmlns="http://www.w3.org/2000/svg" width="18" height="18" viewBox="0 0 18 18">
  <defs>
    <linearGradient id="uuid-77a5df20-2a72-43bb-9f49-ef5601842125" x1="7.76" y1="13.704" x2="16.76" y2="13.704" gradientUnits="userSpaceOnUse">
      <stop offset=".496" stop-color="#5e9624"/>
      <stop offset=".999" stop-color="#365615"/>
    </linearGradient>
    <linearGradient id="uuid-fb24fa47-8545-43ce-84f5-7aa78a4b8898" x1="13.5" y1="18" x2="13.5" y2="9.5" gradientUnits="userSpaceOnUse">
      <stop offset=".001" stop-color="#76bc2d"/>
      <stop offset="1" stop-color="#86d633"/>
    </linearGradient>
  </defs>
  <g>
    <path d="m10.054,10.584V.419C10.054.188,9.866,0,9.635,0H.419C.187,0,0,.188,0,.419v11.744C0,12.394.187,12.582.419,12.582h8.583c.125-.692.493-1.397,1.053-1.998Z" fill="#005ba1"/>
    <path d="m8.954,13.093c0-.849.404-1.767,1.109-2.518.428-.456.942-.822,1.509-1.08l.002-7.718c0-.231-.187-.419-.419-.419H1.939c-.231,0-.419.188-.419.419v11.744c0,.231.187.419.419.419h7.124c-.071-.275-.109-.559-.109-.846Z" fill="#0078d4"/>
    <path d="m9.193,15.195c.016-.031.033-.062.05-.093.034-.065.068-.13.105-.195l-.254-.852c-.092-.31-.139-.634-.139-.962,0-.849.404-1.767,1.109-2.518.754-.805,1.778-1.328,2.882-1.475.056-.007.11-.013.166-.02V3.147c0-.231-.187-.419-.419-.419H3.475c-.231,0-.419.188-.419.419v11.744c0,.231.187.419.419.419h5.663c.019-.038.035-.076.055-.114Z" fill="#5ea0ef"/>
    <path d="m11.47,5.861h-4.339c-.052,0-.095-.042-.095-.094,0-.002,0-.003,0-.005v-.328c-.003-.052.038-.097.09-.099.002,0,.003,0,.005,0h4.339c.055,0,.1.044.1.099v.325c.001.055-.043.101-.098.102,0,0-.001,0-.002,0Z" fill="#fff"/>
    <path d="m6.365,6.177v-1.158c-.001-.11-.091-.199-.201-.198,0,0-.002,0-.003,0h-1.155c-.11,0-.199.089-.199.199v1.153c0,.11.089.199.199.199h1.155c.11,0,.2-.088.2-.199,0,0,0,0,0,0l.004.003Z" fill="#fff"/>
    <path d="m11.574,8.382v-.327c0-.055-.045-.1-.1-.1h-4.343c-.053.003-.095.047-.095.1v.324c0,.053.041.098.095.1h4.339c.055,0,.1-.045.1-.1l.004.003Z" fill="#fff"/>
    <path d="m6.365,8.798v-1.158c0-.11-.089-.199-.199-.199,0,0,0,0,0,0h-1.159c-.11,0-.199.089-.199.199v1.151c0,.11.09.199.199.199h1.155c.11,0,.2-.089.2-.199l.004.007Z" fill="#fff"/>
    <path d="m6.365,11.417v-1.158c0-.11-.089-.199-.199-.199,0,0,0,0,0,0h-1.159c-.11,0-.199.089-.199.199v1.151c0,.11.09.199.199.199h1.155c.11,0,.2-.089.2-.199l.004.007Z" fill="#fff"/>
    <path d="m10.062,10.575s.001-.001.002-.002h-2.933c-.053.003-.095.047-.095.1v.324c0,.053.041.098.095.1h2.509c.126-.181.266-.356.423-.523Z" fill="#fff"/>
  </g>
  <g>
    <path d="m9.001,17.349c.048-.789.405-1.752,1.008-2.659.195-.332.437-.668.724-.996.871-.992,2.13-1.863,3.676-2.25.219-.055.352-.277.297-.496-.055-.219-.277-.352-.496-.297-1.725.431-3.124,1.4-4.092,2.504-.219.249-.418.508-.594.771-.073-.246-.121-.525-.121-.833,0-.75.382-1.565.987-2.21.617-.658,1.51-1.19,2.612-1.336,2.29-.303,3.711-.05,4.549.186.231.065.403.258.44.495.037.237-.067.474-.267.606-.047.031-.122.106-.213.278-.09.17-.174.393-.261.675-.072.232-.14.484-.214.757l-.047.173c-.091.335-.192.695-.312,1.052-.239.705-.576,1.457-1.142,2.035-.588.599-1.386.973-2.452.973-1.087,0-1.846-.44-2.331-.947-.33.605-.502,1.175-.528,1.595-.021.338-.311.595-.649.575-.338-.021-.595-.311-.575-.65Z" fill="url(#uuid-77a5df20-2a72-43bb-9f49-ef5601842125)"/>
    <path d="m9.001,17.349c.048-.789.405-1.752,1.008-2.659.195-.332.437-.668.724-.996.871-.992,2.13-1.863,3.676-2.25,1.573-.37,3.126-1.293,2.01-1.945.568.071.935.18,1.132.233.233.064.403.258.44.495.037.237-.067.474-.267.606-.047.031-.122.106-.213.278-.09.17-.174.393-.261.675-.072.232-.14.484-.214.757l-.047.173c-.091.335-.192.695-.312,1.052-.239.705-.576,1.457-1.142,2.035-.588.599-1.386.973-2.452.973-1.087,0-1.846-.44-2.331-.947-.33.605-.502,1.175-.528,1.595-.021.338-.311.595-.649.575-.338-.021-.595-.311-.575-.65Z" fill="url(#uuid-fb24fa47-8545-43ce-84f5-7aa78a4b8898)"/>
  </g>
</svg>