<svg xmlns="http://www.w3.org/2000/svg" viewBox="0 0 18 18">
  <defs>
    <linearGradient id="ae32a615-0a67-44f4-9393-9451a6118c1d" x1="6.45" y1="2.99" x2="7.749" y2="17.843" gradientUnits="userSpaceOnUse">
      <stop offset="0.5" stop-color="#b796f9" />
      <stop offset="0.9" stop-color="#a67af4" />
    </linearGradient>
    <linearGradient id="b2de2cfa-bdf3-479d-8a42-8f84220d20a0" x1="-20.727" y1="19.926" x2="-20.446" y2="23.144" gradientTransform="translate(27.6 -12.196)" gradientUnits="userSpaceOnUse">
      <stop offset="0" stop-color="#a67af4" />
      <stop offset="0.241" stop-color="#9065db" />
      <stop offset="0.748" stop-color="#653eab" />
      <stop offset="1" stop-color="#552f99" />
    </linearGradient>
    <linearGradient id="edc0c24b-b6af-48b4-8ad5-5aeed199491a" x1="-20.605" y1="17.425" x2="-20.358" y2="20.25" gradientTransform="translate(27.6 -12.196)" gradientUnits="userSpaceOnUse">
      <stop offset="0" stop-color="#a67af4" />
      <stop offset="0.241" stop-color="#9065db" />
      <stop offset="0.748" stop-color="#653eab" />
      <stop offset="1" stop-color="#552f99" />
    </linearGradient>
  </defs>
  <g id="b3bd1921-43f8-4eb4-9ec0-2fe7d732c770">
    <g>
      <rect x="3.817" y="2.542" width="14.167" height="10.082" rx="0.488" transform="translate(18.484 -3.317) rotate(90)" fill="#59285f" />
      <rect x="1.917" y="3.967" width="14.167" height="10.082" rx="0.488" transform="translate(18.008 0.008) rotate(90)" fill="#a33a85" />
      <g>
        <rect x="2.058" y="3.333" width="10.082" height="14.167" rx="0.488" fill="url(#ae32a615-0a67-44f4-9393-9451a6118c1d)" />
        <rect x="4.201" y="13.946" width="5.797" height="1.033" rx="0.255" transform="translate(14.199 28.925) rotate(180)" fill="#773adc" />
        <rect x="4.201" y="11.942" width="5.797" height="1.033" rx="0.255" transform="translate(14.199 24.918) rotate(180)" fill="#773adc" />
        <path d="M9.179,10.769a.434.434,0,0,0,.45-.431.235.235,0,0,0,0-.053A2.564,2.564,0,0,0,7.111,7.722c-1.534,0-2.374.976-2.54,2.552a.454.454,0,0,0,.405.5h4.2Z" fill="url(#b2de2cfa-bdf3-479d-8a42-8f84220d20a0)" />
        <path d="M7.13,8.059a1.41,1.41,0,0,1-.756-.227L7.13,9.817l.756-1.97A1.439,1.439,0,0,1,7.13,8.059Z" fill="#f2f2f2" />
        <circle cx="7.119" cy="6.641" r="1.418" fill="url(#edc0c24b-b6af-48b4-8ad5-5aeed199491a)" />
      </g>
    </g>
  </g>
  <metadata>
    <rdf:RDF xmlns:rdf="http://www.w3.org/1999/02/22-rdf-syntax-ns#">
      <rdf:li>public:true</rdf:li>
      <rdf:li>sdk:false</rdf:li>
      <rdf:li>category: Preview</rdf:li>
    </rdf:RDF>
  </metadata>
</svg>