<svg xmlns="http://www.w3.org/2000/svg" viewBox="0 0 18 18">
  <defs>
    <linearGradient id="a83b68bc-42db-4aa9-9cbf-0e02a6afbf79" x1="-657.51" y1="14.925" x2="-657.51" y2="0.631" gradientTransform="matrix(-1, 0, 0, 1, -646.075, 0)" gradientUnits="userSpaceOnUse">
      <stop offset="0" stop-color="#0078d4" />
      <stop offset="1" stop-color="#83b9f9" />
    </linearGradient>
  </defs>
  <polygon points="4.878 4.57 11.44 0.783 18 4.57 18 12.147 11.439 15.934 4.869 12.147 4.869 4.596 4.878 4.57" fill="url(#a83b68bc-42db-4aa9-9cbf-0e02a6afbf79)" />
  <polygon points="4.878 4.566 11.395 8.235 11.396 15.81 4.841 12.031 4.869 4.592 4.878 4.566" fill="#0078d4" />
  <polygon points="0.005 10.638 3.804 8.445 7.602 10.638 7.602 15.024 3.804 17.217 0 15.024 0 10.653 0.005 10.638" fill="#9cebff" />
  <polygon points="0.01 10.645 3.8 12.825 3.8 17.21 0.005 15.022 0.005 10.66 0.01 10.645" fill="#32bedd" />
  <polygon points="7.602 10.638 3.799 12.825 3.798 17.21 7.602 15.024 7.602 10.661 7.602 10.638" fill="#50e6ff" />
  <path d="M7.219,5.857l6.334-3.851L15.54,3.151,9.2,7v2.12a.091.091,0,0,1-.161.058l-.84-1a.091.091,0,0,0-.089-.03l-.782.17a.091.091,0,0,1-.11-.089Z" fill="#fff" opacity="0.5" />
</svg>