<svg id="uuid-eccc4a4a-c247-4f64-804e-960c1742f2a9" xmlns="http://www.w3.org/2000/svg" width="18" height="18" viewBox="0 0 18 18">
  <g id="uuid-a28f0269-c187-46a3-a1af-ed6e028960e7" >
    <path d="m2.959,0C2.001,0,1.224.777,1.224,1.735v11.28c0,.958.777,1.735,1.735,1.735h3.621c-.1-.427-.151-.863-.15-1.302h-3.471c-.24,0-.434-.194-.434-.434V1.735c0-.24.194-.434.434-.434h4.772v2.819c0,.839.68,1.519,1.519,1.519h2.819v2.169c.438,0,.875.05,1.302.15v-2.955c0-.46-.182-.902-.508-1.228l-3.27-3.27C9.269.182,8.827,0,8.367,0H2.959Zm6.074,4.121V1.789l2.545,2.545h-2.328c-.118,0-.215-.095-.218-.213Zm-5.206-.867c0-.359.291-.651.65-.651h1.303c.359.015.638.319.623.678-.014.338-.285.609-.623.623h-1.303c-.359,0-.65-.291-.65-.65Zm.65,1.952c-.359.015-.638.319-.623.678.014.338.285.609.623.623h1.303c.359-.015.638-.319.623-.678-.014-.338-.285-.609-.623-.623h-1.303Zm0,2.603c-.359.015-.638.319-.623.678.014.338.285.609.623.623h1.303c.359-.015.638-.319.623-.678-.014-.338-.285-.609-.623-.623h-1.303Z" fill="#212121"/>
  </g>
  <g>
    <path d="m13.801,10.172c.45.234.84.551,1.159.943.098.121.242.184.387.184.111,0,.222-.037.314-.112.213-.173.246-.487.072-.701-.405-.499-.901-.902-1.472-1.199-.244-.127-.545-.032-.672.212-.127.244-.032.545.212.672Z" fill="#212121"/>
    <path d="m8.514,14.124c-.045-.232-.068-.469-.068-.717,0-.275-.223-.491-.498-.491s-.498.23-.498.505c0,.298.029.598.086.892.064.328.162.648.292.952.081.189.265.302.458.302.065,0,.132-.013.196-.04.253-.108.37-.401.262-.654-.102-.239-.18-.491-.23-.75Z" fill="#212121"/>
    <path d="m14.609,16.112c-.37.345-.8.605-1.277.772-.26.091-.396.375-.305.635.072.205.264.333.47.333.055,0,.11-.009.165-.028.607-.213,1.154-.544,1.626-.983.201-.188.213-.503.025-.704-.188-.201-.503-.213-.704-.025Z" fill="#212121"/>
    <path d="m11.356,17.014c-.494-.105-.954-.307-1.367-.601-.224-.159-.535-.107-.695.117s-.107.535.117.695c.525.374,1.11.63,1.739.763.035.007.069.011.104.011.23,0,.437-.161.487-.395.057-.269-.115-.534-.384-.591Z" fill="#212121"/>
    <path d="m16.733,12.798c-.037-.273-.288-.462-.561-.426-.273.037-.463.289-.426.561.023.165.034.333.034.498,0,.335-.046.668-.138.991-.075.265.079.54.344.615.045.013.091.019.136.019.217,0,.417-.143.479-.363.116-.411.175-.836.175-1.262,0-.21-.014-.424-.043-.633Z" fill="#212121"/>
    <path d="m9.652,10.615l.04.731c.015.266.234.471.497.471.009,0,.018,0,.028,0,.275-.015.485-.25.47-.525l-.107-1.957c-.008-.138-.072-.266-.177-.355-.106-.089-.243-.13-.38-.113l-2.12.255c-.273.033-.468.281-.435.554.033.273.281.469.554.435l.826-.099c-.646.667-.929,1.363-.945,1.404-.101.255.024.543.279.645.06.024.123.036.184.036.198,0,.385-.118.463-.313.003-.008.257-.623.824-1.168Z" fill="#212121"/>
  </g>
</svg>