<svg xmlns="http://www.w3.org/2000/svg" width="18" height="18" viewBox="0 0 18 18">
  <defs>
    <linearGradient id="a7ef84d4-6058-4297-9cd4-0e19ad7c6ea1" x1="9.001" y1="2.082" x2="9.001" y2="15.87" gradientUnits="userSpaceOnUse">
      <stop offset="0.135" stop-color="#2398f2"/>
      <stop offset="1" stop-color="#2064ae"/>
    </linearGradient>
    <linearGradient id="b73f0937-94f9-4fcf-8e87-9f543dfb6e7a" x1="9" y1="3.754" x2="9" y2="11.607" gradientUnits="userSpaceOnUse">
      <stop offset="0.118" stop-color="#b4ec36"/>
      <stop offset="1" stop-color="#86d633"/>
    </linearGradient>
    <linearGradient id="a7046525-4344-4830-8b48-3eccb5212220" x1="9" y1="9.312" x2="9" y2="11.225" gradientUnits="userSpaceOnUse">
      <stop offset="0.001" stop-color="#b4ec36"/>
      <stop offset="1" stop-color="#86d633"/>
    </linearGradient>
  </defs>
  <g id="b353065a-4503-4ad6-a096-4b6b5f7df089">
    <circle cx="9.001" cy="9" r="6.918" fill="url(#a7ef84d4-6058-4297-9cd4-0e19ad7c6ea1)"/>
    <path d="M15.914,8.748a3.44,3.44,0,0,0-.03-.46,6.831,6.831,0,0,0-2.85-4.9,6.864,6.864,0,0,0-8.24.13c-.01,0-.02.01-.03.02a6.888,6.888,0,0,0-2.67,5.05c-.01.13-.01.27-.01.41s0,.29.01.44a6.909,6.909,0,0,0,11.13,5.03,2.028,2.028,0,0,0,.18-.13,6.92,6.92,0,0,0,2.51-4.89c0-.13.01-.27.01-.4C15.924,8.948,15.924,8.848,15.914,8.748Zm-1.68-2.9h-1.49a7.961,7.961,0,0,0-1.13-2.37,6.3,6.3,0,0,1,.72.4A6.162,6.162,0,0,1,14.234,5.848Zm-2.34,0H9.434V2.908C11.074,3.308,11.474,4.718,11.894,5.848ZM8.6,2.9v2.95H6C6.314,4.788,7.074,3.128,8.6,2.9Zm-2.94.98a5.3,5.3,0,0,1,.57-.33,7.924,7.924,0,0,0-1.08,2.32h-1.4A6.156,6.156,0,0,1,5.664,3.878Zm-2.32,2.8h1.6a9.139,9.139,0,0,0,.05,4.44H3.264A6.128,6.128,0,0,1,3.344,6.678Zm2.14,7.31a5.946,5.946,0,0,1-1.83-2.03h1.58a9.432,9.432,0,0,0,1.44,2.69A5.547,5.547,0,0,1,5.484,13.988Zm3.14,1.11a4.672,4.672,0,0,1-2.49-3.14h2.49Zm0-3.95H5.864c-.04-.12-.07-.24-.1-.36a8.573,8.573,0,0,1,.02-4.09h2.84Zm.81-4.47h2.68a9.926,9.926,0,0,1,.27,2.31,7.78,7.78,0,0,1-.35,2.13h-2.6Zm.02,8.42v-3.14h2.33A6.948,6.948,0,0,1,9.454,15.1Zm3.07-1.11a5.843,5.843,0,0,1-1.35.72,9.29,9.29,0,0,0,1.49-2.75h1.68A6.01,6.01,0,0,1,12.524,13.988Zm2.21-2.86h-1.82a9.059,9.059,0,0,0,.05-4.45h1.69a6.079,6.079,0,0,1,.45,2.6A5.855,5.855,0,0,1,14.734,11.128Z" fill="#83b9f9" opacity="0.3"/>
    <path d="M18,5.06c0,.724-.738,1.576-2.2,2.533l-.018.013a28.1,28.1,0,0,1-5.9,2.747,28.9,28.9,0,0,1-6,1.446c-.122.014-.24.025-.357.035-.288.024-.558.041-.81.045-1.525.032-2.416-.3-2.653-.98-.272-.786.431-1.739,2.089-2.833q-.039.271-.054.547c0,.127-.01.257-.01.386,0,.047,0,.095,0,.141C1,9.944.8,10.451.856,10.623s.453.4,1.531.412c.3,0,.65-.009,1.06-.044A26.977,26.977,0,0,0,9.6,9.553a27.022,27.022,0,0,0,5.731-2.669l.209-.138c1.405-.957,1.667-1.559,1.6-1.749s-.7-.533-2.589-.37l-.179.017a7.061,7.061,0,0,0-.723-.764c.286-.039.562-.072.828-.094,2.022-.176,3.187.138,3.462.934A1.032,1.032,0,0,1,18,5.06Z" fill="url(#b73f0937-94f9-4fcf-8e87-9f543dfb6e7a)"/>
    <path d="M17.943,10.9c-.235.684-1.128,1.012-2.651.98-.253,0-.523-.021-.811-.045-.117-.01-.235-.021-.356-.035a28.86,28.86,0,0,1-6-1.446A27.945,27.945,0,0,1,2.223,7.6l-.018-.011C.505,6.482-.218,5.515.057,4.72c.227-.652,1.05-.982,2.455-.982.307,0,.644.017,1.008.048.266.022.543.055.827.094a7.061,7.061,0,0,0-.723.764l-.177-.017C1.555,4.464.925,4.8.856,5s.2.792,1.6,1.749q.1.067.207.138A26.975,26.975,0,0,0,8.4,9.553a26.948,26.948,0,0,0,6.157,1.438c.41.035.762.048,1.06.044,1.076-.017,1.474-.255,1.529-.412S17,9.944,15.918,9.14c0-.046,0-.093,0-.139,0-.131,0-.261-.01-.391-.011-.184-.029-.366-.053-.545C17.513,9.16,18.215,10.113,17.943,10.9Z" fill="url(#a7046525-4344-4830-8b48-3eccb5212220)"/>
  </g>
</svg>
