<svg id="uuid-a796fae2-457c-4abd-85cd-b66243fc0d5a" xmlns="http://www.w3.org/2000/svg" width="16" height="14.098" viewBox="0 0 16 14.098">
  <g id="uuid-a40c4461-4709-4f99-bf14-061e026d90ce">
    <g>
      <path d="M15.467,0H.533C.239,.001,0,.326,0,.728V13.497c0,.332,.239,.601,.533,.601H15.467c.295,0,.533-.269,.533-.601V.727c0-.401-.239-.727-.533-.727Zm-.482,13.083H1.015V4.645H14.985V13.083ZM1.167,3.448V1.167H14.833V3.448H1.167Z"/>
      <circle cx="3.81" cy="8.594" r=".764"/>
      <circle cx="8" cy="8.594" r=".764"/>
      <path d="M12.19,7.83c-.422,0-.764,.342-.764,.764s.342,.764,.764,.764,.764-.342,.764-.764-.342-.764-.764-.764Z"/>
      <circle cx="3.81" cy="11.006" r=".764"/>
      <circle cx="8" cy="11.006" r=".764"/>
      <rect x="1.931" y="5.776" width="12.138" height=".885" rx=".23" ry=".23"/>
    </g>
  </g>
</svg>