<svg id="uuid-043ad576-deae-4c6d-b73d-4c4c28166cd5" xmlns="http://www.w3.org/2000/svg" width="18" height="18" viewBox="0 0 18 18">
  <defs>
    <linearGradient id="uuid-7508e84d-0479-4330-ae57-74d845ad1be5" x1="-1824.064" y1="774.063" x2="-1813.351" y2="780.438" gradientTransform="translate(-1813.698 785.516) rotate(-180)" gradientUnits="userSpaceOnUse">
      <stop offset=".392" stop-color="#0078d4"/>
      <stop offset=".961" stop-color="#5ea0ef"/>
    </linearGradient>
    <linearGradient id="uuid-07c4c3ff-d7f8-4164-9808-de1711c1c456" x1="-1822.283" y1="-180.781" x2="-1822.283" y2="-170.326" gradientTransform="translate(-1813.698 185.516) rotate(-180) scale(1 -1)" gradientUnits="userSpaceOnUse">
      <stop offset="0" stop-color="#83b9f9"/>
      <stop offset="1" stop-color="#5ea0ef"/>
    </linearGradient>
    <linearGradient id="uuid-92ebbb0e-3323-4cdf-8cff-7eee64818587" x1="-1822.509" y1="-185.446" x2="-1821.836" y2="-177.072" gradientTransform="translate(-1813.698 185.516) rotate(-180) scale(1 -1)" gradientUnits="userSpaceOnUse">
      <stop offset="0" stop-color="#83b9f9"/>
      <stop offset=".9" stop-color="#5ea0ef"/>
    </linearGradient>
    <linearGradient id="uuid-13bf95fe-88fa-4ab0-ac0c-75f5a460d49e" x1="165.412" y1="70.959" x2="165.412" y2="78.484" gradientTransform="translate(-152 -60.484)" gradientUnits="userSpaceOnUse">
      <stop offset="0" stop-color="#a67af4"/>
      <stop offset="1" stop-color="#773adc"/>
    </linearGradient>
  </defs>
  <g>
    <path d="M0,11.965v.014c.007,.498,.417,.896,.915,.889l8.497-.045c.504-.053,.872-.502,.824-1.007-.26-2.575-1.415-4.385-3.495-4.979,.3-.206,.557-.468,.759-.771,.88-1.319,.524-3.101-.795-3.981-1.319-.88-3.101-.524-3.981,.795-.88,1.319-.524,3.101,.795,3.981C1.44,7.524,.314,9.496,.026,11.816c-.02,.047-.029,.098-.025,.149Z" fill="url(#uuid-7508e84d-0479-4330-ae57-74d845ad1be5)"/>
    <path d="M13.879,13.814c.618-.064,1.069-.615,1.007-1.234-.414-3.928-2.506-6.354-6.33-6.354s-5.831,2.863-6.273,6.386c-.005,.044-.005,.088,0,.132h0c0,.619,.502,1.121,1.121,1.121l10.475-.051Z" fill="url(#uuid-07c4c3ff-d7f8-4164-9808-de1711c1c456)"/>
    <path d="M6.621,6.538l1.883,4.907,1.884-4.946c-.561,.364-1.215,.56-1.884,.565-.664,.002-1.316-.18-1.883-.527Z" fill="#fff" isolation="isolate" opacity=".8"/>
    <circle cx="8.533" cy="3.533" r="3.533" fill="url(#uuid-92ebbb0e-3323-4cdf-8cff-7eee64818587)"/>
  </g>
  <g>
    <path d="M9.418,10.477h7.988c.268-.019,.502,.182,.523,.45v5.465c-.022,.268-.255,.468-.523,.451h-3.265c-.019,0-.037,.005-.053,.015l-1.681,1.106c-.077,.058-.186,.044-.245-.033-.019-.025-.032-.056-.035-.087v-.929c-.002-.045-.041-.08-.086-.077h-2.623c-.268,.018-.502-.182-.524-.451v-5.459c.021-.269,.255-.47,.524-.451Z" fill="url(#uuid-13bf95fe-88fa-4ab0-ac0c-75f5a460d49e)"/>
    <path d="M10.923,12.555h4.98c.192,0,.348,.156,.348,.348h0c0,.192-.156,.348-.348,.348h-4.98c-.192,0-.348-.156-.348-.348h0c0-.192,.156-.348,.348-.348Z" fill="#fff" isolation="isolate" opacity=".7"/>
    <rect x="10.574" y="14.026" width="4.187" height=".697" rx=".348" ry=".348" fill="#fff" isolation="isolate" opacity=".7"/>
  </g>
</svg>