<svg xmlns="http://www.w3.org/2000/svg" width="18" height="18" viewBox="0 0 18 18">
  <path d="M18,7.368v6.894a.621.621,0,0,1-.661.568H14.284a.1.1,0,0,0-.111.1V16.1a.212.212,0,0,1-.044.11.22.22,0,0,1-.309.04L11.7,14.85a.122.122,0,0,0-.067-.02H7.26a.621.621,0,0,1-.661-.568V7.368A.62.62,0,0,1,7.26,6.8H17.339A.621.621,0,0,1,18,7.368Z" fill="#5a468a"/>
  <path d="M.785,1.711H12.759a.737.737,0,0,1,.786.675v8.19a.738.738,0,0,1-.786.675h-4.9a.139.139,0,0,0-.079.024L5.266,12.933a.262.262,0,0,1-.42-.179v-1.39a.124.124,0,0,0-.131-.113H.785A.737.737,0,0,1,0,10.576V2.386A.737.737,0,0,1,.785,1.711Z" fill="#8065be"/>
  <path d="M3.025,6.269a.895.895,0,1,0,.894-.9.9.9,0,0,0-.894.9Z" fill="#fff" opacity="0.8"/>
  <path d="M9.625,5.362a.895.895,0,1,1-.894.895h0A.9.9,0,0,1,9.625,5.362Z" fill="#fff" opacity="0.6"/>
  <path d="M5.878,6.269a.895.895,0,1,0,.895-.9.9.9,0,0,0-.895.9Z" fill="#fff" opacity="0.7"/>
</svg>
