<svg xmlns="http://www.w3.org/2000/svg" width="18" height="18" viewBox="0 0 18 18">
  <defs>
    <linearGradient id="ada72b47-ff59-45f2-b0d2-6455dd7c613f" x1="12.723" y1="17.596" x2="12.723" y2="9.183" gradientUnits="userSpaceOnUse">
      <stop offset="0.001" stop-color="#76bc2d"/>
      <stop offset="1" stop-color="#86d633"/>
    </linearGradient>
    <linearGradient id="bfd00928-a436-499a-a88f-1aca56666d67" x1="8.236" y1="16.432" x2="8.236" y2="0.371" gradientUnits="userSpaceOnUse">
      <stop offset="0" stop-color="#1b93eb"/>
      <stop offset="0.206" stop-color="#2095eb"/>
      <stop offset="0.442" stop-color="#2e9ced"/>
      <stop offset="0.694" stop-color="#45a7ef"/>
      <stop offset="0.954" stop-color="#64b6f1"/>
      <stop offset="1" stop-color="#6bb9f2"/>
    </linearGradient>
  </defs>
  <g id="aee10d15-37ec-418e-8c67-9880fcb0bd34">
    <g>
      <g>
        <path d="M15.192,9.989a4.18,4.18,0,0,0-2.469-.806h0a4.206,4.206,0,0,0-2.7,7.434C11.829,15.257,14.444,12.862,15.192,9.989Z" fill="#1b93eb"/>
        <path d="M8.086,13.39a4.634,4.634,0,0,1,7.207-3.857A6.048,6.048,0,0,0,15.4,8.421V2.755a.45.45,0,0,0-.439-.449C10.534,2.186,11.554.243,8.236.243S5.937,2.186,1.51,2.306a.451.451,0,0,0-.44.449V8.421c0,4.709,5.692,8.5,6.93,9.268a.446.446,0,0,0,.472,0c.248-.154.678-.432,1.2-.813A4.623,4.623,0,0,1,8.086,13.39Z" fill="#1b93eb"/>
      </g>
      <rect x="8.516" y="9.183" width="8.413" height="8.413" rx="4.207" fill="url(#ada72b47-ff59-45f2-b0d2-6455dd7c613f)"/>
      <path d="M15.485,11.609l-.291-.291a.305.305,0,0,0-.218-.09h0a.3.3,0,0,0-.217.09l-3.217,3.216-1.17-1.17a.309.309,0,0,0-.435,0l-.291.291a.308.308,0,0,0,0,.435l1.663,1.663a.307.307,0,0,0,.218.09.32.32,0,0,0,.128-.03.31.31,0,0,0,.135-.074l3.7-3.695A.308.308,0,0,0,15.485,11.609Z" fill="#fff"/>
      <path d="M8.086,13.39a4.627,4.627,0,0,1,6.665-4.164,5.429,5.429,0,0,0,.056-.757v-5.2a.413.413,0,0,0-.4-.412C10.344,2.752,11.279.97,8.236.97S6.128,2.752,2.068,2.861a.413.413,0,0,0-.4.412v5.2c0,4.318,5.219,7.8,6.355,8.5a.41.41,0,0,0,.432,0c.175-.109.456-.291.791-.525A4.612,4.612,0,0,1,8.086,13.39Z" fill="url(#bfd00928-a436-499a-a88f-1aca56666d67)"/>
    </g>
  </g>
</svg>
