<svg xmlns="http://www.w3.org/2000/svg" width="18" height="18" viewBox="0 0 18 18">
  <defs>
    <linearGradient id="b88d110d-96f9-446a-95e2-12c73115d73e" x1="3.307" y1="0.464" x2="3.307" y2="17.519" gradientUnits="userSpaceOnUse">
      <stop offset="0" stop-color="#a67af4"/>
      <stop offset="1" stop-color="#773adc"/>
    </linearGradient>
    <linearGradient id="b3e9f22b-7ba6-4b59-9baa-3d506ae371a9" x1="12.976" y1="0.809" x2="12.976" y2="17.536" gradientUnits="userSpaceOnUse">
      <stop offset="0" stop-color="#5ea0ef"/>
      <stop offset="1" stop-color="#0078d4"/>
    </linearGradient>
  </defs>
  <path d="M4.069,11.006V6.989a3.307,3.307,0,1,0-1.524,0v4.017a3.3,3.3,0,0,0,.761,6.513,3.218,3.218,0,0,0,.338-.018,3.3,3.3,0,0,0,.425-6.5Zm-.762,1.341h0a1.851,1.851,0,0,1,1.849,1.847v0a1.851,1.851,0,1,1-1.851-1.851ZM1.458,3.79h0A1.851,1.851,0,0,1,3.307,1.937h0A1.852,1.852,0,1,1,1.458,3.79Z" fill="url(#b88d110d-96f9-446a-95e2-12c73115d73e)"/>
  <path d="M17.949,13.612a3.36,3.36,0,0,0-2.637-2.695V3.745a.764.764,0,0,0-.763-.762H11.416v-1.7a.47.47,0,0,0-.463-.477.459.459,0,0,0-.34.138L8.1,3.464a.55.55,0,0,0,.009.751l2.5,2.511a.465.465,0,0,0,.331.142.492.492,0,0,0,.334-.134.468.468,0,0,0,.141-.338V4.508H13.8v6.457a3.342,3.342,0,1,0,4.154,2.647Zm-1.407.529a1.85,1.85,0,1,1-1.85-1.849A1.852,1.852,0,0,1,16.542,14.141Z" fill="url(#b3e9f22b-7ba6-4b59-9baa-3d506ae371a9)"/>
</svg>
