<svg xmlns="http://www.w3.org/2000/svg" viewBox="0 0 18 18">
  <defs>
    <linearGradient id="e49b5987-e1be-4bbe-b9ca-2b3ec7463039" x1="9.001" y1="778.213" x2="9.001" y2="787.096" gradientTransform="matrix(1, 0, 0, -1, 0, 791.516)" gradientUnits="userSpaceOnUse">
      <stop offset="0" stop-color="#d2ebff" />
      <stop offset="1" stop-color="#f0fffd" />
    </linearGradient>
    <linearGradient id="e170243f-a530-4f16-af98-b152841ed244" x1="9" y1="12.534" x2="9" y2="14.806" gradientUnits="userSpaceOnUse">
      <stop offset="0" stop-color="#5ea0ef" />
      <stop offset="1" stop-color="#0078d4" />
    </linearGradient>
  </defs>
  <rect x="1.666" y="3.37" width="14.67" height="10.44" rx="0.528" fill="#0078d4" />
  <rect x="2.689" y="4.42" width="12.623" height="8.883" rx="0.264" opacity="0.9" fill="url(#e49b5987-e1be-4bbe-b9ca-2b3ec7463039)" />
  <path d="M.15,12.978h17.7a.15.15,0,0,1,.15.15v.45a1.053,1.053,0,0,1-1.053,1.053H1.053A1.053,1.053,0,0,1,0,13.578v-.45a.15.15,0,0,1,.15-.15Z" fill="url(#e170243f-a530-4f16-af98-b152841ed244)" />
  <path d="M6.719,12.978h4.559a.039.039,0,0,1,.039.039v.116a.271.271,0,0,1-.271.271H6.952a.271.271,0,0,1-.271-.271v-.116a.039.039,0,0,1,.039-.039Z" fill="#003067" opacity="0.9" />
  <rect x="7.679" y="3.763" width="2.2" height="0.298" rx="0.137" fill="#fff" />
  <circle cx="10.581" cy="3.912" r="0.169" fill="#fff" />
</svg>