<svg xmlns="http://www.w3.org/2000/svg" width="18" height="18" viewBox="0 0 18 18">
  <defs>
    <linearGradient id="a0d4e1d5-df31-49b3-a6fc-8c63a5cda151" x1="8.252" y1="777.67" x2="8.252" y2="787.249" gradientTransform="matrix(1, 0, 0, -1, 0, 791.516)" gradientUnits="userSpaceOnUse">
      <stop offset="0" stop-color="#005ba1"/>
      <stop offset="1" stop-color="#0078d4"/>
    </linearGradient>
    <linearGradient id="bb5ebd51-70b2-4f8b-8533-64987b8982f0" x1="12.425" y1="17.187" x2="12.425" y2="7.205" gradientUnits="userSpaceOnUse">
      <stop offset="0.001" stop-color="#76bc2d"/>
      <stop offset="1" stop-color="#86d633"/>
    </linearGradient>
  </defs>
  <g id="aacb6d1b-035f-4eaf-a325-e891b359561d">
    <g>
      <path d="M.148,4.266H16.357V13.3a.541.541,0,0,1-.542.541H.689A.541.541,0,0,1,.148,13.3V4.266Z" fill="url(#a0d4e1d5-df31-49b3-a6fc-8c63a5cda151)"/>
      <path d="M.692.813H15.813a.541.541,0,0,1,.541.541h0V4.266H.148V1.354A.541.541,0,0,1,.689.813Z" fill="#005ba1"/>
      <rect x="2.328" y="1.845" width="11.848" height="1.391" rx="0.271" fill="#f2f2f2"/>
      <rect x="6.997" y="7.205" width="10.855" height="9.982" rx="0.429" fill="url(#bb5ebd51-70b2-4f8b-8533-64987b8982f0)"/>
      <path d="M15.18,14.579V11.273a2.694,2.694,0,0,0-.1-.732,2.735,2.735,0,0,0-.28-.659,2.91,2.91,0,0,0-.43-.559,2.6,2.6,0,0,0-.556-.431,2.865,2.865,0,0,0-.658-.275,2.756,2.756,0,0,0-1.464,0,2.735,2.735,0,0,0-.659.28,2.91,2.91,0,0,0-.559.43,2.618,2.618,0,0,0-.431.555,2.891,2.891,0,0,0-.275.659,2.694,2.694,0,0,0-.1.732v3.306H9.394a.275.275,0,0,0-.275.275h0a.275.275,0,0,0,.275.276h1.929a1.165,1.165,0,0,0,.086.43,1.011,1.011,0,0,0,.237.349,1.172,1.172,0,0,0,.353.237,1.063,1.063,0,0,0,.426.086,1.185,1.185,0,0,0,.43-.086,1.039,1.039,0,0,0,.349-.237,1.19,1.19,0,0,0,.237-.353,1.063,1.063,0,0,0,.086-.426h1.928a.275.275,0,0,0,.276-.276h0a.275.275,0,0,0-.276-.275Z" fill="#fff"/>
      <path d="M9.673,14.586H9.4a.278.278,0,0,0,0,.555h1.94a1.185,1.185,0,0,0,.087.433,1.041,1.041,0,0,0,.238.35,1.168,1.168,0,0,0,.355.239,1.078,1.078,0,0,0,.429.086,1.181,1.181,0,0,0,.433-.086,1.038,1.038,0,0,0,.351-.239,1.171,1.171,0,0,0,.238-.355,1.053,1.053,0,0,0,.087-.428h1.94a.278.278,0,0,0,0-.555H9.673Z" fill="#eaeaea"/>
    </g>
  </g>
</svg>
