<svg xmlns="http://www.w3.org/2000/svg" width="18" height="18" viewBox="0 0 18 18">
  <defs>
    <linearGradient id="a1fa61ae-c40f-4467-9e7c-9185f2940a3e" x1="2.978" y1="15.38" x2="9.607" y2="3.131" gradientUnits="userSpaceOnUse">
      <stop offset="0" stop-color="#a67af4"/>
      <stop offset="0.54" stop-color="#773adc"/>
    </linearGradient>
    <linearGradient id="fdd6abc3-576b-4182-a3f1-63bc83738319" x1="8.097" y1="3.328" x2="13.897" y2="12.905" gradientUnits="userSpaceOnUse">
      <stop offset="0" stop-color="#9cebff"/>
      <stop offset="0.581" stop-color="#50e6ff"/>
    </linearGradient>
    <linearGradient id="eb3c1e70-d6a5-4e10-9b85-6625c46395d4" x1="15.911" y1="13.176" x2="1.364" y2="13.176" gradientUnits="userSpaceOnUse">
      <stop offset="0" stop-color="#a67af4"/>
      <stop offset="0.54" stop-color="#773adc"/>
    </linearGradient>
  </defs>
  <g id="be225a36-c778-43bf-bb53-30e5a1d3f11d">
    <g>
      <path d="M8.314,9.9A2.041,2.041,0,0,1,9,9.188l-.03-.03a2.039,2.039,0,0,0-.56-.22h-.03c-.01-.01-.03-.01-.06-.02-.13-.02-.26-.05-.4-.08-.12-.04-.24-.07-.36-.12A.142.142,0,0,0,7.5,8.7a4.187,4.187,0,0,1-2.63-3.36,3.748,3.748,0,0,0,.2.88,1.546,1.546,0,0,1,.07.23v.01a1.979,1.979,0,0,1-.19,1.45l-.13.22a1.985,1.985,0,0,1-1.4.95,4.14,4.14,0,0,0-2.88,2.06,4.206,4.206,0,0,0,1.41,5.56,4.177,4.177,0,0,0,5.47-.93.179.179,0,0,0,.05-.07,4.27,4.27,0,0,0,.3-.44,4.2,4.2,0,0,0,.29-3.55,1.712,1.712,0,0,1-.11-.74,2.093,2.093,0,0,1,.28-.93Zm-4.14,4.76a1.485,1.485,0,1,1,1.48-1.48A1.492,1.492,0,0,1,4.174,14.658Z" fill="url(#a1fa61ae-c40f-4467-9e7c-9185f2940a3e)"/>
      <path d="M13.184,8.128l-.13-.22a2,2,0,0,1-.19-1.46,1.545,1.545,0,0,1,.06-.23,4.276,4.276,0,0,0-.09-3.01,4.22,4.22,0,0,0-5.56-2.17,4.2,4.2,0,0,0-2.4,3.27,4.435,4.435,0,0,0,0,1.03A4.187,4.187,0,0,0,7.5,8.7a.142.142,0,0,1,.06.02c.12.05.24.08.36.12.14.03.27.06.4.08.03.01.05.01.06.02h.03a2.039,2.039,0,0,1,.56.22l.03.03a2.041,2.041,0,0,1,.69.71l.08.14a2.231,2.231,0,0,1,.28.92V11a.209.209,0,0,0,.06-.04,1.991,1.991,0,0,0,.57-.47,4.132,4.132,0,0,1,2.26-1.36,3.478,3.478,0,0,1,.97-.1,3.78,3.78,0,0,1,.67.05A1.985,1.985,0,0,1,13.184,8.128ZM9,6.308a1.49,1.49,0,1,1,1.49-1.49A1.487,1.487,0,0,1,9,6.308Z" fill="url(#fdd6abc3-576b-4182-a3f1-63bc83738319)"/>
      <path d="M17.694,11.618a5.238,5.238,0,0,0-.23-.48,4.654,4.654,0,0,0-.26-.41c-.02-.02-.04-.05-.06-.07-.03-.04-.05-.07-.08-.11s-.07-.08-.11-.12c-.02-.03-.05-.05-.07-.08l-.03-.03a1.141,1.141,0,0,0-.11-.11,2.547,2.547,0,0,0-.3-.26.218.218,0,0,0-.05-.04.351.351,0,0,0-.08-.05,2.937,2.937,0,0,0-.47-.31,1.593,1.593,0,0,0-.29-.15c-.1-.05-.21-.09-.31-.13a2.992,2.992,0,0,0-.32-.1,3.733,3.733,0,0,0-1.01-.14,3.478,3.478,0,0,0-.97.1,4.132,4.132,0,0,0-2.26,1.36,1.991,1.991,0,0,1-.57.47.209.209,0,0,1-.06.04,1.815,1.815,0,0,1-.89.23H8.9a1.932,1.932,0,0,1-.95-.26,1.712,1.712,0,0,0,.11.74,4.2,4.2,0,0,1-.29,3.55,4.27,4.27,0,0,1-.3.44.179.179,0,0,1-.05.07v.06a1.938,1.938,0,0,1,1.53-.69h.16a1.987,1.987,0,0,1,1.42.57c.04.04.07.08.11.12a3.584,3.584,0,0,0,.26.29c.09.09.19.18.29.27a4.159,4.159,0,0,0,6.5-4.77Zm-3.83,3.07a1.515,1.515,0,1,1,1.52-1.51A1.509,1.509,0,0,1,13.864,14.688Z" fill="url(#eb3c1e70-d6a5-4e10-9b85-6625c46395d4)"/>
    </g>
  </g>
</svg>
