<svg id="uuid-cceee0a6-30a9-4567-b248-95f2c5ce8f2f" xmlns="http://www.w3.org/2000/svg" width="18" height="18" viewBox="0 0 18 18">
  <defs>
    <linearGradient id="uuid-935c1ee6-957e-41d3-a641-f91ffcbf5d3d" x1="-558.713" y1="1025.516" x2="-558.713" y2="1007.516" gradientTransform="translate(564 1025.516) scale(1 -1)" gradientUnits="userSpaceOnUse">
      <stop offset=".421" stop-color="#005ba1"/>
      <stop offset="1" stop-color="#003067"/>
    </linearGradient>
    <linearGradient id="uuid-348cb03a-ad61-4bcf-8e47-87a33d1c4953" x1="-550.499" y1="1015.94" x2="-550.499" y2="1007.519" gradientTransform="translate(564 1025.516) scale(1 -1)" gradientUnits="userSpaceOnUse">
      <stop offset="0" stop-color="#32d4f5"/>
      <stop offset="1" stop-color="#198ab3"/>
    </linearGradient>
    <linearGradient id="uuid-123a0b44-16b1-48ac-8631-5a336fb229b7" x1="-551.784" y1="1015.192" x2="-551.784" y2="1022.167" gradientTransform="translate(564 1025.516) scale(1 -1)" gradientUnits="userSpaceOnUse">
      <stop offset="0" stop-color="#0078d4"/>
      <stop offset=".156" stop-color="#1380da"/>
      <stop offset=".528" stop-color="#3c91e5"/>
      <stop offset=".822" stop-color="#559cec"/>
      <stop offset="1" stop-color="#5ea0ef"/>
    </linearGradient>
    <clipPath id="uuid-032c7d71-2d05-4cb6-82a7-0d6b763adaa5">
      <circle cx="-626.176" cy="422.808" r="50.865" fill="none"/>
    </clipPath>
  </defs>
  <path d="m10.573.6v16.8c0,.331-.269.6-.6.6H.602C.271,18,.002,17.731.002,17.4H.002V.6C.002.269.271,0,.602,0h0s9.371,0,9.371,0c.331,0,.6.269.6.6Z" fill="url(#uuid-935c1ee6-957e-41d3-a641-f91ffcbf5d3d)"/>
  <path id="uuid-c1b97132-61d8-4059-9a5d-2624dec655e1" d="m1.397,1.869h1.72c.083,0,.15.067.15.15h0v2.225c0,.083-.067.15-.15.15h-1.72c-.083,0-.15-.067-.15-.15h0v-2.225c0-.083.067-.15.15-.15h0Zm3.03,0h1.721c.083,0,.15.067.15.15h0v2.225c0,.083-.067.15-.15.15h-1.721c-.083,0-.15-.067-.15-.15h0v-2.225c0-.083.067-.15.15-.15h0Zm3.031,0h1.72c.083,0,.15.067.15.15v2.225c0,.083-.067.15-.15.15h-1.72c-.083,0-.15-.067-.15-.15h0v-2.225c0-.083.067-.15.15-.15h0ZM1.397,5.909h1.72c.083,0,.15.067.15.15h0v2.225c0,.083-.067.15-.15.15h-1.72c-.083,0-.15-.067-.15-.15v-2.225c0-.083.067-.15.15-.15h0Zm3.03,0h1.721c.083,0,.15.067.15.15h0v2.225c0,.083-.067.15-.15.15h-1.721c-.083,0-.15-.067-.15-.15v-2.225c0-.083.067-.15.15-.15h0Zm3.031,0h1.72c.083,0,.15.067.15.15v2.225c0,.083-.067.15-.15.15h-1.72c-.083,0-.15-.067-.15-.15v-2.225c0-.083.067-.15.15-.15h0ZM1.397,9.95h1.72c.083,0,.15.067.15.15v2.225c0,.083-.067.15-.15.15h-1.72c-.083,0-.15-.067-.15-.15v-2.225c0-.083.067-.15.15-.15h0Zm3.03,0h1.721c.083,0,.15.067.15.15v2.225c0,.083-.067.15-.15.15h-1.721c-.083,0-.15-.067-.15-.15v-2.225c0-.083.067-.15.15-.15h0Zm0,4.04h1.721c.083,0,.15.067.15.15v3.295c0,.083-.067.15-.15.15h-1.721c-.083,0-.15-.067-.15-.15v-3.295c0-.083.067-.15.15-.15h0Zm3.031-4.04h1.72c.083,0,.15.067.15.15v2.225c0,.083-.067.15-.15.15h-1.72c-.083,0-.15-.067-.15-.15v-2.225c0-.083.067-.15.15-.15h0Z" fill="#f2f2f2"/>
  <path d="m17.998,9.856v7.859c0,.155-.229.281-.511.281h-7.973c-.282,0-.511-.126-.511-.281h0v-7.859c0-.155.229-.281.511-.281h0s7.973,0,7.973,0c.282,0,.511.126.511.281Z" fill="url(#uuid-348cb03a-ad61-4bcf-8e47-87a33d1c4953)"/>
  <path id="uuid-ac91be22-c0dd-4956-bcb1-261c96a236ab" d="m10.191,11.147h1.463c.07,0,.128.057.128.128v1.893c0,.07-.057.128-.128.128h-1.463c-.07,0-.128-.057-.128-.128v-1.893c0-.07.057-.128.128-.128h0Zm2.578,0h1.464c.07,0,.128.057.128.128v1.893c0,.07-.057.128-.128.128h-1.464c-.07,0-.128-.057-.128-.128v-1.893c0-.07.057-.128.128-.128h0Zm0,3.437h1.464c.07,0,.128.057.128.128v2.804c0,.07-.057.128-.128.128h-1.464c-.07,0-.128-.057-.128-.128v-2.804c0-.07.057-.128.128-.128h0Zm2.579-3.437h1.463c.07,0,.128.057.128.128v1.893c0,.07-.057.128-.128.128h-1.463c-.07,0-.128-.057-.128-.128v-1.893c0-.07.057-.128.128-.128h0Z" fill="#f2f2f2"/>
  <path d="m17.134,8.138c-.032-1.082-.845-1.982-1.918-2.124-.066-1.524-1.345-2.711-2.869-2.664-1.213-.022-2.308.725-2.731,1.862-1.295.157-2.281,1.237-2.32,2.541.058,1.474,1.297,2.622,2.771,2.569.082,0,.166-.004.244-.01h4.486c.04,0,.08-.007.118-.018,1.198-.008,2.176-.959,2.219-2.156Z" fill="url(#uuid-123a0b44-16b1-48ac-8631-5a336fb229b7)"/>
</svg>