<svg xmlns="http://www.w3.org/2000/svg" width="16" height="16" viewBox="0 0 16 16">
  <path d="M5,4V1.7A4.6,4.6,0,0,0,3.4,2.8,4.708,4.708,0,0,0,2.1,4.3,5.292,5.292,0,0,0,1.3,6,6.879,6.879,0,0,0,1,8a6.283,6.283,0,0,0,.3,1.9A4.61,4.61,0,0,0,2,11.5a4.9,4.9,0,0,0,1.1,1.4A4.9,4.9,0,0,0,4.5,14l1.6.8L8,15v1a8.112,8.112,0,0,1-3.1-.6,9.009,9.009,0,0,1-2.6-1.7A9.009,9.009,0,0,1,.6,11.1,8.112,8.112,0,0,1,0,8,7.308,7.308,0,0,1,.4,5.5,7.6,7.6,0,0,1,1.5,3.3,9.122,9.122,0,0,1,3.2,1.6l.5-.3L4.1,1H2V0H6V4Z"/>
  <path d="M11,12v2.3a4.6,4.6,0,0,0,1.6-1.1,4.708,4.708,0,0,0,1.3-1.5,5.292,5.292,0,0,0,.8-1.7A6.879,6.879,0,0,0,15,8a6.283,6.283,0,0,0-.3-1.9A4.61,4.61,0,0,0,14,4.5a4.9,4.9,0,0,0-1.1-1.4A4.9,4.9,0,0,0,11.5,2a7.976,7.976,0,0,0-1.6-.8L8,1V0a8.112,8.112,0,0,1,3.1.6,9.009,9.009,0,0,1,2.6,1.7,9.009,9.009,0,0,1,1.7,2.6A8.112,8.112,0,0,1,16,8a7.308,7.308,0,0,1-.4,2.5,7.6,7.6,0,0,1-1.1,2.2,9.122,9.122,0,0,1-1.7,1.7l-.5.3-.4.3H14v1H10V12Z"/>
</svg>
