<svg xmlns="http://www.w3.org/2000/svg" width="18" height="18" viewBox="0 0 18 18">
  <defs>
    <linearGradient id="a9d9a5ff-3369-4b79-8088-1f5ef16f206f" x1="5.948" y1="11.587" x2="5.948" y2="6.333" gradientUnits="userSpaceOnUse">
      <stop offset="0" stop-color="#552f99"/>
      <stop offset="0.82" stop-color="#a67af4"/>
    </linearGradient>
  </defs>
  <g id="f942eeac-bcfc-46ed-8d72-9585de5f18e6">
    <g>
      <path d="M17.541,4.448H5.664a.459.459,0,0,0-.459.459V6.7h.838v4.094H5.205v2.3a.459.459,0,0,0,.459.459H17.541A.459.459,0,0,0,18,13.093V4.907A.459.459,0,0,0,17.541,4.448Z" fill="#773adc"/>
      <rect x="5.948" y="5.086" width="11.308" height="7.749" rx="0.23" fill="#fff"/>
      <rect x="10.94" y="4.734" width="1.36" height="0.182" rx="0.084" fill="#f2f2f2"/>
    </g>
    <path d="M11.4,7.472H.493A.535.535,0,0,1,0,6.9a.536.536,0,0,1,.493-.57H11.4a.536.536,0,0,1,.494.57A.536.536,0,0,1,11.4,7.472ZM11.9,8.96a.536.536,0,0,0-.494-.569H1.466a.575.575,0,0,0,0,1.139H11.4A.536.536,0,0,0,11.9,8.96Zm0,2.058a.536.536,0,0,0-.494-.57H3.03a.575.575,0,0,0,0,1.139H11.4A.536.536,0,0,0,11.9,11.018Z" fill="url(#a9d9a5ff-3369-4b79-8088-1f5ef16f206f)"/>
  </g>
</svg>
