<svg xmlns="http://www.w3.org/2000/svg" width="18" height="18" viewBox="0 0 18 18">
  <defs>
    <linearGradient id="bf438a32-c30b-436a-a8f9-33968c1827e9" x1="13.529" y1="9.958" x2="13.529" y2="17.998" gradientUnits="userSpaceOnUse">
      <stop offset="0" stop-color="#a67af4"/>
      <stop offset="1" stop-color="#773adc"/>
    </linearGradient>
    <linearGradient id="bdfa2ca2-24f4-4853-9cf1-629ed853445e" x1="7.447" y1="1.607" x2="7.447" y2="17.107" gradientUnits="userSpaceOnUse">
      <stop offset="0.183" stop-color="#5ea0ef"/>
      <stop offset="1" stop-color="#0078d4"/>
    </linearGradient>
  </defs>
  <g id="f3adb4b7-b7e2-41c0-9b2c-5f3c851c9a21">
    <g>
      <g id="b4dd7fcd-5359-4379-855b-4d63c37f247d">
        <path d="M15.422.737a.333.333,0,0,1,0,.1v8.7h-.68V1.107a.534.534,0,0,0-.53-.53H3.3a.532.532,0,0,0-.39.18l-.75.85h-.94c-.01,0-.03.01-.04.01L2.4.2a.613.613,0,0,1,.44-.19h11.69A.8.8,0,0,1,15.422.737Z" fill="#005ba1"/>
      </g>
      <g>
        <path d="M16.828,10.226v7.5A.267.267,0,0,1,16.56,18H10.5a.267.267,0,0,1-.268-.268v-7.5a.267.267,0,0,1,.268-.268h2.372v.8a.379.379,0,0,0,.38.38h.572a.379.379,0,0,0,.38-.38V9.958H16.56A.272.272,0,0,1,16.828,10.226Z" fill="url(#bf438a32-c30b-436a-a8f9-33968c1827e9)"/>
        <path d="M15.048,15.018a1.628,1.628,0,0,0-1.061-1.47.843.843,0,0,1-.913-.01,1.5,1.5,0,0,0-1.063,1.482.272.272,0,0,0,.243.3.122.122,0,0,0,.027,0h2.5a.27.27,0,0,0,.271-.269Z" fill="#fff" opacity="0.8" style="isolation: isolate"/>
        <path d="M13.546,13.678a.858.858,0,0,1-.458-.136l.458,1.193L14,13.55A.854.854,0,0,1,13.546,13.678Z" fill="#fff" opacity="0.9" style="isolation: isolate"/>
        <circle cx="13.54" cy="12.825" r="0.853" fill="#fff" opacity="0.8" style="isolation: isolate"/>
        <rect x="13.085" y="8.998" width="0.9" height="1.928" rx="0.162" fill="#773adc"/>
      </g>
      <path d="M14.742,1.107v8.43H14.4v-.38a.58.58,0,0,0-.58-.58h-.57a.583.583,0,0,0-.59.58v.38H10.5a.691.691,0,0,0-.69.69V11.7l-2.7-3.56-1.82-2.4-3.13-4.13.75-.85A.532.532,0,0,1,3.3.577h10.91A.534.534,0,0,1,14.742,1.107Z" fill="#fff"/>
      <path d="M13.722,1.987v6.59h-.47a.583.583,0,0,0-.59.58v.38H10.5a.691.691,0,0,0-.69.69v6.88H1.552a.38.38,0,0,1-.38-.38V1.657a.06.06,0,0,1,.01-.04c.01,0,.03-.01.04-.01h12.11A.382.382,0,0,1,13.722,1.987Z" fill="url(#bdfa2ca2-24f4-4853-9cf1-629ed853445e)"/>
      <rect x="4.572" y="5.736" width="6.042" height="2.397" rx="0.272" fill="#fff"/>
    </g>
  </g>
</svg>
