<svg xmlns="http://www.w3.org/2000/svg" viewBox="0 0 18 18">
  <defs>
    <linearGradient id="b061cdca-1bd1-441f-8712-686076951d5e" x1="3.991" y1="10.854" x2="3.991" y2="17.382" gradientUnits="userSpaceOnUse">
      <stop offset="0" stop-color="#008bf1" />
      <stop offset="0.222" stop-color="#0086ec" />
      <stop offset="0.494" stop-color="#0078dd" />
      <stop offset="0.792" stop-color="#0061c4" />
      <stop offset="1" stop-color="#004dae" />
    </linearGradient>
    <linearGradient id="e55f29e5-7dda-44f5-b355-ac68b7ddcdf7" x1="12.804" y1="8.359" x2="12.804" y2="0.618" gradientUnits="userSpaceOnUse">
      <stop offset="0" stop-color="#5e9624" />
      <stop offset="0.011" stop-color="#5e9724" />
      <stop offset="0.347" stop-color="#6cab29" />
      <stop offset="0.679" stop-color="#73b82c" />
      <stop offset="0.999" stop-color="#76bc2d" />
    </linearGradient>
  </defs>
  <title>00668-icon-resourcemenu-guidedscenario</title>
  <g id="a37bad03-7fbd-4bcb-9cbe-a5a6e0374fb7">
    <g>
      <polygon points="4.562 13.785 4.562 6.107 3.3 6.107 3.3 13.785 3.3 14.494 3.3 15.047 13.317 15.047 13.317 13.785 4.562 13.785" fill="#a3a3a3" />
      <path id="f777b481-1b11-4ff7-8deb-e74ae9b2423a" d="M3.656,10.993.867,13.778a.478.478,0,0,0,0,.675l2.789,2.789a.478.478,0,0,0,.675,0l2.785-2.789a.477.477,0,0,0,0-.674L4.33,10.993A.477.477,0,0,0,3.656,10.993Z" fill="url(#b061cdca-1bd1-441f-8712-686076951d5e)" />
      <path id="a76c9f87-7409-48eb-b62e-767035421d2e" d="M6.7,6.1V1.909a.535.535,0,0,0-.535-.535H1.976a.536.536,0,0,0-.535.535V6.1a.535.535,0,0,0,.535.534h4.19A.534.534,0,0,0,6.7,6.1Z" fill="#32bedd" />
      <path id="bdd30cef-1eea-4d87-8cf2-01ebb4b61822" d="M12.013,12.474v4.19a.534.534,0,0,0,.534.535h4.191a.535.535,0,0,0,.535-.535v-4.19a.536.536,0,0,0-.535-.535H12.547A.535.535,0,0,0,12.013,12.474Z" fill="#32bedd" />
      <path d="M13.511.674l3.518,3.518a.42.42,0,0,1,0,.594L13.511,8.3a.187.187,0,0,1-.32-.132V6.008A.188.188,0,0,0,13,5.82h-4.4a.15.15,0,0,1-.15-.149V3.307a.15.15,0,0,1,.15-.15H13a.188.188,0,0,0,.188-.187V.806A.187.187,0,0,1,13.511.674Z" fill="url(#e55f29e5-7dda-44f5-b355-ac68b7ddcdf7)" />
    </g>
  </g>
</svg>