<svg xmlns="http://www.w3.org/2000/svg" viewBox="0 0 18 18">
  <defs>
    <linearGradient id="f38662fb-6c22-405c-9047-5f89f7a459c6" x1="12.338" y1="16.819" x2="12.338" y2="5.129" gradientUnits="userSpaceOnUse">
      <stop offset="0" stop-color="#32bedd" />
      <stop offset="1" stop-color="#50e6ff" />
    </linearGradient>
    <linearGradient id="b16d2093-5570-46e8-a8ad-af43300aed51" x1="5.614" y1="5.128" x2="5.614" y2="16.819" gradientUnits="userSpaceOnUse">
      <stop offset="0" stop-color="#9cebff" />
      <stop offset="1" stop-color="#50e6ff" />
    </linearGradient>
  </defs>
  <polygon points="8.976 9.027 8.976 16.819 15.7 12.91 15.7 5.129 8.976 9.027" fill="url(#f38662fb-6c22-405c-9047-5f89f7a459c6)" />
  <polygon points="15.7 5.129 8.977 9.038 2.252 5.128 8.977 1.219 15.7 5.129" fill="#c3f1ff" />
  <polygon points="2.252 5.128 2.252 12.91 8.976 16.819 8.976 9.037 2.252 5.128" fill="url(#b16d2093-5570-46e8-a8ad-af43300aed51)" />
  <polygon points="8.961 8.987 8.961 13.629 12.967 11.3 12.967 6.665 8.961 8.987" fill="#198ab3" />
  <polygon points="12.967 6.665 8.962 8.994 4.956 6.665 8.962 4.336 12.967 6.665" fill="#50e6ff" />
  <polygon points="4.956 6.665 4.956 11.3 8.961 13.629 8.961 8.993 4.956 6.665" fill="#32bedd" />
  <path d="M15.911,5.008c0-.007-.013-.011-.018-.018a.219.219,0,0,0-.071-.071L9.1,1.008a.244.244,0,0,0-.245,0L2.13,4.917a.243.243,0,0,0-.122.211h0V12.91a.243.243,0,0,0,.122.211L8.854,17.03h0a.237.237,0,0,0,.121.033A.243.243,0,0,0,9.1,17.03h0l6.723-3.909a.243.243,0,0,0,.122-.211V5.129A.241.241,0,0,0,15.911,5.008ZM8.977,1.5l6.237,3.628L8.968,8.75,3.952,5.835,2.737,5.128ZM2.5,5.552,5.215,7.133,8.733,9.178V16.4L2.5,12.77ZM9.22,16.4V9.178l6.236-3.625V12.77Z" fill="#0078d4" />
  <circle cx="8.972" cy="9.105" r="1.281" fill="#0078d4" />
  <circle cx="8.972" cy="16.719" r="1.281" fill="#0078d4" />
  <circle cx="2.342" cy="12.817" r="1.281" fill="#0078d4" />
  <circle cx="2.342" cy="5.308" r="1.281" fill="#0078d4" />
  <circle cx="15.658" cy="12.817" r="1.281" fill="#0078d4" />
  <circle cx="15.658" cy="5.308" r="1.281" fill="#0078d4" />
  <circle cx="8.972" cy="1.281" r="1.281" fill="#0078d4" />
</svg>