<svg xmlns="http://www.w3.org/2000/svg" viewBox="0 0 18 18">
  <defs>
    <linearGradient id="eb509a72-58f7-4cc6-8a7d-5c6a1e5318a5" x1="3.421" y1="11.05" x2="8.433" y2="11.05" gradientUnits="userSpaceOnUse">
      <stop offset="0" stop-color="#b77af4" />
      <stop offset="0.997" stop-color="#773adc" />
    </linearGradient>
    <linearGradient id="e43b5946-7ae0-4238-ab25-d61de1555e90" x1="6.562" y1="5.6" x2="11.574" y2="5.6" gradientUnits="userSpaceOnUse">
      <stop offset="0" stop-color="#b77af4" />
      <stop offset="0.997" stop-color="#773adc" />
    </linearGradient>
    <linearGradient id="a4cff25d-21e3-42d1-a8db-5ebae954749d" x1="9.685" y1="11.05" x2="14.697" y2="11.05" gradientUnits="userSpaceOnUse">
      <stop offset="0" stop-color="#b77af4" />
      <stop offset="0.997" stop-color="#773adc" />
    </linearGradient>
  </defs>
  <g id="a8a29a98-e347-4671-8edf-7e13416b617c">
    <g>
      <g>
        <path d="M5.924,8.844l-2.5.462v3.413l2.5.537L8.3,12.3a.218.218,0,0,0,.137-.2V9.857a.22.22,0,0,0-.148-.207Z" fill="url(#eb509a72-58f7-4cc6-8a7d-5c6a1e5318a5)" />
        <path d="M3.421,9.306v3.413l2.528.537V8.844Zm1.062,3.156-.708-.144V9.687l.708-.119Zm1.105.2-.814-.132v-3l.814-.142Z" fill="#341a6e" />
      </g>
      <g>
        <path d="M9.066,3.394l-2.5.462V7.268l2.5.537,2.371-.956a.219.219,0,0,0,.137-.2V4.407a.217.217,0,0,0-.148-.207Z" fill="url(#e43b5946-7ae0-4238-ab25-d61de1555e90)" />
        <path d="M6.562,3.856V7.268l2.528.537V3.394ZM7.624,7.012l-.708-.144V4.237l.708-.119Zm1.1.2-.814-.131v-3l.814-.142Z" fill="#341a6e" />
      </g>
      <g>
        <path d="M12.188,8.844l-2.5.462v3.413l2.5.537L14.56,12.3a.218.218,0,0,0,.137-.2V9.857a.22.22,0,0,0-.148-.207Z" fill="url(#a4cff25d-21e3-42d1-a8db-5ebae954749d)" />
        <path d="M9.685,9.306v3.413l2.528.537V8.844Zm1.062,3.156-.709-.144V9.687l.709-.119Zm1.105.2-.814-.132v-3l.814-.142Z" fill="#341a6e" />
      </g>
      <g>
        <path d="M0,15.588a.174.174,0,0,0,.086.15l1.221.708,2.075,1.2a.17.17,0,0,0,.234-.063l.7-1.215a.174.174,0,0,0-.063-.236L1.825,14.728a.171.171,0,0,1-.086-.149V3.421a.171.171,0,0,1,.086-.149L4.251,1.863a.173.173,0,0,0,.063-.235L3.616.413A.171.171,0,0,0,3.382.349L1.349,1.529.086,2.262A.173.173,0,0,0,0,2.411V15.588Z" fill="#949494" />
        <path d="M4.314,1.628,3.616.413A.17.17,0,0,0,3.442.329.166.166,0,0,0,3.356.35L1.324,1.529.061,2.262A.184.184,0,0,0,0,2.322l.02.012A.173.173,0,0,0,0,2.411l1.739,1.01a.17.17,0,0,1,.086-.149L4.251,1.863A.173.173,0,0,0,4.314,1.628Z" fill="#a3a3a3" />
        <path d="M4.314,16.373l-.7,1.215a.171.171,0,0,1-.174.084.166.166,0,0,1-.086-.021l-2.032-1.18L.061,15.739A.178.178,0,0,1,0,15.678l.02-.011A.174.174,0,0,1,0,15.589L1.739,14.58a.171.171,0,0,0,.086.149l2.426,1.408A.174.174,0,0,1,4.314,16.373Z" fill="#a3a3a3" />
        <path d="M18,2.412a.174.174,0,0,0-.086-.15l-1.221-.708L14.618.35a.17.17,0,0,0-.234.063l-.7,1.215a.174.174,0,0,0,.063.236l2.426,1.408a.171.171,0,0,1,.086.149V14.579a.171.171,0,0,1-.086.149l-2.426,1.409a.173.173,0,0,0-.063.235l.7,1.215a.171.171,0,0,0,.234.064l2.033-1.18,1.263-.733A.173.173,0,0,0,18,15.589V2.412Z" fill="#949494" />
        <path d="M13.686,16.372l.7,1.215a.17.17,0,0,0,.174.084.166.166,0,0,0,.086-.021l2.032-1.179,1.263-.733a.184.184,0,0,0,.061-.06l-.02-.012a.173.173,0,0,0,.02-.077l-1.739-1.01a.17.17,0,0,1-.086.149l-2.426,1.409A.173.173,0,0,0,13.686,16.372Z" fill="#a3a3a3" />
        <path d="M13.686,1.627l.7-1.215a.171.171,0,0,1,.174-.084.166.166,0,0,1,.086.021l2.032,1.18,1.263.732A.178.178,0,0,1,18,2.322l-.02.011a.174.174,0,0,1,.02.078L16.261,3.42a.171.171,0,0,0-.086-.149L13.749,1.863A.174.174,0,0,1,13.686,1.627Z" fill="#a3a3a3" />
      </g>
    </g>
  </g>
  <metadata>
    <rdf:RDF xmlns:rdf="http://www.w3.org/1999/02/22-rdf-syntax-ns#">
      <rdf:li>public:true</rdf:li>
      <rdf:li>sdk:false</rdf:li>
      <rdf:li>category:Compute</rdf:li>
    </rdf:RDF>
  </metadata>
</svg>