<svg xmlns="http://www.w3.org/2000/svg" width="16" height="16" viewBox="0 0 16 16">
  <g id="e27bd35e-7562-442f-a323-771dbd41f0ff">
    <g>
      <path d="M9.885,9.384a2.008,2.008,0,0,1,.218.915,2.048,2.048,0,0,1-.163.817,2.083,2.083,0,0,1-1.112,1.112,2.129,2.129,0,0,1-1.634,0,2.083,2.083,0,0,1-1.112-1.112,2.117,2.117,0,0,1,0-1.634A2.083,2.083,0,0,1,7.194,8.37a2.048,2.048,0,0,1,.817-.163,2.082,2.082,0,0,1,.9.207L12.926,4.4l.981.981Z"/>
      <path d="M.965,13.352H2.534a6.512,6.512,0,0,1-.321-.655,6.138,6.138,0,0,1-.48-2.4,5.866,5.866,0,0,1,.229-1.667,7.336,7.336,0,0,1,.632-1.494,5.681,5.681,0,0,1,.97-1.275,7.015,7.015,0,0,1,1.265-.98A5.757,5.757,0,0,1,6.322,4.24a6.323,6.323,0,0,1,4.261.348l.567-1.264a7.116,7.116,0,0,0-1.537-.512,7.831,7.831,0,0,0-1.6-.164,7.09,7.09,0,0,0-2.049.273A8.212,8.212,0,0,0,4.131,3.7,7.424,7.424,0,0,0,2.584,4.883a7.722,7.722,0,0,0-1.2,1.547,7.727,7.727,0,0,0-.469,6.812C.932,13.279.949,13.315.965,13.352Z"/>
      <path d="M14.277,10.31a6.126,6.126,0,0,1-.272,1.82,6.214,6.214,0,0,1-.528,1.222h1.557a7.655,7.655,0,0,0,.627-3.053,8.413,8.413,0,0,0-.174-1.613,7.233,7.233,0,0,0-.5-1.526l-1.264.567a6.866,6.866,0,0,1,.414,1.264A6.14,6.14,0,0,1,14.277,10.31Z"/>
    </g>
  </g>
</svg>
