<svg id="uuid-f592d125-b7bd-4304-8459-cbc63c63b28d" xmlns="http://www.w3.org/2000/svg" width="18" height="18" viewBox="0 0 18 18">
  <defs>
    <linearGradient id="uuid-559ed4c2-b899-4d15-8c65-f2b37c20c0e9" x1="8.994" y1="9.005" x2="8.994" y2="5.135" gradientUnits="userSpaceOnUse">
      <stop offset="0" stop-color="#32bedd"/>
      <stop offset=".18" stop-color="#32caea"/>
      <stop offset=".41" stop-color="#32d2f2"/>
      <stop offset=".78" stop-color="#32d4f5"/>
    </linearGradient>
    <linearGradient id="uuid-bdd9c476-29bf-4943-95bb-befbd8505ee5" x1="5.316" y1="14.253" x2="5.316" y2="12.383" gradientUnits="userSpaceOnUse">
      <stop offset="0" stop-color="#50e6ff"/>
      <stop offset="1" stop-color="#9cebff"/>
    </linearGradient>
    <linearGradient id="uuid-6a06885f-954d-4a6b-acff-ae324ef3fb16" x1="8.993" x2="8.993" gradientUnits="userSpaceOnUse">
      <stop offset="0" stop-color="#50e6ff"/>
      <stop offset="1" stop-color="#9cebff"/>
    </linearGradient>
    <linearGradient id="uuid-4a0e33a5-e601-45f5-97bd-004bb2ed2b1a" x1="12.672" x2="12.672" gradientUnits="userSpaceOnUse">
      <stop offset="0" stop-color="#50e6ff"/>
      <stop offset="1" stop-color="#9cebff"/>
    </linearGradient>
  </defs>
  <g id="uuid-035dba6c-3ab2-4a3f-b6a5-c506d2dd5259">
    <path d="m0,15.587c0,.062.033.119.086.15l1.221.708,2.075,1.2c.08.047.184.021.231-.06h0s.7-1.216.7-1.216c.046-.083.018-.187-.063-.236l-2.428-1.4c-.054-.03-.087-.087-.086-.149V3.422c0-.062.032-.119.086-.149l2.428-1.409c.081-.049.109-.152.063-.235l-.698-1.215c-.047-.082-.151-.11-.233-.065h0L1.349,1.53.086,2.263c-.053.031-.086.088-.086.149v13.175Z" fill="#949494" stroke-width="0"/>
    <path d="m4.314,1.629l-.698-1.215c-.035-.061-.104-.095-.174-.084-.03-.001-.06.006-.086.021L1.324,1.53.061,2.263c-.025.015-.046.035-.061.06l.02.012c-.012.024-.019.05-.02.077l1.739,1.01c-.001-.062.032-.119.086-.149l2.426-1.409c.081-.049.109-.152.063-.235Z" fill="#a3a3a3" stroke-width="0"/>
    <path d="m4.314,16.372l-.7,1.215c-.035.061-.104.094-.174.084-.03.001-.06-.006-.086-.022l-2.032-1.179L.061,15.738c-.025-.015-.046-.036-.061-.061l.02-.011c-.013-.024-.02-.051-.02-.078l1.739-1.009c0,.062.032.119.086.149l2.426,1.408c.081.049.109.153.063.236Z" fill="#a3a3a3" stroke-width="0"/>
    <path d="m18,2.413c0-.062-.033-.119-.086-.15l-1.221-.708-2.077-1.204c-.08-.047-.184-.02-.231.06h0s-.7,1.216-.7,1.216c-.046.083-.019.187.063.236l2.426,1.408c.054.03.087.087.086.149v11.158c0,.062-.032.119-.086.149l-2.427,1.409c-.081.049-.109.152-.063.235l.7,1.215c.047.082.151.11.233.065h0l2.033-1.18,1.263-.733c.054-.031.087-.088.087-.15V2.413Z" fill="#949494" stroke-width="0"/>
    <path d="m13.684,16.371l.7,1.215c.035.061.104.095.174.084.03.001.06-.006.086-.022l2.032-1.179,1.263-.733c.025-.015.046-.035.061-.06l-.02-.012c.012-.024.019-.05.02-.077l-1.739-1.01c.001.062-.032.119-.086.149l-2.426,1.409c-.082.047-.111.152-.065.235Z" fill="#a3a3a3" stroke-width="0"/>
    <path d="m13.684,1.628l.7-1.215c.035-.061.104-.094.174-.084.03-.001.06.006.086.021l2.032,1.18,1.263.732c.025.015.046.036.061.061l-.02.011c.013.024.02.051.02.078l-1.741,1.009c0-.062-.032-.119-.086-.149l-2.426-1.408c-.081-.049-.109-.153-.063-.236Z" fill="#a3a3a3" stroke-width="0"/>
  </g>
  <g>
    <path d="m8.993,13.525c-.146,0-.263-.118-.263-.263v-5.062c0-.146.118-.263.263-.263s.263.118.263.263v5.062c0,.146-.118.263-.263.263Z" fill="#b3b3b3" stroke-width="0"/>
    <g>
      <path d="m12.261,5.135h-6.534v3.651c0,.121.098.219.219.219h6.096c.121,0,.219-.098.219-.219v-3.651Z" fill="url(#uuid-559ed4c2-b899-4d15-8c65-f2b37c20c0e9)" stroke-width="0"/>
      <path d="m5.947,3.74h6.095c.121,0,.219.098.219.219,0,0,0,0,0,0v1.175h-6.533v-1.179c.002-.12.099-.216.219-.216Z" fill="#0078d4" stroke-width="0"/>
      <path d="m10.632,6.116c.28,0,.507.228.507.508s-.227.508-.507.508-.507-.228-.507-.508h0c0-.281.227-.508.507-.508Zm-2.123.508c0,.281.227.508.507.508s.507-.228.507-.508-.227-.508-.507-.508c-.28,0-.507.227-.507.507,0,0,0,0,0,0Zm-1.659,0c0,.281.227.508.507.508s.507-.228.507-.508c0-.281-.227-.508-.507-.508,0,0,0,0,0,0-.28,0-.507.227-.507.508,0,0,0,0,0,0Z" fill="#0078d4" stroke-width="0"/>
    </g>
    <path d="m12.672,13.366c-.146,0-.263-.118-.263-.263v-2.325h-6.83v2.325c0,.146-.118.263-.263.263s-.263-.118-.263-.263v-2.588c0-.146.118-.263.263-.263h7.356c.146,0,.263.118.263.263v2.588c0,.146-.118.263-.263.263Z" fill="#b3b3b3" stroke-width="0"/>
    <g>
      <path d="m6.894,12.383h-3.156v1.764c0,.059.047.106.106.106h2.945c.058,0,.106-.047.106-.106v-1.764Z" fill="url(#uuid-bdd9c476-29bf-4943-95bb-befbd8505ee5)" stroke-width="0"/>
      <path d="m3.844,11.709h2.944c.058,0,.106.047.106.106,0,0,0,0,0,0v.568h-3.156v-.569c0-.058.048-.104.106-.104Z" fill="#0078d4" stroke-width="0"/>
    </g>
    <g>
      <path d="m10.571,12.383h-3.156v1.764c0,.059.047.106.106.106h2.945c.058,0,.106-.047.106-.106v-1.764Z" fill="url(#uuid-6a06885f-954d-4a6b-acff-ae324ef3fb16)" stroke-width="0"/>
      <path d="m7.521,11.709h2.944c.058,0,.106.047.106.106,0,0,0,0,0,0v.568h-3.156v-.569c0-.058.048-.104.106-.104Z" fill="#0078d4" stroke-width="0"/>
    </g>
    <g>
      <path d="m14.25,12.383h-3.156v1.764c0,.059.047.106.106.106h2.945c.058,0,.106-.047.106-.106v-1.764Z" fill="url(#uuid-4a0e33a5-e601-45f5-97bd-004bb2ed2b1a)" stroke-width="0"/>
      <path d="m11.2,11.709h2.944c.058,0,.106.047.106.106,0,0,0,0,0,0v.568h-3.156v-.569c0-.058.048-.104.106-.104Z" fill="#0078d4" stroke-width="0"/>
    </g>
  </g>
</svg>