<svg xmlns="http://www.w3.org/2000/svg" width="18" height="18" viewBox="0 0 18 18">
  <defs>
    <linearGradient id="a596dd0c-e85c-4ddb-890b-0c518c8c0ef5" x1="9" y1="12.411" x2="9" y2="1.294" gradientUnits="userSpaceOnUse">
      <stop offset="0" stop-color="#0078d4"/>
      <stop offset="0.817" stop-color="#5ea0ef"/>
    </linearGradient>
    <linearGradient id="a409bfc3-b472-4468-bd00-4018fe29538a" x1="9.002" y1="16.706" x2="9.002" y2="12.411" gradientUnits="userSpaceOnUse">
      <stop offset="0.149" stop-color="#ccc"/>
      <stop offset="1" stop-color="#707070"/>
    </linearGradient>
    <linearGradient id="a38bcf7e-6901-4086-a6a5-7edb11972db6" x1="8.962" y1="780.411" x2="8.962" y2="788.911" gradientTransform="matrix(1, 0, 0, -1, 0, 791.516)" gradientUnits="userSpaceOnUse">
      <stop offset="0.236" stop-color="#32bedd"/>
      <stop offset="0.929" stop-color="#9cebff"/>
    </linearGradient>
  </defs>
  <g id="ac112500-98cd-4367-afd9-6557a103fbfc">
    <g>
      <g>
        <rect x="0.662" y="1.294" width="16.675" height="11.117" rx="0.556" fill="url(#a596dd0c-e85c-4ddb-890b-0c518c8c0ef5)"/>
        <path d="M12.344,15.774c-1.649-.258-1.714-1.448-1.709-3.363H7.365c0,1.915-.06,3.105-1.709,3.363a.97.97,0,0,0-.822.932h8.337A.975.975,0,0,0,12.344,15.774Z" fill="url(#a409bfc3-b472-4468-bd00-4018fe29538a)"/>
      </g>
      <path d="M8.965,11.105c4.323-3.1,4.471-4.9,4.487-5.47.026-.792-.079-2.859-2.193-3.022A2.251,2.251,0,0,0,8.965,4.119a2.26,2.26,0,0,0-2.32-1.506c-2.087.163-2.2,2.23-2.172,3.022,0,.566.169,2.373,4.492,5.47" fill="url(#a38bcf7e-6901-4086-a6a5-7edb11972db6)"/>
      <path d="M13.653,5.607c.027-.828-.083-2.987-2.292-3.158a2.353,2.353,0,0,0-2.4,1.573A2.364,2.364,0,0,0,6.541,2.449c-2.181.171-2.3,2.33-2.269,3.158,0,.591.133,2.452,4.655,5.687" fill="none"/>
      <path d="M13.452,5.324H11.338a.088.088,0,0,0-.069.037l-.639,1.1a.085.085,0,0,1-.117.026.092.092,0,0,1-.026-.026L9.573,4.726a.164.164,0,0,0-.218-.077.158.158,0,0,0-.078.077L8.4,7.342a.084.084,0,0,1-.113.041.086.086,0,0,1-.041-.041L7.5,5.6a.164.164,0,0,0-.291,0L6.18,7.448a.082.082,0,0,1-.069.042H5.139a6.828,6.828,0,0,0,.476.645H6.5a.069.069,0,0,0,.069-.042l.64-1.179a.084.084,0,0,1,.114-.033.09.09,0,0,1,.034.033l.877,2.04a.163.163,0,0,0,.306,0l.925-2.748a.079.079,0,0,1,.1-.045.077.077,0,0,1,.045.045l.772,1.464a.159.159,0,0,0,.214.066.161.161,0,0,0,.066-.066l.983-1.654a.082.082,0,0,1,.068-.042h1.707" fill="#fff"/>
    </g>
  </g>
</svg>
