<svg xmlns="http://www.w3.org/2000/svg" width="18" height="18" viewBox="0 0 18 18">
  <defs>
    <radialGradient id="bf19343a-c1be-435f-93a7-d29299d85fee" cx="7.253" cy="7.24" r="7.286" gradientUnits="userSpaceOnUse">
      <stop offset="0.183" stop-color="#3cd4c2"/>
      <stop offset="1" stop-color="#37c2b1"/>
    </radialGradient>
  </defs>
  <g id="a9e43002-5db8-42fa-a549-019bebfbeea0">
    <g>
      <path d="M14.105,9.65A7.288,7.288,0,0,0,2.856,1.428l-.074.056a7.288,7.288,0,0,0,6.849,12.63A4.491,4.491,0,0,1,14.105,9.65Z" fill="url(#bf19343a-c1be-435f-93a7-d29299d85fee)"/>
      <g>
        <path d="M5.853,8.81H5.468l-.316-.836H3.889l-.3.835H3.2L4.346,5.831h.361ZM5.037,7.662,4.57,6.393a1.148,1.148,0,0,1-.046-.2H4.516a1.109,1.109,0,0,1-.047.2l-.46,1.271Z" fill="#fff"/>
        <path d="M6.152,8.691V8.279a.86.86,0,0,0,.169.113,1.507,1.507,0,0,0,.209.081,1.776,1.776,0,0,0,.218.053,1.28,1.28,0,0,0,.2.019.8.8,0,0,0,.481-.12.444.444,0,0,0,.109-.553A.586.586,0,0,0,7.4,7.709a1.546,1.546,0,0,0-.226-.14l-.276-.141c-.1-.053-.2-.107-.29-.162a1.237,1.237,0,0,1-.235-.179.718.718,0,0,1-.157-.221.762.762,0,0,1,.032-.648.774.774,0,0,1,.235-.248,1.053,1.053,0,0,1,.331-.145,1.484,1.484,0,0,1,.382-.038,1.449,1.449,0,0,1,.641.105v.389a1.293,1.293,0,0,0-.905-.159.68.68,0,0,0-.2.081.451.451,0,0,0-.145.14.369.369,0,0,0-.056.207.42.42,0,0,0,.043.2A.459.459,0,0,0,6.69,6.9a1.245,1.245,0,0,0,.2.133c.081.043.171.09.275.141s.207.109.3.166a1.39,1.39,0,0,1,.251.194.828.828,0,0,1,.176.231.649.649,0,0,1,.059.291.745.745,0,0,1-.086.373.71.71,0,0,1-.232.249,1.062,1.062,0,0,1-.338.138,1.839,1.839,0,0,1-.405.042,1.455,1.455,0,0,1-.175-.011c-.069-.008-.14-.019-.212-.033A1.876,1.876,0,0,1,6.3,8.759.767.767,0,0,1,6.152,8.691Z" fill="#fff"/>
        <path d="M10.952,8.81h-.428L8.992,6.435a1,1,0,0,1-.1-.186H8.883a2.882,2.882,0,0,1,.017.405V8.806H8.551V5.832H9L10.5,8.169c.062.1.1.162.12.2h.008a3.2,3.2,0,0,1-.02-.438v-2.1h.349Z" fill="#fff"/>
      </g>
      <circle cx="14.115" cy="14.135" r="3.885" fill="#86d633"/>
      <path d="M13.372,16.021a.465.465,0,0,1-.33-.137L11.688,14.53a.466.466,0,0,1,.659-.658L13.372,14.9l2.511-2.512a.466.466,0,0,1,.658.659l-2.84,2.84A.464.464,0,0,1,13.372,16.021Z" fill="#fff"/>
      <path d="M9.824,12.9a6.29,6.29,0,0,1-.975.36,6.114,6.114,0,0,0,1.178-2.4,5.883,5.883,0,0,1,.79.259c.093-.1.189-.2.29-.289a6.143,6.143,0,0,0-.991-.334h0c.069-.3.127-.627.172-.96-.128.034-.261.067-.4.1-.041.265-.088.525-.145.772a12.965,12.965,0,0,0-5.228,0c-.055-.238-.1-.486-.145-.743a.5.5,0,0,0-.01-.076c-.135-.033-.265-.069-.393-.106.011.081.022.162.034.243.042.268.093.526.15.775a5.073,5.073,0,0,0-1.688.729,6.207,6.207,0,0,1,.094-8.066A5.288,5.288,0,0,0,4.346,3.9c-.057.21-.111.427-.162.649-.023.107-.043.217-.064.324.131-.036.265-.069.405-.1.01-.049.018-.1.029-.147.048-.221.1-.435.162-.648a12.614,12.614,0,0,0,2.5.243,12.493,12.493,0,0,0,2.379-.219c.062.236.117.482.167.729.135.028.267.059.4.092-.06-.309-.125-.611-.2-.9a6.613,6.613,0,0,0,1.973-.776,6.186,6.186,0,0,1,.949,6.7,4.4,4.4,0,0,1,.485-.119,6.611,6.611,0,1,0-3.655,3.64A4.29,4.29,0,0,1,9.824,12.9ZM11.67,2.871a6.335,6.335,0,0,1-1.817.691,7.723,7.723,0,0,0-1.1-2.354A6.214,6.214,0,0,1,11.67,2.871ZM7.25,1.021a6.206,6.206,0,0,1,.933.071l-.006,0a6.469,6.469,0,0,1,1.314,2.54,12.86,12.86,0,0,1-4.678-.015,6.444,6.444,0,0,1,1.3-2.479L6.1,1.13A6.181,6.181,0,0,1,7.25,1.021Zm-1.721.244A7.642,7.642,0,0,0,4.447,3.542a4.991,4.991,0,0,1-1.63-.66A6.226,6.226,0,0,1,5.529,1.265ZM2.717,11.5a4.721,4.721,0,0,1,1.531-.648,6.016,6.016,0,0,0,1.158,2.337A6.23,6.23,0,0,1,2.717,11.5ZM7.25,13.469a6.223,6.223,0,0,1-1.24-.123l.034-.04a5.081,5.081,0,0,1-1.433-2.539,12.727,12.727,0,0,1,5.044.005,5.223,5.223,0,0,1-1.45,2.605l.017.016A6.094,6.094,0,0,1,7.25,13.469Z" fill="#42e8ca"/>
    </g>
  </g>
  <metadata>
   <rdf:RDF xmlns:rdf="http://www.w3.org/1999/02/22-rdf-syntax-ns#">
      <rdf:li>public:true</rdf:li>
      <rdf:li>sdk:false</rdf:li>
      <rdf:li>category:Networking</rdf:li>
   </rdf:RDF>
</metadata>
</svg>
