<svg id="uuid-6fa49475-2878-45e5-a97d-85a0008c3114" xmlns="http://www.w3.org/2000/svg" width="18" height="18" viewBox="0 0 18 18">
  <defs>
    <linearGradient id="uuid-127ed105-f6b9-40fc-8384-b7fdbbb50483" x1="5" y1="783.27" x2="5" y2="767.516" gradientTransform="translate(4 785.516) scale(1 -1)" gradientUnits="userSpaceOnUse">
      <stop offset="0" stop-color="#32bedd"/>
      <stop offset="1" stop-color="#198ab3"/>
    </linearGradient>
    <linearGradient id="uuid-ff4a2331-88a5-4488-bf6f-5c1828251d60" x1="4.997" y1="785.516" x2="4.997" y2="781.761" gradientTransform="translate(4 785.516) scale(1 -1)" gradientUnits="userSpaceOnUse">
      <stop offset="0" stop-color="#32bedd"/>
      <stop offset="1" stop-color="#198ab3"/>
    </linearGradient>
    <linearGradient id="uuid-fc7cc739-4ee1-4c22-9a1a-ef0f2ba09ffe" x1="9.148" y1="12.233" x2="9.148" y2="8.012" gradientTransform="matrix(1, 0, 0, 1, 0, 0)" gradientUnits="userSpaceOnUse">
      <stop offset="0" stop-color="#198ab3"/>
      <stop offset="1" stop-color="#32bedd"/>
    </linearGradient>
  </defs>
  <g id="uuid-636b1a26-ed24-4823-af2d-d96fcad52353">
    <rect x="1.65" y="2.246" width="14.7" height="15.754" rx=".6" ry=".6" fill="url(#uuid-127ed105-f6b9-40fc-8384-b7fdbbb50483)"/>
    <rect x="2.547" y="3.207" width="12.906" height="13.831" rx=".6" ry=".6" fill="#e6e6e6"/>
    <path d="M10.145,1.155c0-.638-.517-1.155-1.155-1.155s-1.155,.517-1.155,1.155h-2.241c-.276,0-.5,.224-.5,.5V3.755h7.806V1.655c0-.276-.224-.5-.5-.5h-2.255Zm-1.314-.555c.307-.087,.627,.091,.714,.398,.015,.051,.022,.105,.022,.158h-.014c0,.317-.258,.574-.575,.573-.074,0-.148-.015-.217-.043-.27-.117-.41-.418-.324-.7,.056-.188,.205-.334,.394-.386Z" fill="url(#uuid-ff4a2331-88a5-4488-bf6f-5c1828251d60)"/>
    <g>
      <path d="M9.425,9.751c-.037,0-.075-.01-.109-.03-.104-.06-.14-.193-.079-.297l1.962-3.388c.06-.104,.193-.14,.297-.079,.104,.06,.14,.193,.079,.297l-1.962,3.388c-.04,.07-.113,.109-.188,.109Z" fill="#83b9f9"/>
      <path d="M8.896,10.267c-.056,0-.112-.021-.154-.064l-2.374-2.387c-.084-.085-.084-.223,0-.308,.085-.084,.223-.085,.308,0l2.374,2.387c.084,.085,.084,.223,0,.308-.042,.042-.098,.063-.153,.063Z" fill="#83b9f9"/>
      <path d="M13.047,10.766c-.01,0-.021,0-.031-.002l-3.391-.483c-.119-.017-.202-.127-.185-.246,.017-.119,.132-.2,.246-.185l3.391,.483c.119,.017,.202,.127,.185,.246-.016,.108-.108,.187-.215,.187Z" fill="#83b9f9"/>
      <path d="M10.017,14.349c-.101,0-.191-.07-.213-.173l-.592-2.81c-.025-.118,.05-.233,.168-.258,.117-.025,.233,.05,.258,.168l.592,2.81c.025,.118-.05,.233-.168,.258-.015,.003-.03,.005-.045,.005Z" fill="#83b9f9"/>
      <path d="M5.104,11.658c-.091,0-.175-.058-.206-.148-.039-.114,.023-.237,.137-.275l3.26-1.1c.113-.04,.237,.022,.275,.137,.039,.114-.023,.237-.137,.275l-3.26,1.1c-.023,.008-.046,.012-.069,.012Z" fill="#83b9f9"/>
      <path d="M13.712,10.532c0,.368-.298,.667-.666,.667s-.666-.299-.666-.667,.298-.667,.666-.667h.002c.367,0,.665,.299,.665,.667Z" fill="#773adc"/>
      <path d="M10.683,14.097c0,.368-.298,.667-.666,.667s-.666-.299-.666-.667,.298-.667,.666-.667h.002c.367,0,.665,.299,.665,.667Z" fill="#773adc"/>
      <g>
        <circle cx="9.148" cy="10.123" r="2.11" fill="url(#uuid-fc7cc739-4ee1-4c22-9a1a-ef0f2ba09ffe)"/>
        <g>
          <path d="M8.932,10.83l-.194,.194c-.033,.033-.086,.033-.119,0h0l-.77-.77c-.033-.033-.033-.087,0-.12h0l.134-.134c.033-.033,.086-.033,.119,0h0l.829,.83h0Z" fill="#fff"/>
          <path d="M8.622,11.026l-.194-.194h0l1.77-1.772c.033-.033,.086-.033,.119,0h0l.134,.134c.033,.033,.033,.087,0,.12h0l-1.711,1.712c-.033,.033-.086,.033-.119,0h0Z" fill="#f0f0f0"/>
        </g>
      </g>
      <path d="M7.23,7.663c0,.368-.298,.667-.666,.667s-.666-.299-.666-.667,.298-.667,.666-.667h.002c.367,0,.665,.299,.665,.667Z" fill="#773adc"/>
      <path d="M12.065,6.156c0,.368-.298,.667-.666,.667s-.666-.299-.666-.667,.298-.667,.666-.667h.002c.367,0,.665,.299,.665,.667Z" fill="#773adc"/>
      <path d="M5.77,11.462c0,.368-.298,.667-.666,.667s-.666-.299-.666-.667,.298-.667,.666-.667h.002c.367,0,.665,.299,.665,.667Z" fill="#773adc"/>
    </g>
  </g>
</svg>