<svg xmlns="http://www.w3.org/2000/svg" width="18" height="18" viewBox="0 0 18 18">
  <defs>
    <linearGradient id="b93d6f7e-e6d5-45c0-aa90-99b0d302ec87" x1="9" y1="13.271" x2="9" y2="0.124" gradientUnits="userSpaceOnUse">
      <stop offset="0" stop-color="#949494"/>
      <stop offset="0.532" stop-color="#a2a2a2"/>
      <stop offset="1" stop-color="#b3b3b3"/>
    </linearGradient>
    <linearGradient id="b5f161ab-730c-490b-b267-a099bc4fefc7" x1="9.017" y1="17.876" x2="9.017" y2="4.729" gradientUnits="userSpaceOnUse">
      <stop offset="0" stop-color="#949494"/>
      <stop offset="0.532" stop-color="#a2a2a2"/>
      <stop offset="1" stop-color="#b3b3b3"/>
    </linearGradient>
  </defs>
  <g id="f9ed76d6-fe67-488f-bd2e-aa739b772c94">
    <path d="M4.148,13.271H.493A.471.471,0,0,1,0,12.826V.57A.472.472,0,0,1,.493.124h7.55A.471.471,0,0,1,8.535.57V4.127H5.242A1.073,1.073,0,0,0,4.148,5.174ZM17.507.124H9.957A.471.471,0,0,0,9.465.57V4.127h3.327a1.073,1.073,0,0,1,1.094,1.047v8.1h3.621A.471.471,0,0,0,18,12.826V.57A.472.472,0,0,0,17.507.124Z" fill="url(#b93d6f7e-e6d5-45c0-aa90-99b0d302ec87)"/>
    <path d="M13.285,17.43a.472.472,0,0,1-.493.446H5.242a.472.472,0,0,1-.493-.446V5.174a.471.471,0,0,1,.493-.445h7.55a.471.471,0,0,1,.493.445Z" fill="url(#b5f161ab-730c-490b-b267-a099bc4fefc7)"/>
    <path d="M4.148,6.767H2.182a.978.978,0,0,1-.927-1.022.978.978,0,0,1,.927-1.022H4.255a.983.983,0,0,0-.107.451ZM2.182,3.73H6.43a.978.978,0,0,0,.928-1.022A.979.979,0,0,0,6.43,1.686H2.182a.978.978,0,0,0-.927,1.022A.978.978,0,0,0,2.182,3.73Zm9.465,0H15.9a.977.977,0,0,0,.927-1.022A.978.978,0,0,0,15.9,1.686H11.647a.978.978,0,0,0-.928,1.022A.978.978,0,0,0,11.647,3.73Zm4.248.993-2.119-.006a1.01,1.01,0,0,1,.11.457V6.767H15.9a.978.978,0,0,0,.927-1.022A.978.978,0,0,0,15.9,4.723Zm-3.788,5.626a.978.978,0,0,0-.927-1.022H6.932A.978.978,0,0,0,6,10.349H6a.978.978,0,0,0,.928,1.022H11.18a.978.978,0,0,0,.927-1.022Zm0-3.037a.979.979,0,0,1-.927,1.023H6.932A.979.979,0,0,1,6,7.312H6A.978.978,0,0,1,6.932,6.29H11.18a.978.978,0,0,1,.927,1.022Z" fill="#003067"/>
    <path d="M12.722,2.708a.687.687,0,1,1-.687-.686A.687.687,0,0,1,12.722,2.708Zm-9.465,0a.686.686,0,1,1-.686-.686A.686.686,0,0,1,3.257,2.708ZM2.571,5.059a.686.686,0,1,0,.686.686A.686.686,0,0,0,2.571,5.059ZM8.006,7.312a.686.686,0,1,1-.686-.686A.686.686,0,0,1,8.006,7.312ZM7.32,9.663a.686.686,0,1,0,.686.686A.686.686,0,0,0,7.32,9.663Z" fill="#50e6ff"/>
  </g>
  <metadata>
   <rdf:RDF xmlns:rdf="http://www.w3.org/1999/02/22-rdf-syntax-ns#">
      <rdf:li>public:true</rdf:li>
      <rdf:li>sdk:false</rdf:li>
      <rdf:li>category:Other</rdf:li>
   </rdf:RDF>
</metadata>
</svg>
