<svg xmlns="http://www.w3.org/2000/svg" width="18" height="18" viewBox="0 0 18 18">
  <defs>
    <linearGradient id="fd3b4d97-7725-474c-806c-166b3500b959" x1="-6849.943" y1="9929.671" x2="-6849.943" y2="9899.826" gradientTransform="matrix(0.5, 0, 0, -0.5, 3433.843, 4965.218)" gradientUnits="userSpaceOnUse">
      <stop offset="0" stop-color="#5ea0ef"/>
      <stop offset="1" stop-color="#0078d4"/>
    </linearGradient>
    <linearGradient id="a3b595e4-0d6a-4722-b3f4-401e0f0b886f" x1="11.647" y1="17.92" x2="11.647" y2="5.303" gradientUnits="userSpaceOnUse">
      <stop offset="0" stop-color="#32bedd"/>
      <stop offset="1" stop-color="#32d4f5"/>
    </linearGradient>
  </defs>
  <title>Icon-451-SMode-Policy</title>
  <g id="bba142b5-41d0-4bb4-b35c-111f9a5628b9">
    <g>
      <path d="M1.2,4.557H5.678V.08H1.823A.621.621,0,0,0,1.2.7ZM1.823,15H5.678V10.526H1.2v3.855A.621.621,0,0,0,1.823,15ZM1.2,9.78H5.678V5.3H1.2Zm10.446,0h4.477V5.3H11.647Zm0-9.7V4.557h4.477V.7A.621.621,0,0,0,15.5.08ZM6.424,4.557H10.9V.08H6.424Z" fill="url(#fd3b4d97-7725-474c-806c-166b3500b959)"/>
      <g>
        <path d="M12.364,5.4H6.994a.424.424,0,0,0-.424.425V17.4a.424.424,0,0,0,.424.425H16.3a.424.424,0,0,0,.424-.425V9.738a.424.424,0,0,0-.424-.425H13.211a.423.423,0,0,1-.423-.424V5.822A.424.424,0,0,0,12.364,5.4Z" fill="#fff"/>
        <path d="M12.168,5.939V8.848a1.068,1.068,0,0,0,1.066,1.067h2.93v7.369H7.131V5.939h5.037m.205-.636H6.925a.431.431,0,0,0-.43.431V17.489a.431.431,0,0,0,.43.431h9.444a.431.431,0,0,0,.43-.431V9.709a.431.431,0,0,0-.43-.431H13.234a.43.43,0,0,1-.431-.43V5.734a.43.43,0,0,0-.43-.431Z" fill="url(#a3b595e4-0d6a-4722-b3f4-401e0f0b886f)"/>
        <path d="M16.635,9.365,12.655,5.4V8.63a.731.731,0,0,0,.726.735Z" fill="#32bedd"/>
        <path d="M11.955,12.841a2.874,2.874,0,0,1-.719-.433.609.609,0,0,1-.175-.45.5.5,0,0,1,.217-.425.985.985,0,0,1,.592-.158,2.285,2.285,0,0,1,1.33.4v-1.2a3.814,3.814,0,0,0-1.4-.222,2.346,2.346,0,0,0-1.53.47,1.525,1.525,0,0,0-.577,1.247,1.9,1.9,0,0,0,1.322,1.692,3.924,3.924,0,0,1,.86.5.6.6,0,0,1,.212.456.5.5,0,0,1-.22.427,1.036,1.036,0,0,1-.623.161,2.307,2.307,0,0,1-1.527-.588V16a3.134,3.134,0,0,0,1.495.323,2.676,2.676,0,0,0,1.648-.452,1.5,1.5,0,0,0,.6-1.273,1.444,1.444,0,0,0-.343-.983A3.548,3.548,0,0,0,11.955,12.841Z" fill="#32bedd"/>
      </g>
    </g>
  </g>
</svg>
