<svg xmlns="http://www.w3.org/2000/svg" width="18" height="18" viewBox="0 0 18 18">
  <g id="uuid-834dfc22-8042-4ac6-b63b-774443eb5fe2"/>
  <g id="uuid-02a52866-cc10-4133-a7e0-a9fd3fbf214f">
    <g>
      <path d="M13.858,8.718c-.436-.177-.923-.177-1.359,0l-3.615,1.466c-.318,.129-.527,.438-.527,.782v4.654c0,.344,.208,.653,.527,.782l3.615,1.466c.436,.177,.923,.177,1.359,0l3.615-1.466c.318-.129,.527-.438,.527-.782v-4.654c0-.344-.208-.653-.527-.782l-3.615-1.466Zm-3.549,2.638c.071-.187,.28-.281,.466-.21l2.403,.912,2.403-.912c.187-.071,.396,.023,.466,.21,.071,.187-.023,.396-.21,.466l-2.298,.872v2.647c0,.2-.162,.362-.362,.362s-.362-.162-.362-.362v-2.647l-2.298-.872c-.187-.071-.281-.28-.21-.466Z"/>
      <g>
        <path d="M5.625,6.187c1.709,0,3.094-1.385,3.094-3.094S7.334,0,5.625,0,2.531,1.385,2.531,3.094s1.385,3.094,3.094,3.094Zm0-5.062c1.087,0,1.969,.881,1.969,1.969s-.881,1.969-1.969,1.969-1.969-.881-1.969-1.969,.881-1.969,1.969-1.969Z"/>
        <path d="M7.227,12.716c-.483,.132-1.008,.221-1.602,.221-2.889,0-4.5-1.758-4.5-3.375v-.562c0-.311,.252-.562,.562-.562h7.875c.126,0,.236,.049,.33,.119l1.099-.445c-.298-.478-.824-.798-1.429-.798H1.687c-.932,0-1.687,.756-1.687,1.687v.562c0,2.218,2.092,4.5,5.625,4.5,.579,0,1.103-.08,1.602-.192v-1.154Z"/>
      </g>
    </g>
  </g>
</svg>