<svg xmlns="http://www.w3.org/2000/svg" viewBox="0 0 18 18">
  <defs>
    <linearGradient id="af088e05-c21b-497f-8f29-05d100a06c42" x1="9.058" y1="16.915" x2="9.058" y2="3.978" gradientTransform="matrix(1, 0, 0, -1, 0, 20)" gradientUnits="userSpaceOnUse">
      <stop offset="0" stop-color="#5ea0ef" />
      <stop offset="1" stop-color="#0078d4" />
    </linearGradient>
    <linearGradient id="f74073bb-790a-4545-9b03-3fb96cd6f2e5" x1="12.794" y1="13.661" x2="12.794" y2="6.152" gradientTransform="matrix(1, 0, 0, -1, 0, 20)" gradientUnits="userSpaceOnUse">
      <stop offset="0" stop-color="#005ba1" />
      <stop offset="1" stop-color="#003067" />
    </linearGradient>
  </defs>
  <path d="M17.443,4.16H2.448A1.11,1.11,0,0,0,1.342,3.085H.409a.311.311,0,0,0,0,.621h.933a.493.493,0,0,1,.493.493V15.711a.311.311,0,0,0,.621,0v-.593H17.443A.552.552,0,0,0,18,14.571V4.712a.552.552,0,0,0-.552-.552Z" fill="url(#af088e05-c21b-497f-8f29-05d100a06c42)" />
  <circle cx="12.788" cy="9.654" r="3.441" fill="#fff" opacity="0.7" />
  <path d="M15.344,8.041l-.163-.248a3.017,3.017,0,0,0-2.318-1.169H12.79A3.034,3.034,0,0,0,9.981,8.529s-.11.353-.121.391a2.74,2.74,0,0,0-.064.371,2.468,2.468,0,0,0-.027.27c0,.031.01.288.02.385s.01.166.024.248a3.122,3.122,0,0,0,.136.483c.014.039.021.08.036.119a3.1,3.1,0,0,0,.313.578h0l.008.009a3.027,3.027,0,0,0,5.513-1.73A2.991,2.991,0,0,0,15.344,8.041ZM12.1,9.653a.685.685,0,1,1,.685.684h0A.684.684,0,0,1,12.1,9.653Zm3.214.86a2.756,2.756,0,0,0-1.5-.853V9.653a1.013,1.013,0,0,0-.268-.678,2.377,2.377,0,0,1,1.413-.883,2.594,2.594,0,0,1,.354,2.421Zm-2.76-3.522A2.776,2.776,0,0,0,12.393,8.7a1.018,1.018,0,0,0-.59.727,2.383,2.383,0,0,1-1.546-.62,2.67,2.67,0,0,1,2.3-1.817ZM10.766,11.4a2.781,2.781,0,0,0,1.494-.883,1,1,0,0,0,.528.167,1.019,1.019,0,0,0,.3-.06,2.352,2.352,0,0,1,.236,1.656,2.742,2.742,0,0,1-.534.055,2.673,2.673,0,0,1-2.022-.933Z" fill="url(#f74073bb-790a-4545-9b03-3fb96cd6f2e5)" />
  <circle cx="3.454" cy="5.715" r="0.528" fill="#fff" opacity="0.6" />
  <circle cx="16.399" cy="5.715" r="0.528" fill="#fff" opacity="0.6" />
  <circle cx="3.454" cy="13.508" r="0.528" fill="#fff" opacity="0.6" />
  <circle cx="16.399" cy="13.508" r="0.528" fill="#fff" opacity="0.6" />
  <rect x="6.083" y="6.975" width="0.675" height="5.358" rx="0.213" fill="#fff" opacity="0.7" />
  <rect x="7.584" y="6.975" width="0.678" height="5.358" rx="0.213" fill="#fff" opacity="0.7" />
  <rect x="4.578" y="6.975" width="0.672" height="5.358" rx="0.212" fill="#fff" opacity="0.7" />
</svg>