<svg xmlns="http://www.w3.org/2000/svg" width="18" height="18" viewBox="0 0 18 18">
  <defs>
    <linearGradient id="ec553bc0-a498-498e-bcac-918f6e278ee0" x1="13.009" y1="17.508" x2="13.009" y2="8.086" gradientUnits="userSpaceOnUse">
      <stop offset="0" stop-color="#936bff"/>
      <stop offset="1" stop-color="#8255ff"/>
    </linearGradient>
    <linearGradient id="a37d74bc-10b2-4b7d-a109-bf5ff67a9b3d" x1="6.648" y1="0.043" x2="6.648" y2="13.338" gradientUnits="userSpaceOnUse">
      <stop offset="0" stop-color="#a39ee7"/>
      <stop offset="1" stop-color="#8974bd"/>
    </linearGradient>
  </defs>
  <path d="M10.648,8.535q-.1,0-.207.009C8.127,8.725,8,11.016,8.033,11.9c0,.626.188,2.63,4.979,6.062,4.792-3.432,4.956-5.436,4.974-6.062.029-.879-.088-3.17-2.431-3.351-.063-.005-.125-.007-.187-.007a2.5,2.5,0,0,0-2.356,1.676A2.507,2.507,0,0,0,10.648,8.535Z" fill="url(#ec553bc0-a498-498e-bcac-918f6e278ee0)"/>
  <path d="M18,11.449H15.639a.1.1,0,0,0-.076.042l-.714,1.233a.1.1,0,0,1-.131.029.1.1,0,0,1-.029-.029l-1.021-1.942a.182.182,0,0,0-.244-.086.18.18,0,0,0-.086.086l-.98,2.922a.094.094,0,0,1-.125.045.088.088,0,0,1-.046-.045l-.838-1.942a.184.184,0,0,0-.247-.078.2.2,0,0,0-.078.078l-1.145,2.06a.1.1,0,0,1-.076.047H8.717a7.761,7.761,0,0,0,.531.72h.991a.078.078,0,0,0,.077-.047l.714-1.316a.1.1,0,0,1,.129-.037.086.086,0,0,1,.036.037l.98,2.278a.183.183,0,0,0,.236.106.179.179,0,0,0,.106-.106l1.033-3.069a.089.089,0,0,1,.115-.051.087.087,0,0,1,.05.051l.862,1.635a.177.177,0,0,0,.239.073.18.18,0,0,0,.074-.073l1.1-1.848a.094.094,0,0,1,.076-.047H17.97" fill="#fff"/>
  <path d="M9.307,8.061V4.7H13.3V8.559a.289.289,0,0,1-.164.14.535.535,0,0,1-.26-.014,3.242,3.242,0,0,0-2.224-.9h0c-.088,0-.178,0-.268.011A3.506,3.506,0,0,0,9.307,8.061ZM8.642.043H4.654V4.031H8.642ZM13.3.6a.556.556,0,0,0-.557-.556H9.307V4.031H13.3ZM8.642,8.431V4.7H4.654V8.685h3.7A2.935,2.935,0,0,1,8.642,8.431ZM0,.6V4.031H3.989V.043H.557A.556.556,0,0,0,0,.6Zm7.285,11.32A4.77,4.77,0,0,1,7.842,9.35H4.654v3.988H7.6A3.716,3.716,0,0,1,7.285,11.919ZM0,8.685H3.989V4.7H0Zm0,4.1a.556.556,0,0,0,.557.556H3.989V9.35H0Z" fill="url(#a37d74bc-10b2-4b7d-a109-bf5ff67a9b3d)"/>
</svg>
