<svg xmlns="http://www.w3.org/2000/svg" viewBox="0 0 18 18">
  <defs>
    <linearGradient id="bf777b89-d2ab-48a1-b8e6-427a2cdde056" x1="10.218" y1="15.258" x2="10.218" y2="0.643" gradientUnits="userSpaceOnUse">
      <stop offset="0" stop-color="#ef7100" />
      <stop offset="1" stop-color="#faa21d" />
    </linearGradient>
    <linearGradient id="b6ba5c3e-4db7-40d5-9544-f246d3101ae1" x1="3.808" y1="17.357" x2="3.808" y2="9.871" gradientUnits="userSpaceOnUse">
      <stop offset="0" stop-color="#0078d4" />
      <stop offset="0.82" stop-color="#5ea0ef" />
    </linearGradient>
  </defs>
  <g id="bcc0f6b2-3a9c-40e8-9c80-4f538b19b9a4">
    <path d="M14.178.655a3.867,3.867,0,0,0-3.967,2.6A3.886,3.886,0,0,0,6.217.682c-3.586.293-3.764,3.843-3.7,5.2.03.971.231,4.03,7.656,9.326l.064.045.064-.046c7.426-5.344,7.607-8.459,7.631-9.467C17.977,4.419,17.765.925,14.178.655Z" fill="url(#bf777b89-d2ab-48a1-b8e6-427a2cdde056)" />
    <g>
      <path d="M17.741,3.732A5.79,5.79,0,0,1,17.2,6.891c-.9,1.768-2.724,3.119-5.313,4.045A1.219,1.219,0,0,0,11,10.494a1.244,1.244,0,1,0,1.16,1.348,12.409,12.409,0,0,0,4.772-3.07,5.57,5.57,0,0,0,.993-3.027A6.889,6.889,0,0,0,17.741,3.732Z" fill="#fff" opacity="0.8" />
      <path d="M7.047,11.115l.316.363a.481.481,0,0,0,.671.039l.718-.642a.48.48,0,0,0,.038-.67.472.472,0,0,0-.659-.106.581.581,0,0,0-.046.038l-.374.343c-2.353-2.6-3.031-4.592-1.94-5.548s2.977-.058,5.311,2.548l-.374.342a.473.473,0,0,0-.042.667l0,0a.462.462,0,0,0,.652.054l.019-.016.708-.632a.481.481,0,0,0,.039-.671l-.317-.355c-1.581-1.781-4.32-3.983-6.2-2.88a2.942,2.942,0,0,1-.8-1.865A2.093,2.093,0,0,1,5.1.906a3.219,3.219,0,0,0-1.237.733A3.211,3.211,0,0,0,4.879,4.626C3.6,6.372,5.466,9.334,7.047,11.115Z" fill="#fff" opacity="0.8" />
    </g>
    <circle cx="3.808" cy="13.614" r="3.743" fill="url(#b6ba5c3e-4db7-40d5-9544-f246d3101ae1)" />
    <circle id="e43497c6-11e7-45f3-8952-fdd1ef0ae4ff" cx="4.255" cy="13.465" r="0.749" fill="#fff" />
    <circle id="ac23521c-4aa9-4120-8378-5a45c1674ab6" cx="5.51" cy="15.695" r="0.59" fill="#fff" />
    <circle id="bf44a201-89ed-4c04-bef9-88a1122ea89c" cx="3.178" cy="15.291" r="0.506" fill="#fff" />
    <circle id="b2c5dbc6-4ad9-4212-b840-6dfedb2b6d98" cx="2.813" cy="11.437" r="0.628" fill="#fff" />
    <circle id="e15a5d56-e75e-45fc-a61c-6b125283b104" cx="1.131" cy="13.75" r="0.506" fill="#fff" />
    <polygon points="5.647 15.577 4.38 13.359 4.255 13.431 4.358 13.355 2.923 11.316 2.661 11.506 3.932 13.313 1.116 13.545 1.143 13.872 3.932 13.64 3.007 15.177 3.285 15.345 4.236 13.762 5.366 15.736 5.647 15.577" fill="#ffd400" />
    <path d="M4.255,12.723a.761.761,0,1,1-.761.761v-.019A.761.761,0,0,1,4.255,12.723ZM2.2,11.437a.632.632,0,1,0,.635-.628H2.817A.626.626,0,0,0,2.2,11.437ZM.625,13.747a.506.506,0,1,0,.506-.506.507.507,0,0,0-.506.506Zm2.047,1.541a.51.51,0,1,0,.514-.506h0a.505.505,0,0,0-.51.5Zm2.253.407a.59.59,0,1,0,.593-.586h0a.581.581,0,0,0-.589.574Z" fill="#fff" />
  </g>
</svg>