<svg id="uuid-6926865c-7c1f-403f-a728-27c487ce2022" xmlns="http://www.w3.org/2000/svg" width="18" height="18" viewBox="0 0 18 18">
  <defs>
    <linearGradient id="uuid-626f9204-24e0-4c59-a876-5c1f91cab4c1" x1="143.007" y1="-302.227" x2="143.007" y2="-312.815" gradientTransform="translate(-134 314.016)" gradientUnits="userSpaceOnUse">
      <stop offset=".001" stop-color="#773adc"/>
      <stop offset="1" stop-color="#a67af4"/>
    </linearGradient>
  </defs>
  <g>
    <path d="M17.972,13.854c-.169.735-1.087,1.46-2.747,2.024-4.153,1.221-8.569,1.227-12.725.018C.97,15.352.145,14.664.015,13.959-.007,13.835.015,11.895.015,11.895l17.985-.167s-.008,2.031-.028,2.126Z" fill="#5ea0ef"/>
    <ellipse cx="9" cy="11.789" rx="9" ry="3.112" transform="translate(-.118 .091) rotate(-.575)" fill="#50e6ff"/>
  </g>
  <g>
    <path d="M13.867,2.197h.893c.133,0,.24.107.24.24h0v2.471c0,.133-.107.24-.24.24h-.893v-2.951ZM13.867,6.495v4.617h.893c.133,0,.24-.107.24-.24h0v-4.137h0c0-.133-.107-.24-.24-.24h-.893Z" fill="#a3a3a3"/>
    <rect x="4.151" y="1.201" width="9.713" height="10.588" rx=".487" ry=".487" fill="url(#uuid-626f9204-24e0-4c59-a876-5c1f91cab4c1)"/>
    <path d="M4.137,8.789h-.897c-.122,0-.225-.09-.24-.211v-4.137c0-.133.107-.24.24-.24h.897v4.588Z" fill="#949494"/>
    <path d="M6.231,4.195l-.007,4.473h1.087v.494h-1.321c-.133-.004-.238-.114-.235-.248,0-.002,0-.003,0-.005V3.953c-.001-.067.025-.131.073-.177.039-.05.101-.076.164-.071h3.972v.489h-3.733ZM9.804,8.619v-2.175h.785c.127-.011.222-.12.217-.247v-1.823h-.467v1.589h-.789c-.127.006-.225.114-.221.241v2.703c-.003.062.021.123.067.165.043.053.108.085.177.086h1.455v-.538h-1.223Z" fill="#b796f9"/>
    <path d="M8.023,7.779v2.221c0,.103-.084.187-.187.187h-.507c-.103,0-.188-.083-.188-.187,0,0,0,0,0,0v-2.221c0-.104.084-.188.188-.188h.507c.103,0,.187.084.187.187,0,0,0,0,0,0ZM8.897,2.991v1.821c0,.103.084.187.187.187,0,0,0,0,0,0h2.886c.103,0,.187-.084.187-.187h0v-1.821c0-.103-.084-.187-.187-.187h-2.886c-.103,0-.188.083-.188.187,0,0,0,0,0,0Z" fill="#552f99"/>
    <circle cx="11.466" cy="8.889" r=".611" fill="#fff"/>
  </g>
</svg>