<svg xmlns="http://www.w3.org/2000/svg" width="16" height="16" viewBox="0 0 16 16">
  <g id="e5370d69-003e-4535-bf50-eeaee4932a23">
    <path d="M14.874,11.739a2.874,2.874,0,0,0-.055-.557l1.132-.465L15.5,9.63l-1.131.475a2.963,2.963,0,0,0-.356-.438,2.711,2.711,0,0,0-.429-.347l.474-1.132-1.086-.447L12.51,8.873a2.848,2.848,0,0,0-1.114,0l-.465-1.132-1.086.447.474,1.132a2.9,2.9,0,0,0-.438.356,2.768,2.768,0,0,0-.347.429L8.4,9.63l-.447,1.087,1.131.465a2.895,2.895,0,0,0,0,1.113l-1.131.466L8.4,13.847l1.131-.475a2.922,2.922,0,0,0,.356.439,2.706,2.706,0,0,0,.429.346l-.474,1.132,1.086.447.465-1.131a2.921,2.921,0,0,0,.566.054,2.828,2.828,0,0,0,.548-.054l.465,1.131,1.086-.447-.474-1.132a2.841,2.841,0,0,0,.438-.356,2.623,2.623,0,0,0,.347-.429l1.131.475.448-1.086L14.819,12.3A2.864,2.864,0,0,0,14.874,11.739Zm-1.306.675a1.853,1.853,0,0,1-.383.566,1.755,1.755,0,0,1-.557.374,1.7,1.7,0,0,1-.675.137,1.535,1.535,0,0,1-.675-.137,1.853,1.853,0,0,1-.566-.383,1.755,1.755,0,0,1-.374-.557,1.683,1.683,0,0,1-.137-.675,1.54,1.54,0,0,1,.137-.676,1.848,1.848,0,0,1,.383-.565,1.758,1.758,0,0,1,.557-.375,1.7,1.7,0,0,1,.675-.137,1.55,1.55,0,0,1,.675.137,1.856,1.856,0,0,1,.566.384,1.751,1.751,0,0,1,.374.556,1.685,1.685,0,0,1,.137.676A1.535,1.535,0,0,1,13.568,12.414Z"/>
    <path d="M15.862.264V5.212h-.99V1.957L8.934,7.9,5.965,4.926.745,10.138l-.7-.7L5.965,3.519,8.934,6.488l5.234-5.235H10.913V.264Z"/>
  </g>
</svg>
