<svg xmlns="http://www.w3.org/2000/svg" width="18" height="18" viewBox="0 0 18 18"><defs><linearGradient id="b3fd011f-7d19-4fb8-960b-80a58da59199" x1="-235.447" y1="990.789" x2="-230.869" y2="990.789" gradientTransform="matrix(1, 0, 0, -1, 244, 997.516)" gradientUnits="userSpaceOnUse"><stop offset="0.001" stop-color="#773adc" /><stop offset="1" stop-color="#552f99" /></linearGradient><linearGradient id="bd3424bb-567a-4d53-8517-73b97e11d0dd" x1="-237.806" y1="994.622" x2="-237.806" y2="986.841" gradientTransform="matrix(1, 0, 0, -1, 244, 997.516)" gradientUnits="userSpaceOnUse"><stop offset="0" stop-color="#a67af4" /><stop offset="0.999" stop-color="#773adc" /></linearGradient></defs><g id="ed5c4c14-08f2-4c75-abd1-181a993be03d"><g><g><path d="M5.327,13.749a1.365,1.365,0,0,0,1.03-.469.609.609,0,0,1-.037-.124l-2.105.02A1.363,1.363,0,0,0,5.327,13.749Z" fill="#5ea0ef" /><path d="M8.7,13.31a6.6,6.6,0,0,0,1.571-.19l-2.995.027a6.261,6.261,0,0,0,1.4.163Z" fill="#5ea0ef" /><path d="M11.938,13.1a7.122,7.122,0,0,1-3.239.782H8.67a6.939,6.939,0,0,1-1.857-.255,1.941,1.941,0,0,1-3.255-.449l-3.042.029s-.022,1.831,0,1.948c.121.664.9,1.314,2.345,1.824a21.4,21.4,0,0,0,12.017-.017c1.568-.533,2.436-1.218,2.594-1.912.02-.084.028-2,.028-2Z" fill="#5ea0ef" /></g><path d="M14.88,8.962A6.569,6.569,0,0,1,8.7,13.31a6.353,6.353,0,0,1-1.812-.256,1.656,1.656,0,0,0,.14-.646c.008,0,.023.008.031.008a5.77,5.77,0,0,0,1.641.233A5.946,5.946,0,0,0,14.025,9.32l.008-.008Z" fill="#32bedd" /><path d="M4.5,10.9a1.567,1.567,0,0,0-.5.436,6.692,6.692,0,0,1-1.3-1.9l.809.179v.2a.468.468,0,0,0,.366.459l.109.023a4.744,4.744,0,0,0,.482.568Z" fill="#32bedd" /><path d="M11.318.7a1.783,1.783,0,0,0-.21.63c-.016-.007-.039-.015-.055-.023A5.81,5.81,0,0,0,8.7.818,5.945,5.945,0,0,0,4.107,3l-.225.047a.467.467,0,0,0-.374.451v.358L2.715,4A6.574,6.574,0,0,1,8.7.165,6.694,6.694,0,0,1,11.318.7Z" fill="#32bedd" /><path d="M14.834,4.39l-.848-.3a5.181,5.181,0,0,0-.56-.9c-.016-.023-.031-.039-.039-.054a1.634,1.634,0,0,0,.56-.35A6.066,6.066,0,0,1,14.834,4.39Z" fill="#32bedd" /><path d="M9.544,9.219l1.976.435-3.065,1.27c-.015,0-.023.008-.039.008a.12.12,0,0,1-.116-.117V2.638a.118.118,0,0,1,.116-.116.065.065,0,0,1,.039.007l3.47,1.214-2.373.443a.44.44,0,0,0-.342.42v4.2A.418.418,0,0,0,9.544,9.219Z" fill="#fff" /><g><g id="bb6a4f55-0d76-47e0-83a5-5314820e23d3"><path d="M2.565,4.365l.942-.179v5.1l-.957-.21L1.78,8.9a.086.086,0,0,1-.07-.093v-4.2a.093.093,0,0,1,.07-.093Z" fill="#a67af4" /></g><g><g id="f9436214-3fa6-46bf-8e61-190b838ce3d3"><g><path d="M9.544,9.219l1.976.435-3.065,1.27c-.015,0-.023.008-.039.008a.12.12,0,0,1-.116-.117V2.638a.118.118,0,0,1,.116-.116.065.065,0,0,1,.039.007l3.47,1.214-2.373.443a.44.44,0,0,0-.342.42v4.2A.418.418,0,0,0,9.544,9.219Z" fill="url(#b3fd011f-7d19-4fb8-960b-80a58da59199)" /><path d="M8.388,2.523l-4.44.839A.136.136,0,0,0,3.84,3.5V9.819a.137.137,0,0,0,.106.136l4.439.969a.136.136,0,0,0,.16-.108.124.124,0,0,0,0-.027V2.662a.136.136,0,0,0-.134-.139H8.388Z" fill="url(#bd3424bb-567a-4d53-8517-73b97e11d0dd)" /></g></g><polygon points="6.336 3.784 6.336 9.666 7.881 9.924 7.881 3.506 6.336 3.784" fill="#b796f9" opacity="0.5" /><polygon points="4.439 4.101 4.439 9.255 5.784 9.537 5.784 3.87 4.439 4.101" fill="#b796f9" opacity="0.5" /></g></g><path d="M14.155,1.549a1.366,1.366,0,1,1,0-.006Z" fill="#32bedd" /><path d="M14.514,10.887a7.165,7.165,0,0,1-5.815,3H8.67a6.939,6.939,0,0,1-1.857-.255,1.941,1.941,0,0,1-3.292-1.965c-.165-.173-.319-.355-.466-.542C1.472,11.674.492,12.43.5,13.256c.016,1.623,3.835,2.9,8.529,2.854s8.487-1.4,8.471-3.024C17.491,12.194,16.333,11.407,14.514,10.887Z" fill="#50e6ff" /><circle cx="5.327" cy="12.381" r="1.368" fill="#32bedd" /><path d="M15.711,5.159v2.99a.172.172,0,0,1-.1.156l-.6.246-2.388.986h-.038a.078.078,0,0,1-.078-.078h0V4.027a.077.077,0,0,1,.042-.068h.015a.017.017,0,0,1,.014,0,.042.042,0,0,1,.027.006h.018l2.348.814L15.594,5A.166.166,0,0,1,15.711,5.159Z" fill="#773adc" /><path d="M12.568,3.954l-2.956.557A.09.09,0,0,0,9.54,4.6V8.809a.091.091,0,0,0,.07.09l2.956.647a.091.091,0,0,0,.107-.069h0a.074.074,0,0,0,0-.021V4.045a.092.092,0,0,0-.09-.092Z" fill="#a67af4" /></g></g></svg>