<svg id="uuid-9af81a69-2e89-4726-9e1b-0a111ad14d40" xmlns="http://www.w3.org/2000/svg" width="18" height="18" viewBox="0 0 18 18">
  <defs>
    <linearGradient id="uuid-4adeadfe-a47f-464e-a18c-35dece34eaa9" x1="5.725" y1="8.36" x2="5.725" y2=".459" gradientUnits="userSpaceOnUse">
      <stop offset="0" stop-color="#32bedd"/>
      <stop offset="1" stop-color="#50e6ff"/>
    </linearGradient>
    <linearGradient id="uuid-83ccc125-853f-4ff1-b89a-280f4d29a89f" x1="13.502" y1="14.573" x2="13.502" y2=".717" gradientUnits="userSpaceOnUse">
      <stop offset="0" stop-color="#979797"/>
      <stop offset="1" stop-color="#b3b2b3"/>
    </linearGradient>
    <linearGradient id="uuid-13704841-6165-4101-80c3-94305e9a1d81" x1="1.656" y1="12.606" x2="10.671" y2="12.606" gradientUnits="userSpaceOnUse">
      <stop offset="0" stop-color="#c74634"/>
      <stop offset=".5" stop-color="#db897d"/>
      <stop offset="1" stop-color="#c74634"/>
    </linearGradient>
  </defs>
  <g>
    <path d="m6.164,7.671c1.669,0,3.11.199,3.889.565.802-.42,1.362-1.239,1.397-2.203-.038-1.26-.983-2.306-2.233-2.472-.077-1.773-1.565-3.155-3.339-3.101-1.412-.026-2.686.843-3.178,2.167C1.192,2.81.045,4.067,0,5.584c.05,1.277.865,2.34,1.985,2.776.665-.436,2.282-.688,4.179-.688Z" fill="url(#uuid-4adeadfe-a47f-464e-a18c-35dece34eaa9)"/>
    <g>
      <path d="m17.481.717h-7.958c-.273-.013-.505.197-.519.47v7.127c.752.155,1.219.347,1.219.488,0,.019.448.067.448.067v5.703h6.81c.273.013.505-.197.519-.47V1.187c-.014-.273-.246-.483-.519-.47Z" fill="url(#uuid-83ccc125-853f-4ff1-b89a-280f4d29a89f)"/>
      <path d="m10.327,6.644c-.027-.567.411-1.049.978-1.078h4.477c.567.029,1.004.511.978,1.078h0c.026.567-.411,1.049-.978,1.078h-4.477c-.567-.029-1.004-.51-.978-1.078Z" fill="#003067"/>
      <path d="m10.327,3.44c-.027-.567.411-1.049.978-1.078h4.477c.567.029,1.004.511.978,1.078h0c.026.567-.411,1.049-.978,1.078h-4.477c-.567-.029-1.004-.51-.978-1.078Z" fill="#003067"/>
      <circle cx="11.585" cy="3.44" r=".723" fill="#50e6ff"/>
      <circle cx="11.585" cy="6.641" r=".723" fill="#50e6ff"/>
      <path d="m14.99,12.802l-.992-1.492.984-1.479c.125-.188.074-.442-.114-.567-.188-.126-.442-.074-.567.114l-.793,1.193-.793-1.193c-.125-.188-.379-.24-.567-.114-.188.125-.239.379-.114.567l.984,1.479-.992,1.492c-.125.188-.074.442.114.567.069.046.148.068.226.068.132,0,.263-.064.341-.183l.802-1.206.802,1.206c.079.119.209.183.341.183.078,0,.157-.022.226-.068.188-.125.239-.379.114-.567Z" fill="#003067"/>
    </g>
    <path d="m6.164,15.266c-2.49,0-4.508-.437-4.508-.977v2.275c0,.54,2.018.977,4.508.977s4.508-.437,4.508-.977v-2.275c0,.54-2.018.977-4.508.977Zm3.793.464c-.341.118-.693.211-1.048.276-.423.078-.856.117-1.286.117h0c-.104,0-.188-.084-.188-.188,0-.104.084-.188.188-.188.408,0,.818-.038,1.218-.111.336-.062.67-.15.993-.261.098-.034.206.018.24.116.034.098-.018.205-.116.239Zm-3.793-3.39c-2.49,0-4.508-.437-4.508-.977v2.396c0,.54,2.018.977,4.508.977s4.508-.437,4.508-.977v-2.396c0,.54-2.018.977-4.508.977Zm3.793.543c-.341.118-.693.211-1.048.276-.423.078-.856.117-1.286.117h0c-.104,0-.188-.084-.188-.188,0-.104.084-.188.188-.188.408,0,.818-.038,1.218-.111.336-.062.67-.149.993-.261.098-.034.206.018.24.116s-.018.205-.116.239Zm-3.793-5.211c-2.49,0-4.508.433-4.508,1.148v2.013c0,.54,2.018.977,4.508.977s4.508-.437,4.508-.977v-1.939c0-.789-2.018-1.221-4.508-1.221Zm3.793,2.446c-.341.118-.694.211-1.048.276-.423.078-.856.117-1.286.117h0c-.104,0-.188-.084-.188-.188,0-.104.084-.188.188-.188.408,0,.818-.038,1.218-.111.336-.062.67-.149.993-.261.098-.034.206.018.24.116.034.098-.018.205-.116.239Zm-3.793-.665c-2.242,0-4.06-.409-4.06-.65,0-.297,1.818-.756,4.06-.756s4.06.477,4.06.756c0,.253-1.818.65-4.06.65Z" fill="url(#uuid-13704841-6165-4101-80c3-94305e9a1d81)"/>
  </g>
  <rect y="0" width="18" height="18" fill="none"/>
</svg>