<svg xmlns="http://www.w3.org/2000/svg" viewBox="0 0 18 18">
  <defs>
    <linearGradient id="b15d3eb0-c154-48f7-aef4-e95a95d72bff" x1="7.732" y1="5.297" x2="7.732" y2="14.434" gradientUnits="userSpaceOnUse">
      <stop offset="0" stop-color="#0078d4" />
      <stop offset="0.776" stop-color="#5ea0ef" />
    </linearGradient>
    <linearGradient id="f4870468-0a58-4d91-8875-1d3e47ed3748" x1="14.462" y1="15.379" x2="14.462" y2="11.082" gradientUnits="userSpaceOnUse">
      <stop offset="0" stop-color="#198ab3" />
      <stop offset="0.78" stop-color="#32d4f5" />
    </linearGradient>
    <linearGradient id="a0715e21-33bb-4fa3-a3e1-9d405fc2e643" x1="14.465" y1="11.558" x2="14.465" y2="7.587" gradientUnits="userSpaceOnUse">
      <stop offset="0" stop-color="#198ab3" />
      <stop offset="0.78" stop-color="#32d4f5" />
    </linearGradient>
  </defs>
  <g id="f229a003-b71d-42ab-a40d-c78916323647">
    <path d="M12.349,11.022a2.556,2.556,0,0,1,3.114-3.8V5.3H0v8.621a.516.516,0,0,0,.515.516h9.871A4.318,4.318,0,0,1,12.349,11.022Z" fill="url(#b15d3eb0-c154-48f7-aef4-e95a95d72bff)" />
    <path d="M.515,2H14.948a.516.516,0,0,1,.515.516h0V5.3H0V2.518A.516.516,0,0,1,.515,2Z" fill="#005ba1" />
    <path d="M4.066,6.721A.362.362,0,1,1,3.7,6.36h0a.361.361,0,0,1,.361.361Zm0,6.289a.362.362,0,1,1-.363-.361h0A.363.363,0,0,1,4.066,13.01ZM2.155,12v-1.02a1.958,1.958,0,0,0,1.26.465,1.463,1.463,0,0,0,.343-.034.79.79,0,0,0,.243-.1.431.431,0,0,0,.145-.146.372.372,0,0,0,.048-.184.394.394,0,0,0-.077-.239.818.818,0,0,0-.208-.194,2.182,2.182,0,0,0-.315-.172c-.121-.055-.251-.111-.391-.172a2,2,0,0,1-.8-.545,1.194,1.194,0,0,1-.263-.773,1.234,1.234,0,0,1,.143-.614,1.22,1.22,0,0,1,.391-.423,1.743,1.743,0,0,1,.572-.243,2.893,2.893,0,0,1,.688-.078,3.954,3.954,0,0,1,.633.043,2.482,2.482,0,0,1,.508.132v.951a1.435,1.435,0,0,0-.251-.14,1.964,1.964,0,0,0-.278-.1,2.168,2.168,0,0,0-.555-.078,1.373,1.373,0,0,0-.319.034.812.812,0,0,0-.242.094.471.471,0,0,0-.153.145.343.343,0,0,0-.054.189A.367.367,0,0,0,3.284,9a.7.7,0,0,0,.172.172,1.754,1.754,0,0,0,.271.16c.106.052.226.106.36.161a4.031,4.031,0,0,1,.493.244,1.757,1.757,0,0,1,.374.291,1.151,1.151,0,0,1,.239.372,1.491,1.491,0,0,1-.062,1.128,1.178,1.178,0,0,1-.394.421,1.706,1.706,0,0,1-.578.231,3.33,3.33,0,0,1-.7.07,3.914,3.914,0,0,1-.716-.063A2.165,2.165,0,0,1,2.155,12Z" fill="#fff" />
    <g opacity="0.4">
      <path d="M11.739,11.5H8.2a.466.466,0,0,0,0,.932h2.789A3.756,3.756,0,0,1,11.739,11.5Z" fill="#fff" />
    </g>
    <g opacity="0.6">
      <path d="M11.9,9.572c0-.059.013-.114.017-.172H8.2a.466.466,0,0,0,0,.932h3.817A2.572,2.572,0,0,1,11.9,9.572Z" fill="#fff" />
    </g>
    <g opacity="0.8">
      <path d="M13.3,7.305H8.2a.466.466,0,0,0,0,.931h4.089A2.557,2.557,0,0,1,13.3,7.305Z" fill="#fff" />
    </g>
    <path d="M17.366,15.379A.632.632,0,0,0,18,14.751a.314.314,0,0,0,0-.075c-.25-1.981-1.377-3.594-3.533-3.594s-3.32,1.368-3.537,3.6a.631.631,0,0,0,.561.693h5.877Z" fill="url(#f4870468-0a58-4d91-8875-1d3e47ed3748)" />
    <path d="M14.465,11.553a1.92,1.92,0,0,1-1.07-.316l1.061,2.778,1.056-2.759A1.957,1.957,0,0,1,14.465,11.553Z" fill="#fff" opacity="0.8" />
    <circle cx="14.465" cy="9.572" r="1.986" fill="url(#a0715e21-33bb-4fa3-a3e1-9d405fc2e643)" />
  </g>
</svg>