<svg id="uuid-a5dd186d-2a8d-4df3-abee-5b13f72b87a0" xmlns="http://www.w3.org/2000/svg" width="18" height="18" viewBox="0 0 18 18">
  <defs>
    <linearGradient id="uuid-a726030e-a460-4029-b458-81cb5b1f3d9d" x1="7.497" y1="11.293" x2="11.275" y2="1.278" gradientUnits="userSpaceOnUse">
      <stop offset="0" stop-color="#6df"/>
      <stop offset="1" stop-color="#0294e4"/>
    </linearGradient>
    <linearGradient id="uuid-27b3d6f0-03e2-4c49-9c85-b8bc06e65f0a" x1="15.383" y1="6.196" x2="10.568" y2="15.318" gradientUnits="userSpaceOnUse">
      <stop offset="0" stop-color="#773adc"/>
      <stop offset=".9" stop-color="#a67af4"/>
    </linearGradient>
    <linearGradient id="uuid-c1aef615-6ce2-4962-b97d-9fccdb210c91" x1="14.44" y1="776.319" x2="14.44" y2="789" gradientTransform="translate(0 791.516) scale(1 -1)" gradientUnits="userSpaceOnUse">
      <stop offset="0" stop-color="#041642"/>
      <stop offset="1" stop-color="#041642" stop-opacity=".25"/>
    </linearGradient>
  </defs>
  <g>
    <polygon points="7.437 9.948 7.478 9.973 10.886 12.104 10.887 12.104 10.887 12.104 10.887 6.057 10.886 6.056 7.437 9.948" fill="#fff" isolation="isolate" stroke-width="0"/>
    <path d="m11.792,3.078c-.236-.267-.571-.4-.905-.401h0c-.335,0-.669.133-.907.4h0l-5.928,6.687c-.458.517-.338,1.298.255,1.669,0,0,2.194,1.371,2.471,1.544.307.191.816.404,1.356.404.491,0,.947-.142,1.325-.385,0,0,0,0,.002,0l1.427-.892-3.449-2.156,3.45-3.892.086-.097c.435-.496,1.088-.811,1.82-.811.373,0,.724.085,1.038.23l-2.038-2.299Z" fill="url(#uuid-a726030e-a460-4029-b458-81cb5b1f3d9d)" stroke-width="0"/>
    <polygon points="14.336 9.948 14.336 9.948 14.336 9.948 10.887 6.057 10.887 12.103 14.336 9.948" fill="#f0ecec" isolation="isolate" stroke-width="0"/>
    <path d="m17.721,9.764l-3.89-4.388c-.314-.146-.666-.23-1.038-.23-.731,0-1.385.315-1.82.811l-.086.097,3.449,3.892-3.372,2.107-.079.049v.003s0-.002,0-.002l-1.427.892s-.002,0-.002,0c-.378.243-.834.385-1.325.385-.539,0-1.049-.213-1.356-.404l3.457,2.161c.198.123.425.185.651.185h0s0,0,0,0c.227,0,.453-.062.651-.185l1.367-.855h0s4.561-2.851,4.561-2.851h0c.594-.37.713-1.151.255-1.668Z" fill="url(#uuid-27b3d6f0-03e2-4c49-9c85-b8bc06e65f0a)" stroke-width="0"/>
    <path d="m10.887,15.31c.227,0,.453-.062.651-.185l5.921-3.702c.593-.37.712-1.15.255-1.667l-5.921-6.68c-.237-.267-.571-.4-.906-.4v12.633Z" fill="url(#uuid-c1aef615-6ce2-4962-b97d-9fccdb210c91)" fill-opacity=".5" isolation="isolate" opacity=".2" stroke-width="0"/>
  </g>
  <path d="m6.554,13.335c-.277-.173-2.471-1.544-2.471-1.544-.391-.244-.653-.64-.717-1.085-.064-.439.071-.884.37-1.221l4.981-5.619-.698-.787c-.236-.267-.571-.4-.905-.401h0c-.335,0-.669.133-.907.4h0L.279,9.764c-.458.517-.338,1.298.255,1.669,0,0,2.194,1.371,2.471,1.544l3.457,2.161c.198.123.425.185.651.185h0s0,0,0,0c.227,0,.453-.062.651-.185l.836-.523-2.047-1.28Z" fill="#32bedd" stroke-width="0"/>
</svg>