<svg xmlns="http://www.w3.org/2000/svg" width="18" height="18" viewBox="0 0 18 18">
  <defs>
    <linearGradient id="a7e2c7f3-2dc6-4e01-a8d6-4bee9d6b8df8" x1="-43.291" y1="737.518" x2="-43.291" y2="755.518" gradientTransform="matrix(1, 0, 0, -1, 54, 755.516)" gradientUnits="userSpaceOnUse">
      <stop offset="0" stop-color="#0078d4"/>
      <stop offset="1" stop-color="#5ea0ef"/>
    </linearGradient>
    <linearGradient id="fd7d920a-1a13-457e-8f49-b982fc61183a" x1="4.504" y1="7.38" x2="4.504" y2="12.79" gradientUnits="userSpaceOnUse">
      <stop offset="0" stop-color="#a67af4"/>
      <stop offset="1" stop-color="#773adc"/>
    </linearGradient>
  </defs>
  <g id="a13eda03-2da3-4a83-89d4-908aa069a5fe">
    <g>
      <g id="a8518b57-5c52-4493-9473-883a67f329ac">
        <g>
          <path d="M17.724,5.778h-4.58a1.071,1.071,0,0,1-1.07-1.07V.138A.67.67,0,0,0,11.7,0H4.044a.613.613,0,0,0-.62.6v8.09h2.15V7.328a.559.559,0,0,1,.56-.56.528.528,0,0,1,.4.17L9.2,9.6a.742.742,0,0,1,0,1.05l-2.67,2.67a.576.576,0,0,1-.4.16.552.552,0,0,1-.39-.16.583.583,0,0,1-.17-.41v-1.36H3.424v5.84a.606.606,0,0,0,.61.61h13.34a.612.612,0,0,0,.62-.6V6.288A.625.625,0,0,0,17.724,5.778Z" fill="url(#a7e2c7f3-2dc6-4e01-a8d6-4bee9d6b8df8)"/>
          <path d="M17.754,5.778h-4.61a1.071,1.071,0,0,1-1.07-1.07V.128Z" fill="#0078d4"/>
        </g>
      </g>
      <path d="M14.977,14.016H11a.394.394,0,0,0,0,.788h3.974a.394.394,0,0,0,0-.788Zm-5.13-.281v0l-.1-.094a.162.162,0,0,0-.229,0l-.917.917-.377-.377a.162.162,0,0,0-.229,0l-.1.094a.164.164,0,0,0,0,.23l.587.587a.161.161,0,0,0,.229,0l1.128-1.127A.161.161,0,0,0,9.847,13.735Zm5.13-2.717H11a.394.394,0,0,0,0,.787h3.974a.394.394,0,0,0,0-.787Zm0-3.112H11a.393.393,0,0,0-.393.392v0A.393.393,0,0,0,11,8.692h3.974A.393.393,0,0,0,15.37,8.3v0A.393.393,0,0,0,14.977,7.906Z" fill="#c3f1ff"/>
      <path d="M8.907,10.346l-2.67,2.669a.141.141,0,0,1-.2,0,.134.134,0,0,1-.042-.1V11.272a.143.143,0,0,0-.142-.143H.121a.112.112,0,0,1-.114-.11V9.229a.112.112,0,0,1,.107-.117H5.853A.143.143,0,0,0,6,8.97V7.328a.143.143,0,0,1,.142-.141.15.15,0,0,1,.1.043L8.907,9.9A.317.317,0,0,1,8.907,10.346Z" fill="url(#fd7d920a-1a13-457e-8f49-b982fc61183a)"/>
    </g>
  </g>
</svg>
