<svg xmlns="http://www.w3.org/2000/svg" viewBox="0 0 18 18">
  <defs>
    <linearGradient id="bb37f89f-980b-49de-8926-4bc2d460b2b9" x1="13.283" y1="7.893" x2="13.283" y2="17.328" gradientUnits="userSpaceOnUse">
      <stop offset="0" stop-color="#42e8ca" />
      <stop offset="1" stop-color="#3cd4c2" />
    </linearGradient>
  </defs>
  <g id="fdc06a74-868e-44e7-abb5-b2aa52d1c3cb">
    <g>
      <path d="M12.344,16.36c-1.982-.266-1.948-1.54-1.939-3.6H6.693c.009,2.065.043,3.339-1.939,3.6a1.011,1.011,0,0,0-.933.908h9.462A1.017,1.017,0,0,0,12.344,16.36Z" fill="#005ba1" />
      <rect y="0.732" width="17.063" height="12.083" rx="0.578" fill="#0078d4" />
      <rect x="0.983" y="1.667" width="15.073" height="10.025" rx="0.289" fill="#f2f2f2" />
    </g>
    <circle cx="13.283" cy="12.611" r="4.717" fill="url(#bb37f89f-980b-49de-8926-4bc2d460b2b9)" />
    <path d="M15.836,13.312l-2.355,2.355a.28.28,0,0,1-.4,0l-2.355-2.355a.125.125,0,0,1,.089-.214h1.448a.126.126,0,0,0,.125-.126V10.028a.1.1,0,0,1,.1-.1h1.583a.1.1,0,0,1,.1.1v2.944a.126.126,0,0,0,.125.126h1.449A.125.125,0,0,1,15.836,13.312Z" fill="#fff" />
  </g>
</svg>