<svg xmlns="http://www.w3.org/2000/svg" width="16" height="16" viewBox="0 0 16 16">
  <path d="M2,8.976V6.993h6.01V8.976Zm8.008,2.029H0V5H10.006V6.01H1.015V9.99h8.991ZM16,5v6.01H12.987V9.99h2V6.01h-2V5Zm-4,7.243a2.95,2.95,0,0,0,1.99.749H14V14h-.008a3.949,3.949,0,0,1-2.482-.859,4.111,4.111,0,0,1-1.178.64A4.054,4.054,0,0,1,9,14H8.991V12.987H9a2.99,2.99,0,0,0,1.99-.726V3.707a2.8,2.8,0,0,0-.905-.515A3.47,3.47,0,0,0,9,3.013H8.991V2H9a4.2,4.2,0,0,1,1.342.211,4.069,4.069,0,0,1,1.171.616A3.967,3.967,0,0,1,13.994,2H14V3.013h-.008A2.951,2.951,0,0,0,12,3.731Z"/>
</svg>