<svg xmlns="http://www.w3.org/2000/svg" width="18" height="18" viewBox="0 0 18 18"><defs><linearGradient id="a0858d50-2df3-4b2b-8846-16cff5b0643c" x1="5.875" y1="15.892" x2="5.875" y2="5.149" gradientUnits="userSpaceOnUse"><stop offset="0" stop-color="#0078d4" /><stop offset="1" stop-color="#5ea0ef" /></linearGradient><linearGradient id="fa6beaec-99c3-40fd-b772-f91ccdbd60db" x1="-237.334" y1="997.175" x2="-236.554" y2="987.42" gradientTransform="matrix(1, 0, 0, -1, 244, 997.516)" gradientUnits="userSpaceOnUse"><stop offset="0" stop-color="#5ea0ef" /><stop offset="1" stop-color="#0078d4" /></linearGradient><linearGradient id="a3ff9bdf-791d-4100-b24b-ef4b83876488" x1="-230.952" y1="980.17" x2="-230.952" y2="986.389" gradientTransform="matrix(1, 0, 0, -1, 244, 997.516)" gradientUnits="userSpaceOnUse"><stop offset="0" stop-color="#5e9624" /><stop offset="0.584" stop-color="#6bab29" /><stop offset="0.999" stop-color="#76bc2d" /></linearGradient><linearGradient id="fdf5e0a0-223c-402c-b1c9-511a7e2d69dc" x1="13.044" y1="15.271" x2="13.044" y2="11.127" gradientUnits="userSpaceOnUse"><stop offset="0.001" stop-color="#76bc2d" /><stop offset="1" stop-color="#86d633" /></linearGradient></defs><g id="f47448dd-81e9-4e5e-bde0-1fe696d2d3bf"><g><path d="M7.944,13.8a.537.537,0,0,1,0-.07v-2.3a.947.947,0,0,1,.946-.946h1.2V10A1.325,1.325,0,0,1,11.25,8.733,5.888,5.888,0,0,0,6.99,7.087C3.074,7.087.9,9.554.506,13.63A1.161,1.161,0,0,0,1.54,14.9h6.4Z" fill="url(#a0858d50-2df3-4b2b-8846-16cff5b0643c)" /><path d="M6.973,7.858a3.77,3.77,0,0,1-1.967-.55l1.967,4.924L8.9,7.367A3.664,3.664,0,0,1,6.973,7.858Z" fill="#fff" opacity="0.8" /><circle cx="6.981" cy="4.282" r="3.627" fill="url(#fa6beaec-99c3-40fd-b772-f91ccdbd60db)" /><g><path d="M15.41,11.38v-1.4a.644.644,0,0,0-.659-.616H11.4a.648.648,0,0,0-.666.625v1.4h.846V10.208h2.986V11.38Z" fill="#a3a3a3" /><rect x="8.595" y="11.127" width="8.905" height="6.219" rx="0.297" fill="url(#a3ff9bdf-791d-4100-b24b-ef4b83876488)" /><path d="M8.859,11.127h8.37a.266.266,0,0,1,.267.267v2.3L13.32,15.222a.806.806,0,0,1-.552,0L8.591,13.691v-2.3A.267.267,0,0,1,8.859,11.127Z" fill="url(#fdf5e0a0-223c-402c-b1c9-511a7e2d69dc)" /><rect x="11.933" y="14.521" width="2.229" height="1.419" rx="0.401" fill="#365615" /></g></g></g></svg>