<svg id="a2657144-e9cd-4224-b5c0-3c3059a93a9d" xmlns="http://www.w3.org/2000/svg" viewBox="0 0 18 18">
  <rect x="1.63" y="2.246" width="14.7" height="15.754" rx="0.6" fill="#6c55a5" />
  <rect x="2.527" y="3.207" width="12.906" height="13.831" rx="0.6" fill="#8065be" />
  <path d="M10.125,1.155a1.155,1.155,0,1,0-2.31,0H5.676a.6.6,0,0,0-.6.6v2h7.808v-2a.6.6,0,0,0-.6-.6ZM8.811.6a.578.578,0,0,1,.736.556H9.533a.573.573,0,0,1-.573.573.566.566,0,0,1-.219-.043A.579.579,0,0,1,8.412,1,.565.565,0,0,1,8.811.6Z" fill="#5a468a" />
  <path d="M8.135,11.073l3.928-3.929a.267.267,0,0,1,.376,0l.355.356a.264.264,0,0,1,0,.375L8.128,12.541a.266.266,0,0,1-.375,0L5.166,9.953a.264.264,0,0,1,0-.375l.33-.331a.3.3,0,0,1,.425,0l1.826,1.826A.275.275,0,0,0,8.135,11.073Z" fill="#fff" opacity="0.8" />
</svg>