<svg xmlns="http://www.w3.org/2000/svg" width="18" height="18" viewBox="0 0 18 18">
  <defs>
    <linearGradient id="b6c6d0d2-df51-488a-bb9b-c0ce8e927e02" x1="12.345" y1="17.71" x2="12.345" y2="0.29" gradientUnits="userSpaceOnUse">
      <stop offset="0" stop-color="#949494"/>
      <stop offset="0.532" stop-color="#a2a2a2"/>
      <stop offset="1" stop-color="#b3b3b3"/>
    </linearGradient>
  </defs>
  <g id="f36198f9-1a2f-40b2-8ede-b163b9730ee6">
    <path d="M17.347.29h-10a.624.624,0,0,0-.653.591V6.242L8.869,8.421a.818.818,0,0,1,0,1.158L6.691,11.758v5.361a.624.624,0,0,0,.653.591h10A.624.624,0,0,0,18,17.119V.881A.624.624,0,0,0,17.347.29Z" fill="url(#b6c6d0d2-df51-488a-bb9b-c0ce8e927e02)"/>
    <path d="M8.353,3.714A1.3,1.3,0,0,1,9.582,2.359H15.21a1.3,1.3,0,0,1,1.229,1.355A1.3,1.3,0,0,1,15.21,5.068H9.582A1.3,1.3,0,0,1,8.353,3.714ZM15.21,6.383H9.582A1.3,1.3,0,0,0,8.353,7.737a1.4,1.4,0,0,0,.017.185l.5.5a.81.81,0,0,1,.237.565,1.127,1.127,0,0,0,.476.106H15.21a1.3,1.3,0,0,0,1.229-1.355A1.3,1.3,0,0,0,15.21,6.383Z" fill="#003067"/>
    <path d="M11.006,3.714A.909.909,0,1,1,10.1,2.8.909.909,0,0,1,11.006,3.714ZM10.1,6.828a.91.91,0,1,0,.909.909A.909.909,0,0,0,10.1,6.828Z" fill="#50e6ff"/>
    <path d="M5.063,5.179,8.587,8.7a.42.42,0,0,1,0,.594L5.063,12.821a.188.188,0,0,1-.321-.133V10.521a.188.188,0,0,0-.188-.187H.15a.15.15,0,0,1-.15-.15V7.816a.15.15,0,0,1,.15-.15h4.4a.188.188,0,0,0,.188-.187V5.312A.188.188,0,0,1,5.063,5.179Z" fill="#a67af4"/>
  </g>
   <metadata>
   <rdf:RDF xmlns:rdf="http://www.w3.org/1999/02/22-rdf-syntax-ns#">
      <rdf:li>public:true</rdf:li>
      <rdf:li>sdk:false</rdf:li>
      <rdf:li>category:Other</rdf:li>
   </rdf:RDF>
</metadata>
</svg>
