<svg id="uuid-56652950-2cf9-47b8-a864-29a1cbaeaa78" xmlns="http://www.w3.org/2000/svg" width="18" height="18" viewBox="0 0 18 18">
  <defs>
    <linearGradient id="uuid-82561c03-5767-4eb0-aee5-eeb1f297c5f1" x1="9.632" y1="775.488" x2="9.632" y2="766.458" gradientTransform="translate(4 785.516) scale(1 -1)" gradientUnits="userSpaceOnUse">
      <stop offset="0" stop-color="#32d4f5"/>
      <stop offset=".424" stop-color="#32ceef"/>
      <stop offset="1" stop-color="#32bedd"/>
    </linearGradient>
    <linearGradient id="uuid-73549157-c370-49e4-9e98-7c9574e516c1" x1="7.451" y1="14.912" x2="7.451" y2="-.003" gradientUnits="userSpaceOnUse">
      <stop offset="0" stop-color="#0078d4"/>
      <stop offset="1" stop-color="#5ea0ef"/>
    </linearGradient>
  </defs>
  <path d="m18,14.099v-.995l-.14-.052-1.067-.35-.279-.679.54-1.152-.702-.702-.14.07-.993.501-.68-.28-.438-1.203h-.995l-.053.139-.348,1.076-.679.28-1.137-.543-.702.702.07.139.508.996-.28.679-1.224.438v.996l.14.052,1.067.349.279.679-.536,1.15.702.702.14-.069.995-.501.679.279.439,1.203h.995l.053-.139.349-1.068.679-.279,1.153.541.702-.702-.08-.145-.501-.994.28-.679,1.204-.439Zm-4.362,1.445h0c-1.058,0-1.916-.858-1.916-1.916,0-1.058.858-1.916,1.916-1.916,1.058,0,1.916.858,1.916,1.916,0,1.058-.858,1.916-1.916,1.916-.001,0-.002,0-.003,0h.003Z" fill="url(#uuid-82561c03-5767-4eb0-aee5-eeb1f297c5f1)"/>
  <path d="m8.841,14.734v-1.272c-.122-.088-.238-.189-.344-.301-.169-.177-.301-.362-.387-.511-.043-.075-.071-.134-.086-.174l-.004-.01v-1.282h.475c.439,0,.847-.133,1.186-.361l.209-.209.37-.37c.228-.339.361-.747.361-1.186v-1.34c.547-.221.933-.757.933-1.384,0-.824-.668-1.492-1.492-1.492s-1.492.668-1.492,1.492c0,.626.386,1.162.933,1.384v1.34c0,.556-.451,1.007-1.007,1.007h-.475V2.39c0-.009,0-.023.002-.042.002-.039.006-.098.015-.169.018-.145.054-.329.12-.505.067-.178.154-.319.257-.411.092-.082.218-.146.425-.146.572,0,1.138.193,1.551.514.407.317.646.739.646,1.225,0,.18.086.349.232.454.146.105.334.134.504.077.103-.034.21-.026.366.12.173.162.348.455.475.849.124.387.186.825.168,1.235-.019.415-.117.759-.273.993-.114.172-.125.392-.028.574.097.182.287.295.493.295.175,0,.289.027.364.063.068.032.132.083.194.183.116.186.214.532.247,1.137h1.122s-.102-1.217-.419-1.728c-.168-.271-.391-.474-.667-.605-.016-.008-.033-.015-.049-.022.079-.274.12-.56.132-.841.025-.548-.057-1.119-.22-1.627-.161-.5-.416-.987-.774-1.323-.225-.211-.504-.371-.817-.423-.148-.627-.527-1.145-1.009-1.52C10.457.265,9.646-.003,8.839-.003c-.482,0-.873.166-1.169.429-.08.071-.151.148-.214.227-.063-.079-.134-.156-.214-.227C6.946.163,6.555-.003,6.073-.003,5.266-.003,4.454.265,3.834.748c-.483.376-.861.894-1.009,1.52-.313.052-.592.212-.817.423-.359.337-.614.823-.774,1.323-.163.508-.245,1.079-.22,1.627.013.281.054.567.132.841-.016.007-.033.014-.049.022-.276.13-.499.334-.667.605-.317.511-.429,1.247-.429,2.185,0,1.078.412,1.81.942,2.264.307.264.647.427.947.514.104.517.364,1.099.76,1.594.539.675,1.377,1.245,2.505,1.245.903,0,1.614-.499,2.07-.978.084-.088.161-.177.232-.265.071.089.148.178.232.265.457.479,1.154.801,1.154.801Zm1.221-8.773c.206,0,.373.167.373.373s-.167.373-.373.373-.373-.167-.373-.373.167-.373.373-.373Zm-3.171-1.679h-.668c-.221-.547-.757-.933-1.384-.933-.824,0-1.492.668-1.492,1.492s.668,1.492,1.492,1.492c.626,0,1.162-.386,1.384-.933h.668v5.213s0,.006,0,.01c0,.003,0,.006,0,.01v1.832l-.004.01c-.015.039-.043.099-.086.174-.086.15-.218.334-.387.511-.347.364-.785.631-1.26.631-.711,0-1.251-.35-1.63-.824-.394-.493-.567-1.062-.567-1.375,0-.309-.251-.56-.56-.56-.096,0-.426-.067-.727-.325-.274-.235-.551-.653-.551-1.415s.084-1.208.195-1.467c.006,0,.012,0,.019,0h1.94c.506,0,.925.373.996.859-.541.224-.922.757-.922,1.379,0,.824.668,1.492,1.492,1.492s1.492-.668,1.492-1.492c0-.628-.388-1.166-.938-1.386-.079-1.102-.999-1.971-2.121-1.971h-.807c-.015-.043-.036-.085-.062-.124-.155-.233-.254-.577-.273-.993-.018-.41.044-.849.168-1.235.126-.394.302-.687.475-.849.156-.146.264-.154.366-.12.171.057.358.028.504-.077.146-.105.232-.274.232-.454,0-.486.238-.908.646-1.225.413-.322.98-.514,1.551-.514.207,0,.333.064.425.146.103.092.19.232.257.411.066.176.101.36.119.505.009.071.013.13.015.169.001.019.001.034.002.042v.008s0,1.885,0,1.885Zm-1.679.56c0,.206-.167.373-.373.373s-.373-.167-.373-.373.167-.373.373-.373.373.167.373.373Zm-.746,5.223c0-.206.167-.373.373-.373s.373.167.373.373-.167.373-.373.373-.373-.167-.373-.373Z" fill="url(#uuid-73549157-c370-49e4-9e98-7c9574e516c1)"/>
</svg>