<svg id="uuid-13118d90-e353-413c-8a7f-11843273b2cc" xmlns="http://www.w3.org/2000/svg" width="18" height="18" viewBox="0 0 18 18">
  <defs>
    <linearGradient id="uuid-328bcc8e-7532-4da2-987a-4ecbb964617c" x1="159" y1="695.101" x2="159" y2="677.93" gradientTransform="translate(-150 695.516) scale(1 -1)" gradientUnits="userSpaceOnUse">
      <stop offset=".139" stop-color="#5ea0ef"/>
      <stop offset="1" stop-color="#0078d4"/>
    </linearGradient>
  </defs>
  <g>
    <path d="M8.77,9.786c.081,.348,.151,.685,.236,1.018,.213,.836,.416,1.676,.658,2.505,.093,.443,.429,.796,.867,.912,.38,.063,.769-.051,1.054-.31,.632-.462,1.178-1.032,1.611-1.683,.15-.218,.272-.454,.413-.692l-.382-.18c-.135,.238-.288,.465-.458,.68-.277,.308-.583,.59-.912,.842-.238,.18-.438,.103-.579-.155-.099-.184-.173-.379-.222-.582-.342-1.393-.678-2.788-1.008-4.185l-.213-.901c-.101-.36-.193-.672-.276-.982-.174-.816-.557-1.574-1.112-2.197-.072-.089-.191-.126-.301-.096-.842,.155-1.687,.299-2.523,.452-.326,.058-.326,.065-.272,.436h.193c.247,0,.497-.009,.743,.014,.786,.032,1.437,.619,1.552,1.397,.263,.871,.472,1.759,.69,2.642l.24,1.065Z" fill="#0078d4"/>
    <path d="M8.813,9.786c-.49,.768-.937,1.532-1.442,2.251-.408,.551-.85,1.075-1.325,1.57-.312,.329-.723,.547-1.17,.62-.544,.112-1.088-.189-1.283-.708-.115-.333-.011-.702,.26-.926,.264-.249,.664-.287,.97-.092,.177,.11,.347,.23,.51,.36,.234,.18,.36,.205,.577,0,.323-.286,.613-.608,.865-.959,.609-.916,1.179-1.858,1.752-2.797l1.354-2.064c.108-.153,.195-.27,.278-.391,.386-.658,.844-1.271,1.368-1.826,.399-.445,.897-.789,1.455-1.006,.43-.17,.919-.082,1.262,.227,.264,.257,.34,.653,.189,.99-.114,.283-.394,.464-.699,.451-.239,.019-.48-.02-.701-.112-.54-.285-1.209-.108-1.537,.407-.483,.627-.923,1.289-1.372,1.939l-1.309,2.066Z" fill="#5ea0ef"/>
  </g>
  <g id="uuid-a459e8b0-eb2d-4534-809b-932d9fbaa032">
    <path d="M2.409,.436c-.959,.09-1.689,.901-1.677,1.864,0,.048,.005,.1,.009,.128V7.587c0,.567-.185,.82-.6,.82h-.141v1.2H.141c.257,0,.6,.081,.6,.788v5.242c-.008,.976,.715,1.804,1.683,1.929,.106,.013,.213,.019,.32,.019,.072,0,.144,0,.216-.008l.067-.006v-.064h.023v-1.154l-.154,.014c-.175,.017-.349-.04-.48-.157-.106-.189-.158-.404-.148-.621v-5.038c.083-.588-.159-1.174-.634-1.531,.467-.365,.707-.949,.631-1.537V2.391c0-.509,.217-.746,.683-.746h.141V.449l-.125-.014c-.184-.02-.371-.019-.555,0Zm15.591,7.964v1.2h-.141c-.257,0-.6,.082-.6,.789v5.242c.008,.976-.714,1.804-1.682,1.929-.107,.012-.214,.019-.322,.019-.071,0-.143,0-.215-.009l-.067-.005v-.065h-.023v-1.153l.154,.015c.175,.018,.349-.039,.48-.157,.106-.188,.157-.401,.149-.616v-5.064c-.08-.581,.161-1.159,.631-1.51-.467-.366-.707-.95-.631-1.538V2.386c0-.51-.217-.747-.683-.747h-.141V.443l.127-.013c.185-.021,.371-.021,.556,0,.957,.09,1.686,.899,1.676,1.86,0,.047,0,.095-.01,.142V7.582c0,.567,.185,.819,.6,.819h.142Z" fill="url(#uuid-328bcc8e-7532-4da2-987a-4ecbb964617c)"/>
  </g>
</svg>