<svg width="16" height="16" viewBox="0 0 16 16" xmlns="http://www.w3.org/2000/svg">
<path d="M11.9281 0.829291C12.0761 0.56491 11.9882 0.226824 11.7318 0.0741499C11.4753 -0.0784984 11.1472 0.012097 10.9991 0.276497L8.06104 5.33071C6.18241 4.52557 3.9705 5.26262 2.92591 7.12744L2.50558 7.87787L0.133475 10.6599C0.0274014 10.7843 -0.0189693 10.9511 0.00712255 11.1145C0.0332144 11.278 0.129029 11.4207 0.268166 11.5035L7.69988 15.9259C7.83898 16.0088 8.00687 16.0229 8.15721 15.9644C8.30757 15.906 8.4246 15.7812 8.47605 15.6243L9.62752 12.1162L10.0479 11.3656C11.0925 9.50073 10.6059 7.15782 8.99003 5.8835L11.9281 0.829291ZM8.94018 11.1319L3.67609 7.99939L3.85488 7.68027C4.69413 6.18197 6.55293 5.66861 8.00657 6.53368C9.46018 7.39869 9.95823 9.31448 9.119 10.8128L8.94018 11.1319ZM1.37109 10.8832L3.05605 8.90707L8.48754 12.1392L7.66961 14.6313L1.37109 10.8832ZM12.5 11L16 11V12L12.5 12V11ZM16 13L11.5 13V14L16 14V13ZM16 15L10.5 15V16L16 16V15Z"/>
</svg>
