<svg xmlns="http://www.w3.org/2000/svg" viewBox="0 0 18 18">
  <defs>
    <linearGradient id="f992f485-fd77-4fb4-94dc-a788ec23703c" x1="9" y1="18" x2="9" gradientUnits="userSpaceOnUse">
      <stop offset="0" stop-color="#0078d4" />
      <stop offset="0.817" stop-color="#5ea0ef" />
    </linearGradient>
  </defs>
  <g id="b2ca6a3f-844c-451f-a267-0d56ab495ded">
    <path d="M10.023.134H2.362A.605.605,0,0,0,1.757.74V17.26a.605.605,0,0,0,.605.606H15.638a.605.605,0,0,0,.6-.606V6.327a.605.605,0,0,0-.6-.606H11.232a.605.605,0,0,1-.6-.605V.74A.6.6,0,0,0,10.023.134Z" fill="#5ea0ef" />
    <path d="M9.743.908V5.057a1.524,1.524,0,0,0,1.52,1.523h4.18V17.092H2.557V.908H9.743M10.036,0H2.264A.614.614,0,0,0,1.65.615v16.77A.614.614,0,0,0,2.264,18H15.736a.614.614,0,0,0,.614-.615V6.286a.614.614,0,0,0-.614-.614H11.263a.614.614,0,0,1-.613-.615V.615A.614.614,0,0,0,10.036,0Z" fill="url(#f992f485-fd77-4fb4-94dc-a788ec23703c)" />
    <path d="M16.116,5.794,10.438.134V4.746a1.041,1.041,0,0,0,1.035,1.048Z" fill="#0078d4" />
    <rect x="3.763" y="9.532" width="9.558" height="0.693" rx="0.341" fill="#9cebff" />
    <rect x="3.763" y="11.481" width="9.558" height="0.693" rx="0.341" fill="#9cebff" opacity="0.8" />
    <rect x="3.763" y="13.431" width="9.558" height="0.693" rx="0.341" fill="#9cebff" opacity="0.6" />
    <path d="M7.9,11.32a.3.3,0,0,1-.3-.3v-2.5a.3.3,0,0,1,.3-.3h2.5a.3.3,0,0,1,0,.605H8.205v2.194A.3.3,0,0,1,7.9,11.32Zm6.945-.3v-2.5a.3.3,0,0,0-.3-.3h-2.5a.3.3,0,1,0,0,.605h2.193v2.194a.3.3,0,0,0,.606,0Zm0,4.116v-2.5a.3.3,0,0,0-.606,0v2.193H12.048a.3.3,0,1,0,0,.6h2.5A.3.3,0,0,0,14.847,15.134Zm-4.146,0a.3.3,0,0,0-.3-.3H8.205V12.638a.3.3,0,0,0-.605,0v2.5a.3.3,0,0,0,.3.3h2.5A.3.3,0,0,0,10.7,15.135Z" fill="#fff" />
  </g>
</svg>