<svg id="uuid-317f5839-fe1c-4fc7-bfea-4fe20e4ad31e" xmlns="http://www.w3.org/2000/svg" width="18" height="18" viewBox="0 0 18 18">
  <defs>
    <linearGradient id="uuid-d0f09c64-46d6-4356-9862-dced9d294b5a" x1="5" y1="783.27" x2="5" y2="767.516" gradientTransform="translate(4 785.516) scale(1 -1)" gradientUnits="userSpaceOnUse">
      <stop offset="0" stop-color="#32bedd"/>
      <stop offset="1" stop-color="#198ab3"/>
    </linearGradient>
    <linearGradient id="uuid-3adf2cb2-fe9d-4bdf-8aac-893b8a237636" x1="9" y1="17.038" x2="9" y2="3.207" gradientTransform="matrix(1, 0, 0, 1, 0, 0)" gradientUnits="userSpaceOnUse">
      <stop offset="0" stop-color="#32bedd"/>
      <stop offset="1" stop-color="#50e6ff"/>
    </linearGradient>
    <linearGradient id="uuid-72a8c28d-46cc-4390-b060-85484c0eccc4" x1="4.997" y1="785.516" x2="4.997" y2="781.761" gradientTransform="translate(4 785.516) scale(1 -1)" gradientUnits="userSpaceOnUse">
      <stop offset="0" stop-color="#32bedd"/>
      <stop offset="1" stop-color="#198ab3"/>
    </linearGradient>
  </defs>
  <g id="uuid-44fb92a5-7acd-4155-98a6-34a3a72707f0">
    <rect x="1.65" y="2.246" width="14.7" height="15.754" rx=".6" ry=".6" fill="url(#uuid-d0f09c64-46d6-4356-9862-dced9d294b5a)"/>
    <rect x="2.547" y="3.207" width="12.906" height="13.831" rx=".6" ry=".6" fill="url(#uuid-3adf2cb2-fe9d-4bdf-8aac-893b8a237636)"/>
    <path d="M10.145,1.155c0-.638-.517-1.155-1.155-1.155s-1.155,.517-1.155,1.155h-2.241c-.276,0-.5,.224-.5,.5V3.755h7.806V1.655c0-.276-.224-.5-.5-.5h-2.255Zm-1.314-.555c.307-.087,.627,.091,.714,.398,.015,.051,.022,.105,.022,.158h-.014c0,.317-.258,.574-.575,.573-.074,0-.148-.015-.217-.043-.27-.117-.41-.418-.324-.7,.056-.188,.205-.334,.394-.386Z" fill="url(#uuid-72a8c28d-46cc-4390-b060-85484c0eccc4)"/>
    <rect x="4.31" y="6.851" width="9.268" height=".888" rx=".3" ry=".3" fill="#fff" isolation="isolate" opacity=".6"/>
    <rect x="4.31" y="9.39" width="9.268" height=".888" rx=".3" ry=".3" fill="#fff" isolation="isolate" opacity=".8"/>
    <rect x="4.31" y="11.928" width="9.268" height=".888" rx=".3" ry=".3" fill="#fff"/>
  </g>
</svg>