<svg id="uuid-da768105-e22d-4a55-98bc-c4a07b74da12" xmlns="http://www.w3.org/2000/svg" width="18" height="18" viewBox="0 0 18 18">
  <g>
    <path d="M14.183,10.045c.007-.1.011-.2.011-.302,0-2.464-1.995-4.461-4.457-4.461s-4.457,1.997-4.457,4.461,1.995,4.461,4.457,4.461c.106,0,.21-.005.314-.012.03-2.27,1.865-4.111,4.132-4.147Z" fill="#fff"/>
    <path d="M10.05,14.242c-.1.006-.201.011-.303.011-2.475-.004-4.478-2.016-4.474-4.493.002-1.121.423-2.2,1.18-3.026l.315.457.877-1.952-2.111.247.463.618c-2.015,2.08-1.964,5.4.114,7.417,1.111,1.078,2.575,1.564,4.006,1.467-.043-.241-.067-.488-.067-.741,0-.002,0-.003,0-.005ZM13.408,5.99c-.979-.95-2.288-1.48-3.652-1.48-.208,0-.377.169-.377.377,0,.002,0,.004,0,.006,0,.213.17.386.383.389,2.475.004,4.478,2.016,4.474,4.493,0,.09-.004.18-.009.269.008,0,.015,0,.023,0,.252,0,.498.024.737.066.1-1.485-.428-3.003-1.58-4.12Z" fill="#76bc2d"/>
    <path d="M11.51,11.065l-1.216-1.217c-.125-.125-.329-.125-.454,0l-.044.044c-.125.125-.125.329,0,.454l1.22,1.221c.15-.181.316-.349.493-.502Z" fill="#7a7a7a"/>
    <rect x="9.416" y="5.906" width=".704" height="4.022" rx=".321" ry=".321" fill="#7a7a7a"/>
    <circle cx="9.737" cy="9.762" r=".741" fill="#5e5e5e"/>
  </g>
  <g>
    <circle cx="14.25" cy="14.247" r="3.75" fill="#76bc2d"/>
    <path d="M14.554,12.187c0,.174-.142.316-.316.315-.174,0-.315-.142-.315-.316,0-.174.142-.316.316-.315.174,0,.315.141.315.315,0,0,0,0,0,0ZM14.542,16.502c0,.174-.142.315-.317.315-.174,0-.315-.142-.315-.317,0-.174.142-.315.317-.315.174,0,.315.142.315.316,0,0,0,0,0,0ZM13.207,15.782v-.705c.123.105.264.187.415.242.145.053.299.081.453.082.079.001.158-.006.235-.023.059-.013.116-.035.167-.067.041-.025.076-.06.101-.101.022-.038.033-.082.033-.126.001-.059-.017-.117-.052-.166-.04-.053-.088-.099-.143-.135-.069-.046-.141-.086-.217-.12-.084-.038-.174-.078-.271-.118-.211-.079-.4-.209-.55-.378-.122-.152-.186-.343-.18-.538-.004-.148.031-.294.1-.424.066-.117.159-.217.271-.291.121-.079.255-.136.396-.167.156-.036.316-.054.476-.052.146,0,.292.009.437.031.12.019.238.05.351.093v.659c-.054-.037-.112-.069-.173-.096-.062-.028-.126-.052-.191-.07-.065-.018-.13-.032-.197-.042-.063-.01-.127-.015-.19-.015-.074-.001-.148.006-.22.022-.059.012-.116.034-.168.064-.042.025-.079.059-.106.1-.025.039-.038.085-.038.131-.001.051.013.101.041.144.032.047.072.087.119.12.059.042.122.079.187.111.073.036.156.074.249.112.117.049.23.106.339.17.095.055.182.124.258.202.071.074.127.161.164.257.039.107.059.221.056.335.005.154-.03.307-.102.444-.065.118-.159.218-.273.29-.123.077-.258.131-.4.159-.158.033-.319.049-.481.048-.166,0-.331-.017-.494-.048-.14-.024-.276-.069-.404-.132Z" fill="#fff"/>
  </g>
  <g>
    <ellipse cx="5.247" cy="5.251" rx="5.247" ry="5.251" fill="#b0b0b0"/>
    <circle cx="5.235" cy="5.233" r="4.457" fill="#fff"/>
    <rect id="uuid-fefe0193-2884-4360-ab98-d51c3e0fb2d6" x="7.319" y="2.619" width=".784" height=".253" transform="translate(.318 6.26) rotate(-45.023)" fill="#7a7a7a"/>
    <rect id="uuid-8133efbc-ac4a-4ad8-a815-ca2c4424ac32" x="8.321" y="5.122" width=".784" height=".253" fill="#7a7a7a"/>
    <rect id="uuid-4628047c-5798-4fb2-99b6-f4f100af3ebf" x="7.545" y="7.315" width=".253" height=".784" transform="translate(-3.203 7.687) rotate(-45.023)" fill="#7a7a7a"/>
    <rect id="uuid-5c2742d1-6ec5-4122-bbf9-0f0cab16c0eb" x="5.093" y="8.347" width=".253" height=".785" fill="#7a7a7a"/>
    <rect id="uuid-e514cd87-8d74-4083-ac66-c178137b11ed" x="2.568" y="2.329" width=".253" height=".784" transform="translate(-1.135 2.704) rotate(-45.023)" fill="#7a7a7a"/>
    <rect id="uuid-ecbb7e0a-07cb-4fe5-871d-ec60c733f7f7" x="2.338" y="7.607" width=".784" height=".253" transform="translate(-4.67 4.198) rotate(-45.023)" fill="#7a7a7a"/>
    <rect id="uuid-82ff20f7-0e4f-4b81-a3f0-af8bf10bff1d" x="1.278" y="5.122" width=".784" height=".253" fill="#7a7a7a"/>
    <path d="M5.253,0h0c-.208,0-.377.169-.377.377,0,.002,0,.004,0,.006,0,.213.17.386.383.389h0c2.475.004,4.478,2.016,4.474,4.493-.004,2.477-2.014,4.482-4.489,4.478-2.475-.004-4.478-2.016-4.474-4.493.002-1.121.423-2.2,1.18-3.026l.315.457.877-1.952-2.111.247.463.618c-2.015,2.08-1.964,5.4.114,7.417,2.078,2.017,5.396,1.965,7.411-.114,2.015-2.08,1.964-5.4-.114-7.417C7.926.53,6.617,0,5.253,0Z" fill="#a67af4"/>
    <rect x="4.914" y="1.396" width=".704" height="4.022" rx=".321" ry=".321" fill="#7a7a7a"/>
    <rect x="5.855" y="4.991" width=".704" height="2.52" rx=".321" ry=".321" transform="translate(-2.602 6.223) rotate(-45.023)" fill="#7a7a7a"/>
    <circle cx="5.235" cy="5.251" r=".741" fill="#5e5e5e"/>
    <rect id="uuid-be54dc6f-bc91-4b7e-82a4-f813ad9acf6d" x="6.33" y="6.096" width=".253" height=".784" transform="translate(-2.697 6.47) rotate(-45.023)" fill="#7a7a7a"/>
  </g>
</svg>