<svg xmlns="http://www.w3.org/2000/svg" width="16" height="16" viewBox="0 0 16 16">
  <path d="M9.6,10.4A4.1,4.1,0,0,0,11.5,7a4,4,0,0,0-8,0,4.1,4.1,0,0,0,1.9,3.4A5.9,5.9,0,0,0,1.5,16h1a5,5,0,0,1,10,0h1A5.9,5.9,0,0,0,9.6,10.4ZM4.5,7A2.9,2.9,0,0,1,7.3,4q.1,0,.2,0a2.9,2.9,0,0,1,3,2.8q0,.1,0,.2a2.9,2.9,0,0,1-2.8,3q-.1,0-.2,0a2.9,2.9,0,0,1-3-2.8Q4.5,7.1,4.5,7Z"/>
  <path d="M14.5,7A6.8,6.8,0,0,0,7.906,0C7.771,0,7.635,0,7.5,0a6.2,6.2,0,0,0-6,5.3h0a.5.5,0,0,0,.5.5.5.5,0,0,0,.5-.2h0A5.4,5.4,0,0,1,7.5,1a5.9,5.9,0,0,1,6,5.8c0,.068,0,.135,0,.2V8H9A.5.5,0,0,0,9,9h5a.5.5,0,0,0,.5-.5h0Z"/>
</svg>
