<svg id="uuid-ea8a5d61-a8bb-46f7-a21d-0fbe48bbd134" xmlns="http://www.w3.org/2000/svg" width="18" height="18" viewBox="0 0 18 18">
  <defs>
    <linearGradient id="uuid-23b4a5a2-736c-4b6b-9aa3-26f77feaf258" x1="20.047" y1="-184.065" x2="20.047" y2="-191.976" gradientTransform="translate(-12 192.016)" gradientUnits="userSpaceOnUse">
      <stop offset="0" stop-color="#198ab3"/>
      <stop offset="1" stop-color="#32bedd"/>
    </linearGradient>
    <linearGradient id="uuid-622b8195-35e9-49f9-b4ea-e36ea74c274b" x1="20.973" y1="-183.165" x2="20.973" y2="-191.076" gradientTransform="translate(-12 192.016)" gradientUnits="userSpaceOnUse">
      <stop offset="0" stop-color="#32bedd"/>
      <stop offset="1" stop-color="#50e6ff"/>
    </linearGradient>
    <linearGradient id="uuid-b672567c-e172-4436-ac6d-bdb370926177" x1="21.873" y1="-182.265" x2="21.873" y2="-190.176" gradientTransform="translate(-12 192.016)" gradientUnits="userSpaceOnUse">
      <stop offset="0" stop-color="#50e6ff"/>
      <stop offset="1" stop-color="#9cebff"/>
    </linearGradient>
  </defs>
  <polygon points="16.27 5.369 8.999 1.173 1.73 5.369 1.73 13.764 8.999 17.96 16.279 13.764 16.27 5.369" fill="#999"/>
  <polygon points="9.009 1.168 1.73 5.37 9.009 9.572 16.27 5.368 9.009 1.168" fill="gray"/>
  <polygon points="8.091 2.654 8.09 2.655 8.091 2.654 8.091 2.654" fill="#42e8ca"/>
  <rect x="4.418" y=".04" width="7.257" height="7.911" rx=".364" ry=".364" fill="url(#uuid-23b4a5a2-736c-4b6b-9aa3-26f77feaf258)"/>
  <rect x="5.345" y=".94" width="7.257" height="7.911" rx=".364" ry=".364" fill="url(#uuid-622b8195-35e9-49f9-b4ea-e36ea74c274b)"/>
  <rect x="6.245" y="1.84" width="7.257" height="7.911" rx=".364" ry=".364" fill="url(#uuid-b672567c-e172-4436-ac6d-bdb370926177)"/>
  <polygon points="8.999 9.566 8.999 17.954 1.727 13.761 1.727 5.368 8.999 9.566" fill="#999"/>
  <path d="M1.729,5.363l7.271,4.202-1.725,3.607L0,9.052s1.726-3.655,1.729-3.689Z" fill="#b3b3b3"/>
  <path d="M16.272,5.368l-7.272,4.202,1.726,3.607,7.274-4.108s-1.725-3.668-1.728-3.701Z" fill="#b3b3b3"/>
</svg>