<svg xmlns="http://www.w3.org/2000/svg" width="18" height="18" viewBox="0 0 18 18">
  <defs>
    <linearGradient id="e2f92705-4eb6-468e-a6f8-7ed1d5f4168d" x1="-2.81" y1="781.429" x2="6.323" y2="781.429" gradientTransform="matrix(1, 0.003, 0.003, -1, 1.314, 788.929)" gradientUnits="userSpaceOnUse">
      <stop offset="0" stop-color="#005ea5"/>
      <stop offset="0.536" stop-color="#0078d4"/>
      <stop offset="1" stop-color="#005ba1"/>
    </linearGradient>
    <linearGradient id="ad270f66-4f28-448a-be91-951b70e726cb" x1="13.081" y1="-500.593" x2="13.081" y2="-480.736" gradientTransform="translate(0 503.516)" gradientUnits="userSpaceOnUse">
      <stop offset="0" stop-color="#a67af4"/>
      <stop offset="0.999" stop-color="#773adc"/>
    </linearGradient>
  </defs>
  <g id="a81cba43-1b97-4834-8174-649b7d417199">
    <g>
      <path d="M5.083,3.912C2.562,3.906.52,3.156.523,2.237L.5,11.085C.5,12,2.505,12.742,5,12.76h.063c2.522.007,4.568-.733,4.57-1.652L9.655,2.26C9.651,3.179,7.605,3.919,5.083,3.912Z" fill="url(#e2f92705-4eb6-468e-a6f8-7ed1d5f4168d)"/>
      <path d="M9.655,2.26c0,.919-2.048,1.657-4.569,1.652S.52,3.156.523,2.237,2.571.579,5.092.585s4.564.754,4.561,1.675" fill="#e8e8e8"/>
      <path d="M8.588,2.123c0,.584-1.57,1.055-3.5,1.049s-3.5-.482-3.5-1.067,1.57-1.054,3.5-1.049,3.5.483,3.5,1.067" fill="#50e6ff"/>
      <path d="M5.088,2.357a8.443,8.443,0,0,0-2.774.395,8.154,8.154,0,0,0,2.772.42,8.132,8.132,0,0,0,2.773-.4A8.433,8.433,0,0,0,5.088,2.357Z" fill="#198ab3"/>
      <path d="M13.7,6.673H9.09a.36.36,0,0,0-.361.36v9.936a.361.361,0,0,0,.358.364h7.985a.361.361,0,0,0,.361-.361h0V10.4a.361.361,0,0,0-.361-.361H14.423a.364.364,0,0,1-.361-.364h0V7.038a.365.365,0,0,0-.361-.365Z" fill="#fff"/>
      <path d="M13.7,6.592H9.031a.37.37,0,0,0-.369.37V17.045a.37.37,0,0,0,.369.37h8.1a.37.37,0,0,0,.369-.37V10.372a.37.37,0,0,0-.369-.37H14.442a.369.369,0,0,1-.369-.369h0V6.962A.37.37,0,0,0,13.7,6.592Z" fill="url(#ad270f66-4f28-448a-be91-951b70e726cb)"/>
      <path d="M17.359,10.076l-3.414-3.4V9.446a.628.628,0,0,0,.623.63Z" fill="#773adc"/>
      <path d="M12.108,9.435,9.966,11.569a.1.1,0,0,1-.147.019.109.109,0,0,1-.04-.094V10.248c-2.574,0-5.148-1.373-5.148-3.858A6.766,6.766,0,0,0,9.779,8.413V7.219a.113.113,0,0,1,.114-.111.11.11,0,0,1,.073.029l2.142,2.141A.128.128,0,0,1,12.108,9.435Z" fill="#fff"/>
      <polygon points="15.329 11.435 15.329 14.113 13.026 15.462 13.026 12.777 15.329 11.435" fill="#50e6ff"/>
      <polygon points="15.329 11.435 13.026 12.784 10.723 11.435 13.026 10.086 15.329 11.435" fill="#c3f1ff"/>
      <polygon points="13.026 12.784 13.026 15.462 10.723 14.113 10.723 11.435 13.026 12.784" fill="#9cebff"/>
    </g>
  </g>
</svg>
