<svg id="uuid-60401ac6-12d6-4d0c-80f7-4c6b247e2683" xmlns="http://www.w3.org/2000/svg" width="18" height="18" viewBox="0 0 18 18"><defs><linearGradient id="uuid-fdc9ddfe-6058-403e-9eaa-45fb49b2f835" x1="8.088" y1="2.212" x2="9.335" y2="17.708" gradientUnits="userSpaceOnUse"><stop offset=".224" stop-color="#5ea0ef" /><stop offset="1" stop-color="#0078d4" /></linearGradient><linearGradient id="uuid-d7340795-d44a-4b4b-af09-8e00065d04a6" x1="-549.266" y1="1011.292" x2="-549.266" y2="1025.516" gradientTransform="translate(564 1025.516) scale(1 -1)" gradientUnits="userSpaceOnUse"><stop offset="0" stop-color="#b4ec36" /><stop offset="1" stop-color="#76bc2d" /></linearGradient></defs><g id="uuid-e25352ef-856d-4f59-b197-6e44fa935015"><path d="m0,4.671c0-1.085.872-1.965,1.948-1.965,1.044.006,2.08.197,3.059.564.369.358-1.111.845-1.111,1.402H0Z" fill="#0078d4" stroke-width="0" /><path d="m15.253,14.441c-.149.15-.312.233-.522.233s-.408-.083-.557-.233l-2.855-2.882c-.11-.113-.17-.262-.171-.42-.001-.333.266-.605.598-.606h1.458V3.689h-1.45s-.006,0-.006,0h-.004c-.325,0-.594-.267-.599-.594-.002-.141.047-.276.133-.385l-8.89-.004h-.439c1.076,0,1.948.88,1.948,1.965l-.215,11.35c0,.009,0,.019,0,.028.008,1.085.886,1.959,1.962,1.951,1.076-.008,1.941-.894,1.934-1.979l7.677.005v-1.585Z" fill="url(#uuid-fdc9ddfe-6058-403e-9eaa-45fb49b2f835)" stroke-width="0" /><path d="m7.091,4.47c0,.172-.138.313-.309.313-.171,0-.31-.139-.31-.311,0-.172.138-.313.309-.313h0s.002,0,.002,0c.17,0,.309.139.309.311h0s0,0,0,0Zm0,5.429c0,.172-.138.313-.309.313s-.31-.139-.31-.311c0-.172.138-.313.309-.313h.002c.17,0,.308.14.308.311Zm-1.635-.874v-.88c.301.258.683.4,1.077.401.099.002.198-.008.294-.03.073-.016.143-.045.207-.085.051-.031.094-.074.124-.126.027-.048.041-.103.041-.159,0-.074-.022-.146-.065-.206-.05-.066-.11-.123-.179-.168-.086-.057-.175-.106-.269-.148-.104-.047-.215-.096-.335-.148-.262-.098-.497-.26-.683-.471-.151-.189-.23-.425-.225-.667-.005-.184.037-.367.123-.53.081-.147.196-.272.334-.365.15-.099.315-.17.49-.21.193-.046.39-.069.588-.068.181-.002.362.01.541.037.149.022.294.061.435.114v.821c-.068-.047-.139-.088-.215-.121-.077-.035-.157-.064-.238-.087-.155-.043-.314-.066-.475-.068-.092,0-.183.009-.273.029-.073.016-.143.043-.207.082-.053.031-.097.074-.131.125-.031.049-.047.105-.046.163,0,.063.017.125.051.178.04.058.09.108.147.148.073.053.15.099.232.138.091.044.193.091.308.139.145.06.286.131.422.211.117.069.225.154.32.251.088.093.158.202.204.321.11.319.091.669-.053.974-.081.147-.197.272-.337.363-.151.097-.319.165-.494.2-.196.041-.396.062-.596.061-.205,0-.41-.018-.612-.055-.175-.03-.345-.086-.505-.165Z" fill="#fff" stroke-width="0" /><path d="m11.335,13.462h-6.088c-.205.003-.375-.162-.378-.369-.003-.207.16-.378.366-.382.004,0,.008,0,.012,0h6.088c.205.003.369.174.366.382-.003.203-.165.366-.366.369Z" fill="#fff" isolation="isolate" opacity=".6" stroke-width="0" /><path d="m12.894,15.02h-7.646c-.205.003-.375-.162-.378-.369-.003-.207.16-.378.366-.382.004,0,.008,0,.012,0h7.646c.205-.003.375.162.378.369s-.16.378-.366.382c-.004,0-.008,0-.012,0Z" fill="#fff" isolation="isolate" opacity=".4" stroke-width="0" /><path d="m11.319,11.561c-.107-.11-.166-.255-.17-.409h-5.902s-.008,0-.012,0c-.205.003-.369.174-.366.382.003.207.173.373.378.369h6.41l-.339-.342Z" fill="#fff" isolation="isolate" opacity=".8" stroke-width="0" /><path d="m16.052,17.986c1.076,0,1.948-.88,1.948-1.965H7.576c0,1.085-.948,1.965-1.796,1.965h10.273Z" fill="#5ea0ef" stroke-width="0" /></g><path d="m17.718,3.24h-1.754c-.084,0-.152.069-.152.153v1.683h-2.158v-1.683c0-.085-.068-.153-.152-.153h-1.753c-.084.001-.153-.066-.155-.151,0-.043.016-.084.047-.114L14.492.1c.133-.134.348-.134.481,0l2.852,2.877c.059.06.059.157,0,.217-.028.029-.067.045-.107.045Zm-6.077,8.006l2.851,2.878c.133.134.348.134.481,0l2.852-2.878c.061-.057.065-.154.008-.216-.03-.033-.072-.05-.116-.049h-1.754c-.084,0-.152-.069-.152-.153v-1.68h-2.158v1.685c0,.085-.068.153-.152.153h-1.753c-.083,0-.151.069-.151.153,0,.04.016.078.043.106Zm4.171-5.643v.63c0,.019-.029.034-.066.034h-2.027c-.036,0-.066-.016-.066-.034v-.627c0-.019.03-.034.066-.034h2.027c.038,0,.066.016.066.034v-.003Zm0,1.193v.629c0,.019-.029.034-.066.034h-2.027c-.036,0-.066-.015-.066-.034v-.626c0-.019.03-.035.066-.035h2.027c.038,0,.066.014.066.035v-.003Zm0,1.192v.629c0,.019-.029.035-.066.035h-2.027c-.036,0-.066-.016-.066-.035v-.626c0-.019.03-.034.066-.034h2.027c.038,0,.066.015.066.034v-.003Z" fill="url(#uuid-d7340795-d44a-4b4b-af09-8e00065d04a6)" stroke-width="0" /></svg>