<svg xmlns="http://www.w3.org/2000/svg" viewBox="0 0 18 18">
  <defs>
    <linearGradient id="f2310160-195c-43f0-be45-a36587ead024" x1="8.378" y1="-0.701" x2="8.378" y2="14.815" gradientUnits="userSpaceOnUse">
      <stop offset="0" stop-color="#6cc6b9" />
      <stop offset="0.6" stop-color="#65bfb2" />
      <stop offset="0.9" stop-color="#3f9b8f" />
      <stop offset="1" stop-color="#258277" />
    </linearGradient>
    <linearGradient id="f066a547-2d24-429d-8067-900630aa1850" x1="12.709" y1="5.715" x2="13.637" y2="17.25" gradientUnits="userSpaceOnUse">
      <stop offset="0" stop-color="#5ea0ef" />
      <stop offset="1" stop-color="#0078d4" />
    </linearGradient>
  </defs>
  <path d="M13.263,7.3a5.253,5.253,0,0,1,3.5,1.349V1.119a.483.483,0,0,0-.5-.455H.508A.493.493,0,0,0,0,1.138V12.061a.493.493,0,0,0,.511.456H7.975A5.3,5.3,0,0,1,13.263,7.3Z" fill="url(#f2310160-195c-43f0-be45-a36587ead024)" />
  <path d="M13.025,7.325V2.264a.137.137,0,0,0-.137-.138H11.736a.137.137,0,0,0-.137.138V7.6A5.259,5.259,0,0,1,13.025,7.325Z" fill="#fff" opacity="0.9" />
  <path d="M9.363,9.044c-.006,0-.009-.006-.015-.006H1.661a.148.148,0,0,0-.148.148v1.508a.148.148,0,0,0,.148.148H8.289A5.267,5.267,0,0,1,9.363,9.044Z" fill="#fff" opacity="0.6" />
  <path d="M15.213,7.684V5.793a.105.105,0,0,0-.106-.105H13.892a.1.1,0,0,0-.1.105V7.354A5.285,5.285,0,0,1,15.213,7.684Z" fill="#fff" opacity="0.9" />
  <polygon points="8.487 2.653 6.503 6.183 4.405 4.045 2.243 6.849 2.75 7.246 4.465 5.034 6.642 7.256 9.049 2.976 8.487 2.653" fill="#fff" />
  <ellipse cx="4.43" cy="4.537" rx="0.815" ry="0.82" fill="#fff" />
  <ellipse cx="6.642" cy="6.57" rx="0.815" ry="0.82" fill="#fff" />
  <ellipse cx="8.696" cy="2.916" rx="0.815" ry="0.82" fill="#fff" />
  <ellipse cx="2.581" cy="6.928" rx="0.815" ry="0.82" fill="#fff" />
  <circle cx="13.263" cy="12.596" r="4.74" fill="url(#f066a547-2d24-429d-8067-900630aa1850)" />
  <path d="M15.857,12.924a2.5,2.5,0,0,0-1.474-2.653,1.114,1.114,0,0,0-2.228,0,2.6,2.6,0,0,0-1.5,2.357,2.521,2.521,0,0,0,.023.289,1.1,1.1,0,0,0-.53.929,1.123,1.123,0,0,0,1.121,1.122,1.089,1.089,0,0,0,.557-.17,2.568,2.568,0,0,0,2.878,0,1.093,1.093,0,0,0,.552.166,1.124,1.124,0,0,0,1.122-1.122A1.105,1.105,0,0,0,15.857,12.924ZM13.269,9.691a.618.618,0,1,1-.618.618A.618.618,0,0,1,13.269,9.691Zm-2.617,4.156a.618.618,0,1,1,.617.618A.618.618,0,0,1,10.652,13.847Zm1.557.575a1.09,1.09,0,0,0,.182-.575,1.123,1.123,0,0,0-1.122-1.122c-.036,0-.066.017-.1.02,0-.039-.009-.076-.009-.116a2.088,2.088,0,0,1,1.11-1.834,1.1,1.1,0,0,0,2,0,2.091,2.091,0,0,1,1.109,1.834c0,.04-.008.079-.01.118a1.055,1.055,0,0,0-.112-.022,1.123,1.123,0,0,0-1.122,1.122,1.084,1.084,0,0,0,.185.579A2.114,2.114,0,0,1,12.209,14.422Zm3.047.043a.618.618,0,1,1,.618-.618A.618.618,0,0,1,15.256,14.465Z" fill="#fff" />
</svg>