<svg xmlns="http://www.w3.org/2000/svg" viewBox="0 0 18 18">
  <defs>
    <linearGradient id="fe692c96-e5ee-446d-85b2-24d9afc8b36e" x1="4.733" y1="13.411" x2="4.733" y2="16.959" gradientUnits="userSpaceOnUse">
      <stop offset="0" stop-color="#faa21d" />
      <stop offset="1" stop-color="#ef7100" />
    </linearGradient>
    <linearGradient id="e1f44cb6-d164-4bbe-8201-87f4186ae16b" x1="16.226" y1="9.85" x2="16.226" y2="13.398" gradientUnits="userSpaceOnUse">
      <stop offset="0" stop-color="#faa21d" />
      <stop offset="1" stop-color="#ef7100" />
    </linearGradient>
    <linearGradient id="b185b0c6-67f1-48f9-bdcc-3fb461cd1303" x1="16.226" y1="3.549" x2="16.226" y2="7.097" gradientUnits="userSpaceOnUse">
      <stop offset="0" stop-color="#faa21d" />
      <stop offset="1" stop-color="#ef7100" />
    </linearGradient>
    <linearGradient id="e1125a90-30f3-4872-b995-c2bfc3c3a0e2" x1="4.188" y1="-0.8" x2="4.188" y2="10.396" gradientUnits="userSpaceOnUse">
      <stop offset="0" stop-color="#ffb34d" />
      <stop offset="1" stop-color="#ef7100" />
    </linearGradient>
  </defs>
  <polygon points="16.264 4.565 3.991 4.565 3.991 15.394 5.344 15.394 5.344 7.022 10.7 12.379 15.057 12.379 15.057 11.027 11.261 11.027 6.151 5.917 16.264 5.917 16.264 4.565" fill="#999" />
  <circle cx="7.359" cy="5.229" r="4.073" fill="#f78d1e" />
  <path d="M11.346,2.527a4.229,4.229,0,0,0-3.31-1.3A4.058,4.058,0,0,1,7.568,9.28a4.758,4.758,0,0,0,3.094-.763A4.174,4.174,0,0,0,11.346,2.527Z" fill="#d15900" />
  <circle cx="4.733" cy="15.185" r="1.774" fill="url(#fe692c96-e5ee-446d-85b2-24d9afc8b36e)" />
  <circle cx="16.226" cy="11.554" r="1.774" fill="url(#e1f44cb6-d164-4bbe-8201-87f4186ae16b)" />
  <circle cx="16.226" cy="5.227" r="1.774" fill="url(#b185b0c6-67f1-48f9-bdcc-3fb461cd1303)" />
  <circle cx="4.188" cy="5.229" r="3.599" fill="#fff" />
  <path d="M4.188,9.417A4.188,4.188,0,1,1,8.376,5.229,4.193,4.193,0,0,1,4.188,9.417Zm0-7.2A3.011,3.011,0,1,0,7.2,5.229,3.014,3.014,0,0,0,4.188,2.218Z" fill="url(#e1125a90-30f3-4872-b995-c2bfc3c3a0e2)" />
  <path d="M8.233,2.466A4.2,4.2,0,0,0,5.077,1.141a4.173,4.173,0,0,1-.486,8.235,4.791,4.791,0,0,0,2.943-.785A4.268,4.268,0,0,0,8.233,2.466Z" fill="#d15900" />
  <path d="M6.117,4.244l-.084-.522a.179.179,0,0,0-.152-.149L5.374,3.5a.179.179,0,0,0-.152.051L4.189,4.585,3.161,3.558A.179.179,0,0,0,3,3.509l-.5.11a.182.182,0,0,0-.138.14l-.1.48a.183.183,0,0,0,.049.164l1.31,1.31v1.4a.181.181,0,0,0,.069.141l.415.327a.182.182,0,0,0,.222,0l.422-.328a.179.179,0,0,0,.07-.142V5.646L6.067,4.4A.18.18,0,0,0,6.117,4.244Z" fill="#76bc2d" />
</svg>