<svg id="b6665720-b583-49a8-af66-1538110f8098" xmlns="http://www.w3.org/2000/svg" width="16" height="16" viewBox="0 0 16 16">
  <g>
    <path d="M7.563,11.562a4,4,0,1,1,4,4A4,4,0,0,1,7.563,11.562Zm5.883-.717a.4.4,0,0,0-.566-.565L11.163,12l-.917-.917a.4.4,0,0,0-.566.565l1.2,1.2a.4.4,0,0,0,.566,0Z" fill="#138a00"/>
    <path d="M2.562,10.685H4.443v.76H3.069a.625.625,0,1,0,0,1.25H6.818l-.031-.15a4.908,4.908,0,0,1-.1-.975v-.125h-1v-.76H6.765l.021-.1A4.842,4.842,0,0,1,7.1,9.61l.077-.175H2.562a.877.877,0,0,1-.875-.875v-6a.876.876,0,0,1,.875-.875h8a.875.875,0,0,1,.875.875V6.688h.125a4.913,4.913,0,0,1,.974.1l.15.03V2.563A2.127,2.127,0,0,0,10.562.438h-8A2.127,2.127,0,0,0,.437,2.563v6A2.128,2.128,0,0,0,2.562,10.685Z" fill="#212121"/>
    <path d="M13.446,10.845a.4.4,0,0,0-.566-.565L11.163,12l-.917-.917a.4.4,0,0,0-.566.565l1.2,1.2a.4.4,0,0,0,.566,0Z" fill="#fff"/>
  </g>
</svg>
