<svg xmlns="http://www.w3.org/2000/svg" viewBox="0 0 18 18">
  <defs>
    <linearGradient id="ec2e6ba7-fb94-4613-81b8-5363bacf67b6" x1="5.767" y1="789.404" x2="5.767" y2="775.96" gradientTransform="matrix(1, 0, 0, -1, 0, 791.516)" gradientUnits="userSpaceOnUse">
      <stop offset="0" stop-color="#b3b2b3" />
      <stop offset="1" stop-color="#979797" />
    </linearGradient>
    <linearGradient id="ec282f7d-c8f5-423f-a55d-21a332ac651c" x1="-440.21" y1="1107.938" x2="-435.721" y2="1095.753" gradientTransform="matrix(0.707, 0.707, 0.707, -0.707, -455.559, 1103.513)" gradientUnits="userSpaceOnUse">
      <stop offset="0" stop-color="#6bb9f2" />
      <stop offset="1" stop-color="#1b93eb" />
    </linearGradient>
  </defs>
  <path d="M9.466,15.169a.407.407,0,0,1-.426.386H2.5a.407.407,0,0,1-.426-.386V2.5A.407.407,0,0,1,2.5,2.112H9.04a.407.407,0,0,1,.426.386Z" fill="url(#ec2e6ba7-fb94-4613-81b8-5363bacf67b6)" />
  <path d="M3.156,6.986a.848.848,0,0,1,.8-.886H7.642a.849.849,0,0,1,.8.886h0a.849.849,0,0,1-.8.887H3.96A.848.848,0,0,1,3.156,6.986Z" fill="#003067" />
  <path d="M3.156,4.351a.848.848,0,0,1,.8-.886H7.642a.849.849,0,0,1,.8.886h0a.849.849,0,0,1-.8.886H3.96A.847.847,0,0,1,3.156,4.351Z" fill="#003067" />
  <circle cx="4.191" cy="4.351" r="0.594" fill="#5ea0ef" />
  <circle cx="4.191" cy="6.983" r="0.594" fill="#5ea0ef" />
  <path d="M2.874,18H1.92v-.938h.955Zm1.885,0H3.805v-.938h.956Zm1.885,0H5.691v-.938h.955ZM8.53,18H7.576v-.938h.956Zm1.885,0H9.462v-.938h.955Zm1.976,0h-.953v-.938h.955ZM.026,17.062H.964V18H.026Zm0-1.8H.964V16.2H.026Zm0-1.88H.964v.938H.026Zm.938-.977H.026v-.956H.964Zm0-1.913H.026V9.541H.964Zm0-1.912H.026V7.63H.964Zm0-1.913H.026V5.718H.964Zm0-1.913H.026V3.806H.964Zm0-1.912H.026V1.893H.964ZM.026,0H.964V.938H.026ZM6.7.938H5.745V0H6.7Zm-1.913,0H3.833V0h.956Zm-1.912,0H1.92V0h.955ZM7.658,0H8.6V.938H7.658Zm4.726.938h-.955V0h.955Zm-1.877,0H9.553V0h.955Zm1.874,7.647h-.934V7.63h.937Zm0,1.907h-.934V9.537h.937Zm0-3.912h-.934V5.625h.937Zm0-1.912h-.934V3.712h.937Zm0-1.913h-.934V1.8h.937Z" fill="#76bc2d" />
  <path d="M14.336,17.924l3.585-3.584a.184.184,0,0,0,0-.259l0,0L14.336,10.5a.181.181,0,0,0-.257,0,.179.179,0,0,0-.054.131v2.106a.184.184,0,0,1-.183.183H10.927a.184.184,0,0,0-.183.183v2.227a.184.184,0,0,0,.183.183l2.917,0a.182.182,0,0,1,.183.182h0v.13l0,1.973a.182.182,0,0,0,.18.184A.18.18,0,0,0,14.336,17.924Z" fill="url(#ec282f7d-c8f5-423f-a55d-21a332ac651c)" />
</svg>