<svg width="18" height="18" viewBox="0 0 18 18" xmlns="http://www.w3.org/2000/svg">
<path d="M9 18C13.9706 18 18 13.9706 18 9C18 4.02944 13.9706 0 9 0C4.02944 0 0 4.02944 0 9C0 13.9706 4.02944 18 9 18Z" fill="url(#84f897f9-c9c4-41d7-a93e-b73f28321a13)"/>
<path d="M5.76002 7.40002L5.69002 7.47002L4.69002 8.47005C4.67323 8.48993 4.66234 8.51423 4.65857 8.53995C4.65481 8.56575 4.65832 8.59215 4.66872 8.616C4.67911 8.63993 4.69597 8.66048 4.7174 8.67533C4.73884 8.6901 4.76399 8.69873 4.79002 8.7H8.59005C8.62717 8.7 8.66272 8.6853 8.68905 8.65905C8.7153 8.63273 8.73 8.59718 8.73 8.56005V4.81002C8.73668 4.76626 8.72565 4.72166 8.6994 4.68602C8.67315 4.65039 8.63377 4.62665 8.59005 4.62002C8.54625 4.61339 8.50163 4.62441 8.466 4.65067C8.43038 4.67693 8.40667 4.71626 8.4 4.76002L7.40002 5.76002L7.33002 5.83002C7.30252 5.85461 7.26691 5.86822 7.23002 5.86822C7.19312 5.86822 7.15752 5.85461 7.13002 5.83002L4.125 2.625L2.625 4.125L5.76002 7.20002C5.78461 7.22752 5.79821 7.26312 5.79821 7.30002C5.79821 7.33691 5.78461 7.37252 5.76002 7.40002Z" fill="white"/>
<path d="M8.97188 12.55L9.04185 12.48L10.0419 11.48C10.0587 11.4601 10.0696 11.4358 10.0733 11.41C10.0771 11.3842 10.0736 11.3579 10.0632 11.334C10.0528 11.3101 10.0359 11.2895 10.0145 11.2747C9.99308 11.2599 9.96795 11.2513 9.94185 11.25H6.14189C6.10475 11.25 6.06914 11.2648 6.04289 11.291C6.01664 11.3173 6.00188 11.3529 6.00188 11.39V15.14C5.99525 15.1837 6.00628 15.2284 6.03254 15.264C6.05879 15.2996 6.09812 15.3234 6.14189 15.33C6.18564 15.3366 6.23024 15.3256 6.26588 15.2993C6.30151 15.2731 6.32525 15.2338 6.33188 15.19L7.33188 14.19L7.40188 14.12C7.42938 14.0954 7.46498 14.0818 7.50188 14.0818C7.53878 14.0818 7.5744 14.0954 7.60185 14.12L10.1719 16.65L12.375 16.125L8.97188 12.75C8.94728 12.7225 8.9337 12.6869 8.9337 12.65C8.9337 12.6131 8.94728 12.5775 8.97188 12.55Z" fill="white"/>
<path d="M14.2219 7.3L14.2918 7.23L15.2919 6.23C15.3086 6.21006 15.3196 6.18583 15.3233 6.16003C15.3271 6.13423 15.3235 6.1079 15.3132 6.084C15.3028 6.06009 15.2859 6.03956 15.2644 6.02472C15.2431 6.00988 15.2179 6.00132 15.1918 6H11.3919C11.3548 6 11.3191 6.01475 11.2929 6.041C11.2666 6.06726 11.2519 6.10287 11.2519 6.13999V9.89002C11.2453 9.93375 11.2563 9.97838 11.2825 10.014C11.3088 10.0496 11.3481 10.0734 11.3919 10.08C11.4356 10.0866 11.4802 10.0756 11.5159 10.0493C11.5515 10.0231 11.5753 9.98377 11.5819 9.93997L12.5818 8.94L12.6519 8.87003C12.6793 8.84543 12.715 8.83177 12.7519 8.83177C12.7888 8.83177 12.8244 8.84543 12.8518 8.87003L16.125 12.1031L16.7919 10.02L14.2219 7.5C14.1973 7.4725 14.1837 7.43689 14.1837 7.4C14.1837 7.3631 14.1973 7.3275 14.2219 7.3Z" fill="white"/>
<path fill-rule="evenodd" clip-rule="evenodd" d="M9 17.25C13.5563 17.25 17.25 13.5563 17.25 9C17.25 4.44365 13.5563 0.75 9 0.75C4.44365 0.75 0.75 4.44365 0.75 9C0.75 13.5563 4.44365 17.25 9 17.25ZM9 16.5C13.1421 16.5 16.5 13.1421 16.5 9C16.5 4.85786 13.1421 1.5 9 1.5C4.85786 1.5 1.5 4.85786 1.5 9C1.5 13.1421 4.85786 16.5 9 16.5Z" fill="white"/>
<defs>
<linearGradient id="84f897f9-c9c4-41d7-a93e-b73f28321a13" x1="9" y1="0" x2="9" y2="18" gradientUnits="userSpaceOnUse">
<stop stop-color="#50E5FE"/>
<stop offset="1" stop-color="#005599"/>
</linearGradient>
</defs>
</svg>
