<svg xmlns="http://www.w3.org/2000/svg" width="18" height="18" viewBox="0 0 18 18">
  <defs>
    <linearGradient id="a207a89d-95c4-42ab-88e7-a1212cf3ec4d" x1="9" y1="17.901" x2="9" y2="0.099" gradientUnits="userSpaceOnUse">
      <stop offset="0" stop-color="#0078d4"/>
      <stop offset="1" stop-color="#5ea0ef"/>
    </linearGradient>
    <linearGradient id="b34156c1-e6fd-406d-8720-efaaf5dd8e5d" x1="9.023" y1="15.538" x2="9.023" y2="8.613" gradientUnits="userSpaceOnUse">
      <stop offset="0.001" stop-color="#ffbd02"/>
      <stop offset="1" stop-color="#ffd400"/>
    </linearGradient>
  </defs>
  <g id="bf1d8893-0228-40b7-a022-bad419cf2c4f">
    <g>
      <path d="M9.789.1H2.338a.607.607,0,0,0-.607.607h0V17.293a.607.607,0,0,0,.606.608H15.662a.607.607,0,0,0,.607-.607h0V6.553a.571.571,0,0,0-.168-.405L10.192.265A.573.573,0,0,0,9.789.1Z" fill="url(#a207a89d-95c4-42ab-88e7-a1212cf3ec4d)"/>
      <rect x="4.748" y="8.613" width="8.548" height="6.925" fill="url(#b34156c1-e6fd-406d-8720-efaaf5dd8e5d)"/>
      <path d="M13.584,8.7a.485.485,0,0,0-.076-.181.494.494,0,0,0-.062-.075.486.486,0,0,0-.16-.108.5.5,0,0,0-.2-.04H4.912a.507.507,0,0,0-.507.506v6.527a.507.507,0,0,0,.507.507h8.176a.5.5,0,0,0,.358-.149.514.514,0,0,0,.149-.358V8.8A.49.49,0,0,0,13.584,8.7Zm-8.672.1H9.137v3.264H4.912Zm0,6.527V12.536H9.137v2.789Zm8.176,0H9.643V8.8h3.445Z" fill="#005ba1"/>
    </g>
  </g>
</svg>
