<svg width="16" height="16" viewBox="0 0 16 16" xmlns="http://www.w3.org/2000/svg">
<path fill-rule="evenodd" clip-rule="evenodd" d="M6.75 0C5.92157 0 5.25 0.671573 5.25 1.5V4C5.25 4.82843 5.92157 5.5 6.75 5.5H7.5V7.5H5.24104C4.70754 7.5 4.21419 7.78337 3.94537 8.24419L3.21278 9.50006C3.20852 9.50002 3.20426 9.5 3.2 9.5H1.3C0.58203 9.5 0 10.082 0 10.8V12.7C0 13.418 0.58203 14 1.3 14H3.2C3.91797 14 4.5 13.418 4.5 12.7V10.8C4.5 10.4504 4.36201 10.1331 4.13753 9.89942L4.80915 8.74806C4.89875 8.59446 5.0632 8.5 5.24104 8.5H7.5V11.5H7.05C6.33203 11.5 5.75 12.082 5.75 12.8V14.7C5.75 15.418 6.33203 16 7.05 16H8.95C9.66797 16 10.25 15.418 10.25 14.7V12.8C10.25 12.082 9.66797 11.5 8.95 11.5H8.5V8.5H10.759C10.9368 8.5 11.1012 8.59446 11.1909 8.74806L11.8625 9.89942C11.638 10.133 11.5 10.4504 11.5 10.8V12.7C11.5 13.418 12.082 14 12.8 14H14.7C15.418 14 16 13.418 16 12.7V10.8C16 10.082 15.418 9.5 14.7 9.5H12.8C12.7957 9.5 12.7915 9.50002 12.7872 9.50006L12.0546 8.24419C11.7858 7.78337 11.2925 7.5 10.759 7.5H8.5V5.5H9.25C10.0784 5.5 10.75 4.82843 10.75 4V1.5C10.75 0.671573 10.0784 0 9.25 0H6.75ZM6.25 1.5C6.25 1.22386 6.47386 1 6.75 1H9.25C9.52614 1 9.75 1.22386 9.75 1.5V4C9.75 4.27614 9.52614 4.5 9.25 4.5H6.75C6.47386 4.5 6.25 4.27614 6.25 4V1.5ZM1 10.8C1 10.6343 1.13431 10.5 1.3 10.5H3.2C3.36569 10.5 3.5 10.6343 3.5 10.8V12.7C3.5 12.8657 3.36569 13 3.2 13H1.3C1.13431 13 1 12.8657 1 12.7V10.8ZM12.8 10.5C12.6343 10.5 12.5 10.6343 12.5 10.8V12.7C12.5 12.8657 12.6343 13 12.8 13H14.7C14.8657 13 15 12.8657 15 12.7V10.8C15 10.6343 14.8657 10.5 14.7 10.5H12.8ZM6.75 12.8C6.75 12.6343 6.88431 12.5 7.05 12.5H8.95C9.11569 12.5 9.25 12.6343 9.25 12.8V14.7C9.25 14.8657 9.11569 15 8.95 15H7.05C6.88431 15 6.75 14.8657 6.75 14.7V12.8Z" fill="#000"/>
</svg>
