<svg xmlns="http://www.w3.org/2000/svg" viewBox="0 0 18 18">
  <defs>
    <linearGradient id="e5961ee6-450c-49ba-b9c0-721322cdd147" x1="7.337" y1="10.764" x2="7.337" y2="0.364" gradientUnits="userSpaceOnUse">
      <stop offset="0" stop-color="#0078d4" />
      <stop offset="1" stop-color="#5ea0ef" />
    </linearGradient>
    <linearGradient id="bb0cc2fc-e354-450e-970c-74aa42811ee2" x1="10.275" y1="17.172" x2="10.275" y2="6.222" gradientUnits="userSpaceOnUse">
      <stop offset="0.001" stop-color="#50e6ff" />
      <stop offset="1" stop-color="#9cebff" />
    </linearGradient>
  </defs>
  <g id="a2081b18-de6c-484b-a9bd-d12d77b73f5b">
    <path d="M14.674,7.507a3.3,3.3,0,0,0-2.862-3.169A4.155,4.155,0,0,0,7.533.364,4.263,4.263,0,0,0,3.459,3.142,3.934,3.934,0,0,0,0,6.927a3.993,3.993,0,0,0,4.132,3.837c.123,0,.244-.006.364-.016h6.691a.64.64,0,0,0,.176-.026A3.337,3.337,0,0,0,14.674,7.507Z" fill="url(#e5961ee6-450c-49ba-b9c0-721322cdd147)" />
    <path d="M18,13.742a3.47,3.47,0,0,0-3.013-3.336,4.374,4.374,0,0,0-4.506-4.184A4.49,4.49,0,0,0,6.192,9.146a4.143,4.143,0,0,0-3.641,3.986,4.2,4.2,0,0,0,4.35,4.04c.129,0,.257-.007.383-.017h7.044a.669.669,0,0,0,.186-.028A3.512,3.512,0,0,0,18,13.742Z" fill="url(#bb0cc2fc-e354-450e-970c-74aa42811ee2)" />
    <path d="M10.275,11.13a1.456,1.456,0,0,0-.473.084L6.152,6.4a1.533,1.533,0,1,0-.742.555L9.06,11.77a1.476,1.476,0,1,0,1.215-.64Z" fill="#fff" />
  </g>
</svg>