<svg xmlns="http://www.w3.org/2000/svg" width="18" height="18" viewBox="0 0 18 18"><defs><linearGradient id="adc2ee51-22d7-491a-98b8-ffc01b6bb829" x1="15.637" y1="16.592" x2="15.637" y2="12.866" gradientUnits="userSpaceOnUse"><stop offset="0" stop-color="#50e6ff" /><stop offset="1" stop-color="#9cebff" /></linearGradient><linearGradient id="f4579b4e-74b3-42a3-adaa-73b3f16c6549" x1="2.363" y1="16.592" x2="2.363" y2="12.866" gradientUnits="userSpaceOnUse"><stop offset="0" stop-color="#50e6ff" /><stop offset="1" stop-color="#9cebff" /></linearGradient></defs><g id="ea0bc52d-7684-41b8-8507-e80a258b75a0"><path d="M6.4,5.52l2.2-.891a.169.169,0,0,0,.1-.118V2.291A.179.179,0,0,0,8.6,2.139L6.37,1.382h-.1l-2.186.4a.169.169,0,0,0-.126.152V4.906a.159.159,0,0,0,.126.16L6.3,5.529A.288.288,0,0,0,6.4,5.52Z" /><polygon points="8.725 2.156 8.725 4.603 6.311 5.571 3.906 5.058 3.906 1.778 6.311 1.332 8.725 2.156" fill="#835ef7" /><polygon points="11.517 1.374 9.112 1.82 9.112 5.1 11.517 5.613 13.922 4.637 13.922 2.198 11.517 1.374" fill="#835ef7" /><polygon points="3.848 5.857 1.443 6.302 1.443 9.582 3.848 10.095 6.261 9.128 6.261 6.681 3.848 5.857" fill="#7841e5" /><polygon points="9.036 5.823 6.631 6.269 6.631 9.548 9.036 10.07 11.441 9.094 11.441 6.647 9.036 5.823" fill="#7841e5" /><polygon points="14.224 5.865 11.819 6.311 11.819 9.59 14.224 10.103 16.638 9.136 16.638 6.689 14.224 5.865" fill="#7841e5" /><polygon points="13.863 13.587 13.863 11.289 11.449 10.465 9.044 10.911 9.044 13.587 13.863 13.587" fill="#773adc" /><path d="M3.965,13.587h4.7V11.256l-2.413-.825-2.405.438v2.5A2.323,2.323,0,0,1,3.965,13.587Z" fill="#773adc" /><path d="M3.906,1.778v3.28l2.431.513v-4.2ZM4.932,4.805l-.681-.134V2.148l.681-.11ZM5.992,5,5.21,4.873V1.988l.782-.135Z" fill="#341a6e" /><path d="M9.112,1.82V5.1l2.413.513v-4.2Zm1.017,3.027-.681-.134V2.19l.681-.11Zm1.06.194-.782-.126V2.03l.782-.143Z" fill="#341a6e" /><path d="M1.434,6.3V9.557l2.43.513v-4.2ZM2.452,9.338,1.771,9.2V6.672l.681-.117Zm1.068.219-.782-.126V6.512l.782-.134Z" fill="#341a6e" /><path d="M6.631,6.269V9.557l2.422.513v-4.2ZM7.648,9.305l-.681-.143V6.639l.681-.118Zm1.06.185-.782-.127V6.479l.782-.135Z" fill="#341a6e" /><path d="M11.819,6.311V9.557l2.431.513v-4.2Zm1.026,3.036L12.164,9.2V6.681l.681-.118Zm1.06.185L13.123,9.4V6.521l.782-.135Z" fill="#341a6e" /><path d="M13.774,14.729a1.906,1.906,0,0,1,.039-.38.369.369,0,0,1-.122.038h-9.5a1.925,1.925,0,0,1,.034.342,1.835,1.835,0,0,1-.1.562A.379.379,0,0,1,4.2,15.27H13.69a.382.382,0,0,1,.192.061A1.85,1.85,0,0,1,13.774,14.729Z" fill="#5ea0ef" /><polygon points="9.381 13.587 9.381 11.281 10.062 11.163 10.062 13.587 10.339 13.587 10.339 11.121 11.121 10.987 11.121 13.587 11.466 13.587 11.466 10.465 9.036 10.911 9.036 13.587 9.381 13.587" fill="#341a6e" /><polygon points="4.184 13.587 4.184 11.239 4.865 11.121 4.865 13.587 5.151 13.587 5.151 11.079 5.933 10.944 5.933 13.587 6.278 13.587 6.278 10.431 3.848 10.869 3.848 13.587 4.184 13.587" fill="#341a6e" /><circle cx="15.637" cy="14.729" r="1.863" fill="url(#adc2ee51-22d7-491a-98b8-ffc01b6bb829)" /><circle cx="2.363" cy="14.729" r="1.863" fill="url(#f4579b4e-74b3-42a3-adaa-73b3f16c6549)" /></g></svg>