<svg xmlns="http://www.w3.org/2000/svg" viewBox="0 0 18 18">
  <defs>
    <linearGradient id="abac88c2-036e-41b6-b1b1-8d35332b64ba" x1="9" y1="16.04" x2="9" y2="5.404" gradientUnits="userSpaceOnUse">
      <stop offset="0" stop-color="#3cd4c2" />
      <stop offset="0.137" stop-color="#3fddc5" />
      <stop offset="0.387" stop-color="#41e5c9" />
      <stop offset="0.776" stop-color="#42e8ca" />
    </linearGradient>
  </defs>
  <g id="aef4ee2f-06a4-4124-b03f-eab5ed098dc3">
    <g>
      <path d="M0,5.4H18a0,0,0,0,1,0,0V15.478a.563.563,0,0,1-.562.563H.563A.563.563,0,0,1,0,15.478V5.4A0,0,0,0,1,0,5.4Z" fill="url(#abac88c2-036e-41b6-b1b1-8d35332b64ba)" />
      <path d="M.566,1.568H17.434A.563.563,0,0,1,18,2.13V5.4a0,0,0,0,1,0,0H0a0,0,0,0,1,0,0V2.13A.563.563,0,0,1,.566,1.568Z" fill="#37c2b1" />
      <g>
        <g opacity="0.6">
          <polygon points="9.466 7.627 5.193 11.9 5.363 12.183 5.891 13.04 10.384 8.546 9.466 7.627" fill="#fff" />
          <path d="M10.655,8.275l.97-.969-.7-.7a.306.306,0,0,0-.432,0l-.754.754Z" fill="#fff" />
        </g>
        <g opacity="0.8">
          <polygon points="11.303 9.464 7.03 13.736 6.747 13.566 5.89 13.039 10.384 8.545 11.303 9.464" fill="#fff" />
          <path d="M10.654,8.275l.97-.97.7.7a.307.307,0,0,1,0,.433l-.754.754Z" fill="#fff" />
        </g>
        <path d="M7.029,13.743l-2.346.819a.306.306,0,0,1-.311-.31l.82-2.347.7,1.137Z" fill="#fff" />
      </g>
    </g>
  </g>
</svg>