<svg xmlns="http://www.w3.org/2000/svg" viewBox="0 0 16 16">
  <path d="M7.5,1a8.6,8.6,0,0,1,2.7.5l1.1.4H16V9H12.7l-.9.2-.8.5L6.1,14.6l-.4.3H4.8l-.4-.3-.3-.4a.6.6,0,0,1-.1-.4,5.3,5.3,0,0,1,.1-1.3l.5-1.1a6.279,6.279,0,0,0,.2-.7A6.279,6.279,0,0,0,5,10H.9L.4,9.6.1,9.1A1.3,1.3,0,0,1,0,8.5.9.9,0,0,1,.1,8l2-6a1.8,1.8,0,0,1,.5-.7A1.6,1.6,0,0,1,3.5,1ZM15,3H12.5a8.6,8.6,0,0,1-2.7-.5A5.9,5.9,0,0,0,7.5,2H3.2L3,2.3a4.294,4.294,0,0,0-.1.5l-.3.7-.3,1a7.691,7.691,0,0,1-.4,1.1l-.3,1-.3.9a2.506,2.506,0,0,0-.2.7v.3a.6.6,0,0,0,.1.4H6v.8c0,.2-.1.4-.1.7a1.392,1.392,0,0,1-.2.6.9.9,0,0,1-.3.7l-.3,1a3.094,3.094,0,0,0-.1,1h.4L10.3,9l.5-.4.6-.3A3.094,3.094,0,0,1,12.7,8H15Z" />
</svg>