<svg xmlns="http://www.w3.org/2000/svg" viewBox="0 0 18 18">
  <defs>
    <linearGradient id="b6e75bb1-e60c-4a5a-8031-65423c177f38" x1="7.094" y1="0.916" x2="7.094" y2="13.205" gradientUnits="userSpaceOnUse">
      <stop offset="0" stop-color="#5ea0ef" />
      <stop offset="1" stop-color="#0078d4" />
    </linearGradient>
  </defs>
  <path d="M9.261,13.02a1.274,1.274,0,0,1,.005-.163,1.206,1.206,0,0,1,.93-1.064v-.976A4.041,4.041,0,0,1,11.284,8c.067-.072.136-.142.208-.208a3.752,3.752,0,0,1,2.556-1c.047,0,.092.012.139.014a7.094,7.094,0,1,0-4.926,7.076Z" fill="url(#b6e75bb1-e60c-4a5a-8031-65423c177f38)" />
  <path d="M17.588,12.577h-.5v-1.77a3.264,3.264,0,0,0-.872-2.256,2.954,2.954,0,0,0-4.173-.163c-.057.052-.111.107-.164.163a3.257,3.257,0,0,0-.872,2.256v1.77h-.5a.4.4,0,0,0-.436.358.353.353,0,0,0,0,.065v4.586a.4.4,0,0,0,.4.4h7.116A.4.4,0,0,0,18,17.6V13a.4.4,0,0,0-.373-.423Zm-1.932,0h-3.24V10.782a1.781,1.781,0,0,1,.511-1.246,1.483,1.483,0,0,1,2.094-.125,1.463,1.463,0,0,1,.124.125,1.913,1.913,0,0,1,.2.249h0a1.741,1.741,0,0,1,.311.985Z" fill="#37c2b1" />
  <path d="M10.485,12.577h7.1a.4.4,0,0,1,.262.1L10.223,17.86a.408.408,0,0,1-.149-.3V13a.4.4,0,0,1,.372-.423Z" fill="#3cd4c2" />
  <path d="M17.588,12.577h-7.1a.393.393,0,0,0-.262.1L17.85,17.86a.372.372,0,0,0,.149-.3V13a.4.4,0,0,0-.373-.423Z" fill="#42e8ca" opacity="0.5" />
  <path d="M9.022,7.03,6.105,4.049A.145.145,0,0,0,5.9,4.036a.14.14,0,0,0-.049.113V5.872a.156.156,0,0,1-.155.155H.092A7.111,7.111,0,0,0,0,7.116,7.221,7.221,0,0,0,.082,8.142H5.7A.155.155,0,0,1,5.85,8.3v1.787a.145.145,0,0,0,.141.149.148.148,0,0,0,.114-.049L9.022,7.239a.135.135,0,0,0,.017-.192Z" fill="#fff" opacity="0.8" />
</svg>