<svg xmlns="http://www.w3.org/2000/svg" width="18" height="18" viewBox="0 0 18 18">
  <defs>
    <linearGradient id="feda087b-7758-42f9-830c-863ecaa5cc73" x1="9" y1="-0.09" x2="9" y2="17.967" gradientUnits="userSpaceOnUse">
      <stop offset="0" stop-color="#5ea0ef"/>
      <stop offset="1" stop-color="#0078d4"/>
    </linearGradient>
    <linearGradient id="aedf7f01-3ca5-409f-8353-62300f3a6e80" x1="10.418" y1="6.136" x2="10.418" y2="9.671" gradientUnits="userSpaceOnUse">
      <stop offset="0.214" stop-color="#9cebff"/>
      <stop offset="1" stop-color="#50e6ff"/>
    </linearGradient>
    <linearGradient id="f87bd25b-5c88-4e15-9a40-38e7ad595c92" x1="5.333" y1="7.257" x2="5.333" y2="12.287" gradientUnits="userSpaceOnUse">
      <stop offset="0.132" stop-color="#9cebff"/>
      <stop offset="1" stop-color="#50e6ff"/>
    </linearGradient>
    <linearGradient id="a80e63fe-f9c4-4d52-a16b-ebd3d5a4c46b" x1="-1259.63" y1="828.581" x2="-1259.63" y2="832.691" gradientTransform="translate(-1252.352 845.616) rotate(180)" gradientUnits="userSpaceOnUse">
      <stop offset="0" stop-color="#50e6ff"/>
      <stop offset="0.868" stop-color="#9cebff"/>
    </linearGradient>
    <linearGradient id="b21e1d2d-d041-485d-8113-0e810f4635de" x1="12.362" y1="10.302" x2="12.362" y2="15.448" gradientUnits="userSpaceOnUse">
      <stop offset="0.21" stop-color="#9cebff"/>
      <stop offset="1" stop-color="#50e6ff"/>
    </linearGradient>
  </defs>
  <g id="ab4eec0e-5bbe-4a8a-80ce-10291e8dd974">
    <g>
      <g id="ffd005b6-a46e-4497-b58b-29c7486366e2">
        <g>
          <path d="M16.1,5.794h-4.63a1.043,1.043,0,0,1-.524-.146c-.035-.022-.069-.044-.1-.069a1.036,1.036,0,0,1-.407-.833V.15a.613.613,0,0,0-.4-.15H2.264A.614.614,0,0,0,1.65.615v16.77A.614.614,0,0,0,2.263,18H15.736a.614.614,0,0,0,.614-.615V6.286A.607.607,0,0,0,16.1,5.794Z" fill="url(#feda087b-7758-42f9-830c-863ecaa5cc73)"/>
          <path d="M16.116,5.794H11.472a1.043,1.043,0,0,1-.524-.146c-.035-.022-.069-.044-.1-.069a1.036,1.036,0,0,1-.407-.833V.134Z" fill="#005ba1"/>
        </g>
      </g>
      <g>
        <g>
          <path d="M13.054,8.751v1.713a.172.172,0,0,1-.293.121L11.7,9.519a.086.086,0,0,1-.025-.061V7.845a.238.238,0,0,1,.407-.169l.907.906A.239.239,0,0,1,13.054,8.751Z" fill="#005ba1"/>
          <path d="M13.054,8.652H9.909a.1.1,0,0,0-.1.1V9.825a.093.093,0,0,1-.031.074.1.1,0,0,1-.136,0L7.808,8.047a.1.1,0,0,1,0-.131L9.646,6.051a.1.1,0,1,1,.193.07V7.19a.088.088,0,0,0,.1.078H11.58a.217.217,0,0,1,.153.064Z" fill="url(#aedf7f01-3ca5-409f-8353-62300f3a6e80)"/>
        </g>
        <g>
          <path d="M6.13,7.263H7.843a.172.172,0,0,1,.121.293L6.9,8.622a.086.086,0,0,1-.061.025H5.224a.239.239,0,0,1-.169-.408l.906-.906A.239.239,0,0,1,6.13,7.263Z" fill="#005ba1"/>
          <path d="M6.031,7.263v3.145a.1.1,0,0,0,.1.1H7.2a.1.1,0,0,1,.074.031.1.1,0,0,1,0,.136L5.426,12.509a.1.1,0,0,1-.131,0L3.43,10.671a.1.1,0,1,1,.07-.193H4.569a.088.088,0,0,0,.078-.1V8.737a.22.22,0,0,1,.063-.153Z" fill="url(#f87bd25b-5c88-4e15-9a40-38e7ad595c92)"/>
        </g>
        <g>
          <path d="M4.642,14.187V12.474a.172.172,0,0,1,.293-.121L6,13.419a.086.086,0,0,1,.025.061v1.613a.239.239,0,0,1-.408.169l-.906-.906A.239.239,0,0,1,4.642,14.187Z" fill="#005ba1"/>
          <path d="M4.642,14.286H7.786a.1.1,0,0,0,.1-.1V13.113a.092.092,0,0,1,.031-.074.1.1,0,0,1,.136,0l1.838,1.848a.1.1,0,0,1,0,.131L8.05,16.887a.1.1,0,1,1-.193-.07V15.748a.088.088,0,0,0-.1-.078H6.116a.22.22,0,0,1-.154-.063Z" fill="url(#a80e63fe-f9c4-4d52-a16b-ebd3d5a4c46b)"/>
        </g>
        <g>
          <path d="M11.566,15.675H9.853a.172.172,0,0,1-.121-.293L10.8,14.316a.086.086,0,0,1,.06-.025h1.614a.239.239,0,0,1,.169.408l-.906.906A.239.239,0,0,1,11.566,15.675Z" fill="#005ba1"/>
          <path d="M11.665,15.675V12.531a.1.1,0,0,0-.1-.1H10.492a.092.092,0,0,1-.074-.031.1.1,0,0,1,0-.136l1.848-1.838a.1.1,0,0,1,.132,0l1.865,1.838a.1.1,0,1,1-.071.193H13.127a.087.087,0,0,0-.078.1V14.2a.213.213,0,0,1-.064.153Z" fill="url(#b21e1d2d-d041-485d-8113-0e810f4635de)"/>
        </g>
      </g>
    </g>
  </g>
</svg>
