<svg xmlns="http://www.w3.org/2000/svg" width="18" height="18" viewBox="0 0 18 18">
  <defs>
    <linearGradient id="e191506f-46c0-448e-a76e-0d124f043fbf" x1="5.332" y1="791.647" x2="5.332" y2="773.125" gradientTransform="matrix(1, 0, 0, -1, 0, 791.516)" gradientUnits="userSpaceOnUse">
      <stop offset="0" stop-color="#50e6ff"/>
      <stop offset="1" stop-color="#32bedd"/>
    </linearGradient>
    <linearGradient id="a4e11636-8f10-40f7-afd8-a1a83c7da5e2" x1="5.322" y1="789.542" x2="5.322" y2="775.946" gradientTransform="matrix(1, 0, 0, -1, 0, 791.516)" gradientUnits="userSpaceOnUse">
      <stop offset="0" stop-color="#32bedd"/>
      <stop offset="1" stop-color="#198ab3"/>
    </linearGradient>
    <linearGradient id="b0b2b96c-de69-4183-8883-9ea248770a3e" x1="12.445" y1="786.699" x2="12.445" y2="777.895" gradientTransform="matrix(1, 0, 0, -1, 0, 791.516)" gradientUnits="userSpaceOnUse">
      <stop offset="0.015" stop-color="#a67af4"/>
      <stop offset="0.974" stop-color="#773adc"/>
    </linearGradient>
  </defs>
  <g id="a840a95f-850f-455f-8b0f-2e88bf19b8f2">
    <g>
      <g>
        <path d="M10.4,1.042v3.4H7.738a.96.96,0,0,0-.96.873v6.454a.961.961,0,0,0,.96.883H10.4v4.309a.509.509,0,0,1-.514.505H.77a.5.5,0,0,1-.5-.5V1.042a.507.507,0,0,1,.5-.5H9.883A.516.516,0,0,1,10.4,1.042Z" fill="url(#e191506f-46c0-448e-a76e-0d124f043fbf)"/>
        <path d="M5.021,16.15h.6a.27.27,0,0,1,.269.269h0v.429a.269.269,0,0,1-.269.269h-.6a.269.269,0,0,1-.269-.269h0v-.429a.27.27,0,0,1,.269-.269ZM4.156,1.256v.01a.15.15,0,0,0,.15.15H6.338a.149.149,0,0,0,.149-.15v-.01a.149.149,0,0,0-.149-.15H4.306a.15.15,0,0,0-.15.15Z" fill="#198ab3"/>
        <path d="M9.437,2.158V4.439h-1.7a.96.96,0,0,0-.96.873v6.454a.961.961,0,0,0,.96.883h1.7v2.737a.186.186,0,0,1-.188.184H1.4a.186.186,0,0,1-.194-.178V2.158A.194.194,0,0,1,1.4,1.974H9.243A.194.194,0,0,1,9.437,2.158Z" fill="url(#a4e11636-8f10-40f7-afd8-a1a83c7da5e2)"/>
      </g>
      <path d="M17.734,5.351v6.386a.572.572,0,0,1-.572.524H13.29a.137.137,0,0,0-.059.019l-.786.524-.864.573-.31.2a.2.2,0,0,1-.1.038.214.214,0,0,1-.233-.184V12.358a.09.09,0,0,0-.091-.088H7.738a.588.588,0,0,1-.582-.533V5.351a.6.6,0,0,1,.582-.534h9.424A.586.586,0,0,1,17.734,5.351Z" fill="#fff"/>
      <path d="M17.734,5.351v6.386a.572.572,0,0,1-.572.524H13.29a.137.137,0,0,0-.059.019l-.786.524-.864.573-.31.2a.2.2,0,0,1-.1.038.214.214,0,0,1-.233-.184V12.358a.09.09,0,0,0-.091-.088H7.738a.588.588,0,0,1-.582-.533V5.351a.6.6,0,0,1,.582-.534h9.424A.586.586,0,0,1,17.734,5.351Z" fill="url(#b0b2b96c-de69-4183-8883-9ea248770a3e)"/>
      <path d="M10.152,7.96H9.757l-.194-.551H8.71l-.187.551H8.13l.811-2.167h.4Zm-.685-.845-.3-.864a1.059,1.059,0,0,1-.028-.136H9.132a.775.775,0,0,1-.031.136l-.3.864Z" fill="#fff"/>
      <path d="M11.865,7.96V5.793h.687a.815.815,0,0,1,.5.137.427.427,0,0,1,.184.359.514.514,0,0,1-.1.32.568.568,0,0,1-.289.194v.006a.569.569,0,0,1,.358.165.5.5,0,0,1,.133.364.546.546,0,0,1-.219.45.865.865,0,0,1-.553.172Zm.358-1.879V6.7h.233a.447.447,0,0,0,.294-.088.307.307,0,0,0,.106-.25q0-.279-.372-.279Zm0,.906v.686h.307a.465.465,0,0,0,.31-.093.318.318,0,0,0,.11-.256q0-.337-.467-.337Z" fill="#fff"/>
      <path d="M16.661,7.87A1.323,1.323,0,0,1,16.052,8a1,1,0,0,1-.756-.3,1.084,1.084,0,0,1-.284-.782,1.139,1.139,0,0,1,.319-.84,1.093,1.093,0,0,1,.808-.32,1.316,1.316,0,0,1,.522.089V6.2a.939.939,0,0,0-.484-.13.758.758,0,0,0-.571.226.828.828,0,0,0-.218.6.79.79,0,0,0,.2.571.712.712,0,0,0,.537.212.959.959,0,0,0,.532-.145Z" fill="#fff"/>
      <path d="M9.351,8.984V11.2H9V9.413a1.177,1.177,0,0,1-.205.116,1.742,1.742,0,0,1-.25.083v-.3c.058-.019.115-.039.169-.06s.108-.045.161-.071.107-.056.16-.088.11-.069.167-.11Z" fill="#fff"/>
      <path d="M13.025,11.187h-1.36V11.02a.634.634,0,0,1,.029-.193.738.738,0,0,1,.077-.169.951.951,0,0,1,.113-.15c.043-.047.09-.092.139-.136s.1-.086.151-.127.1-.082.151-.123.089-.078.127-.116a.809.809,0,0,0,.1-.117.525.525,0,0,0,.063-.128.456.456,0,0,0,.023-.146.386.386,0,0,0-.027-.15.274.274,0,0,0-.074-.107.3.3,0,0,0-.112-.065.436.436,0,0,0-.142-.022.647.647,0,0,0-.271.062.9.9,0,0,0-.264.186V9.182a.954.954,0,0,1,.134-.087.8.8,0,0,1,.141-.062A.823.823,0,0,1,12.174,9a1.167,1.167,0,0,1,.171-.012.85.85,0,0,1,.266.038.563.563,0,0,1,.2.114.49.49,0,0,1,.131.186.666.666,0,0,1,.046.257.824.824,0,0,1-.032.237.761.761,0,0,1-.093.195,1,1,0,0,1-.144.173q-.084.081-.189.168c-.058.047-.117.093-.175.138s-.11.089-.156.131a.767.767,0,0,0-.113.129.236.236,0,0,0-.043.129v.008h.978Z" fill="#fff"/>
      <path d="M15.272,11.107v-.329a.747.747,0,0,0,.477.168.555.555,0,0,0,.346-.1.316.316,0,0,0,.129-.266c0-.246-.188-.368-.564-.368h-.168V9.931h.161q.5,0,.5-.347,0-.321-.39-.321a.64.64,0,0,0-.41.156V9.108a1.044,1.044,0,0,1,.522-.124.7.7,0,0,1,.462.145.461.461,0,0,1,.174.372.53.53,0,0,1-.435.55v.006a.571.571,0,0,1,.37.164.487.487,0,0,1,.136.353.58.58,0,0,1-.219.471.886.886,0,0,1-.577.179A.981.981,0,0,1,15.272,11.107Z" fill="#fff"/>
    </g>
  </g>
</svg>
