<svg xmlns="http://www.w3.org/2000/svg" width="18" height="18" viewBox="0 0 18 18"><defs><linearGradient id="bd39efe0-8fc1-45c2-a781-47b3ed056cc7" x1="13.201" y1="10.181" x2="13.201" y2="1.855" gradientUnits="userSpaceOnUse"><stop offset="0" stop-color="#32bedd" /><stop offset="0.335" stop-color="#39c7e5" /><stop offset="0.885" stop-color="#4be0fa" /><stop offset="1" stop-color="#50e6ff" /></linearGradient><clipPath id="a0aafa0b-f359-43fa-a3ab-2d7ffa898416"><path d="M12.18,9.281a.287.287,0,0,1-.143-.249c0-.794,0-1.989,0-2.425a.289.289,0,0,0-.146-.251l-2.112-1.2A.288.288,0,0,1,9.632,4.9V2.462a.291.291,0,0,0-.145-.25L7.372.991a.29.29,0,0,0-.288,0L.168,4.965a.286.286,0,0,0-.145.249L0,13.194a.29.29,0,0,0,.144.25l6.922,4a.287.287,0,0,0,.289,0l6.922-4a.287.287,0,0,0,.145-.25V10.756a.291.291,0,0,0-.143-.25Z" fill="none" /></clipPath><linearGradient id="b03fe107-c7e2-4713-84b2-80a158d49b8c" x1="3.606" y1="6.408" x2="3.606" y2="16.241" gradientUnits="userSpaceOnUse"><stop offset="0" stop-color="#5ea0ef" /><stop offset="1" stop-color="#0078d4" /></linearGradient></defs><g id="f02443ae-009b-43c6-9c4a-9a0784d3c187"><g><path d="M10.789,1.855V4.474a.29.29,0,0,0,.144.25L13.1,5.976a.145.145,0,0,1,.073.125V8.644a.288.288,0,0,0,.147.252l2.29,1.285-.022-5.6Z" fill="url(#bd39efe0-8fc1-45c2-a781-47b3ed056cc7)" /><path d="M15.591,4.583l.022,5.6,2.244-1.294A.288.288,0,0,0,18,8.638V3.243Z" fill="#198ab3" /><path d="M13.066.559l-2.277,1.3,4.8,2.728L18,3.243,13.353.56A.286.286,0,0,0,13.066.559Z" fill="#9cebff" /><path d="M17.856,3.159a.29.29,0,0,1,.144.25V8.638a.288.288,0,0,1-.143.249l-2.1,1.212a.289.289,0,0,1-.286,0L13.323,8.9a.288.288,0,0,1-.147-.252V6.185a.289.289,0,0,0-.145-.25l-2.1-1.211a.29.29,0,0,1-.144-.25V2.023a.289.289,0,0,1,.146-.251L13.066.559a.286.286,0,0,1,.287,0Z" fill="none" /><g clip-path="url(#a0aafa0b-f359-43fa-a3ab-2d7ffa898416)"><g><path d="M0,5,7.211,9.184V17.49L.145,13.41A.286.286,0,0,1,0,13.16Z" fill="url(#b03fe107-c7e2-4713-84b2-80a158d49b8c)" /><polygon points="7.211 3.66 9.632 5.038 9.632 2.262 7.211 3.66" fill="#005ba1" /><path d="M0,5.028,7.084.957a.288.288,0,0,1,.288,0l2.26,1.3-2.2,1.272a.144.144,0,0,0,0,.25l4.605,2.622L7.211,9.191Z" fill="#83b9f9" /><polygon points="14.422 10.581 12.033 9.185 11.588 12.654 14.422 10.581" fill="#83b9f9" /><path d="M14.419,10.579v2.6a.289.289,0,0,1-.145.25l-7.066,4.08V9.206l4.827-2.8c0,1.305,0,3.858,0,5.3a.144.144,0,0,0,.217.124Z" fill="#005ba1" /></g></g></g></g></svg>