<svg id="uuid-d2afd96d-5e9e-4528-ab4f-f9e38a63b559" xmlns="http://www.w3.org/2000/svg" width="18" height="18" viewBox="0 0 18 18">
  <defs>
    <linearGradient id="uuid-fe24a5a3-1c24-44d7-a329-e8e1a116f544" x1="3.169" y1="771.178" x2="3.169" y2="785.516" gradientTransform="translate(4 785.516) scale(1 -1)" gradientUnits="userSpaceOnUse">
      <stop offset="0" stop-color="#005ba1"/>
      <stop offset=".168" stop-color="#0063ae"/>
      <stop offset=".577" stop-color="#0072ca"/>
      <stop offset=".815" stop-color="#0078d4"/>
    </linearGradient>
  </defs>
  <g id="uuid-84d470f0-1726-4562-983c-647e8f109457">
    <g>
      <circle cx="7.169" cy="7.169" r="7.169" fill="url(#uuid-fe24a5a3-1c24-44d7-a329-e8e1a116f544)"/>
      <g id="uuid-2b6bcb1a-f019-4e42-8d47-75b9e8d685d2">
        <g id="uuid-ca60f4a6-d7f5-49e0-ac64-c0b9a10ecfd8">
          <g id="uuid-69d26724-e1e7-4406-82da-60bc420572ea">
            <path id="uuid-20aa0bf0-6c40-42cf-bce9-29f6a8eb8861" d="m10.581,5.174v3.972l-3.426,1.993v-3.977l3.426-1.988Z" fill="#32bedd"/>
          </g>
          <g id="uuid-c8b0d9d3-58a7-4f32-ba1f-dc12384d0fdc">
            <path id="uuid-779fbb3d-e73b-416e-924f-d447d23ab286" d="m10.581,5.174l-3.421,1.995-3.426-1.995,3.426-1.993,3.421,1.993Z" fill="#9cebff"/>
          </g>
          <g id="uuid-26b82d40-dbe2-4104-9daa-a4691b050964">
            <path id="uuid-42ed539a-1a82-4aae-9333-e0f77668977c" d="m7.155,7.169v3.972l-3.421-1.995v-3.972l3.421,1.995Z" fill="#50e6ff"/>
          </g>
          <path id="uuid-8a0f0407-a0e7-4e54-a067-95efaa05962d" d="m3.735,9.146l3.421-1.984v3.977l-3.421-1.993Z" fill="#9cebff"/>
          <path id="uuid-3ccbfdc8-90f3-48f9-9e40-09aa04de56ee" d="m10.581,9.146l-3.426-1.984v3.977l3.426-1.993Z" fill="#50e6ff"/>
        </g>
      </g>
    </g>
  </g>
  <g>
    <circle cx="13.5" cy="13.5" r="4.5" fill="#76bc2d"/>
    <path d="m15.734,10.982c.002-.088.075-.157.163-.155,0,0,0,0,.001,0l.373.01c.088.003.157.076.155.164l-.047,1.756c-.002.088-.075.157-.163.155,0,0,0,0-.001,0l-1.756-.047c-.088-.002-.157-.075-.155-.163,0,0,0,0,0-.001l.01-.373c.003-.088.076-.157.164-.155l.521.014c-.177-.184-.386-.332-.618-.438-.232-.107-.484-.165-.739-.171-.185-.007-.37.014-.549.062-.177.049-.346.12-.504.214-.157.094-.301.209-.427.343-.094.1-.178.21-.25.328-.044.068-.133.092-.205.055l-.695-.353c.124-.244.283-.468.472-.666.186-.196.398-.365.63-.504.231-.138.481-.243.742-.313.644-.17,1.328-.11,1.933.169.352.162.667.393.928.68l.018-.608Zm-.718,3.887c-.127.133-.271.248-.429.341-.158.093-.327.165-.503.213-.428.117-.883.08-1.286-.105-.232-.106-.441-.255-.618-.438l.521.014c.088.002.161-.067.164-.155l.01-.373c.003-.088-.066-.161-.153-.164,0,0,0,0-.001,0l-1.756-.048c-.088-.002-.161.067-.163.155l-.047,1.756c-.003.088.066.161.153.164,0,0,0,0,.001,0l.373.01c.088.002.161-.067.163-.155l.017-.607c.26.286.576.517.927.679.605.279,1.289.338,1.933.169.26-.07.51-.175.741-.313.232-.139.444-.308.63-.504.151-.158.283-.333.393-.522.043-.076.016-.171-.06-.214-.002-.001-.005-.003-.007-.004l-.548-.278c-.072-.038-.162-.014-.206.055-.072.116-.157.224-.253.322l.005.003Z" fill="#fff"/>
  </g>
</svg>