<svg id="uuid-3f2fb681-8846-4ef2-bc0c-5cdca10a0767" xmlns="http://www.w3.org/2000/svg" width="18" height="18" viewBox="0 0 18 18">
  <g>
    <path d="m3.603,0H.601C.28-.011.011.24,0,.56c0,.01,0,.02,0,.03v3.002C0,3.753.13,3.883.29,3.883h.33c.16.006.295-.12.3-.28,0-.003,0-.007,0-.01V.881h2.682c.16.006.295-.12.3-.28,0-.003,0-.007,0-.01v-.29c.006-.16-.12-.295-.28-.3-.007,0-.014,0-.02,0Z" fill="#949494"/>
    <path d="m17.37.005h-3.002c-.166,0-.3.134-.3.3h0v.32c.02.15.149.262.3.26h2.692v2.702c-.006.16.119.295.279.301.01,0,.021,0,.031,0h.33c.16.006.295-.12.3-.28,0-.003,0-.007,0-.01V.595h0c0-.326-.263-.591-.589-.592-.014,0-.028,0-.041.001Z" fill="#949494"/>
    <path d="m3.603,17.108H.921v-2.702c0-.16-.13-.29-.29-.29-.003,0-.007,0-.01,0h-.33C.13,14.116,0,14.246,0,14.406v3.002H0c-.006.321.25.585.57.59.003,0,.007,0,.01,0h3.002c.16.006.295-.12.3-.28,0-.003,0-.007,0-.01v-.32c-.01-.151-.13-.27-.28-.28Z" fill="#949494"/>
    <path d="m17.699,14.097h-.29c-.16,0-.29.13-.29.29h0v2.702h-2.712c-.164.005-.295.137-.3.3v.32c.005.162.138.29.3.29h3.002c.326,0,.59-.264.59-.59h0v-3.002c.011-.16-.109-.299-.269-.31-.01,0-.021,0-.031,0Z" fill="#949494"/>
  </g>
  <g id="uuid-ac313cb4-fed0-4d2f-8b4b-867bb65b1768">
    <path d="m11.375,10.255l.012.004-.012-.004Z"/>
    <path d="m11.375,11.513l.012.004-.012-.004Z"/>
    <path d="m11.375,6.481l.012.004-.012-.004Z"/>
    <path d="m11.375,7.739l.012.004-.012-.004Z"/>
    <g>
      <ellipse cx="9.014" cy="9.771" rx="4.507" ry="1.061" fill="#32bedd"/>
      <path d="m13.52,11.859v-2.088h0c0,.586-2.018,1.061-4.507,1.061s-4.507-.475-4.507-1.061v2.137c0,.586,2.018,1.061,4.507,1.061,2.437,0,4.421-.455,4.503-1.025h0v-.085h.004Z" fill="#0078d4"/>
    </g>
    <g>
      <path d="m9,7.058c-2.461,0-4.461-.465-4.503-1.042h-.004v2.117c0,.586,2.018,1.061,4.507,1.061,2.437,0,4.421-.455,4.503-1.025h0v-.037c0-.006,0-.013,0-.019v-.03h0v-2.088c.004.586-2.014,1.061-4.503,1.061Z" fill="#5ea0ef"/>
      <ellipse cx="9" cy="5.997" rx="4.507" ry="1.061" fill="#9cebff"/>
    </g>
  </g>
</svg>