<svg xmlns="http://www.w3.org/2000/svg" width="18" height="18" viewBox="0 0 18 18">
  <defs>
    <linearGradient id="a3bfcafe-75fb-4ac5-9372-a2693e3a61e9" x1="9.002" y1="793.43" x2="9.002" y2="765.592" gradientTransform="matrix(1, 0, 0, -1, 0, 791.516)" gradientUnits="userSpaceOnUse">
      <stop offset="0" stop-color="#37c2b1"/>
      <stop offset="1" stop-color="#258277"/>
    </linearGradient>
  </defs>
  <path d="M16.367,8.4c0,4.842-5.852,8.739-7.124,9.529a.462.462,0,0,1-.486,0c-1.272-.79-7.124-4.687-7.124-9.529V2.583a.464.464,0,0,1,.453-.462C6.637,2,5.589,0,9,0s2.36,2,6.911,2.121a.464.464,0,0,1,.453.462Z" fill="#37c2b1"/>
  <path d="M15.755,8.456c0,4.44-5.366,8.014-6.532,8.739a.422.422,0,0,1-.446,0c-1.167-.725-6.532-4.3-6.532-8.739V3.115a.423.423,0,0,1,.414-.423C6.833,2.579,5.872.747,9,.747s2.167,1.832,6.34,1.945a.423.423,0,0,1,.415.423Z" fill="url(#a3bfcafe-75fb-4ac5-9372-a2693e3a61e9)"/>
  <path d="M4.824,3.966a.784.784,0,0,0-.693.357,1.894,1.894,0,0,0-.24,1.053,1.714,1.714,0,0,0,.23.97.736.736,0,0,0,.641.335.787.787,0,0,0,.684-.351,1.773,1.773,0,0,0,.245-1.018Q5.691,3.967,4.824,3.966ZM4.8,6.344q-.469,0-.469-.986,0-1.053.478-1.053.452,0,.452,1.037Q5.256,6.344,4.8,6.344ZM7.229,3.951h.18V6.637H6.984V4.471a1.318,1.318,0,0,1-.249.14,1.916,1.916,0,0,1-.3.1V4.35c.071-.023.139-.047.2-.073s.131-.054.2-.086.129-.067.2-.106S7.16,4,7.229,3.951Zm1.96,0h.18V6.637H8.944V4.471a1.318,1.318,0,0,1-.249.14,1.916,1.916,0,0,1-.3.1V4.35c.071-.023.139-.047.205-.073s.131-.054.2-.086.128-.067.194-.106S9.12,4,9.189,3.951Zm2.088.015a.783.783,0,0,0-.692.357,1.894,1.894,0,0,0-.24,1.053,1.706,1.706,0,0,0,.23.97.733.733,0,0,0,.64.335A.789.789,0,0,0,11.9,6.33a1.774,1.774,0,0,0,.244-1.018Q12.144,3.967,11.277,3.966Zm-.029,2.378q-.469,0-.469-.986,0-1.053.478-1.053.453,0,.453,1.037Q11.71,6.344,11.248,6.344Zm2.614-2.393V6.637h-.425V4.471a1.341,1.341,0,0,1-.248.14,1.987,1.987,0,0,1-.3.1V4.35c.071-.023.139-.047.205-.073s.131-.054.2-.086.129-.067.194-.106.133-.084.2-.134Z" fill="#fff"/>
  <path d="M6.942,11.493h.18v2.686H6.7V12.013a1.341,1.341,0,0,1-.248.14,1.965,1.965,0,0,1-.3.1v-.363c.071-.023.14-.047.206-.073s.131-.054.2-.086.129-.067.194-.106S6.873,11.543,6.942,11.493Zm1.758.134c-.065.039-.13.074-.194.106s-.129.06-.2.086-.135.05-.206.073v.363a1.965,1.965,0,0,0,.3-.1,1.341,1.341,0,0,0,.248-.14v2.166h.425V11.493H8.9C8.833,11.543,8.765,11.588,8.7,11.627Zm3.157,1.227a1.774,1.774,0,0,1-.244,1.018.787.787,0,0,1-.685.351.734.734,0,0,1-.64-.335,1.714,1.714,0,0,1-.23-.97,1.894,1.894,0,0,1,.24-1.053.784.784,0,0,1,.693-.357Q11.858,11.508,11.857,12.854Zm-.434.03q0-1.038-.452-1.037-.479,0-.479,1.053,0,.986.469.986T11.423,12.884Z" fill="#fff" opacity="0.8"/>
  <path d="M5.676,7.722h.179v2.686H5.43V8.242a1.406,1.406,0,0,1-.248.141,2.107,2.107,0,0,1-.3.1V8.121c.07-.023.139-.047.205-.073a2.1,2.1,0,0,0,.2-.086c.064-.032.129-.067.194-.106S5.606,7.772,5.676,7.722ZM8.631,9.083A1.773,1.773,0,0,1,8.386,10.1a.787.787,0,0,1-.684.351.736.736,0,0,1-.641-.335,1.714,1.714,0,0,1-.23-.97,1.894,1.894,0,0,1,.24-1.053.784.784,0,0,1,.693-.357Q8.631,7.737,8.631,9.083Zm-.435.03q0-1.038-.452-1.037-.479,0-.478,1.053,0,.986.469.986T8.2,9.113ZM9.967,7.856c-.066.039-.13.074-.194.106s-.13.061-.2.086-.134.05-.205.073v.363a2.027,2.027,0,0,0,.3-.1,1.38,1.38,0,0,0,.249-.141v2.166h.425V7.722h-.18C10.1,7.772,10.032,7.817,9.967,7.856Zm3.157,1.227A1.774,1.774,0,0,1,12.88,10.1a.789.789,0,0,1-.685.351.734.734,0,0,1-.64-.335,1.714,1.714,0,0,1-.23-.97,1.894,1.894,0,0,1,.24-1.053.783.783,0,0,1,.692-.357Q13.124,7.737,13.124,9.083Zm-.434.03q0-1.038-.453-1.037-.477,0-.478,1.053,0,.986.469.986T12.69,9.113Z" fill="#fff" opacity="0.9"/>
</svg>
