<svg xmlns="http://www.w3.org/2000/svg" viewBox="0 0 18 18">
  <title>Icon212-Token</title>
  <g>
    <g>
      <polygon points="13.28 3.61 13.28 10.6 7.27 14.12 7.27 7.11 13.28 3.61" fill="#773adc" />
      <polygon points="13.28 3.61 7.27 7.12 1.26 3.61 7.27 0.09 13.28 3.61" fill="#b796f9" />
      <polygon points="7.27 7.12 7.27 14.12 1.26 10.6 1.26 3.61 7.27 7.12" fill="#a67af4" />
    </g>
    <path d="M11.66,13.1s0,.06,0,.1,0,.05,0,.08l0,.09,0,.08-.05.1-.08.13v0a.69.69,0,0,1-.11.13l0,0-.13.13-.1.08-.09.07-.11.07-.12.08-.3.15-.09,0-.25.09-.09,0-.16.05-.12,0-.18,0-.12,0-.36.05H8l-.16,0-.14,0-.17,0-.13,0-.2-.05-.11,0a2.3,2.3,0,0,1-.34-.12l-.16-.06-.08,0-.23-.12A1.58,1.58,0,0,1,5.35,13v1.4a1.56,1.56,0,0,0,.93,1.31l.23.12.08,0a.84.84,0,0,0,.14.06h0l.34.12h0l.08,0,.19.05h.06l.08,0,.16,0h.14l.16,0h.76l.22,0h.11l.36-.05h0l.1,0,.17,0,.13,0L10,16h0l.06,0,.25-.09.09,0,.3-.15,0,0,.09-.05.11-.08.09-.07.09-.08h0l.12-.12,0,0,.06-.07,0-.06,0,0,.07-.11v0a.36.36,0,0,0,0-.09l0-.06v0a.3.3,0,0,0,0-.1.14.14,0,0,0,0-.06v0s0-.06,0-.1V13S11.66,13.07,11.66,13.1Z" fill="#32bedd" />
    <path d="M10.74,11.7c1.23.72,1.24,1.88,0,2.59a4.93,4.93,0,0,1-4.47,0,1.37,1.37,0,0,1,0-2.59A5,5,0,0,1,10.74,11.7Z" fill="#50e6ff" />
    <g>
      <path d="M16.73,14.77a.31.31,0,0,1,0,.1.19.19,0,0,1,0,.08s0,.07,0,.1a.59.59,0,0,0,0,.08l0,.09-.08.14,0,0-.1.13,0,0a.86.86,0,0,1-.14.13l-.09.08-.09.07-.12.08-.12.08-.29.15-.09,0-.25.09-.09,0-.17,0-.12,0-.17,0-.12,0-.36,0H14l-.21,0h-.76l-.16,0-.14,0-.17,0-.13,0-.19-.05-.11,0-.34-.12-.16-.07-.08,0L11.36,16a1.58,1.58,0,0,1-.94-1.31v1.41a1.58,1.58,0,0,0,.93,1.3,1.27,1.27,0,0,0,.23.12l.09,0,.14.06h0l.33.11h0l.08,0,.2.05h0l.08,0,.17,0,.06,0h.08l.16,0h1.08l.36-.05h0l.1,0,.18,0,.12,0,.16,0h0l0,0,.25-.1.09,0a1.4,1.4,0,0,0,.3-.15l0,0,.08-.06a.41.41,0,0,0,.11-.07.71.71,0,0,0,.09-.07l.1-.08,0,0,.11-.11,0,0s.05,0,.06-.07l.05-.06v0a.41.41,0,0,0,.07-.11v0s0-.07.05-.1l0-.06v0l0-.09a.14.14,0,0,1,0-.06v0s0-.07,0-.1,0,0,0-.06V14.68A.28.28,0,0,1,16.73,14.77Z" fill="#32bedd" />
      <path d="M15.81,13.38a1.37,1.37,0,0,1,0,2.59,4.94,4.94,0,0,1-4.46,0c-1.24-.72-1.25-1.88,0-2.59A4.9,4.9,0,0,1,15.81,13.38Z" fill="#50e6ff" />
    </g>
    <g>
      <path d="M16.74,11.62a.28.28,0,0,1,0,.09.34.34,0,0,1,0,.1.24.24,0,0,1,0,.08s0,.06,0,.1l0,.07a1,1,0,0,1,0,.1l-.08.13,0,0a1.47,1.47,0,0,0-.1.13l0,0-.14.13-.09.08-.09.07-.12.08-.12.07a1.59,1.59,0,0,1-.29.15l-.09,0-.25.1-.09,0-.17,0-.12,0-.18,0-.11,0-.36.05h-.94l-.15,0h-.16l-.14,0-.17,0-.13,0-.19-.05-.11,0-.34-.11-.16-.07-.08,0a1,1,0,0,1-.23-.12,1.58,1.58,0,0,1-.94-1.3V13a1.58,1.58,0,0,0,.93,1.3l.23.12.09,0,.14.06h0l.33.12h0l.08,0,.2.05h.13l.17,0h.14l.16,0h.76l.21,0h.11l.36-.05h0l.1,0,.18,0,.12,0,.16-.05h0l0,0,.25-.09.09,0,.3-.15,0,0,.08-.06.11-.07.09-.07.1-.08,0,0,.11-.11,0,0,.06-.07.05-.06v0l.07-.11v0l.05-.1,0-.06v0l0-.09a.25.25,0,0,1,0-.07h0s0-.07,0-.1,0,0,0-.07v0h0Z" fill="#32bedd" />
      <ellipse cx="13.58" cy="11.61" rx="1.83" ry="3.16" transform="translate(1.93 25.16) rotate(-89.84)" fill="#50e6ff" />
    </g>
  </g>
</svg>