<svg xmlns="http://www.w3.org/2000/svg" width="18" height="18" viewBox="0 0 18 18">
  <g id="uuid-890d398f-95ba-4635-97ff-7a31aef638b9"/>
  <g id="uuid-452ab9b9-81d1-4c92-b4ec-8c4d8a3acc79"/>
    <g>
      <path d="M3.289,10.29c.057-.003,.109-.035,.138-.085l2.055-3.696c.031-.06,.08-.109,.14-.14,.161-.084,.359-.021,.443,.14l1.504,3.484c.017,.036,.046,.065,.082,.082,.085,.04,.186,.003,.225-.082l1.758-5.242c.032-.068,.087-.123,.156-.156,.164-.078,.36-.008,.437,.156l1.832,3.484c.013,.021,.031,.039,.052,.052,.079,.05,.184,.027,.234-.052l1.281-2.213c.032-.044,.083-.072,.138-.074h4.238c-.044-1.844-.623-5.157-4.397-5.45-2.039-.152-3.925,1.087-4.596,3.018C8.325,1.57,6.414,.329,4.358,.499,.175,.827-.047,4.968,.006,6.556c0,.582,.098,1.826,1.359,3.734h1.923Z"/>
      <path d="M14.525,7.251c-.057,.003-.109,.035-.138,.085l-1.97,3.315c-.03,.056-.076,.102-.132,.132-.155,.082-.347,.023-.43-.132l-1.546-2.933c-.016-.042-.049-.075-.091-.091-.082-.032-.174,.009-.205,.091l-1.853,5.507c-.033,.088-.103,.158-.191,.191-.17,.064-.359-.021-.423-.191l-1.758-4.088c-.015-.028-.038-.051-.066-.066-.082-.045-.185-.016-.23,.066l-1.281,2.362c-.023,.055-.078,.089-.138,.085h-1.75c1.327,1.613,3.41,3.588,6.685,5.935,7.349-5.265,8.673-8.663,8.926-10.266h-3.408Z"/>
    </g>
  </g>
</svg>