<svg xmlns="http://www.w3.org/2000/svg" width="18" height="18" viewBox="0 0 18 18"><defs><linearGradient id="fedc41ff-9fa7-4117-827c-e48ad2ddee76" x1="9.103" y1="774.983" x2="9.103" y2="793.556" gradientTransform="matrix(1, 0, 0, -1, 0, 791.516)" gradientUnits="userSpaceOnUse"><stop offset="0" stop-color="#0078d4" /><stop offset="1" stop-color="#5ea0ef" /></linearGradient></defs><g id="bc724073-0dba-48b3-b05c-e97dda76f73b"><g><path d="M17.581,12.775c-.1.645-1.034,1.009-1.565,1.2-1.622.591-13.466.409-14.827-.376-.04-.022-.075-.045-.113-.068L1.015,13.5c-.055-.036-.1-.073-.153-.11a.953.953,0,0,1-.454-.72v2.327c0,1.043,2.021,1.465,2.768,1.657a19.977,19.977,0,0,0,3.818.529,27.68,27.68,0,0,0,7.774-.5c.848-.191,2.476-.549,2.794-1.495a.814.814,0,0,0,.019-.1v-2.4C17.582,12.714,17.582,12.745,17.581,12.775Z" fill="#5e9624" /><ellipse cx="9" cy="12.675" rx="2.251" ry="8.586" transform="translate(-3.685 21.661) rotate(-89.936)" fill="#76bc2d" /><path d="M11.384,14.243c-3.9.287-8.13-.179-9.449-1.05s.777-1.8,4.677-2.091,8.128.18,9.449,1.05S15.282,13.954,11.384,14.243Z" fill="#f2f2f2" /><path d="M17.713,9.125a3.872,3.872,0,0,0-3.358-3.719A4.876,4.876,0,0,0,9.332.743,5.164,5.164,0,0,0,4.476,4.077,4.474,4.474,0,0,0,.493,8.445a4.684,4.684,0,0,0,4.848,4.5c.145,0,.291-.006.427-.018h7.853a.763.763,0,0,0,.207-.031A3.913,3.913,0,0,0,17.713,9.125Z" fill="url(#fedc41ff-9fa7-4117-827c-e48ad2ddee76)" /><path d="M.287,8.51A4.4,4.4,0,0,1,4.641,4.072h.084A4.4,4.4,0,0,1,9.162,8.428v4.519H4.725A4.394,4.394,0,0,1,.287,8.6C.286,8.567.286,8.539.287,8.51Z" fill="#50e6ff" fill-rule="evenodd" /><polygon points="6.556 8.043 6.556 6.146 4.914 5.198 3.273 6.146 3.273 8.043 4.914 8.991 6.556 8.043" fill="#fff" opacity="0.55" /><polygon points="6.244 7.863 6.244 6.326 4.914 5.558 3.584 6.326 3.584 7.863 4.914 8.63 6.244 7.863" fill="#fff" opacity="0.9" /><polygon points="4.914 10.874 4.914 8.978 3.273 8.03 1.631 8.978 1.631 10.874 3.273 11.822 4.914 10.874" fill="#fff" opacity="0.55" /><polygon points="4.602 10.694 4.602 9.158 3.273 8.39 1.942 9.158 1.942 10.694 3.273 11.462 4.602 10.694" fill="#fff" opacity="0.9" /><polygon points="8.198 10.874 8.198 8.978 6.556 8.03 4.914 8.978 4.914 10.874 6.556 11.822 8.198 10.874" fill="#fff" opacity="0.55" /><polygon points="7.886 10.694 7.886 9.158 6.556 8.39 5.226 9.158 5.226 10.694 6.556 11.462 7.886 10.694" fill="#fff" opacity="0.8" /><path d="M6.627,9.884,5.19,7.411a.417.417,0,0,0-.276-.733.416.416,0,0,0-.276.732L3.2,9.884l.142.083L4.781,7.488a.341.341,0,0,0,.266,0L6.483,9.967Z" fill="#32bedd" /><path d="M3.693,9.928a.422.422,0,1,1-.422-.42h0a.42.42,0,0,1,.42.42Zm2.863-.42a.421.421,0,1,0,.421.422v0a.421.421,0,0,0-.419-.422h0Z" fill="#32bedd" /></g></g></svg>