<svg xmlns="http://www.w3.org/2000/svg" width="18" height="18" viewBox="0 0 18 18">
  <defs>
    <linearGradient id="a6da33f5-4dd0-4936-ad62-fb750f8f1a51" x1="9.018" y1="17.647" x2="8.634" y2="2.207" gradientUnits="userSpaceOnUse">
      <stop offset="0" stop-color="#0078d4"/>
      <stop offset="1" stop-color="#5ea0ef"/>
    </linearGradient>
  </defs>
  <g id="ae114dc6-2cba-447b-9782-4f976178196a">
    <g>
      <path d="M10.182,13.324a4.065,4.065,0,0,1,7.293-2.471V3.026a.4.4,0,0,0-.406-.4H9.5a.41.41,0,0,1-.225-.068L7.114,1.118A.4.4,0,0,0,6.89,1.05H.531a.4.4,0,0,0-.406.4h0v13.36a.4.4,0,0,0,.405.4H10.652A4.047,4.047,0,0,1,10.182,13.324Z" fill="#005ba1"/>
      <rect x="1.702" y="1.825" width="3.943" height="0.788" rx="0.166" fill="#fff"/>
      <circle cx="14.249" cy="13.324" r="3.626" fill="#cb4936"/>
      <path d="M10.182,13.324a4.065,4.065,0,0,1,7.293-2.471V3.009a.405.405,0,0,0-.405-.4H8.758a.4.4,0,0,0-.289.119L7.134,4.06a.4.4,0,0,1-.289.118H.531a.406.406,0,0,0-.406.4h0V14.8a.406.406,0,0,0,.406.4H10.642A4.043,4.043,0,0,1,10.182,13.324Z" fill="url(#a6da33f5-4dd0-4936-ad62-fb750f8f1a51)"/>
      <path d="M16.515,13.868V12.78H11.982v1.088Z" fill="#fff"/>
    </g>
  </g>
</svg>
