<svg xmlns="http://www.w3.org/2000/svg" viewBox="0 0 18 18">
  <defs>
    <linearGradient id="a60beed1-ee43-43fa-ba2a-78eee01b9f9c" x1="4.029" x2="4.029" y2="8.059" gradientUnits="userSpaceOnUse">
      <stop offset="0" stop-color="#86d633" />
      <stop offset="1" stop-color="#76bc2d" />
    </linearGradient>
    <linearGradient id="b45d450f-b369-468c-b158-40531199205a" x1="4.029" y1="9.941" x2="4.029" y2="18" gradientUnits="userSpaceOnUse">
      <stop offset="0" stop-color="#86d633" />
      <stop offset="1" stop-color="#76bc2d" />
    </linearGradient>
    <linearGradient id="e0c330c9-65b5-478d-900e-a42d601df6c9" x1="13.971" y1="9.941" x2="13.971" y2="18" gradientUnits="userSpaceOnUse">
      <stop offset="0" stop-color="#86d633" />
      <stop offset="1" stop-color="#76bc2d" />
    </linearGradient>
  </defs>
  <g id="a9ee1c64-2b7e-4818-8696-8348665ed07d">
    <path d="M13.971,8.059a.3.3,0,0,1-.3-.3h0A3.432,3.432,0,0,0,10.242,4.33a.3.3,0,0,1-.3-.3h0a.3.3,0,0,1,.3-.3h0A3.432,3.432,0,0,0,13.67.3a.3.3,0,0,1,.3-.3h0a.3.3,0,0,1,.3.3h0A3.432,3.432,0,0,0,17.7,3.729a.3.3,0,1,1,0,.6h0a3.432,3.432,0,0,0-3.428,3.428A.3.3,0,0,1,13.971,8.059Z" fill="#5e9624" />
    <rect width="8.059" height="8.059" rx="0.6" fill="url(#a60beed1-ee43-43fa-ba2a-78eee01b9f9c)" />
    <rect y="9.941" width="8.059" height="8.059" rx="0.6" fill="url(#b45d450f-b369-468c-b158-40531199205a)" />
    <rect x="9.941" y="9.941" width="8.059" height="8.059" rx="0.6" fill="url(#e0c330c9-65b5-478d-900e-a42d601df6c9)" />
    <path d="M6.516,7.118H1.543a.6.6,0,0,1-.6-.6V1.54a.6.6,0,0,1,.6-.6H6.516a.6.6,0,0,1,.6.6V6.516A.6.6,0,0,1,6.516,7.118Zm.6,9.339V11.484a.6.6,0,0,0-.6-.6H1.54a.6.6,0,0,0-.6.6v4.975a.6.6,0,0,0,.6.6H6.516A.6.6,0,0,0,7.118,16.457Zm9.942,0V11.484a.6.6,0,0,0-.6-.6H11.482a.6.6,0,0,0-.6.6v4.975a.6.6,0,0,0,.6.6h4.973A.6.6,0,0,0,17.06,16.457Z" fill="#86d633" />
  </g>
</svg>