<svg xmlns="http://www.w3.org/2000/svg" width="18" height="18" viewBox="0 0 18 18">
  <defs>
    <linearGradient id="b1fdae92-6691-429d-9807-bc313801c61d" x1="7.954" y1="0.867" x2="7.954" y2="14.819" gradientUnits="userSpaceOnUse">
      <stop offset="0.152" stop-color="#fff"/>
      <stop offset="1" stop-color="#f2f2f2"/>
    </linearGradient>
    <linearGradient id="bfdec18f-33b7-428c-afcb-04daf94a1e17" x1="13.35" y1="9.871" x2="13.35" y2="12.988" gradientUnits="userSpaceOnUse">
      <stop offset="0" stop-color="#83b9f9"/>
      <stop offset="1" stop-color="#5ea0ef"/>
    </linearGradient>
    <linearGradient id="fcbb6035-6cc6-4a51-b68e-79e00419ce57" x1="15.984" y1="12.901" x2="15.984" y2="18.062" gradientUnits="userSpaceOnUse">
      <stop offset="0" stop-color="#83b9f9"/>
      <stop offset="1" stop-color="#5ea0ef"/>
    </linearGradient>
    <linearGradient id="a1b77c0e-8611-4b0a-9711-adc8d2730dfc" x1="13.28" y1="12.993" x2="13.28" y2="18.122" gradientUnits="userSpaceOnUse">
      <stop offset="0" stop-color="#5ea0ef"/>
      <stop offset="1" stop-color="#0078d4"/>
    </linearGradient>
    <linearGradient id="e17f3f70-6ca2-46ce-aa50-588f782e817f" x1="11.609" y1="10.208" x2="11.609" y2="14.638" gradientUnits="userSpaceOnUse">
      <stop offset="0" stop-color="#5ea0ef"/>
      <stop offset="1" stop-color="#0078d4"/>
    </linearGradient>
    <linearGradient id="b9a9690c-6242-4a1c-b15c-6b0e07043491" x1="10.474" y1="15.354" x2="10.474" y2="18.209" gradientUnits="userSpaceOnUse">
      <stop offset="0" stop-color="#0078d4"/>
      <stop offset="1" stop-color="#005ba1"/>
    </linearGradient>
    <linearGradient id="aa34ba15-040d-41b8-9d87-5bb9ba5d1d22" x1="8.814" y1="12.048" x2="8.814" y2="17.908" gradientUnits="userSpaceOnUse">
      <stop offset="0" stop-color="#0078d4"/>
      <stop offset="1" stop-color="#005ba1"/>
    </linearGradient>
  </defs>
  <g id="b12094e5-33a6-4f48-80c9-298692f6231c">
    <g>
      <path d="M15.853,7.914a7.812,7.812,0,0,1-.529,2.834,3.632,3.632,0,0,0-2.9-1.292,3.791,3.791,0,0,0-1.676.368h0a3.721,3.721,0,0,0-1.791,1.843,3.473,3.473,0,0,0-2.825,3.321v.03a3.382,3.382,0,0,0,.077.607C-2.915,13.405-1.55.246,7.925.015A7.922,7.922,0,0,1,15.853,7.914Z" fill="#0078d4"/>
      <path d="M14.819,7.914a6.778,6.778,0,0,1-.331,2.1,3.984,3.984,0,0,0-3.738-.193h0a3.721,3.721,0,0,0-1.791,1.843,3.459,3.459,0,0,0-2.784,2.885c-7.686-2.078-6.3-13.409,1.753-13.5A6.878,6.878,0,0,1,14.819,7.914Z" fill="url(#b1fdae92-6691-429d-9807-bc313801c61d)"/>
      <path d="M4.7,8.323a3.286,3.286,0,0,0,.931,1.863L3.772,12.049A5.816,5.816,0,0,1,2.077,8.323Zm7.069-4.815A5.827,5.827,0,0,0,8.336,2.083v2.6a3.17,3.17,0,0,1,1.593.652Zm-7.693,0L5.942,5.371a3.179,3.179,0,0,1,1.593-.652V2.083A5.825,5.825,0,0,0,4.08,3.508Zm6.435,2.4A3.35,3.35,0,0,1,11.177,7.5h2.6A5.732,5.732,0,0,0,12.35,4.086Zm-5.178,0L3.474,4.048A5.742,5.742,0,0,0,2.077,7.5h2.6A3.358,3.358,0,0,1,5.337,5.911Z" fill="#83b9f9"/>
      <path d="M12.713,6.051a.419.419,0,0,0-.531-.233L8.345,7.364l.3.754L12.48,6.6a.409.409,0,0,0,.243-.526Z" fill="#f04049"/>
      <circle cx="7.926" cy="7.914" r="1.118" fill="#4f4f4f"/>
    </g>
    <g>
      <path d="M15.767,12.978a5.828,5.828,0,0,0-1.8.01v0a7.738,7.738,0,0,0-3.035-2.781,3.537,3.537,0,0,1,3.408.223v0A3.219,3.219,0,0,1,15.767,12.978Z" fill="url(#bfdec18f-33b7-428c-afcb-04daf94a1e17)"/>
      <path d="M18,15.45a2.612,2.612,0,0,1-2.518,2.507,9.006,9.006,0,0,0-1.513-4.97h0a5.962,5.962,0,0,1,1.8-.009A2.573,2.573,0,0,1,18,15.45Z" fill="url(#fcbb6035-6cc6-4a51-b68e-79e00419ce57)"/>
      <path d="M15.482,17.957c-.074.009-1.856.018-3.465.025a11.181,11.181,0,0,0-.943-3.348h0a4.978,4.978,0,0,1,2.891-1.646A8.979,8.979,0,0,1,15.482,17.957Z" fill="url(#a1b77c0e-8611-4b0a-9711-adc8d2730dfc)"/>
      <path d="M13.964,12.988a5.132,5.132,0,0,0-2.78,1.54,1.141,1.141,0,0,0-.11.11v-.01c-.13-.28-.27-.54-.42-.8a8.254,8.254,0,0,0-1.38-1.77c-.01,0-.01-.01-.02-.01a3.309,3.309,0,0,1,1.68-1.84A7.722,7.722,0,0,1,13.964,12.988Z" fill="url(#e17f3f70-6ca2-46ce-aa50-588f782e817f)"/>
      <path d="M12.017,17.982a21.175,21.175,0,0,1-3.087-.077,11.067,11.067,0,0,1,2.146-3.271c.065.142.131.292.192.441v0A11.344,11.344,0,0,1,12.017,17.982Z" fill="url(#b9a9690c-6242-4a1c-b15c-6b0e07043491)"/>
    </g>
    <path d="M11.074,14.628v.01a10.914,10.914,0,0,0-2.14,3.27.637.637,0,0,1-.07-.02A3.128,3.128,0,0,1,6.554,15a2.068,2.068,0,0,1,.03-.35,3.059,3.059,0,0,1,2.67-2.6c.01,0,.01.01.02.01a8.254,8.254,0,0,1,1.38,1.77C10.8,14.088,10.944,14.348,11.074,14.628Z" fill="url(#aa34ba15-040d-41b8-9d87-5bb9ba5d1d22)"/>
  </g>
</svg>
