<svg xmlns="http://www.w3.org/2000/svg" viewBox="0 0 18 18">
  <defs>
    <radialGradient id="bb47c661-6e47-403b-8a5c-b2fbe65a93cb" cx="9" cy="9" r="9" gradientUnits="userSpaceOnUse">
      <stop offset="0.183" stop-color="#3cd4c2" />
      <stop offset="1" stop-color="#37c2b1" />
    </radialGradient>
  </defs>
  <g id="a3c74fbb-67d4-4908-aae4-f7f570ddeb1b">
    <path id="aef50d4e-9f7b-42f6-b3c0-e015918599a3" d="M14.515,16.112A9,9,0,0,1,3.485,1.888l.091-.069A9,9,0,0,1,14.515,16.112" fill="url(#bb47c661-6e47-403b-8a5c-b2fbe65a93cb)" />
    <path d="M9,.855A8.145,8.145,0,1,0,17.145,9,8.154,8.154,0,0,0,9,.855ZM14.456,3.6a7.816,7.816,0,0,1-2.243.854,9.48,9.48,0,0,0-1.358-2.906A7.676,7.676,0,0,1,14.456,3.6ZM9,1.317a7.675,7.675,0,0,1,1.152.087l-.007.007a7.979,7.979,0,0,1,1.621,3.135,15.859,15.859,0,0,1-5.774-.018A7.963,7.963,0,0,1,7.6,1.468L7.58,1.451A7.647,7.647,0,0,1,9,1.317Zm-2.123.3A9.444,9.444,0,0,0,5.54,4.429a6.168,6.168,0,0,1-2.012-.815A7.68,7.68,0,0,1,6.877,1.618ZM3.405,14.257a5.811,5.811,0,0,1,1.889-.8,7.431,7.431,0,0,0,1.43,2.885A7.7,7.7,0,0,1,3.405,14.257ZM10.2,16.589a7.622,7.622,0,0,1-1.2.094,7.716,7.716,0,0,1-1.53-.153l.042-.049a6.264,6.264,0,0,1-1.769-3.134,15.721,15.721,0,0,1,6.226.006,6.448,6.448,0,0,1-1.79,3.216Zm.773-.163a7.56,7.56,0,0,0,1.455-2.964,7.2,7.2,0,0,1,2.094.875A7.688,7.688,0,0,1,10.97,16.426Zm1.568-3.414c.086-.376.157-.773.213-1.184q-.238.063-.489.12c-.05.328-.108.649-.179.954a16.006,16.006,0,0,0-6.453,0c-.068-.294-.129-.6-.179-.918,0-.031-.008-.062-.013-.093-.166-.041-.327-.085-.485-.131.014.1.027.2.042.3.052.331.115.649.186.956a6.261,6.261,0,0,0-2.084.9,7.662,7.662,0,0,1,.116-9.956,6.538,6.538,0,0,0,2.2.915c-.071.259-.137.526-.2.8-.029.133-.053.268-.079.4.161-.044.327-.085.5-.123.012-.06.022-.121.035-.181.059-.273.125-.538.2-.8a15.585,15.585,0,0,0,3.084.3A15.449,15.449,0,0,0,11.892,5c.077.292.145.595.207.9q.249.053.489.114c-.073-.382-.154-.755-.249-1.114a8.139,8.139,0,0,0,2.436-.958,7.661,7.661,0,0,1,.06,10.049A7.624,7.624,0,0,0,12.538,13.012Z" fill="#42e8ca" />
    <g>
      <path d="M7.276,10.932H6.8L6.41,9.9H4.851l-.366,1.03h-.48l1.41-3.676h.446ZM6.269,9.515,5.692,7.948A1.473,1.473,0,0,1,5.635,7.7h-.01a1.361,1.361,0,0,1-.058.246L5,9.515Z" fill="#fff" />
      <path d="M7.645,10.784v-.508a1,1,0,0,0,.209.139,1.66,1.66,0,0,0,.257.1,2.125,2.125,0,0,0,.27.066,1.54,1.54,0,0,0,.251.023.981.981,0,0,0,.594-.148.5.5,0,0,0,.2-.424.506.506,0,0,0-.065-.259.728.728,0,0,0-.182-.2A1.752,1.752,0,0,0,8.9,9.4l-.34-.175c-.128-.065-.248-.131-.359-.2a1.544,1.544,0,0,1-.29-.22.91.91,0,0,1-.193-.273.939.939,0,0,1,.039-.8.953.953,0,0,1,.29-.306,1.317,1.317,0,0,1,.409-.179A1.842,1.842,0,0,1,8.927,7.2a1.8,1.8,0,0,1,.792.13V7.81a1.44,1.44,0,0,0-.836-.225,1.357,1.357,0,0,0-.282.029.8.8,0,0,0-.251.1.555.555,0,0,0-.179.172.455.455,0,0,0-.069.256.525.525,0,0,0,.052.243.6.6,0,0,0,.155.188,1.616,1.616,0,0,0,.25.164c.1.053.212.111.34.174s.256.134.374.205a1.686,1.686,0,0,1,.31.239A1.05,1.05,0,0,1,9.8,9.64.818.818,0,0,1,9.873,10a.918.918,0,0,1-.106.46.88.88,0,0,1-.287.307,1.275,1.275,0,0,1-.417.17,2.288,2.288,0,0,1-.5.053,2.158,2.158,0,0,1-.216-.014c-.085-.01-.173-.023-.261-.041a2.276,2.276,0,0,1-.253-.067A.838.838,0,0,1,7.645,10.784Z" fill="#fff" />
      <path d="M13.57,10.932h-.529L11.15,8a1.224,1.224,0,0,1-.119-.23h-.015a3.683,3.683,0,0,1,.021.5v2.656h-.431V7.256h.559l1.841,2.884c.076.12.126.2.148.246h.01a3.93,3.93,0,0,1-.025-.541V7.256h.431Z" fill="#fff" />
    </g>
  </g>
</svg>