<svg xmlns="http://www.w3.org/2000/svg" viewBox="0 0 18 18">
  <defs>
    <linearGradient id="b45730d8-517e-4a30-a82b-6903b5cf2bf1" x1="2.457" y1="778.829" x2="2.457" y2="773.913" gradientTransform="matrix(1, 0, 0, -1, 0, 791.516)" gradientUnits="userSpaceOnUse">
      <stop offset="0" stop-color="#a67af4" />
      <stop offset="1" stop-color="#773adc" />
    </linearGradient>
    <linearGradient id="f2b1e7a5-1c8d-4f47-84de-8eb16f2d9151" x1="15.542" y1="778.829" x2="15.542" y2="773.913" gradientTransform="matrix(1, 0, 0, -1, 0, 791.516)" gradientUnits="userSpaceOnUse">
      <stop offset="0" stop-color="#a67af4" />
      <stop offset="1" stop-color="#773adc" />
    </linearGradient>
  </defs>
  <path d="M9.783,9V6.871h-1.5V9a.3.3,0,0,1-.3.3H2.329a.6.6,0,0,0-.6.6h0v2.768h1.5V11.138a.3.3,0,0,1,.3-.3H14.468a.3.3,0,0,1,.3.3V12.7h1.5V9.9a.6.6,0,0,0-.6-.6H10.084a.3.3,0,0,1-.3-.3Z" fill="#a3a3a3" />
  <path d="M11.788.4H6.16a.622.622,0,0,0-.622.622h0V6.647a.622.622,0,0,0,.617.627h5.633a.622.622,0,0,0,.625-.618V1.019A.621.621,0,0,0,11.792.4ZM11.25,5.7a.412.412,0,0,1-.412.413H7.106A.413.413,0,0,1,6.694,5.7h0V1.965a.412.412,0,0,1,.412-.412h3.736a.411.411,0,0,1,.412.412Z" fill="#773adc" />
  <path d="M4.915,17.1V13.186a.5.5,0,0,0-.5-.5H.5a.5.5,0,0,0-.5.5H0V17.1a.5.5,0,0,0,.5.5H4.415a.5.5,0,0,0,.5-.5Z" fill="url(#b45730d8-517e-4a30-a82b-6903b5cf2bf1)" />
  <path d="M18,17.1V13.186a.5.5,0,0,0-.5-.5H13.583a.5.5,0,0,0-.5.5h0V17.1a.5.5,0,0,0,.5.5H17.5a.5.5,0,0,0,.5-.5Z" fill="url(#f2b1e7a5-1c8d-4f47-84de-8eb16f2d9151)" />
</svg>