<svg xmlns="http://www.w3.org/2000/svg" width="18" height="18" viewBox="0 0 18 18">
  <defs>
    <linearGradient id="be1ea770-f537-4f31-af60-3c607dc6759d" x1="9.029" y1="0.055" x2="9.029" y2="11.622" gradientUnits="userSpaceOnUse">
      <stop offset="0" stop-color="#5ea0ef"/>
      <stop offset="1" stop-color="#0078d4"/>
    </linearGradient>
    <linearGradient id="a950f140-9c7e-4092-8eec-a3a9ccd37972" x1="9.02" y1="18.488" x2="8.971" y2="11.315" gradientUnits="userSpaceOnUse">
      <stop offset="0" stop-color="#0078d4"/>
      <stop offset="1" stop-color="#5ea0ef"/>
    </linearGradient>
    <linearGradient id="fa56e556-d238-4bec-8a27-84f9e1f1be69" x1="9" y1="4.323" x2="9" y2="17.11" gradientUnits="userSpaceOnUse">
      <stop offset="0" stop-color="#9cebff"/>
      <stop offset="1" stop-color="#50e6ff"/>
    </linearGradient>
  </defs>
  <g id="e90e1113-a324-4265-aa45-254345efcd50">
    <g>
      <g id="f704f491-a8cf-46fa-87a8-517bf9dc44fa">
        <path d="M13.66,2.339A5.809,5.809,0,0,0,5.511,1.253L5.452,1.3A5.821,5.821,0,0,0,8.076,11.641V7.424a1.832,1.832,0,0,1,.681-3.4A1.745,1.745,0,0,1,9,4.006a1.631,1.631,0,0,1,.323.031,1.829,1.829,0,0,1,.6,3.388v4.222a5.78,5.78,0,0,0,2.65-1.149A5.824,5.824,0,0,0,13.66,2.339Z" fill="url(#be1ea770-f537-4f31-af60-3c607dc6759d)"/>
        <path d="M14.349,3.412,14.3,3.3A5.906,5.906,0,0,0,9.811.06,1.269,1.269,0,0,0,9.536.027C9.364.011,9.19,0,9.014,0a5.765,5.765,0,0,0-.6.031,1.449,1.449,0,0,0-.32.049A5.906,5.906,0,0,0,3.736,3.3H3.728v.011a5.876,5.876,0,0,0,4.348,8.408v-.844a5.752,5.752,0,0,1-1.6-2.518h1.6v-.57H6.287A6.778,6.778,0,0,1,5.979,5.9a8.807,8.807,0,0,1,.239-2.033H8.757v.157A1.745,1.745,0,0,1,9,4.006a1.631,1.631,0,0,1,.323.031V3.866h2.409A8.752,8.752,0,0,1,11.97,5.9a6.79,6.79,0,0,1-.308,1.886H9.925v.57h1.547a5.715,5.715,0,0,1-1.547,2.466v.9A5.9,5.9,0,0,0,14.905,5.9,5.839,5.839,0,0,0,14.349,3.412Zm-2.043.454h1.629a5.288,5.288,0,0,1,.052,3.919H12.26A7.267,7.267,0,0,0,12.537,5.9,9.256,9.256,0,0,0,12.306,3.866ZM5.69,7.785H4.04a5.278,5.278,0,0,1,.054-3.919H5.642A9.257,9.257,0,0,0,5.413,5.9,7.2,7.2,0,0,0,5.69,7.785Zm1.621,3.16a5.35,5.35,0,0,1-3.018-2.59H5.867A7.986,7.986,0,0,0,7.311,10.945ZM5.791,3.3H4.371A5.35,5.35,0,0,1,6.943.987,6.814,6.814,0,0,0,5.791,3.3Zm2.963,0H6.376A4.377,4.377,0,0,1,8.242.629c.169-.024.339-.041.512-.05Zm.568,0V.584c.115.007.232.014.346.028A4.289,4.289,0,0,1,11.573,3.3Zm1.65-2.35A5.355,5.355,0,0,1,13.657,3.3h-1.5A6.772,6.772,0,0,0,10.972.946Zm1.112,7.409h1.652A5.347,5.347,0,0,1,10.6,10.988,7.943,7.943,0,0,0,12.084,8.355Z" fill="#8bc1fd"/>
      </g>
      <g>
        <path d="M18,13.676V17.4a.6.6,0,0,1-.6.6H.6a.6.6,0,0,1-.6-.6V13.676a.6.6,0,0,1,.6-.6H8.076v.812A.139.139,0,0,1,8.009,14,1.826,1.826,0,0,0,9,17.373H9A1.829,1.829,0,0,0,9.991,14a.144.144,0,0,1-.066-.119v-.81H17.4A.6.6,0,0,1,18,13.676Z" fill="url(#a950f140-9c7e-4092-8eec-a3a9ccd37972)"/>
        <rect x="15.201" y="13.935" width="1.345" height="1.347" rx="0.301" fill="#fff"/>
        <rect x="15.201" y="15.792" width="1.345" height="1.347" rx="0.301" fill="#fff" opacity="0.6"/>
      </g>
      <path d="M10.233,15.532h0a1.235,1.235,0,1,1-2.47,0A1.221,1.221,0,0,1,8.5,14.425a.288.288,0,0,0,.178-.261V7.224A.288.288,0,0,0,8.5,6.962a1.223,1.223,0,0,1-.735-1.116,1.233,1.233,0,0,1,.99-1.211A1.292,1.292,0,0,1,9,4.611h.008a1.292,1.292,0,0,1,.314.041,1.236,1.236,0,0,1,.915,1.2A1.222,1.222,0,0,1,9.5,6.964a.285.285,0,0,0-.177.261V14.16a.287.287,0,0,0,.177.261A1.22,1.22,0,0,1,10.233,15.532Z" fill="url(#fa56e556-d238-4bec-8a27-84f9e1f1be69)"/>
    </g>
  </g>
</svg>
