<svg id="uuid-ed419664-0296-4c50-a1c5-22de9a681918" xmlns="http://www.w3.org/2000/svg" width="18" height="18" viewBox="0 0 18 18"><defs><linearGradient id="uuid-fdf7779a-b96f-4eda-be35-7c58c5c2bba5" x1="7.875" y1="13.5" x2="7.875" y2="2.25" gradientTransform="matrix(1, 0, 0, 1, 0, 0)" gradientUnits="userSpaceOnUse"><stop offset="0" stop-color="#0669bc" /><stop offset="1" stop-color="#0078d4" /></linearGradient><linearGradient id="uuid-00552162-b234-4029-b659-88b2e35966d9" x1="7.875" y1="2.25" x2="7.875" y2="0" gradientTransform="matrix(1, 0, 0, 1, 0, 0)" gradientUnits="userSpaceOnUse"><stop offset="0" stop-color="#0c59a4" /><stop offset="1" stop-color="#1493df" /></linearGradient><linearGradient id="uuid-cee03556-86cf-47dc-9980-22d8dba41ebb" x1="13.5" y1="18" x2="13.5" y2="8.437" gradientTransform="matrix(1, 0, 0, 1, 0, 0)" gradientUnits="userSpaceOnUse"><stop offset="0" stop-color="#0078d4" /><stop offset="1" stop-color="#5ea0ef" /></linearGradient><clipPath id="uuid-fa9367b0-c63e-4d39-87a0-0f0ccb925a4e"><path d="M10.125,8.437h6.75v8.946c0,.522-.626,.807-1.038,.473l-1.932-1.566c-.235-.19-.576-.19-.81,0l-1.932,1.566c-.412,.334-1.038,.049-1.038-.473V8.437Z" fill="none" /></clipPath><radialGradient id="uuid-4a344265-e297-458e-aede-70977c7c81a3" cx="9.48" cy="777.078" r="5.072" gradientTransform="translate(4 785.516) scale(1 -1)" gradientUnits="userSpaceOnUse"><stop offset="0" stop-color="#000" /><stop offset=".859" stop-color="#000" stop-opacity=".532" /><stop offset="1" stop-color="#000" stop-opacity="0" /></radialGradient><radialGradient id="uuid-f4537078-5fb2-4ffc-91b9-08d27477f331" cy="777.078" r="4.781" gradientTransform="translate(4 785.516) scale(1 -1)" gradientUnits="userSpaceOnUse"><stop offset="0" stop-color="#000" /><stop offset=".859" stop-color="#000" stop-opacity=".532" /><stop offset="1" stop-color="#000" stop-opacity="0" /></radialGradient>/&gt;
    <linearGradient id="uuid-a520f58b-05a8-49c3-8528-d016568fa14d" x1="9.5" y1="772.556" x2="9.5" y2="781.873" gradientTransform="translate(4 785.516) scale(1 -1)" gradientUnits="userSpaceOnUse"><stop offset="0" stop-color="#32bedd" /><stop offset="1" stop-color="#50e6ff" /></linearGradient></defs><path d="M0,2.25H15.75V12c0,.828-.672,1.5-1.5,1.5H1.5c-.828,0-1.5-.672-1.5-1.5V2.25Z" fill="url(#uuid-fdf7779a-b96f-4eda-be35-7c58c5c2bba5)" /><path d="M0,1.5C0,.671,.672,0,1.5,0H14.25C15.079,0,15.75,.671,15.75,1.5v.75H0v-.75Z" fill="url(#uuid-00552162-b234-4029-b659-88b2e35966d9)" /><g><path d="M10.125,8.437h6.75v8.946c0,.522-.626,.807-1.038,.473l-1.932-1.566c-.235-.19-.576-.19-.81,0l-1.932,1.566c-.412,.334-1.038,.049-1.038-.473V8.437Z" fill="url(#uuid-cee03556-86cf-47dc-9980-22d8dba41ebb)" /><g clip-path="url(#uuid-fa9367b0-c63e-4d39-87a0-0f0ccb925a4e)"><circle cx="13.48" cy="8.437" r="5.072" fill="url(#uuid-4a344265-e297-458e-aede-70977c7c81a3)" opacity=".5" /><circle cx="13.48" cy="8.437" r="4.781" fill="url(#uuid-f4537078-5fb2-4ffc-91b9-08d27477f331)" opacity=".5" /></g><circle cx="13.5" cy="8.437" r="4.5" fill="url(#uuid-a520f58b-05a8-49c3-8528-d016568fa14d)" /></g></svg>