<svg id="uuid-5488b4d9-a408-44d0-b51b-d5154e67e21b" xmlns="http://www.w3.org/2000/svg" width="18" height="18" viewBox="0 0 18 18">
  <defs>
    <linearGradient id="uuid-c06dd02d-7ed4-4fe8-bfd8-639118137e98" x1="7.739" y1="12.039" x2="7.739" y2="0" gradientUnits="userSpaceOnUse">
      <stop offset="0" stop-color="#0078d4"/>
      <stop offset=".82" stop-color="#5ea0ef"/>
    </linearGradient>
    <linearGradient id="uuid-d9207b9f-dc8c-47be-a5b9-a64e4ccd98dd" x1="13.525" y1="18" x2="13.525" y2="11.735" gradientUnits="userSpaceOnUse">
      <stop offset=".001" stop-color="#858585"/>
      <stop offset="1" stop-color="#bebfbe"/>
    </linearGradient>
  </defs>
  <g id="uuid-698800a5-885f-4c7c-88c8-b15cbcccb5c2">
    <g>
      <path d="m9.411,11.138l.087-.004h5.98V.654c0-.361-.293-.654-.654-.654H.653C.293,0,0,.293,0,.654v10.732C0,11.746.293,12.039.653,12.039h7.823c.067-.465.425-.842.935-.9Z" fill="url(#uuid-c06dd02d-7ed4-4fe8-bfd8-639118137e98)"/>
      <path d="m7.294,2.416s-.003.014-.008.037c-.373.104-.726.271-1.043.493-.604-.226-1.272-.203-1.859.064-.063.639.108,1.28.481,1.803-.118.331-.198.675-.236,1.025-.547.285-.964.769-1.164,1.353.407.498.987.825,1.623.916l.002-.002c.158.282.351.543.575.777-.163.466-.149.975.038,1.432.537.025,1.066-.136,1.498-.457.439.147.902.212,1.365.191.265.347.654.577,1.085.641.311-.303.496-.711.52-1.144h0v-.023h0v-.024c.339-.237.627-.542.844-.895.349.01.688-.114.949-.345-.045-.356-.22-.682-.492-.916h0l-.014-.01h0l-.012-.008c.164-1.323-.775-2.529-2.099-2.693-.117-.015-.235-.02-.354-.018-2.437-.089-2.177,4.204.244,3.02.149-.358-.416.021-.569-.06-.546-.04-.96-.509-.931-1.055.066-.695.682-1.205,1.377-1.139.2.019.393.085.562.193,1.619.905.462,3.432-1.229,3.291.012,0-.002,0-.001,0-1.424-.036-2.563-1.197-2.571-2.622-.052-1.569,1.178-2.884,2.748-2.936,0,0,.001,0,.002,0,1.648-.156,2.901,1.183,3.37,2.569.105-.954-.258-1.899-.975-2.537.071-.334.014-.682-.16-.975-.332-.03-.665.055-.941.242-.301-.129-.617-.217-.941-.261-.144-.428-.448-.784-.848-.993-.403.237-.702.618-.836,1.066" fill="#f2f2f2"/>
    </g>
  </g>
  <path d="m9.498,17.105h8.055c.247,0,.447.2.447.448,0,.229-.173.419-.395.445l-.052.003h-8.055c-.247,0-.447-.2-.447-.448,0-.229.173-.419.395-.445l.052-.003h8.055-8.055Zm0-2.685h8.055c.247,0,.448.199.448.446,0,.229-.173.419-.395.445l-.052.003h-8.055c-.247.001-.448-.199-.448-.446,0-.229.173-.419.395-.445l.052-.003h8.055s-8.055,0-8.055,0Zm0-2.685h8.055c.247,0,.447.2.447.448,0,.229-.173.419-.395.444l-.052.003h-8.055c-.247,0-.447-.2-.447-.448,0-.229.173-.419.395-.444l.052-.003h8.055-8.055Z" fill="url(#uuid-d9207b9f-dc8c-47be-a5b9-a64e4ccd98dd)"/>
</svg>