<svg xmlns="http://www.w3.org/2000/svg" width="18" height="18" viewBox="0 0 18 18">
  <defs>
    <linearGradient id="bb0b1a49-9950-494b-a934-5568c23a8412" x1="6.75" y1="3.139" x2="6.75" y2="14.978" gradientUnits="userSpaceOnUse">
      <stop offset="0" stop-color="#50e6ff"/>
      <stop offset="0.4" stop-color="#3dcdea"/>
      <stop offset="0.7" stop-color="#35c2e0"/>
      <stop offset="1" stop-color="#32bedd"/>
    </linearGradient>
  </defs>
  <path d="M17.381,13.043l-6.019-2.8a.7.7,0,0,1-.428-.715V8.561a.705.705,0,0,1,.428-.715l6.019-2.8c.322-.083.619.26.619.715v6.567C18,12.782,17.7,13.125,17.381,13.043Z" fill="#32bedd"/>
  <rect y="3.102" width="13.501" height="11.796" rx="0.707" fill="url(#bb0b1a49-9950-494b-a934-5568c23a8412)"/>
  <path d="M3.091,10.5a.325.325,0,0,1-.325-.325V7.7a.326.326,0,0,1,.651,0v2.48A.325.325,0,0,1,3.091,10.5Z" fill="#fff"/>
  <path d="M4.555,11.784a.324.324,0,0,1-.325-.325V6.675a.325.325,0,1,1,.65,0v4.784A.324.324,0,0,1,4.555,11.784Z" fill="#fff"/>
  <path d="M7.482,12.288a.324.324,0,0,1-.325-.325V6.126a.325.325,0,1,1,.65,0v5.837A.324.324,0,0,1,7.482,12.288Z" fill="#fff"/>
  <path d="M8.946,11.3a.325.325,0,0,1-.325-.325V7.133a.325.325,0,1,1,.65,0v3.846A.325.325,0,0,1,8.946,11.3Z" fill="#fff"/>
  <path d="M6.019,10.825a.325.325,0,0,1-.325-.325V7.133a.325.325,0,1,1,.65,0V10.5A.326.326,0,0,1,6.019,10.825Z" fill="#fff"/>
  <path d="M10.409,11.95a.325.325,0,0,1-.325-.325V6.56a.326.326,0,0,1,.651,0v5.065A.325.325,0,0,1,10.409,11.95Z" fill="#fff"/>
</svg>
