<svg xmlns="http://www.w3.org/2000/svg" viewBox="0 0 18 18">
  <defs>
    <linearGradient id="eb5abf58-5d26-4983-83e5-528ebaff76cc" x1="13.212" y1="18" x2="13.212" y2="8.228" gradientUnits="userSpaceOnUse">
      <stop offset="0" stop-color="#949494" />
      <stop offset="0.532" stop-color="#a2a2a2" />
      <stop offset="1" stop-color="#b3b3b3" />
    </linearGradient>
    <linearGradient id="f2b530db-132f-4291-baba-d10e10bde726" x1="4.788" y1="9.772" x2="4.788" y2="0" gradientUnits="userSpaceOnUse">
      <stop offset="0" stop-color="#949494" />
      <stop offset="0.532" stop-color="#a2a2a2" />
      <stop offset="1" stop-color="#b3b3b3" />
    </linearGradient>
  </defs>
  <g id="b1d3ea6e-5521-405e-9137-9904b1a83855">
    <path d="M16.018,8.228H10.406a.35.35,0,0,0-.366.331v3.835l.927.836a.547.547,0,0,1,.006.86L10.04,15v2.672a.35.35,0,0,0,.366.331h5.612a.35.35,0,0,0,.366-.331V8.559A.35.35,0,0,0,16.018,8.228Z" fill="url(#eb5abf58-5d26-4983-83e5-528ebaff76cc)" />
    <path d="M10.769,13.845,8.967,15.6c-.19.19-.355.121-.355-.183v-.778a.224.224,0,0,0-.229-.225c-1.161.026-4.388-.3-4.5-4.709a.226.226,0,0,1,.225-.232H5.252a.224.224,0,0,1,.223.246,2.707,2.707,0,0,0,2.91,3.265.227.227,0,0,0,.227-.226v-.719c0-.367.11-.428.355-.184l1.8,1.625A.224.224,0,0,1,10.769,13.845Z" fill="#0078d4" />
    <path d="M7.96,9.441a.35.35,0,0,1-.366.331H1.982a.35.35,0,0,1-.366-.331V.331A.35.35,0,0,1,1.982,0H7.594A.35.35,0,0,1,7.96.331Z" fill="url(#f2b530db-132f-4291-baba-d10e10bde726)" />
    <path d="M7.084,4.178a.726.726,0,0,1-.689.759H3.238a.727.727,0,0,1-.69-.759h0a.727.727,0,0,1,.69-.76H6.4a.727.727,0,0,1,.689.76Zm0-2.258A.726.726,0,0,0,6.4,1.161H3.238a.727.727,0,0,0-.69.759h0a.727.727,0,0,0,.69.76H6.4a.727.727,0,0,0,.689-.76Z" fill="#003067" />
    <path d="M4.037,1.92a.511.511,0,1,1-.51-.51A.51.51,0,0,1,4.037,1.92Zm-.51,1.748a.51.51,0,1,0,.51.51A.51.51,0,0,0,3.527,3.668Z" fill="#50e6ff" />
    <path d="M15.509,12.406a.728.728,0,0,1-.69.76H11.662a.727.727,0,0,1-.689-.76h0a.727.727,0,0,1,.689-.76h3.157a.727.727,0,0,1,.69.76Zm0-2.257a.727.727,0,0,0-.69-.76H11.662a.727.727,0,0,0-.689.76h0a.726.726,0,0,0,.689.759h3.157a.727.727,0,0,0,.69-.759Z" fill="#003067" />
    <path d="M12.461,10.149a.51.51,0,1,1-.51-.511A.51.51,0,0,1,12.461,10.149Zm-.51,1.747a.51.51,0,1,0,.51.51A.51.51,0,0,0,11.951,11.9Z" fill="#50e6ff" />
  </g>
  <metadata>
    <rdf:RDF xmlns:rdf="http://www.w3.org/1999/02/22-rdf-syntax-ns#">
      <rdf:li>public:true</rdf:li>
      <rdf:li>sdk:false</rdf:li>
      <rdf:li>category:Other</rdf:li>
    </rdf:RDF>
  </metadata>
</svg>