<svg xmlns="http://www.w3.org/2000/svg" width="16" height="16" viewBox="0 0 16 16">
  <path d="M12.5,1.4a10.7,10.7,0,0,1,1.9,1.8,7.808,7.808,0,0,1,1.2,2.2A7.509,7.509,0,0,1,16,8a7.576,7.576,0,0,1-.3,2.1,6.388,6.388,0,0,1-.8,1.9,10.39,10.39,0,0,1-1.2,1.7A10.39,10.39,0,0,1,12,14.9a6.388,6.388,0,0,1-1.9.8,7.5,7.5,0,0,1-4.2,0A6.388,6.388,0,0,1,4,14.9a10.39,10.39,0,0,1-1.7-1.2A10.39,10.39,0,0,1,1.1,12a6.388,6.388,0,0,1-.8-1.9,7.5,7.5,0,0,1,0-4.2,11.906,11.906,0,0,1,.8-2A10.139,10.139,0,0,1,2.4,2.3,10.946,10.946,0,0,1,4.1,1H2V0H6V4H5V1.7A6.216,6.216,0,0,0,3.3,2.8,6.083,6.083,0,0,0,2.1,4.3,5.292,5.292,0,0,0,1.3,6,6.879,6.879,0,0,0,1,8a6.283,6.283,0,0,0,.3,1.9A4.61,4.61,0,0,0,2,11.5a4.9,4.9,0,0,0,1.1,1.4A4.9,4.9,0,0,0,4.5,14l1.6.8L8,15l1.9-.2,1.6-.8a4.9,4.9,0,0,0,1.4-1.1A4.9,4.9,0,0,0,14,11.5a7.976,7.976,0,0,0,.8-1.6A12.233,12.233,0,0,0,15,8a6.184,6.184,0,0,0-.4-2.3,6.9,6.9,0,0,0-1-1.9,8.716,8.716,0,0,0-1.7-1.6,7.207,7.207,0,0,0-2-.9l.2-1A6.589,6.589,0,0,1,12.5,1.4Z"/>
</svg>
