<svg id="uuid-21e281a4-e6ff-42b7-b1c3-32e77f80d35e" xmlns="http://www.w3.org/2000/svg" width="18" height="18" viewBox="0 0 18 18">
  <defs>
    <linearGradient id="uuid-7f2e3910-2a48-4f5c-97ef-2c867748344b" x1="-316.232" y1="658.588" x2="-316.57" y2="644.865" gradientTransform="translate(324 660.516) scale(1 -1)" gradientUnits="userSpaceOnUse">
      <stop offset="0" stop-color="#ffd400"/>
      <stop offset=".999" stop-color="#dfa500"/>
    </linearGradient>
  </defs>
  <g>
    <path d="M14.766,4.24h-6.596c-.07,0-.138-.02-.196-.058l-1.884-1.242c-.058-.038-.126-.059-.196-.059H.354c-.046,0-.092,.009-.135,.026-.043,.018-.082,.043-.115,.076-.033,.032-.059,.071-.077,.114-.018,.042-.027,.088-.027,.134V14.77c0,.046,.009,.092,.027,.134,.018,.042,.044,.081,.077,.114,.033,.033,.072,.058,.115,.076,.043,.017,.089,.026,.135,.026H14.766c.046,0,.092-.009,.135-.026,.043-.018,.082-.043,.115-.076,.033-.032,.059-.071,.077-.114s.027-.088,.027-.134V4.587c0-.092-.038-.181-.105-.246-.066-.065-.156-.101-.249-.101Z" fill="#dfa500"/>
    <path d="M4.666,3.55H1.519c-.08,0-.144,.064-.144,.143v.395c0,.079,.065,.143,.144,.143h3.147c.08,0,.144-.064,.144-.143v-.395c0-.079-.065-.143-.144-.143Z" fill="#fff"/>
    <path d="M14.766,4.241H7.523c-.047,0-.093,.009-.136,.026-.043,.018-.083,.043-.116,.076l-1.163,1.155c-.033,.033-.072,.059-.116,.076-.043,.018-.09,.026-.136,.026H.354c-.046,0-.092,.009-.135,.026-.043,.018-.082,.043-.115,.076-.033,.032-.059,.071-.077,.114-.018,.042-.027,.088-.027,.134V14.771c0,.046,.009,.091,.027,.134,.018,.042,.044,.081,.077,.113,.033,.032,.072,.058,.115,.076,.043,.017,.089,.026,.135,.026H14.766c.046,0,.092-.009,.135-.026,.043-.017,.082-.043,.115-.076,.033-.032,.059-.071,.077-.113,.018-.042,.027-.088,.027-.134V4.59c0-.046-.009-.092-.027-.134-.018-.042-.044-.081-.077-.114-.033-.032-.072-.058-.115-.076-.043-.018-.089-.026-.135-.026Z" fill="url(#uuid-7f2e3910-2a48-4f5c-97ef-2c867748344b)"/>
  </g>
  <g>
    <path d="M16.952,9.316H7.284c-.395-.836-1.244-1.418-2.229-1.418-1.36,0-2.466,1.106-2.466,2.466s1.106,2.466,2.466,2.466c.985,0,1.834-.581,2.229-1.418h9.669c.579,0,1.048-.469,1.048-1.048s-.469-1.048-1.048-1.048Z" fill="#50e6ff"/>
    <circle cx="5.055" cy="10.364" r="1.746" fill="#fff"/>
  </g>
</svg>