<svg xmlns="http://www.w3.org/2000/svg" width="18" height="18" viewBox="0 0 18 18"><defs><linearGradient id="a244814f-fcd8-438d-a1ec-4c3458b4fd01" x1="-926.952" y1="-255.1114" x2="-926.952" y2="-255.1206" gradientTransform="translate(-821.3669 488.1468) rotate(135.0262)" gradientUnits="userSpaceOnUse"><stop offset="0" stop-color="#811010" /><stop offset="0.1696" stop-color="#871111" /><stop offset="0.999" stop-color="#e52323" /></linearGradient><linearGradient id="ede82c46-320c-4a7e-b6df-0f804fe9d78e" x1="-927.0319" y1="-249.422" x2="-927.0319" y2="-255.9965" gradientTransform="translate(-821.2876 488.3776) rotate(135)" gradientUnits="userSpaceOnUse"><stop offset="0" stop-color="#32bedd" /><stop offset="0.0148" stop-color="#35c1df" /><stop offset="1" stop-color="#59e6fd" /></linearGradient><linearGradient id="ba247a2b-0760-4fae-a209-c091c056a612" x1="3.7733" y1="14.4531" x2="12.0755" y2="14.4531" gradientUnits="userSpaceOnUse"><stop offset="0" stop-color="#b1b1b1" /><stop offset="0.2023" stop-color="#b6b6b6" /><stop offset="0.4516" stop-color="#c5c5c5" /><stop offset="0.7254" stop-color="#dedede" /><stop offset="1" stop-color="#fff" /></linearGradient></defs><title>Icon-345-Squall18px</title><g id="b8e5e258-6c0c-47fe-b5e3-159cf1928c51"><g><g><path d="M6.6549,4.9346h0A.5951.5951,0,0,1,6.06,4.3392,3.1735,3.1735,0,0,1,9.2334,1.167h.0015a.5951.5951,0,0,1,0,1.19H9.2335A1.9835,1.9835,0,0,0,7.25,4.34.5951.5951,0,0,1,6.6549,4.9346Z" fill="#b3b3b3" /><path d="M12.6412,11.9984a.5969.5969,0,0,1-.4231-.1754l-5.2256-5.23a3.1684,3.1684,0,0,1-.9332-2.2557.5981.5981,0,0,1,.5981-.5978h0a.5981.5981,0,0,1,.5978.5983,1.9806,1.9806,0,0,0,.5832,1.41l5.2257,5.2305a.5981.5981,0,0,1-.4231,1.0208Z" fill="#979797" /><path d="M15.5431,14.9029a.5962.5962,0,0,1-.4231-.1754l-2.9413-2.944a.598.598,0,0,1,.8462-.8453l2.9413,2.9439a.5981.5981,0,0,1-.4231,1.0208Z" fill="#979797" /><path d="M14.6909,13.4816l.0042-.0161.0161-.0042A.1147.1147,0,0,1,14.6909,13.4816Z" fill="url(#a244814f-fcd8-438d-a1ec-4c3458b4fd01)" /><g><path d="M15.1754,13.9346a7.7052,7.7052,0,0,0-2.05-7.2269l2.4569-2.4546a.4791.4791,0,0,1,.7439.0832,7.7147,7.7147,0,0,1-1.0881,9.55c-.0154.0154-.03.03-.0462.0444Z" fill="#59e6fd" /><path d="M7.9513,11.8769l5.1739-5.1692a7.7052,7.7052,0,0,1,2.05,7.2269A7.7066,7.7066,0,0,1,7.9513,11.8769Z" fill="#32bedd" /><path d="M5.6047,14.2214l2.3466-2.3445a7.7066,7.7066,0,0,0,7.2241,2.0577l.0043.0079a7.7152,7.7152,0,0,1-9.4926,1.0227A.479.479,0,0,1,5.6047,14.2214Z" fill="#198ab3" /></g></g><path d="M5.6871,14.9652A7.7152,7.7152,0,0,0,15.18,13.9425l-.0043-.0079h0l.0163-.0043c.0162-.0145.0308-.029.0462-.0444a7.7147,7.7147,0,0,0,1.0881-9.55.4791.4791,0,0,0-.7439-.0832L13.1252,6.7077,7.9513,11.8769,5.6047,14.2214A.479.479,0,0,0,5.6871,14.9652Zm7.5765-.8276c-.1752-.0032-.35-.0129-.5249-.028C12.9134,14.1247,13.0884,14.1344,13.2636,14.1376Zm-.9072-.0708q-.06-.0083-.12-.0175Q12.2964,14.0585,12.3564,14.0668Z" opacity="0.5" fill="url(#ede82c46-320c-4a7e-b6df-0f804fe9d78e)" /><path d="M5.0738,12.3141H.8618a.3618.3618,0,1,1,0-.7236h4.212A1.289,1.289,0,0,0,6.3614,10.303a1.1631,1.1631,0,0,0-2.3262,0,.3618.3618,0,0,1-.7235,0,1.8866,1.8866,0,1,1,3.7732,0A2.0133,2.0133,0,0,1,5.0738,12.3141Z" fill="#b3b3b3" /><path d="M9.6183,16.833H4.1822a.4089.4089,0,1,1,0-.8177H9.6183a1.6414,1.6414,0,0,0,1.64-1.6395,1.4849,1.4849,0,0,0-2.97,0,.4089.4089,0,1,1-.8177,0,2.3026,2.3026,0,0,1,4.6052,0A2.46,2.46,0,0,1,9.6183,16.833Z" fill="url(#ba247a2b-0760-4fae-a209-c091c056a612)" /><path d="M4.8038,14.0489H1.4064a.4089.4089,0,0,1,0-.8177H4.8038a.4089.4089,0,1,1,0,.8177Z" fill="#b3b3b3" /></g></g></svg>