<svg xmlns="http://www.w3.org/2000/svg" width="18" height="18" viewBox="0 0 18 18">
  <defs>
    <linearGradient id="a608adde-b24d-4021-8e61-d7ebb27285d5" x1="-550.853" y1="1014.07" x2="-550.853" y2="1010.923" gradientTransform="matrix(1, 0, 0, -1, 564, 1025.516)" gradientUnits="userSpaceOnUse">
      <stop offset="0.16" stop-color="#50e6ff"/>
      <stop offset="1" stop-color="#32bedd"/>
    </linearGradient>
    <linearGradient id="fd9c1afb-3b42-4db3-bb68-1c8f4f29e400" x1="-550.853" y1="1017.176" x2="-550.853" y2="1014.064" gradientTransform="matrix(1, 0, 0, -1, 564, 1025.516)" gradientUnits="userSpaceOnUse">
      <stop offset="0.234" stop-color="#50e6ff"/>
      <stop offset="1" stop-color="#32bedd"/>
    </linearGradient>
    <linearGradient id="a53217bd-9906-4014-9130-86cdb96bbc34" x1="8.074" y1="15.431" x2="8.074" y2="1.128" gradientUnits="userSpaceOnUse">
      <stop offset="0" stop-color="#32bedd"/>
      <stop offset="0.766" stop-color="#50e6ff"/>
    </linearGradient>
    <linearGradient id="f935f3a0-127f-4f08-9b2e-66fd66bf22ce" x1="8.077" y1="16.544" x2="8.077" y2="-0.049" gradientUnits="userSpaceOnUse">
          <stop offset="0" stop-color="#32bedd"/>
      <stop offset="0.766" stop-color="#50e6ff"/>
    </linearGradient>
  </defs>
  <g id="e96a0b5a-893c-4e3f-aeaa-31cf960e3292">
    <g>
      <path d="M17.865,11.471l-4.71,3.122L8.429,11.467a.083.083,0,0,1,.016-.021h9.4A.105.105,0,0,1,17.865,11.471Z" fill="url(#a608adde-b24d-4021-8e61-d7ebb27285d5)"/>
      <path d="M13.159,14.543l-.006.005L8.545,17.587l-.005-.006v0a.287.287,0,0,1-.11-.22V11.577a.292.292,0,0,1,.031-.136Z" fill="#a67af4"/>
      <path d="M17.875,11.577v5.789a.3.3,0,0,1-.1.221l0,0-2.745-1.811-.693-.462-1.176-.776,4.682-3.1A.234.234,0,0,1,17.875,11.577Z" fill="#773adc"/>
      <path d="M17.777,17.587l-.005,0a.312.312,0,0,1-.194.068l-8.855-.01a.264.264,0,0,1-.178-.063l-.005-.006v0l4.608-3.033.005.005,1.181.771.693.462Z" fill="#552f99"/>
      <path d="M17.858,11.477H8.437a.247.247,0,0,1,.08-.084l4.47-3.042a.294.294,0,0,1,.333,0l4.46,3.042A.242.242,0,0,1,17.858,11.477Z" fill="url(#fd9c1afb-3b42-4db3-bb68-1c8f4f29e400)"/>
      <path d="M10.665,4.738a16.693,16.693,0,0,1,.461,4.421L8.392,11.02a.836.836,0,0,0-.284.331.808.808,0,0,0-.055.159,14.428,14.428,0,0,0-2.98.29,16.15,16.15,0,0,1,.208-7.084A14.379,14.379,0,0,0,10.665,4.738ZM4.874,4.631A5.85,5.85,0,0,1,2.91,3.814a6.843,6.843,0,0,0-.1,8.893l0-.007a5.6,5.6,0,0,1,1.847-.794A16.788,16.788,0,0,1,4.874,4.631Zm6.2.011a16.8,16.8,0,0,1,.483,4.226l1.216-.827a.715.715,0,0,1,.8,0l1.329.906a6.856,6.856,0,0,0-1.672-5.159A7.323,7.323,0,0,1,11.07,4.642ZM5.4,4.325a14.346,14.346,0,0,0,5.157.014A7.17,7.17,0,0,0,9.1,1.54a6.845,6.845,0,0,0-2.289.042l.02,0a7.712,7.712,0,0,0-.632.88A7.165,7.165,0,0,0,5.4,4.325Zm5.55-.071a6.894,6.894,0,0,0,2-.762,6.862,6.862,0,0,0-3.216-1.83A8.443,8.443,0,0,1,10.945,4.254ZM4.321,2.58a7.532,7.532,0,0,0-1.142.926,5.522,5.522,0,0,0,1.8.729,8.542,8.542,0,0,1,1.2-2.512,6.857,6.857,0,0,0-1.848.865Zm1.723,12.3A6.7,6.7,0,0,1,4.768,12.3a5.223,5.223,0,0,0-1.686.718A6.862,6.862,0,0,0,6.044,14.875Zm.74.164a6.358,6.358,0,0,0,1.245.133V11.921a14.116,14.116,0,0,0-2.868.275A5.612,5.612,0,0,0,6.745,15Z" fill="url(#a53217bd-9906-4014-9130-86cdb96bbc34)"/>
      <path d="M8.029,15.557c-.085,0-.171,0-.256-.009H7.618l-.188-.016c-.078-.006-.155-.023-.233-.023l-.228-.032c-.076-.01-.171-.03-.226-.039s-.111-.019-.165-.031L6.5,15.391l-.151-.035a6.949,6.949,0,0,1-4.49-3.25A6.711,6.711,0,0,1,.8,8.206V8.15a7.257,7.257,0,0,1,2.816-5.6l.09-.067.033-.007a7.481,7.481,0,0,1,1.271-.757l.146-.065a7.287,7.287,0,0,1,2.906-.616h.551l.331.032.246.033c.185.03.372.065.557.109.052.014.116.028.176.046l.188.053.062.017a7,7,0,0,1,.686.245A7.278,7.278,0,0,1,15.35,8.35a6.852,6.852,0,0,1-.043.873l.607.414a7.952,7.952,0,1,0-7.885,6.606Z" fill="url(#f935f3a0-127f-4f08-9b2e-66fd66bf22ce)"/>
    </g>
  </g>
</svg>
