<svg id="ae8ead5c-1172-4c28-8f33-dffb65f81239" xmlns="http://www.w3.org/2000/svg" viewBox="0 0 18 18">
  <path d="M2.606.2H17.4a.6.6,0,0,1,.6.6V17.8a0,0,0,0,1,0,0H2.606a.6.6,0,0,1-.6-.6V.8A.6.6,0,0,1,2.606.2Z" fill="#5a468a" />
  <path d="M2.606.2H17.4a.6.6,0,0,1,.6.6V15.642a0,0,0,0,1,0,0H2.606a.6.6,0,0,1-.6-.6V.8A.6.6,0,0,1,2.606.2Z" fill="#6c55a5" />
  <path d="M3.282,4.213H.729A.73.73,0,0,1,0,3.483H0a.729.729,0,0,1,.729-.729H3.282a.729.729,0,0,1,.73.729h0A.73.73,0,0,1,3.282,4.213Zm.73,3.706h0a.73.73,0,0,0-.73-.73H.729A.73.73,0,0,0,0,7.919H0a.729.729,0,0,0,.729.729H3.282A.729.729,0,0,0,4.012,7.919Z" fill="#a582dc" />
  <rect y="11.625" width="4.012" height="1.459" rx="0.729" fill="#9374cd" />
  <path d="M15.009,12.716a.332.332,0,1,1-.469.469L13.457,12.1l-1.082,1.082a.332.332,0,0,1-.47-.469l1.083-1.083-1.083-1.082a.332.332,0,0,1,.47-.47l1.082,1.083,1.083-1.083a.332.332,0,1,1,.469.47l-1.082,1.082Zm-5.75-7.55A1.747,1.747,0,1,0,7.512,6.913,1.749,1.749,0,0,0,9.259,5.166Zm-.664,0A1.084,1.084,0,1,1,7.512,4.083,1.084,1.084,0,0,1,8.6,5.166ZM14.19,5,13.6,3.759a.331.331,0,0,0-.445-.117,3.128,3.128,0,0,1-1.561.286.327.327,0,0,0-.325.325.332.332,0,0,0,.325.325,3.685,3.685,0,0,0,1.152-.109,17.544,17.544,0,0,1-1.669,3.409A7,7,0,0,1,9.493,9.442a7.8,7.8,0,0,1-1.775,1.065,4.264,4.264,0,0,1-1.621.35.325.325,0,0,0,0,.65,6.149,6.149,0,0,0,3.5-1.332,8.562,8.562,0,0,0,1.85-1.693,11.018,11.018,0,0,0,1.114-1.937c.283-.6.539-1.208.784-1.822l.289.607a.328.328,0,0,0,.445.117A.332.332,0,0,0,14.19,5Z" fill="#fff" opacity="0.8" />
</svg>