<svg xmlns="http://www.w3.org/2000/svg" width="18" height="18" viewBox="0 0 18 18"><defs><linearGradient id="ba03e3e8-ed4c-4f15-acc1-89e0ea7ab275" x1="-233.068" y1="994.109" x2="-233.068" y2="987.871" gradientTransform="matrix(1, 0, 0, -1, 244, 997.516)" gradientUnits="userSpaceOnUse"><stop offset="0.001" stop-color="#773adc" /><stop offset="0.528" stop-color="#6635bb" /><stop offset="1" stop-color="#552f99" /></linearGradient><linearGradient id="ac37fe37-f5af-4fcf-9f00-6baf9ca9b088" x1="-237.155" y1="987.252" x2="-237.155" y2="994.625" gradientTransform="matrix(1, 0, 0, -1, 244, 997.516)" gradientUnits="userSpaceOnUse"><stop offset="0.001" stop-color="#773adc" /><stop offset="0.307" stop-color="#793ddd" /><stop offset="0.532" stop-color="#8046e1" /><stop offset="0.731" stop-color="#8c56e7" /><stop offset="0.915" stop-color="#9c6def" /><stop offset="1" stop-color="#a67af4" /></linearGradient></defs><g id="ad334b30-5a1c-4a61-80d3-c489b5d020e7"><g><path d="M8.567,6.264H2.512V1.058A.881.881,0,0,1,3.384.177H8.567Zm-5.3-.752H7.818V.913H3.384a.12.12,0,0,0-.12.12h0Z" fill="#949494" /><path d="M15.308,6.264H9.254V.177h5.182a.881.881,0,0,1,.872.881Zm-5.3-.752h4.553V1.058a.119.119,0,0,0-.091-.142h0a.122.122,0,0,0-.027,0H10.006Z" fill="#949494" /><path d="M8.567,12.974H3.384a.872.872,0,0,1-.872-.864V6.9H8.567Zm-5.3-5.327V12.11a.12.12,0,0,0,.12.12h4.43V7.647Z" fill="#949494" /><path d="M14.436,12.974H9.254V6.9h6.054V12.11A.872.872,0,0,1,14.436,12.974Zm-4.43-.752h4.43a.119.119,0,0,0,.12-.119h0V7.647H10Z" fill="#949494" /><path d="M13.107,4.48a.224.224,0,0,0-.151-.211L8.891,2.9a.1.1,0,0,0-.034,0h0a.1.1,0,0,0-.1.1h0V10.16a.1.1,0,0,0,.1.1h0a.09.09,0,0,0,.037-.007l4.072-1.628a.223.223,0,0,0,.14-.207Z" fill="url(#ba03e3e8-ed4c-4f15-acc1-89e0ea7ab275)" /><path d="M8.831,2.891l-4.017.733a.123.123,0,0,0-.1.12V9.289a.12.12,0,0,0,.095.119l4.017.853a.122.122,0,0,0,.145-.092.131.131,0,0,0,0-.028V3.011a.121.121,0,0,0-.116-.12Z" fill="url(#ac37fe37-f5af-4fcf-9f00-6baf9ca9b088)" /><path d="M6.975,4V9.157l1.4.228V3.753Zm-1.717.279V8.794l1.215.248V4.071Z" fill="#b796f9" opacity="0.5" /><path d="M15.519,13.058a1.446,1.446,0,0,1-1.083.491H3.385a1.435,1.435,0,0,1-.959-.369L.516,13.2s-.022,1.832,0,1.949c.121.664.9,1.314,2.345,1.823a21.4,21.4,0,0,0,12.017-.016c1.568-.534,2.436-1.218,2.594-1.912.02-.085.028-2,.028-2Z" fill="#5ea0ef" /><path d="M15.884,11.375v.741a1.452,1.452,0,0,1-1.448,1.433H3.385A1.453,1.453,0,0,1,1.938,12.11v-.525C1.025,12.063.494,12.635.5,13.244c.016,1.623,3.835,2.9,8.529,2.853s8.487-1.4,8.471-3.024C17.493,12.433,16.893,11.847,15.884,11.375Z" fill="#50e6ff" /></g></g></svg>