<svg xmlns="http://www.w3.org/2000/svg" width="18" height="18" viewBox="0 0 18 18">
  <defs>
    <linearGradient id="e9237396-a6bc-47f8-8af3-3c943485ed7d" x1="11.337" y1="8.144" x2="11.337" y2="1.482" gradientUnits="userSpaceOnUse">
      <stop offset="0" stop-color="#0078d4"/>
      <stop offset="1" stop-color="#5ea0ef"/>
    </linearGradient>
    <linearGradient id="a05e4ba9-b65f-49b5-a638-03ea72822403" x1="11.337" y1="11.3" x2="11.337" y2="4.638" gradientUnits="userSpaceOnUse">
      <stop offset="0" stop-color="#0078d4"/>
      <stop offset="1" stop-color="#5ea0ef"/>
    </linearGradient>
    <linearGradient id="f544970d-9209-4bda-939d-cdda987c99a6" x1="11.337" y1="16.74" x2="11.337" y2="7.751" gradientUnits="userSpaceOnUse">
      <stop offset="0" stop-color="#0078d4"/>
      <stop offset="1" stop-color="#5ea0ef"/>
    </linearGradient>
  </defs>
  <g id="b309deb0-6c91-4244-a89e-aea5613d0c47">
    <rect x="4.675" y="1.482" width="13.325" height="6.663" rx="0.651" fill="url(#e9237396-a6bc-47f8-8af3-3c943485ed7d)"/>
    <rect x="4.675" y="4.638" width="13.325" height="6.663" rx="0.651" fill="url(#a05e4ba9-b65f-49b5-a638-03ea72822403)"/>
    <rect x="4.675" y="7.751" width="13.325" height="8.989" rx="0.651" fill="url(#f544970d-9209-4bda-939d-cdda987c99a6)"/>
    <g>
      <path d="M5.125,3.047a4.946,4.946,0,1,0,4.946,4.946A4.945,4.945,0,0,0,5.125,3.047Z" fill="#50e6ff"/>
      <path d="M5.125,13.118a5.125,5.125,0,1,1,5.126-5.125A5.131,5.131,0,0,1,5.125,13.118Zm0-9.892A4.768,4.768,0,1,0,9.893,7.993,4.772,4.772,0,0,0,5.125,3.226Z" fill="#fff"/>
    </g>
    <path d="M5.49,4.814a.465.465,0,1,1-.463-.466A.464.464,0,0,1,5.49,4.814Zm-.018,6.361a.465.465,0,1,1-.464-.467A.465.465,0,0,1,5.472,11.175ZM3.5,10.113l0-1.039a2,2,0,0,0,1.281.478,1.484,1.484,0,0,0,.347-.035.8.8,0,0,0,.247-.1.438.438,0,0,0,.148-.149.371.371,0,0,0,.049-.187A.4.4,0,0,0,5.5,8.839a.85.85,0,0,0-.212-.2,2.334,2.334,0,0,0-.32-.176c-.123-.057-.256-.114-.4-.173a2.048,2.048,0,0,1-.812-.558,1.213,1.213,0,0,1-.266-.794,1.267,1.267,0,0,1,.148-.625,1.235,1.235,0,0,1,.4-.429,1.794,1.794,0,0,1,.583-.247,3,3,0,0,1,.7-.077,4.235,4.235,0,0,1,.645.045,2.565,2.565,0,0,1,.518.137l0,.971A1.652,1.652,0,0,0,6.23,6.57a2.122,2.122,0,0,0-.283-.1,2.4,2.4,0,0,0-.291-.061,2.059,2.059,0,0,0-.275-.02,1.483,1.483,0,0,0-.325.033.86.86,0,0,0-.247.1.473.473,0,0,0-.156.148.346.346,0,0,0-.056.193.372.372,0,0,0,.061.21.725.725,0,0,0,.175.175,1.9,1.9,0,0,0,.276.164q.162.079.366.165a3.979,3.979,0,0,1,.5.25,1.78,1.78,0,0,1,.381.3A1.173,1.173,0,0,1,6.6,8.5a1.51,1.51,0,0,1-.067,1.15,1.2,1.2,0,0,1-.4.428,1.736,1.736,0,0,1-.59.234,3.394,3.394,0,0,1-.71.069,3.978,3.978,0,0,1-.73-.067A2.165,2.165,0,0,1,3.5,10.113Z" fill="#fff"/>
  </g>
  <metadata>
   <rdf:RDF xmlns:rdf="http://www.w3.org/1999/02/22-rdf-syntax-ns#">
      <rdf:li>public:true</rdf:li>
      <rdf:li>sdk:false</rdf:li>
      <rdf:li>category:Management + Governance</rdf:li>
   </rdf:RDF>
</metadata>
</svg>
