<svg id="uuid-55afc4f6-947a-4fe4-87ac-fa8fa05057e3" xmlns="http://www.w3.org/2000/svg" width="18" height="18" viewBox="0 0 18 18">
  <defs>
    <linearGradient id="uuid-0005c05e-675d-4762-ba42-b06bfe0e39a9" x1="2.434" y1="18" x2="2.434" y2="14.301" gradientUnits="userSpaceOnUse">
      <stop offset="0" stop-color="#4aa647"/>
      <stop offset=".998" stop-color="#8de971"/>
    </linearGradient>
    <linearGradient id="uuid-b537fdff-691a-42a2-a5af-c1e73fbda063" x1="2.434" y1="10.984" x2="2.434" y2="7.285" gradientUnits="userSpaceOnUse">
      <stop offset="0" stop-color="#4aa647"/>
      <stop offset=".998" stop-color="#8de971"/>
    </linearGradient>
    <linearGradient id="uuid-e41cc4f8-a17b-4ba7-993a-afa0ef75d889" x1="2.434" y1="3.699" x2="2.434" y2="0" gradientUnits="userSpaceOnUse">
      <stop offset="0" stop-color="#4aa647"/>
      <stop offset=".998" stop-color="#8de971"/>
    </linearGradient>
    <linearGradient id="uuid-e030d639-899d-4269-a025-0fe9dcc79a66" x1="12.313" y1="17.209" x2="12.313" y2=".722" gradientUnits="userSpaceOnUse">
      <stop offset=".001" stop-color="#bebfbe"/>
      <stop offset="1" stop-color="#d9d9d6"/>
    </linearGradient>
  </defs>
  <path d="M4.267,14.301c-.099,0-.198.038-.274.113l-2.194,2.192-.901-.901c-.076-.076-.175-.113-.274-.113s-.198.038-.274.113l-.239.227c-.151.151-.151.396,0,.547l1.403,1.406c.076.076.175.115.275.115.099,0,.197-.037.273-.112,0,0,.001-.001.002-.002l2.692-2.696c.15-.148.152-.39.004-.541l-.004-.004s.003.003.004.004c0,0,0,0,0,0l.005.005-.225-.239c-.076-.076-.175-.113-.274-.113h0Z" fill="url(#uuid-0005c05e-675d-4762-ba42-b06bfe0e39a9)"/>
  <path d="M4.267,7.285c-.099,0-.198.038-.274.113l-2.194,2.192-.901-.901c-.076-.076-.175-.113-.274-.113s-.198.038-.274.113l-.239.227c-.151.151-.151.396,0,.547l1.403,1.406c.076.076.175.115.275.115.099,0,.197-.037.273-.112,0,0,.001-.001.002-.002l2.692-2.696c.151-.148.152-.39.004-.541l-.004-.004s.003.003.004.004c0,0,0,0,0,0l.005.005-.225-.239c-.076-.076-.175-.113-.274-.113h0Z" fill="url(#uuid-b537fdff-691a-42a2-a5af-c1e73fbda063)"/>
  <path d="M4.267,0C4.168,0,4.069.038,3.993.113L1.799,2.305l-.901-.901c-.076-.076-.175-.113-.274-.113s-.198.038-.274.113l-.239.227c-.151.151-.151.396,0,.547l1.403,1.406c.076.076.175.115.275.115.099,0,.197-.037.273-.112,0,0,.001-.001.002-.002L4.756.888c.15-.148.152-.39.005-.54l-.005-.005s.003.003.004.004c0,0,0,0,0,0l.005.005-.225-.239C4.465.038,4.366,0,4.267,0h0Z" fill="url(#uuid-e41cc4f8-a17b-4ba7-993a-afa0ef75d889)"/>
  <path d="M7.563,2.601h9.499c.519,0,.939-.421.939-.939s-.421-.939-.939-.939H7.563c-.518.004-.935.426-.932.944.003.514.418.931.932.935ZM17.062,8.164H7.563c-.519,0-.939.421-.939.939s.421.939.939.939h9.499c.519,0,.939-.421.939-.939s-.421-.939-.939-.939ZM17.062,15.33H7.563c-.519,0-.939.421-.939.939s.421.939.939.939h9.499c.519,0,.939-.421.939-.939s-.421-.939-.939-.939Z" fill="url(#uuid-e030d639-899d-4269-a025-0fe9dcc79a66)"/>
</svg>