<svg xmlns="http://www.w3.org/2000/svg" viewBox="0 0 18 18">
  <defs>
    <linearGradient id="a3e0bc96-3963-42f1-8aab-d6ff3e7fec58" x1="9" y1="12.017" x2="9" gradientUnits="userSpaceOnUse">
      <stop offset="0" stop-color="#76bc2d" />
      <stop offset="0.817" stop-color="#86d633" />
    </linearGradient>
    <linearGradient id="b8d49cd9-4233-4921-92f7-4956002bca41" x1="9" y1="13.897" x2="9" y2="19.153" gradientUnits="userSpaceOnUse">
      <stop offset="0.225" stop-color="#5ea0ef" />
      <stop offset="1" stop-color="#0078d4" />
    </linearGradient>
  </defs>
  <g id="aa050c65-cd19-4b61-8aa1-b47611e5e017">
    <path d="M17.477,8.253a3.808,3.808,0,0,0-3.306-3.661A4.8,4.8,0,0,0,9.226,0,4.924,4.924,0,0,0,4.519,3.21a4.545,4.545,0,0,0-4,4.374A4.613,4.613,0,0,0,5.3,12.017c.141,0,.281-.007.42-.018h7.731a.762.762,0,0,0,.2-.031A3.854,3.854,0,0,0,17.477,8.253Z" fill="url(#a3e0bc96-3963-42f1-8aab-d6ff3e7fec58)" />
    <path d="M15.742,16.3h-3.4a.424.424,0,0,1-.424-.424V9.967a.424.424,0,1,1,.848,0v5.484h2.975a.424.424,0,0,1,0,.848ZM9,16.3a.424.424,0,0,0,.422-.426L9.379,7.106a.424.424,0,0,0-.424-.422h0a.424.424,0,0,0-.422.426l.045,8.767A.424.424,0,0,0,9,16.3Zm-2.921-.424V9.967a.424.424,0,1,0-.848,0v5.484H2.257a.424.424,0,0,0,0,.848h3.4A.424.424,0,0,0,6.081,15.875Z" fill="#5ea0ef" />
    <path d="M15.174,15.875a1.413,1.413,0,1,1,1.413,1.413A1.413,1.413,0,0,1,15.174,15.875ZM9,17.288a1.413,1.413,0,1,0-1.413-1.413A1.413,1.413,0,0,0,9,17.288ZM2.826,15.875a1.413,1.413,0,1,0-1.413,1.413A1.413,1.413,0,0,0,2.826,15.875Z" fill="url(#b8d49cd9-4233-4921-92f7-4956002bca41)" />
  </g>
  <metadata>
    <rdf:RDF xmlns:rdf="http://www.w3.org/1999/02/22-rdf-syntax-ns#">
      <rdf:li>public:true</rdf:li>
      <rdf:li>sdk:false</rdf:li>
      <rdf:li>category:Other</rdf:li>
    </rdf:RDF>
  </metadata>
</svg>