<svg xmlns="http://www.w3.org/2000/svg" viewBox="0 0 18 18">
  <defs>
    <linearGradient id="b2973900-b543-49bd-bb17-49ddff7057a0" x1="9.763" y1="1.345" x2="9.763" y2="17.983" gradientUnits="userSpaceOnUse">
      <stop offset="0" stop-color="#5ea0ef" />
      <stop offset="1" stop-color="#0078d4" />
    </linearGradient>
    <linearGradient id="b16ce4e2-1f1b-42b9-9cd4-85222c248eb8" x1="9.763" y1="17.107" x2="9.763" y2="2.221" gradientUnits="userSpaceOnUse">
      <stop offset="0" stop-color="#5ea0ef" />
      <stop offset="1" stop-color="#83b9f9" />
    </linearGradient>
  </defs>
  <g id="b31a6ab0-238d-47f5-9185-29adbbad6300">
    <rect x="1.444" y="-0.017" width="13.588" height="16.638" rx="0.555" fill="#005ba1" />
    <rect x="2.969" y="1.345" width="13.588" height="16.638" rx="0.555" fill="url(#b2973900-b543-49bd-bb17-49ddff7057a0)" />
    <rect x="3.837" y="2.221" width="11.852" height="14.886" rx="0.139" fill="url(#b16ce4e2-1f1b-42b9-9cd4-85222c248eb8)" />
    <path d="M12.759,13.949h1.162a.139.139,0,0,1,.139.138v1.162a.139.139,0,0,1-.139.139H12.759a.139.139,0,0,1-.139-.139V14.087A.138.138,0,0,1,12.759,13.949Zm-7.293.138v1.162a.138.138,0,0,0,.138.139h5.754a.139.139,0,0,0,.139-.139V14.087a.138.138,0,0,0-.139-.138H5.6A.138.138,0,0,0,5.466,14.087Zm7.154-2.893v1.162a.139.139,0,0,0,.139.139h1.162a.139.139,0,0,0,.139-.139V11.194a.139.139,0,0,0-.139-.138H12.759A.138.138,0,0,0,12.62,11.194Zm-7.154,0v1.162A.138.138,0,0,0,5.6,12.5h5.754a.139.139,0,0,0,.139-.139V11.194a.138.138,0,0,0-.139-.138H5.6A.138.138,0,0,0,5.466,11.194Z" fill="#fff" />
    <path d="M7.151,4.144a.393.393,0,1,1-.392-.393A.392.392,0,0,1,7.151,4.144ZM7.135,9.508a.392.392,0,1,1-.391-.394A.393.393,0,0,1,7.135,9.508ZM5.474,8.613l0-.877a1.67,1.67,0,0,0,.517.3,1.632,1.632,0,0,0,.564.1A1.271,1.271,0,0,0,6.85,8.11a.7.7,0,0,0,.208-.083A.358.358,0,0,0,7.183,7.9a.318.318,0,0,0,.042-.157.342.342,0,0,0-.066-.206.7.7,0,0,0-.178-.167,1.859,1.859,0,0,0-.27-.149c-.1-.048-.216-.1-.336-.146a1.718,1.718,0,0,1-.685-.471,1.022,1.022,0,0,1-.224-.669,1.064,1.064,0,0,1,.124-.527,1.052,1.052,0,0,1,.337-.362,1.494,1.494,0,0,1,.492-.208,2.576,2.576,0,0,1,.592-.066,3.623,3.623,0,0,1,.544.039,2.117,2.117,0,0,1,.437.115l0,.819a1.3,1.3,0,0,0-.214-.121,1.72,1.72,0,0,0-.24-.087,1.81,1.81,0,0,0-.245-.051,1.73,1.73,0,0,0-.231-.018,1.215,1.215,0,0,0-.274.028.691.691,0,0,0-.209.081.4.4,0,0,0-.132.124.3.3,0,0,0-.047.163.312.312,0,0,0,.052.177A.6.6,0,0,0,6.6,6.19a1.576,1.576,0,0,0,.233.138c.091.045.194.091.309.139a3.334,3.334,0,0,1,.423.211,1.521,1.521,0,0,1,.321.251.981.981,0,0,1,.2.32,1.277,1.277,0,0,1-.056.97,1.009,1.009,0,0,1-.339.36,1.476,1.476,0,0,1-.5.2,2.892,2.892,0,0,1-.6.058,3.293,3.293,0,0,1-.615-.057A1.872,1.872,0,0,1,5.474,8.613Z" fill="#fff" />
  </g>
</svg>