<svg xmlns="http://www.w3.org/2000/svg" viewBox="0 0 18 18">
  <defs>
    <linearGradient id="bd6e68bb-3387-4819-844c-7e83606f32ce" x1="12.735" y1="18" x2="12.735" y2="3.516" gradientUnits="userSpaceOnUse">
      <stop offset="0.001" stop-color="#86d633" />
      <stop offset="0.817" stop-color="#b4ec36" />
    </linearGradient>
  </defs>
  <g id="b52fe235-4245-4551-9259-a57dbe5343c4">
    <g>
      <path d="M9.967,13.993a.518.518,0,0,1-.543.491H1.106a.518.518,0,0,1-.543-.491V.491A.519.519,0,0,1,1.106,0H9.424a.519.519,0,0,1,.543.491Z" fill="#0078d4" />
      <path d="M8.669,6.192A1.079,1.079,0,0,1,7.647,7.319H2.967A1.079,1.079,0,0,1,1.945,6.192h0A1.079,1.079,0,0,1,2.967,5.066h4.68A1.079,1.079,0,0,1,8.669,6.192Zm0-3.346A1.079,1.079,0,0,0,7.647,1.72H2.967A1.079,1.079,0,0,0,1.945,2.846h0A1.079,1.079,0,0,0,2.967,3.973h4.68A1.078,1.078,0,0,0,8.669,2.846Z" fill="#005ba1" opacity="0.6" />
    </g>
    <g>
      <path d="M13.677,15.77a.519.519,0,0,1-.542.491H4.816a.519.519,0,0,1-.542-.491V2.268a.518.518,0,0,1,.542-.491h8.319a.518.518,0,0,1,.542.491Z" fill="#76bc2d" />
      <path d="M12.38,7.969A1.078,1.078,0,0,1,11.358,9.1H6.678A1.077,1.077,0,0,1,5.656,7.969h0A1.077,1.077,0,0,1,6.678,6.843h4.68A1.078,1.078,0,0,1,12.38,7.969Zm0-3.346A1.078,1.078,0,0,0,11.358,3.5H6.678A1.077,1.077,0,0,0,5.656,4.623h0A1.077,1.077,0,0,0,6.678,5.749h4.68A1.077,1.077,0,0,0,12.38,4.623Z" fill="#5e9624" opacity="0.6" />
    </g>
    <path d="M17.437,17.509a.519.519,0,0,1-.543.491H8.576a.519.519,0,0,1-.543-.491V4.007a.518.518,0,0,1,.543-.491h8.318a.518.518,0,0,1,.543.491Z" fill="url(#bd6e68bb-3387-4819-844c-7e83606f32ce)" />
    <path d="M16.14,9.708a1.078,1.078,0,0,1-1.022,1.126H10.437A1.077,1.077,0,0,1,9.416,9.708h0a1.077,1.077,0,0,1,1.021-1.126h4.681A1.078,1.078,0,0,1,16.14,9.708Zm0-3.346a1.078,1.078,0,0,0-1.022-1.126H10.437A1.077,1.077,0,0,0,9.416,6.362h0a1.077,1.077,0,0,0,1.021,1.126h4.681A1.077,1.077,0,0,0,16.14,6.362Z" fill="#699f28" />
    <path d="M15.374,6.362a.756.756,0,1,1-.756-.756A.756.756,0,0,1,15.374,6.362Zm-.756,2.59a.756.756,0,1,0,.756.756A.755.755,0,0,0,14.618,8.952Z" fill="#fff" />
  </g>
  <metadata>
    <rdf:RDF xmlns:rdf="http://www.w3.org/1999/02/22-rdf-syntax-ns#">
      <rdf:li>public:true</rdf:li>
      <rdf:li>sdk:false</rdf:li>
      <rdf:li>category:Other</rdf:li>
    </rdf:RDF>
  </metadata>
</svg>