<svg xmlns="http://www.w3.org/2000/svg" width="18" height="18" viewBox="0 0 18 18">
  <defs>
    <linearGradient id="f3cd57ba-f20d-46e5-8391-9b472ee84fee" x1="6.2" y1="14.703" x2="6.2" y2="4.641" gradientUnits="userSpaceOnUse">
      <stop offset="0" stop-color="#0078d4"/>
      <stop offset="1" stop-color="#5ea0ef"/>
    </linearGradient>
    <linearGradient id="eaf5c903-e9b0-4316-be47-d7e949d7dc6a" x1="304.878" y1="403.352" x2="305.612" y2="394.217" gradientTransform="matrix(1, 0, 0, -1, -298, 403.516)" gradientUnits="userSpaceOnUse">
      <stop offset="0" stop-color="#5ea0ef"/>
      <stop offset="1" stop-color="#0078d4"/>
    </linearGradient>
    <linearGradient id="bf11c43b-cc6a-44a2-9a29-0eaf5c12d596" x1="13.53" y1="17.539" x2="13.53" y2="12.497" gradientTransform="matrix(1, 0, 0, 1, 0, 0)" gradientUnits="userSpaceOnUse">
      <stop offset="0" stop-color="#5ea0ef"/>
      <stop offset="1" stop-color="#0078d4"/>
    </linearGradient>
    <linearGradient id="b7d9d2cb-92d4-4f06-9cc3-a8e55a4d375b" x1="13.53" y1="14.155" x2="13.53" y2="7.133" gradientUnits="userSpaceOnUse">
      <stop offset="0.001" stop-color="#76bc2d"/>
      <stop offset="1" stop-color="#86d633"/>
    </linearGradient>
  </defs>
  <g id="a6158f6e-5f75-44ba-9677-f72901446514">
    <g>
      <path d="M10.877,13.107l-.026-.516-.483-.185a.9.9,0,0,1-.432-1.329l.282-.433-.282-.433a.9.9,0,0,1,.432-1.329l.483-.185.026-.516a.9.9,0,0,1,.1-.361,5.534,5.534,0,0,0-3.8-1.367c-3.751,0-5.686,2.336-6.064,6.158A1.083,1.083,0,0,0,2.074,13.8h0a.977.977,0,0,0,.108.006l9.108,0A.887.887,0,0,1,10.877,13.107Z" fill="url(#f3cd57ba-f20d-46e5-8391-9b472ee84fee)"/>
      <path d="M7.175,7.257a3.387,3.387,0,0,1-1.841-.541l1.822,4.756L8.965,6.745A3.381,3.381,0,0,1,7.175,7.257Z" fill="#fff" opacity="0.8"/>
      <circle cx="7.175" cy="3.859" r="3.398" fill="url(#eaf5c903-e9b0-4316-be47-d7e949d7dc6a)"/>
      <path d="M15.418,12.5a2.792,2.792,0,0,1-3.732,0l-.232,4.639a.363.363,0,0,0,.218.362.354.354,0,0,0,.22.023.359.359,0,0,0,.193-.108l1.44-1.461,1.45,1.472a.368.368,0,0,0,.408.087.365.365,0,0,0,.167-.141.359.359,0,0,0,.056-.211Z" fill="url(#bf11c43b-cc6a-44a2-9a29-0eaf5c12d596)"/>
      <path d="M13.123,7.328a.522.522,0,0,1,.814,0l.478.591.735-.2a.524.524,0,0,1,.659.478l.039.76.71.272a.524.524,0,0,1,.252.775l-.415.637.415.638a.523.523,0,0,1-.252.774l-.71.272-.039.76a.523.523,0,0,1-.659.478l-.735-.2-.478.591a.522.522,0,0,1-.814,0l-.478-.591-.735.2a.523.523,0,0,1-.659-.478l-.039-.76-.71-.272a.523.523,0,0,1-.252-.774l.415-.638-.415-.637a.523.523,0,0,1,.252-.775l.71-.272.039-.76a.523.523,0,0,1,.659-.478l.735.2ZM14.64,9.683l-1.5,1.507-.731-.731-.036-.03a.262.262,0,0,0-.334.4l.916.917.036.03a.261.261,0,0,0,.334-.031l1.689-1.693.03-.036a.262.262,0,0,0-.4-.333ZM11.212,8.96l.094.245Z" fill="url(#b7d9d2cb-92d4-4f06-9cc3-a8e55a4d375b)"/>
      <path d="M14.64,9.683l-1.5,1.507-.731-.731-.036-.03a.262.262,0,0,0-.334.4l.916.917.036.03a.261.261,0,0,0,.334-.031l1.689-1.693.03-.036a.262.262,0,0,0-.4-.333Z" fill="#f2f2f2"/>
    </g>
  </g>
</svg>
