<svg xmlns="http://www.w3.org/2000/svg" width="16" height="16" viewBox="0 0 16 16">
  <g id="b0adaab5-931b-487e-b71f-805d2124323c">
    <path d="M12.432,4.936,8.06.565A.347.347,0,0,0,8.024.534L8,.512A1.507,1.507,0,0,0,7.832.377a.5.5,0,0,0-.06-.033L7.736.326,7.7.3A1.236,1.236,0,0,0,7.574.239a1.492,1.492,0,0,0-.468-.1L7.062.131A.42.42,0,0,0,7,.125H2.371a1.5,1.5,0,0,0-1.5,1.5v12a1.5,1.5,0,0,0,1.5,1.5H7.479A4.905,4.905,0,0,1,6.67,14h-4.3A.376.376,0,0,1,2,13.625v-12a.376.376,0,0,1,.375-.375h4.5V4.625a1.5,1.5,0,0,0,1.5,1.5h3.375v.807a4.81,4.81,0,0,1,1.125.317V6A1.5,1.5,0,0,0,12.432,4.936ZM8,2.091,10.905,5H8.371A.376.376,0,0,1,8,4.625Zm3.376,5.534v4.336l1.24-1.24a.376.376,0,0,1,.526,0,.372.372,0,0,1,0,.533l-1.879,1.879a.378.378,0,0,1-.526,0L8.855,11.254a.372.372,0,0,1,0-.533.376.376,0,0,1,.526,0l1.24,1.24V7.625a4.133,4.133,0,1,0,.751,0Zm1.5,6.747H9.118A.381.381,0,0,1,8.742,14a.377.377,0,0,1,.376-.376h3.757A.372.372,0,0,1,13.25,14,.376.376,0,0,1,12.875,14.372ZM4.548,5.026l.066-.668a.273.273,0,0,1,.023-.08.2.2,0,0,1,.088-.093.312.312,0,0,1,.119-.037,1.293,1.293,0,0,1,.139-.006,1.151,1.151,0,0,1,.155.009.336.336,0,0,1,.131.042.194.194,0,0,1,.086.1.23.23,0,0,1,.014.107L5.3,5.045c.044.007.088.016.132.026a2.225,2.225,0,0,1,.242.068,1.572,1.572,0,0,1,.212.087.615.615,0,0,1,.15.095.323.323,0,0,1,.072.093.388.388,0,0,1,.029.085c.007.03.011.061.015.091a.933.933,0,0,1,.006.118,1.292,1.292,0,0,1,0,.139.494.494,0,0,1-.025.114.22.22,0,0,1-.069.1.194.194,0,0,1-.121.04.434.434,0,0,1-.19-.064,2.268,2.268,0,0,0-.219-.1,2.553,2.553,0,0,0-.306-.1,1.444,1.444,0,0,0-.376-.045,1.563,1.563,0,0,0-.4.045.7.7,0,0,0-.249.117.4.4,0,0,0-.127.166.6.6,0,0,0-.042.228.543.543,0,0,0,.083.312.783.783,0,0,0,.238.224,1.785,1.785,0,0,0,.362.17c.149.052.3.105.444.159s.3.116.452.184a1.594,1.594,0,0,1,.417.272,1.287,1.287,0,0,1,.3.407,1.381,1.381,0,0,1,.116.591,1.409,1.409,0,0,1-.127.6,1.335,1.335,0,0,1-.362.471,1.767,1.767,0,0,1-.558.306,2.6,2.6,0,0,1-.617.125l-.074.723a.242.242,0,0,1-.025.083.194.194,0,0,1-.091.092.416.416,0,0,1-.108.031.864.864,0,0,1-.144.01.938.938,0,0,1-.159-.012.53.53,0,0,1-.11-.031.188.188,0,0,1-.1-.1.222.222,0,0,1-.01-.114l.075-.7c-.078-.012-.156-.027-.233-.045-.1-.023-.195-.049-.29-.081a1.641,1.641,0,0,1-.224-.1.681.681,0,0,1-.154-.106.333.333,0,0,1-.088-.164.951.951,0,0,1-.018-.206,1.166,1.166,0,0,1,.009-.156.536.536,0,0,1,.029-.118.211.211,0,0,1,.1-.112.237.237,0,0,1,.117-.027.424.424,0,0,1,.2.071,1.96,1.96,0,0,0,.229.115,2.136,2.136,0,0,0,.349.117,1.96,1.96,0,0,0,.489.053A1.262,1.262,0,0,0,5.283,9.2a.565.565,0,0,0,.232-.481.539.539,0,0,0-.081-.306A.823.823,0,0,0,5.2,8.189a1.843,1.843,0,0,0-.36-.175L4.4,7.857A4.621,4.621,0,0,1,3.95,7.67,1.718,1.718,0,0,1,3.54,7.4a1.313,1.313,0,0,1-.3-.409,1.389,1.389,0,0,1-.114-.59,1.407,1.407,0,0,1,.1-.521,1.2,1.2,0,0,1,.291-.429,1.494,1.494,0,0,1,.48-.294A2.074,2.074,0,0,1,4.548,5.026Z"/>
  </g>
</svg>
