<svg id="uuid-04967304-5fa4-4791-b7c0-f9e2b777b466" xmlns="http://www.w3.org/2000/svg" width="18" height="18" viewBox="0 0 18 18">
  <defs>
    <linearGradient id="uuid-159d68da-e9b4-4286-8f1c-c587736e3ebb" x1="-608.126" y1="-223.758" x2="-608.126" y2="-205.758" gradientTransform="translate(617.126 -205.758) scale(1 -1)" gradientUnits="userSpaceOnUse">
      <stop offset="0" stop-color="#0078d4"/>
      <stop offset=".817" stop-color="#5ea0ef"/>
    </linearGradient>
    <linearGradient id="uuid-8a9c4de4-0fac-48c7-95e0-2a47e8311fa0" x1="9" y1="15.453" x2="9" y2="8.136" gradientTransform="matrix(1, 0, 0, 1, 0, 0)" gradientUnits="userSpaceOnUse">
      <stop offset="0" stop-color="#0078d4"/>
      <stop offset=".817" stop-color="#5ea0ef"/>
    </linearGradient>
  </defs>
  <path d="M10.076,.136H1.921c-.353,0-.642,.271-.642,.603V17.261c0,.332,.289,.603,.642,.603h14.142c.353,0,.642-.271,.642-.603V6.332c0-.332-.289-.603-.642-.603h-4.687c-.353,0-.642-.271-.642-.603V.754c-.016-.347-.289-.618-.658-.618Z" fill="#fff"/>
  <path d="M9.787,.905V5.05c0,.844,.722,1.523,1.621,1.523h4.447v10.508H2.129V.905h7.657Zm.305-.905H1.824c-.369,0-.658,.271-.658,.618V17.382c0,.347,.289,.618,.658,.618h14.351c.353,0,.658-.271,.658-.618V6.286c0-.347-.289-.618-.658-.618h-4.768c-.353,0-.658-.271-.658-.618V.618c0-.347-.289-.618-.658-.618Z" fill="url(#uuid-159d68da-e9b4-4286-8f1c-c587736e3ebb)"/>
  <path d="M16.577,5.789L10.525,.136V4.749c0,.573,.498,1.055,1.108,1.055h4.944v-.015Z" fill="#0078d4"/>
  <path d="M5.231,13.595v-3.6c0-.069,.011-.137,.033-.206s.053-.131,.092-.188c.039-.056,.086-.108,.14-.155,.054-.047,.114-.083,.18-.11l2.713-1.082c.199-.079,.402-.118,.611-.118s.412,.039,.611,.118l2.713,1.082c.066,.027,.126,.063,.18,.107s.101,.096,.14,.155,.07,.123,.092,.191,.033,.137,.033,.206v3.6c0,.071-.011,.14-.033,.206s-.053,.129-.092,.188-.086,.112-.14,.158-.114,.082-.18,.107l-2.713,1.082c-.199,.079-.402,.118-.611,.118s-.412-.039-.611-.118l-2.713-1.082c-.066-.025-.126-.06-.18-.107-.054-.047-.101-.098-.14-.155-.039-.056-.07-.119-.092-.188s-.033-.139-.033-.21Zm3.769,1.388c.155,0,.301-.027,.438-.081l2.713-1.086c.044-.02,.08-.049,.107-.088s.04-.083,.04-.133v-3.6c0-.049-.013-.093-.04-.133s-.063-.069-.107-.088l-2.713-1.086c-.142-.056-.288-.085-.438-.085s-.296,.028-.438,.085l-2.713,1.086c-.044,.02-.08,.049-.107,.088s-.04,.083-.04,.133v3.6c0,.049,.013,.093,.04,.133s.063,.069,.107,.088l2.713,1.086c.137,.054,.283,.081,.438,.081Zm-.236-3.74l-1.98-.883c-.042-.02-.075-.048-.099-.085s-.038-.08-.04-.129c0-.064,.022-.119,.066-.166s.099-.07,.166-.07c.032,0,.065,.007,.099,.022l2.024,.898,2.024-.898c.029-.015,.061-.022,.096-.022,.064,0,.119,.023,.166,.07s.07,.102,.07,.166c0,.049-.012,.092-.037,.129s-.059,.065-.103,.085l-1.98,.883v2.201c0,.064-.023,.119-.07,.166s-.102,.07-.166,.07-.119-.023-.166-.07-.07-.102-.07-.166v-2.201Z" fill="url(#uuid-8a9c4de4-0fac-48c7-95e0-2a47e8311fa0)"/>
</svg>