<svg xmlns="http://www.w3.org/2000/svg" width="18" height="18" viewBox="0 0 18 18">
  <defs>
    <linearGradient id="bebef0e5-9550-4f03-9030-ff95078e0773" x1="0.708" y1="9.009" x2="17.33" y2="9.009" gradientUnits="userSpaceOnUse">
      <stop offset="0" stop-color="#83b9f9"/>
      <stop offset="1" stop-color="#5ea0ef"/>
    </linearGradient>
    <linearGradient id="e00628c7-1cc5-4da4-a46e-b4637aff8370" x1="8.999" y1="2.271" x2="8.999" y2="19.178" gradientUnits="userSpaceOnUse">
      <stop offset="0" stop-color="#0078d4"/>
      <stop offset="1" stop-color="#005ba1"/>
    </linearGradient>
  </defs>
  <g id="fe055f70-004e-4ae2-b7c4-cd49736d504d">
    <path d="M4.573,16.394.8,6.452a1.479,1.479,0,0,1,.855-1.9L11.578.8a1.48,1.48,0,0,1,1.916.837c.006.018.013.035.019.053l3.714,9.886a1.478,1.478,0,0,1-.836,1.916l-.053.019L6.452,17.227A1.477,1.477,0,0,1,4.573,16.394Z" fill="url(#bebef0e5-9550-4f03-9030-ff95078e0773)"/>
    <path d="M7.949,17.566.428,10.046a1.487,1.487,0,0,1,0-2.09L7.956.428a1.487,1.487,0,0,1,2.09,0l7.52,7.521a1.476,1.476,0,0,1,0,2.09h0l-7.527,7.527a1.476,1.476,0,0,1-2.09,0Z" fill="url(#e00628c7-1cc5-4da4-a46e-b4637aff8370)"/>
    <path d="M13.817,9.878a.228.228,0,0,1-.227.24h-.985a.224.224,0,0,1-.225-.209A3.833,3.833,0,0,0,8.539,6.315v.756a.182.182,0,0,1-.3.138L6.52,5.735a.184.184,0,0,1,0-.277L8.239,3.984a.182.182,0,0,1,.3.138v.756A5.271,5.271,0,0,1,13.817,9.878ZM9.459,13.121v.755a.183.183,0,0,0,.3.139l1.718-1.475a.181.181,0,0,0,0-.276L9.76,10.79a.182.182,0,0,0-.3.138v.756a3.832,3.832,0,0,1-3.84-3.595.225.225,0,0,0-.226-.209H4.408a.228.228,0,0,0-.226.241A5.27,5.27,0,0,0,9.459,13.121Z" fill="#fff"/>
  </g>
</svg>
