<svg xmlns="http://www.w3.org/2000/svg" width="18" height="18" viewBox="0 0 18 18">
  <defs>
    <linearGradient id="aab9f6b3-9c47-43cd-bd89-bc58f7f7520f" x1="6.125" y1="2.284" x2="6.125" y2="16.856" gradientUnits="userSpaceOnUse">
      <stop offset="0" stop-color="#ffb34d"/>
      <stop offset="1" stop-color="#ef7100"/>
    </linearGradient>
    <linearGradient id="b2ec68eb-a6e0-4d50-8ce8-75bdfff20c4a" x1="6.129" y1="6.527" x2="6.129" y2="12.171" gradientUnits="userSpaceOnUse">
      <stop offset="0" stop-color="#76bc2d"/>
      <stop offset="1" stop-color="#5e9624"/>
    </linearGradient>
  </defs>
  <circle cx="10.763" cy="9" r="5.957" fill="#f78d1e"/>
  <path d="M16.6,5.047a6.15,6.15,0,0,0-4.776-1.9,5.95,5.95,0,0,1-.656,11.794A6.932,6.932,0,0,0,15.6,13.809,6.105,6.105,0,0,0,16.6,5.047Z" fill="#d15900"/>
  <circle cx="6.125" cy="9" r="5.265" fill="#fff"/>
  <path d="M6.125,15.125A6.125,6.125,0,1,1,12.251,9,6.132,6.132,0,0,1,6.125,15.125Zm0-10.529A4.4,4.4,0,1,0,10.53,9,4.409,4.409,0,0,0,6.125,4.6Z" fill="url(#aab9f6b3-9c47-43cd-bd89-bc58f7f7520f)"/>
  <path d="M12.043,4.959a6.144,6.144,0,0,0-4.6-1.938,6.121,6.121,0,0,1-.6,12.058,6.957,6.957,0,0,0,4.174-1.162A6.243,6.243,0,0,0,12.043,4.959Z" fill="#d15900"/>
  <path d="M8.947,7.559,8.824,6.8A.262.262,0,0,0,8.6,6.578l-.741-.106a.266.266,0,0,0-.224.075L6.127,8.058l-1.5-1.5a.266.266,0,0,0-.243-.071l-.725.162a.263.263,0,0,0-.2.2l-.143.7a.26.26,0,0,0,.072.238L5.3,9.707V11.75a.264.264,0,0,0,.1.207l.607.477a.263.263,0,0,0,.324,0l.618-.479a.265.265,0,0,0,.1-.208V9.61L8.873,7.787A.26.26,0,0,0,8.947,7.559Z" fill="url(#b2ec68eb-a6e0-4d50-8ce8-75bdfff20c4a)"/>
</svg>
