<svg xmlns="http://www.w3.org/2000/svg" width="18" height="18" viewBox="0 0 18 18">
  <defs>
    <linearGradient id="a4a34a9b-e1cb-4ebd-a0ab-76a99977e0c9" x1="8.3213" y1="14.1391" x2="8.3213" y2="4.5816" gradientUnits="userSpaceOnUse">
      <stop offset="0" stop-color="#0078d4"/>
      <stop offset="1" stop-color="#5ea0ef"/>
    </linearGradient>
    <linearGradient id="aa52e0ee-17c8-4aa0-93a2-3c16cd286ce8" x1="306.3268" y1="390.3156" x2="306.3268" y2="397.2124" gradientTransform="translate(-298 -384)" gradientUnits="userSpaceOnUse">
      <stop offset="0" stop-color="#005ba1"/>
      <stop offset="1" stop-color="#003067"/>
    </linearGradient>
  </defs>
  <g id="f3f73191-a859-47c0-8f11-187db5e8c0f8">
    <circle cx="13.8614" cy="6.4969" r="0.3619" fill="#fff" opacity="0.6"/>
    <circle cx="13.8614" cy="11.8378" r="0.3619" fill="#fff" opacity="0.6"/>
    <path d="M.6385,15.12a.1619.1619,0,0,0,.08.1393l1.1344.6578,1.9278,1.1148a.1571.1571,0,0,0,.215-.0556l.0005-.001h0l.65-1.1288a.1626.1626,0,0,0-.0586-.2193L2.3322,14.3262a.1569.1569,0,0,1-.08-.1384V3.8178a.1571.1571,0,0,1,.08-.1385L4.5879,2.37a.1626.1626,0,0,0,.0586-.2183L3.998,1.0232a.16.16,0,0,0-.2165-.06h0L1.8918,2.06.7184,2.741a.16.16,0,0,0-.08.1384Z" fill="#949494"/>
    <path d="M4.6465,2.152,3.998,1.0232A.1589.1589,0,0,0,3.8363.9451a.15.15,0,0,0-.08.0195L1.8686,2.06.6952,2.741a.1626.1626,0,0,0-.0567.0557l.0186.0112a.1624.1624,0,0,0-.0186.0715l1.6157.9384a.1553.1553,0,0,1,.08-.1385L4.5879,2.37A.1626.1626,0,0,0,4.6465,2.152Z" fill="#a3a3a3"/>
    <path d="M4.6465,15.849l-.65,1.1288a.16.16,0,0,1-.1616.078.15.15,0,0,1-.08-.02L1.8668,15.94.6952,15.26a.166.166,0,0,1-.0567-.0566l.0186-.01a.1538.1538,0,0,1-.0186-.0724l1.6157-.9374a.157.157,0,0,0,.08.1384L4.5879,15.63A.1626.1626,0,0,1,4.6465,15.849Z" fill="#a3a3a3"/>
    <path d="M17.3614,2.88a.1615.1615,0,0,0-.08-.1393l-1.1343-.6578L14.2175.9646a.1571.1571,0,0,0-.2149.0557l-.0006.001h0l-.65,1.1288a.1626.1626,0,0,0,.0585.2193l2.2539,1.3081a.1569.1569,0,0,1,.08.1384V14.1822a.1571.1571,0,0,1-.08.1385L13.41,15.63a.1625.1625,0,0,0-.0585.2183l.65,1.1288a.16.16,0,0,0,.2165.06h0l1.8887-1.0963,1.1734-.681a.16.16,0,0,0,.0808-.1393Z" fill="#949494"/>
    <path d="M13.3517,15.848l.65,1.1288a.1589.1589,0,0,0,.1617.0781.15.15,0,0,0,.08-.02L16.1314,15.94l1.1734-.681a.1634.1634,0,0,0,.0567-.0557l-.0186-.0112a.1624.1624,0,0,0,.0186-.0715l-1.6157-.9384a.1553.1553,0,0,1-.08.1385L13.4121,15.63A.1616.1616,0,0,0,13.3517,15.848Z" fill="#a3a3a3"/>
    <path d="M13.3517,2.151l.65-1.1288a.16.16,0,0,1,.1617-.078.15.15,0,0,1,.08.0195L16.1314,2.06l1.1734.68a.1583.1583,0,0,1,.0566.0566l-.0185.01a.1525.1525,0,0,1,.0185.0724l-1.6174.9374a.157.157,0,0,0-.08-.1384L13.41,2.37A.1626.1626,0,0,1,13.3517,2.151Z" fill="#a3a3a3"/>
    <rect x="4.715" y="3.5464" width="9.5575" height="9.5575" rx="0.5273" fill="#005ba1"/>
    <rect x="3.5426" y="4.5816" width="9.5575" height="9.5575" rx="0.5273" fill="url(#a4a34a9b-e1cb-4ebd-a0ab-76a99977e0c9)"/>
    <circle cx="11.8032" cy="5.8393" r="0.6163" fill="#fff" opacity="0.6"/>
    <circle cx="4.8548" cy="12.6303" r="0.6163" fill="#fff" opacity="0.6"/>
    <g>
      <circle cx="8.3213" cy="9.3603" r="3.1604" fill="#fff" opacity="0.7"/>
      <path d="M10.6689,7.8788l-.15-.2277A2.7707,2.7707,0,0,0,8.39,6.5774H8.3231a2.7864,2.7864,0,0,0-2.58,1.75s-.1011.3243-.1112.3592a2.52,2.52,0,0,0-.0588.3407,2.291,2.291,0,0,0-.0248.248c0,.0285.0092.2645.0184.3536s.0092.1525.0221.2278a2.8568,2.8568,0,0,0,.1249.4436c.0128.0358.0193.0735.033.1093a2.8484,2.8484,0,0,0,.2875.5309h0l.0074.0082a2.78,2.78,0,0,0,5.0635-1.5889A2.748,2.748,0,0,0,10.6689,7.8788Zm-2.98,1.4806a.6292.6292,0,1,1,.63.6282h-.001A.6282.6282,0,0,1,7.6894,9.36Zm2.9519.79a2.5314,2.5314,0,0,0-1.3777-.7835V9.3594a.93.93,0,0,0-.2461-.6227,2.1831,2.1831,0,0,1,1.2978-.811,2.3823,2.3823,0,0,1,.3251,2.2236ZM8.1064,6.9144a2.55,2.55,0,0,0-.1479,1.57.9353.9353,0,0,0-.5419.6677,2.1886,2.1886,0,0,1-1.42-.5694A2.4523,2.4523,0,0,1,8.1091,6.9135Zm-1.6422,4.05a2.5545,2.5545,0,0,0,1.3721-.811.9185.9185,0,0,0,.485.1533.9332.9332,0,0,0,.2755-.0551,2.16,2.16,0,0,1,.2168,1.521,2.5168,2.5168,0,0,1-.49.05,2.4549,2.4549,0,0,1-1.8571-.8569Z" fill="url(#aa52e0ee-17c8-4aa0-93a2-3c16cd286ce8)"/>
    </g>
  </g>
</svg>
