<svg xmlns="http://www.w3.org/2000/svg" width="18" height="18" viewBox="0 0 18 18">
  <defs>
    <linearGradient id="eaed12ca-f95d-4b9e-ba54-5bd98dd1e6bd" x1="7.398" y1="6.497" x2="7.398" y2="18.782" gradientUnits="userSpaceOnUse">
      <stop offset="0" stop-color="#b77af4"/>
      <stop offset="0.997" stop-color="#773adc"/>
    </linearGradient>
    <linearGradient id="af72636d-a2fb-4aaa-8f3b-e2b746a12361" x1="7.087" y1="-0.088" x2="7.984" y2="11.066" gradientUnits="userSpaceOnUse">
          <stop offset="0" stop-color="#b77af4"/>
      <stop offset="0.997" stop-color="#773adc"/>
    </linearGradient>
  </defs>
  <title>Icon443</title>
  <g id="bcb59046-f3d2-43ed-9222-9966eda97711">
    <path d="M13.476,16.564a1.315,1.315,0,0,0,1.32-1.31,1.412,1.412,0,0,0-.009-.159c-.517-4.135-2.876-7.5-7.377-7.5-4.58,0-6.943,2.852-7.4,7.514a1.322,1.322,0,0,0,1.18,1.451,1.173,1.173,0,0,0,.133.007Z" fill="url(#eaed12ca-f95d-4b9e-ba54-5bd98dd1e6bd)"/>
    <path d="M7.48,8.573a4.128,4.128,0,0,1-2.246-.662l2.224,5.811L9.666,7.95A4.131,4.131,0,0,1,7.48,8.573Z" fill="#fff" opacity="0.8"/>
    <circle cx="7.45" cy="4.424" r="4.149" fill="url(#af72636d-a2fb-4aaa-8f3b-e2b746a12361)"/>
    <path d="M13.544,12.949a1.174,1.174,0,0,1,.013,2.222,4.228,4.228,0,0,1-3.836,0,1.174,1.174,0,0,1-.012-2.222A4.229,4.229,0,0,1,13.544,12.949Z" fill="#50e6ff"/>
    <ellipse cx="11.633" cy="11.43" rx="1.571" ry="2.712" transform="translate(0.169 23.03) rotate(-89.838)" fill="#50e6ff"/>
    <path d="M17.828,16.175a.83.83,0,0,1-.051.07c-.015.018-.033.034-.049.051s-.039.04-.061.059a.659.659,0,0,1-.057.044c-.024.018-.049.037-.076.054a1.183,1.183,0,0,1-.117.065l-.02.009a1.316,1.316,0,0,1-.133.053l-.026.009c-.049.016-.1.029-.155.041-.034.008-.07.013-.106.019s-.062.011-.095.014-.078.006-.117.008-.08.007-.122.007a2.8,2.8,0,0,1-.287-.014l-.084-.01c-.074-.009-.149-.021-.225-.035l-.081-.015-.141-.035c-.036-.009-.071-.017-.107-.028s-.1-.03-.146-.046c-.033-.011-.066-.021-.1-.033-.1-.034-.194-.073-.29-.115l-.088-.041c-.055-.026-.11-.052-.165-.08l-.1-.055c-.043-.024-.087-.048-.129-.073s-.071-.043-.106-.065l-.116-.074-.1-.071-.11-.08-.056-.044,0,0,.01-.02c.015-.028.027-.057.039-.085s.017-.033.023-.049l.005-.017a.819.819,0,0,0,.023-.081.5.5,0,0,0,.016-.055l0-.015c.005-.028.007-.056.01-.085s0-.037.006-.056v-.023l0-1.207c0,.026-.005.052-.007.079a.615.615,0,0,1-.01.085c0,.024-.011.047-.017.07s-.014.054-.023.081-.019.044-.028.066-.025.057-.04.085-.043.076-.069.114l-.013.018c-.027.038-.057.075-.089.112l-.018.021c-.035.038-.074.075-.114.112s-.055.046-.084.068-.049.041-.076.06-.064.044-.1.065l-.084.055-.01-.011c-.031-.039-.061-.079-.09-.118-.015-.021-.031-.041-.046-.061-.043-.062-.084-.125-.121-.189a1.762,1.762,0,0,1-.261-.8c.058-.021.116-.042.172-.066.026-.01.052-.021.077-.033a2.551,2.551,0,0,0,.256-.129l.033-.02c.025-.014.046-.031.07-.046s.067-.043.1-.065.051-.04.075-.06.058-.046.084-.069l.017-.014c.035-.032.067-.065.1-.1l.018-.021c.018-.021.037-.041.053-.062s.024-.033.036-.049l.013-.019a1.061,1.061,0,0,0,.06-.094l.01-.02a.928.928,0,0,0,.039-.085c.007-.016.017-.032.023-.049l.005-.017c.01-.027.016-.054.024-.081s.011-.036.015-.055l0-.014c.005-.029.007-.057.01-.086s0-.037.006-.055v-.024l0-1.207c0,.026-.005.053-.007.079s0,.057-.01.086-.011.046-.017.069-.014.054-.023.081-.019.044-.028.066-.025.057-.04.085a1.235,1.235,0,0,1-.069.114l-.013.019q-.04.055-.09.111l-.017.021c-.035.038-.074.075-.115.112-.026.023-.054.046-.083.069s-.049.04-.076.06-.064.043-.1.065-.067.045-.1.066c-.082.047-.168.089-.256.129q-.039.018-.078.033-.1.043-.213.081c-.026.009-.051.019-.078.027l-.14.04c-.035.009-.07.02-.106.028s-.1.022-.15.033l-.1.02c-.1.018-.205.032-.308.043-.033,0-.065.006-.1.008-.061,0-.122.01-.183.013l-.118,0H11.58c-.042,0-.083,0-.125,0l-.137-.007-.125-.011c-.046,0-.091-.009-.136-.015l-.121-.017-.144-.025L10.68,12.9c-.057-.012-.113-.026-.169-.041l-.093-.025c-.1-.029-.2-.062-.291-.1l-.136-.058-.071-.031c-.068-.033-.135-.067-.2-.1a1.358,1.358,0,0,1-.8-1.119l0,1.208a1.358,1.358,0,0,0,.8,1.118c.064.037.13.071.2.1.022.011.046.02.069.03.041.018.081.037.123.054l.015.005c.094.036.191.069.291.1l.023.008.07.017c.056.015.111.029.168.041l.045.011c.022.005.045.008.068.012l.144.025.057.01.064.007.135.015c.022,0,.043.006.065.007l.061,0,.137.007.069,0c.018,0,.037,0,.055,0H11.8l.043,0c.062,0,.123-.008.184-.013.024,0,.049,0,.073,0l.023,0c.1-.011.207-.025.308-.043l.015,0c.03-.005.058-.012.087-.018.051-.011.1-.02.151-.032l.106-.029.009,0-.232.4a1.219,1.219,0,0,0,0,1.075l-.035.007-.1.021c-.1.018-.205.032-.309.043l-.1.008c-.061.005-.122.01-.183.012l-.117,0c-.05,0-.1,0-.149,0s-.083,0-.124,0l-.138-.007-.125-.011c-.045,0-.091-.009-.136-.015l-.121-.017-.144-.025-.112-.023c-.057-.012-.113-.026-.168-.041l-.093-.025c-.1-.029-.2-.062-.291-.1-.047-.019-.092-.038-.138-.059-.023-.01-.047-.019-.069-.03-.069-.032-.135-.067-.2-.1a1.357,1.357,0,0,1-.8-1.118l0,1.207a1.356,1.356,0,0,0,.8,1.118c.064.037.131.072.2.1.023.011.047.02.07.03.04.018.08.037.122.054l.015.005c.094.036.192.069.291.1l.023.008.07.017c.056.015.112.029.168.041l.045.011c.022.005.046.008.068.012l.144.025.057.01.064.007c.045.006.09.011.136.015.021,0,.042.006.064.007l.061,0,.137.007.069,0h.056c.049,0,.1,0,.148,0H11.8l.044,0c.061,0,.122-.007.183-.012.024,0,.049,0,.074,0l.023,0c.1-.011.207-.025.308-.043l.015,0c.03,0,.058-.013.088-.019.05-.01.1-.02.15-.032s.071-.019.106-.028l.14-.04.03-.009c.016,0,.032-.012.048-.018q.11-.037.213-.081l.048-.02c.031.031.063.062.1.092l.034.031.053.044.112.093c.016.012.03.025.045.037l.052.038c.037.027.073.054.111.08.017.012.034.026.052.038l.051.033.116.074c.02.013.038.026.058.038l.048.027.13.073c.021.012.042.025.064.036l.04.019c.054.028.11.055.165.08.022.011.044.023.066.033l.022.008c.1.042.192.081.289.115l.014.006c.028.01.057.018.085.027l.147.047c.035.01.071.018.106.027s.1.025.142.035l.03.007c.017,0,.034,0,.05.008.076.015.152.026.226.035l.084.01a2.765,2.765,0,0,0,.286.014h.039c.029,0,.055-.005.083-.006s.08,0,.117-.009.064-.009.1-.014.072-.011.106-.019l.021,0c.047-.011.091-.024.134-.038l.026-.009c.026-.009.052-.017.076-.027s.038-.017.056-.026l.021-.009a1.012,1.012,0,0,0,.1-.052l.019-.013c.027-.017.051-.035.076-.054s.031-.02.044-.031l.013-.013a.669.669,0,0,0,.06-.059c.013-.013.029-.025.041-.039l.009-.012c.018-.022.034-.046.051-.07s.023-.029.033-.045l.012-.02.6-1.048C17.86,16.132,17.843,16.153,17.828,16.175Z" fill="#32bedd"/>
    <path d="M17.731,14.741c.62,1.059.132,1.926-1.088,1.937a4.226,4.226,0,0,1-3.334-1.9c-.62-1.059-.132-1.926,1.089-1.937A4.23,4.23,0,0,1,17.731,14.741Z" fill="#50e6ff"/>
  </g>
</svg>
