<svg xmlns="http://www.w3.org/2000/svg" viewBox="0 0 18 18">
  <g id="ebf11aba-8ab2-47cf-9ce6-da6345557e99">
    <polygon points="18 3.65 18 9.86 12.67 12.98 12.67 6.76 18 3.65" fill="#0078d4" />
    <polygon points="18 3.65 12.68 6.78 7.33 3.65 12.68 0.54 18 3.65" fill="#83b9f9" />
    <polygon points="12.67 6.78 12.67 12.98 7.33 9.86 7.33 3.65 12.67 6.78" fill="#5ea0ef" />
    <polygon points="7.33 9.86 12.67 6.76 12.67 12.98 7.33 9.86" fill="#83b9f9" />
    <polygon points="18 9.86 12.67 6.76 12.67 12.98 18 9.86" fill="#5ea0ef" />
    <polygon points="10.67 7.87 10.67 14.08 5.33 17.21 5.33 10.98 10.67 7.87" fill="#50e6ff" />
    <polygon points="10.67 7.87 5.35 11 0 7.87 5.35 4.76 10.67 7.87" fill="#c3f1ff" />
    <polygon points="5.33 11 5.33 17.21 0 14.08 0 7.87 5.33 11" fill="#9cebff" />
    <polygon points="0 14.08 5.33 10.98 5.33 17.21 0 14.08" fill="#c3f1ff" />
    <polygon points="10.67 14.08 5.33 10.98 5.33 17.21 10.67 14.08" fill="#9cebff" />
  </g>
</svg>