<svg xmlns="http://www.w3.org/2000/svg" viewBox="0 0 16 16">
  <path d="M12.6,15.58h0a.5.5,0,0,1,.135-.694L15,13.361V3.041l-2.335-1.96a.5.5,0,0,1-.061-.7l0,0a.5.5,0,0,1,.7-.062L16,2.574V13.892l-2.7,1.823A.5.5,0,0,1,12.6,15.58Z" />
  <path d="M2.7,15.715,0,13.89V2.572L2.689.317a.5.5,0,0,1,.705.062h0a.5.5,0,0,1-.062.705L1,3.039v10.32l2.263,1.527a.5.5,0,0,1,.135.694h0A.5.5,0,0,1,2.7,15.715Z" />
  <path d="M7.929,1.984l-5.5,2.75v6.618l5.5,2.75,5.5-2.75V4.734Zm3.882,3.059L7.929,6.984,4.047,5.043,7.929,3.1ZM7.9,7.6l.029-.057.029.057ZM3.429,5.852l4,2v4.882l-4-2Zm5,6.883V7.853l4-2v4.882Z" />
</svg>