<svg xmlns="http://www.w3.org/2000/svg" width="18" height="18" viewBox="0 0 18 18">
  <g id="acb71472-8035-4b7b-ad64-67d3a1250df4">
    <path d="M0,2.562a.168.168,0,0,1,.085-.148l1.27-.71L3.388.529l0,0a.181.181,0,0,1,.24.087l.7,1.186a.17.17,0,0,1-.064.222L1.832,3.4a.17.17,0,0,0-.085.148V14.474a.18.18,0,0,0,.085.148L4.267,16a.17.17,0,0,1,.064.222l-.7,1.186a.18.18,0,0,1-.244.063l-2.075-1.2L.085,15.586A.17.17,0,0,1,0,15.437Zm18-.021a.168.168,0,0,0-.085-.148l-1.27-.71L14.612.529l0,0a.181.181,0,0,0-.24.087l-.7,1.186a.17.17,0,0,0,.064.222L16.168,3.4a.17.17,0,0,1,.085.148V14.474a.18.18,0,0,1-.085.148L13.733,16a.17.17,0,0,0-.064.222l.7,1.186a.18.18,0,0,0,.244.063l2.075-1.2,1.228-.688A.17.17,0,0,0,18,15.437Z" fill="#949494"/>
    <path d="M.953,3.017,0,2.477a.068.068,0,0,1,.064-.063l1.26-.71L3.367.529A.187.187,0,0,1,3.4.514a.159.159,0,0,1,.2.1L4.3,1.8a.254.254,0,0,1,.016.028.149.149,0,0,1-.08.194L1.8,3.4l-.064.063Zm3.282,12.96L1.8,14.6a.236.236,0,0,1-.074-.1L.011,15.564H.064l1.217.689L3.4,17.428a.159.159,0,0,0,.22-.042l.013-.022.7-1.185a.149.149,0,0,0-.078-.195ZM17.047,3,18,2.456l-.064-.063-1.26-.71L14.633.529A.187.187,0,0,0,14.6.514a.159.159,0,0,0-.2.1L13.7,1.8a.254.254,0,0,0-.016.028.149.149,0,0,0,.08.194L16.2,3.4l.064.063ZM13.722,16.179l.7,1.185.012.022a.16.16,0,0,0,.221.042l2.118-1.175,1.217-.689h0l-1.715-1.058a.236.236,0,0,1-.074.1l-2.435,1.376A.149.149,0,0,0,13.722,16.179Z" fill="#a3a3a3"/>
    <path d="M7.722,9.666h2.552a.257.257,0,0,1,.258.258v2.553a.257.257,0,0,1-.258.257H7.722a.257.257,0,0,1-.258-.257V9.924A.257.257,0,0,1,7.722,9.666ZM3.1,9.924v2.553a.258.258,0,0,0,.258.257H5.911a.257.257,0,0,0,.258-.257V9.924a.257.257,0,0,0-.258-.258H3.358A.258.258,0,0,0,3.1,9.924Zm8.727,0v2.553a.257.257,0,0,0,.258.257h2.553a.258.258,0,0,0,.258-.257V9.924a.258.258,0,0,0-.258-.258H12.085A.257.257,0,0,0,11.827,9.924Z" fill="#0078d4"/>
    <path d="M7.722,5.27h2.552a.257.257,0,0,1,.258.258V8.08a.257.257,0,0,1-.258.258H7.722a.257.257,0,0,1-.258-.258V5.528A.257.257,0,0,1,7.722,5.27ZM3.1,5.528V8.08a.258.258,0,0,0,.258.258H5.911a.257.257,0,0,0,.258-.258V5.528a.257.257,0,0,0-.258-.258H3.358A.258.258,0,0,0,3.1,5.528Z" fill="#5ea0ef" style="isolation: isolate"/>
  </g>
</svg>
