<svg id="uuid-af55d44c-2b43-49d9-8dcb-c01e1b912fc8" xmlns="http://www.w3.org/2000/svg" width="18" height="18" viewBox="0 0 18 18">
  <defs>
    <clipPath id="uuid-7eff56c0-f519-44e0-b0a9-a56a22a25cbb">
      <ellipse cx="15.75" cy="9" rx="2.25" ry="2.243" fill="none" stroke-width="0"/>
    </clipPath>
    <clipPath id="uuid-fa9c6087-34aa-4b0d-b19b-623048ab0464">
      <ellipse cx="15.75" cy="15.757" rx="2.25" ry="2.243" fill="none" stroke-width="0"/>
    </clipPath>
    <clipPath id="uuid-4b3ae1b1-a2c0-4af3-b12b-1a01b0e53e88">
      <ellipse cx="15.75" cy="2.243" rx="2.25" ry="2.243" fill="none" stroke-width="0"/>
    </clipPath>
    <linearGradient id="uuid-6b091db9-ab2b-49f7-a63e-47286a8f8f38" x1="2.813" y1="10.604" x2="2.813" y2="7.798" gradientUnits="userSpaceOnUse">
      <stop offset="0" stop-color="#0095e6"/>
      <stop offset=".703" stop-color="#40c4f5"/>
    </linearGradient>
    <linearGradient id="uuid-3f9f789d-a612-4834-bce7-214b4e12ff8b" x1="2.812" y1="7.099" x2="2.812" y2="3.592" gradientUnits="userSpaceOnUse">
      <stop offset="0" stop-color="#0095e6"/>
      <stop offset=".703" stop-color="#40c4f5"/>
    </linearGradient>
  </defs>
  <path d="m16.607,8.534h0l-7.05.003V2.418c0-.139.113-.251.251-.25l5.913.026c.249,0,.451-.202.451-.451s-.202-.451-.451-.451h-6.136c-.522,0-.931.501-.931,1.142v6.104l-4.015.002c-.225,0-.408.208-.408.465,0,.256.183.464.408.464h0l4.015-.002v6.071c0,.64.409,1.142.931,1.142h6c.249,0,.451-.202.451-.451s-.202-.451-.451-.451l-5.78-.034c-.137,0-.249-.113-.249-.25v-6.026l7.05-.003c.225,0,.408-.208.408-.465,0-.256-.183-.464-.408-.464Z" fill="#a3a3a3" stroke-width="0"/>
  <path d="m2.711,9.454c-.249,0-.451-.202-.451-.451s.202-.451.451-.451l14.654-.005c.249,0,.451.202.451.451s-.202.451-.451.451l-14.654.005Z" fill="#a3a3a3" stroke-width="0"/>
  <path d="m9.514,9.468c-.225,0-.408-.208-.408-.464,0-.257.183-.464.408-.465l7.093-.005h0c.225,0,.408.208.408.464,0,.257-.183.464-.408.465l-7.093.005h0Z" fill="#773adc" stroke-width="0"/>
  <g>
    <path d="m7.91,9.215h2.181c.114,0,.22.061.277.16l1.09,1.882c.057.099.057.222,0,.321l-1.09,1.882c-.057.099-.163.16-.277.16h-2.181c-.114,0-.22-.061-.277-.16l-1.09-1.882c-.057-.099-.057-.222,0-.321l1.09-1.882c.057-.099.163-.16.277-.16Z" fill="#552f99" stroke-width="0"/>
    <path d="m7.91,6.998h2.181c.114,0,.22.061.277.16l1.09,1.882c.057.099.057.222,0,.321l-1.09,1.882c-.057.099-.163.16-.277.16h-2.181c-.114,0-.22-.061-.277-.16l-1.09-1.882c-.057-.099-.057-.222,0-.321l1.09-1.882c.057-.099.163-.16.277-.16Z" fill="#773adc" stroke-width="0"/>
    <path d="m7.91,4.382h2.181c.114,0,.22.061.277.16l1.09,1.882c.057.099.057.222,0,.321l-1.09,1.882c-.057.099-.163.16-.277.16h-2.181c-.114,0-.22-.061-.277-.16l-1.09-1.882c-.057-.099-.057-.222,0-.321l1.09-1.882c.057-.099.163-.16.277-.16Z" fill="#b796f9" stroke-width="0"/>
  </g>
  <g>
    <ellipse cx="15.75" cy="9" rx="2.25" ry="2.243" fill="#773adc" stroke-width="0"/>
    <g clip-path="url(#uuid-7eff56c0-f519-44e0-b0a9-a56a22a25cbb)">
      <g>
        <path d="m16.949,9.871c.259,0,.469.209.469.468v.191c0,.119-.037.236-.107.333-.322.45-.849.673-1.562.673s-1.24-.223-1.561-.673c-.069-.097-.106-.213-.106-.332v-.191c0-.258.21-.468.469-.468h2.399Z" fill="#40c4f5" stroke-width="0"/>
        <circle cx="15.749" cy="8.417" r="1.043" fill="#40c4f5" stroke-width="0"/>
      </g>
    </g>
  </g>
  <g>
    <ellipse cx="15.75" cy="15.757" rx="2.25" ry="2.243" fill="#552f99" stroke-width="0"/>
    <g clip-path="url(#uuid-fa9c6087-34aa-4b0d-b19b-623048ab0464)">
      <g>
        <path d="m16.949,16.628c.259,0,.469.209.469.468v.191c0,.119-.037.236-.107.333-.322.45-.849.673-1.562.673s-1.24-.223-1.561-.673c-.069-.097-.106-.213-.106-.332v-.191c0-.258.21-.468.469-.468h2.399Z" fill="#40c4f5" stroke-width="0"/>
        <circle cx="15.749" cy="15.173" r="1.043" fill="#40c4f5" stroke-width="0"/>
      </g>
    </g>
  </g>
  <g>
    <ellipse cx="15.75" cy="2.243" rx="2.25" ry="2.243" fill="#b796f9" stroke-width="0"/>
    <g clip-path="url(#uuid-4b3ae1b1-a2c0-4af3-b12b-1a01b0e53e88)">
      <g>
        <path d="m16.949,3.115c.259,0,.469.209.469.468v.191c0,.119-.037.236-.107.333-.322.45-.849.673-1.562.673s-1.24-.223-1.561-.673c-.069-.097-.106-.213-.106-.332v-.191c0-.258.21-.468.469-.468h2.399Z" fill="#40c4f5" stroke-width="0"/>
        <circle cx="15.749" cy="1.66" r="1.043" fill="#40c4f5" stroke-width="0"/>
      </g>
    </g>
  </g>
  <g>
    <path d="m4.836,7.798c.437,0,.791.353.791.789v.322c0,.201-.063.397-.18.561-.544.759-1.431,1.134-2.634,1.134s-2.09-.376-2.633-1.135c-.117-.163-.179-.359-.179-.56v-.323c0-.436.354-.789.791-.789h4.045Z" fill="url(#uuid-6b091db9-ab2b-49f7-a63e-47286a8f8f38)" stroke-width="0"/>
    <ellipse cx="2.812" cy="5.345" rx="1.758" ry="1.753" fill="url(#uuid-3f9f789d-a612-4834-bce7-214b4e12ff8b)" stroke-width="0"/>
  </g>
</svg>