<svg xmlns="http://www.w3.org/2000/svg" width="18" height="18" viewBox="0 0 18 18">
  <defs>
    <linearGradient id="fb70d0af-738b-4007-b249-80e0c82a9277" x1="7.785" y1="16.953" x2="7.785" gradientUnits="userSpaceOnUse">
      <stop offset="0" stop-color="#0078d4"/>
      <stop offset="0.817" stop-color="#5ea0ef"/>
    </linearGradient>
  </defs>
  <g id="b1dfcf86-ecae-4fcf-94ba-da45e86ef691">
    <g>
      <g>
        <g>
          <path d="M11.628,14.078h2.979V5.959a.57.57,0,0,0-.57-.57H9.887a.57.57,0,0,1-.569-.571V.7a.57.57,0,0,0-.57-.57H1.533A.57.57,0,0,0,.964.7V16.256a.57.57,0,0,0,.569.571h10.1Z" fill="#fff"/>
          <path d="M14.487,5.457,9.14.127V4.47a.981.981,0,0,0,.975.987Z" fill="#0078d4"/>
          <path d="M11.628,16.1H1.717V.855H8.485V4.763A1.434,1.434,0,0,0,9.917,6.2h3.937v7.881h.854V5.921a.578.578,0,0,0-.578-.579H9.917a.578.578,0,0,1-.578-.579V.579A.578.578,0,0,0,8.761,0H1.441A.578.578,0,0,0,.863.579V16.374a.578.578,0,0,0,.578.579H11.628Z" fill="url(#fb70d0af-738b-4007-b249-80e0c82a9277)"/>
        </g>
        <rect x="2.966" y="2.094" width="4.277" height="3.409" rx="0.295" fill="#5ea0ef"/>
        <rect x="2.966" y="6.772" width="5.549" height="3.409" rx="0.295" fill="#5ea0ef"/>
        <rect x="9.783" y="6.772" width="2.822" height="3.409" rx="0.295" fill="#5ea0ef"/>
        <rect x="2.966" y="11.451" width="5.549" height="3.409" rx="0.295" fill="#5ea0ef"/>
      </g>
      <g>
        <g>
          <path d="M12.675,17.721a4.183,4.183,0,1,1,4.183-4.183A4.188,4.188,0,0,1,12.675,17.721Z" fill="#fff"/>
          <path d="M12.675,9.634a3.9,3.9,0,1,1-3.9,3.9,3.908,3.908,0,0,1,3.9-3.9m0-.558a4.462,4.462,0,1,0,4.462,4.462,4.462,4.462,0,0,0-4.462-4.462Z" fill="#42e8ca"/>
        </g>
        <g>
          <path d="M10.463,12.823h.39a.125.125,0,0,1,.125.125v2.879a.25.25,0,0,1-.25.25h-.39a0,0,0,0,1,0,0V12.948a.125.125,0,0,1,.125-.125Z" transform="translate(28.416 17.107) rotate(134.919)" fill="#258277"/>
          <path d="M10.442,11.008h.39a.125.125,0,0,1,.125.125v3.083a0,0,0,0,1,0,0h-.39a.25.25,0,0,1-.25-.25V11.133A.125.125,0,0,1,10.442,11.008Z" transform="translate(12.01 -3.829) rotate(44.919)" fill="#37c2b1"/>
          <path d="M14.372,12.823h.39a.25.25,0,0,1,.25.25v2.879a.125.125,0,0,1-.125.125H14.5a.125.125,0,0,1-.125-.125V12.823A0,0,0,0,1,14.372,12.823Z" transform="translate(14.55 -6.157) rotate(45.081)" fill="#258277"/>
          <path d="M14.643,11.008h.39a0,0,0,0,1,0,0v3.083a.125.125,0,0,1-.125.125h-.39a.125.125,0,0,1-.125-.125V11.258A.25.25,0,0,1,14.643,11.008Z" transform="translate(34.037 11.153) rotate(135.081)" fill="#37c2b1"/>
        </g>
      </g>
    </g>
  </g>
</svg>
