<svg xmlns="http://www.w3.org/2000/svg" width="18" height="18" viewBox="0 0 18 18">
  <defs>
    <linearGradient id="a26324bb-a6e5-4d1e-8f41-6f8821b2001c" x1="7.496" y1="15.801" x2="7.496" y2="1.481" gradientUnits="userSpaceOnUse">
      <stop offset="0" stop-color="#0078d4"/>
      <stop offset="0.9" stop-color="#5ea0ef"/>
    </linearGradient>
  </defs>
  <g id="b0b12d68-c35e-40fe-9ea3-b215e54106ef">
    <path d="M1.712,1.5,2.838.187A.549.549,0,0,1,3.251,0H14.045a.755.755,0,0,1,.825.773V14.245a.547.547,0,0,1-.178.405l-1.215,1.107H2.442L1.7,15.444Z" fill="#0078d4"/>
    <path d="M2.618,1.49,3.308.7A.486.486,0,0,1,3.673.537H13.754a.485.485,0,0,1,.485.485V13.834a.486.486,0,0,1-.158.359L13,15.173Z" fill="#fff"/>
    <path d="M12.938,1.481H1.747a.051.051,0,0,0-.051.052V15.444a.357.357,0,0,0,.357.357H12.938a.357.357,0,0,0,.357-.357V1.839A.357.357,0,0,0,12.938,1.481Z" fill="url(#a26324bb-a6e5-4d1e-8f41-6f8821b2001c)"/>
    <path d="M11.568,9.8H5.246a.172.172,0,0,1-.173-.173V8.85a.173.173,0,0,1,.173-.173h6.322a.174.174,0,0,1,.174.173v.774A.173.173,0,0,1,11.568,9.8Zm-7.2-.173V8.85A.174.174,0,0,0,4.2,8.677H3.423a.174.174,0,0,0-.174.173v.774a.173.173,0,0,0,.174.173H4.2A.173.173,0,0,0,4.37,9.624Zm7.372-2.515V6.335a.174.174,0,0,0-.174-.173H5.246a.173.173,0,0,0-.173.173v.774a.172.172,0,0,0,.173.173h6.322A.173.173,0,0,0,11.742,7.109Zm-7.372,0V6.335A.174.174,0,0,0,4.2,6.162H3.423a.174.174,0,0,0-.174.173v.774a.173.173,0,0,0,.174.173H4.2A.173.173,0,0,0,4.37,7.109Zm7.372-2.515V3.82a.174.174,0,0,0-.174-.173H5.246a.173.173,0,0,0-.173.173v.774a.172.172,0,0,0,.173.173h6.322A.173.173,0,0,0,11.742,4.594Zm-7.372,0V3.82A.174.174,0,0,0,4.2,3.647H3.423a.174.174,0,0,0-.174.173v.774a.173.173,0,0,0,.174.173H4.2A.173.173,0,0,0,4.37,4.594Z" fill="#fff" opacity="0.8"/>
    <circle cx="12.203" cy="13.899" r="4.101" fill="#76bc2d"/>
    <g>
      <path d="M11.763,15.316l-.382.382a.166.166,0,0,1-.235,0h0L9.631,14.183a.167.167,0,0,1,0-.236h0l.264-.263a.166.166,0,0,1,.235,0h0l1.633,1.632Z" fill="#fff"/>
      <path d="M11.153,15.7l-.381-.381h0l3.485-3.485a.166.166,0,0,1,.235,0h0l.264.264a.166.166,0,0,1,0,.235h0L11.388,15.7a.166.166,0,0,1-.235,0Z" fill="#f0f0f0"/>
    </g>
  </g>
</svg>
