<svg id="uuid-8d6a72b1-1989-4152-91ae-a17abc4bb160" xmlns="http://www.w3.org/2000/svg" width="18" height="18" viewBox="0 0 18 18">
  <defs>
    <linearGradient id="uuid-558bc864-59b2-4fe1-81d8-4e9a6b525c03" x1="-549.801" y1="1011.482" x2="-549.801" y2="1023.276" gradientTransform="translate(564 1025.516) scale(1 -1)" gradientUnits="userSpaceOnUse">
      <stop offset="0" stop-color="#773adc"/>
      <stop offset="1" stop-color="#b77af4"/>
    </linearGradient>
    <linearGradient id="uuid-71949adc-45f1-4a53-9415-9e6a4bb43eed" x1="3.054" y1="15" x2="3.054" y2="1.766" gradientUnits="userSpaceOnUse">
      <stop offset=".001" stop-color="#f78d1e"/>
      <stop offset="1" stop-color="#ffd400"/>
    </linearGradient>
    <linearGradient id="uuid-ce6fc3ff-596b-42e1-aa38-9354170d6cdf" x1="10.751" y1="6.12" x2="16.51" y2="11.88" gradientUnits="userSpaceOnUse">
      <stop offset="0" stop-color="#ffd400"/>
      <stop offset=".999" stop-color="#f78d1e"/>
    </linearGradient>
  </defs>
  <g>
    <path d="m17.392,4.334l-6.166-2.086c-.017-.005-.034-.008-.052-.008h-.005c-.089,0-.162.072-.162.162v11.47c0,.089.072.162.162.162h0c.02,0,.041-.004.06-.011l2.594-.92,3.568-8.768Z" fill="url(#uuid-558bc864-59b2-4fe1-81d8-4e9a6b525c03)"/>
    <path d="m11.132,2.243l-6.428,1.173c-.092.017-.158.098-.158.191l-.005,9.072c0,.092.064.171.154.19l6.431,1.164c.105.024.209-.042.232-.147.003-.014.005-.029.005-.043V2.434c0-.107-.087-.194-.194-.195-.013,0-.025.001-.038.004Z" fill="#552f99"/>
    <polygon points="8.162 3.939 8.162 12.314 10.398 12.626 10.398 3.62 8.162 3.939" fill="#b77af4" isolation="isolate"/>
    <polygon points="5.414 4.33 5.414 11.93 7.361 12.202 7.361 4.053 5.414 4.33" fill="#b77af4" isolation="isolate"/>
  </g>
  <path d="m.294,5.514h3.492c.162,0,.294-.132.294-.294s-.132-.294-.294-.294H.294c-.162,0-.294.132-.294.294s.132.294.294.294Zm3.785,6.028c0-.162-.132-.294-.294-.294H.294c-.162,0-.294.132-.294.294s.132.294.294.294h3.492c.162,0,.294-.132.294-.294Zm1.734,2.871l-3.36-.008c-.162,0-.294.132-.294.294s.132.294.294.294l3.36.008c.162,0,.294-.132.294-.294s-.132-.294-.294-.294ZM2.374,2.354h2.193c.162,0,.294-.132.294-.294s-.132-.294-.294-.294h-2.193c-.162,0-.294.132-.294.294s.132.294.294.294Zm2.167,5.734H1.492c-.162,0-.294.132-.294.294s.132.294.294.294h3.049c.162,0,.294-.132.294-.294s-.132-.294-.294-.294Z" fill="url(#uuid-71949adc-45f1-4a53-9415-9e6a4bb43eed)"/>
  <path d="m17.296.686c-.918-.405-2.136.829-3.271,2.509l.864.293c.956-1.36,1.7-2.007,1.992-2.007.022,0,.042.004.059.011.423.187.29,3.179-1.894,8.132-2.184,4.953-4.3,7.073-4.726,6.884-.228-.101-.291-1.02.037-2.615l-.866-.157c-.363,1.745-.361,3.209.473,3.577.119.053.243.077.371.077,1.766,0,4.334-4.731,5.516-7.412,1.268-2.876,3.201-8.519,1.444-9.294Z" fill="url(#uuid-ce6fc3ff-596b-42e1-aa38-9354170d6cdf)"/>
</svg>