<svg xmlns="http://www.w3.org/2000/svg" width="18" height="18" viewBox="0 0 18 18">
  <defs>
    <linearGradient id="e0408b9d-e37f-48ae-ab1e-fcb06b96515f" x1="9.168" y1="16.207" x2="9.168" gradientUnits="userSpaceOnUse">
      <stop offset="0" stop-color="#773adc"/>
      <stop offset="1" stop-color="#a67af4"/>
    </linearGradient>
    <linearGradient id="e9f8a32c-6977-45f2-b34c-8e98ec89d72a" x1="9.168" y1="4.91" x2="9.168" y2="15.115" gradientUnits="userSpaceOnUse">
      <stop offset="0" stop-color="#773adc"/>
      <stop offset="1" stop-color="#a67af4"/>
    </linearGradient>
  </defs>
  <g id="ebf0a250-b8d9-4900-8d45-258efde5ffba">
    <rect x="2.55" width="13.236" height="16.207" rx="0.54" fill="url(#e0408b9d-e37f-48ae-ab1e-fcb06b96515f)"/>
    <rect x="3.829" y="1.608" width="10.849" height="2.299" rx="0.269" fill="#fff" opacity="0.8"/>
    <rect x="3.829" y="5.024" width="10.849" height="2.299" rx="0.269" fill="#fff" opacity="0.6"/>
    <rect x="3.829" y="8.44" width="10.849" height="2.299" rx="0.269" fill="#fff" opacity="0.4"/>
    <path d="M14.677,15.512a2.477,2.477,0,0,0-2.149-2.405,3.119,3.119,0,0,0-3.207-2.983,3.207,3.207,0,0,0-3.064,2.109,2.952,2.952,0,0,0-2.6,2.846A3,3,0,0,0,6.736,18h5.455A2.509,2.509,0,0,0,14.677,15.512Z" fill="#9cebff"/>
    <g>
      <path d="M10.013,12.308V7.717a1.735,1.735,0,1,0-1.689,0v4.591a1.735,1.735,0,1,0,1.689,0Zm-.845,2.807a1.3,1.3,0,0,1-1.3-1.3,1.281,1.281,0,0,1,.458-.969l.506-.287V7.468l-.506-.287a1.28,1.28,0,0,1-.458-.969,1.3,1.3,0,1,1,2.6,0,1.28,1.28,0,0,1-.457.969l-.505.286h0v.445h0v3.825a3.8,3.8,0,0,0,0,.383v.437c.027.007.507.287.507.287a1.282,1.282,0,0,1,.457.969A1.3,1.3,0,0,1,9.168,15.115Z" fill="#fff"/>
      <path d="M9.506,12.579V7.446a1.285,1.285,0,0,0,.964-1.234,1.3,1.3,0,1,0-2.6,0A1.285,1.285,0,0,0,8.83,7.446v5.133a1.285,1.285,0,0,0-.964,1.234,1.3,1.3,0,1,0,2.6,0A1.285,1.285,0,0,0,9.506,12.579Z" fill="url(#e9f8a32c-6977-45f2-b34c-8e98ec89d72a)"/>
    </g>
  </g>
</svg>
