<svg xmlns="http://www.w3.org/2000/svg" viewBox="0 0 18 18">
  <defs>
    <linearGradient id="e676447d-68b3-4411-9256-455cf4a847fd" x1="8.112" y1="766.93" x2="8.112" y2="789.337" gradientTransform="matrix(1, 0, 0, -1, 0, 791.516)" gradientUnits="userSpaceOnUse">
      <stop offset="0" stop-color="#59285f" />
      <stop offset="1" stop-color="#a33a85" />
    </linearGradient>
  </defs>
  <path d="M1.529,1.706,2.808.216A.621.621,0,0,1,3.283,0H15.551a.856.856,0,0,1,.937.767.815.815,0,0,1,0,.11V16.2a.6.6,0,0,1-.211.454l-1.374,1.257H2.364l-.856-.348Z" fill="#a33a85" />
  <path d="M2.564,1.7,3.346.807a.531.531,0,0,1,.37-.19H15.224a.549.549,0,0,1,.549.55V15.728a.546.546,0,0,1-.179.412l-1.226,1.11Z" fill="#fff" />
  <path d="M14.283,1.684H1.6a.064.064,0,0,0-.064.064V17.6a.413.413,0,0,0,.413.4H14.283a.4.4,0,0,0,.4-.4V2.1A.413.413,0,0,0,14.283,1.684Z" fill="url(#e676447d-68b3-4411-9256-455cf4a847fd)" />
  <path d="M11.862,6.034A4.848,4.848,0,0,0,5.072,5.1l-.059.057a4.846,4.846,0,0,0,3.014,8.641,4.8,4.8,0,0,0,2.959-1.018h0A4.869,4.869,0,0,0,11.862,6.034ZM7.989,4.742a4.274,4.274,0,0,1,.586.04A4.182,4.182,0,0,1,10.886,5.9c-.071-.057-.139-.119-.214-.171a9.026,9.026,0,0,0-2.5.548,4.67,4.67,0,0,0-.48.24A11.674,11.674,0,0,1,6.645,4.964,4.185,4.185,0,0,1,7.989,4.742ZM4.721,11.567c-.01-.012-.022-.021-.031-.033A4.219,4.219,0,0,1,4.7,6.4a11.973,11.973,0,0,0,.279,1.317,1.356,1.356,0,0,0,.14,2.3A7.766,7.766,0,0,0,4.721,11.567ZM5.452,5.6a4.235,4.235,0,0,1,.781-.456A12.756,12.756,0,0,0,7.307,6.757a4.69,4.69,0,0,0-1.032.8,1.358,1.358,0,0,0-.5-.1,1.25,1.25,0,0,0-.163.017,12.871,12.871,0,0,1-.373-1.662C5.31,5.74,5.371,5.662,5.452,5.6ZM10.6,12.28a4.2,4.2,0,0,1-5.281-.1,10.97,10.97,0,0,1,.561-2,1.363,1.363,0,0,0,.214-.032c.2.207.414.408.637.595a3.909,3.909,0,0,0,.906.548.911.911,0,0,0,1.617.526,8.035,8.035,0,0,0,1.728.1A3.915,3.915,0,0,1,10.6,12.28Zm.89-.992a4.447,4.447,0,0,1-.778.025,6.394,6.394,0,0,1-1.234-.126.925.925,0,0,0-1.589-.619A4.412,4.412,0,0,1,6.783,9.73a1.352,1.352,0,0,0,.128-1.663,4.3,4.3,0,0,1,.875-.686A10.781,10.781,0,0,0,9.554,8.91a.931.931,0,0,0-.04.2.958.958,0,0,0,.958.958.947.947,0,0,0,.628-.247c.046.022.085.04.161.079,0,0,.126.061.192.1.139.093.515.276.543.289A4.172,4.172,0,0,1,11.49,11.288Zm.395-1.631c-.058-.036-.192-.1-.192-.1l-.192-.1-.127-.08A.945.945,0,0,0,9.82,8.413a13.4,13.4,0,0,1-1.506-1.32A7.572,7.572,0,0,1,11.35,6.4l.01.011a4.2,4.2,0,0,1,.748,3.373C12.049,9.742,11.93,9.688,11.885,9.657Z" fill="#fff" />
</svg>