<svg xmlns="http://www.w3.org/2000/svg" viewBox="0 0 18 18">
  <defs>
    <linearGradient id="bf2cadc5-27e3-4167-b997-d24969d11b53" x1="8.697" y1="14.657" x2="8.697" y2="4.128" gradientUnits="userSpaceOnUse">
      <stop offset="0" stop-color="#32bedd" />
      <stop offset="0.175" stop-color="#32caea" />
      <stop offset="0.41" stop-color="#32d2f2" />
      <stop offset="0.775" stop-color="#32d4f5" />
    </linearGradient>
  </defs>
  <g id="ea0abc3c-7b54-4391-8f8c-583b06f6d9bf">
    <g>
      <path d="M.5,4.128H16.894a0,0,0,0,1,0,0v9.981a.548.548,0,0,1-.548.548H1.048A.548.548,0,0,1,.5,14.109V4.128A0,0,0,0,1,.5,4.128Z" fill="url(#bf2cadc5-27e3-4167-b997-d24969d11b53)" />
      <path d="M1.051,1.476H16.343a.548.548,0,0,1,.548.548v2.1a0,0,0,0,1,0,0H.5a0,0,0,0,1,0,0v-2.1A.548.548,0,0,1,1.051,1.476Z" fill="#0078d4" />
      <rect x="11.797" y="13.295" width="6.409" height="1.46" rx="0.683" transform="translate(15.691 34.55) rotate(-135)" fill="#198ab3" />
      <circle cx="10.288" cy="9.313" r="4.136" fill="#fff" />
      <path d="M14.163,7.864H12.514a.236.236,0,0,0-.205.124L11.28,9.834,9.587,6.412,8.029,11.317,6.612,7.83l-.4.764a4.1,4.1,0,0,0,.1,1.884l.189-.365.868,2.137a4.142,4.142,0,0,0,1.106.784L9.777,8.958,11.231,11.9l1.618-2.9a.236.236,0,0,1,.205-.124H14.4A4.094,4.094,0,0,0,14.163,7.864Z" fill="#50e6ff" />
      <path d="M6.7,7.3l-.44-.889-1.2,3.793-1.1-2.7L2.644,10.038a.182.182,0,0,1-.162.1h-.62a.384.384,0,0,0-.382.338v.008a.385.385,0,0,0,.382.431H2.915a.182.182,0,0,0,.162-.1l.8-1.541,1.259,3.1L6.173,9.1A4.1,4.1,0,0,1,6.7,7.3Z" fill="#fff" />
      <path d="M10.288,5.9A3.409,3.409,0,1,1,6.88,9.313,3.413,3.413,0,0,1,10.288,5.9m0-.727a4.136,4.136,0,1,0,4.136,4.136,4.136,4.136,0,0,0-4.136-4.136Z" fill="#c3f1ff" />
    </g>
  </g>
</svg>