<svg xmlns="http://www.w3.org/2000/svg" width="18" height="18" viewBox="0 0 18 18">
  <defs>
    <linearGradient id="aca43489-e797-4a15-8dc8-2bcf69733caa" x1="7.472" y1="14.535" x2="7.96" y2="2.385" gradientUnits="userSpaceOnUse">
      <stop offset="0" stop-color="#0078d4"/>
      <stop offset="0.061" stop-color="#1481da"/>
      <stop offset="0.775" stop-color="#5ea0ef"/>
    </linearGradient>
    <linearGradient id="bc72858d-94c7-4560-949b-ca66f88f442b" x1="9.248" y1="7.363" x2="9.248" y2="9.317" gradientUnits="userSpaceOnUse">
      <stop offset="0" stop-color="#c3f1ff"/>
      <stop offset="0.024" stop-color="#c1f1ff"/>
      <stop offset="0.999" stop-color="#9cebff"/>
    </linearGradient>
    <linearGradient id="eaabc09a-cd44-4d72-901c-90f796e58a2d" x1="8.007" y1="10.163" x2="8.007" y2="12.104" gradientUnits="userSpaceOnUse">
      <stop offset="0" stop-color="#c3f1ff"/>
      <stop offset="0.024" stop-color="#c1f1ff"/>
      <stop offset="0.999" stop-color="#9cebff"/>
    </linearGradient>
    <linearGradient id="aa7fd045-d73b-4e32-b5ad-caf3156d1d9c" x1="6.011" y1="781.349" x2="6.011" y2="786.093" gradientTransform="matrix(1, 0, 0, -1, 0, 791.516)" gradientUnits="userSpaceOnUse">
      <stop offset="0" stop-color="#9cebff"/>
      <stop offset="0.817" stop-color="#50e6ff"/>
    </linearGradient>
    <linearGradient id="ac84049e-c8fa-460b-a6b5-392a6539b422" x1="8.504" y1="783.965" x2="7.063" y2="781.914" gradientTransform="matrix(1, 0, 0, -1, 0, 791.516)" gradientUnits="userSpaceOnUse">
      <stop offset="0" stop-color="#32bedd"/>
      <stop offset="0.113" stop-color="#33bfde" stop-opacity="0.978"/>
      <stop offset="0.864" stop-color="#49ddf7" stop-opacity="0.224"/>
      <stop offset="1" stop-color="#50e6ff" stop-opacity="0"/>
    </linearGradient>
  </defs>
  <g id="b432057a-b729-4852-965d-380c655cc655">
    <g>
      <g id="a93afa9e-c5ee-40e6-9263-9b3994fda9ad">
        <path d="M.519.96H15.062a.519.519,0,0,1,.519.519h0v2.8H0V1.48A.519.519,0,0,1,.519.96Z" fill="#0078d4"/>
        <path d="M9.638,13.159a4.486,4.486,0,0,1,4.481-4.481,4.431,4.431,0,0,1,1.462.265V4.28H0v8.687a.519.519,0,0,0,.519.519H9.671C9.663,13.376,9.638,13.271,9.638,13.159Z" fill="url(#aca43489-e797-4a15-8dc8-2bcf69733caa)"/>
        <g>
          <g>
            <path d="M8.02,8.221h2.521a1.433,1.433,0,0,1,1.308,1.1,4.422,4.422,0,0,1,.717-.345,2.254,2.254,0,0,0-2.025-1.609H8.02A2.209,2.209,0,0,0,5.93,9.3h.792A1.383,1.383,0,0,1,8.02,8.221Z" fill="url(#bc72858d-94c7-4560-949b-ca66f88f442b)"/>
            <path d="M10.084,11.244H8.02a1.384,1.384,0,0,1-1.3-1.081H5.93A2.208,2.208,0,0,0,8.02,12.1H9.776A4.467,4.467,0,0,1,10.084,11.244Z" fill="url(#eaabc09a-cd44-4d72-901c-90f796e58a2d)"/>
          </g>
          <path d="M7.291,9.3H4.77A1.441,1.441,0,0,1,3.415,7.793,1.441,1.441,0,0,1,4.77,6.283H7.291a1.385,1.385,0,0,1,1.3,1.08h.791a2.207,2.207,0,0,0-2.09-1.94H4.77a2.259,2.259,0,0,0-2.125,2.37A2.26,2.26,0,0,0,4.77,10.167H7.291a2.208,2.208,0,0,0,2.09-1.94H8.59A1.385,1.385,0,0,1,7.291,9.3Z" fill="url(#aa7fd045-d73b-4e32-b5ad-caf3156d1d9c)"/>
          <path d="M7.291,9.3H5.6v.866h1.69a2.208,2.208,0,0,0,2.09-1.94H8.59A1.385,1.385,0,0,1,7.291,9.3Z" fill="url(#ac84049e-c8fa-460b-a6b5-392a6539b422)"/>
        </g>
      </g>
      <path d="M14.119,9.278A3.881,3.881,0,1,0,18,13.159,3.88,3.88,0,0,0,14.119,9.278Z" fill="#86d633"/>
      <path d="M13.376,15.043a.462.462,0,0,1-.328-.137L11.7,13.554a.465.465,0,0,1,.657-.657l1.024,1.023,2.51-2.509a.465.465,0,1,1,.657.657l-2.838,2.838A.464.464,0,0,1,13.376,15.043Z" fill="#fff"/>
    </g>
  </g>
  <metadata>
   <rdf:RDF xmlns:rdf="http://www.w3.org/1999/02/22-rdf-syntax-ns#">
      <rdf:li>public:true</rdf:li>
      <rdf:li>sdk:false</rdf:li>
      <rdf:li>category:Networking</rdf:li>
   </rdf:RDF>
</metadata>
</svg>
