<svg xmlns="http://www.w3.org/2000/svg" width="18" height="18" viewBox="0 0 18 18">
  <defs>
    <linearGradient id="a81cd30e-9bf0-4884-8b60-8fe1cbbbcd4d" x1="9" y1="17.253" x2="9" y2="0.747" gradientUnits="userSpaceOnUse">
      <stop offset="0" stop-color="#0078d4"/>
      <stop offset="1" stop-color="#5ea0ef"/>
    </linearGradient>
  </defs>
  <g id="be035c5d-4cbf-42b5-ae7c-434135b46419">
    <g>
      <path d="M16.5,8.4c0,4.84-5.958,8.736-7.253,9.526a.477.477,0,0,1-.494,0C7.458,17.141,1.5,13.245,1.5,8.4V2.582a.467.467,0,0,1,.46-.462C6.594,2,5.527,0,9,0s2.406,2,7.04,2.12a.467.467,0,0,1,.46.462Z" fill="#0078d4"/>
      <path d="M15.878,8.454c0,4.438-5.463,8.011-6.652,8.736a.432.432,0,0,1-.452,0c-1.189-.725-6.652-4.3-6.652-8.736V3.114a.428.428,0,0,1,.422-.423C6.794,2.578,5.815.747,9,.747s2.206,1.831,6.456,1.944a.428.428,0,0,1,.422.423Z" fill="url(#a81cd30e-9bf0-4884-8b60-8fe1cbbbcd4d)"/>
    </g>
    <path d="M13.192,11.177H4.783a.285.285,0,0,1-.246-.428L8.652,3.671A.287.287,0,0,1,8.9,3.53a.379.379,0,0,1,.246.137l4.294,7.077a.285.285,0,0,1-.244.433Zm-7.913-.57h7.406L8.9,4.374Z" fill="#9cebff"/>
    <path d="M10.123,3.815A1.224,1.224,0,1,1,8.9,2.591,1.224,1.224,0,0,1,10.123,3.815ZM4.784,9.668a1.224,1.224,0,1,0,1.223,1.224A1.224,1.224,0,0,0,4.784,9.668Zm8.408,0a1.224,1.224,0,1,0,1.224,1.224A1.224,1.224,0,0,0,13.192,9.668Z" fill="#50e6ff"/>
  </g>
</svg>
