<svg xmlns="http://www.w3.org/2000/svg" viewBox="0 0 16 16">
  <path d="M11.5,3v9.5a3.5,3.5,0,0,1-.3,1.4,4.079,4.079,0,0,1-.7,1.1,4.079,4.079,0,0,1-1.1.7,3.417,3.417,0,0,1-2.8,0A4.079,4.079,0,0,1,5.5,15a4.079,4.079,0,0,1-.7-1.1,3.5,3.5,0,0,1-.3-1.4V2.5a3.6,3.6,0,0,1,.2-1A3.51,3.51,0,0,1,5.2.7L6,.2,7,0,8,.2l.8.5a3.51,3.51,0,0,1,.5.8,3.6,3.6,0,0,1,.2,1v10a1.3,1.3,0,0,1-.1.6l-.3.5-.5.3H7.4l-.5-.3-.3-.5a1.3,1.3,0,0,1-.1-.6V4h1v8.5a.6.6,0,0,0,.1.4h.8a.6.6,0,0,0,.1-.4V2.5a1.3,1.3,0,0,0-.1-.6l-.3-.5-.5-.3H6.4l-.5.3-.3.5a1.3,1.3,0,0,0-.1.6v10a3.6,3.6,0,0,0,.2,1,3.51,3.51,0,0,0,.5.8l.8.5L8,15l1-.2.8-.5a3.51,3.51,0,0,0,.5-.8,3.6,3.6,0,0,0,.2-1V3Z" />
</svg>