<svg width="48" height="48" viewBox="0 0 48 48" xmlns="http://www.w3.org/2000/svg">
<path d="M31.6532 0.413086H2.50922C1.64765 0.413086 0.949219 1.11723 0.949219 1.98584V44.5442C0.949219 45.4128 1.64765 46.117 2.50922 46.117H31.6532C32.5148 46.117 33.2132 45.4128 33.2132 44.5442V1.98584C33.2132 1.11723 32.5148 0.413086 31.6532 0.413086Z" fill="url(#365eadb9-b71c-4e7e-a69d-158c5aa90d7b)"/>
<path d="M25.5407 34.6504H8.62069C8.17002 34.6504 7.80469 35.0187 7.80469 35.4731V37.1614C7.80469 37.6158 8.17002 37.9841 8.62069 37.9841H25.5407C25.9914 37.9841 26.3567 37.6158 26.3567 37.1614V35.4731C26.3567 35.0187 25.9914 34.6504 25.5407 34.6504Z" fill="#773ADC"/>
<path d="M25.5407 28.1851H8.62069C8.17002 28.1851 7.80469 28.5534 7.80469 29.0077V30.6961C7.80469 31.1504 8.17002 31.5188 8.62069 31.5188H25.5407C25.9914 31.5188 26.3567 31.1504 26.3567 30.6961V29.0077C26.3567 28.5534 25.9914 28.1851 25.5407 28.1851Z" fill="#773ADC"/>
<path d="M23.733 24.4025C24.1004 24.4163 24.4582 24.2825 24.7278 24.0304C24.9973 23.7783 25.1565 23.4287 25.1704 23.0583V23.0126C25.1757 22.9553 25.1757 22.8977 25.1704 22.8405C24.5997 18.2701 22.0237 14.5735 17.1144 14.5735C12.205 14.5735 9.52238 17.719 8.98904 22.8056C8.95107 23.1906 9.06624 23.575 9.30925 23.8744C9.55225 24.1739 9.90322 24.3638 10.285 24.4025H23.733Z" fill="url(#dd1e839c-8987-475a-a707-a2e04aa5c9de)"/>
<path d="M17.1734 15.6592C16.321 15.6514 15.4884 15.3987 14.7734 14.9307L17.1734 21.3292L19.6001 14.9764C18.8703 15.4279 18.0297 15.6644 17.1734 15.6592V15.6592Z" fill="#F2F2F2"/>
<path d="M17.1439 15.6593C19.6491 15.6593 21.6799 13.6119 21.6799 11.0863C21.6799 8.56062 19.6491 6.51318 17.1439 6.51318C14.6387 6.51318 12.6079 8.56062 12.6079 11.0863C12.6079 13.6119 14.6387 15.6593 17.1439 15.6593Z" fill="url(#83c2bd90-7b1a-4eea-a572-7bf954645941)"/>
<path d="M35.4184 47.4478C41.844 47.4478 47.053 42.1962 47.053 35.7181C47.053 29.2399 41.844 23.9883 35.4184 23.9883C28.9927 23.9883 23.7837 29.2399 23.7837 35.7181C23.7837 42.1962 28.9927 47.4478 35.4184 47.4478Z" fill="#A4262C"/>
<path d="M42.2428 30.9222L40.1761 28.8359L35.4188 33.6322L30.6668 28.8386L28.6001 30.9249L33.3574 35.7184L28.6001 40.5146L30.6668 42.5982L35.4241 37.8047L40.1814 42.5982L42.2481 40.5146L37.4934 35.7184L42.2428 30.9222Z" fill="white"/>
<defs>
<linearGradient id="365eadb9-b71c-4e7e-a69d-158c5aa90d7b" x1="15.0026" y1="-0.694562" x2="19.2276" y2="47.2187" gradientUnits="userSpaceOnUse">
<stop offset="0.5" stop-color="#B796F9"/>
<stop offset="0.9" stop-color="#A67AF4"/>
</linearGradient>
<linearGradient id="dd1e839c-8987-475a-a707-a2e04aa5c9de" x1="16.3544" y1="14.5977" x2="17.2704" y2="24.9846" gradientUnits="userSpaceOnUse">
<stop stop-color="#A67AF4"/>
<stop offset="0.241" stop-color="#9065DB"/>
<stop offset="0.748" stop-color="#653EAB"/>
<stop offset="1" stop-color="#552F99"/>
</linearGradient>
<linearGradient id="83c2bd90-7b1a-4eea-a572-7bf954645941" x1="16.7466" y1="6.532" x2="17.5515" y2="15.6421" gradientUnits="userSpaceOnUse">
<stop stop-color="#A67AF4"/>
<stop offset="0.241" stop-color="#9065DB"/>
<stop offset="0.748" stop-color="#653EAB"/>
<stop offset="1" stop-color="#552F99"/>
</linearGradient>
</defs>
</svg>
