<svg viewBox="0 0 18 18" xmlns="http://www.w3.org/2000/svg">
  <path d="M5.2875 8.5425V3.75H4.5V8.5425V8.985V9.33H10.755V8.5425H5.2875Z" fill="#949494" />
  <path d="M5.2875 15.2925V9.32582H4.5V15.2925V15.735V16.08H10.755V15.2925H5.2875Z" fill="#949494" />
  <path d="M8.09118 1.41571H5.14897C5.1175 1.41702 5.0866 1.40632 5.06162 1.38545L4.21985 0.775937C4.19341 0.75889 4.16323 0.74993 4.1325 0.75H1.65882C1.61738 0.749986 1.57757 0.767609 1.5479 0.799107C1.51823 0.830605 1.50104 0.873483 1.5 0.918588V6.58141C1.50104 6.62652 1.51823 6.6694 1.5479 6.70089C1.57757 6.73239 1.61738 6.75001 1.65882 6.75H8.09118C8.13262 6.75001 8.17243 6.73239 8.2021 6.70089C8.23177 6.6694 8.24896 6.62652 8.25 6.58141V1.58862C8.25 1.54276 8.23327 1.49878 8.20348 1.46635C8.1737 1.43392 8.1333 1.41571 8.09118 1.41571Z" fill="#005BA1" />
  <path d="M15.5912 5.91571H12.649C12.6175 5.91702 12.5866 5.90632 12.5616 5.88545L11.7199 5.27594C11.6934 5.25889 11.6632 5.24993 11.6325 5.25H9.15882C9.11738 5.24999 9.07757 5.26761 9.0479 5.29911C9.01823 5.3306 9.00104 5.37348 9 5.41859V11.0814C9.00104 11.1265 9.01823 11.1694 9.0479 11.2009C9.07757 11.2324 9.11738 11.25 9.15882 11.25H15.5912C15.6326 11.25 15.6724 11.2324 15.7021 11.2009C15.7318 11.1694 15.749 11.1265 15.75 11.0814V6.08862C15.75 6.04276 15.7333 5.99878 15.7035 5.96635C15.6737 5.93392 15.6333 5.91571 15.5912 5.91571Z" fill="#005BA1" />
  <path d="M15.5912 12.6657H12.649C12.6175 12.667 12.5866 12.6563 12.5616 12.6354L11.7199 12.0259C11.6934 12.0089 11.6632 11.9999 11.6325 12H9.15882C9.11738 12 9.07757 12.0176 9.0479 12.0491C9.01823 12.0806 9.00104 12.1235 9 12.1686V17.8314C9.00104 17.8765 9.01823 17.9194 9.0479 17.9509C9.07757 17.9824 9.11738 18 9.15882 18H15.5912C15.6326 18 15.6724 17.9824 15.7021 17.9509C15.7318 17.9194 15.749 17.8765 15.75 17.8314V12.8386C15.75 12.7928 15.7333 12.7488 15.7035 12.7164C15.6737 12.6839 15.6333 12.6657 15.5912 12.6657Z" fill="#005BA1" />
  <path d="M8.09098 1.50008H4.8749C4.85401 1.49936 4.83323 1.50357 4.81403 1.5124C4.79482 1.52124 4.77765 1.53449 4.76373 1.55121L4.22771 2.10518C4.19712 2.13466 4.15765 2.15131 4.11654 2.15206H1.65882C1.6167 2.15206 1.5763 2.17002 1.54652 2.20198C1.51673 2.23395 1.5 2.2773 1.5 2.32251V6.58381C1.50104 6.62827 1.51822 6.67054 1.5479 6.70159C1.57757 6.73264 1.61738 6.75001 1.65882 6.75H8.09098C8.13243 6.75001 8.17223 6.73264 8.2019 6.70159C8.23158 6.67054 8.24877 6.62827 8.2498 6.58381V1.67905C8.25088 1.65596 8.24757 1.63288 8.24007 1.6112C8.23257 1.58953 8.22104 1.56972 8.20619 1.55298C8.19133 1.53624 8.17346 1.52291 8.15365 1.51382C8.13385 1.50472 8.11252 1.50005 8.09098 1.50008V1.50008Z" fill="url(#e1860635-3665-4514-bd0d-4e618c59097d)" />
  <path d="M15.591 6.00008H12.3749C12.354 5.99936 12.3332 6.00357 12.314 6.0124C12.2948 6.02124 12.2776 6.03449 12.2637 6.05121L11.7277 6.60518C11.6971 6.63466 11.6576 6.65131 11.6165 6.65206H9.15882C9.1167 6.65206 9.0763 6.67002 9.04652 6.70198C9.01673 6.73395 9 6.7773 9 6.82251V11.0838C9.00104 11.1283 9.01822 11.1705 9.0479 11.2016C9.07757 11.2326 9.11738 11.25 9.15882 11.25H15.591C15.6324 11.25 15.6722 11.2326 15.7019 11.2016C15.7316 11.1705 15.7488 11.1283 15.7498 11.0838V6.17905C15.7509 6.15596 15.7476 6.13288 15.7401 6.1112C15.7326 6.08953 15.721 6.06972 15.7062 6.05298C15.6913 6.03624 15.6735 6.02291 15.6537 6.01382C15.6338 6.00472 15.6125 6.00005 15.591 6.00008V6.00008Z" fill="url(#427e37dd-7304-4319-9bfa-713168afc383)" />
  <path d="M15.591 12.7501H12.3749C12.354 12.7494 12.3332 12.7536 12.314 12.7624C12.2948 12.7712 12.2776 12.7845 12.2637 12.8012L11.7277 13.3552C11.6971 13.3847 11.6576 13.4013 11.6165 13.4021H9.15882C9.1167 13.4021 9.0763 13.42 9.04652 13.452C9.01673 13.4839 9 13.5273 9 13.5725V17.8338C9.00104 17.8783 9.01822 17.9205 9.0479 17.9516C9.07757 17.9826 9.11738 18 9.15882 18H15.591C15.6324 18 15.6722 17.9826 15.7019 17.9516C15.7316 17.9205 15.7488 17.8783 15.7498 17.8338V12.9291C15.7509 12.906 15.7476 12.8829 15.7401 12.8612C15.7326 12.8395 15.721 12.8197 15.7062 12.803C15.6913 12.7862 15.6735 12.7729 15.6537 12.7638C15.6338 12.7547 15.6125 12.75 15.591 12.7501V12.7501Z" fill="url(#a50d248f-dbdc-4422-b5c0-6e0e72cc4483)" />
  <defs>
    <linearGradient id="e1860635-3665-4514-bd0d-4e618c59097d" x1="4.97019" y1="0.383618" x2="4.79185" y2="7.01357" gradientUnits="userSpaceOnUse">
      <stop stop-color="#32D4F5" />
      <stop offset="0.23" stop-color="#31D0F1" />
      <stop offset="0.46" stop-color="#2CC3E6" />
      <stop offset="0.7" stop-color="#25AFD4" />
      <stop offset="0.94" stop-color="#1C92BA" />
      <stop offset="1" stop-color="#198AB3" />
    </linearGradient>
    <linearGradient id="427e37dd-7304-4319-9bfa-713168afc383" x1="12.4702" y1="4.88362" x2="12.2918" y2="11.5136" gradientUnits="userSpaceOnUse">
      <stop stop-color="#32D4F5" />
      <stop offset="0.23" stop-color="#31D0F1" />
      <stop offset="0.46" stop-color="#2CC3E6" />
      <stop offset="0.7" stop-color="#25AFD4" />
      <stop offset="0.94" stop-color="#1C92BA" />
      <stop offset="1" stop-color="#198AB3" />
    </linearGradient>
    <linearGradient id="a50d248f-dbdc-4422-b5c0-6e0e72cc4483" x1="12.4702" y1="11.6336" x2="12.2918" y2="18.2636" gradientUnits="userSpaceOnUse">
      <stop stop-color="#32D4F5" />
      <stop offset="0.23" stop-color="#31D0F1" />
      <stop offset="0.46" stop-color="#2CC3E6" />
      <stop offset="0.7" stop-color="#25AFD4" />
      <stop offset="0.94" stop-color="#1C92BA" />
      <stop offset="1" stop-color="#198AB3" />
    </linearGradient>
  </defs>
</svg>