<svg xmlns="http://www.w3.org/2000/svg" viewBox="0 0 18 18">
  <defs>
    <linearGradient id="acfb3d34-a76d-4871-82a1-ff04fb458b18" x1="9" y1="17.293" x2="9" y2="0.707" gradientUnits="userSpaceOnUse">
      <stop offset="0" stop-color="#005ba1" />
      <stop offset="0.174" stop-color="#0861a8" />
      <stop offset="0.443" stop-color="#1e71ba" />
      <stop offset="0.772" stop-color="#418bd7" />
      <stop offset="1" stop-color="#5ea0ef" />
    </linearGradient>
  </defs>
  <path d="M.707,5.683H5.683V.707H1.4A.691.691,0,0,0,.707,1.4ZM1.4,17.293H5.683V12.317H.707V16.6A.691.691,0,0,0,1.4,17.293Zm-.691-5.8H5.683V6.512H.707ZM12.317.707V5.683h4.976V1.4A.691.691,0,0,0,16.6.707ZM6.512,5.683h4.976V.707H6.512Z" fill="url(#acfb3d34-a76d-4871-82a1-ff04fb458b18)" />
  <path d="M6.5,6.529H17.221a0,0,0,0,1,0,0v10.1a.626.626,0,0,1-.626.626H6.5a0,0,0,0,1,0,0V6.529A0,0,0,0,1,6.5,6.529Z" fill="#76bc2d" />
  <rect x="7.266" y="9.861" width="5.403" height="1.407" rx="0.398" fill="#365615" />
  <rect x="12.518" y="9.861" width="3.945" height="1.407" rx="0.398" fill="#b4ec36" />
  <path d="M13.047,9.761V11.23a.334.334,0,0,1-.334.334h0a.333.333,0,0,1-.334-.334V9.761a.334.334,0,0,1,.334-.334h0A.335.335,0,0,1,13.047,9.761Z" fill="#fff" />
  <rect x="7.266" y="12.298" width="2.403" height="1.407" rx="0.398" fill="#365615" />
  <path d="M9.779,12.3h6.287a.4.4,0,0,1,.4.4v.612a.4.4,0,0,1-.4.4H9.779a0,0,0,0,1,0,0V12.3A0,0,0,0,1,9.779,12.3Z" fill="#b4ec36" />
  <path d="M9.805,12.274v1.469a.334.334,0,0,1-.334.334h0a.334.334,0,0,1-.334-.334V12.274a.333.333,0,0,1,.334-.334h0A.333.333,0,0,1,9.805,12.274Z" fill="#fff" />
</svg>