<svg xmlns="http://www.w3.org/2000/svg" viewBox="0 0 18 18">
  <defs>
    <linearGradient id="ad76f7a6-1202-46c4-a5ff-5e46b9c073af" x1="9" y1="11.606" x2="9" y2="18" gradientUnits="userSpaceOnUse">
      <stop offset="0" stop-color="#5ea0ef" />
      <stop offset="1" stop-color="#0078d4" />
    </linearGradient>
  </defs>
  <g id="b393a235-504a-45b5-b0fa-4428aeb748fe">
    <rect x="5.39" width="10.636" height="13.31" rx="0.443" fill="#37c2b1" />
    <rect x="3.782" y="1.436" width="10.636" height="13.31" rx="0.443" fill="#3cd4c2" />
    <rect x="2.157" y="2.886" width="10.636" height="13.31" rx="0.443" fill="#42e8ca" />
    <rect y="11.606" width="18" height="6.394" rx="0.6" fill="url(#ad76f7a6-1202-46c4-a5ff-5e46b9c073af)" />
    <rect x="6.436" y="13.183" width="5.129" height="0.925" rx="0.462" fill="#f2f2f2" />
    <path d="M10.831,6.2H6.241a.1.1,0,0,1-.1-.105V5.748a.1.1,0,0,1,.1-.105h4.59a.106.106,0,0,1,.106.105v.344A.106.106,0,0,1,10.831,6.2Zm-5.4.334V5.309A.211.211,0,0,0,5.215,5.1H3.993a.211.211,0,0,0-.211.211V6.531a.211.211,0,0,0,.211.211H5.215A.211.211,0,0,0,5.427,6.531Zm5.51,2.333V8.521a.107.107,0,0,0-.106-.106H6.241a.106.106,0,0,0-.1.106v.343a.105.105,0,0,0,.1.106h4.59A.106.106,0,0,0,10.937,8.864Zm-5.51.44V8.082a.211.211,0,0,0-.212-.211H3.993a.211.211,0,0,0-.211.211V9.3a.212.212,0,0,0,.211.211H5.215A.212.212,0,0,0,5.427,9.3Z" fill="#fff" />
  </g>
  <metadata>
    <rdf:RDF xmlns:rdf="http://www.w3.org/1999/02/22-rdf-syntax-ns#">
      <rdf:li>public:true</rdf:li>
      <rdf:li>sdk:false</rdf:li>
      <rdf:li>category:Storage</rdf:li>
    </rdf:RDF>
  </metadata>
</svg>