<svg xmlns="http://www.w3.org/2000/svg" width="18" height="18" viewBox="0 0 18 18">
  <defs>
    <linearGradient id="ae28df72-d88a-4413-9419-223d1dca2b73" x1="-6849.058" y1="9896.211" x2="-6849.058" y2="9927.452" gradientTransform="matrix(0.5, 0, 0, -0.5, 3433.843, 4965.218)" gradientUnits="userSpaceOnUse">
      <stop offset="0" stop-color="#005ba1"/>
      <stop offset="1" stop-color="#0078d4"/>
    </linearGradient>
    <linearGradient id="b337c4b7-353f-4c5d-9b18-1c8b8b202188" x1="9" y1="11.241" x2="9" y2="6.729" gradientUnits="userSpaceOnUse">
      <stop offset="0" stop-color="#32bedd"/>
      <stop offset="1" stop-color="#50e6ff"/>
    </linearGradient>
  </defs>
  <g id="aa423cb7-89f7-4442-9283-35fdaed8037b">
    <g>
      <path id="fbae51b8-3323-4ce0-a525-fce7bf0853a9" d="M13.891,15.172A7.81,7.81,0,1,1,4.319,2.828l.079-.06a7.81,7.81,0,0,1,9.493,12.4" fill="url(#ae28df72-d88a-4413-9419-223d1dca2b73)"/>
      <path d="M9.105,1.932A7.068,7.068,0,1,0,16.173,9,7.076,7.076,0,0,0,9.105,1.932ZM13.84,4.311a6.766,6.766,0,0,1-1.946.741A8.257,8.257,0,0,0,10.715,2.53,6.664,6.664,0,0,1,13.84,4.311ZM9.105,2.332a6.725,6.725,0,0,1,1,.075l-.006.007a6.936,6.936,0,0,1,1.407,2.72,13.763,13.763,0,0,1-5.012-.015,6.918,6.918,0,0,1,1.4-2.655l-.016-.016A6.666,6.666,0,0,1,9.105,2.332Zm-1.842.261A8.187,8.187,0,0,0,6.1,5.033a5.354,5.354,0,0,1-1.746-.707A6.675,6.675,0,0,1,7.263,2.593ZM4.249,13.563a5.04,5.04,0,0,1,1.64-.7,6.433,6.433,0,0,0,1.241,2.5A6.685,6.685,0,0,1,4.249,13.563Zm5.894,2.023a6.579,6.579,0,0,1-1.038.082,6.691,6.691,0,0,1-1.328-.133l.037-.042a5.438,5.438,0,0,1-1.535-2.72,13.63,13.63,0,0,1,5.4.005,5.6,5.6,0,0,1-1.554,2.791Zm.671-.141a6.575,6.575,0,0,0,1.264-2.572,6.257,6.257,0,0,1,1.817.758A6.673,6.673,0,0,1,10.814,15.445Zm1.361-2.963c.075-.327.136-.671.186-1.028-.139.037-.28.072-.425.1-.044.285-.094.564-.155.829a13.863,13.863,0,0,0-5.6,0c-.059-.255-.111-.52-.155-.8,0-.027-.007-.054-.011-.08-.144-.036-.284-.075-.421-.115.012.086.023.172.036.257.045.287.1.563.162.829a5.4,5.4,0,0,0-1.809.783,6.648,6.648,0,0,1,.1-8.64,5.679,5.679,0,0,0,1.908.794q-.093.337-.171.694c-.025.115-.046.233-.068.349.139-.038.283-.074.429-.107.011-.052.019-.105.031-.157q.077-.356.17-.69a13.54,13.54,0,0,0,2.676.257,13.453,13.453,0,0,0,2.557-.237c.067.253.125.517.179.784.145.031.286.063.424.1-.062-.33-.133-.655-.215-.966a7.05,7.05,0,0,0,2.114-.831,6.648,6.648,0,0,1,.052,8.721A6.592,6.592,0,0,0,12.175,12.482Z" fill="#5ea0ef"/>
      <rect x="0.075" y="6.729" width="17.85" height="4.513" rx="0.574" fill="url(#b337c4b7-353f-4c5d-9b18-1c8b8b202188)"/>
      <g>
        <rect x="10.629" y="8.985" width="6.015" height="1.161" rx="0.581" fill="#fff"/>
        <circle cx="2.375" cy="8.994" r="0.829" fill="#fff"/>
        <circle cx="5.323" cy="8.994" r="0.829" fill="#fff"/>
        <circle cx="8.27" cy="8.994" r="0.829" fill="#fff"/>
      </g>
    </g>
  </g>
</svg>
