<svg xmlns="http://www.w3.org/2000/svg" viewBox="0 0 18 18">
  <defs>
    <linearGradient id="ecd39040-2584-4495-abf5-84f2b15ef61d" x1="15.039" y1="1.715" x2="15.039" y2="9.434" gradientUnits="userSpaceOnUse">
      <stop offset="0" stop-color="#86d633" />
      <stop offset="1" stop-color="#5e9624" />
    </linearGradient>
    <linearGradient id="e1c752e8-36fc-44f1-ad82-ed0df5e940e2" x1="2.92" y1="8.862" x2="2.92" y2="15.843" gradientUnits="userSpaceOnUse">
      <stop offset="0" stop-color="#86d633" />
      <stop offset="1" stop-color="#5e9624" />
    </linearGradient>
  </defs>
  <circle cx="14.492" cy="13.657" r="0.773" fill="#76bc2d" />
  <circle cx="12.025" cy="13.664" r="0.773" fill="#76bc2d" />
  <circle cx="9.559" cy="13.664" r="0.773" fill="#76bc2d" />
  <path d="M10.12,16.756l-.442.444a.2.2,0,0,1-.283,0h0L6.119,13.933a.4.4,0,0,1,0-.566h0l.442-.443h0l3.56,3.549a.2.2,0,0,1,0,.283Z" fill="#50e6ff" />
  <path d="M9.611,10.136l.443.443a.2.2,0,0,1,0,.283l-3.5,3.507h0l-.443-.442a.4.4,0,0,1,0-.566h0l3.215-3.224A.2.2,0,0,1,9.611,10.136Z" fill="#0078d4" />
  <path d="M17.437,12.918l.442.443a.4.4,0,0,1,0,.566h0L14.6,17.194a.2.2,0,0,1-.283,0h0l-.442-.444a.2.2,0,0,1,0-.283h0l3.56-3.549Z" fill="#50e6ff" />
  <path d="M17.878,13.922l-.444.443h0l-3.5-3.508a.2.2,0,0,1,0-.283h0l.448-.447a.2.2,0,0,1,.283,0h0l3.215,3.224a.4.4,0,0,1,0,.565h0Z" fill="#0078d4" />
  <circle cx="8.496" cy="4.33" r="0.773" fill="#76bc2d" />
  <circle cx="6.03" cy="4.337" r="0.773" fill="#76bc2d" />
  <circle cx="3.563" cy="4.337" r="0.773" fill="#76bc2d" />
  <path d="M4.124,7.429l-.442.443a.2.2,0,0,1-.283,0h0L.123,4.606a.4.4,0,0,1,0-.566h0L.565,3.6h0l3.559,3.55a.2.2,0,0,1,0,.283Z" fill="#50e6ff" />
  <path d="M3.615.809l.444.443a.2.2,0,0,1,0,.282L.561,5.042h0L.118,4.6a.4.4,0,0,1,0-.565h0L3.332.809A.2.2,0,0,1,3.615.809Z" fill="#0078d4" />
  <path d="M11.441,3.59l.442.444a.4.4,0,0,1,0,.566h0L8.606,7.867a.2.2,0,0,1-.283,0h0l-.442-.443a.2.2,0,0,1,0-.283h0l3.56-3.55Z" fill="#50e6ff" />
  <path d="M11.882,4.6l-.444.442h0L7.94,1.53a.2.2,0,0,1,0-.283h0L8.389.8a.2.2,0,0,1,.283,0h0l3.215,3.225a.4.4,0,0,1,0,.565h0Z" fill="#0078d4" />
  <path d="M16.5,3.861H13.577a.451.451,0,0,0,0,.9H16.05V8.935a.45.45,0,0,0,.9,0V4.311A.45.45,0,0,0,16.5,3.861Z" fill="url(#ecd39040-2584-4495-abf5-84f2b15ef61d)" />
  <path d="M4.307,13.246H1.984V9.373a.451.451,0,0,0-.9,0V13.7a.451.451,0,0,0,.451.45H4.307a.45.45,0,0,0,0-.9Z" fill="url(#e1c752e8-36fc-44f1-ad82-ed0df5e940e2)" />
</svg>