<svg xmlns="http://www.w3.org/2000/svg" width="16" height="16" viewBox="0 0 16 16">
  <path d="M8,.5A7.385,7.385,0,0,1,9.992.766a7.773,7.773,0,0,1,1.8.75,6.912,6.912,0,0,1,1.516,1.172,8.2,8.2,0,0,1,1.172,1.523A7.074,7.074,0,0,1,15.234,6,7.836,7.836,0,0,1,15.5,8a7.385,7.385,0,0,1-.266,1.992,7.773,7.773,0,0,1-.75,1.8,6.912,6.912,0,0,1-1.172,1.516,8.2,8.2,0,0,1-1.523,1.172A7.074,7.074,0,0,1,10,15.234,7.836,7.836,0,0,1,8,15.5a7.385,7.385,0,0,1-1.992-.266,7.773,7.773,0,0,1-1.8-.75A6.912,6.912,0,0,1,2.7,13.312a8.2,8.2,0,0,1-1.172-1.523A7.074,7.074,0,0,1,.766,10,7.836,7.836,0,0,1,.5,8,7.385,7.385,0,0,1,.766,6.008a7.773,7.773,0,0,1,.75-1.8A6.912,6.912,0,0,1,2.688,2.7,8.2,8.2,0,0,1,4.211,1.523,7.074,7.074,0,0,1,6,.766,7.836,7.836,0,0,1,8,.5Zm0,14a6.29,6.29,0,0,0,1.719-.234,6.727,6.727,0,0,0,1.554-.657,6.389,6.389,0,0,0,1.321-1.015,6.5,6.5,0,0,0,1.672-2.867A6.38,6.38,0,0,0,14.5,8a6.29,6.29,0,0,0-.234-1.719,6.727,6.727,0,0,0-.657-1.554,6.389,6.389,0,0,0-1.015-1.321A6.5,6.5,0,0,0,9.727,1.734a6.49,6.49,0,0,0-3.454,0,6.577,6.577,0,0,0-1.546.657A6.666,6.666,0,0,0,3.406,3.406,6.162,6.162,0,0,0,2.391,4.719a7.033,7.033,0,0,0-.657,1.554A6.011,6.011,0,0,0,1.5,8a6.29,6.29,0,0,0,.234,1.719,6.727,6.727,0,0,0,.657,1.554,6.389,6.389,0,0,0,1.015,1.321,6.5,6.5,0,0,0,2.867,1.672A6.38,6.38,0,0,0,8,14.5Zm-.5-10h1v5h-1Zm0,6h1v1h-1Z"/>
</svg>
