<svg id="uuid-b259738b-3449-4c01-b54f-d1f525d78ac0" xmlns="http://www.w3.org/2000/svg" width="18" height="18" viewBox="0 0 18 18">
  <defs>
    <linearGradient id="uuid-5e6bdfa4-bf33-4469-abca-210fb31ab3b9" x1="8.798" y1="8.104" x2="14.683" y2="8.104" gradientUnits="userSpaceOnUse">
      <stop offset=".001" stop-color="#773adc"/>
      <stop offset="1" stop-color="#552f99"/>
    </linearGradient>
    <linearGradient id="uuid-9af1acb1-1fc0-4ad8-b0a8-d0ec889776a1" x1="5.765" y1="13.026" x2="5.765" y2="3.024" gradientUnits="userSpaceOnUse">
      <stop offset="0" stop-color="#773adc"/>
      <stop offset="1" stop-color="#a67af4"/>
    </linearGradient>
    <linearGradient id="uuid-3cf2492a-f33c-4d6e-a4de-b23a859bf8f2" x1="12.659" y1="776.214" x2="12.659" y2="783.535" gradientTransform="translate(0 791.516) scale(1 -1)" gradientUnits="userSpaceOnUse">
      <stop offset="0" stop-color="#32bedd"/>
      <stop offset=".576" stop-color="#32ceef"/>
      <stop offset="1" stop-color="#32d4f5"/>
    </linearGradient>
  </defs>
  <g>
    <g>
      <g id="uuid-9bbc2326-5345-436f-ac10-ba237267ff1e">
        <path d="m1.101,5.068l1.21-.23v6.55l-1.23-.27-.99-.22c-.057-.011-.096-.063-.09-.12v-5.4c-.002-.056.036-.106.09-.12l1.01-.19Z" fill="#a67af4"/>
      </g>
      <g>
        <g id="uuid-d33c7ec0-c967-474f-968d-47a2531738d1">
          <g>
            <path d="m9.87,12.977l-.116-.283-.744-.244-.007-.002-.007-.003-.117-.044-.223-.084v-1.315l.228-.082.76-.272v-.795l-.116-.228-.059-.117-.111-.221.175-.175.11-.11v-3.625c.005-.26.187-.483.44-.54l3.05-.57-4.46-1.56c-.015-.008-.033-.012-.05-.01-.082.002-.148.068-.15.15v10.512c.002.082.068.148.15.15.02,0,.03-.01.05-.01l1.182-.49.016-.033Z" fill="url(#uuid-5e6bdfa4-bf33-4469-abca-210fb31ab3b9)"/>
            <path d="m8.655,12.319v-1.315l.136-.049V2.878c.002-.097-.075-.176-.172-.178h-.033l-5.708,1.078c-.082.018-.141.091-.14.175v8.127c0,.083.056.155.137.174l5.706,1.246c.095.019.188-.043.207-.139.002-.012.003-.023.003-.035v-.956l-.136-.051Z" fill="url(#uuid-9af1acb1-1fc0-4ad8-b0a8-d0ec889776a1)"/>
          </g>
        </g>
        <polygon points="5.948 4.321 5.948 11.883 7.934 12.214 7.934 3.964 5.948 4.321" fill="#b796f9" isolation="isolate" opacity=".5"/>
        <polygon points="3.509 4.729 3.509 11.354 5.238 11.717 5.238 4.431 3.509 4.729" fill="#b796f9" isolation="isolate" opacity=".5"/>
      </g>
    </g>
    <path d="m17.85,5.882l-.8-.282-3.019-1.046h-.023c-.01-.006-.022-.009-.034-.008-.006-.002-.013-.002-.019,0h-.019c-.033.017-.054.051-.054.088v4.174l.095.039.694-.353.117-.059.221-.111.175.175.586.586.171.171-.103.218-.39.83.116.283.669.219.866-.358.766-.316c.08-.035.132-.113.133-.2v-3.844c.002-.095-.06-.179-.15-.207Z" fill="#773adc"/>
    <path d="m10.117,8.528l.172-.172.219.105.816.39.282-.116.244-.744.002-.007.003-.007.044-.117.084-.223h1.313l.082.226.316.868.284.117.117-.06v-4.132c0-.064-.051-.117-.115-.118-.007,0-.013,0-.02.002l-3.8.715c-.055.012-.094.061-.093.117v3.207l.051-.051Z" fill="#a67af4"/>
  </g>
  <path d="m16.32,12.037v-.835l-.117-.044-.895-.293-.234-.569.454-.966-.586-.586-.117.059-.833.423-.569-.234-.368-1.01h-.835l-.044.117-.293.895-.569.234-.953-.456-.586.586.059.117.426.835-.234.569-1.027.368v.835l.117.044.895.293.234.569-.456.968.586.586.117-.059.835-.425.569.234.368,1.01h.835l.044-.117.293-.895.569-.234.966.454.586-.586-.059-.117-.423-.833.234-.569,1.01-.368Zm-3.661,1.211c-.887,0-1.607-.719-1.607-1.607s.719-1.607,1.607-1.607,1.607.719,1.607,1.607h0c0,.887-.718,1.606-1.604,1.607,0,0-.002,0-.002,0Z" fill="url(#uuid-3cf2492a-f33c-4d6e-a4de-b23a859bf8f2)"/>
</svg>