<svg xmlns="http://www.w3.org/2000/svg" width="18" height="18" viewBox="0 0 18 18">
  <defs>
    <linearGradient id="ff79ac15-3dbe-4dca-858c-3466cd0306a1" x1="1.278" y1="9.66" x2="14.23" y2="9.66" gradientUnits="userSpaceOnUse">
      <stop offset="0" stop-color="#005ba1"/>
      <stop offset="0.52" stop-color="#0078d4"/>
      <stop offset="1" stop-color="#005ba1"/>
    </linearGradient>
    <linearGradient id="f6a2bdfd-7825-49cd-80c0-18ae2f22262f" x1="5.572" y1="13.105" x2="14.23" y2="13.105" gradientUnits="userSpaceOnUse">
      <stop offset="0" stop-color="#005ba1"/>
      <stop offset="0.52" stop-color="#0078d4"/>
      <stop offset="1" stop-color="#005ba1"/>
    </linearGradient>
    <linearGradient id="fbe0874e-422c-4d5d-9d19-ff3bbb3ecf40" x1="11.147" y1="18" x2="11.147" y2="11.412" gradientUnits="userSpaceOnUse">
      <stop offset="0" stop-color="#006dcd"/>
      <stop offset="1" stop-color="#5395ec"/>
    </linearGradient>
  </defs>
  <g id="b5fdceee-3cde-4968-8175-ef1406f0807d" >
    <path d="M14.23,2.347V8.613H5.946a.8.8,0,0,0-.8.8v7.567c-2.28-.364-3.872-1.186-3.872-2.145V2.344Z" fill="url(#ff79ac15-3dbe-4dca-858c-3466cd0306a1)"/>
    <path d="M14.23,9.035v5.8a.923.923,0,0,1-.085.387,1.531,1.531,0,0,1-.421.54,3.066,3.066,0,0,1-.511.353,5.7,5.7,0,0,1-.818.37,10.6,10.6,0,0,1-1.955.489,16.989,16.989,0,0,1-2.685.206H7.661a16.975,16.975,0,0,1-2.089-.14V9.408a.373.373,0,0,1,.372-.373Z" fill="url(#f6a2bdfd-7825-49cd-80c0-18ae2f22262f)"/>
    <path d="M14.235,2.344c0,1.3-2.9,2.343-6.475,2.343S1.283,3.681,1.283,2.344,4.183,0,7.755,0,14.23,1.01,14.23,2.344Z" fill="#e8e8e8"/>
    <path d="M12.73,2.151c0,.829-2.233,1.5-4.97,1.5s-4.972-.669-4.972-1.5S5.021.664,7.755.664s4.97.666,4.97,1.489Z" fill="#50e6ff"/>
    <path d="M7.755,2.52a11.674,11.674,0,0,0-3.93.581,11.559,11.559,0,0,0,3.93.549,11.25,11.25,0,0,0,3.929-.581A12,12,0,0,0,7.755,2.52Z" fill="#198ab3"/>
    <path d="M16.722,11.412v6.215a.374.374,0,0,1-.373.373H5.944a.373.373,0,0,1-.372-.373V11.412Z" fill="url(#fbe0874e-422c-4d5d-9d19-ff3bbb3ecf40)"/>
    <path d="M16.716,9.408v2H5.572v-2a.373.373,0,0,1,.372-.373h10.4A.373.373,0,0,1,16.716,9.408Z" fill="#006dcd"/>
    <path d="M6.941,12.286H8.962a.186.186,0,0,1,.186.186v.841a.186.186,0,0,1-.186.186H6.941a.186.186,0,0,1-.186-.186v-.841A.186.186,0,0,1,6.941,12.286Zm3.025.168V13.3a.186.186,0,0,0,.186.186h2.021a.187.187,0,0,0,.187-.186v-.841a.187.187,0,0,0-.187-.186H10.152A.186.186,0,0,0,9.966,12.454Zm3.211,0V13.3a.186.186,0,0,0,.186.186h2.022a.186.186,0,0,0,.186-.186v-.841a.186.186,0,0,0-.186-.186H13.363A.186.186,0,0,0,13.177,12.454ZM6.79,14.207v.841a.186.186,0,0,0,.186.186H9a.186.186,0,0,0,.186-.186v-.841A.186.186,0,0,0,9,14.021H6.976A.186.186,0,0,0,6.79,14.207ZM10,14.189v.842a.187.187,0,0,0,.186.186h2.022a.186.186,0,0,0,.186-.186v-.842A.186.186,0,0,0,12.209,14H10.187A.187.187,0,0,0,10,14.189Zm3.212,0v.842a.186.186,0,0,0,.186.186H15.42a.186.186,0,0,0,.186-.186v-.842A.186.186,0,0,0,15.42,14H13.4A.186.186,0,0,0,13.213,14.189ZM6.79,15.959V16.8a.186.186,0,0,0,.186.186H9a.186.186,0,0,0,.186-.186v-.841A.186.186,0,0,0,9,15.773H6.976A.186.186,0,0,0,6.79,15.959ZM10,15.942v.842a.187.187,0,0,0,.186.186h2.022a.186.186,0,0,0,.186-.186v-.842a.186.186,0,0,0-.186-.186H10.187A.187.187,0,0,0,10,15.942Zm3.212,0v.842a.186.186,0,0,0,.186.186H15.42a.186.186,0,0,0,.186-.186v-.842a.186.186,0,0,0-.186-.186H13.4A.186.186,0,0,0,13.213,15.942Z" fill="#fff" opacity="0.9"/>
  </g>
</svg>
