<svg xmlns="http://www.w3.org/2000/svg" viewBox="0 0 18 18">
  <defs>
    <radialGradient id="a27b297e-c3b0-4532-92cf-ad6574858570" cx="-36.451" cy="9.288" r="11.067" gradientTransform="translate(40.707 -0.083) scale(0.942 0.944)" gradientUnits="userSpaceOnUse">
      <stop offset="0.266" stop-color="#ffd70f" />
      <stop offset="0.487" stop-color="#ffcb12" />
      <stop offset="0.884" stop-color="#feac19" />
      <stop offset="1" stop-color="#fea11b" />
    </radialGradient>
    <linearGradient id="e8603275-faae-41fa-9b62-74c04cf60cf0" x1="12.179" y1="17.904" x2="12.179" y2="10.182" gradientUnits="userSpaceOnUse">
      <stop offset="0" stop-color="#005ba1" />
      <stop offset="0.126" stop-color="#0f66ae" />
      <stop offset="0.515" stop-color="#3a86d1" />
      <stop offset="0.819" stop-color="#5499e7" />
      <stop offset="1" stop-color="#5ea0ef" />
    </linearGradient>
  </defs>
  <g id="f126e9c0-20fc-4cfc-ba42-c716063b8cef">
    <g>
      <g>
        <path id="b61998bb-e052-4fd8-a094-fe7263e8bbd0" d="M12.5,7.124a2.054,2.054,0,0,0,0-2.9h0L8.974.69a2.039,2.039,0,0,0-2.89,0h0L2.558,4.225a2.056,2.056,0,0,0,0,2.9l2.934,2.942a.572.572,0,0,1,.168.406V15.94a.7.7,0,0,0,.2.494L7.2,17.774a.461.461,0,0,0,.655,0l1.3-1.3v-.012l.764-.765a.268.268,0,0,0,0-.378l-.55-.552a.291.291,0,0,1,0-.412l.551-.553a.267.267,0,0,0,0-.377l-.551-.552a.292.292,0,0,1,0-.413l.551-.552a.267.267,0,0,0,0-.377l-.765-.769v-.282ZM7.528,1.545a1.163,1.163,0,1,1-1.16,1.163,1.161,1.161,0,0,1,1.16-1.163Z" fill="url(#a27b297e-c3b0-4532-92cf-ad6574858570)" />
        <path id="a19bad7a-9950-408d-97ab-1e2ae04cda3b" d="M6.612,16.057h0a.249.249,0,0,0,.421-.19V11.442a.263.263,0,0,0-.115-.219h0a.25.25,0,0,0-.386.219v4.425A.264.264,0,0,0,6.612,16.057Z" fill="#ff9300" opacity="0.75" />
        <path id="bc7957f4-76cd-4ecc-a542-1308c69f5d1b" d="M5.018,5.4h5.171a.313.313,0,0,1,.313.313v.059a.314.314,0,0,1-.314.314H5.017A.313.313,0,0,1,4.7,5.776V5.717A.314.314,0,0,1,5.018,5.4Z" fill="#ff9300" opacity="0.75" />
        <path id="f92ca727-bdd2-489d-8d3c-64b40269619f" d="M5.018,6.518h5.171a.313.313,0,0,1,.313.313v.059a.314.314,0,0,1-.314.314H5.017A.313.313,0,0,1,4.7,6.89V6.831a.314.314,0,0,1,.314-.314Z" fill="#ff9300" opacity="0.75" />
      </g>
      <circle cx="12.179" cy="14.043" r="3.861" fill="url(#e8603275-faae-41fa-9b62-74c04cf60cf0)" />
      <path d="M11.8,12.02H10.653a1.431,1.431,0,0,0-.222,2.842,1.539,1.539,0,0,1,.017-.533.9.9,0,0,1,.208-1.784H11.8a.906.906,0,0,1,0,1.812h-.317a.671.671,0,0,0-.064.286.649.649,0,0,0,.045.238H11.8a1.431,1.431,0,0,0,.06-2.861H11.8Z" fill="#fff" />
      <path d="M13.739,13.231a1.8,1.8,0,0,1,.017.22,1.489,1.489,0,0,1-.032.312.9.9,0,0,1-.207,1.783H12.371a.906.906,0,0,1,0-1.811h.315a.67.67,0,0,0,.063-.286.65.65,0,0,0-.045-.239h-.331a1.431,1.431,0,0,0,0,2.861h1.146a1.431,1.431,0,0,0,.222-2.842Z" fill="#fff" />
    </g>
  </g>
</svg>