<svg xmlns="http://www.w3.org/2000/svg" viewBox="0 0 18 18">
  <defs>
    <linearGradient id="ad2931b2-3939-4987-b82b-48ba57d1e64a" x1="9" y1="16.306" x2="9" y2="3.261" gradientUnits="userSpaceOnUse">
      <stop offset="0" stop-color="#0078d4" />
      <stop offset="1" stop-color="#5ea0ef" />
    </linearGradient>
  </defs>
  <g id="a66edc71-335a-420a-8721-dc169402b76c">
    <path d="M17.576,3.283H9.73A.358.358,0,0,1,9.5,3.208L7.253,1.716a.456.456,0,0,0-.233-.064H.424A.424.424,0,0,0,0,2.065v13.87a.424.424,0,0,0,.424.413H17.576A.422.422,0,0,0,18,15.935V3.706A.423.423,0,0,0,17.576,3.283Z" fill="#0078d4" />
    <rect x="1.641" y="2.457" width="4.087" height="0.815" rx="0.169" fill="#fff" />
    <path d="M17.576,3.261H9a.384.384,0,0,0-.3.127L7.274,4.765a.458.458,0,0,1-.3.116H.424A.424.424,0,0,0,0,5.305H0V15.893a.425.425,0,0,0,.424.413H17.576A.423.423,0,0,0,18,15.893V3.706a.423.423,0,0,0-.4-.444Z" fill="url(#ad2931b2-3939-4987-b82b-48ba57d1e64a)" />
    <rect x="13.426" y="9.694" width="3.808" height="2.538" rx="0.242" fill="#005ba1" />
    <path d="M13.692,6.333l3.322.06a.242.242,0,0,1,.238.246l-.037,2.053a.242.242,0,0,1-.247.238l-3.322-.06a.242.242,0,0,1-.238-.247l.037-2.052A.242.242,0,0,1,13.692,6.333ZM8.854,9.942v2.052a.242.242,0,0,0,.242.243h3.323a.242.242,0,0,0,.242-.243V9.942a.242.242,0,0,0-.242-.243H9.1A.242.242,0,0,0,8.854,9.942Z" fill="#83b9f9" />
    <path d="M13.669,13.025h3.322a.242.242,0,0,1,.243.242V15.32a.242.242,0,0,1-.243.242H13.669a.242.242,0,0,1-.243-.242V13.267A.242.242,0,0,1,13.669,13.025Zm-4.815.247v2.053a.242.242,0,0,0,.242.242h3.323a.242.242,0,0,0,.242-.242V13.272a.242.242,0,0,0-.242-.242H9.1A.242.242,0,0,0,8.854,13.272Zm-4.573,0v2.053a.242.242,0,0,0,.243.242H7.846a.242.242,0,0,0,.243-.242V13.272a.242.242,0,0,0-.243-.242H4.524A.242.242,0,0,0,4.281,13.272Z" fill="#003067" />
  </g>
</svg>