<svg id="uuid-53ca475c-32c7-47ab-8e8d-c60bcb6358d2" xmlns="http://www.w3.org/2000/svg" width="18" height="18" viewBox="0 0 18 18">
  <defs>
    <linearGradient id="uuid-9897ffbf-430a-477c-bb89-96db5d365951" x1="15.22" y1="10.922" x2="15.22" y2="15.953" gradientUnits="userSpaceOnUse">
      <stop offset="0" stop-color="#0078d4"/>
      <stop offset="1" stop-color="#005ba1"/>
    </linearGradient>
    <linearGradient id="uuid-42334ab8-bc82-402d-81e9-7921a3667997" x1="8.155" y1="-.414" x2="9.457" y2="15.773" gradientUnits="userSpaceOnUse">
      <stop offset=".224" stop-color="#5ea0ef"/>
      <stop offset="1" stop-color="#0078d4"/>
    </linearGradient>
    <linearGradient id="uuid-04263f3a-bcb0-4956-85ab-f6f685aced62" x1="8.117" y1="9.874" x2=".401" y2="17.59" gradientUnits="userSpaceOnUse">
      <stop offset=".001" stop-color="#76bc2d"/>
      <stop offset="1" stop-color="#86d633"/>
    </linearGradient>
  </defs>
  <g>
    <path d="m12.807,10.757v2.382s-.635,1.124-.235,1.509c1.062.395,2.184.6,3.317.607,1.166,0,2.112-.947,2.112-2.116v-1.793c0-.325-.263-.589-.588-.589h-4.605Z" fill="url(#uuid-9897ffbf-430a-477c-bb89-96db5d365951)"/>
    <path d="m13.777,13.139l.015-12.549c0-.326-.263-.59-.588-.59H3.028c-.325,0-.588.264-.588.589v8.429c.625-.287,1.314-.457,2.045-.457,2.721,0,4.936,2.218,4.936,4.945,0,.618-.127,1.203-.335,1.749h6.802c-1.166,0-2.112-.947-2.112-2.116Z" fill="url(#uuid-42334ab8-bc82-402d-81e9-7921a3667997)"/>
    <path d="m5.83,1.872c0,.15-.121.272-.271.272-.15,0-.272-.121-.272-.271,0-.15.121-.272.271-.272h0s.001,0,.001,0c.149,0,.271.121.271.271h0s0,0,0,0Zm0,4.726c0,.15-.121.272-.271.272s-.272-.121-.272-.271c0-.15.121-.272.271-.272h.001c.149,0,.27.122.27.271Zm-1.433-.76v-.766c.264.224.598.348.944.349.087.002.173-.007.258-.026.064-.014.126-.039.182-.074.045-.027.082-.065.109-.11.024-.042.036-.09.036-.138,0-.064-.019-.127-.057-.179-.043-.057-.096-.107-.157-.146-.075-.049-.154-.093-.236-.129-.091-.041-.189-.084-.294-.129-.23-.086-.436-.226-.599-.41-.132-.164-.202-.37-.197-.581-.004-.161.033-.32.108-.462.071-.128.172-.237.293-.318.131-.086.277-.148.43-.183.169-.04.342-.06.515-.059.159-.002.317.009.474.032.13.02.258.053.381.099v.715c-.059-.041-.122-.076-.188-.105-.068-.03-.137-.056-.209-.075-.136-.038-.275-.057-.416-.059-.08,0-.161.008-.239.025-.064.014-.125.038-.182.071-.046.027-.085.064-.115.109-.027.042-.041.092-.041.142,0,.055.015.109.045.155.035.05.079.094.129.129.064.046.132.086.203.12.08.039.169.079.27.121.127.053.251.114.37.183.103.06.197.134.281.219.077.081.138.176.179.28.096.278.08.582-.046.848-.071.128-.173.237-.296.316-.133.084-.279.143-.433.174-.172.036-.347.054-.523.053-.18,0-.36-.015-.537-.048-.154-.027-.303-.075-.443-.144Z" fill="#fff"/>
    <path d="m12.463,11.239h-3.618c.134.258.243.527.331.808h3.287s.009,0,.013,0c.223-.004.4-.188.397-.411s-.187-.401-.41-.398Z" fill="#fff" isolation="isolate" opacity=".4"/>
    <path d="m10.774,9.56h-3.345c.313.235.59.507.839.808h2.505c.218-.004.393-.179.397-.398.004-.223-.174-.407-.397-.411Z" fill="#fff" isolation="isolate" opacity=".6"/>
    <path d="m12.463,7.882H4.174s-.009,0-.013,0c-.223.004-.4.188-.397.411.002.137.076.251.182.322.18-.02.355-.055.54-.055.375,0,.737.05,1.088.13h6.89s.009,0,.013,0c.223-.004.4-.188.397-.411s-.187-.401-.41-.398Z" fill="#fff" isolation="isolate" opacity=".8"/>
  </g>
  <path d="m4.485,9.012C2.008,9.012,0,11.024,0,13.506s2.008,4.494,4.485,4.494,4.485-2.012,4.485-4.494-2.008-4.494-4.485-4.494Z" fill="url(#uuid-04263f3a-bcb0-4956-85ab-f6f685aced62)"/>
  <path d="m3.84,10.807l.275-.472c.1-.171.042-.391-.129-.491-.171-.1-.39-.042-.49.129l-.766,1.315c-.1.171-.042.391.129.491l1.312.767c.171.1.39.042.49-.129.1-.171.042-.391-.129-.491l-.566-.331-.002-.009c.025-.002.051-.006.077-.014,1.046-.296,2.134.209,2.588,1.201.504,1.102.02,2.41-1.08,2.915s-2.405.02-2.909-1.082c-.091-.199-.326-.286-.524-.195s-.286.326-.195.525c.686,1.499,2.462,2.16,3.958,1.472s2.155-2.466,1.469-3.966c-.615-1.345-2.089-2.031-3.508-1.636Z" fill="#fff"/>
</svg>