<svg xmlns="http://www.w3.org/2000/svg" viewBox="0 0 18 18">
  <defs>
    <linearGradient id="b8bd0e5c-7b1e-434a-87df-5d427e4e93f6" x1="8.016" y1="14.098" x2="8.016" y2="4.624" gradientUnits="userSpaceOnUse">
      <stop offset="0" stop-color="#773adc" />
      <stop offset="0.398" stop-color="#8b55e6" />
      <stop offset="1" stop-color="#a67af4" />
    </linearGradient>
  </defs>
  <g id="b4318c43-ac1a-418d-b11d-5e07faf1fa99">
    <g>
      <path d="M0,4.624H16.031a0,0,0,0,1,0,0v8.885a.588.588,0,0,1-.588.588H.588A.588.588,0,0,1,0,13.509V4.624A0,0,0,0,1,0,4.624Z" fill="url(#b8bd0e5c-7b1e-434a-87df-5d427e4e93f6)" />
      <path d="M15.44,1.708h-.87V1.242a.3.3,0,0,0-.295-.3h-.361a.294.294,0,0,0-.294.3v.466H2.411V1.242a.294.294,0,0,0-.294-.3H1.756a.3.3,0,0,0-.295.3v.466H.591A.589.589,0,0,0,0,2.3V5.124H16.028V2.3A.589.589,0,0,0,15.44,1.708Z" fill="#552f99" />
      <rect x="2.472" y="6.489" width="2.674" height="2.674" rx="0.294" transform="translate(11.636 4.017) rotate(90)" fill="#fff" opacity="0.9" />
      <rect x="6.718" y="6.489" width="2.674" height="2.674" rx="0.294" transform="translate(15.882 -0.229) rotate(90)" fill="#fff" opacity="0.7" />
      <rect x="10.964" y="6.489" width="2.674" height="2.674" rx="0.294" transform="translate(20.128 -4.475) rotate(90)" fill="#fff" opacity="0.4" />
      <rect x="2.472" y="10.011" width="2.674" height="2.674" rx="0.294" transform="translate(15.157 7.539) rotate(90)" fill="#fff" opacity="0.9" />
      <rect x="6.718" y="10.011" width="2.674" height="2.674" rx="0.294" transform="translate(19.403 3.293) rotate(90)" fill="#fff" opacity="0.7" />
      <g>
        <circle cx="13.666" cy="12.718" r="4.334" fill="#ffca00" />
        <circle cx="13.683" cy="12.718" r="3.774" fill="#fff" />
        <path d="M15.241,13.876l-1.1-1.1a.258.258,0,0,0-.2-.073A.244.244,0,0,0,14,12.582V9.79a.265.265,0,0,0-.265-.265h-.05a.266.266,0,0,0-.266.265v2.792a.267.267,0,0,0,.266.266h.037a.26.26,0,0,0,.014.342l1.1,1.1a.266.266,0,0,0,.375,0l.036-.035A.266.266,0,0,0,15.241,13.876Z" fill="#b3b3b3" />
        <circle cx="13.685" cy="12.711" r="0.614" fill="#666" />
      </g>
    </g>
  </g>
</svg>