<svg viewBox="0 0 16 16" xmlns="http://www.w3.org/2000/svg">
  <path fill-rule="evenodd" clip-rule="evenodd" d="M9.94961 3.80548C9.56073 4.4786 8.83326 4.93156 8 4.93156C7.16674 4.93156 6.43927 4.4786 6.05039 3.80548C4.11624 4.57951 2.75 6.47098 2.75 8.68156C2.75 8.95116 2.77032 9.216 2.80952 9.47466C2.95196 9.44639 3.09925 9.43156 3.25 9.43156C4.0905 9.43156 4.82336 9.89242 5.20967 10.5752L4.44996 11.3303C4.29817 10.8109 3.81839 10.4316 3.25 10.4316C2.55964 10.4316 2 10.9912 2 11.6816C2 12.2473 2.37577 12.7252 2.89131 12.8793L2.13161 13.6344C1.45544 13.2463 1 12.5171 1 11.6816C1 10.9592 1.34043 10.3163 1.86962 9.90462C1.79115 9.50909 1.75 9.10013 1.75 8.68156C1.75 6.02071 3.41279 3.74823 5.75595 2.84651C5.75201 2.79204 5.75 2.73704 5.75 2.68156C5.75 1.43892 6.75736 0.431564 8 0.431564C9.24264 0.431564 10.25 1.43892 10.25 2.68156C10.25 2.73704 10.248 2.79204 10.244 2.84651C10.8756 3.08956 11.4578 3.4322 11.9713 3.8552L11.2578 4.56432C10.8637 4.25207 10.4237 3.99521 9.94961 3.80548ZM9.25 2.68156C9.25 3.37192 8.69036 3.93156 8 3.93156C7.30964 3.93156 6.75 3.37192 6.75 2.68156C6.75 1.99121 7.30964 1.43156 8 1.43156C8.69036 1.43156 9.25 1.99121 9.25 2.68156Z" fill="#000000" />
  <path fill-rule="evenodd" clip-rule="evenodd" d="M2.30676 14.8596L14.3973 2.82716L15.1027 3.53597L13.2855 5.34445C13.8964 6.30999 14.25 7.45448 14.25 8.68156C14.25 9.00447 14.2255 9.32166 14.1783 9.63137C14.9578 9.98489 15.5 10.7699 15.5 11.6816C15.5 12.9242 14.4926 13.9316 13.25 13.9316C12.7677 13.9316 12.3209 13.7798 11.9547 13.5215C10.8774 14.4028 9.50044 14.9316 8 14.9316C6.76215 14.9316 5.60835 14.5717 4.63751 13.9509L3.01217 15.5684L2.30676 14.8596ZM11.2845 12.7775C11.1033 12.4532 11 12.0794 11 11.6816C11 10.4567 11.9787 9.46047 13.1967 9.43218C13.2318 9.18703 13.25 8.93642 13.25 8.68156C13.25 7.73112 12.9974 6.83967 12.5558 6.07065L5.36722 13.2247C6.14118 13.6742 7.04053 13.9316 8 13.9316C9.24304 13.9316 10.3852 13.4996 11.2845 12.7775ZM14.5 11.6816C14.5 12.3719 13.9404 12.9316 13.25 12.9316C12.5596 12.9316 12 12.3719 12 11.6816C12 10.9912 12.5596 10.4316 13.25 10.4316C13.9404 10.4316 14.5 10.9912 14.5 11.6816Z" fill="#000000" />
</svg>