<svg xmlns="http://www.w3.org/2000/svg" viewBox="0 0 16 16">
  <path d="M15.775,5.615c-.17.17-.34.33-.51.47a2.741,2.741,0,0,1-.5.37,2.687,2.687,0,0,1-.58.23,2.817,2.817,0,0,1-.69.08,2.715,2.715,0,0,1-.51,0l-3,3a5.835,5.835,0,0,1,.15.61,4.416,4.416,0,0,1,0,.63,3.745,3.745,0,0,1-.1.92,3.3,3.3,0,0,1-.29.78,3.543,3.543,0,0,1-.47.7,8.938,8.938,0,0,1-.61.68l-3-3-4.38,4.34-1.06.35.35-1.07,4.45-4.43-3-3,.35-.35a4.083,4.083,0,0,1,1.26-.84A3.876,3.876,0,0,1,6.335,6l3-3a2.715,2.715,0,0,1,0-.51,3.025,3.025,0,0,1,.08-.69,2.07,2.07,0,0,1,.13-.57,3.463,3.463,0,0,1,.36-.5c.15-.16.3-.33.48-.5Zm-2.28.15a1.8,1.8,0,0,0,.81-.2L10.435,1.7a1.758,1.758,0,0,0-.2.81,1.385,1.385,0,0,0,.05.41,1.6,1.6,0,0,0,.11.4l-3.84,3.83L6.225,7l-.34-.11a2.339,2.339,0,0,0-.36-.08,2.309,2.309,0,0,0-.39,0,3.171,3.171,0,0,0-.91.1,3.266,3.266,0,0,0-.77.38l5.25,5.26a2.851,2.851,0,0,0,.39-.78,2.728,2.728,0,0,0,.13-.85,2.67,2.67,0,0,0,0-.4,2.339,2.339,0,0,0-.08-.36,2.288,2.288,0,0,0-.12-.34,3.492,3.492,0,0,0-.15-.37l3.84-3.84.4.11A1.678,1.678,0,0,0,13.5,5.765Z" />
</svg>