<svg id="ab02a5df-0b93-47dd-888b-6906c6f90624" xmlns="http://www.w3.org/2000/svg" width="18" height="18" viewBox="0 0 18 18">
  <defs>
    <radialGradient id="aa23bc4e-4b70-43cf-8ead-e0fb2ef666c2" cx="210.86" cy="182.05" r="11.02" gradientTransform="translate(-190.73 -163.24) scale(0.94 0.94)" gradientUnits="userSpaceOnUse">
      <stop offset="0.27" stop-color="#3cd4c2"/>
      <stop offset="0.55" stop-color="#39c8b7"/>
      <stop offset="0.66" stop-color="#37c2b1"/>
    </radialGradient>
  </defs>
  <title>Icon-573-WAK</title>
  <g>
    <path id="b404c1b1-e5ea-4392-815f-c34b397108a0" d="M14,7.14a2,2,0,0,0,0-2.89h0L10.44.73a2,2,0,0,0-2.88,0h0L4.05,4.25a2,2,0,0,0,0,2.89L7,10.07a.54.54,0,0,1,.17.4v5.45a.7.7,0,0,0,.2.49l1.33,1.33a.45.45,0,0,0,.66,0l1.29-1.29h0l.76-.76a.28.28,0,0,0,0-.38l-.55-.55a.3.3,0,0,1,0-.41l.55-.55a.28.28,0,0,0,0-.38l-.55-.55a.3.3,0,0,1,0-.41l.55-.55a.27.27,0,0,0,0-.37l-.76-.77v-.28ZM9,1.58A1.16,1.16,0,1,1,7.84,2.74,1.15,1.15,0,0,1,9,1.58Z" fill="url(#aa23bc4e-4b70-43cf-8ead-e0fb2ef666c2)"/>
    <path id="ae5fa027-4be5-4607-acf5-f888c5811291" d="M8.09,16h0a.25.25,0,0,0,.42-.19v-4.4a.27.27,0,0,0-.12-.22h0a.25.25,0,0,0-.38.22v4.4A.24.24,0,0,0,8.09,16Z" fill="#258277" opacity="0.75"/>
    <rect id="b1b5ec9d-ce13-4332-a1c6-6745a101fc94" x="6.19" y="5.42" width="5.77" height="0.68" rx="0.31" fill="#258277" opacity="0.75"/>
    <rect id="fc3819ef-445e-485c-ac60-8f3cd565e6da" x="6.19" y="6.53" width="5.77" height="0.68" rx="0.31" fill="#258277" opacity="0.75"/>
  </g>
<metadata>
   <rdf:RDF xmlns:rdf="http://www.w3.org/1999/02/22-rdf-syntax-ns#">
      <rdf:li>public:true</rdf:li>
      <rdf:li>sdk:false</rdf:li>
      <rdf:li>category: Hybrid and Multicloud</rdf:li>
   </rdf:RDF>
</metadata>
</svg>
