<svg xmlns="http://www.w3.org/2000/svg" width="16" height="16" viewBox="0 0 16 16">
  <path d="M8.5,10a5.028,5.028,0,0,1,.2-1.2L7.5,9a4.1,4.1,0,0,1-1.6-.3,3.4,3.4,0,0,1-1.2-.9,3.4,3.4,0,0,1-.9-1.2A4.1,4.1,0,0,1,3.5,5a4.1,4.1,0,0,1,.3-1.6,3.4,3.4,0,0,1,.9-1.2,3.4,3.4,0,0,1,1.2-.9A4.1,4.1,0,0,1,7.5,1a4.1,4.1,0,0,1,1.6.3,3.4,3.4,0,0,1,1.2.9,3.4,3.4,0,0,1,.9,1.2A4.1,4.1,0,0,1,11.5,5a2.21,2.21,0,0,1-.1.8l1.1-.2V5a4.091,4.091,0,0,0-.4-1.9A3.8,3.8,0,0,0,11,1.5,3.8,3.8,0,0,0,9.4.4,4.091,4.091,0,0,0,7.5,0,4.091,4.091,0,0,0,5.6.4,3.8,3.8,0,0,0,4,1.5,3.8,3.8,0,0,0,2.9,3.1,4.091,4.091,0,0,0,2.5,5a5.068,5.068,0,0,0,.2,1.3,4.971,4.971,0,0,0,.5,1.3l.8,1,1.1.8-1.9,1A6.989,6.989,0,0,0,1.8,12a6.407,6.407,0,0,0-1,1.8A8.307,8.307,0,0,0,.5,16h1a7.767,7.767,0,0,1,.2-1.6l.6-1.5.9-1.2,1.2-.9,1.5-.6L7.5,10Z"/>
  <path d="M13,7.5l1,.2.8.5a3.51,3.51,0,0,1,.5.8,3.6,3.6,0,0,1,.2,1,1.906,1.906,0,0,1-.1.8l-.4.6-.5.6-.5.4-.4.5a1.3,1.3,0,0,0-.1.6V14h-1v-.5a1.906,1.906,0,0,1,.1-.8l.4-.6.5-.6.5-.4.4-.5a1.3,1.3,0,0,0,.1-.6,1.3,1.3,0,0,0-.1-.6l-.3-.5-.5-.3H12.4l-.5.3-.3.5a1.3,1.3,0,0,0-.1.6h-1a3.6,3.6,0,0,1,.2-1,3.51,3.51,0,0,1,.5-.8l.8-.5ZM12.5,15h1v1h-1Z"/>
</svg>
