<svg id="uuid-8475a928-4ffd-4fd8-969d-e0ac902e9e7e" xmlns="http://www.w3.org/2000/svg" width="18" height="18" viewBox="0 0 18 18">
  <defs>
    <linearGradient id="uuid-3109e5cb-b4ae-4755-97d3-4c6197b922b9" x1=".074" y1="9.976" x2="12.678" y2="9.976" gradientUnits="userSpaceOnUse">
      <stop offset="0" stop-color="#005ba1"/>
      <stop offset=".07" stop-color="#0060a9"/>
      <stop offset=".36" stop-color="#0071c8"/>
      <stop offset=".52" stop-color="#0078d4"/>
      <stop offset=".64" stop-color="#0074cd"/>
      <stop offset=".82" stop-color="#006abb"/>
      <stop offset="1" stop-color="#005ba1"/>
    </linearGradient>
  </defs>
  <g>
    <path d="M12.678,2.836c0,1.257-2.821,2.282-6.339,2.282S0,4.062,0,2.836,2.895.575,6.381.575s6.339,1.057,6.339,2.293" fill="#eaeaea"/>
    <path d="M11.167,2.688c0,.803-2.113,1.447-4.828,1.447S1.542,3.449,1.542,2.688s2.166-1.49,4.839-1.49,4.786.644,4.786,1.49" fill="#50e6ff"/>
    <path d="M6.381,2.984c-1.3-.033-2.596.153-3.835.549,1.238.402,2.534.592,3.835.56,1.297.031,2.591-.158,3.825-.56-1.235-.395-2.528-.581-3.825-.549Z" fill="#198ab3"/>
    <path d="M3.663,15.813v-.107c.116-2.281.87-4.215,2.182-5.592,1.323-1.39,3.124-2.124,5.209-2.124h.002c.566,0,1.111.058,1.633.169V2.836c-.011,1.257-2.831,2.282-6.307,2.282S.042,4.062.042,2.836v12.139c0,.976,1.702,1.816,4.089,2.14-.291-.355-.467-.809-.468-1.302Z" fill="url(#uuid-3109e5cb-b4ae-4755-97d3-4c6197b922b9)"/>
  </g>
  <g>
    <path d="M5.725,17.107c-.715,0-1.294-.579-1.295-1.294.222-4.312,2.815-7.054,6.624-7.054s6.42,2.742,6.624,6.985c.036.716-.515,1.325-1.231,1.36,0,0,0,0,0,0H5.723v.002Z" fill="#fff"/>
    <path d="M11.053,9.077c3.8,0,6.121,2.826,6.306,6.685.027.539-.388.998-.927,1.025,0,0,0,0,0,0H5.725c-.539,0-.976-.436-.977-.975,0,0,0,0,0-.001v-.051c.196-3.855,2.513-6.683,6.306-6.683M11.053,8.439c-3.992,0-6.717,2.862-6.941,7.289v.084c.002.89.724,1.611,1.614,1.612h10.739c.891-.045,1.577-.803,1.532-1.695,0,0,0,0,0,0-.21-4.36-2.999-7.29-6.942-7.29h-.002Z" fill="#0078d4"/>
    <path d="M13.971,11.762c-.731-.658-1.66-1.053-2.641-1.124v2.052c.449.059.873.24,1.226.523l1.415-1.451Z" fill="#50e6ff"/>
    <path d="M8.067,11.762l1.415,1.451c.353-.284.777-.465,1.226-.523v-2.052c-.981.071-1.91.467-2.641,1.124Z" fill="#50e6ff"/>
    <path d="M13.008,13.67c.279.367.456.802.512,1.26h1.996c-.067-.997-.45-1.947-1.094-2.711l-1.414,1.451Z" fill="#32bedd"/>
    <path d="M9.035,13.67l-1.415-1.451c-.644.764-1.027,1.714-1.093,2.711h1.996c.056-.458.233-.892.512-1.26Z" fill="#50e6ff"/>
    <path d="M14.42,13.153c-.072-.157-.229-.258-.402-.258-.064,0-.127.014-.185.042l-3.074,1.441.37.805,3.077-1.441c.221-.104.317-.367.214-.589Z" fill="#e62323"/>
    <circle cx="11.053" cy="14.746" r="1.058" fill="#4f4f4f"/>
  </g>
</svg>