<svg xmlns="http://www.w3.org/2000/svg" width="18" height="18" viewBox="0 0 18 18">
  <defs>
    <linearGradient id="e93b0800-7573-4fab-8f2b-32aba2215c5e" x1="9" y1="18" x2="9" gradientUnits="userSpaceOnUse">
      <stop offset="0" stop-color="#0078d4"/>
      <stop offset="0.776" stop-color="#5ea0ef"/>
    </linearGradient>
  </defs>
  <g id="ef5d1de3-1811-45f1-b670-33d629292022">
    <rect width="18" height="18" rx="0.6" fill="url(#e93b0800-7573-4fab-8f2b-32aba2215c5e)"/>
    <g>
      <path d="M5.031,2.876V4.359a.128.128,0,0,0,.129.128H8.422a.129.129,0,0,1,.128.129V6.184a.129.129,0,0,1-.128.129H5.16a.128.128,0,0,0-.129.128V7.924a.128.128,0,0,1-.219.091L2.288,5.491a.127.127,0,0,1,0-.182L4.812,2.785A.128.128,0,0,1,5.031,2.876Z" fill="#fff"/>
      <path d="M5.031,10.076v1.483a.128.128,0,0,0,.129.128H8.422a.129.129,0,0,1,.128.129v1.568a.129.129,0,0,1-.128.129H5.16a.128.128,0,0,0-.129.128v1.483a.128.128,0,0,1-.219.091L2.288,12.691a.127.127,0,0,1,0-.182L4.812,9.985A.128.128,0,0,1,5.031,10.076Z" fill="#fff"/>
      <path d="M13.188,2.785l2.524,2.524a.127.127,0,0,1,0,.182L13.188,8.015a.128.128,0,0,1-.219-.091V6.441a.128.128,0,0,0-.129-.128H9.578a.129.129,0,0,1-.128-.129V4.616a.129.129,0,0,1,.128-.129H12.84a.128.128,0,0,0,.129-.128V2.876A.128.128,0,0,1,13.188,2.785Z" fill="#fff"/>
      <path d="M13.188,9.985l2.524,2.524a.127.127,0,0,1,0,.182l-2.524,2.524a.128.128,0,0,1-.219-.091V13.641a.128.128,0,0,0-.129-.128H9.578a.129.129,0,0,1-.128-.129V11.816a.129.129,0,0,1,.128-.129H12.84a.128.128,0,0,0,.129-.128V10.076A.128.128,0,0,1,13.188,9.985Z" fill="#fff"/>
    </g>
  </g>
  <metadata>
   <rdf:RDF xmlns:rdf="http://www.w3.org/1999/02/22-rdf-syntax-ns#">
      <rdf:li>public:true</rdf:li>
      <rdf:li>sdk:false</rdf:li>
      <rdf:li>category:Other</rdf:li>
   </rdf:RDF>
</metadata>
</svg>
