<svg id="ac9629aa-2f8d-4152-bc09-363a89566b20" xmlns="http://www.w3.org/2000/svg" width="16" height="16" viewBox="0 0 16 16">
  <g>
    <path d="M7.563,11.562a4,4,0,1,1,4,4A4,4,0,0,1,7.563,11.562Zm5.882-.717a.4.4,0,0,0-.565-.566L11.163,12l-.918-.917a.4.4,0,1,0-.565.566l1.2,1.2a.4.4,0,0,0,.565,0Z" fill="#138a00"/>
    <path d="M2.562,10.685h1.88v.76H3.068a.625.625,0,1,0,0,1.25h3.75l-.031-.15a4.983,4.983,0,0,1-.1-.975v-.125h-1v-.76H6.767l.019-.1A4.766,4.766,0,0,1,7.1,9.61l.078-.175H2.562a.877.877,0,0,1-.875-.875v-6a.876.876,0,0,1,.875-.875h8a.875.875,0,0,1,.875.875V6.688h.125a4.908,4.908,0,0,1,.975.1l.15.03V2.563A2.127,2.127,0,0,0,10.562.438h-8A2.128,2.128,0,0,0,.437,2.563v6A2.128,2.128,0,0,0,2.562,10.685Z" fill="#0078d4"/>
    <path d="M13.445,10.845a.4.4,0,0,0-.565-.566L11.163,12l-.918-.917a.4.4,0,1,0-.565.566l1.2,1.2a.4.4,0,0,0,.565,0Z" fill="#fff"/>
  </g>
</svg>
