<svg xmlns="http://www.w3.org/2000/svg" width="18" height="18" viewBox="0 0 18 18">
  <defs>
    <linearGradient id="a9b8ba14-b8c2-468a-9c04-9fb38cdc3d96" x1="5.986" y1="0.088" x2="7.545" y2="17.912" gradientUnits="userSpaceOnUse">
      <stop offset="0.5" stop-color="#b796f9"/>
      <stop offset="0.9" stop-color="#a67af4"/>
    </linearGradient>
    <linearGradient id="a702722f-787d-434f-bc99-2112a87b92a2" x1="-21.107" y1="17.972" x2="-20.769" y2="21.834" gradientTransform="translate(27.6 -12.196)" gradientUnits="userSpaceOnUse">
      <stop offset="0" stop-color="#a67af4"/>
      <stop offset="0.241" stop-color="#9065db"/>
      <stop offset="0.748" stop-color="#653eab"/>
      <stop offset="1" stop-color="#552f99"/>
    </linearGradient>
    <linearGradient id="b449c664-1036-44b8-9bea-bcdba268320a" x1="-20.96" y1="14.971" x2="-20.663" y2="18.361" gradientTransform="translate(27.6 -12.196)" gradientUnits="userSpaceOnUse"> 
      <stop offset="0" stop-color="#a67af4"/>
      <stop offset="0.241" stop-color="#9065db"/>
      <stop offset="0.748" stop-color="#653eab"/>
      <stop offset="1" stop-color="#552f99"/>
    </linearGradient>
  </defs>
  <g id="ed3def23-b543-414e-8673-6f6d7c54cd0a">
    <g>
      <g>
        <rect x="0.716" y="0.5" width="12.099" height="17" rx="0.585" fill="url(#a9b8ba14-b8c2-468a-9c04-9fb38cdc3d96)"/>
        <rect x="3.287" y="13.235" width="6.957" height="1.24" rx="0.306" transform="translate(13.531 27.71) rotate(180)" fill="#773adc"/>
        <rect x="3.287" y="10.831" width="6.957" height="1.24" rx="0.306" transform="translate(13.531 22.901) rotate(180)" fill="#773adc"/>
        <path d="M9.261,9.423a.521.521,0,0,0,.54-.517.342.342,0,0,0,0-.064c-.214-1.7-1.18-3.075-3.021-3.075S3.931,6.937,3.731,8.829a.544.544,0,0,0,.486.594H9.261Z" fill="url(#a702722f-787d-434f-bc99-2112a87b92a2)"/>
        <path d="M6.8,6.171A1.689,1.689,0,0,1,5.9,5.9L6.8,8.28,7.71,5.917A1.731,1.731,0,0,1,6.8,6.171Z" fill="#f2f2f2"/>
        <circle cx="6.789" cy="4.47" r="1.701" fill="url(#b449c664-1036-44b8-9bea-bcdba268320a)"/>
      </g>
      <path d="M17.578,12.381l-2.83-2.83a.144.144,0,0,0-.246.1V11.3c-3.406,0-6.813,1.82-6.813,5.1.487-.73,2.92-2.674,6.813-2.674v1.588a.144.144,0,0,0,.246.1l2.83-2.831A.143.143,0,0,0,17.578,12.381Z" fill="#86d633"/>
    </g>
  </g>
  <metadata>
   <rdf:RDF xmlns:rdf="http://www.w3.org/1999/02/22-rdf-syntax-ns#">
      <rdf:li>public:true</rdf:li>
      <rdf:li>sdk:false</rdf:li>
      <rdf:li>category: Identity</rdf:li>
   </rdf:RDF>
</metadata>
</svg>
