<svg xmlns="http://www.w3.org/2000/svg" viewBox="0 0 18 18">
  <defs>
    <linearGradient id="a5efbc52-c9a4-425f-9d94-50e000195659" x1="9" y1="18.967" x2="9" y2="3.398" gradientUnits="userSpaceOnUse">
      <stop offset="0" stop-color="#0078d4" />
      <stop offset="0.156" stop-color="#1380da" />
      <stop offset="0.528" stop-color="#3c91e5" />
      <stop offset="0.822" stop-color="#559cec" />
      <stop offset="1" stop-color="#5ea0ef" />
    </linearGradient>
    <linearGradient id="a110d41d-e4ca-48ee-9efe-328e60a20dcc" x1="9" y1="5.019" x2="9" y2="13.676" gradientUnits="userSpaceOnUse">
      <stop offset="0.22" stop-color="#fff" />
      <stop offset="1" stop-color="#e6e6e6" />
    </linearGradient>
    <linearGradient id="bcf81335-a15c-4e8a-85c4-cb14c4ef74b0" x1="8.991" y1="2.883" x2="8.991" y2="11.32" gradientUnits="userSpaceOnUse">
      <stop offset="0.22" stop-color="#fff" />
      <stop offset="1" stop-color="#e6e6e6" />
    </linearGradient>
  </defs>
  <g id="b5d797c5-507f-4358-b61e-ca040c36ef52">
    <g>
      <path d="M.038,9.142,4.4,16.69a.285.285,0,0,0,.246.142h8.716a.285.285,0,0,0,.246-.142l4.358-7.548a.283.283,0,0,0,0-.284L13.6,1.31a.285.285,0,0,0-.246-.142H4.642A.285.285,0,0,0,4.4,1.31L.038,8.858A.283.283,0,0,0,.038,9.142Z" fill="url(#a5efbc52-c9a4-425f-9d94-50e000195659)" />
      <g>
        <path id="a81cd782-d573-434f-a6f1-758ffbb6f88b" d="M12.239,6.083l.048.042a.085.085,0,0,0,.115,0l.447-.374.808-1.334a.083.083,0,0,0,0-.1l-.138-.145a.085.085,0,0,0-.1,0l-1.273.863L11.78,5.5a.086.086,0,0,0,0,.109l.049.048L9.2,8.394l-.543-.6-.6.6a1.093,1.093,0,0,1-.26.911.945.945,0,0,1-.826.3L4.376,12.232a.163.163,0,0,0,0,.231l0,.005,1.255,1.3a.162.162,0,0,0,.23.011l.011-.011L8.4,11.14a1.037,1.037,0,0,1,.3-.869.964.964,0,0,1,.826-.3l.6-.6L9.6,8.78Z" opacity="0.4" fill="url(#a110d41d-e4ca-48ee-9efe-328e60a20dcc)" />
        <path d="M13.283,12.057l-.6-.645L8.648,7.278h0l-.2-.218a2.242,2.242,0,0,0-.525-2.2,2.067,2.067,0,0,0-1.865-.6.09.09,0,0,0-.065.11.088.088,0,0,0,.017.035l1.05,1.068a.091.091,0,0,1,0,.085L6.808,6.65a.084.084,0,0,1-.061.06l-1.074.3a.084.084,0,0,1-.084,0l-1.02-1.08a.084.084,0,0,0-.145.054,2.19,2.19,0,0,0,.6,1.919,2.035,2.035,0,0,0,2.034.543l.036.043.23.235h0l4.592,4.828a.954.954,0,0,0,1.34.048l.048-.048a1.017,1.017,0,0,0,.284-.724A1.117,1.117,0,0,0,13.283,12.057Z" fill="url(#bcf81335-a15c-4e8a-85c4-cb14c4ef74b0)" />
      </g>
    </g>
  </g>
</svg>