<svg id="uuid-241089c8-a597-4103-b67e-14caf9cdc303" xmlns="http://www.w3.org/2000/svg" width="18" height="18" viewBox="0 0 18 18">
  <defs>
    <linearGradient id="uuid-da20c37a-6ef4-433c-b21e-4b95f216d79f" x1="-559.158" y1="1019.608" x2="-559.158" y2="1022.58" gradientTransform="translate(564 1025.516) scale(1 -1)" gradientUnits="userSpaceOnUse">
      <stop offset="0" stop-color="#5e9624"/>
      <stop offset=".999" stop-color="#76bc2d"/>
    </linearGradient>
    <linearGradient id="uuid-f3cdb364-32a4-4372-a38f-ed5aeac6da7b" x1="-555.15" y1="1015.925" x2="-555.15" y2="1018.888" gradientTransform="translate(564 1025.516) scale(1 -1)" gradientUnits="userSpaceOnUse">
      <stop offset="0" stop-color="#5e9624"/>
      <stop offset=".999" stop-color="#76bc2d"/>
    </linearGradient>
    <linearGradient id="uuid-cbcc789f-13c9-411b-884a-a2d7b0036834" x1="-551.431" y1="1022.553" x2="-551.431" y2="1025.516" gradientTransform="translate(564 1025.516) scale(1 -1)" gradientUnits="userSpaceOnUse">
      <stop offset="0" stop-color="#5e9624"/>
      <stop offset=".999" stop-color="#76bc2d"/>
    </linearGradient>
    <linearGradient id="uuid-1cc3eae4-38ce-4a5f-abf5-fc011f71cced" x1="-562.508" y1="1015.285" x2="-562.508" y2="1018.248" gradientTransform="translate(564 1025.516) scale(1 -1)" gradientUnits="userSpaceOnUse">
      <stop offset="0" stop-color="#5e9624"/>
      <stop offset=".999" stop-color="#76bc2d"/>
    </linearGradient>
    <linearGradient id="uuid-b5593954-4bf6-4cfd-9ef3-f5be5dad5461" x1="7.751" y1="13.706" x2="16.745" y2="13.706" gradientUnits="userSpaceOnUse">
      <stop offset=".496" stop-color="#5e9624"/>
      <stop offset=".999" stop-color="#365615"/>
    </linearGradient>
    <linearGradient id="uuid-c94d2495-3fe8-48b2-a42e-17ae11451fbf" x1="13.488" y1="18" x2="13.488" y2="9.505" gradientUnits="userSpaceOnUse">
      <stop offset=".001" stop-color="#76bc2d"/>
      <stop offset="1" stop-color="#86d633"/>
    </linearGradient>
  </defs>
  <g>
    <polygon points="12.191 1.009 8.598 7.403 4.797 3.53 .88 8.609 1.798 9.33 4.905 5.322 8.85 9.348 13.209 1.594 12.191 1.009" fill="#86d633"/>
    <ellipse cx="4.842" cy="4.422" rx="1.477" ry="1.486" fill="url(#uuid-da20c37a-6ef4-433c-b21e-4b95f216d79f)"/>
    <ellipse cx="8.85" cy="8.105" rx="1.477" ry="1.486" fill="url(#uuid-f3cdb364-32a4-4372-a38f-ed5aeac6da7b)"/>
    <ellipse cx="12.569" cy="1.486" rx="1.477" ry="1.486" fill="url(#uuid-cbcc789f-13c9-411b-884a-a2d7b0036834)"/>
    <ellipse cx="1.492" cy="8.754" rx="1.477" ry="1.486" fill="url(#uuid-1cc3eae4-38ce-4a5f-abf5-fc011f71cced)"/>
    <rect x="4.032" y="8.483" width="2.323" height="6.826" rx=".252" ry=".252" fill="#0078d4"/>
    <rect x=".33" y="10.843" width="2.323" height="4.467" rx=".252" ry=".252" fill="#5ea0ef"/>
    <path d="m9.337,14.909l-.254-.852c-.092-.31-.139-.634-.139-.961,0-.751.317-1.556.878-2.251-.006,0-.011-.002-.017-.002h-1.819c-.139,0-.252.113-.252.252v3.963c0,.139.113.252.252.252h1.142c.066-.134.134-.268.21-.4Z" fill="#005ba1"/>
    <path d="m12.932,9.105c.28-.037.556-.067.826-.089v-2.568c0-.139-.113-.252-.252-.252h-1.819c-.139,0-.252.113-.252.252v3.112c.468-.229.974-.385,1.498-.455Z" fill="#005ba1"/>
  </g>
  <g>
    <path d="m8.991,17.35c.048-.789.404-1.751,1.008-2.657.195-.331.436-.668.724-.995.871-.992,2.129-1.862,3.674-2.248.219-.055.352-.277.297-.495-.055-.219-.277-.352-.496-.297-1.724.431-3.122,1.4-4.09,2.502-.219.249-.418.508-.594.77-.073-.246-.121-.525-.121-.833,0-.749.381-1.564.986-2.209.617-.658,1.509-1.189,2.611-1.335,2.289-.303,3.709-.05,4.546.186.231.065.402.258.44.495.037.237-.067.473-.267.606-.047.031-.122.106-.213.278-.09.17-.174.393-.261.674-.072.232-.14.483-.214.756l-.047.173c-.091.335-.191.695-.312,1.051-.239.705-.575,1.456-1.142,2.033-.588.599-1.385.972-2.451.972-1.086,0-1.845-.44-2.329-.947-.33.605-.502,1.174-.527,1.594-.021.338-.311.595-.649.575-.338-.021-.595-.311-.575-.649Z" fill="url(#uuid-b5593954-4bf6-4cfd-9ef3-f5be5dad5461)"/>
    <path d="m8.991,17.35c.048-.789.404-1.751,1.008-2.657.195-.331.436-.668.724-.995.871-.992,2.129-1.862,3.674-2.248,1.572-.37,3.124-1.292,2.009-1.944.567.071.934.18,1.132.233.233.064.402.258.44.495.037.237-.067.473-.267.606-.047.031-.122.106-.213.278-.09.17-.174.393-.261.674-.072.232-.14.483-.214.756l-.047.173c-.091.335-.191.695-.312,1.051-.239.705-.575,1.456-1.142,2.033-.588.599-1.385.972-2.451.972-1.086,0-1.845-.44-2.329-.947-.33.605-.502,1.174-.527,1.594-.021.338-.311.595-.649.575-.338-.021-.595-.311-.575-.649Z" fill="url(#uuid-c94d2495-3fe8-48b2-a42e-17ae11451fbf)"/>
  </g>
</svg>