<svg id="uuid-0e434c95-cb92-47de-9b93-9d5fbfe929b4" xmlns="http://www.w3.org/2000/svg" width="18" height="18" viewBox="0 0 18 18">
  <defs>
    <linearGradient id="uuid-c3cf6159-5a64-4960-9119-ac68a04c1403" x1="13.499" y1="18" x2="13.499" y2="8.998" gradientUnits="userSpaceOnUse">
      <stop offset="0" stop-color="#32bedd"/>
      <stop offset="1" stop-color="#50e6ff"/>
    </linearGradient>
    <linearGradient id="uuid-67b8ad8a-2627-4e99-bf01-9c7469a559e5" x1="-555.811" y1="1025.958" x2="-555.856" y2="1019.454" gradientTransform="translate(564 1025.516) scale(1 -1)" gradientUnits="userSpaceOnUse">
      <stop offset="0" stop-color="#0078d4"/>
      <stop offset="1" stop-color="#005ba1"/>
    </linearGradient>
    <linearGradient id="uuid-81cef609-20ca-4c0e-bb83-50216f9a816b" x1="8.196" y1="11.121" x2="8.15" y2="4.626" gradientTransform="matrix(1,0,0,1,0,0)" gradientUnits="userSpaceOnUse">
      <stop offset="0" stop-color="#0078d4"/>
      <stop offset="1" stop-color="#005ba1"/>
    </linearGradient>
    <linearGradient id="uuid-04ae5311-77dc-4b64-8a31-64d80bedd08f" x1="4.735" y1="17.503" x2="4.688" y2="10.802" gradientTransform="matrix(1,0,0,1,0,0)" gradientUnits="userSpaceOnUse">
      <stop offset="0" stop-color="#0078d4"/>
      <stop offset="1" stop-color="#005ba1"/>
    </linearGradient>
  </defs>
  <circle cx="13.499" cy="13.499" r="4.501" fill="url(#uuid-c3cf6159-5a64-4960-9119-ac68a04c1403)"/>
  <rect x="0" width="16.341" height="4.468" rx=".547" ry=".547" fill="url(#uuid-67b8ad8a-2627-4e99-bf01-9c7469a559e5)"/>
  <rect x="13.8" y=".782" width="1.221" height="1.221" rx=".273" ry=".273" fill="#fff"/>
  <rect x="13.8" y="2.466" width="1.221" height="1.221" rx=".273" ry=".273" fill="#9cebff"/>
  <path d="m13.499,8.467c1.047,0,2.021.322,2.827.872.009-.04.015-.08.015-.123v-3.374c0-.302-.245-.547-.547-.547H.547C.245,5.296,0,5.54,0,5.842v3.374c0,.302.245.547.547.547h9.593c.892-.803,2.067-1.296,3.359-1.296Z" fill="url(#uuid-81cef609-20ca-4c0e-bb83-50216f9a816b)"/>
  <rect x="13.8" y="6.077" width="1.221" height="1.221" rx=".273" ry=".273" fill="#fff"/>
  <path d="m8.467,13.499c0-1.084.348-2.087.934-2.909H.547C.245,10.59,0,10.835,0,11.137v3.375c0,.302.245.547.547.547h8.17c-.161-.491-.25-1.014-.25-1.559Z" fill="url(#uuid-04ae5311-77dc-4b64-8a31-64d80bedd08f)"/>
  <path d="m10.096,13.077c-.075.045-.173.02-.218-.055,0,0,0,0,0-.001l-.191-.321c-.045-.076-.02-.173.056-.218l1.511-.896c.075-.045.173-.02.218.055,0,0,0,0,0,.001l.896,1.511c.045.075.02.173-.055.218,0,0,0,0-.001,0l-.321.191c-.076.045-.173.02-.218-.056l-.266-.449c-.061.247-.075.504-.041.757.033.254.118.498.249.717.093.16.209.306.345.431.135.124.286.229.449.312.163.083.338.143.518.179.135.026.273.039.411.037.081,0,.149.063.155.144l.072.776c-.272.025-.547.01-.815-.044-.265-.053-.522-.142-.763-.264-.24-.122-.463-.277-.66-.461-.487-.455-.801-1.065-.889-1.725-.05-.384-.023-.774.08-1.147l-.524.309Zm3.672-1.467c.18.036.354.097.518.181.163.084.314.189.449.312.327.299.539.704.597,1.144.034.253.02.509-.041.757l-.266-.449c-.045-.076-.142-.101-.218-.056l-.321.191c-.076.044-.101.142-.057.217,0,0,0,0,0,.001l.896,1.511c.045.075.143.1.218.055l1.511-.896c.076-.044.101-.142.057-.217,0,0,0,0,0-.001l-.191-.321c-.045-.075-.143-.1-.218-.055l-.523.31c.103-.373.131-.763.08-1.147-.087-.661-.401-1.271-.889-1.725-.198-.183-.42-.338-.66-.46-.241-.122-.498-.211-.763-.264-.214-.043-.433-.061-.651-.054-.087.004-.153.078-.149.165,0,.003,0,.005,0,.008l.057.613c.006.082.074.145.156.145.137-.001.273.013.407.042v-.006Z" fill="#fff"/>
  <path d="m15.022,8.704v-.671c0-.151-.122-.273-.273-.273h-.676c-.151,0-.273.122-.273.273v.45c.423.025.833.098,1.221.222Z" fill="#9cebff"/>
</svg>