<svg xmlns="http://www.w3.org/2000/svg" width="18" height="18" viewBox="0 0 18 18">
  <g id="e6be0ed1-c3a9-44be-823f-7916becb2cee">
    <path id="b77b113d-dc2e-4822-a563-fd9a1b1ccc97" d="M15.522,4.409H14.463V17.961l1.059-2.043Z" fill="#3cd4c2"/>
    <path id="a9ffd9bb-24b5-4c26-bb2f-9716da0f7182" d="M15.522,15.907h0l-1.059,2.044,1.059-.847,1.3-1.006Z" fill="#42e8ca"/>
    <path id="bf99ed2d-3e1b-4770-bb3d-fc0e612de71b" d="M8.524,2.387a1.662,1.662,0,0,1,1.7-1.6,1.662,1.662,0,0,1,1.726,1.6V4.409h.826V2.387A2.489,2.489,0,0,0,10.23-.038h0A2.489,2.489,0,0,0,7.687,2.387V4.409h.826Z" fill="#258277"/>
    <path id="a369baf1-068f-4101-bf6e-821018972d20" d="M5.993,2.387A1.663,1.663,0,0,1,7.708.788a1.673,1.673,0,0,1,1.726,1.6V4.409h.794V2.387a2.533,2.533,0,0,0-5.061,0V4.409h.826Z" fill="#37c2b1"/>
    <polygon points="14.379 4.409 14.379 17.961 1.176 16.913 1.578 4.409 14.379 4.409" fill="#3cd4c2"/>
    <polygon points="15.469 4.409 15.469 15.918 16.771 16.109 16.38 4.409 15.469 4.409" fill="#37c2b1"/>
  </g>
</svg>
