<svg xmlns="http://www.w3.org/2000/svg" width="18" height="18" viewBox="0 0 18 18">
  <defs>
    <linearGradient id="a7622308-207d-4c94-9b59-9990dea05541" x1="13.53" y1="16.72" x2="13.53" y2="7.78" gradientUnits="userSpaceOnUse">
      <stop offset="0" stop-color="#b3b2b3"/>
      <stop offset="0.38" stop-color="#b6b5b5"/>
      <stop offset="0.61" stop-color="#bebdbe"/>
      <stop offset="0.8" stop-color="#cccbcb"/>
      <stop offset="0.96" stop-color="#e0e0df"/>
      <stop offset="1" stop-color="#e5e5e4"/>
    </linearGradient>
    <linearGradient id="bce9d42c-d3ac-42d9-b460-3e16252764e1" x1="16.65" y1="16.72" x2="16.65" y2="7.78" xlink:href="#a7622308-207d-4c94-9b59-9990dea05541"/>
    <linearGradient id="ac24118f-afff-4739-8b47-896f5de1c664" x1="12.09" y1="16.72" x2="12.09" y2="7.78" xlink:href="#a7622308-207d-4c94-9b59-9990dea05541"/>
    <linearGradient id="ab2f2d1c-1ce2-43aa-b51e-371a0d4df33a" x1="15.79" y1="16.72" x2="15.79" y2="7.78" xlink:href="#a7622308-207d-4c94-9b59-9990dea05541"/>
    <linearGradient id="bd2ebce2-24f5-4094-b1a0-99118ee983c7" x1="10.27" y1="16.72" x2="10.27" y2="7.78" xlink:href="#a7622308-207d-4c94-9b59-9990dea05541"/>
    <linearGradient id="fed11a49-2ad1-4063-a9d7-9b842713a6c5" x1="13.27" y1="16.72" x2="13.27" y2="7.78" xlink:href="#a7622308-207d-4c94-9b59-9990dea05541"/>
  </defs>
  <title>Artboard 1</title>
  <g id="bed6f15b-5e87-4fe8-9f08-ee54b22cb0c3">
    <rect x="-764.13" y="-169.24" width="1428" height="830" fill="#fff"/>
  </g>
  <g id="f898878f-74d6-4004-aac4-d14e618431a9">
    <g>
      <path d="M6,9.35V7.4h4.41V9.06a5,5,0,0,1,.67-.54V7.4h4.41v.82a4.32,4.32,0,0,1,.8.5V1.92a.64.64,0,0,0-.63-.64H.64A.64.64,0,0,0,0,1.92V9.63a.64.64,0,0,0,.64.64h8.9a4.42,4.42,0,0,1,.6-.92ZM7.81,6.74H3.4V4.79H7.81Zm5.09,0H8.49V4.79H12.9Zm2.57,0H13.64V4.79h1.83ZM11.06,2.17h4.41v2H11.06ZM6,2.17h4.41v2H6ZM.9,2.17H5.31v2H.9Zm0,2.62H2.73v2H.9ZM5.31,9.35H.9V7.4H5.31Z" fill="#821010"/>
      <rect x="0.9" y="2.17" width="4.41" height="1.95" fill="#e62323"/>
      <rect x="5.98" y="2.17" width="4.41" height="1.95" fill="#ff7381"/>
      <rect x="11.06" y="2.17" width="4.41" height="1.95" fill="#e62323"/>
      <rect x="0.9" y="4.79" width="1.83" height="1.95" fill="#e62323"/>
      <rect x="13.64" y="4.79" width="1.83" height="1.95" fill="#ff7381"/>
      <rect x="3.4" y="4.79" width="4.41" height="1.95" fill="#ff7381"/>
      <rect x="8.49" y="4.79" width="4.41" height="1.95" fill="#e62323"/>
      <rect x="0.9" y="7.4" width="4.41" height="1.95" fill="#e62323"/>
      <path d="M6,7.4V9.35h4.16c.09-.1.16-.2.25-.29V7.4Z" fill="#ff7381"/>
      <path d="M13.55,7.78a4.4,4.4,0,0,1,1.92.44V7.4H11.06V8.52a4.42,4.42,0,0,1,2.45-.74Z" fill="#e62323"/>
      <path d="M18,11.71H15.4a.1.1,0,0,0-.1.1V13a.12.12,0,0,1-.19.08l-2-2a.1.1,0,0,1,0-.14l.64-.64H9.54a4.3,4.3,0,0,0-.48,2v0a3.87,3.87,0,0,0,0,.48H11.7a.1.1,0,0,0,.1-.11V11.45a.11.11,0,0,1,.19-.07l2,2a.11.11,0,0,1,0,.15l-2,2a.12.12,0,0,1-.19-.08V14.32a.1.1,0,0,0-.1-.11H9.51a4.44,4.44,0,0,0,4,2.51h0A4.45,4.45,0,0,0,18,12.27v0A4.41,4.41,0,0,0,18,11.71Z" fill="url(#a7622308-207d-4c94-9b59-9990dea05541)"/>
      <path d="M15.76,10.24h1.77a4.41,4.41,0,0,0-1.26-1.52v.91A.62.62,0,0,1,15.76,10.24Z" fill="url(#bce9d42c-d3ac-42d9-b460-3e16252764e1)"/>
      <path d="M14.64,9.35H11.06V8.52a5,5,0,0,0-.67.54v.29h-.25a4.42,4.42,0,0,0-.6.92h4.19Z" fill="#821010"/>
      <path d="M14.64,9.35H11.06V8.52a5,5,0,0,0-.67.54v.29h-.25a4.42,4.42,0,0,0-.6.92h4.19Z" fill="url(#ac24118f-afff-4739-8b47-896f5de1c664)"/>
      <path d="M15.47,9.35H15.3v.79a.09.09,0,0,0,.1.1h.36a.62.62,0,0,0,.51-.61V8.72a4.32,4.32,0,0,0-.8-.5Z" fill="#821010"/>
      <path d="M15.47,9.35H15.3v.79a.09.09,0,0,0,.1.1h.36a.62.62,0,0,0,.51-.61V8.72a4.32,4.32,0,0,0-.8-.5Z" fill="url(#ab2f2d1c-1ce2-43aa-b51e-371a0d4df33a)"/>
      <path d="M10.14,9.35h.25V9.06C10.3,9.15,10.23,9.25,10.14,9.35Z" fill="#ff7381"/>
      <path d="M10.14,9.35h.25V9.06C10.3,9.15,10.23,9.25,10.14,9.35Z" fill="url(#bd2ebce2-24f5-4094-b1a0-99118ee983c7)"/>
      <path d="M15.3,9v.4h.17V8.22a4.4,4.4,0,0,0-1.92-.44h0a4.42,4.42,0,0,0-2.45.74v.83h3.58l.47-.47A.11.11,0,0,1,15.3,9Z" fill="#e62323"/>
      <path d="M15.3,9v.4h.17V8.22a4.4,4.4,0,0,0-1.92-.44h0a4.42,4.42,0,0,0-2.45.74v.83h3.58l.47-.47A.11.11,0,0,1,15.3,9Z" fill="url(#fed11a49-2ad1-4063-a9d7-9b842713a6c5)"/>
      <path d="M15.76,10.24H15.4a.09.09,0,0,1-.1-.1V9a.11.11,0,0,0-.19-.07l-.47.47-.91.92-.64.64a.1.1,0,0,0,0,.14l2,2A.12.12,0,0,0,15.3,13V11.81a.1.1,0,0,1,.1-.1H18a4.32,4.32,0,0,0-.44-1.47H15.76Z" fill="#e62323"/>
      <path d="M11.8,14.32v1.19a.12.12,0,0,0,.19.08l2-2a.11.11,0,0,0,0-.15l-2-2a.11.11,0,0,0-.19.07v1.19a.1.1,0,0,1-.1.11H9.09a4.24,4.24,0,0,0,.42,1.46H11.7A.1.1,0,0,1,11.8,14.32Z" fill="#fff"/>
    </g>
  </g>
</svg>
