<svg id="uuid-c2f6e44d-4698-431d-bed9-a537ecc76d58" xmlns="http://www.w3.org/2000/svg" width="18" height="18" viewBox="0 0 18 18">
  <defs>
    <linearGradient id="uuid-5799a96a-66be-431a-9e00-ad870dff793a" x1="12.139" y1="10.195" x2="12.139" y2="2.203" gradientTransform="matrix(1, 0, 0, 1, 0, 0)" gradientUnits="userSpaceOnUse">
      <stop offset=".001" stop-color="#76bc2d"/>
      <stop offset="1" stop-color="#86d633"/>
    </linearGradient>
  </defs>
  <circle cx="7.643" cy="10.357" r="7.643" fill="#5996e0"/>
  <path d="M6.278,.618V11.105c0,.34,.276,.616,.616,.616h10.487c.353,0,.636-.296,.617-.648C17.674,5.107,12.893,.326,6.926,0c-.352-.019-.648,.265-.648,.617Z" fill="url(#uuid-5799a96a-66be-431a-9e00-ad870dff793a)"/>
  <path d="M7.6,7.739c2.179-3.668,6.313-5.181,9.874-3.993,.059,.02,.078,.095,.037,.141l-1.874,2.06c-.022,.024-.056,.032-.087,.022-3.128-1.027-5.763-.514-7.805,1.874-.073,.085-.203-.007-.146-.103Z" fill="#86d633"/>
  <path d="M13.809,8.112l1.285-1.41c.032-.035,.017-.09-.026-.109-2.609-1.137-5.408-.401-7.236,2.016-.052,.069,.043,.154,.107,.096,1.697-1.517,3.667-1.459,5.797-.579,.026,.011,.054,.006,.073-.015Z" fill="#86d633"/>
  <path d="M12.563,9.617l.763-.836c.041-.045,.027-.119-.028-.146-1.926-.977-3.993-.545-5.488,1.084-.078,.085,.026,.211,.121,.145,1.396-.963,2.885-.969,4.477-.22,.053,.025,.115,.016,.154-.028Z" fill="#86d633"/>
  <path d="M17.982,3.689c-.048-.182-.182-.327-.36-.386-.839-.28-1.718-.422-2.611-.422-3.174,0-6.095,1.727-7.813,4.62-.104,.176-.107,.385-.007,.56,.065,.115,.17,.197,.289,.242l-.02,.024c-.124,.164-.144,.38-.053,.563,.067,.136,.189,.235,.33,.278-.034,.036-.07,.067-.104,.104-.152,.166-.192,.405-.103,.609,.09,.205,.292,.338,.514,.338,.114,0,.225-.035,.321-.101,.655-.452,1.159-.541,1.882-.541,.612,0,1.273,.165,1.964,.491,.081,.038,.171,.058,.259,.058,.167,0,.327-.071,.44-.194l.026-.029,.736-.807c.117-.128,.168-.307,.137-.478-.002-.009-.006-.017-.008-.026,.135-.01,.263-.065,.355-.165l.402-.442,.883-.969c.116-.127,.163-.303,.127-.471-.008-.039-.022-.077-.039-.113,.017,.002,.033,.008,.049,.008,.154,0,.302-.065,.405-.179l.797-.876,1.077-1.184c.126-.139,.173-.33,.126-.513Zm-4.656,5.092l-.763,.836c-.025,.027-.059,.041-.094,.041-.02,0-.041-.005-.06-.014-.743-.35-1.464-.535-2.164-.535-.799,0-1.569,.241-2.313,.755-.018,.013-.037,.018-.055,.018-.074,0-.129-.095-.066-.164,.962-1.049,2.162-1.601,3.408-1.601,.69,0,1.394,.169,2.08,.517,.054,.028,.069,.101,.028,.146Zm1.768-2.08c-.243,.267-1.113,1.221-1.285,1.41-.012,.013-.029,.02-.046,.02-.009,0-.018-.002-.027-.006-.947-.391-1.863-.62-2.737-.62-1.091,0-2.118,.357-3.06,1.199-.015,.013-.031,.019-.047,.019-.053,0-.099-.062-.059-.115,1.264-1.672,2.993-2.539,4.802-2.539,.807,0,1.629,.172,2.434,.523,.043,.019,.057,.074,.026,.109Zm2.417-2.814c-.352,.387-1.644,1.807-1.874,2.06-.016,.017-.037,.026-.059,.026-.009,0-.018-.001-.027-.004-1.008-.331-1.964-.502-2.867-.502-1.898,0-3.554,.757-4.938,2.376-.02,.024-.045,.034-.069,.034-.062,0-.118-.067-.077-.137,1.688-2.842,4.551-4.391,7.411-4.391,.831,0,1.661,.131,2.463,.398,.059,.02,.078,.095,.037,.141Z" fill="#fff"/>
</svg>