<svg id="a934f8c8-6c77-49f9-8329-7b98e5289600" data-name="fluent_icons" xmlns="http://www.w3.org/2000/svg" xmlns:xlink="http://www.w3.org/1999/xlink" viewBox="0 0 18 18">
  <defs>
    <linearGradient id="f2ae6624-7880-4218-b942-04ab9cc21486" x1="9" y1="17.55" x2="9" y2="0.45" gradientUnits="userSpaceOnUse">
      <stop offset="0" stop-color="#0078d4" />
      <stop offset="0.82" stop-color="#5ea0ef" />
    </linearGradient>
  </defs>
  <title>Icon-storage-99</title>
  <g>
    <g>
      <path d="M10,.58H2.69a.58.58,0,0,0-.57.57v15.7a.58.58,0,0,0,.57.57H15.31a.58.58,0,0,0,.57-.57V6.46a.57.57,0,0,0-.57-.57H11.12a.57.57,0,0,1-.57-.58V1.15A.58.58,0,0,0,10,.58Z" fill="#fff" />
      <path d="M9.71,1.31V5.25A1.44,1.44,0,0,0,11.15,6.7h4v10H2.88V1.31H9.71M10,.45H2.6A.58.58,0,0,0,2,1V17a.58.58,0,0,0,.58.58H15.4A.58.58,0,0,0,16,17V6.42a.58.58,0,0,0-.58-.58H11.15a.58.58,0,0,1-.58-.59V1A.58.58,0,0,0,10,.45Z" fill="url(#f2ae6624-7880-4218-b942-04ab9cc21486)" />
      <path d="M15.76,6,10.37.58V5a1,1,0,0,0,1,1Z" fill="#0078d4" />
    </g>
    <path d="M12.21,8.48H5.79a.42.42,0,1,0,0,.84h6.42a.42.42,0,1,0,0-.84Zm0,2.48H5.79a.42.42,0,0,0,0,.84h6.42a.42.42,0,1,0,0-.84Zm0,2.5H5.79a.42.42,0,0,0-.42.42.41.41,0,0,0,.42.41h6.42a.41.41,0,0,0,.42-.41A.42.42,0,0,0,12.21,13.46Z" fill="#83b9f9" />
  </g>
</svg>