<svg id="uuid-53f84203-3d2e-466f-a40b-a34fd8d25d84" xmlns="http://www.w3.org/2000/svg" width="18" height="18" viewBox="0 0 18 18">
  <defs>
    <linearGradient id="uuid-ca1374ca-d2ca-461c-bd13-7b4e92dae53a" x1="12.323" y1="14.843" x2="12.323" y2="8.908" gradientUnits="userSpaceOnUse">
      <stop offset="0" stop-color="#4aa647"/>
      <stop offset=".218" stop-color="#51ad4b"/>
      <stop offset=".542" stop-color="#65c158"/>
      <stop offset=".932" stop-color="#86e26c"/>
      <stop offset=".998" stop-color="#8de971"/>
    </linearGradient>
  </defs>
  <path d="M.25,2.74c0-.029.007-.058.021-.084.015-.025.036-.047.061-.06l1.235-.69,1.977-1.142c.042-.019.09-.021.134-.006.044.016.08.049.099.09l.681,1.153c.018.037.022.08.012.121-.011.041-.038.074-.074.095l-2.364,1.338c-.025.015-.046.036-.06.061-.015.025-.022.053-.022.083v10.622c0,.029.009.057.023.083.015.025.035.047.059.061l2.367,1.34c.036.021.062.055.074.095s.008.083-.012.121l-.681,1.153c-.023.039-.062.067-.106.079-.045.012-.091.005-.131-.018l-2.017-1.167-1.193-.666c-.025-.015-.047-.036-.061-.061-.015-.025-.022-.054-.021-.084V2.74ZM17.75,2.72c0-.029-.007-.058-.021-.084-.015-.025-.036-.047-.061-.06l-1.235-.69-1.977-1.122c-.042-.019-.09-.021-.134-.006-.044.016-.08.049-.099.09l-.681,1.153c-.018.037-.022.08-.012.121.012.04.038.074.074.095l2.364,1.338c.025.015.047.036.06.061.015.025.022.053.022.083v10.622c0,.029-.009.057-.023.083s-.035.047-.059.061l-2.367,1.34c-.036.021-.062.055-.073.095-.012.04-.008.083.011.121l.681,1.153c.023.039.061.067.106.079.045.012.091.005.131-.018l2.017-1.167,1.194-.669c.024-.015.046-.035.059-.06.015-.025.022-.053.022-.082V2.72Z" fill="#9b9c9c"/>
  <path d="M1.177,3.183l-.927-.525c0-.016.008-.031.019-.043.012-.012.026-.017.043-.018l1.225-.69,1.986-1.142c.01-.006.021-.011.032-.015.039-.013.081-.01.118.009.036.018.064.05.077.088l.681,1.153c.006.009.011.017.016.027.015.035.015.075,0,.11-.015.035-.043.063-.078.079l-2.368,1.34-.062.061-.761-.434ZM4.367,15.783l-2.367-1.339c-.032-.025-.057-.059-.072-.097l-1.667,1.034h.052l1.183.67,2.06,1.142c.034.022.075.031.116.023.04-.008.076-.031.098-.064l.013-.021.681-1.152c.015-.035.016-.075,0-.111-.015-.035-.042-.064-.077-.079l-.019-.007ZM16.823,3.166l.927-.529-.062-.061-1.225-.69-1.986-1.122c-.01-.006-.021-.011-.032-.015-.039-.013-.081-.01-.118.009-.036.018-.064.05-.078.088l-.681,1.153c-.006.009-.011.017-.016.027-.015.035-.015.075,0,.11.015.035.043.063.078.079l2.368,1.34.062.061.761-.45h0ZM13.591,15.979l.681,1.152.012.021c.023.034.059.057.099.064.04.008.082,0,.116-.023l2.059-1.142,1.183-.67-1.667-1.029c-.015.038-.04.072-.072.097l-2.367,1.338c-.03.02-.051.052-.058.087-.008.036-.002.073.016.104Z" fill="#b1b3b3"/>
  <path d="M14.833,6.084v3.16c-.049-.019-.097-.029-.146-.029-.71-.01-.924-.165-1.157-.321-.253-.175-.544-.379-1.206-.379-.671,0-.953.204-1.206.379-.233.156-.457.311-1.157.321-.301.01-.535.243-.535.544v1.925c0,.729.35,1.39.797,1.935l-1.196.476c-.029.019-.068.029-.107.029-.019,0-.039,0-.058-.01-.049-.029-.078-.078-.078-.136V4.013c0-.058.029-.107.078-.126l.029-.01h.078l.039.01,5.61,1.906c.126.039.214.156.214.292Z" fill="#664b96"/>
  <path d="M8.891,3.875l-5.587,1.02c-.08.016-.137.085-.137.166v7.712c0,.08.055.149.134.165l5.586,1.185c.091.02.181-.037.202-.127.003-.013.004-.025.004-.038V4.041c0-.093-.075-.169-.168-.169-.011,0-.021,0-.033.003h0Z" fill="#8661c5"/>
  <g>
    <path d="M6.31,12.586v-7.175l1.943-.339v7.828l-1.943-.314Z" fill="#a58ad4"/>
    <path d="M3.921,12.084v-6.286l1.693-.284v6.913l-1.693-.343Z" fill="#a58ad4"/>
  </g>
  <path d="M14.833,11.68c0,1.595-1.994,2.88-2.428,3.14-.051.03-.115.03-.165,0-.434-.259-2.428-1.545-2.428-3.14v-1.92c0-.084.07-.151.155-.153,1.551-.041,1.194-.699,2.356-.699s.805.659,2.356.699c.085,0,.153.069.155.153v1.92Z" fill="url(#uuid-ca1374ca-d2ca-461c-bd13-7b4e92dae53a)"/>
  <path d="M13.415,11.388c-.021-.021-.051-.033-.081-.033h0s-.145,0-.145,0v-.502c0-.237-.088-.467-.248-.641-.079-.086-.174-.155-.28-.201-.106-.047-.221-.071-.337-.071s-.231.024-.337.071c-.106.047-.201.116-.28.201-.162.174-.251.403-.248.641v.503h-.147c-.03,0-.059.012-.081.033s-.034.05-.035.08v1.305c0,.03.014.059.035.08.021.021.051.033.081.033h2.022c.03,0,.059-.013.081-.033s.034-.05.035-.08v-1.305c0-.03-.014-.059-.035-.08ZM12.784,11.354h-.921v-.51c0-.131.053-.257.145-.351.04-.045.088-.08.143-.105.054-.024.114-.037.173-.037s.119.013.173.037c.054.024.103.06.143.105.02.022.038.046.054.071.057.083.089.18.091.28l-.002.51Z" fill="#fff"/>
</svg>