<svg xmlns="http://www.w3.org/2000/svg" viewBox="0 0 18 18">
  <defs>
    <linearGradient id="f76e9844-a802-433c-9cd5-dffd859d5d26" x1="8.34" y1="15.27" x2="8.34" y2="0.43" gradientUnits="userSpaceOnUse">
      <stop offset="0" stop-color="#1988d9" />
      <stop offset="0.22" stop-color="#218ddc" />
      <stop offset="0.56" stop-color="#379ce5" />
      <stop offset="0.9" stop-color="#54aef0" />
    </linearGradient>
  </defs>
  <title>Icon-429Artboard 1</title>
  <g id="ff10598d-83f7-4e6d-8ca4-b362661a5e85">
    <path d="M8.34,15.27c7.55-5.41,7.8-8.56,7.83-9.55,0-1.38-.14-5-3.78-5.28A3.94,3.94,0,0,0,8.34,3.08a3.94,3.94,0,0,0-4-2.64C.65.73.46,4.34.51,5.72c0,1,.28,4.14,7.83,9.55" fill="url(#f76e9844-a802-433c-9cd5-dffd859d5d26)" />
    <path d="M16.17,5.72c0-1.38-.14-5-3.78-5.28A3.94,3.94,0,0,0,8.34,3.08a3.94,3.94,0,0,0-4-2.64C.65.73.46,4.34.51,5.72c0,1,.22,4.1,7.76,9.5" fill="none" />
    <path d="M16.18,5.18H12.51a.15.15,0,0,0-.13.07L11.24,7.17a.14.14,0,0,1-.24,0l-1.6-3a.29.29,0,0,0-.52,0L7.35,8.7a.14.14,0,0,1-.26,0l-1.31-3a.28.28,0,0,0-.51,0L3.48,8.88A.13.13,0,0,1,3.36,9H1.66c.23.35.51.72.84,1.13H4A.14.14,0,0,0,4.15,10L5.28,8a.14.14,0,0,1,.26,0l1.53,3.55a.28.28,0,0,0,.53,0L9.22,6.72a.14.14,0,0,1,.26,0l1.34,2.55a.28.28,0,0,0,.49,0L13,6.37a.14.14,0,0,1,.12-.07h3" fill="#fff" />
    <path id="ed892f8f-44c8-4992-9a64-fe4a59d71fff" d="M16.2,10.67l.09.08.45-.37.76-1.23L17.3,9l-1.19.78-.36.46.09.09-2.37,2.4L13,12.2l-.54.55a1,1,0,0,1-.25.76.85.85,0,0,1-.75.27L9,16.2l1.34,1.37,2.38-2.44a.91.91,0,0,1,.28-.76.87.87,0,0,1,.74-.27l.54-.55-.49-.5Z" fill="#0078d4" />
    <path d="M17.13,16l-.56-.58L13,11.72h0l-.17-.19a2,2,0,0,0-.47-1.94,1.92,1.92,0,0,0-1.81-.5l1.06,1.07-.27,1.05-1.05.29-1-1.07a1.93,1.93,0,0,0,.48,1.83,1.86,1.86,0,0,0,1.83.48l0,0,.2.2h0l4.12,4.25a.86.86,0,0,0,1.2,0s0,0,0,0a.92.92,0,0,0,.26-.64A1,1,0,0,0,17.13,16Z" fill="#50e6ff" />
  </g>
</svg>