<svg xmlns="http://www.w3.org/2000/svg" viewBox="0 0 18 18">
  <defs>
    <linearGradient id="eacd58b0-de8b-4b95-a59f-ed81e00dae91" x1="3.24" y1="781.942" x2="3.24" y2="773.65" gradientTransform="matrix(1, 0, 0, -1, 0, 791.516)" gradientUnits="userSpaceOnUse">
      <stop offset="0" stop-color="#76bc2d" />
      <stop offset="1" stop-color="#5e9624" />
    </linearGradient>
    <linearGradient id="bdf479b1-d0bd-49c0-b06e-5ec95f6ad5ff" x1="11.685" y1="789.556" x2="11.685" y2="776.823" gradientTransform="matrix(1, 0, 0, -1, 0, 791.516)" gradientUnits="userSpaceOnUse">
      <stop offset="0" stop-color="#83b9f9" />
      <stop offset="1" stop-color="#0f7fd8" />
    </linearGradient>
  </defs>
  <path d="M6.479,13.116v-.757h0L5.71,12.1l-.2-.517L5.9,10.8v-.088l-.239-.24-.29-.289h-.1l-.756.378L4,10.418l-.328-.844H2.924l-.252.768-.567.253-.844-.479L.706,10.6v.1l.378.744-.214.517L0,12.334v.782H.113l.8.264.214.517-.4.87.53.529h.1l.756-.378.517.214.328.908H3.7v-.114l.265-.794.5-.214.883.4.529-.529v-.1L5.5,13.947l.138-.529Zm-3.164.643a1.018,1.018,0,0,1-1.072-1,1.059,1.059,0,0,1,2.118-.026v.013h0a1.058,1.058,0,0,1-1.046,1.008Z" fill="url(#eacd58b0-de8b-4b95-a59f-ed81e00dae91)" />
  <path d="M18,8.88V7.405l-.076-.063-1.537-.529L16,5.805l.781-1.513.076-.164-.466-.5-.555-.592-.2.1-1.475.757L13.147,3.6,12.5,1.96H11.042l-.076.076-.5,1.5-1.033.39-1.7-.806L6.693,4.153l.1.2.769,1.462L7.147,6.826,5.37,7.468V8.943l.214.063,1.563.517L7.563,10.6l-.807,1.7L7.79,13.342l.2-.088L9.466,12.5l1.009.416.643,1.777h1.487v-.315l.517-1.563,1-.416,1.727.794,1.033-1.033-.1-.2-.723-1.36.29-1.034Zm-6.189,1.362a2.068,2.068,0,1,1,2.055-2.081h0A2.08,2.08,0,0,1,11.811,10.242Z" fill="url(#bdf479b1-d0bd-49c0-b06e-5ec95f6ad5ff)" />
</svg>