<svg xmlns="http://www.w3.org/2000/svg" width="18" height="18" viewBox="0 0 18 18">
  <g id="aaf7ac57-3db8-45b6-9daa-ce40979dc394">
    <path d="M5.25,4.418H11.6A3.256,3.256,0,1,0,11.5,3.359H5.25A2.66,2.66,0,1,0,4.065,6.116l4.786,5.038a3.932,3.932,0,0,0-.928,2.52,4,4,0,1,0,1.7-3.246L4.832,5.387A2.611,2.611,0,0,0,5.25,4.418Zm9.49-3.01a2.191,2.191,0,1,1-2.2,2.191A2.2,2.2,0,0,1,14.74,1.408ZM1.059,3.888A1.593,1.593,0,1,1,2.652,5.471,1.59,1.59,0,0,1,1.059,3.888ZM11.91,10.755a2.919,2.919,0,1,1-2.929,2.919A2.928,2.928,0,0,1,11.91,10.755Z"/>
  </g>
</svg>
