<svg id="b86825d9-ff21-4cf4-b72e-1a4a9265f397" xmlns="http://www.w3.org/2000/svg" width="18" height="18" viewBox="0 0 18 18">
  <defs>
    <radialGradient id="f6047444-4eb7-465d-81ba-541417b7ef0a" cx="15403.171" cy="-6063.411" r="45.572" gradientTransform="matrix(0.15, 0, 0, -0.15, -2301.48, -901.98)" gradientUnits="userSpaceOnUse">
      <stop offset="0.18" stop-color="#5ea0ef"/>
      <stop offset="1" stop-color="#0078d4"/>
    </radialGradient>
    <linearGradient id="f8afc757-8518-45d0-a585-bd99b98ec8f2" x1="302.316" y1="-376.526" x2="302.291" y2="-373.351" gradientTransform="matrix(1, 0, 0, -1, -297, -367)" gradientUnits="userSpaceOnUse">
      <stop offset="0" stop-color="#ccc"/>
      <stop offset="1" stop-color="#fcfcfc"/>
    </linearGradient>
    <linearGradient id="bcec81eb-9d88-4751-bf6f-f875ffd0baa6" x1="306.919" y1="-379.716" x2="306.919" y2="-376.863" gradientUnits="userSpaceOnUse">
      <stop offset="0" stop-color="#ccc"/>
      <stop offset="1" stop-color="#fcfcfc"/>
    </linearGradient>
    <linearGradient id="a2d850b0-60dd-4fe0-a712-eb2843c0bb5c" x1="310.174" y1="-376.26" x2="310.174" y2="-373.231" gradientUnits="userSpaceOnUse">
      <stop offset="0" stop-color="#ccc"/>
      <stop offset="1" stop-color="#fcfcfc"/>
    </linearGradient>
  </defs>
  <g>
    <g>
      <path d="M18,16.278H0l3.332-3.149a.584.584,0,0,1,.4-.16H14.68a.587.587,0,0,1,.438.2Z" fill="#4fc2b1"/>
      <path d="M0,16.278H18a0,0,0,0,1,0,0v.41a.586.586,0,0,1-.586.586H.586A.586.586,0,0,1,0,16.688v-.41A0,0,0,0,1,0,16.278Z" fill="#5fe8c9"/>
    </g>
    <g>
      <path id="b55a8fbc-8ada-4732-98a6-881f773e5012" d="M13.2,12.933a6.833,6.833,0,0,1-8.374-10.8L4.9,2.084a6.831,6.831,0,0,1,8.3,10.849" fill="url(#f6047444-4eb7-465d-81ba-541417b7ef0a)"/>
      <path d="M7.155,6.11a10.445,10.445,0,0,1,7.16-2.877,6.794,6.794,0,0,0-1.2-1.157,11.524,11.524,0,0,0-3.769.884A10.069,10.069,0,0,0,6.07,5.226,2.218,2.218,0,0,1,7.155,6.11Z" fill="#fff" opacity="0.6"/>
      <path d="M3.772,8.859A14.223,14.223,0,0,0,3.1,10.964a6.253,6.253,0,0,0,.5.739,6.709,6.709,0,0,0,.442.523,14.4,14.4,0,0,1,.868-2.789A2.217,2.217,0,0,1,3.772,8.859Z" fill="#fff" opacity="0.6"/>
      <path d="M4.559,5.21a9.6,9.6,0,0,1-.554-2.363,6.473,6.473,0,0,0-.884,1.166,10.142,10.142,0,0,0,.458,1.912A2.16,2.16,0,0,1,4.559,5.21Z" fill="#f2f2f2" opacity="0.55"/>
      <circle cx="5.298" cy="7.275" r="2.194" fill="url(#f8afc757-8518-45d0-a585-bd99b98ec8f2)"/>
      <path d="M8.5,11.286a1.423,1.423,0,0,1,.434-1.021A9.527,9.527,0,0,1,6.9,8.77a2.2,2.2,0,0,1-1.2.667,10.554,10.554,0,0,0,1.166,1.029,9.717,9.717,0,0,0,1.647,1A1.428,1.428,0,0,1,8.5,11.286Z" fill="#f2f2f2" opacity="0.55"/>
      <path d="M13.56,11.454a9.63,9.63,0,0,1-2.218-.257.332.332,0,0,1,0,.089,1.405,1.405,0,0,1-.41,1,11.02,11.02,0,0,0,2.749.193,6.616,6.616,0,0,0,.956-1.077A9.014,9.014,0,0,1,13.56,11.454Z" fill="#f2f2f2" opacity="0.55"/>
      <circle cx="9.919" cy="11.286" r="1.43" fill="url(#bcec81eb-9d88-4751-bf6f-f875ffd0baa6)"/>
      <path d="M11.679,7.476a1.472,1.472,0,0,1,.491-.8A20.456,20.456,0,0,1,8.585,3.345,13.571,13.571,0,0,1,6.978,1a6.234,6.234,0,0,0-.876.337A14.541,14.541,0,0,0,7.83,3.892,21.233,21.233,0,0,0,11.679,7.476Z" fill="#f2f2f2" opacity="0.7"/>
      <circle cx="13.174" cy="7.749" r="1.519" fill="url(#a2d850b0-60dd-4fe0-a712-eb2843c0bb5c)"/>
      <path d="M15.722,8.77l-.282-.137h0L15.2,8.505h-.048l-.209-.169h-.056l-.249-.161a1.416,1.416,0,0,1-.514.74c.1.064.2.12.305.177l.064.04.281.152h0l.692.362h0a7.045,7.045,0,0,0,.233-.892Z" fill="#f2f2f2" opacity="0.55"/>
      <circle cx="9.919" cy="11.286" r="1.43" fill="url(#bcec81eb-9d88-4751-bf6f-f875ffd0baa6)"/>
      <circle cx="5.298" cy="7.275" r="2.194" fill="url(#f8afc757-8518-45d0-a585-bd99b98ec8f2)"/>
    </g>
  </g>
</svg>
