<svg viewBox="0 0 16 16" xmlns="http://www.w3.org/2000/svg">
  <path fill-rule="evenodd" clip-rule="evenodd" d="M8.34755 0.997922C8.16487 0.784786 7.83513 0.784786 7.65245 0.997922L0.110251 9.79715C-0.0732239 10.0112 -0.0214546 10.3386 0.219108 10.4856L7.7613 15.0948C7.90784 15.1843 8.09216 15.1843 8.2387 15.0948L15.7809 10.4856C16.0215 10.3386 16.0732 10.0112 15.8898 9.79715L8.34755 0.997922ZM7.54224 2.53326L2.66926 8.2184L7.54224 11.2172V2.53326ZM8.45776 2.53326V11.2172L13.3307 8.21841L8.45776 2.53326ZM7.54224 12.2921L2.06604 8.92217L1.15522 9.98479L7.54224 13.888V12.2921ZM8.45776 13.888V12.2921L13.934 8.92217L14.8448 9.98479L8.45776 13.888Z" fill="#000" />
</svg>