<svg xmlns="http://www.w3.org/2000/svg" width="18" height="18" viewBox="0 0 18 18">
  <g id="e6b84b64-16e5-4fbc-9615-0cba00f4e9e1">
    <g>
      <path d="M14.3,4.24a1.31,1.31,0,0,1-.54-.53L11.31,6.18h1.06Z" fill="#666"/>
      <path d="M9.4,2.88A1.59,1.59,0,0,1,9,2.94a1.67,1.67,0,0,1-.38-.06v3.3H9.4Z" fill="#666"/>
      <path d="M4.24,3.71a1.42,1.42,0,0,1-.53.53L5.65,6.18H6.72Z" fill="#666"/>
      <path d="M8.64,15.12A1.67,1.67,0,0,1,9,15.06a1.59,1.59,0,0,1,.38.06v-3.3H8.64Z" fill="#666"/>
      <path d="M3.71,13.8a1.42,1.42,0,0,1,.53.53l2.51-2.51H5.69Z" fill="#666"/>
      <path d="M14.29,13.8l-2-2H11.25l2.51,2.51A1.5,1.5,0,0,1,14.29,13.8Z" fill="#666"/>
      <path d="M9.4,2.88a1.45,1.45,0,0,0,1.09-1.41A1.47,1.47,0,1,0,8.64,2.88,1.67,1.67,0,0,0,9,2.94,1.59,1.59,0,0,0,9.4,2.88Z" fill="#a0a1a2"/>
      <path d="M4.24,3.71A1.45,1.45,0,0,0,4.45,3,1.47,1.47,0,1,0,3,4.44a1.4,1.4,0,0,0,.73-.2A1.42,1.42,0,0,0,4.24,3.71Z" fill="#a0a1a2"/>
      <path d="M8.64,15.12a1.47,1.47,0,1,0,.76,0A1.59,1.59,0,0,0,9,15.06,1.67,1.67,0,0,0,8.64,15.12Z" fill="#a0a1a2"/>
      <path d="M14.3,4.24a1.37,1.37,0,0,0,.72.2A1.47,1.47,0,1,0,13.55,3a1.39,1.39,0,0,0,.21.74A1.31,1.31,0,0,0,14.3,4.24Z" fill="#a0a1a2"/>
      <path d="M3.71,13.8A1.41,1.41,0,0,0,3,13.59a1.47,1.47,0,1,0,1.47,1.47,1.41,1.41,0,0,0-.21-.73A1.42,1.42,0,0,0,3.71,13.8Z" fill="#a0a1a2"/>
      <path d="M15,13.59a1.41,1.41,0,0,0-.73.21,1.5,1.5,0,0,0-.53.53,1.41,1.41,0,0,0-.21.73A1.47,1.47,0,1,0,15,13.59Z" fill="#a0a1a2"/>
      <path d="M14,11.82a.41.41,0,0,0,.42-.4V6.58a.41.41,0,0,0-.42-.4H4a.41.41,0,0,0-.42.4v4.84a.41.41,0,0,0,.42.4H14ZM13.89,9.6H12.67V8.38h1.22ZM11,6.74h2.93V8H11Zm1.22,1.64V9.6H9.25V8.38ZM7.59,6.74h2.93V8H7.59ZM8.81,8.38V9.6H5.88V8.38ZM4.22,6.74H7.15V8H4.22Zm0,1.64H5.43V9.6H4.22Zm2.93,2.87H4.22V10H7.15Zm3.37,0H7.59V10h2.93Zm.44,0V10h2.93v1.23Z" fill="#821010"/>
      <rect x="4.22" y="6.74" width="2.93" height="1.22" fill="#e62323"/>
      <rect x="7.59" y="6.74" width="2.93" height="1.22" fill="#ff7381"/>
      <rect x="10.96" y="6.74" width="2.93" height="1.22" fill="#e62323"/>
      <rect x="4.22" y="8.38" width="1.22" height="1.22" fill="#e62323"/>
      <rect x="12.67" y="8.38" width="1.22" height="1.22" fill="#ff7381"/>
      <rect x="5.88" y="8.38" width="2.93" height="1.22" fill="#ff7381"/>
      <rect x="9.25" y="8.38" width="2.93" height="1.22" fill="#e62323"/>
      <rect x="4.22" y="10.02" width="2.93" height="1.22" fill="#e62323"/>
      <rect x="7.59" y="10.02" width="2.93" height="1.22" fill="#ff7381"/>
      <rect x="10.96" y="10.02" width="2.93" height="1.22" fill="#e62323"/>
    </g>
  </g>
</svg>
