<svg id="uuid-088da2cb-128c-4580-9e67-6fc982a629db" xmlns="http://www.w3.org/2000/svg" width="18" height="18" viewBox="0 0 18 18">
  <g>
    <path d="m8.961,3.643c.088,0,.175.023.251.067l4.242,2.436c.156.09.253.257.253.437v4.882c0,.179-.096.347-.252.436l-4.229,2.442c-.076.044-.164.067-.252.067s-.175-.023-.252-.068l-4.229-2.442c-.155-.09-.252-.257-.252-.436v-4.883c0-.179.096-.347.252-.436l4.216-2.434c.076-.044.164-.067.252-.067m0-.489c-.172,0-.343.044-.497.133l-4.216,2.434c-.307.177-.497.505-.497.86v4.883c0,.355.189.683.497.86l4.229,2.442c.154.089.325.133.497.133s.343-.044.497-.133l4.229-2.442c.307-.177.497-.505.497-.86v-4.882c0-.356-.19-.684-.499-.861l-4.242-2.436c-.153-.088-.324-.132-.495-.132h0Z" fill="#773adc"/>
    <path d="m6.264,9.718c-.484,0-.876.392-.876.876s.392.876.876.876.876-.392.876-.876-.392-.876-.876-.876Zm2.623-4.655c-.484,0-.876.392-.876.876s.392.876.876.876.876-.392.876-.876-.392-.876-.876-.876Zm2.618,4.655c-.484,0-.876.392-.876.876s.392.876.876.876.876-.392.876-.876-.392-.876-.876-.876Z" fill="#a67af4"/>
    <path d="m7.344,9.226c.322.254.545.612.63,1.013.014.059.067.101.128.099h1.572c.009,0,.018-.003.027-.006.005-.001.009-.001.014-.003.01-.004.018-.01.027-.015.003-.002.007-.004.01-.006.009-.007.015-.016.022-.025.002-.003.005-.005.007-.008.008-.012.013-.026.017-.041.085-.403.31-.764.634-1.018.054-.039.068-.114.033-.17l-.474-.833s-.002.001-.003.002l-.338-.589c-.033-.055-.102-.078-.161-.052-.19.069-.39.105-.592.109-.209.002-.416-.035-.611-.109-.062-.022-.13.004-.161.062l-.814,1.421c-.033.057-.019.13.033.17Zm.18-2.207c-.249-.305-.386-.686-.388-1.08h-.928c-.047,0-.091.025-.114.066l-1.203,2.069c-.024.041-.024.092,0,.133l.44.758c.035.061.111.086.175.057.236-.116.495-.176.758-.175.063-.005.126-.005.189,0,.053.003.104-.022.133-.066l.374-.639.563-.975c.031-.044.031-.103,0-.147Zm5.378,1.147c0-.023-.006-.046-.018-.067l-1.174-2.093c-.023-.041-.066-.067-.114-.066h-.947c0,.39-.129.768-.369,1.075-.031.044-.031.103,0,.147l.424.731h0s.142.246.142.246l.374.649c.007.012.015.022.025.032.029.029.069.043.11.038h.18c.1,0,.199.012.297.029.149.029.292.077.437.146.059.037.137.02.175-.038l.374-.644.099-.175c-.005-.003-.01-.006-.015-.009Zm-2.376,3.868c-.306-.207-.538-.505-.663-.852-.02-.053-.071-.087-.128-.085h-1.7c-.056-.002-.108.033-.128.085-.124.345-.354.642-.658.848-.059.04-.077.118-.043.18l.374.644c.024.04.067.065.114.066h2.391c.047-.001.089-.026.114-.066l.369-.639c.037-.062.018-.141-.043-.18Z" fill="#0078d4"/>
  </g>
  <g>
    <path d="m0,15.587c0,.062.033.119.086.15l1.221.708,2.075,1.2c.08.047.184.021.231-.06,0,0,0,0,0-.001h0l.7-1.215c.046-.083.019-.187-.063-.236l-2.428-1.4c-.054-.03-.087-.087-.086-.149V3.422c0-.062.032-.119.086-.149l2.428-1.409c.081-.049.109-.152.063-.235l-.698-1.215c-.047-.082-.151-.111-.233-.065h0L1.349,1.53.086,2.263C.033,2.294,0,2.351,0,2.412v13.175Z" fill="#949494"/>
    <path d="m4.314,1.629l-.698-1.215c-.035-.061-.104-.095-.174-.084-.03-.001-.06.006-.086.021L1.324,1.53.061,2.263C.036,2.278.015,2.298,0,2.323l.02.012C.007,2.359,0,2.385,0,2.412l1.739,1.01c-.001-.062.032-.119.086-.149l2.426-1.409c.081-.049.109-.152.063-.235Z" fill="#a3a3a3"/>
    <path d="m4.314,16.372l-.7,1.215c-.035.061-.104.094-.174.084-.03.001-.06-.006-.086-.021l-2.032-1.18L.061,15.738c-.025-.015-.046-.036-.061-.061l.02-.011C.007,15.642,0,15.615,0,15.588l1.739-1.009c0,.062.032.119.086.149l2.426,1.408c.082.049.109.153.063.236Z" fill="#a3a3a3"/>
    <path d="m18,2.413c0-.062-.033-.119-.086-.15l-1.221-.708-2.077-1.204c-.08-.047-.184-.021-.231.06,0,0,0,0,0,.001h0l-.7,1.215c-.046.083-.019.187.063.236l2.426,1.408c.054.03.087.087.086.149v11.158c0,.062-.032.119-.086.149l-2.426,1.409c-.081.049-.109.152-.063.235l.7,1.215c.047.082.151.111.233.065h0l2.033-1.18,1.263-.733c.054-.031.087-.088.087-.15V2.413Z" fill="#949494"/>
    <path d="m13.684,16.371l.7,1.215c.035.061.104.095.174.084.03.001.06-.006.086-.021l2.032-1.179,1.263-.733c.025-.015.046-.035.061-.06l-.02-.012c.013-.024.019-.05.02-.077l-1.739-1.01c.001.062-.032.119-.086.149l-2.426,1.409c-.082.048-.111.152-.065.235Z" fill="#a3a3a3"/>
    <path d="m13.684,1.628l.7-1.215c.035-.061.104-.094.174-.084.03-.001.06.006.086.021l2.032,1.18,1.263.732c.025.015.046.036.061.061l-.02.011c.013.024.02.051.02.078l-1.741,1.009c0-.062-.032-.119-.086-.149l-2.426-1.408c-.082-.049-.109-.153-.063-.236Z" fill="#a3a3a3"/>
  </g>
</svg>