<svg id="afbb8ff4-b7bf-4d32-8e2e-62136339b397" xmlns="http://www.w3.org/2000/svg" width="16" height="16" viewBox="0 0 16 16">
  <g>
    <path d="M6.5,11.508h-1V10.5H6.6a5,5,0,0,1,.324-1H2.5a1,1,0,0,1-1-1v-6a1,1,0,0,1,1-1h8a1,1,0,0,1,1,1v4h0a5,5,0,0,1,1,.1V2.5a2,2,0,0,0-2-2h-8a2,2,0,0,0-2,2v6a2,2,0,0,0,2,2H4.505v1.011h-1.5a.5.5,0,0,0,0,1H6.6A5,5,0,0,1,6.5,11.508Z" fill="#212121"/>
    <path d="M7.5,11.5a4,4,0,1,1,4,4A4,4,0,0,1,7.5,11.5Zm5.883-.717a.4.4,0,0,0-.566-.566L11.1,11.934l-.917-.917a.4.4,0,0,0-.566.566l1.2,1.2a.4.4,0,0,0,.566,0Z" fill="#138a00"/>
    <path d="M13.383,10.783a.4.4,0,0,0-.566-.566L11.1,11.934l-.917-.917a.4.4,0,0,0-.566.566l1.2,1.2a.4.4,0,0,0,.566,0Z" fill="#fff"/>
  </g>
</svg>
