<svg xmlns="http://www.w3.org/2000/svg" viewBox="0 0 18 18">
  <defs>
    <linearGradient id="a056d8f4-a0a2-44ea-9148-e0e62eefcf14" x1="6.492" y1="-0.975" x2="6.557" y2="14.237" gradientTransform="translate(-0.01 0.075)" gradientUnits="userSpaceOnUse">
      <stop offset="0" stop-color="#a67af4" />
      <stop offset="0.33" stop-color="#9365e5" />
      <stop offset="0.936" stop-color="#6834c2" />
    </linearGradient>
  </defs>
  <g id="a7dca7b6-29cd-40c6-845c-3ebf17d85ac0">
    <g>
      <path d="M8.541,5.04A.545.545,0,0,1,8,4.494V.814L7.175,0,.552.006A.545.545,0,0,0,.007.551V15.437a.545.545,0,0,0,.545.546H12.511a.545.545,0,0,0,.545-.546V5.846l-.811-.806Z" fill="url(#a056d8f4-a0a2-44ea-9148-e0e62eefcf14)" />
      <path d="M7.137,4.449A1.363,1.363,0,0,0,8.5,5.813h4.508L7.175,0Z" fill="#b796f9" />
      <g id="ad92143e-cdcf-4056-8002-33c9748e9ea8">
        <g>
          <path d="M14,14.12c-.492,2.164-5.659,2.116-5.874-.1a6.55,6.55,0,0,0,.2,1.894c.518.736,1.974,1.045,3.178.977.926-.053,2.1-.412,2.435-1.188A9.147,9.147,0,0,0,14,14.037.48.48,0,0,1,14,14.12Z" fill="#32bedd" />
          <path d="M13.137,12.822a1.272,1.272,0,0,1,.013,2.408,4.611,4.611,0,0,1-4.17.014,1.282,1.282,0,0,1,0-2.422A4.58,4.58,0,0,1,13.137,12.822Z" fill="#50e6ff" />
          <path d="M14,11.185c-.322,2.227-5.58,2.234-5.879-.019a11.808,11.808,0,0,0,.154,1.809,2.347,2.347,0,0,0,1.75,1.1c1.326.282,3.5.106,3.97-1.585h0Z" fill="#32bedd" />
          <ellipse cx="11.065" cy="11.176" rx="1.702" ry="2.939" transform="matrix(0.003, -1, 1, 0.003, -0.142, 22.209)" fill="#50e6ff" />
          <path d="M17.8,16.318c-1.422,1.7-5.933-.922-5.056-2.989-.331.779-1.192,1.8-.492,2.612A4.548,4.548,0,0,0,15.877,18c1.225.042,1.451-.862,1.974-1.72C17.836,16.3,17.82,16.3,17.8,16.318Z" fill="#32bedd" />
          <path d="M17.7,14.79c.672,1.147.143,2.087-1.18,2.1a4.474,4.474,0,0,1-3.614-2.057c-.672-1.148-.142-2.087,1.181-2.1A4.581,4.581,0,0,1,17.7,14.79Z" fill="#50e6ff" />
        </g>
      </g>
    </g>
  </g>
  <metadata>
    <rdf:RDF xmlns:rdf="http://www.w3.org/1999/02/22-rdf-syntax-ns#">
      <rdf:li>public:true</rdf:li>
      <rdf:li>sdk:false</rdf:li>
      <rdf:li>category:Blockchain</rdf:li>
    </rdf:RDF>
  </metadata>
</svg>