<svg xmlns="http://www.w3.org/2000/svg" viewBox="0 0 18 18">
  <defs>
    <linearGradient id="fbf65f27-3e86-4282-bce9-fd6165bfcdc8" x1="9" y1="0.712" x2="9" y2="17.856" gradientUnits="userSpaceOnUse">
      <stop offset="0" stop-color="#5ea0ef" />
      <stop offset="1" stop-color="#0078d4" />
    </linearGradient>
    <linearGradient id="bcea802c-5c88-451b-8584-3a36f67d7cb6" x1="12.333" y1="8.79" x2="12.333" y2="17.884" gradientUnits="userSpaceOnUse">
      <stop offset="0" stop-color="#a67af4" />
      <stop offset="1" stop-color="#773adc" />
    </linearGradient>
    <linearGradient id="bba5f177-2e0f-42aa-b6be-626efd99e750" x1="3.401" y1="1.928" x2="3.401" y2="8.97" gradientUnits="userSpaceOnUse">
      <stop offset="0" stop-color="#a67af4" />
      <stop offset="1" stop-color="#773adc" />
    </linearGradient>
  </defs>
  <g id="af706749-da0b-4e4d-b024-4f10e4f59d60">
    <g>
      <path d="M17.539,4.29a.152.152,0,0,0-.034-.033L13.949.718a.166.166,0,0,0-.3.133V2.845l0,.188a.325.325,0,0,1-.325.321H12.265A4.933,4.933,0,0,0,8.481,5.239l-5.87,7.153A2.933,2.933,0,0,1,.773,13.5a.392.392,0,0,0-.345.384v1.288a.4.4,0,0,0,.45.4,5.006,5.006,0,0,0,3.334-1.861l5.869-7.154a2.84,2.84,0,0,1,2.184-1.127h1.029a.325.325,0,0,1,.325.328V7.845a.166.166,0,0,0,.3.133l3.588-3.456A.165.165,0,0,0,17.539,4.29Z" fill="url(#fbf65f27-3e86-4282-bce9-fd6165bfcdc8)" />
      <g>
        <path d="M13.917,10.022a.166.166,0,0,0-.3.133v2.092a.324.324,0,0,1-.325.328H12.265a2.837,2.837,0,0,1-2.183-1.127L8.433,9.439,7.094,11.071l1.387,1.69a4.933,4.933,0,0,0,3.784,1.885h1.058a.325.325,0,0,1,.325.321l0,.188v1.994a.166.166,0,0,0,.3.133l3.556-3.539a.152.152,0,0,0,.034-.033.165.165,0,0,0-.034-.232Z" fill="url(#bcea802c-5c88-451b-8584-3a36f67d7cb6)" />
        <path d="M.773,4.505a2.933,2.933,0,0,1,1.838,1.1L5.035,8.561,6.374,6.929,4.212,4.3A5,5,0,0,0,.878,2.433a.4.4,0,0,0-.45.4V4.121A.392.392,0,0,0,.773,4.505Z" fill="url(#bba5f177-2e0f-42aa-b6be-626efd99e750)" />
      </g>
    </g>
  </g>
</svg>