<svg xmlns="http://www.w3.org/2000/svg" width="18" height="18" viewBox="0 0 18 18">
  <defs>
    <linearGradient id="aeaa23e9-8c45-4ae3-81ae-fa8a84a36e33" x1="9" y1="17.881" x2="9" y2="0.478" gradientUnits="userSpaceOnUse">
      <stop offset="0" stop-color="#0078d4"/>
      <stop offset="1" stop-color="#5ea0ef"/>
    </linearGradient>
  </defs>
  <g id="f8ac415a-09ea-4aff-b77e-73ad526b8ff7">
    <path d="M11.65.158l-.8,2.931,3.087.789S15.4,1.452,14.981.7C14.732.26,11.65.158,11.65.158Z" fill="#9cebff"/>
    <path id="fae3e3fb-f026-4446-96d8-d3b24aa6e8b5" d="M14.332,16.056A8.7,8.7,0,0,1,3.668,2.3l.088-.067A8.7,8.7,0,0,1,14.332,16.056" fill="url(#aeaa23e9-8c45-4ae3-81ae-fa8a84a36e33)"/>
    <path d="M17.82,9.18a8.757,8.757,0,0,0-.833-3.719l-.082-.17A8.829,8.829,0,0,0,10.194.45,2.007,2.007,0,0,0,9.782.4C9.524.376,9.264.36,9,.36a8.915,8.915,0,0,0-.9.045A2.31,2.31,0,0,0,7.62.479,8.832,8.832,0,0,0,1.1,5.291H1.087v.017A8.792,8.792,0,0,0,7.9,17.923a.2.2,0,0,0,.066.01,8.355,8.355,0,0,0,1.969.017l0,0,.013-.008A8.831,8.831,0,0,0,17.82,9.18ZM9.687,17.116c-.075.007-.151.007-.226.012V12.851h3.22A8.569,8.569,0,0,1,9.687,17.116ZM5.2,12.851h3.41v4.28c-.142-.007-.287-.007-.427-.021A8.6,8.6,0,0,1,5.2,12.851ZM4.458,9.18a12.927,12.927,0,0,1,.358-3.04h3.8V12H4.918A10.042,10.042,0,0,1,4.458,9.18ZM7.845,1.3c.252-.037.508-.061.767-.074V5.291H5.051C5.757,3.1,6.951,1.67,7.845,1.3Zm4.987,3.989H9.461V1.232c.174.01.347.022.518.043C10.878,1.6,12.111,3.055,12.832,5.291ZM9.461,12V6.14h3.606a12.927,12.927,0,0,1,.358,3.04A10.078,10.078,0,0,1,12.965,12ZM13.929,6.14h2.437A7.888,7.888,0,0,1,16.445,12H13.859a10.782,10.782,0,0,0,.415-2.822A13.739,13.739,0,0,0,13.929,6.14Zm2.023-.849H13.708A10.131,10.131,0,0,0,11.93,1.774,8.019,8.019,0,0,1,15.952,5.291ZM5.9,1.836A10.218,10.218,0,0,0,4.175,5.291H2.048A8.017,8.017,0,0,1,5.9,1.836ZM1.634,6.14H3.953a13.8,13.8,0,0,0-.344,3.04A10.782,10.782,0,0,0,4.024,12H1.555A7.888,7.888,0,0,1,1.634,6.14Zm.3,6.711H4.289a11.946,11.946,0,0,0,2.162,3.875A8.007,8.007,0,0,1,1.932,12.851Zm9.441,3.939a11.856,11.856,0,0,0,2.221-3.939h2.474A8.008,8.008,0,0,1,11.373,16.79Z" fill="#8bc1fd"/>
    <path d="M9.424,7.463c1.094-2.584,4.726-5.932,5.5-6.623A.142.142,0,0,0,14.9.612a5.945,5.945,0,0,0-3.2-.575.134.134,0,0,0-.078.042c-.366.391-3.783,4.077-4.8,6.5L6.8,6.626l-.017.022-.326.781a.2.2,0,0,1-.259.106l-.131-.054L4.409,6.788a.338.338,0,0,0-.443.44l1.9,4.631a.338.338,0,0,0,.441.185l4.632-1.9a.339.339,0,0,0,0-.625L9.284,8.824l-.132-.055a.2.2,0,0,1-.106-.258C9.177,8.2,9.273,7.821,9.424,7.463Z" fill="#c8f3ff"/>
  </g>
  <metadata>
   <rdf:RDF xmlns:rdf="http://www.w3.org/1999/02/22-rdf-syntax-ns#">
      <rdf:li>public:true</rdf:li>
      <rdf:li>sdk:false</rdf:li>
      <rdf:li>category:Management + Governance</rdf:li>
   </rdf:RDF>
</metadata>
</svg>
