<svg id="uuid-3f999450-dd2e-4ba8-b5b2-fc4f4ba00c4d" xmlns="http://www.w3.org/2000/svg" width="18" height="18" viewBox="0 0 18 18">
  <defs>
    <linearGradient id="uuid-1fbaf2c6-cb4c-4470-820a-874fd801badc" x1="7.715" y1="16.374" x2="7.715" y2="2.029" gradientUnits="userSpaceOnUse">
      <stop offset="0" stop-color="#a67af4"/>
      <stop offset=".999" stop-color="#b796f9"/>
    </linearGradient>
    <linearGradient id="uuid-f94e5393-34ae-4bf4-8bf6-d6c04e95665c" x1="13.223" y1="14.552" x2="13.223" y2="2.029" gradientUnits="userSpaceOnUse">
      <stop offset=".001" stop-color="#773adc"/>
      <stop offset="1" stop-color="#a67af4"/>
    </linearGradient>
  </defs>
  <path d="m5.457,1.729l-.342.476v-.025s-.399-.021-.399-.021c-2.109-.11-3.908,1.511-4.018,3.62l-.144,2.765-.508.706c-.117.163,0,.39.2.39h.876c2.64,0,4.78-2.14,4.78-4.78V1.873c0-.239-.306-.338-.446-.144Z" fill="#773adc" stroke-width="0"/>
  <path d="m14.864,9.195c-1.634-.76-2.767-2.415-2.767-4.336v-2.83l-3.097,1.161-3.097-1.161v2.83c0,1.921-1.133,3.576-2.767,4.336l-.013.029,1.417,3.827v2.05c.631.395,2.233,1.28,4.46,1.272,2.19-.008,3.765-.876,4.397-1.272v-1.881l1.48-3.996-.013-.029ZM4.971,4.97l.145-2.79-.4-.021c-2.109-.11-3.908,1.511-4.018,3.62l-.145,2.79.4.021c2.109.11,3.908-1.511,4.018-3.62Z" fill="url(#uuid-1fbaf2c6-cb4c-4470-820a-874fd801badc)" stroke-width="0"/>
  <path d="m8.984,14.552c2.351.005,3.959-1.13,4.444-1.501v2.05c-.631.395-2.233,1.28-4.46,1.272l.032-1.822" fill="#552f99" stroke-width="0"/>
  <path d="m9,14.552c-2.351.005-4.008-1.13-4.492-1.5v2.05c.631.395,2.233,1.28,4.46,1.272l.032-1.822Z" fill="#773adc" stroke-width="0"/>
  <path d="m12.543,1.729l.342.476v-.025s.399-.021.399-.021c2.109-.11,3.908,1.511,4.018,3.62l.144,2.765.508.706c.117.163,0,.39-.2.39h-.876c-2.64,0-4.78-2.14-4.78-4.78V1.873c0-.239.306-.338.446-.144Z" fill="#552f99" stroke-width="0"/>
  <path d="m17.302,5.779c-.11-2.109-1.909-3.73-4.018-3.62l-.4.021.145,2.79c.11,2.109,1.909,3.73,4.018,3.62l.4-.021-.145-2.79Zm-5.204-.919v-2.83l-3.097,1.161v11.361c2.323-.01,3.912-1.129,4.397-1.5v.169l1.48-3.996-.013-.029c-1.634-.76-2.767-2.415-2.767-4.336Z" fill="url(#uuid-f94e5393-34ae-4bf4-8bf6-d6c04e95665c)" stroke-width="0"/>
  <polygon points="9 5.249 9 5.826 12.097 4.665 12.097 4.088 9 5.249" fill="#552f99" stroke-width="0"/>
  <polygon points="9 5.249 9 5.826 5.903 4.665 5.903 4.088 9 5.249" fill="#773adc" stroke-width="0"/>
</svg>