<svg xmlns="http://www.w3.org/2000/svg" width="18" height="18" viewBox="0 0 18 18">
  <defs>
    <linearGradient id="abf074ce-7dc4-4579-80ae-0f7ccd350137" x1="6.82" y1="0.829" x2="6.82" y2="16.537" gradientUnits="userSpaceOnUse">
      <stop offset="0" stop-color="#5ea0ef"/>
      <stop offset="1" stop-color="#0078d4"/>
    </linearGradient>
  </defs>
  <g id="a5dbb8e5-3e20-49fb-9901-6194dd3aaa0e">
    <g>
      <g>
        <g id="bc366dbf-d60f-488e-8d99-0e0339c27bcb">
          <g>
            <path d="M13.641,6.48V16.788a.566.566,0,0,1-.567.566H.567A.566.566,0,0,1,0,16.788V1.214A.567.567,0,0,1,.567.646H7.782l.008,0a.569.569,0,0,1,.366.134V5.051a.968.968,0,0,0,.961.974h4.294A.564.564,0,0,1,13.641,6.48Z" fill="url(#abf074ce-7dc4-4579-80ae-0f7ccd350137)"/>
            <path d="M13.425,6.025H9.117a.968.968,0,0,1-.961-.974V.77Z" fill="#0078d4"/>
          </g>
        </g>
        <g>
          <g id="fb71ad17-afa5-4145-8795-e47f5136a5d4">
            <path d="M11.113,10.185l-.1-.1a.179.179,0,0,0-.252,0L9.748,11.089l-.414-.415a.179.179,0,0,0-.252,0l-.105.105a.179.179,0,0,0,0,.252l.645.646a.177.177,0,0,0,.252,0l1.239-1.24a.177.177,0,0,0,0-.251Z" fill="#c3f1ff"/>
            <rect x="2.671" y="10.496" width="5.233" height="0.865" rx="0.432" fill="#c3f1ff"/>
          </g>
          <g id="e1cca64a-99e7-437e-9e16-b2626063aa39">
            <rect x="2.671" y="13.51" width="5.233" height="0.865" rx="0.432" fill="#c3f1ff"/>
          </g>
          <g id="a809c05c-5c39-4033-891d-05db67c82141">
            <path d="M11.113,7.122l-.1-.1a.177.177,0,0,0-.252,0L9.748,8.026l-.414-.415a.179.179,0,0,0-.252,0l-.105.105a.179.179,0,0,0,0,.252l.645.646a.177.177,0,0,0,.252,0l1.239-1.24a.177.177,0,0,0,0-.251Z" fill="#c3f1ff"/>
            <rect x="2.671" y="7.433" width="5.233" height="0.865" rx="0.432" fill="#c3f1ff"/>
          </g>
        </g>
      </g>
      <g>
        <polygon points="14.804 8.477 10.171 13.109 10.356 13.416 10.928 14.346 15.8 9.473 14.804 8.477" fill="#86d633"/>
        <path d="M16.094,9.179l1.05-1.051-.76-.758a.331.331,0,0,0-.468,0l-.818.817Z" fill="#86d633"/>
      </g>
      <polygon points="16.796 10.468 12.162 15.1 11.857 14.915 10.926 14.345 15.8 9.471 16.796 10.468" fill="#76bc2d"/>
      <path d="M16.092,9.179l1.052-1.052.759.76a.333.333,0,0,1,0,.469l-.817.817Z" fill="#76bc2d"/>
      <path d="M12.162,15.105,9.619,16a.332.332,0,0,1-.338-.325v-.01l.89-2.545.76,1.232Z" fill="#f2f2f2"/>
    </g>
  </g>
</svg>
