<svg id="uuid-f026ff10-8ece-4779-9d95-780810d38451" xmlns="http://www.w3.org/2000/svg" width="18" height="18" viewBox="0 0 18 18">
  <defs>
    <linearGradient id="uuid-5eefa70e-6713-4226-be6b-7caa5fe225a8" x1="-313.459" y1="646.276" x2="-313.459" y2="656.756" gradientTransform="translate(324 660.516) scale(1 -1)" gradientUnits="userSpaceOnUse">
      <stop offset="0" stop-color="#0078d4"/>
      <stop offset=".156" stop-color="#1380da"/>
      <stop offset=".528" stop-color="#3c91e5"/>
      <stop offset=".822" stop-color="#559cec"/>
      <stop offset="1" stop-color="#5ea0ef"/>
    </linearGradient>
  </defs>
  <path d="M18,10.948c-.024-.787-.331-1.541-.865-2.125-.534-.584-1.26-.961-2.049-1.064-.048-1.098-.531-2.133-1.344-2.881-.813-.748-1.891-1.149-3-1.116-.898-.017-1.78,.243-2.522,.744-.742,.501-1.308,1.219-1.62,2.054-.95,.11-1.829,.555-2.475,1.254-.646,.699-1.017,1.605-1.044,2.552,.019,.527,.143,1.046,.365,1.525,.222,.48,.537,.912,.927,1.271,.39,.359,.848,.638,1.348,.822,.5,.184,1.031,.268,1.563,.248h7.169c.058,.009,.117,.009,.175,0,.883-.006,1.728-.353,2.357-.966,.629-.613,.992-1.445,1.013-2.318Z" fill="url(#uuid-5eefa70e-6713-4226-be6b-7caa5fe225a8)"/>
  <g>
    <path d="M1.048,11.526H9.82c.395,.837,1.245,1.418,2.23,1.418,1.36,0,2.467-1.107,2.467-2.467s-1.107-2.467-2.467-2.467c-.985,0-1.834,.582-2.23,1.418H1.048c-.579,0-1.048,.469-1.048,1.048s.469,1.048,1.048,1.048Z" fill="#50e6ff"/>
    <circle cx="12.049" cy="10.478" r="1.746" fill="#fff"/>
  </g>
</svg>