<svg id="uuid-1a6561ff-676d-43da-803d-e837bcd66427" xmlns="http://www.w3.org/2000/svg" width="18" height="18" viewBox="0 0 18 18">
  <defs>
    <linearGradient id="uuid-b56229d4-d9ad-4da8-ac39-38b4ddd6ebcb" x1="4.919" y1="8.584" x2="4.919" y2=".48" gradientUnits="userSpaceOnUse">
      <stop offset="0" stop-color="#32bedd"/>
      <stop offset="1" stop-color="#50e6ff"/>
    </linearGradient>
    <linearGradient id="uuid-8faf15b9-1c5d-4236-af58-1f78f17d00e4" x1="4.497" y1="12.594" x2="13.503" y2="12.594" gradientUnits="userSpaceOnUse">
      <stop offset="0" stop-color="#c74634"/>
      <stop offset=".5" stop-color="#db897d"/>
      <stop offset="1" stop-color="#c74634"/>
    </linearGradient>
  </defs>
  <g>
    <path d="m9,7.664c.277,0,.808.018.808.018,0,0-.354-.582-.471-1.193l-.518-.518c-.324-.324-.324-.85,0-1.174l.006-.006c.157-.157.365-.243.587-.243.017,0,.035.002.052.003.094-.283.221-.551.375-.803-.2-.082-.413-.141-.636-.17-.076-1.77-1.562-3.15-3.334-3.095-1.41-.025-2.682.842-3.173,2.164C1.19,2.827.045,4.082,0,5.597c.067,1.712,1.507,3.047,3.22,2.985.096,0,.193-.004.283-.012h1.081c.401-.569,2.223-.906,4.417-.906Z" fill="url(#uuid-b56229d4-d9ad-4da8-ac39-38b4ddd6ebcb)"/>
    <path d="m10.78,6.704l1.053-1.053c.148-.148.148-.389,0-.537l-.006-.006c-.148-.148-.389-.148-.537,0l-.408.408c.134-1.412,1.328-2.514,2.769-2.514,1.177,0,1.799.555,2.212,1.093.142.185.411.21.576.045l.003-.003c.133-.133.152-.345.038-.494-.656-.86-1.691-1.405-2.829-1.405-1.875-.008-3.417,1.453-3.542,3.299l-.429-.429c-.148-.148-.389-.148-.537,0l-.006.006c-.148.148-.148.389,0,.537l1.053,1.053c.163.163.427.163.59,0Zm2.126-2.473l-.954,2.621c-.097.267.101.549.385.549.179,0,.336-.116.39-.286l.165-.52h1.289l.166.518c.055.172.214.288.395.288.286,0,.486-.283.39-.553l-.929-2.613c-.098-.274-.357-.458-.649-.458-.289,0-.548.181-.647.453Zm1.087,1.738h-.927l.394-1.228c.034-.104.055-.21.063-.316h.02c.012.126.032.235.061.326l.389,1.218Zm3.896-.059l-1.051-1.051c-.163-.163-.427-.163-.59,0l-1.053,1.053c-.148.148-.148.389,0,.537l.006.006c.148.148.389.148.537,0l.408-.408c-.134,1.412-1.328,2.514-2.769,2.514-.888,0-1.697-.422-2.212-1.093-.142-.185-.411-.21-.576-.045l-.003.003c-.133.133-.152.345-.038.494.656.86,1.691,1.405,2.829,1.405,1.875,0,3.417-1.462,3.542-3.308l.431.431c.148.148.387.148.535.002l.002-.002c.15-.148.151-.39.002-.539Z" fill="#0078d4"/>
    <path d="m9,12.327c-2.487,0-4.503-.437-4.503-.976v2.394c0,.539,2.016.976,4.503.976s4.503-.437,4.503-.976v-2.394c0,.539-2.016.976-4.503.976Zm3.789.542c-.341.118-.693.21-1.047.275-.423.077-.855.117-1.285.117h0c-.104,0-.188-.084-.188-.188,0-.104.084-.188.188-.188.407,0,.817-.038,1.217-.111.336-.062.669-.149.992-.261.098-.034.205.018.239.116.034.098-.018.205-.116.239Zm-3.789,2.381c-2.487,0-4.503-.437-4.503-.976v2.273c0,.539,2.016.976,4.503.976s4.503-.437,4.503-.976v-2.273c0,.539-2.016.976-4.503.976Zm3.789.463c-.34.118-.693.21-1.047.275-.422.077-.855.117-1.285.117h0c-.104,0-.188-.084-.188-.188,0-.104.084-.188.188-.188.407,0,.817-.038,1.217-.111.336-.062.669-.149.992-.261.098-.034.205.018.239.116.034.098-.018.205-.116.239Zm.714-5.86c-.23,0-.451-.033-.67-.068.03.022.06.044.073.082.034.098-.018.205-.116.239-.341.118-.693.211-1.047.275-.422.077-.855.117-1.285.117h0c-.104,0-.188-.084-.188-.187,0-.104.084-.188.188-.188.407,0,.817-.038,1.217-.111.322-.059.642-.145.954-.251-.439-.092-.843-.265-1.221-.48-.675.094-1.502.16-2.407.16-2.24,0-4.056-.408-4.056-.65,0-.297,1.816-.755,4.056-.755.366,0,.714.016,1.051.039-.091-.125-.166-.259-.243-.394-.263-.011-.531-.018-.808-.018-2.487,0-4.503.432-4.503,1.147v2.011c0,.539,2.016.976,4.503.976s4.503-.437,4.503-.976v-.968s0,0,0,0Z" fill="url(#uuid-8faf15b9-1c5d-4236-af58-1f78f17d00e4)"/>
  </g>
  <rect y="0" width="18" height="18" fill="none"/>
</svg>