<svg xmlns="http://www.w3.org/2000/svg" width="18" height="18" viewBox="0 0 18 18">
  <defs>
    <linearGradient id="fe0f6312-1be6-47ad-816d-5c59ed12bceb" x1="7.456" y1="11.353" x2="7.456" y2="2.592" gradientUnits="userSpaceOnUse">
      <stop offset="0" stop-color="#0078d4"/>
      <stop offset="0.776" stop-color="#5ea0ef"/>
    </linearGradient>
  </defs>
  <g id="f3f80100-3e5d-444b-8f32-3b5a27f86637">
    <g>
      <path d="M10.8,15.432C9.066,15.2,9.1,14.086,9.1,12.282H5.86c.008,1.8.037,2.918-1.7,3.15a.883.883,0,0,0-.815.793h8.268A.888.888,0,0,0,10.8,15.432Z" fill="#1f56a3"/>
      <path d="M11.125,8.635h3.72V2.28a.5.5,0,0,0-.505-.5H.439a.5.5,0,0,0-.5.5v9.549a.5.5,0,0,0,.505.5H10.93Z" fill="#1490df"/>
      <rect x="0.87" y="2.592" width="13.173" height="8.761" rx="0.253" fill="url(#fe0f6312-1be6-47ad-816d-5c59ed12bceb)"/>
    </g>
    <rect x="14.792" y="9.725" width="1.45" height="6.367" rx="0.678" transform="translate(-4.583 14.753) rotate(-45)" fill="#32bedd"/>
    <circle cx="10.836" cy="8.227" r="4.109" fill="#fff"/>
    <path d="M14.685,6.788H13.047a.233.233,0,0,0-.2.123L11.821,8.745l-1.681-3.4L8.592,10.218,7.184,6.754l-.4.759a4.075,4.075,0,0,0,.1,1.872l.188-.363.862,2.123a4.125,4.125,0,0,0,1.1.779l1.293-4.049L11.773,10.8,13.38,7.916a.233.233,0,0,1,.2-.123h1.337A4.085,4.085,0,0,0,14.685,6.788Z" fill="#50e6ff"/>
    <path d="M7.272,6.228l-.437-.883L5.642,9.112,4.55,6.43,3.242,8.948a.179.179,0,0,1-.16.1H.859s-.015.772,0,.772H3.512a.181.181,0,0,0,.161-.1l.794-1.53,1.251,3.079,1.03-3.252A4.06,4.06,0,0,1,7.272,6.228Z" fill="#fff"/>
    <path d="M10.836,4.837A3.387,3.387,0,1,1,7.45,8.227a3.385,3.385,0,0,1,3.386-3.39m0-.722a4.109,4.109,0,1,0,4.109,4.108h0A4.109,4.109,0,0,0,10.836,4.115Z" fill="#c3f1ff"/>
  </g>
  <metadata>
   <rdf:RDF xmlns:rdf="http://www.w3.org/1999/02/22-rdf-syntax-ns#">
      <rdf:li>public:true</rdf:li>
      <rdf:li>sdk:false</rdf:li>
      <rdf:li>category:Other</rdf:li>
   </rdf:RDF>
</metadata>
</svg>
