<svg id="uuid-649c65f2-067b-4ecd-a1bf-8ac8257bd5bd" xmlns="http://www.w3.org/2000/svg" width="18" height="18" viewBox="0 0 18 18"><defs><linearGradient id="uuid-1b4b077b-51c8-406f-ab15-d909443ea067" x1="9.142" y1="13.089" x2="9.142" y2="4.896" gradientTransform="matrix(1, 0, 0, 1, 0, 0)" gradientUnits="userSpaceOnUse"><stop offset="0" stop-color="#32bedd" /><stop offset="1" stop-color="#50e6ff" /></linearGradient></defs><path d="M9.679,8.271c-.072,0-.145-.019-.211-.057-.202-.117-.271-.375-.154-.577L13.123,1.062c.117-.202,.376-.27,.577-.154,.202,.117,.271,.375,.154,.577l-3.809,6.575c-.078,.135-.22,.211-.366,.211Z" fill="#83b9f9" /><path d="M8.652,9.274c-.108,0-.217-.042-.299-.124L3.746,4.517c-.165-.166-.164-.433,.001-.597,.165-.166,.432-.163,.597,.001l4.607,4.633c.165,.166,.164,.433-.001,.597-.083,.082-.19,.123-.298,.123Z" fill="#83b9f9" /><path d="M16.707,10.241c-.02,0-.04-.001-.06-.004l-6.58-.937c-.23-.033-.391-.247-.358-.478,.034-.23,.248-.387,.478-.358l6.58,.937c.23,.033,.391,.247,.358,.478-.03,.21-.21,.363-.417,.363Z" fill="#83b9f9" /><path d="M10.828,17.193c-.195,0-.371-.137-.413-.335l-1.149-5.453c-.048-.228,.098-.452,.326-.5,.226-.053,.452,.098,.5,.326l1.149,5.453c.048,.228-.098,.452-.326,.5-.029,.006-.059,.009-.087,.009Z" fill="#83b9f9" /><path d="M1.293,11.972c-.176,0-.34-.111-.4-.288-.075-.221,.044-.46,.265-.535l6.327-2.133c.221-.076,.46,.045,.535,.265,.075,.221-.044,.46-.265,.535L1.428,11.95c-.044,.015-.09,.022-.135,.022Z" fill="#83b9f9" /><path d="M18,9.788c0,.715-.579,1.294-1.293,1.294s-1.293-.579-1.293-1.294,.579-1.294,1.293-1.294h.003c.713,.002,1.29,.58,1.29,1.294Z" fill="#a67af4" /><path d="M12.122,16.706c0,.715-.579,1.294-1.293,1.294s-1.293-.579-1.293-1.294,.579-1.294,1.293-1.294h.003c.713,.002,1.29,.58,1.29,1.294Z" fill="#a67af4" /><g><circle cx="9.142" cy="8.992" r="4.093" fill="url(#uuid-1b4b077b-51c8-406f-ab15-d909443ea067)" /><g><path d="M8.722,10.365l-.376,.376c-.064,.064-.168,.064-.232,0h0l-1.494-1.495c-.064-.064-.064-.168,0-.232h0l.26-.26c.064-.064,.168-.064,.232,0h0l1.61,1.611h0Z" fill="#fff" /><path d="M8.122,10.745l-.376-.376h0l3.436-3.438c.064-.064,.168-.064,.232,0h0l.26,.26c.064,.064,.064,.168,0,.232h0l-3.32,3.322c-.064,.064-.168,.064-.232,0h0Z" fill="#f0f0f0" /></g></g><path d="M5.421,4.219c0,.715-.579,1.294-1.293,1.294s-1.293-.579-1.293-1.294,.579-1.294,1.293-1.294h.003c.713,.002,1.29,.58,1.29,1.294Z" fill="#a67af4" /><path d="M14.803,1.294c0,.715-.579,1.294-1.293,1.294s-1.293-.579-1.293-1.294S12.795,0,13.51,0h.003c.713,.002,1.29,.58,1.29,1.294Z" fill="#a67af4" /><path d="M2.587,11.592c0,.715-.579,1.294-1.293,1.294S0,12.306,0,11.592s.579-1.294,1.293-1.294h.003c.713,.002,1.29,.58,1.29,1.294Z" fill="#a67af4" /></svg>