<svg xmlns="http://www.w3.org/2000/svg" width="18" height="18" viewBox="0 0 18 18">
  <defs>
    <linearGradient id="e33b7c33-f642-455b-8333-718aea8e4eb5" x1="0.102" y1="8.542" x2="11.438" y2="8.542" gradientUnits="userSpaceOnUse">
      <stop offset="0" stop-color="#005ba1"/>
      <stop offset="0.36" stop-color="#0071c8"/>
      <stop offset="0.52" stop-color="#0078d4"/>
      <stop offset="0.64" stop-color="#0074cd"/>
      <stop offset="0.82" stop-color="#006abb"/>
      <stop offset="1" stop-color="#005ba1"/>
    </linearGradient>
    <radialGradient id="ae414b3b-9608-493d-ab01-33bc0012339a" cx="38.618" cy="-16.726" r="4.616" gradientTransform="translate(-22.371 29.278) scale(0.931 0.931)" gradientUnits="userSpaceOnUse">
      <stop offset="0" stop-color="#5ea0ef"/>
      <stop offset="1" stop-color="#0078d4"/>
    </radialGradient>
    <linearGradient id="f58ac796-cb23-4315-8488-7649a443b17c" x1="11.252" y1="616.545" x2="11.236" y2="618.547" gradientTransform="matrix(1, 0, 0, -1, 0, 631.516)" gradientUnits="userSpaceOnUse">
      <stop offset="0" stop-color="#ccc"/>
      <stop offset="1" stop-color="#fcfcfc"/>
    </linearGradient>
  </defs>
  <path d="M8.445,13.643a5.138,5.138,0,0,1,2.993-4.666V2.051C11.438,3.192,8.9,4.1,5.77,4.1S.1,3.219.1,2.051v10.93C.1,14.1,2.6,15.014,5.69,15.032h.08a14.332,14.332,0,0,0,2.8-.262A5.163,5.163,0,0,1,8.445,13.643Z" fill="url(#e33b7c33-f642-455b-8333-718aea8e4eb5)"/>
  <path d="M11.438,2.051C11.438,3.192,8.9,4.1,5.77,4.1S.1,3.219.1,2.051,2.64,0,5.77,0s5.668.884,5.668,2.051" fill="#e8e8e8"/>
  <path d="M10.12,1.883c0,.725-1.954,1.309-4.35,1.309S1.42,2.608,1.42,1.883,3.374.584,5.77.584s4.35.583,4.35,1.3" fill="#50e6ff"/>
  <path d="M5.77,2.211a10.2,10.2,0,0,0-3.44.5,10.11,10.11,0,0,0,3.44.477,9.852,9.852,0,0,0,3.44-.513A10.467,10.467,0,0,0,5.77,2.211Z" fill="#198ab3"/>
  <path d="M8.856,10.142h-2.1v.884H9.1a.54.54,0,0,0,.07-.013,5.186,5.186,0,0,1,1.017-1.224V7.516h-1.2V8.957H8.1a.341.341,0,0,1-.256-.124V7.516H6.654V9.09a.814.814,0,0,0,.837.79l.047,0H8.856l.23-.115S8.989,10.124,8.856,10.142Z" fill="#f2f2f2"/>
  <path d="M6.239,7.516h0V7.083A.619.619,0,0,0,5.814,6.4a1.542,1.542,0,0,0-.442-.071.833.833,0,0,0-.8.513l-.689,1.68-.884-1.68a.824.824,0,0,0-.761-.513,1.262,1.262,0,0,0-.451.08c-.309.1-.38.3-.38.645V9.983H2.436V8.011L2.994,9.4a.952.952,0,0,0,.884.584c.389,0,.548-.23.707-.584l.593-1.335v1.9H6.221V7.516h.018Z" fill="#f2f2f2"/>
  <path d="M16.247,17.1a4.3,4.3,0,0,1-5.31-6.775l.051-.051A4.309,4.309,0,0,1,16.247,17.1" fill="url(#ae414b3b-9608-493d-ab01-33bc0012339a)"/>
  <path d="M10.28,14.568a12.873,12.873,0,0,0-.4,1.315l.3.455.3.3a7.285,7.285,0,0,1,.556-1.77A1.277,1.277,0,0,1,10.28,14.568Z" fill="#83b9f9"/>
  <path d="M10.786,12.242a6.846,6.846,0,0,1-.354-1.466,3.765,3.765,0,0,0-.556.708,5.336,5.336,0,0,0,.3,1.213A1.383,1.383,0,0,1,10.786,12.242Z" fill="#83b9f9"/>
  <circle cx="11.241" cy="13.557" r="1.365" fill="url(#f58ac796-cb23-4315-8488-7649a443b17c)"/>
  <path d="M13.263,16.085a1.071,1.071,0,0,1,.253-.657,4.672,4.672,0,0,1-1.264-.961,1.391,1.391,0,0,1-.758.4,9.563,9.563,0,0,0,.758.708,4.123,4.123,0,0,0,1.011.607Z" fill="#83b9f9"/>
  <path d="M16.449,16.186a6.673,6.673,0,0,1-1.416-.152v.051a.837.837,0,0,1-.253.607,6.562,6.562,0,0,0,1.719.1c.2-.2.405-.455.607-.657A2.733,2.733,0,0,1,16.449,16.186Z" fill="#83b9f9"/>
  <path d="M13.921,11.736a6.814,6.814,0,0,1,2.983-.707,3.359,3.359,0,0,0-.759-.708,7.724,7.724,0,0,0-2.376.556,4.592,4.592,0,0,0-.506.253,9.462,9.462,0,0,1-1.011-1.467.97.97,0,0,0-.455.152,10.654,10.654,0,0,0,1.062,1.567,5,5,0,0,0-1.113.86,1.444,1.444,0,0,1,.658.556,4.512,4.512,0,0,1,.96-.758,11.314,11.314,0,0,0,1.871,1.618,1.049,1.049,0,0,1,.3-.506A13.962,13.962,0,0,1,13.921,11.736Z" fill="#83b9f9"/>
  <circle cx="16.196" cy="13.86" r="0.961" fill="#fff"/>
  <path d="M17.817,14.531a.632.632,0,0,0-.131-.091h0c-.061-.038-.2-.1-.2-.1l-.2-.1-.164-.1a1.051,1.051,0,0,1-.3.457c.07.036.107.051.208.1,0,0,.133.065.2.1h0a5.044,5.044,0,0,0,.453.247A3.832,3.832,0,0,0,17.817,14.531Z" fill="#83b9f9"/>
  <circle cx="11.241" cy="13.557" r="1.365" fill="#fff"/>
  <circle cx="14.173" cy="16.085" r="0.91" fill="#fff"/>
</svg>
