<svg id="ba8a7b52-2540-4c05-82d5-1bc69fb8406b" xmlns="http://www.w3.org/2000/svg" viewBox="0 0 18 18">
  <defs>
    <linearGradient id="a8e872b4-8bc4-4b8e-9a11-1f9fc03edbee" x1="7.285" y1="19.843" x2="7.285" y2="5.593" gradientTransform="matrix(1, 0, 0, -1, 0, 20)" gradientUnits="userSpaceOnUse">
      <stop offset="0" stop-color="#50e6ff" />
      <stop offset="0.5" stop-color="#32bedd" />
    </linearGradient>
    <linearGradient id="b78ff8cd-22bc-4865-8e6c-26db5c703fb6" x1="12.529" y1="1.975" x2="12.529" y2="11.956" gradientTransform="matrix(1, 0, 0, -1, 0, 20)" gradientUnits="userSpaceOnUse">
      <stop offset="0" stop-color="#0060aa" />
      <stop offset="1" stop-color="#599eee" />
    </linearGradient>
  </defs>
  <g>
    <path d="M7.285.157A6.768,6.768,0,0,1,9.156.424a5.735,5.735,0,0,1,1.692.713,9.3,9.3,0,0,1,1.514,1.069A9.188,9.188,0,0,1,13.43,3.72a5.7,5.7,0,0,1,.713,1.692,6.686,6.686,0,0,1,0,3.741,5.708,5.708,0,0,1-.713,1.692,9.231,9.231,0,0,1-1.068,1.514,9.3,9.3,0,0,1-1.514,1.069,5.706,5.706,0,0,1-1.692.712,6.686,6.686,0,0,1-3.741,0,5.7,5.7,0,0,1-1.692-.712,9.254,9.254,0,0,1-1.514-1.069A9.3,9.3,0,0,1,1.14,10.845,5.708,5.708,0,0,1,.427,9.153a6.686,6.686,0,0,1,0-3.741A5.7,5.7,0,0,1,1.14,3.72,9.254,9.254,0,0,1,2.209,2.206,9.254,9.254,0,0,1,3.723,1.137,5.723,5.723,0,0,1,5.415.424,6.761,6.761,0,0,1,7.285.157ZM1.051,7.282a5.7,5.7,0,0,0,.267,1.782H3.812a3.072,3.072,0,0,0-.089-.891V6.392A3.072,3.072,0,0,0,3.812,5.5H1.318A5.694,5.694,0,0,0,1.051,7.282ZM5.237,1.4a3.03,3.03,0,0,0-1.069.535L3.1,2.651l-.8.891A6.711,6.711,0,0,0,1.674,4.61H3.99a2.565,2.565,0,0,1,.178-.8l.267-.891.356-.8A5.1,5.1,0,0,1,5.237,1.4ZM1.674,9.954A6.676,6.676,0,0,0,2.3,11.023l.8.891,1.069.712a3.028,3.028,0,0,0,1.069.534,5.088,5.088,0,0,1-.446-.712l-.356-.8-.267-.89a2.571,2.571,0,0,1-.178-.8Zm8.194-.89a3,3,0,0,1,.089-.891V6.392A3,3,0,0,1,9.868,5.5H4.7a3,3,0,0,1-.089.891V8.173a3,3,0,0,1,.089.891ZM7.285,1.048l-.623.178-.535.534-.445.624a3.176,3.176,0,0,0-.356.8l-.267.8a2.224,2.224,0,0,0-.179.623H9.69a2.256,2.256,0,0,0-.178-.623l-.267-.8a3.215,3.215,0,0,0-.357-.8L8.443,1.76l-.534-.534Zm0,12.469.624-.178.534-.535.445-.623a3.238,3.238,0,0,0,.357-.8l.267-.8a2.253,2.253,0,0,0,.178-.624H4.88a2.221,2.221,0,0,0,.179.624l.267.8a3.2,3.2,0,0,0,.356.8l.445.623.535.535ZM12.9,4.61a6.706,6.706,0,0,0-.623-1.068l-.8-.891L10.4,1.939,9.334,1.4a5,5,0,0,1,.445.713l.356.8.267.891a2.565,2.565,0,0,1,.178.8ZM9.334,13.16a3.023,3.023,0,0,0,1.068-.534l1.069-.712.8-.891A6.671,6.671,0,0,0,12.9,9.954H10.58a2.571,2.571,0,0,1-.178.8l-.267.89-.356.8A4.991,4.991,0,0,1,9.334,13.16ZM13.52,7.282A5.724,5.724,0,0,0,13.252,5.5H10.759a3,3,0,0,0,.089.891V8.173a3,3,0,0,0-.089.891h2.493A5.731,5.731,0,0,0,13.52,7.282Z" fill="url(#a8e872b4-8bc4-4b8e-9a11-1f9fc03edbee)" />
    <path d="M12.277,7.326,7.323,12.28a.357.357,0,0,0,0,.5l4.954,4.954a.357.357,0,0,0,.5,0l4.954-4.954a.355.355,0,0,0,0-.5L12.781,7.326A.357.357,0,0,0,12.277,7.326Z" fill="url(#b78ff8cd-22bc-4865-8e6c-26db5c703fb6)" />
    <path d="M11.316,9.832l1.175-1.175a.067.067,0,0,1,.044-.018.065.065,0,0,1,.044.018l1.206,1.175a.058.058,0,0,1,.02.031.056.056,0,0,1,0,.036.053.053,0,0,1-.024.027.059.059,0,0,1-.037.006h-.718a.064.064,0,0,0-.045.019.063.063,0,0,0-.018.044v1.519a.057.057,0,0,1-.016.039.056.056,0,0,1-.04.017h-.731a.05.05,0,0,1-.024,0,.056.056,0,0,1-.02-.011.062.062,0,0,1-.014-.019.068.068,0,0,1-.005-.023V9.995a.058.058,0,0,0-.016-.042.063.063,0,0,0-.04-.021H11.36a.068.068,0,0,1-.031-.011.063.063,0,0,1-.02-.026.059.059,0,0,1,0-.032A.069.069,0,0,1,11.316,9.832Zm2.469,5.4-1.206,1.175a.06.06,0,0,1-.044.018.062.062,0,0,1-.044-.018l-1.175-1.175a.066.066,0,0,1-.012-.03.064.064,0,0,1,0-.033.055.055,0,0,1,.02-.025.059.059,0,0,1,.031-.012h.694a.062.062,0,0,0,.056-.062V13.551a.059.059,0,0,1,.005-.023.052.052,0,0,1,.014-.019.059.059,0,0,1,.02-.012.065.065,0,0,1,.024,0H12.9a.055.055,0,0,1,.056.056V15.07a.067.067,0,0,0,.018.044.063.063,0,0,0,.045.018h.687a.062.062,0,0,1,.088.013.058.058,0,0,1,.011.046A.062.062,0,0,1,13.785,15.232Zm-3.537-1.55V13a.069.069,0,0,0-.063-.063H8.666a.062.062,0,0,1-.062-.056v-.731a.066.066,0,0,1,.02-.043.072.072,0,0,1,.042-.02h1.519a.058.058,0,0,0,.042-.016.063.063,0,0,0,.021-.04v-.694a.055.055,0,0,1,0-.04.061.061,0,0,1,.027-.03.06.06,0,0,1,.073.02l1.175,1.188a.057.057,0,0,1,.012.018.059.059,0,0,1,0,.022.054.054,0,0,1,0,.022.062.062,0,0,1-.012.019l-1.175,1.175a.058.058,0,0,1-.031.02.056.056,0,0,1-.036,0,.055.055,0,0,1-.027-.025A.056.056,0,0,1,10.248,13.682Zm4.575-2.35v.694a.057.057,0,0,0,.02.04.061.061,0,0,0,.042.016H16.4a.072.072,0,0,1,.042.02.066.066,0,0,1,.02.043v.731a.057.057,0,0,1-.02.04.061.061,0,0,1-.042.016H14.885a.072.072,0,0,0-.042.02.066.066,0,0,0-.02.043v.687a.056.056,0,0,1-.006.036.057.057,0,0,1-.064.028.052.052,0,0,1-.03-.02l-1.175-1.194a.046.046,0,0,1-.013-.018.059.059,0,0,1-.005-.022.054.054,0,0,1,.005-.022.05.05,0,0,1,.013-.019l1.175-1.169a.054.054,0,0,1,.032-.023.055.055,0,0,1,.04,0,.058.058,0,0,1,.028.07Z" fill="#fff" />
  </g>
</svg>