<svg xmlns="http://www.w3.org/2000/svg" width="16" height="16" viewBox="0 0 16 16">
  <g id="bf090c0c-3d27-4be1-bcb5-ce1dab97712a">
    <g>
      <polygon points="10.202 10.803 9.031 11.974 7.861 10.803 7.257 11.406 8.428 12.578 7.257 13.749 7.861 14.352 9.031 13.181 10.202 14.352 10.806 13.749 9.635 12.578 10.806 11.406 10.202 10.803"/>
      <path d="M15.982,8.017V1.689H5.566V5.545H.019v6.141H4.641v.463H3.32v.857h3.5v-.857H5.5v-.463h.825l.857-.858H.876V6.4H9.263v4.432l.857-.858v-.6h2.455V8.5H11.213V8.017ZM6.444,5.545V2.567H15.1V7.138H10.12V5.545Zm3.891,2.472V8.5H10.12V8.017Z"/>
    </g>
  </g>
</svg>
