<svg xmlns="http://www.w3.org/2000/svg" viewBox="0 0 18 18">
  <defs>
    <linearGradient id="ab1b3732-c3f9-4242-8612-e4698f97dfe7" x1="9" y1="16.062" x2="9" y2="5.427" gradientUnits="userSpaceOnUse">
      <stop offset="0" stop-color="#773adc" />
      <stop offset="0.775" stop-color="#b796f9" />
    </linearGradient>
  </defs>
  <g id="f8bd2ca4-51f8-4f1b-bcc1-47f625bbb410">
    <path d="M0,5.427H18V15.462a.6.6,0,0,1-.6.6H.6a.6.6,0,0,1-.6-.6H0V5.427Z" fill="url(#ab1b3732-c3f9-4242-8612-e4698f97dfe7)" />
    <path d="M.6,1.591H17.4a.6.6,0,0,1,.6.6h0V5.427H0V2.192a.6.6,0,0,1,.6-.6Z" fill="#773adc" />
    <path d="M5.429,13.13a.237.237,0,0,1-.237-.235v0h0a2.711,2.711,0,0,0-2.706-2.707.236.236,0,0,1-.237-.235h0a.238.238,0,0,1,.237-.238h0A2.709,2.709,0,0,0,5.192,7.006a.236.236,0,0,1,.234-.237h0A.235.235,0,0,1,5.666,7v0h0A2.71,2.71,0,0,0,8.373,9.712a.236.236,0,0,1,.237.235v0h0a.236.236,0,0,1-.235.237h0a2.711,2.711,0,0,0-2.707,2.707A.238.238,0,0,1,5.429,13.13Z" fill="#fff" />
    <path d="M12.939,13.939a.19.19,0,0,1-.19-.19h0a2.168,2.168,0,0,0-2.165-2.165.19.19,0,0,1-.19-.188h0a.19.19,0,0,1,.19-.19h0a2.167,2.167,0,0,0,2.165-2.165.19.19,0,0,1,.19-.19h0a.19.19,0,0,1,.19.19h0a2.166,2.166,0,0,0,2.164,2.165.19.19,0,1,1,0,.38h0a2.166,2.166,0,0,0-2.164,2.164A.19.19,0,0,1,12.939,13.939Z" fill="#fff" opacity="0.8" />
  </g>
</svg>