<svg xmlns="http://www.w3.org/2000/svg" viewBox="0 0 16 16">
  <rect x="3" y="5" width="2.5" height="2.5" fill="#000000" />
  <rect x="3" y="8.5" width="2.5" height="2.5" fill="#000000" />
  <rect x="6.747" y="5" width="2.5" height="2.5" fill="#000000" />
  <rect x="6.747" y="8.5" width="2.5" height="2.5" fill="#000000" />
  <rect x="10.5" y="5" width="2.5" height="2.5" fill="#000000" />
  <rect x="10.5" y="8.5" width="2.5" height="2.5" fill="#000000" />
  <path d="M14,2.5H2a2,2,0,0,0-2,2v7a2,2,0,0,0,2,2H14a2,2,0,0,0,2-2v-7A2,2,0,0,0,14,2.5Zm1,9a1,1,0,0,1-1,1H2a1,1,0,0,1-1-1v-7a1,1,0,0,1,1-1H14a1,1,0,0,1,1,1Z" fill="#000000" fill-rule="evenodd" />
</svg>