<svg xmlns="http://www.w3.org/2000/svg" width="18" height="18" viewBox="0 0 18 18">
  <defs>
    <linearGradient id="b2342888-2e08-45ec-b0b1-9b565f001bb0" x1="9.036" y1="8.077" x2="9.036" y2="5.881" gradientUnits="userSpaceOnUse">
      <stop offset="0" stop-color="#5e9624"/>
      <stop offset="0.241" stop-color="#6fb02a"/>
      <stop offset="0.501" stop-color="#7cc52f"/>
      <stop offset="0.756" stop-color="#83d232"/>
      <stop offset="1" stop-color="#86d633"/>
    </linearGradient>
    <linearGradient id="bf9e2bdb-d296-47bc-9542-153b345aa298" x1="-413.968" y1="-221.863" x2="-413.968" y2="-214.324" gradientTransform="matrix(1, 0, 0, -1, 427.126, -205.758)" gradientUnits="userSpaceOnUse">
      <stop offset="0" stop-color="#005ba1"/>
      <stop offset="0.126" stop-color="#0f66ae"/>
      <stop offset="0.515" stop-color="#3a86d1"/>
      <stop offset="0.819" stop-color="#5499e7"/>
      <stop offset="1" stop-color="#5ea0ef"/>
    </linearGradient>
  </defs>
  <g id="f953c7e2-7618-4315-ace5-730ec480d707">
    <g>
      <path d="M13.625,6.972a1.093,1.093,0,1,1-1.1-1.091A1.093,1.093,0,0,1,13.625,6.972ZM9.032,5.886a1.093,1.093,0,1,0,1.094,1.091A1.093,1.093,0,0,0,9.032,5.886Zm-3.494,0A1.093,1.093,0,1,0,6.632,6.982,1.093,1.093,0,0,0,5.538,5.891Z" fill="url(#b2342888-2e08-45ec-b0b1-9b565f001bb0)"/>
      <path d="M2.961,5.357h.888a.284.284,0,0,1,.284.284v6.551a.568.568,0,0,1-.568.568H2.677a0,0,0,0,1,0,0V5.641A.284.284,0,0,1,2.961,5.357Z" transform="translate(12.224 13.043) rotate(134.919)" fill="#50e6ff"/>
      <path d="M2.913,1.226H3.8a.284.284,0,0,1,.284.284V8.525a0,0,0,0,1,0,0H3.2a.568.568,0,0,1-.568-.568V1.51a.284.284,0,0,1,.284-.284Z" transform="translate(4.423 -0.947) rotate(44.919)" fill="#1490df"/>
      <path d="M13.867,5.357h.888a.568.568,0,0,1,.568.568v6.551a.284.284,0,0,1-.284.284h-.888a.284.284,0,0,1-.284-.284V5.357a0,0,0,0,1,0,0Z" transform="translate(10.703 -7.672) rotate(45.081)" fill="#50e6ff"/>
      <path d="M14.483,1.226h.888a0,0,0,0,1,0,0V8.241a.284.284,0,0,1-.284.284H14.2a.284.284,0,0,1-.284-.284V1.794a.568.568,0,0,1,.568-.568Z" transform="translate(28.454 -2.012) rotate(135.081)" fill="#1490df"/>
      <circle cx="13.159" cy="12.336" r="3.769" fill="url(#bf9e2bdb-d296-47bc-9542-153b345aa298)"/>
      <path d="M12.789,10.361h-1.12a1.4,1.4,0,0,0-.217,2.774,1.49,1.49,0,0,1,.017-.52.879.879,0,0,1,.2-1.742h1.117a.885.885,0,0,1,0,1.769h-.31a.661.661,0,0,0-.062.28.637.637,0,0,0,.044.232h.328a1.4,1.4,0,0,0,.058-2.793Z" fill="#fff"/>
      <path d="M14.682,11.543a1.714,1.714,0,0,1,.016.215,1.429,1.429,0,0,1-.031.305.878.878,0,0,1-.2,1.74H13.346a.885.885,0,0,1,0-1.768h.308a.655.655,0,0,0,.017-.512h-.323a1.4,1.4,0,0,0,0,2.793h1.119a1.4,1.4,0,0,0,.217-2.775Z" fill="#fff"/>
    </g>
  </g>
</svg>
