<svg id="uuid-674d8b28-4e26-4034-bc19-553ac6bac846" xmlns="http://www.w3.org/2000/svg" width="18" height="18" viewBox="0 0 18 18">
  <g>
    <path d="M3.925,13.548c.072,.042,.154,.064,.237,.064V6.212l-1.282-.754c-.041,.071-.062,.151-.063,.232h0v6.937c0,.082,.021,.162,.062,.233,.041,.071,.099,.13,.17,.171l.876,.516Z" fill="#59285f"/>
    <path d="M3.048,5.285L8.974,1.801c.071-.041,.152-.063,.235-.063s.164,.022,.235,.063l.88,.519c.071,.041,.13,.102,.17,.174l-6.331,3.718v-.009l-1.282-.745c.04-.071,.097-.131,.167-.173Z" fill="#ce74b6"/>
    <path d="M10.493,2.493c.04,.07,.062,.15,.062,.231v6.94c0,.082-.021,.162-.062,.233-.041,.071-.099,.13-.17,.171l-5.927,3.481c-.071,.042-.152,.064-.234,.063V6.212l6.331-3.718Z" fill="#a33a85"/>
    <path d="M6.246,14.896c.072,.042,.154,.064,.237,.064V7.56l-1.282-.754c-.041,.071-.062,.151-.063,.232h0v6.937c0,.082,.021,.162,.062,.233,.041,.071,.099,.13,.17,.171l.876,.516Z" fill="#59285f"/>
    <path d="M5.368,6.633l5.926-3.484c.071-.041,.152-.063,.235-.063s.164,.022,.235,.063l.88,.519c.071,.041,.13,.102,.17,.174l-6.331,3.718v-.009l-1.282-.745c.04-.071,.097-.131,.167-.173Z" fill="#ce74b6"/>
    <path d="M12.814,3.841c.04,.07,.062,.15,.062,.231v6.94c0,.082-.021,.162-.062,.233-.041,.071-.099,.13-.17,.171l-5.927,3.481c-.071,.042-.152,.064-.234,.063V7.56l6.331-3.718Z" fill="#a33a85"/>
    <path d="M8.769,16.336c.072,.042,.154,.064,.237,.064v-7.401l-1.282-.754c-.041,.071-.062,.151-.063,.232h0v6.937c0,.082,.021,.162,.062,.233,.041,.071,.099,.13,.17,.171l.876,.516Z" fill="#59285f"/>
    <path d="M7.892,8.073l5.926-3.484c.071-.041,.152-.063,.235-.063s.164,.022,.235,.063l.88,.519c.071,.041,.13,.102,.17,.174l-6.331,3.718v-.009l-1.282-.745c.04-.071,.097-.131,.167-.173Z" fill="#ce74b6"/>
    <path d="M15.337,5.282c.04,.07,.062,.15,.062,.231v6.94c0,.082-.021,.162-.062,.233-.041,.071-.099,.13-.17,.171l-5.927,3.481c-.071,.042-.152,.064-.234,.063v-7.401l6.331-3.718Z" fill="#a33a85"/>
    <path d="M10.786,12.144l.124,.277-.225,.642-.031,.09,.31,.177,.512-.577,.3-.033,.153,.456,.023,.058,.44-.258,.197-.731,.301-.319,.438,.002h.061l.311-.539-.236-.453,.126-.422,.473-.456,.062-.063,.004-.514-.54,.089-.121-.28,.229-.648,.032-.091-.308-.183-.507,.577-.301,.031-.153-.465-.023-.059-.444,.258-.198,.742-.303,.322-.443-.004h-.062l-.313,.545,.241,.457-.125,.424-.476,.459-.062,.063v.514l.536-.088Zm1.401-.302c-.469,.274-.848,.055-.846-.491h0c.001-.547,.385-1.215,.856-1.489s.849-.052,.846,.495-.385,1.21-.854,1.484h-.001Z" fill="#fff"/>
  </g>
  <g>
    <path d="M16.754,4.795V13.21c0,.099-.026,.197-.075,.283-.049,.086-.12,.158-.206,.207l-7.185,4.222c-.087,.051-.187,.078-.288,.078V9.023l7.678-4.51c.049,.086,.076,.183,.076,.282h0Z" fill="#ce74b6" isolation="isolate" opacity=".6"/>
    <path d="M16.679,4.513l-7.679,4.499v.011L1.321,4.512c.048-.088,.119-.161,.206-.211L8.718,.077C8.805,.026,8.903,0,9.003,0s.198,.026,.285,.077l7.188,4.227c.085,.051,.155,.123,.203,.21Z" fill="#dc92bf" isolation="isolate" opacity=".6"/>
    <path d="M9,9.023v8.977c-.1,0-.198-.026-.284-.077L1.527,13.7c-.086-.05-.157-.121-.206-.207-.049-.086-.075-.183-.075-.283V4.792c0-.098,.026-.195,.075-.28l7.679,4.511Z" fill="#a33a85" isolation="isolate" opacity=".6"/>
  </g>
</svg>