<svg xmlns="http://www.w3.org/2000/svg" width="18" height="18" viewBox="0 0 18 18">
  <defs>
    <linearGradient id="ec6c9f0c-f514-4b3b-aa72-0d70d6cd59c6" x1="9" y1="-0.636" x2="9" y2="19.263" gradientUnits="userSpaceOnUse">
      <stop offset="0" stop-color="#86d633"/>
      <stop offset="0.125" stop-color="#81ce31"/>
      <stop offset="1" stop-color="#5e9624"/>
    </linearGradient>
  </defs>
  <path d="M3.53,16.145A9,9,0,0,1,9.008,0a8.91,8.91,0,0,1,5.459,1.854A9,9,0,1,1,3.53,16.145Z" fill="url(#ec6c9f0c-f514-4b3b-aa72-0d70d6cd59c6)"/>
  <path d="M13.048.927A8.892,8.892,0,0,0,11.661.369,41.617,41.617,0,0,1,4.539,7.846c-.019.017-.027.034-.044.051A12.922,12.922,0,0,1,3.378,6.412a.187.187,0,0,0-.332.032,37.6,37.6,0,0,0-1.419,4.38.192.192,0,0,0,.154.236,12.938,12.938,0,0,0,5.2-.336.188.188,0,0,0,.07-.326c-.34-.285-.96-.823-1.635-1.506A36.274,36.274,0,0,0,13.048.927Z" fill="#fff" opacity="0.7"/>
  <path d="M15.173,5.485a15.227,15.227,0,0,1-1.438,1.3,15.539,15.539,0,0,0-10.3-4.9A8.464,8.464,0,0,0,1.8,3.545h0c.368.014.739.039,1.112.079A13.836,13.836,0,0,1,11.842,8.17q-.9.6-1.845,1.151a.187.187,0,0,0,.032.339,21.537,21.537,0,0,1,5.04,2.485.189.189,0,0,0,.294-.113,21.256,21.256,0,0,0,.132-6.44A.187.187,0,0,0,15.173,5.485Z" fill="#fff"/>
  <path d="M12.579,13.051a.2.2,0,0,0-.145-.3c-1.6-.214-3.844-.732-4.667-.927a.159.159,0,0,0-.182.221c.2.44.588,1.257.82,1.635a22.458,22.458,0,0,1-6.868.348A9.236,9.236,0,0,0,2.875,15.6a25.715,25.715,0,0,0,6.191-.587,12.676,12.676,0,0,1,.641,1.7.192.192,0,0,0,.335.063A37.364,37.364,0,0,0,12.579,13.051Z" fill="#fff" opacity="0.7"/>
</svg>
