<svg xmlns="http://www.w3.org/2000/svg" width="18" height="18" viewBox="0 0 18 18">
  <defs>
    <linearGradient id="f32dfd86-4155-44c8-a44f-cdf77a96cadd" x1="7.521" y1="3.722" x2="7.521" y2="17.013" gradientUnits="userSpaceOnUse">
      <stop offset="0" stop-color="#5ea0ef"/>
      <stop offset="1" stop-color="#0078d4"/>
    </linearGradient>
    <linearGradient id="bf6bc61c-d2e2-4cbb-aa76-e18d65332cfc" x1="14.389" y1="7.971" x2="14.389" y2="15.194" gradientUnits="userSpaceOnUse">
      <stop offset="0" stop-color="#86d633"/>
      <stop offset="1" stop-color="#76bc2d"/>
    </linearGradient>
  </defs>
  <path d="M12.9,12.721,10.4,10.229a.731.731,0,0,1-.217-.522V9.144a.74.74,0,0,1,.739-.739h4.116V3.113a.455.455,0,0,0-.478-.428H.479A.456.456,0,0,0,0,3.113v9.7a.455.455,0,0,0,.479.428H12.9Z" fill="url(#f32dfd86-4155-44c8-a44f-cdf77a96cadd)"/>
  <path d="M.451,2.685h14.14a.429.429,0,0,1,.45.4h0V4.7H0V3.088A.431.431,0,0,1,.451,2.685Z" fill="#0078d4" opacity="0.7"/>
  <circle cx="1.796" cy="6.88" r="0.614" fill="#fff" opacity="0.7"/>
  <circle cx="1.796" cy="9.241" r="0.614" fill="#fff" opacity="0.5"/>
  <path d="M10.186,9.707V9.144a.721.721,0,0,1,.115-.371H3.6a.267.267,0,0,0-.266.267v.408a.266.266,0,0,0,.266.267h6.589Z" fill="#fff" opacity="0.5"/>
  <rect x="3.333" y="6.416" width="10.031" height="0.942" rx="0.267" fill="#fff" opacity="0.7"/>
  <path d="M18,9.707V9.144A.148.148,0,0,0,17.852,9H10.925a.148.148,0,0,0-.148.148v.563a.149.149,0,0,0,.044.1l2.622,2.621a.153.153,0,0,1,.043.105v2.63a.148.148,0,0,0,.148.148h1.51a.148.148,0,0,0,.148-.148v-2.63a.148.148,0,0,1,.043-.105l2.622-2.621A.153.153,0,0,0,18,9.707Z" fill="url(#bf6bc61c-d2e2-4cbb-aa76-e18d65332cfc)"/>
</svg>
