<svg width="18" height="18" viewBox="0 0 18 18" xmlns="http://www.w3.org/2000/svg">
<path fill-rule="evenodd" clip-rule="evenodd" d="M13.5349 5.78571C12.9576 5.78571 12.4444 6.04285 12.1237 6.42856C11.3539 5.52857 10.2635 5.01428 9.10881 5.01428C8.33905 5.01428 7.56929 5.20714 6.99197 5.65714C6.86368 5.72142 6.79953 5.84999 6.67124 5.91428L5.32416 4.43571C5.45246 4.30714 5.6449 4.17857 5.83734 4.11428C6.79953 3.47142 7.89003 3.14999 9.04467 3.14999C11.0332 3.14999 12.8935 4.11428 13.984 5.78571C13.984 5.84999 14.0481 5.84999 14.0481 5.91428C13.8557 5.78571 13.6632 5.78571 13.5349 5.78571ZM5.70904 11.0571C5.96563 11.3786 6.22221 11.7 6.54295 11.9571C6.09392 12.3429 5.77319 12.8571 5.77319 13.5C5.77319 13.6286 5.77319 13.6929 5.83734 13.8214C5.13172 13.3714 4.5544 12.7928 4.04123 12.0857C3.01488 10.5428 2.82244 8.61428 3.52806 6.87856L5.32416 7.71428C4.93928 8.80714 5.06758 10.0929 5.70904 11.0571ZM9.49369 12.7929C10.071 12.7286 10.6483 12.5357 11.0974 12.2143C12.0596 11.6357 12.6369 10.6714 12.8293 9.57856C13.5349 9.83571 14.3688 9.64285 14.882 9.06428C14.8179 10.9929 13.8557 12.7929 12.1878 13.8214C11.2898 14.4 10.2635 14.7214 9.17296 14.7214C9.42955 14.4 9.62198 13.95 9.62198 13.5C9.68613 13.2429 9.62199 13.05 9.49369 12.7929Z" fill="#82BBFF"/>
<path fill-rule="evenodd" clip-rule="evenodd" d="M13.8557 16.5214C12.3803 17.4857 10.6483 18 8.91638 18C4.04124 18 0 14.0143 0 9.12857C0 8.16429 0.128293 7.26429 0.449026 6.36429L2.30928 6.87857C1.09049 10.5429 3.07904 14.4643 6.73539 15.6857C7.44101 15.9429 8.21077 16.0714 8.98053 16.0714C12.8935 16.0714 16.0367 12.8571 16.0367 8.87143C16.0367 7.52143 15.6518 6.23571 14.9462 5.07857C13.6632 3.08571 11.4181 1.86429 9.04467 1.92857C7.82589 1.92857 6.6071 2.25 5.51661 2.89286L8.33906 7.2C9.10882 6.94286 10.0069 7.2 10.4559 7.90714C10.9691 8.74286 10.7766 9.83571 9.94272 10.4143C9.10882 10.9929 7.95418 10.7357 7.44101 9.9C7.05613 9.32143 7.05613 8.55 7.44101 7.97143L3.46392 1.92857L4.49026 1.28571C5.90149 0.45 7.44101 0 9.10882 0C12.1237 0 14.9462 1.54286 16.614 4.05C19.244 8.22857 18.0252 13.8214 13.8557 16.5214Z" fill="url(#aa8654fd-3e2d-41de-8219-4064618a005b)"/>
<path d="M13.3746 8.80714C14.03 8.80714 14.5613 8.27468 14.5613 7.61786C14.5613 6.96104 14.03 6.42857 13.3746 6.42857C12.7192 6.42857 12.1879 6.96104 12.1879 7.61786C12.1879 8.27468 12.7192 8.80714 13.3746 8.80714Z" fill="url(#b2eebe7f-8991-47c9-b2b9-3ce276ad4ba8)"/>
<path d="M7.6976 14.7857C8.40615 14.7857 8.98054 14.2101 8.98054 13.5C8.98054 12.7899 8.40615 12.2143 7.6976 12.2143C6.98906 12.2143 6.41467 12.7899 6.41467 13.5C6.41467 14.2101 6.98906 14.7857 7.6976 14.7857Z" fill="url(#00204e36-b4ce-475d-875d-10356b996688)"/>
<defs>
<linearGradient id="aa8654fd-3e2d-41de-8219-4064618a005b" x1="8.98053" y1="3.46666e-09" x2="8.6584" y2="17.6785" gradientUnits="userSpaceOnUse">
<stop stop-color="#5EA0F0"/>
<stop offset="1" stop-color="#0078D4"/>
</linearGradient>
<linearGradient id="b2eebe7f-8991-47c9-b2b9-3ce276ad4ba8" x1="13.3746" y1="8.80072" x2="13.3746" y2="6.435" gradientUnits="userSpaceOnUse">
<stop offset="0.09" stop-color="#32BEDD"/>
<stop offset="1" stop-color="#50E6FF"/>
</linearGradient>
<linearGradient id="00204e36-b4ce-475d-875d-10356b996688" x1="7.6976" y1="14.7788" x2="7.6976" y2="12.2212" gradientUnits="userSpaceOnUse">
<stop offset="0.09" stop-color="#32BEDD"/>
<stop offset="1" stop-color="#50E6FF"/>
</linearGradient>
</defs>
</svg>
