<svg xmlns="http://www.w3.org/2000/svg" viewBox="0 0 18 18">
  <g id="a0ad3a0c-2b6a-4925-a167-5ba7863312e0">
    <path d="M12.62,10.915l.018.006Z" fill="url(#b26ea143-25d9-4876-810e-eaa29dfaa47b)" />
    <path d="M12.62,12.833l.018.006Z" fill="url(#a47a1554-b2dc-4d60-870e-33b5f7bc3449)" />
    <path d="M12.62,5.161l.018.006Z" fill="url(#b431331b-2b1e-4a86-b2e8-848641ba24bb)" />
    <path d="M12.62,7.079l.018.006Z" fill="url(#b61f5524-9af6-4ce5-8621-be7d190f0fe8)" />
    <g>
      <ellipse cx="9.021" cy="13.126" rx="6.87" ry="1.617" fill="#198ab3" />
      <path d="M15.891,16.308V13.126h0c0,.893-3.076,1.617-6.87,1.617S2.15,14.019,2.15,13.126v3.257C2.15,17.276,5.226,18,9.02,18c3.715,0,6.739-.694,6.865-1.562h0v-.02c0-.011,0-.023,0-.035s0-.02,0-.03v-.044Z" fill="#005ba1" />
    </g>
    <g>
      <ellipse cx="9.021" cy="7.371" rx="6.87" ry="1.617" fill="#32bedd" />
      <path d="M15.891,10.554V7.371h0c0,.894-3.076,1.618-6.87,1.618S2.15,8.265,2.15,7.371v3.258c0,.893,3.076,1.617,6.87,1.617,3.715,0,6.739-.694,6.865-1.562h0v-.02c0-.012,0-.023,0-.035s0-.02,0-.03v-.044Z" fill="#0078d4" />
    </g>
    <g>
      <path d="M9,3.235c-3.752,0-6.8-.709-6.864-1.588H2.13V4.874c0,.894,3.076,1.618,6.87,1.618,3.715,0,6.739-.694,6.864-1.562h0V4.91c0-.012,0-.024,0-.036a.289.289,0,0,0,0-.029V4.8h0V1.617C15.87,2.51,12.794,3.235,9,3.235Z" fill="#5ea0ef" />
      <ellipse cx="9" cy="1.617" rx="6.87" ry="1.617" fill="#9cebff" />
    </g>
  </g>
</svg>