<svg xmlns="http://www.w3.org/2000/svg" width="18" height="18" viewBox="0 0 18 18">
  <defs>
    <linearGradient id="be2dc93a-2eca-4aeb-838d-b906cd831f7f" x1="9.202" y1="16.075" x2="9.202" y2="6.461" gradientUnits="userSpaceOnUse">
      <stop offset="0" stop-color="#5e9624"/>
      <stop offset="0.4" stop-color="#74b92c"/>
      <stop offset="0.8" stop-color="#81ce31"/>
      <stop offset="1" stop-color="#86d633"/>
    </linearGradient>
  </defs>
  <rect x="5.009" y="6.469" width="3.172" height="3.172" rx="0.267" fill="#0078d4"/>
  <rect x="9.519" y="6.469" width="3.172" height="3.172" rx="0.267" fill="#0078d4"/>
  <rect x="5.009" y="1.925" width="3.172" height="3.172" rx="0.267" fill="#5ea0ef"/>
  <rect x="0.5" y="1.925" width="3.172" height="3.172" rx="0.267" fill="#5ea0ef"/>
  <path d="M17.389,12.3,14.2,9.108a.163.163,0,0,0-.105-.042.17.17,0,0,0-.177.163v1.96h0a.169.169,0,0,1-.169.169H3.786a.463.463,0,0,1-.464-.463V6.831a.37.37,0,0,0-.37-.37H1.274a.37.37,0,0,0-.37.37v5.711a1.233,1.233,0,0,0,1.233,1.232h11.6a.169.169,0,0,1,.167.17V15.9a.171.171,0,0,0,.291.123l3.19-3.189A.381.381,0,0,0,17.389,12.3Z" fill="url(#be2dc93a-2eca-4aeb-838d-b906cd831f7f)"/>
</svg>
