<svg xmlns="http://www.w3.org/2000/svg" viewBox="0 0 16 16">
  <path d="M8,4a9.068,9.068,0,0,1,2.3.3l2.1.8,1.9,1.3A12.867,12.867,0,0,1,16,8a12.867,12.867,0,0,1-1.7,1.6l-1.9,1.3-2.1.8a8.967,8.967,0,0,1-4.6,0l-2.1-.8L1.7,9.6A12.867,12.867,0,0,1,0,8,12.867,12.867,0,0,1,1.7,6.4L3.6,5.1l2.1-.8A9.068,9.068,0,0,1,8,4ZM1.4,8,2.9,9.3l1.8,1a3.686,3.686,0,0,1-.5-1.1A5.028,5.028,0,0,1,4,8a5.028,5.028,0,0,1,.2-1.2,3.686,3.686,0,0,1,.5-1.1l-1.8,1ZM11,8a5.028,5.028,0,0,0-.2-1.2l-.7-.9-.9-.7L8,5l-1.2.2-.9.7-.7.9A5.028,5.028,0,0,0,5,8a5.028,5.028,0,0,0,.2,1.2l.7.9.9.7L8,11l1.2-.2.9-.7.7-.9A5.028,5.028,0,0,0,11,8ZM8,9H7.6l-.3-.2-.2-.3A.6.6,0,0,1,7,8a.6.6,0,0,1,.1-.4c0-.1.1-.2.2-.3l.3-.2h.8l.3.2c.1.1.2.2.2.3A.6.6,0,0,1,9,8a.6.6,0,0,1-.1.4l-.2.3-.3.2Zm3.3,1.3,1.8-1L14.6,8,13.1,6.7l-1.8-1a3.686,3.686,0,0,1,.5,1.1A5.028,5.028,0,0,1,12,8a5.028,5.028,0,0,1-.2,1.2A3.686,3.686,0,0,1,11.3,10.3Z" />
</svg>