<svg xmlns="http://www.w3.org/2000/svg" width="18" height="18" viewBox="0 0 18 18">
  <defs>
    <linearGradient id="acab5613-79c1-4c89-bd05-8eb5f78d4ee1" x1="10.562" y1="-0.543" x2="10.562" y2="18.092" gradientUnits="userSpaceOnUse">
      <stop offset="0.095" stop-color="#0078d4"/>
      <stop offset="1" stop-color="#005ba1"/>
    </linearGradient>
    <linearGradient id="fd60da94-897a-4e21-bd6b-54d5203b89ba" x1="13.878" y1="8.083" x2="15.236" y2="9.441" gradientUnits="userSpaceOnUse">
      <stop offset="0.149" stop-color="#9cebff"/>
      <stop offset="1" stop-color="#50e6ff"/>
    </linearGradient>
  </defs>
  <g id="feb8a881-d394-4cdf-8fa7-57cf3ad1d259">
    <g>
      <path d="M16.691.7V16.807a.7.7,0,0,1-.7.7H8.469V13.771A.755.755,0,0,0,7.848,13a.2.2,0,0,0-.026,0c-.02,0-.041-.008-.061-.01H7.7V11.9a3.179,3.179,0,0,0-.853-2.208,2.94,2.94,0,0,0-2.151-.939c-.088,0-.174,0-.259.012V.7A.7.7,0,0,1,5.129,0H16A.7.7,0,0,1,16.691.7Z" fill="url(#acab5613-79c1-4c89-bd05-8eb5f78d4ee1)"/>
      <circle cx="14.546" cy="8.751" r="0.789" fill="url(#fd60da94-897a-4e21-bd6b-54d5203b89ba)"/>
      <g>
        <path d="M7.7,13.4H7.278v-1.5a2.781,2.781,0,0,0-.742-1.918,2.512,2.512,0,0,0-3.55-.139c-.048.044-.1.091-.139.139a2.761,2.761,0,0,0-.742,1.918v1.5H1.681a.339.339,0,0,0-.37.305.349.349,0,0,0,0,.056v3.9A.339.339,0,0,0,1.649,18H7.7a.339.339,0,0,0,.349-.329V13.76a.339.339,0,0,0-.317-.36Zm-1.643,0H3.3V11.873a1.512,1.512,0,0,1,.434-1.06,1.262,1.262,0,0,1,1.781-.106,1.325,1.325,0,0,1,.106.106,1.735,1.735,0,0,1,.17.212h0a1.492,1.492,0,0,1,.265.837Z" fill="#ffbd02"/>
        <path d="M1.66,13.4H7.7a.341.341,0,0,1,.222.085L1.415,17.906a.328.328,0,0,1-.1-.267V13.76a.339.339,0,0,1,.317-.36Z" fill="#ffe452"/>
        <path d="M7.7,13.4H1.66a.346.346,0,0,0-.223.085l6.487,4.41a.318.318,0,0,0,.127-.255V13.76a.339.339,0,0,0-.317-.36Z" fill="#ffd400" opacity="0.5"/>
      </g>
    </g>
  </g>
</svg>
