<svg xmlns="http://www.w3.org/2000/svg" viewBox="0 0 18 18">
  <defs>
    <linearGradient id="e4ea0a5f-c06a-48e6-923a-946a8c543b00" x1="-270.879" y1="-269.663" x2="-277.754" y2="-269.663" gradientTransform="matrix(0, -1, -1, 0, -256.424, -260.264)" gradientUnits="userSpaceOnUse">
      <stop offset="0" stop-color="#5ea0ef" />
      <stop offset="1" stop-color="#0078d4" />
    </linearGradient>
    <linearGradient id="f6e92b93-7371-4131-8d80-1a052afa82a4" x1="-259.347" y1="-269.663" x2="-266.731" y2="-269.663" gradientTransform="matrix(0, -1, -1, 0, -256.424, -260.264)" gradientUnits="userSpaceOnUse">
      <stop offset="0" stop-color="#5ea0ef" />
      <stop offset="1" stop-color="#0078d4" />
    </linearGradient>
  </defs>
  <path d="M3.8,6.37V3.823a.284.284,0,0,1,.284-.283H9.559V2.118H2.914a.568.568,0,0,0-.568.569h0V6.406Z" fill="#5ea0ef" />
  <path d="M2.346,11.461v3.854a.568.568,0,0,0,.568.568H9.529V14.462H4.083a.284.284,0,0,1-.284-.283V11.425Z" fill="#5ea0ef" />
  <path d="M0,6.361v5.328a.589.589,0,0,0,.589.588H5.917a.588.588,0,0,0,.593-.583V6.361a.589.589,0,0,0-.585-.592H.589A.589.589,0,0,0,0,6.357Zm5.021.509a.39.39,0,0,1,.39.39v3.533a.391.391,0,0,1-.39.39H1.484a.391.391,0,0,1-.39-.39h0V7.256a.391.391,0,0,1,.39-.39Z" fill="#83b9f9" />
  <path id="a212a2a2-29a5-4c80-9005-7e0cb634cb37" d="M17.525,12.273H8.95a.473.473,0,0,0-.473.473h0v4.3a.473.473,0,0,0,.473.473h8.577A.473.473,0,0,0,18,17.047h0v-4.3a.473.473,0,0,0-.473-.473Z" fill="url(#e4ea0a5f-c06a-48e6-923a-946a8c543b00)" />
  <path id="af862dfe-89f4-46aa-a2f8-e7418d428d6f" d="M17.525.48H8.95a.473.473,0,0,0-.473.473h0v4.3a.473.473,0,0,0,.473.473h8.577A.473.473,0,0,0,18,5.256h0V.953A.473.473,0,0,0,17.527.48Z" fill="url(#f6e92b93-7371-4131-8d80-1a052afa82a4)" />
  <rect x="10.214" y="14.985" width="1.524" height="1.189" rx="0.111" fill="#fff" />
  <rect x="12.438" y="14.471" width="1.524" height="1.703" rx="0.132" fill="#fff" />
  <rect x="14.662" y="13.666" width="1.524" height="2.508" rx="0.161" fill="#fff" />
  <circle cx="12.228" cy="2.781" r="0.563" fill="#fff" />
  <circle cx="14.195" cy="4.012" r="0.563" fill="#fff" />
  <circle cx="15.758" cy="1.875" r="0.563" fill="#fff" />
  <circle cx="10.592" cy="4.186" r="0.563" fill="#fff" />
  <polygon points="10.658 4.471 10.323 4.126 12.186 2.319 14.141 3.692 15.67 1.657 16.055 1.946 14.246 4.353 12.235 2.941 10.658 4.471" fill="#fff" />
</svg>