<svg xmlns="http://www.w3.org/2000/svg" width="18" height="18" viewBox="0 0 18 18">
  <defs>
    <linearGradient id="e63e2dbd-e05b-4230-ab27-0c94b82f95d1" x1="7.235" y1="1.355" x2="7.235" y2="14.882" gradientUnits="userSpaceOnUse">
      <stop offset="0" stop-color="#b3b2b3"/>
      <stop offset="0.375" stop-color="#afaeaf"/>
      <stop offset="0.763" stop-color="#a2a2a2"/>
      <stop offset="1" stop-color="#979797"/>
    </linearGradient>
    <linearGradient id="b9507a7a-696a-4808-84c0-a0f3b4f66dd1" x1="231.241" y1="583.16" x2="231.241" y2="574.184" gradientTransform="matrix(1, 0, 0, -1, -221, 590.516)" gradientUnits="userSpaceOnUse">
      <stop offset="0.18" stop-color="#5ea0ef"/>
      <stop offset="1" stop-color="#0078d4"/>
    </linearGradient>
  </defs>
  <g id="bbbc1a3b-47cb-4492-b893-e8b4dda8f321">
    <g>
      <g id="a4fc87ad-6388-4b7f-a154-951652bdf649">
        <path d="M16.275,15.612c-.136.6-.881,1.184-2.227,1.642a18.378,18.378,0,0,1-10.319.014c-1.24-.437-1.909-1-2.014-1.566-.019-.1,0-1.633,0-1.633L16.3,13.933S16.292,15.54,16.275,15.612Z" fill="#5ea0ef"/>
        <path d="M16.3,13.96v.019c-.012,1.386-3.258,2.539-7.273,2.579-3.9.04-7.091-.983-7.311-2.311a.787.787,0,0,1-.013-.138c-.005-.612.618-1.179,1.661-1.626a15.4,15.4,0,0,1,5.613-.971,15.394,15.394,0,0,1,5.642.862c1.029.419,1.655.961,1.68,1.559Z" fill="#50e6ff"/>
      </g>
      <g>
        <path d="M12.565.438,12.557,12.88v.194a.446.446,0,0,1-.438.454H5.061a.445.445,0,0,1-.446-.446V.454A.445.445,0,0,1,5.053,0h7.058A.445.445,0,0,1,12.565.438Z" fill="#767676"/>
        <path d="M11.21,1.792,11.2,14.428a.445.445,0,0,1-.437.454H3.706a.445.445,0,0,1-.445-.445V1.808A.445.445,0,0,1,3.7,1.355h7.059A.445.445,0,0,1,11.21,1.792Z" fill="url(#e63e2dbd-e05b-4230-ab27-0c94b82f95d1)"/>
        <path d="M4.39,6.1a.861.861,0,0,1,.859-.861H9.268a.86.86,0,0,1,.836.86h0a.86.86,0,0,1-.851.867H5.266a.867.867,0,0,1-.875-.859Zm0-2.547a.859.859,0,0,0,.875.844H9.245a.86.86,0,0,0,.859-.86h0a.859.859,0,0,0-.836-.867H5.257a.868.868,0,0,0-.867.868C4.39,3.541,4.391,3.546,4.391,3.551Z" fill="#003067"/>
        <path d="M5.322,2.954a.581.581,0,1,1-.581.581A.581.581,0,0,1,5.322,2.954ZM4.741,6.1a.581.581,0,1,0,.581-.581A.581.581,0,0,0,4.741,6.1Z" fill="#50e6ff"/>
        <path d="M14.739,12.837a2.044,2.044,0,0,0-1.75-1.967,2.578,2.578,0,0,0-2.623-2.492,2.622,2.622,0,0,0-2.511,1.744,2.428,2.428,0,0,0-2.112,2.354,2.472,2.472,0,0,0,2.531,2.407h4.439A2.065,2.065,0,0,0,14.739,12.837Z" fill="url(#b9507a7a-696a-4808-84c0-a0f3b4f66dd1)"/>
      </g>
    </g>
  </g>
</svg>
