<svg xmlns="http://www.w3.org/2000/svg" viewBox="0 0 18 18">
  <defs>
    <linearGradient id="e13cd4af-d0ee-4ad9-861a-9109b3fd913c" x1="5.781" y1="5.946" x2="17.354" y2="17.04" gradientTransform="translate(-3.578 8.566) rotate(-45)" gradientUnits="userSpaceOnUse">
      <stop offset="0" stop-color="#5ea0ef" />
      <stop offset="0.615" stop-color="#0078d4" />
    </linearGradient>
  </defs>
  <g id="a9f01ac6-bbaf-4e05-b7c7-3af51b356484">
    <rect x="6.326" y="-1.668" width="4.45" height="20.539" rx="0.685" transform="translate(8.587 -3.527) rotate(45)" fill="url(#e13cd4af-d0ee-4ad9-861a-9109b3fd913c)" />
    <g>
      <path d="M8.183,7.87,7.16,6.847,6.8,7.21,7.819,8.233a.257.257,0,0,0,.364-.363Z" fill="#83b9f9" />
      <path d="M4.535,11.881a.257.257,0,0,0,0-.363L3.512,10.5l-.363.363,1.023,1.023A.257.257,0,0,0,4.535,11.881Z" fill="#83b9f9" />
      <path d="M13.15,2.257a.257.257,0,0,0,0-.363l-.519-.519-.363.364.519.518A.255.255,0,0,0,13.15,2.257Z" fill="#83b9f9" />
      <path d="M11.83,4.222,10.807,3.2l-.363.363,1.023,1.023a.257.257,0,0,0,.363-.363Z" fill="#83b9f9" />
      <path d="M2.207,13.2a.257.257,0,0,0,0-.363l-.519-.519-.363.363.519.519A.257.257,0,0,0,2.207,13.2Z" fill="#83b9f9" />
    </g>
    <path d="M.57,3.368,3.419.52a.649.649,0,0,1,.916.04L16.046,12.271l.2,3.29a.585.585,0,0,1-.629.63L12.321,16,.61,4.285A.651.651,0,0,1,.57,3.368Z" fill="#50e6ff" />
    <path d="M.563,3.361,1.987,1.937,16.274,16.223l-3.96-.235L.6,4.277A.649.649,0,0,1,.563,3.361Z" fill="#9cebff" />
    <path d="M16.046,12.271,18,17.319a.584.584,0,0,1-.63.629L12.321,16l2.344-1.381Z" fill="#c3f1ff" />
    <path d="M5.656,1.881,4.335.56A.649.649,0,0,0,3.419.52L.57,3.368a.651.651,0,0,0,.04.917L1.931,5.606Z" fill="#32bedd" />
  </g>
</svg>