<svg xmlns="http://www.w3.org/2000/svg" width="18" height="18" viewBox="0 0 18 18">
  <defs>
    <linearGradient id="e5b3e82e-be4e-48e9-b51c-facb33372a36" x1="-278" y1="854.231" x2="-278" y2="866.801" gradientTransform="matrix(1, 0, 0, -1, 287, 869.516)" gradientUnits="userSpaceOnUse">
      <stop offset="0" stop-color="#0078d4"/>
      <stop offset="0.156" stop-color="#1380da"/>
      <stop offset="0.528" stop-color="#3c91e5"/>
      <stop offset="0.822" stop-color="#559cec"/>
      <stop offset="1" stop-color="#5ea0ef"/>
    </linearGradient>
    <linearGradient id="ba28982f-620d-4d4b-9e37-8c4225f0dab1" x1="9" y1="12.482" x2="9" y2="5.518" gradientUnits="userSpaceOnUse">
      <stop offset="0" stop-color="#ef7100"/>
      <stop offset="1" stop-color="#faa21d"/>
    </linearGradient>
  </defs>
  <g id="bec4ae53-ca2c-42cc-93c4-e567edb78530">
    <g>
      <rect y="2.715" width="18" height="12.57" rx="0.6" fill="url(#e5b3e82e-be4e-48e9-b51c-facb33372a36)"/>
      <g>
        <path d="M1.529,7.1a.368.368,0,0,1-.369-.367h0V4.324a.367.367,0,0,1,.368-.367H3.783a.368.368,0,0,1,0,.736H1.9v2.04A.367.367,0,0,1,1.53,7.1Z" fill="#fff"/>
        <path d="M16.471,7.1a.367.367,0,0,1-.367-.367V4.693H14.216a.368.368,0,0,1,0-.736h2.255a.368.368,0,0,1,.369.367h0V6.733a.367.367,0,0,1-.368.367Z" fill="#fff"/>
        <path d="M3.784,14.043H1.529a.368.368,0,0,1-.369-.367h0V11.267a.368.368,0,0,1,.736,0v2.04H3.784a.368.368,0,0,1,0,.736Z" fill="#fff"/>
        <path d="M16.471,14.043H14.217a.368.368,0,0,1,0-.736H16.1v-2.04a.368.368,0,0,1,.736,0v2.409a.367.367,0,0,1-.368.367Z" fill="#fff"/>
      </g>
      <path d="M11.6,5.689a.426.426,0,0,0-.654-.034,2.689,2.689,0,0,1-2,.821,2.692,2.692,0,0,1-1.987-.81.426.426,0,0,0-.659.041l-2.453,3.4a.327.327,0,0,0,0,.381c.778,1.087,4.893,6.145,10.293,0a.327.327,0,0,0,.014-.41Z" fill="url(#ba28982f-620d-4d4b-9e37-8c4225f0dab1)"/>
    </g>
  </g>
</svg>
