<svg xmlns="http://www.w3.org/2000/svg" viewBox="0 0 18 18">
  <g id="ef75ae44-81b5-4027-affc-58a0b433102e">
    <path d="M9.562,12.48a1.746,1.746,0,0,1,.458.246,1.6,1.6,0,0,1,.351.361,1.845,1.845,0,0,1,.229.457,1.6,1.6,0,0,1,.087.518,1.65,1.65,0,0,1-.131.659,1.679,1.679,0,0,1-.9.9,1.711,1.711,0,0,1-1.318,0,1.679,1.679,0,0,1-.9-.9A1.682,1.682,0,0,1,7.62,13.1a1.766,1.766,0,0,1,.352-.37,1.546,1.546,0,0,1,.466-.246V6.75H9.562Zm2.25-.887a4.27,4.27,0,0,1,.783,1.23,3.683,3.683,0,0,1,.281,1.424,3.587,3.587,0,0,1-1.16,2.663,4.392,4.392,0,0,1-1.239.8A3.6,3.6,0,0,1,9,18a3.8,3.8,0,0,1-1.477-.29,4.237,4.237,0,0,1-1.239-.791,3.48,3.48,0,0,1-.844-1.2,3.927,3.927,0,0,1-.316-1.476,3.683,3.683,0,0,1,.281-1.424,4.27,4.27,0,0,1,.783-1.23V2.812a2.727,2.727,0,0,1,.219-1.089,2.829,2.829,0,0,1,.6-.888A2.915,2.915,0,0,1,7.9.229,2.686,2.686,0,0,1,9,0a2.754,2.754,0,0,1,1.978.826,3.077,3.077,0,0,1,.606.9,2.634,2.634,0,0,1,.228,1.089ZM9,16.875a2.718,2.718,0,0,0,1.037-.2,3,3,0,0,0,.879-.554,2.43,2.43,0,0,0,.6-.835,2.806,2.806,0,0,0,.228-1.037,2.524,2.524,0,0,0-.29-1.2,3.823,3.823,0,0,0-.765-.993V2.812a1.653,1.653,0,0,0-.131-.659,1.681,1.681,0,0,0-.9-.9,1.711,1.711,0,0,0-1.318,0,1.681,1.681,0,0,0-.9.9,1.653,1.653,0,0,0-.131.659V12.05a3.7,3.7,0,0,0-.765.984,2.545,2.545,0,0,0-.29,1.213,2.468,2.468,0,0,0,.22,1.037,2.52,2.52,0,0,0,.606.835,3.03,3.03,0,0,0,.87.554A2.7,2.7,0,0,0,9,16.875Z" />
  </g>
</svg>