<svg xmlns="http://www.w3.org/2000/svg" width="18" height="18" viewBox="0 0 18 18">
  <defs>
    <linearGradient id="a7fa6cd8-00a2-4201-af16-e50ffd809fc8" x1="310.895" y1="386.117" x2="310.895" y2="390.367" gradientTransform="matrix(1, 0, 0, -1, -298, 403.516)" gradientUnits="userSpaceOnUse">
      <stop offset="0" stop-color="#32bedd"/>
      <stop offset="1" stop-color="#50e6ff"/>
    </linearGradient>
    <linearGradient id="b560acdf-52d2-4130-a3c0-188df0e955bc" x1="307" y1="391.175" x2="307" y2="397.654" gradientTransform="matrix(1, 0, 0, -1, -298, 403.516)" gradientUnits="userSpaceOnUse">
      <stop offset="0" stop-color="#0078d2"/>
      <stop offset="1" stop-color="#5e9eee"/>
    </linearGradient>
    <linearGradient id="a722fe0c-b6b5-4601-8c6c-c5ea2939afcc" x1="310.858" y1="398.664" x2="310.858" y2="402.914" gradientUnits="userSpaceOnUse">
      <stop offset="0" stop-color="#32bedd"/>
      <stop offset="1" stop-color="#50e6ff"/>
    </linearGradient>
  </defs>
  <g id="fc5244a7-8985-46c2-ab79-cf7a9d7d914d">
    <g>
      <path d="M7.3,8.78c.009.107.032.21.032.32a3.53,3.53,0,0,1-.068.672H16.52V8.78Z" fill="#0078d4"/>
      <g>
        <path d="M6.963,7.54l6.183-4.41-.575-.808L6.409,6.717A3.624,3.624,0,0,1,6.963,7.54Z" fill="#0078d4"/>
        <path d="M6.9,10.78a3.565,3.565,0,0,1-.575.808l6.3,4.1.54-.831Z" fill="#0078d4"/>
      </g>
      <circle cx="12.895" cy="15.273" r="2.125" fill="url(#a7fa6cd8-00a2-4201-af16-e50ffd809fc8)"/>
      <path d="M6.979,9.1a3.24,3.24,0,1,1-3.24-3.24A3.239,3.239,0,0,1,6.979,9.1Zm8.4-1.948A2.125,2.125,0,1,0,17.5,9.279v0a2.124,2.124,0,0,0-2.124-2.124h0Z" fill="url(#b560acdf-52d2-4130-a3c0-188df0e955bc)"/>
      <circle cx="12.858" cy="2.727" r="2.125" fill="url(#a722fe0c-b6b5-4601-8c6c-c5ea2939afcc)"/>
    </g>
  </g>
</svg>
