<svg xmlns="http://www.w3.org/2000/svg" width="18" height="18" viewBox="0 0 18 18">
  <defs>
    <linearGradient id="f67801db-cdd6-4196-b222-6b13a0b39898" x1="7.268" y1="7.422" x2="7.209" y2="15.946" gradientUnits="userSpaceOnUse">
      <stop offset="0" stop-color="#a67af4"/>
      <stop offset="1" stop-color="#773adc"/>
    </linearGradient>
    <linearGradient id="bbfe2007-b553-46e4-9436-543d4d2d8668" x1="7.926" y1="0.466" x2="7.871" y2="8.364" gradientUnits="userSpaceOnUse">
      <stop offset="0" stop-color="#a67af4"/>
      <stop offset="1" stop-color="#773adc"/>
    </linearGradient>
    <linearGradient id="be541195-39ef-432e-a9cb-5ba0816ee979" x1="11.954" y1="11.215" x2="11.934" y2="14.162" gradientUnits="userSpaceOnUse">
      <stop offset="0" stop-color="#3cd4c2"/>
      <stop offset="1" stop-color="#37c2b1"/>
    </linearGradient>
    <linearGradient id="a94d4983-cffc-4382-8652-d6502e701f97" x1="11.954" y1="14.621" x2="11.934" y2="17.569" gradientUnits="userSpaceOnUse">
      <stop offset="0" stop-color="#3cd4c2"/>
      <stop offset="1" stop-color="#37c2b1"/>
    </linearGradient>
  </defs>
  <g id="b2ee830d-de17-4177-801b-6cb2284a34eb">
    <g>
      <path d="M6.181,15.007a.84.84,0,0,1,.271-.615.844.844,0,0,1-.271-.616V11.6a.851.851,0,0,1,.85-.85h6.642a6.352,6.352,0,0,0-5.8-3.324c-4.275,0-6.614,2.712-7.076,7.1a1.263,1.263,0,0,0,1.126,1.38l4.258.02Z" fill="url(#f67801db-cdd6-4196-b222-6b13a0b39898)"/>
      <path d="M7.931,8.363a3.923,3.923,0,0,1-2.107-.632L7.931,13.26l2.1-5.486A4.021,4.021,0,0,1,7.931,8.363Z" fill="#fff" opacity="0.8"/>
      <circle cx="7.898" cy="4.415" r="3.949" fill="url(#bbfe2007-b553-46e4-9436-543d4d2d8668)"/>
      <rect x="6.679" y="11.249" width="10.53" height="2.879" rx="0.352" fill="url(#be541195-39ef-432e-a9cb-5ba0816ee979)"/>
      <rect x="15.573" y="11.753" width="0.787" height="0.787" rx="0.176" fill="#fff"/>
      <rect x="15.573" y="12.837" width="0.787" height="0.787" rx="0.176" fill="#fff" opacity="0.6"/>
      <rect x="6.679" y="14.655" width="10.53" height="2.879" rx="0.352" fill="url(#a94d4983-cffc-4382-8652-d6502e701f97)"/>
      <rect x="15.573" y="15.159" width="0.787" height="0.787" rx="0.176" fill="#fff"/>
      <rect x="15.573" y="16.244" width="0.787" height="0.787" rx="0.176" fill="#fff" opacity="0.6"/>
    </g>
  </g>
</svg>
