<svg xmlns="http://www.w3.org/2000/svg" width="16" height="16" viewBox="0 0 16 16">
  <g id="b173f0ce-3229-41d8-bdc8-e88c650c499e">
    <path d="M2.75.125a1.5,1.5,0,0,0-1.5,1.5v9.75a1.5,1.5,0,0,0,1.5,1.5H5.88a4.906,4.906,0,0,1-.13-1.125h-3a.375.375,0,0,1-.375-.375V1.625A.375.375,0,0,1,2.75,1.25H6.875V3.687A1.313,1.313,0,0,0,8.188,5h2.437V6.875a4.906,4.906,0,0,1,1.125.13V4.451a1.5,1.5,0,0,0-.439-1.061L8.485.564A1.5,1.5,0,0,0,7.424.125ZM8,3.687V1.671l2.2,2.2H8.188A.188.188,0,0,1,8,3.687ZM3.5,2.938a.563.563,0,0,1,.562-.563H5.188a.563.563,0,0,1,0,1.125H4.062A.562.562,0,0,1,3.5,2.938Zm.562,1.687a.563.563,0,0,0,0,1.125H5.188a.563.563,0,0,0,0-1.125Zm0,2.25A.563.563,0,0,0,4.062,8H5.188a.563.563,0,0,0,0-1.125ZM14.75,11.75a4.125,4.125,0,1,0-4.125,4.125A4.125,4.125,0,0,0,14.75,11.75Zm-1.61.265L11.265,13.89a.375.375,0,0,1-.53-.53l1.235-1.235h-3.6a.375.375,0,0,1,0-.75h3.6L10.735,10.14a.375.375,0,0,1,.53-.53l1.875,1.875A.374.374,0,0,1,13.14,12.015Z" fill="#212121"/>
  </g>
</svg>
