<svg xmlns="http://www.w3.org/2000/svg" width="18" height="18" viewBox="0 0 18 18">
  <defs>
    <linearGradient id="e4523c24-1eeb-4db2-b058-0fd06d7f572d" x1="7.663" y1="960.604" x2="7.663" y2="965.825" gradientTransform="translate(0 -950)" gradientUnits="userSpaceOnUse">
      <stop offset="0.23" stop-color="#5ea0ef"/>
      <stop offset="0.32" stop-color="#5b9fee"/>
      <stop offset="0.48" stop-color="#509aeb"/>
      <stop offset="0.57" stop-color="#3f92e6"/>
      <stop offset="0.75" stop-color="#2688df"/>
      <stop offset="0.93" stop-color="#127fd9"/>
    </linearGradient>
    <linearGradient id="ab9cd81f-0154-4549-a540-312007eb9e0c" x1="10.254" y1="962.78" x2="10.254" y2="968" gradientTransform="translate(0 -950)" gradientUnits="userSpaceOnUse">
      <stop offset="0.02" stop-color="#5ea0ef"/>
      <stop offset="0.14" stop-color="#5b9fee"/>
      <stop offset="0.23" stop-color="#5b9fee"/>
      <stop offset="0.34" stop-color="#509aeb"/>
      <stop offset="0.44" stop-color="#3f92e6"/>
      <stop offset="0.63" stop-color="#2688df"/>
      <stop offset="0.93" stop-color="#127fd9"/>
    </linearGradient>
  </defs>
  <g id="b1fec1b4-3a42-4f2a-8e89-9d3f65939d91">
    <g>
      <g>
        <path d="M8.306,2.817H9.611v8.222H8.306Z" fill="#7a7a7a"/>
        <path d="M10.873,2.556A1.914,1.914,0,1,1,8.959.642h0A1.914,1.914,0,0,1,10.873,2.556Z" fill="#1490df"/>
        <path d="M8.7,10.6H6.61a2.61,2.61,0,0,0-.405,5.186,2.8,2.8,0,0,1,.026-.97,1.649,1.649,0,0,1,.379-3.258H8.7a1.653,1.653,0,0,1,0,3.306H8.123A1.24,1.24,0,0,0,8,15.39a1.2,1.2,0,0,0,.082.435H8.7a2.611,2.611,0,0,0,0-5.221Z" fill="url(#e4523c24-1eeb-4db2-b058-0fd06d7f572d)"/>
        <path d="M11.712,12.814a3,3,0,0,1,.031.4,2.735,2.735,0,0,1-.057.57,1.648,1.648,0,0,1-.378,3.258H9.22a1.653,1.653,0,0,1,0-3.306h.574a1.179,1.179,0,0,0,.039-.957H9.22a2.61,2.61,0,0,0,0,5.22h2.088a2.61,2.61,0,0,0,.4-5.186Z" fill="url(#ab9cd81f-0154-4549-a540-312007eb9e0c)"/>
      </g>
      <path d="M6.193,3.76a1.884,1.884,0,0,1-.451-1.169A1.6,1.6,0,0,1,6.176,1.5a.442.442,0,0,0-.6-.647,2.5,2.5,0,0,0-.716,1.737,2.768,2.768,0,0,0,.7,1.782.441.441,0,0,0,.32.137.436.436,0,0,0,.3-.122A.441.441,0,0,0,6.193,3.76Z" fill="#1490df"/>
      <path d="M4.2,5.228a.438.438,0,0,1-.332-.151,4.026,4.026,0,0,1-.89-2.463A4.288,4.288,0,0,1,3.86.164a.441.441,0,0,1,.687.554h0a3.432,3.432,0,0,0-.683,1.9A3.122,3.122,0,0,0,4.535,4.5a.442.442,0,0,1-.332.732Z" fill="#1490df"/>
      <path d="M12.281.856a.442.442,0,0,0-.6.646,1.6,1.6,0,0,1,.435,1.1,1.885,1.885,0,0,1-.452,1.169.441.441,0,1,0,.639.609A2.768,2.768,0,0,0,13,2.593,2.5,2.5,0,0,0,12.281.856Z" fill="#1490df"/>
      <path d="M13.8,5.233a.441.441,0,0,1-.332-.732,3.165,3.165,0,0,0,.671-1.882,3.431,3.431,0,0,0-.683-1.9A.442.442,0,0,1,14.14.169a4.3,4.3,0,0,1,.879,2.45,4.027,4.027,0,0,1-.89,2.464A.437.437,0,0,1,13.8,5.233Z" fill="#1490df"/>
    </g>
  </g>
  <metadata>
   <rdf:RDF xmlns:rdf="http://www.w3.org/1999/02/22-rdf-syntax-ns#">
      <rdf:li>public:true</rdf:li>
      <rdf:li>sdk:false</rdf:li>
      <rdf:li>category: Other, Networking</rdf:li>
   </rdf:RDF>
</metadata>
</svg>
