<svg xmlns="http://www.w3.org/2000/svg" width="18" height="18" viewBox="0 0 18 18">
  <defs>
    <linearGradient id="a7d23b5e-f972-4e04-aa4d-3f7db00f06f4" x1="9.121" y1="14.967" x2="9.121" y2="4.439" gradientUnits="userSpaceOnUse">
      <stop offset="0" stop-color="#7548d6"/>
      <stop offset="1" stop-color="#9d79eb"/>
    </linearGradient>
    <linearGradient id="b012d6e9-3525-4ef5-a96a-e9865ccd29e7" x1="-555.049" y1="1022.052" x2="-555.049" y2="1025.391" gradientTransform="matrix(1, 0, 0, -1, 564, 1025.516)" gradientUnits="userSpaceOnUse">
      <stop offset="0.001" stop-color="#37c2b1"/>
      <stop offset="0.496" stop-color="#3acebc"/>
      <stop offset="1" stop-color="#3cd4c2"/>
    </linearGradient>
    <linearGradient id="a7571c34-91ed-48e4-9b90-db9491ee11e6" x1="-549.766" y1="1008.393" x2="-549.766" y2="1011.732" gradientUnits="userSpaceOnUse">
          <stop offset="0.001" stop-color="#37c2b1"/>
      <stop offset="0.496" stop-color="#3acebc"/>
      <stop offset="1" stop-color="#3cd4c2"/>
          </linearGradient>
    <linearGradient id="b659075e-5b04-4275-9a53-a0fce6f0c331" x1="-560.612" y1="1008.393" x2="-560.612" y2="1011.732" gradientUnits="userSpaceOnUse">
          <stop offset="0.001" stop-color="#37c2b1"/>
      <stop offset="0.496" stop-color="#3acebc"/>
      <stop offset="1" stop-color="#3cd4c2"/>
          </linearGradient>
  </defs>
  <g id="b24e9035-bba9-457b-9f9e-d54366d8a8c1">
    <g>
      <circle cx="9.121" cy="9.703" r="5.264" fill="url(#a7d23b5e-f972-4e04-aa4d-3f7db00f06f4)"/>
      <path d="M14.37,9.525h-.009a5.382,5.382,0,1,0,0,.355h.009Zm-2.233,0A6.189,6.189,0,0,0,11.7,7.284h1.664A4.958,4.958,0,0,1,14,9.525ZM3.975,9.88H5.911a6.178,6.178,0,0,0,.444,2.243H4.609A4.951,4.951,0,0,1,3.978,9.88Zm7.178-2.95H9.167V4.917A5.658,5.658,0,0,1,11.153,6.93Zm-2.341,0H6.952a6.007,6.007,0,0,1,1.86-1.871Zm0,.354V9.525H6.267a5.393,5.393,0,0,1,.508-2.241ZM5.91,9.525H3.978a4.958,4.958,0,0,1,.63-2.241H6.384A5.781,5.781,0,0,0,5.91,9.525Zm.355.355H8.81v2.243H6.755A5.724,5.724,0,0,1,6.265,9.88Zm2.545,2.6v1.988a5.817,5.817,0,0,1-1.886-1.988Zm.355,0h1.957a5.869,5.869,0,0,1-1.957,2.036Zm0-.355V9.88h2.621a5.724,5.724,0,0,1-.49,2.243Zm0-2.6V7.284h2.153a5.76,5.76,0,0,1,.464,2.241Zm4.012-2.6H11.538a5.835,5.835,0,0,0-2.022-2.2,5.016,5.016,0,0,1,3.662,2.2ZM8.709,4.7A6.3,6.3,0,0,0,6.562,6.93H4.8A5.018,5.018,0,0,1,8.709,4.7ZM4.8,12.478H6.528A6,6,0,0,0,8.5,14.683,5.018,5.018,0,0,1,4.8,12.478Zm4.759,2.2a5.984,5.984,0,0,0,1.963-2.2h1.655A5.02,5.02,0,0,1,9.56,14.674Zm3.81-2.551H11.7A6.158,6.158,0,0,0,12.14,9.88H14A4.974,4.974,0,0,1,13.37,12.123Z" fill="#b796f9"/>
      <ellipse cx="8.951" cy="1.795" rx="1.608" ry="1.67" fill="url(#b012d6e9-3525-4ef5-a96a-e9865ccd29e7)"/>
      <path d="M10.941,1.911a2.129,2.129,0,0,1-.2.791A7.259,7.259,0,0,1,16.026,9.76,7.457,7.457,0,0,1,15,13.535a1.98,1.98,0,0,1,.656.459,8.289,8.289,0,0,0,1.155-4.232A8.059,8.059,0,0,0,10.941,1.911Z" fill="#37c2b1"/>
      <ellipse cx="14.234" cy="15.453" rx="1.608" ry="1.67" fill="url(#a7571c34-91ed-48e4-9b90-db9491ee11e6)"/>
      <ellipse cx="3.388" cy="15.453" rx="1.608" ry="1.67" fill="url(#b659075e-5b04-4275-9a53-a0fce6f0c331)"/>
      <g>
        <path d="M12.362,16.163a6.762,6.762,0,0,1-7.041-.2,2.1,2.1,0,0,1-.344.74,7.529,7.529,0,0,0,7.8.155A2.1,2.1,0,0,1,12.362,16.163Z" fill="#37c2b1"/>
        <path d="M2.934,13.434a7.452,7.452,0,0,1-.965-3.675,7.262,7.262,0,0,1,5.2-7.037,2.1,2.1,0,0,1-.206-.788A8.062,8.062,0,0,0,1.188,9.76a8.3,8.3,0,0,0,1.033,4.019A1.945,1.945,0,0,1,2.934,13.434Z" fill="#37c2b1"/>
      </g>
    </g>
  </g>
</svg>
