<svg xmlns="http://www.w3.org/2000/svg" width="18" height="18" viewBox="0 0 18 18">
  <defs>
    <linearGradient id="b1c86480-153a-40e8-9db1-d11b862bb79c" x1="9" y1="1.199" x2="9" y2="13.955" gradientUnits="userSpaceOnUse">
      <stop offset="0" stop-color="#5ea0ef"/>
      <stop offset="1" stop-color="#0078d4"/>
    </linearGradient>
    <linearGradient id="b04120f8-7967-483b-8bc4-41b0220fb617" x1="8.945" y1="15.901" x2="8.945" y2="8.043" gradientUnits="userSpaceOnUse">
      <stop offset="0" stop-color="#a67af4"/>
      <stop offset="0.818" stop-color="#b796f9"/>
    </linearGradient>
  </defs>
  <g id="a7bed07a-ec59-4810-91f6-32c3a6bef491">
    <g>
      <path d="M18,9.962a4.092,4.092,0,0,1-4.06,3.945.875.875,0,0,1-.216.032h-.463v-.4h.389a.665.665,0,0,0,.664-.664V12.55a.662.662,0,0,0-.343-.578.66.66,0,0,0,.343-.578v-.322a.664.664,0,0,0-.664-.664h-.389V8.521a.9.9,0,0,0-.9-.9H10.5v-.37A.657.657,0,0,0,9.842,6.6h-.33a.651.651,0,0,0-.567.332A.651.651,0,0,0,8.378,6.6h-.33a.658.658,0,0,0-.657.655v.37H5.529a.9.9,0,0,0-.9.9v1.887H4.317a.632.632,0,0,0-.63.631v.389a.631.631,0,0,0,.318.544.632.632,0,0,0-.318.545V12.9a.632.632,0,0,0,.63.632h.312v.419A4.9,4.9,0,0,1,0,9.258,4.826,4.826,0,0,1,4.245,4.609a5.227,5.227,0,0,1,5-3.408,5.1,5.1,0,0,1,5.251,4.874A4.043,4.043,0,0,1,18,9.962Z" fill="url(#b1c86480-153a-40e8-9db1-d11b862bb79c)"/>
      <g>
        <g>
          <rect x="7.814" y="7.017" width="0.799" height="1.373" rx="0.234" fill="#773adc"/>
          <rect x="9.278" y="7.017" width="0.799" height="1.373" rx="0.234" fill="#773adc"/>
        </g>
        <g>
          <rect x="7.814" y="15.687" width="0.799" height="1.114" rx="0.211" fill="#773adc"/>
          <rect x="9.278" y="15.687" width="0.799" height="1.114" rx="0.211" fill="#773adc"/>
        </g>
        <g>
          <rect x="12.765" y="10.508" width="0.806" height="1.45" rx="0.242" transform="translate(24.401 -1.935) rotate(90)" fill="#773adc"/>
          <rect x="12.765" y="11.986" width="0.806" height="1.45" rx="0.242" transform="translate(25.879 -0.457) rotate(90)" fill="#773adc"/>
        </g>
        <g>
          <rect x="4.249" y="10.69" width="0.806" height="1.087" rx="0.209" transform="translate(15.885 6.581) rotate(90)" fill="#773adc"/>
          <rect x="4.249" y="12.167" width="0.806" height="1.087" rx="0.209" transform="translate(17.363 8.059) rotate(90)" fill="#773adc"/>
        </g>
        <rect x="5.051" y="8.043" width="7.787" height="7.859" rx="0.478" fill="url(#b04120f8-7967-483b-8bc4-41b0220fb617)"/>
        <rect x="6.85" y="9.858" width="4.19" height="4.228" rx="0.281" fill="#fff" opacity="0.2"/>
      </g>
    </g>
  </g>
</svg>
