<svg id="uuid-b263bc6f-1394-4a38-8bef-8cb46bc16fba" xmlns="http://www.w3.org/2000/svg" width="18" height="18" viewBox="0 0 18 18"><defs><linearGradient id="uuid-fcbda250-2d5a-4740-87ef-1d7c03605551" x1="14.306" y1="9.33" x2="14.306" y2="19.396" gradientUnits="userSpaceOnUse"><stop offset=".001" stop-color="#76bc2d" /><stop offset="1" stop-color="#5e9624" /></linearGradient><linearGradient id="uuid-44bca0e9-bd2c-4669-99e5-e4d148860a68" x1="-79.704" y1="778.503" x2="-79.704" y2="784.462" gradientTransform="translate(94 795.516) scale(1 -1)" gradientUnits="userSpaceOnUse"><stop offset="0" stop-color="#76bc2d" /><stop offset=".206" stop-color="#7bc52f" /><stop offset=".61" stop-color="#83d132" /><stop offset="1" stop-color="#86d633" /></linearGradient><linearGradient id="uuid-56b42e5d-96c1-456c-b81e-cdf007427fc8" x1="8.098" y1="17.522" x2="8.098" y2="1.326" gradientUnits="userSpaceOnUse"><stop offset="0" stop-color="#5ea0ef" /><stop offset="1" stop-color="#0078d4" /></linearGradient><linearGradient id="uuid-7afbfeba-e280-4a03-a38c-dffcc7965744" x1="8.098" y1="2.179" x2="8.098" y2="16.67" gradientUnits="userSpaceOnUse"><stop offset="0" stop-color="#5ea0ef" /><stop offset="1" stop-color="#83b9f9" /></linearGradient></defs><g><path d="m17.947,10.286c0-.124-.098-.227-.222-.232-2.269-.063-1.741-1.055-3.44-1.055s-1.182.992-3.451,1.055c-.124.006-.222.108-.222.232v2.934c0,2.374,2.923,4.316,3.599,4.749.076.041.167.041.243,0,.633-.401,3.546-2.343,3.546-4.749l-.053-2.934Zm-.285.264l-.011,2.67c0,2.216-2.67,4-3.25,4.358-.068.042-.154.042-.222,0-.58-.359-3.25-2.111-3.25-4.358v-2.67c-.006-.111.079-.205.19-.211.004,0,.007,0,.011,0,2.111,0,1.604-.971,3.166-.971s1.055.918,3.166.971c.111,0,.201.089.201.2,0,.004,0,.007,0,.011Z" fill="url(#uuid-fcbda250-2d5a-4740-87ef-1d7c03605551)" /><path d="m14.291,17.294c-.331-.208-1.072-.707-1.738-1.395-.878-.906-1.323-1.807-1.323-2.679v-2.581c1.157-.016,1.573-.325,1.942-.598.28-.208.501-.372,1.124-.372.632,0,.855.16,1.136.362.349.251.781.562,1.929.605l-.01,2.582c0,.86-.445,1.757-1.323,2.668-.693.719-1.456,1.229-1.737,1.406Z" fill="url(#uuid-44bca0e9-bd2c-4669-99e5-e4d148860a68)" /></g><g id="uuid-f727ae11-f762-49fb-853f-f14b7ecd89bc"><path d="m10.162,13.22v-2.933c0-.366.286-.666.652-.683h.004s.004,0,.004,0c1.069-.03,1.405-.266,1.76-.517.182-.128.376-.265.646-.368V.54C13.227.242,12.986,0,12.687,0H.54C.242,0,0,.242,0,.54v15.116c0,.298.242.54.54.54h10.9c-.717-.845-1.278-1.862-1.278-2.976Z" fill="#005ba1" /><path d="m10.162,13.22v-2.933c0-.366.286-.666.652-.683h.004s.004,0,.004,0c1.069-.03,1.405-.266,1.76-.517.358-.252.764-.539,1.704-.539.157,0,.297.009.427.023V1.866c0-.298-.242-.54-.54-.54H2.025c-.298,0-.54.242-.54.54v15.116c0,.298.242.54.54.54h10.796c-1.217-.98-2.658-2.516-2.658-4.302Z" fill="url(#uuid-56b42e5d-96c1-456c-b81e-cdf007427fc8)" /><path d="m10.162,13.22v-2.933c0-.366.286-.666.652-.683h.004s.004,0,.004,0c1.069-.03,1.405-.266,1.76-.517.3-.211.634-.445,1.285-.517V2.314c0-.075-.061-.135-.135-.135H2.465c-.075,0-.135.061-.135.135v14.22c0,.075.061.135.135.135h9.409c-.911-.927-1.712-2.119-1.712-3.45Z" fill="url(#uuid-7afbfeba-e280-4a03-a38c-dffcc7965744)" /><g><rect x="3.206" y="4.449" width="1.903" height="1.528" rx=".345" ry=".345" fill="#f1f1f1" isolation="isolate" /><rect x="6.405" y="4.449" width="6.551" height="1.528" rx=".334" ry=".334" fill="#fff" /><rect x="5.2" y="7.256" width="1.911" height="1.528" rx=".298" ry=".298" fill="#f1f1f1" isolation="isolate" /><rect x="8.417" y="7.256" width="4.573" height="1.528" rx=".289" ry=".289" fill="#fff" /><rect x="5.193" y="10.064" width="1.918" height="1.528" rx=".298" ry=".298" fill="#f1f1f1" isolation="isolate" /><rect x="3.239" y="12.871" width="1.903" height="1.528" rx=".345" ry=".345" fill="#f1f1f1" isolation="isolate" /><path d="m10.162,10.287c0-.078.015-.153.04-.223h-1.495c-.16,0-.289.13-.289.289v.949c0,.16.13.289.289.289h1.456v-1.305Z" fill="#fff" /><path d="m10.162,13.22v-.35h-3.39c-.185,0-.334.15-.334.334v.859c0,.185.15.334.334.334h3.596c-.13-.378-.206-.772-.206-1.179Z" fill="#fff" /></g></g></svg>