<svg xmlns="http://www.w3.org/2000/svg" width="18" height="18" viewBox="0 0 18 18">
  <defs>
    <linearGradient id="b15ac0c6-1c0b-4462-87f7-d75a34568dec" x1="9.237" y1="5.151" x2="9.237" y2="0.124" gradientUnits="userSpaceOnUse">
      <stop offset="0.001" stop-color="#773adc"/>
      <stop offset="1" stop-color="#a67af4"/>
    </linearGradient>
    <linearGradient id="f6b56e6f-bedb-48de-9c2f-a8ae0071926c" x1="15.128" y1="16.531" x2="15.128" y2="11.505" gradientUnits="userSpaceOnUse">
          <stop offset="0.001" stop-color="#773adc"/>
      <stop offset="1" stop-color="#a67af4"/>
    </linearGradient>
    <linearGradient id="b6e43690-6ae3-456e-993d-0ae9a2fba7ae" x1="2.872" y1="16.502" x2="2.872" y2="11.475" gradientUnits="userSpaceOnUse">
          <stop offset="0.001" stop-color="#773adc"/>
      <stop offset="1" stop-color="#a67af4"/>
    </linearGradient>
  </defs>
  <g id="e04014b6-9d16-41e9-8a1e-ab095fa40963">
    <g>
      <path d="M9.731,5.1A2.515,2.515,0,1,0,8.277,4.96,2.516,2.516,0,0,0,9.731,5.1Z" fill="url(#b15ac0c6-1c0b-4462-87f7-d75a34568dec)"/>
      <path d="M8.593,3.315a.934.934,0,0,0,1.424-.164.935.935,0,0,0,0-1.028A.933.933,0,0,0,8.593,1.96a.937.937,0,0,0-.291.677.937.937,0,0,0,.291.678Z" fill="#fff"/>
      <path d="M15.622,16.482a2.511,2.511,0,1,0-1.454-.141A2.514,2.514,0,0,0,15.622,16.482Z" fill="url(#f6b56e6f-bedb-48de-9c2f-a8ae0071926c)"/>
      <path d="M15.216,10.028a6.162,6.162,0,0,1-.036.655,3.314,3.314,0,0,1,1.809.568A7.845,7.845,0,0,0,12.561,2.92a3.314,3.314,0,0,1-.677,1.748A5.986,5.986,0,0,1,15.216,10.028Z" fill="#32bedd"/>
      <path d="M14.484,14.7a.942.942,0,0,0,.479.243.934.934,0,1,0-.694-1.289.931.931,0,0,0,0,.737A.925.925,0,0,0,14.484,14.7Z" fill="#fff"/>
      <path d="M3.366,16.453a2.517,2.517,0,1,0-1.453-.142A2.511,2.511,0,0,0,3.366,16.453Z" fill="url(#b6e43690-6ae3-456e-993d-0ae9a2fba7ae)"/>
      <g>
        <path d="M1.6,10.905a3.317,3.317,0,0,1,1.274-.253,3.283,3.283,0,0,1,.421.028,6.105,6.105,0,0,1-.036-.652A5.987,5.987,0,0,1,6.59,4.667c-.043-.057-.086-.115-.126-.175A3.329,3.329,0,0,1,5.913,2.92a7.813,7.813,0,0,0-4.465,8.054C1.5,10.95,1.547,10.926,1.6,10.905Z" fill="#32bedd"/>
        <path d="M12.355,15.873a3.372,3.372,0,0,1-.3-.571,5.962,5.962,0,0,1-6.021-.232,3.328,3.328,0,0,1-.793,1.273,3.605,3.605,0,0,1-.286.254,7.827,7.827,0,0,0,8.3.175A3.314,3.314,0,0,1,12.355,15.873Z" fill="#32bedd"/>
      </g>
      <path d="M2.229,14.666a.937.937,0,1,0-.215-.309A.929.929,0,0,0,2.229,14.666Z" fill="#fff"/>
    </g>
  </g>
</svg>
