<svg xmlns="http://www.w3.org/2000/svg" width="16" height="16" viewBox="0 0 16 16">
  <g id="e3bb76df-3159-4d7f-bf69-2161d02e9d2c">
    <g>
      <circle cx="8" cy="8" r="7.9" fill="#3b3b3b"/>
      <path d="M12.167,4.374a.433.433,0,1,0-.865,0V5.555A4.125,4.125,0,0,0,9.589,4.491a4.945,4.945,0,0,0-3.2.085,4.843,4.843,0,0,0-2.5,2.081.433.433,0,1,0,.759.416A3.987,3.987,0,0,1,6.69,5.387a4.084,4.084,0,0,1,2.643-.069,3.4,3.4,0,0,1,1.6,1.112H9.461a.433.433,0,0,0,0,.866h2.274a.432.432,0,0,0,.432-.433ZM5.24,9.461A.866.866,0,0,1,6.106,8.6H9.57a.866.866,0,0,1,.866.866v1.732a.866.866,0,0,1-.866.866H6.106a.865.865,0,0,1-.866-.866Zm.866.217v1.3a.216.216,0,0,0,.216.216H9.353a.217.217,0,0,0,.217-.216v-1.3a.217.217,0,0,0-.217-.217H6.322A.217.217,0,0,0,6.106,9.678Z" fill="#fff"/>
    </g>
  </g>
</svg>
