<svg id="uuid-7391846e-d5c7-45b6-a3fe-9853773eb4fe" xmlns="http://www.w3.org/2000/svg" width="18" height="18" viewBox="0 0 18 18">
  <defs>
    <linearGradient id="uuid-e027e465-c8c6-473d-be43-e90287ff061d" x1="65.014" y1="631.888" x2="64.98" y2="636.845" gradientTransform="translate(-56 645.516) scale(1 -1)" gradientUnits="userSpaceOnUse">
      <stop offset=".001" stop-color="#773adc"/>
      <stop offset="1" stop-color="#a67af4"/>
    </linearGradient>
    <linearGradient id="uuid-c33540cb-8b96-42ea-9148-b8bd75f3b16f" x1="65" y1="642.42" x2="65" y2="632.82" gradientTransform="translate(-56 645.516) scale(1 -1)" gradientUnits="userSpaceOnUse">
      <stop offset="0" stop-color="#b796f9"/>
      <stop offset=".179" stop-color="#b08df6"/>
      <stop offset=".466" stop-color="#a075ee"/>
      <stop offset=".825" stop-color="#854fe2"/>
      <stop offset="1" stop-color="#773adc"/>
    </linearGradient>
  </defs>
  <g>
    <path d="M17.425,15.11c-.159.69-1.02,1.371-2.58,1.901-3.9,1.147-8.046,1.152-11.949.017-1.436-.511-2.211-1.157-2.333-1.819-.021-.116,0-1.938,0-1.938l16.889-.157s-.008,1.908-.027,1.996Z" fill="#5ea0ef"/>
    <path d="M9.667,10.314v.171c.384.228.626.644.629,1.101,0,.715-.582,1.297-1.297,1.297s-1.297-.582-1.297-1.302c.005-.451.247-.864.632-1.093v-.162c-4.369.157-7.801,1.452-7.785,2.991.016,1.614,3.813,2.884,8.481,2.837,4.667-.047,8.438-1.393,8.422-3.007-.015-1.533-3.441-2.754-7.784-2.833Z" fill="#50e6ff"/>
  </g>
  <g id="uuid-19967127-fa68-4a43-b3df-73744ef4f479">
    <g>
      <g id="uuid-e0c4562c-61b2-4188-98d8-c754ad9ec1a8">
        <path d="M12.22,1.741C10.875-.021,8.355-.358,6.593.987c-.002.001-.003.002-.005.003l-.041.032c-1.755,1.363-2.073,3.89-.71,5.645.622.801,1.523,1.337,2.523,1.502v-2.914c-.604-.351-.81-1.126-.458-1.731.197-.339.54-.567.929-.619.056-.008.112-.012.168-.012.075,0,.15.007.223.021.688.119,1.149.773,1.03,1.461-.064.37-.29.693-.616.881v2.918c.668-.105,1.298-.379,1.831-.794,1.763-1.35,2.099-3.874.751-5.639Z" fill="#773adc"/>
        <path d="M12.697,2.483l-.034-.077c-.599-1.215-1.761-2.054-3.102-2.239-.062-.015-.126-.022-.19-.023-.119-.011-.239-.019-.361-.019-.138,0-.277.007-.415.021-.075.003-.149.014-.221.034-1.305.21-2.427,1.04-3.012,2.225h-.006v.008c-.994,2.01-.17,4.446,1.84,5.44.367.182.76.307,1.165.371v-.583c-.515-.473-.897-1.073-1.106-1.74h1.106v-.394h-1.236c-.132-.422-.204-.862-.213-1.304,0-.473.056-.945.165-1.405h1.755v.109c.056-.008.112-.012.168-.012.075,0,.15.007.223.021v-.118h1.665c.11.461.165.932.164,1.406-.009.442-.081.881-.213,1.303h-1.2v.394h1.069c-.203.651-.572,1.238-1.069,1.704v.622c1.98-.313,3.44-2.019,3.442-4.024,0-.594-.131-1.182-.384-1.719ZM11.285,2.797h1.126c.358.865.371,1.834.036,2.708h-1.194c.121-.424.185-.862.191-1.303-.001-.473-.055-.944-.16-1.406ZM6.712,5.505h-1.14c-.336-.874-.322-1.844.037-2.708h1.07c-.105.461-.158.933-.158,1.406.006.441.07.879.191,1.303ZM7.833,7.689c-.899-.306-1.646-.947-2.086-1.79h1.088c.218.654.556,1.261.998,1.79ZM6.782,2.406h-.981c.399-.715,1.024-1.277,1.777-1.599-.365.477-.635,1.02-.796,1.599ZM8.83,2.406h-1.643c.176-.758.638-1.419,1.29-1.846.117-.017.234-.028.354-.035v1.88ZM9.223,2.406V.529c.079.005.16.01.239.019.669.419,1.143,1.088,1.317,1.858h-1.556ZM10.363.782c.786.313,1.441.887,1.856,1.624h-1.037c-.164-.591-.442-1.143-.819-1.627v.003ZM11.131,5.902h1.142c-.453.869-1.233,1.523-2.167,1.817.455-.535.803-1.153,1.026-1.82v.003Z" fill="#b796f9"/>
      </g>
      <g>
        <path d="M15.22,10.302v2.574c0,.229-.186.415-.415.415H3.195c-.229,0-.415-.186-.415-.415h0v-2.574c0-.229.186-.415.415-.415h5.167v.561c-.002.032-.019.061-.046.077-.591.37-.769,1.149-.399,1.739.234.373.644.597,1.084.592h0c.698.004,1.267-.559,1.271-1.257.003-.435-.219-.841-.586-1.074-.028-.018-.045-.049-.046-.082v-.56h5.166c.229,0,.415.186.415.415,0,.001,0,.002,0,.003Z" fill="url(#uuid-e027e465-c8c6-473d-be43-e90287ff061d)"/>
        <rect x="13.285" y="10.481" width=".93" height=".931" rx=".208" ry=".208" fill="#fff"/>
        <rect x="13.285" y="11.765" width=".93" height=".931" rx=".208" ry=".208" fill="#fff" isolation="isolate" opacity=".6"/>
      </g>
      <path d="M9.852,11.585h0c0,.471-.382.854-.854.854s-.854-.382-.854-.854c.004-.333.203-.633.509-.765.073-.03.122-.101.123-.18v-5.522c-.001-.08-.05-.151-.123-.181-.307-.134-.506-.436-.508-.771,0-.406.286-.757.684-.837.056-.011.112-.016.169-.017h.006c.073,0,.146.01.217.028.375.101.634.441.632.829-.003.334-.202.636-.509.768-.073.03-.122.101-.122.18v5.519c.001.079.049.15.122.18.306.133.504.434.507.768Z" fill="url(#uuid-c33540cb-8b96-42ea-9148-b8bd75f3b16f)"/>
    </g>
  </g>
</svg>