<svg xmlns="http://www.w3.org/2000/svg" viewBox="0 0 18 18">
  <defs>
    <linearGradient id="b885d38f-07de-4c3d-a4d2-740680752dc0" x1="9" y1="0.565" x2="9" y2="15.99" gradientUnits="userSpaceOnUse">
      <stop offset="0" stop-color="#a67af4" />
      <stop offset="1" stop-color="#773adc" />
    </linearGradient>
    <linearGradient id="e0b91c71-aa59-4d35-a0d8-316869e5e049" x1="-0.325" y1="15.494" x2="6.312" y2="7.273" gradientUnits="userSpaceOnUse">
      <stop offset="0" stop-color="#773adc" stop-opacity="0" />
      <stop offset="1" stop-color="#fff" />
    </linearGradient>
    <linearGradient id="f465e4f3-fa2a-4278-a896-5b5081aad4f0" x1="11.853" y1="24.06" x2="12.279" y2="13.034" gradientUnits="userSpaceOnUse">
      <stop offset="0" stop-color="#773adc" stop-opacity="0" />
      <stop offset="1" stop-color="#fff" />
    </linearGradient>
    <linearGradient id="a2fce158-05d3-4090-86e9-07ca0717d1ac" x1="-12.032" y1="29.217" x2="9.538" y2="9.759" gradientTransform="translate(9.894 -3.327) rotate(45.004)" gradientUnits="userSpaceOnUse">
      <stop offset="0" stop-color="#773adc" stop-opacity="0" />
      <stop offset="1" stop-color="#fff" />
    </linearGradient>
  </defs>
  <g id="a3a20b62-5eb1-4a7b-ab7e-ff9932965302">
    <path d="M2.256,2.337H15.744a.563.563,0,0,1,.563.563V17.438a.563.563,0,0,1-.563.562H2.256a.563.563,0,0,1-.563-.562V2.9A.563.563,0,0,1,2.256,2.337Z" fill="url(#b885d38f-07de-4c3d-a4d2-740680752dc0)" />
    <rect x="2.605" y="3.293" width="12.83" height="13.75" rx="0.596" fill="#a67af4" />
    <path d="M10.138,1.257a1.153,1.153,0,0,0-2.3-.208,1.2,1.2,0,0,0,0,.208H5.614a.493.493,0,0,0-.5.493v2.1h7.762V1.752a.494.494,0,0,0-.494-.5H10.138ZM8.831.7a.577.577,0,0,1,.712.4.61.61,0,0,1,.022.159H9.55a.571.571,0,0,1-.57.57.56.56,0,0,1-.218-.042.575.575,0,0,1-.327-.7A.567.567,0,0,1,8.831.7Z" fill="#b796f9" />
    <path d="M5.948,9.755,3.721,7.5a.283.283,0,0,1,0-.4l.722-.713a.283.283,0,0,1,.4,0l1.1,1.116a.282.282,0,0,0,.4,0L9,4.822a.282.282,0,0,1,.4,0l.723.713a.283.283,0,0,1,0,.4L6.35,9.755A.282.282,0,0,1,5.948,9.755Z" fill="url(#e0b91c71-aa59-4d35-a0d8-316869e5e049)" />
    <path d="M14.588,11.574l-.718-.718a.282.282,0,0,0-.4,0l-1,1a.281.281,0,0,1-.4,0l-1-1a.282.282,0,0,0-.4,0l-.718.718a.282.282,0,0,0,0,.4l1,1a.282.282,0,0,1,0,.4l-1,1a.282.282,0,0,0,0,.4l.718.718a.282.282,0,0,0,.4,0l1-1a.282.282,0,0,1,.4,0l1,1a.282.282,0,0,0,.4,0l.718-.718a.282.282,0,0,0,0-.4l-1-1a.284.284,0,0,1,0-.4l1-1A.282.282,0,0,0,14.588,11.574Z" fill="url(#f465e4f3-fa2a-4278-a896-5b5081aad4f0)" />
    <rect x="2.375" y="9.488" width="13.175" height="1.581" rx="0.283" transform="translate(-4.643 9.349) rotate(-45.004)" fill="url(#a2fce158-05d3-4090-86e9-07ca0717d1ac)" />
  </g>
</svg>