<svg id="uuid-6f999a07-db41-468e-a807-89532c8ba017" xmlns="http://www.w3.org/2000/svg" width="18" height="18" viewBox="0 0 18 18">
  <path d="M4.815,17.903c.109,.064,.233,.098,.36,.097V6.782l-1.944-1.143c-.062,.107-.095,.229-.095,.352h0v10.516c0,.124,.032,.246,.094,.353,.062,.107,.15,.197,.258,.259l1.328,.783Z" fill="#59285f"/>
  <path d="M3.484,5.377L12.467,.096C12.575,.033,12.698,0,12.823,0s.248,.033,.356,.096l1.334,.786c.108,.063,.197,.154,.257,.264L5.174,6.782v-.014l-1.944-1.129c.06-.108,.148-.199,.254-.262Z" fill="#ce74b6"/>
  <path d="M14.77,1.146c.061,.106,.093,.227,.094,.35V12.015c0,.124-.032,.246-.094,.353-.062,.107-.15,.197-.258,.259l-8.984,5.277c-.107,.064-.23,.097-.355,.096V6.782L14.77,1.146Z" fill="#a33a85"/>
  <path d="M7.872,11.547l.188,.42-.341,.973-.047,.136,.469,.268,.775-.875,.455-.05,.231,.691,.035,.088,.667-.391,.298-1.108,.456-.484,.664,.003h.093l.471-.817-.357-.687,.191-.64,.717-.691,.094-.096,.006-.779-.819,.136-.184-.424,.347-.982,.048-.137-.466-.277-.769,.875-.457,.046-.232-.705-.035-.09-.673,.392-.3,1.124-.46,.488-.671-.006h-.095l-.474,.826,.365,.693-.19,.643-.722,.695-.094,.096v.779l.813-.133Zm2.123-.458c-.71,.415-1.285,.083-1.282-.744h0c.002-.829,.583-1.841,1.297-2.258s1.287-.079,1.282,.751-.584,1.834-1.294,2.25h-.002Z" fill="#fff"/>
</svg>