<?xml version="1.0" encoding="UTF-8"?>
<svg id="uuid-994d1e8f-2cbd-4d6d-837f-2a867d7bcc39" data-name="Layer 1" xmlns="http://www.w3.org/2000/svg" width="18" height="18" xmlns:xlink="http://www.w3.org/1999/xlink" viewBox="0 0 18 18">
  <defs>
    <linearGradient id="uuid-560d5b3e-9ef8-4456-9909-5311aef44a33" x1="-557.082" y1="1018.957" x2="-557.082" y2="1010.73" gradientTransform="translate(564 1025.516) scale(1 -1)" gradientUnits="userSpaceOnUse">
      <stop offset=".203" stop-color="#5ea0ef"/>
      <stop offset="1" stop-color="#0078d4"/>
    </linearGradient>
    <linearGradient id="uuid-9b735a26-856c-48a2-9800-800f4cd69353" x1="-559.799" y1="1025.92" x2="-559.799" y2="1016.428" gradientTransform="translate(564 1025.516) scale(1 -1)" gradientUnits="userSpaceOnUse">
      <stop offset=".002" stop-color="#8de971"/>
      <stop offset="1" stop-color="#4aa647"/>
    </linearGradient>
    <linearGradient id="uuid-19e2cfaf-f191-462e-b534-7f86be2ef0ea" x1="13.81" y1="9.559" x2="13.81" y2="18.519" gradientTransform="matrix(1,0,0,1,0,0)" xlink:href="#uuid-9b735a26-856c-48a2-9800-800f4cd69353"/>
    <radialGradient id="uuid-5824c29e-31dc-400e-9ab8-8db5864d07cc" cx="-1854.84" cy="1022.185" fx="-1854.84" fy="1022.185" r="3.2" gradientTransform="translate(-1841.726 1026.251) rotate(-180)" gradientUnits="userSpaceOnUse">
      <stop offset=".35" stop-color="#0078d4"/>
      <stop offset=".492" stop-color="#047ad4"/>
      <stop offset=".661" stop-color="#1383d6"/>
      <stop offset=".842" stop-color="#2b90da"/>
      <stop offset="1" stop-color="#46a0de"/>
    </radialGradient>
  </defs>
  <g id="uuid-60fd0eae-42e7-4794-88ea-e3119c34be37" data-name="acc95674-f325-47bf-aa5d-ec8f2a7a98ea">
    <path d="M10.315,13.138v1.362h-.686c-3.376-.005-6.109-2.744-6.109-6.121v-1.002h1.352v1.002c.005,2.626,2.132,4.754,4.757,4.759h.686Z" fill="url(#uuid-560d5b3e-9ef8-4456-9909-5311aef44a33)" stroke-width="0"/>
    <path d="M4.201.125h0c2.25,0,4.076,1.826,4.076,4.076v.005c0,2.249-1.826,4.074-4.074,4.074h0C1.952,8.28.125,6.453.125,4.203v-.002C.125,1.951,1.951.125,4.201.125Z" fill="url(#uuid-9b735a26-856c-48a2-9800-800f4cd69353)" stroke-width="0"/>
    <circle cx="13.81" cy="13.821" r="4.053" fill="url(#uuid-19e2cfaf-f191-462e-b534-7f86be2ef0ea)" stroke-width="0"/>
  </g>
  <g id="uuid-8b506749-af29-4937-bba3-13874a5c55c3" data-name="e958cf41-a31a-426c-90ab-58b20591ece8">
    <g>
      <path d="M16.022,4.127h.069c.274,0,.496.222.496.496v3.672c0,.274-.223.497-.497.497h-.069c-.274,0-.496-.222-.496-.496v-3.672c0-.274.223-.497.497-.497Z" transform="translate(.132 13.24) rotate(-44.979)" fill="#155ea1" stroke-width="0"/>
      <circle cx="13.114" cy="3.327" r="3.2" fill="url(#uuid-5824c29e-31dc-400e-9ab8-8db5864d07cc)" stroke-width="0"/>
      <path d="M13.129.755c1.388,0,2.513,1.126,2.513,2.515s-1.125,2.515-2.513,2.515-2.513-1.126-2.513-2.515,1.125-2.515,2.513-2.515Z" fill="#fff" stroke-width="0"/>
      <path d="M10.694,3.892s.688-3.445,3.902-2.664c-.883-.655-2.092-.646-2.965.023-.833.598-1.206,1.651-.937,2.641Z" fill="#8dc8e8" opacity=".5" stroke-width="0"/>
    </g>
  </g>
</svg>